<svg xmlns="http://www.w3.org/2000/svg" width="526.914" height="112.79"><defs><radialGradient id="b" cx=".651" cy="-.757" r="1.057" gradientTransform="matrix(1 0 .001 5.882 .001 5.495)" gradientUnits="objectBoundingBox"><stop offset="0" stop-color="#98e4ff"/><stop offset="1" stop-color="#235e98"/></radialGradient><filter id="a" x="0" y="0" width="526.914" height="112.79" filterUnits="userSpaceOnUse"><feOffset dy="3"/><feGaussianBlur stdDeviation="2.5" result="blur"/><feFlood flood-opacity=".161"/><feComposite operator="in" in2="blur"/><feComposite in="SourceGraphic"/></filter></defs><g filter="url(#a)"><path data-name="Path 1" d="M4-38.429h78.311v20.19H33.287v15.03h45.476v19.287H33.287V34.72H83.73v21.416H4zm95.468 0h29.222V32.85h45.61v23.286H99.469zm88.114 0H216.8V32.85h45.61v23.286h-74.826zm89.275 0h29.285v94.565h-29.283zm46.575 47.347q0-23.157 12.9-36.058t35.929-12.9q23.609 0 36.381 12.675t12.772 35.51q0 16.578-5.58 27.189a39.779 39.779 0 01-16.126 16.513q-10.547 5.9-26.286 5.9-16 0-26.479-5.1a39.868 39.868 0 01-17-16.126q-6.511-11.021-6.511-27.603zm29.221.129q0 14.32 5.322 20.577t14.481 6.257q9.418 0 14.578-6.128t5.16-22q0-13.353-5.386-19.513t-14.61-6.16a17.751 17.751 0 00-14.191 6.257q-5.354 6.263-5.354 20.71zm74.439-47.476h88.824v23.351h-29.8v71.214h-29.223v-71.214h-29.8z" transform="translate(3.5 44.54)" fill="url(#b)"/></g></svg>