<svg xmlns="http://www.w3.org/2000/svg" xmlns:xlink="http://www.w3.org/1999/xlink" viewBox="0 0 146.94 46.78"><defs><style>.cls-1{font-size:12.51px;font-family:Arial;font-weight:700;letter-spacing:0.39em;}.cls-2{letter-spacing:0.36em;}.cls-3{letter-spacing:0.35em;}.cls-4{letter-spacing:0.31em;}.cls-5{fill:url(#radial-gradient);}</style><radialGradient id="radial-gradient" cx="95.17" cy="5.95" r="50.39" gradientUnits="userSpaceOnUse"><stop offset="0" stop-color="#f2f7f7"/><stop offset="0" stop-color="#eff6f6"/><stop offset="0" stop-color="#edf5f6"/><stop offset="0.02" stop-color="#daedf0"/><stop offset="0.06" stop-color="#bbe0e7"/><stop offset="0.11" stop-color="#9fd4df"/><stop offset="0.16" stop-color="#89cbd9"/><stop offset="0.23" stop-color="#78c4d4"/><stop offset="0.3" stop-color="#6dbfd1"/><stop offset="0.41" stop-color="#66bccf"/><stop offset="0.71" stop-color="#64bbce"/><stop offset="0.75" stop-color="#57adc2"/><stop offset="0.85" stop-color="#3d90ab"/><stop offset="0.94" stop-color="#2e7e9c"/><stop offset="1" stop-color="#287897"/></radialGradient></defs><title>HEADER-LOGO</title><g id="LOGO"><text class="cls-1" transform="translate(12.43 43.36) scale(1.13 1)">FOR<tspan class="cls-2" x="36.91" y="0"> </tspan><tspan class="cls-3" x="44.64" y="0">W</tspan><tspan class="cls-4" x="59.76" y="0">A</tspan><tspan x="71.23" y="0">TER</tspan></text><path class="cls-5" d="M0,.46H21.35v5.8H8v4.31h12.4V16.1H8v5.35H21.73V27.6H0Z"/><path class="cls-5" d="M27.5.46h8V20.92H47.9V27.6H27.5Z"/><path class="cls-5" d="M53,.46h8V20.92H73.4V27.6H53Z"/><path class="cls-5" d="M78.81.46h8V27.6h-8Z"/><path class="cls-5" d="M93,14.05Q93,7.4,96.5,3.7T106.3,0q6.44,0,9.92,3.64t3.48,10.19a17.5,17.5,0,0,1-1.52,7.8,11.2,11.2,0,0,1-4.4,4.74,13.94,13.94,0,0,1-7.17,1.69A15.81,15.81,0,0,1,99.4,26.6,11.18,11.18,0,0,1,94.76,22,16.06,16.06,0,0,1,93,14.05Zm8,0c0,2.74.49,4.7,1.45,5.9a5.3,5.3,0,0,0,7.92,0c.94-1.17,1.41-3.28,1.41-6.31,0-2.56-.49-4.42-1.47-5.6a4.89,4.89,0,0,0-4-1.77,4.75,4.75,0,0,0-3.87,1.79Q101,9.94,101,14.09Z"/><path class="cls-5" d="M122.72.46h24.22v6.7h-8.13V27.6h-8V7.16h-8.13Z"/></g></svg>