<svg xmlns="http://www.w3.org/2000/svg" width="188.904" height="75.933"><defs><filter id="a" x="0" y="0" width="188.904" height="48.221" filterUnits="userSpaceOnUse"><feOffset dy="3" /><feGaussianBlur stdDeviation="2.5" result="blur" /><feFlood flood-opacity=".161" /><feComposite operator="in" in2="blur" /><feComposite in="SourceGraphic" /></filter><filter id="c" x="19" y="41.933" width="151" height="34" filterUnits="userSpaceOnUse"><feOffset dy="3" /><feGaussianBlur stdDeviation="2.5" result="blur-2" /><feFlood flood-opacity=".149" /><feComposite operator="in" in2="blur-2" /><feComposite in="SourceGraphic" /></filter><radialGradient id="b" cx=".651" cy="-.757" r="1.057" gradientTransform="matrix(1 0 .001 5.882 .001 5.495)" gradientUnits="objectBoundingBox"><stop offset="0" stop-color="#98e4ff" /><stop offset="1" stop-color="#235e98" /></radialGradient></defs><g filter="url(#a)"><path data-name="Path 1" d="M4-39.494h26.6v6.859H13.95v5.106H29.4v6.552H13.95v6.333h17.136v7.275H4zm32.432 0h9.928v24.214h15.493v7.911h-25.42zm29.934 0h9.927v24.214h15.493v7.911H66.367zm30.328 0h9.949v32.125h-9.948zm15.821 16.084q0-7.867 4.383-12.25t12.202-4.382q8.02 0 12.359 4.306t4.341 12.064a19.777 19.777 0 01-1.9 9.236 13.514 13.514 0 01-5.478 5.61 18.084 18.084 0 01-8.93 2.005 20.548 20.548 0 01-9-1.731 13.543 13.543 0 01-5.774-5.478 18.19 18.19 0 01-2.202-9.379zm9.927.044q0 4.865 1.808 6.99a6.12 6.12 0 004.92 2.126 6.117 6.117 0 004.952-2.082q1.753-2.082 1.753-7.472 0-4.536-1.83-6.629a6.255 6.255 0 00-4.963-2.093 6.03 6.03 0 00-4.821 2.126q-1.818 2.126-1.818 7.035zm25.288-16.128h30.175v7.933h-10.123v24.192h-9.927v-24.192h-10.124z" transform="translate(3.5 44.54)" fill="url(#b)" /></g><g filter="url(#c)"><text data-name="FOR WATER" transform="translate(94.5 61.43)" fill="#434343" font-size="17" font-family="Arial-BoldMT, Arial" font-weight="700" letter-spacing=".25em"><tspan x="-67.365" y="0">FOR WATER</tspan></text></g></svg>