<svg xmlns="http://www.w3.org/2000/svg" width="33.002" height="38.728"><defs><radialGradient id="a" cx=".55" cy=".323" r=".626" gradientTransform="matrix(.999 -.04 .03 .747 -.017 .17)" gradientUnits="objectBoundingBox"><stop offset="0" stop-color="#99d7f2" /><stop offset="1" stop-color="#669bc3" /></radialGradient></defs><path data-name="Rectangle 92" fill="#fff" opacity=".002" d="M1.979 3.548h30v28.67h-30z" /><path d="M11.5 0c2.132 3.906 5.309 7.244 8.082 10.83 1.581 2.046 2.9 4.191 3.085 6.772.343 5.277-3.921 9.979-9.713 10.674C7.006 28.988 1.479 25.5.281 20.27A9.366 9.366 0 011.9 12.615c1.2-1.747 2.588-3.4 3.887-5.1C7.674 5.032 9.559 2.545 11.5 0z" transform="translate(5.14 3.6)" fill="url(#a)" /><path data-name="drop-01" d="M16.64 5.18c2.132 3.906 5.309 7.244 8.082 10.83 1.581 2.046 2.9 4.191 3.085 6.772.343 5.277-3.921 9.979-9.713 10.674-5.948.712-11.475-2.776-12.673-8.006a9.366 9.366 0 011.619-7.655c1.2-1.747 2.588-3.4 3.887-5.1 1.887-2.483 3.772-4.97 5.713-7.515z" fill="#72afd4" opacity=".478" /></svg>