<svg xmlns="http://www.w3.org/2000/svg" xmlns:xlink="http://www.w3.org/1999/xlink" viewBox="0 0 1920 782.76"><defs><style>.cls-1,.cls-4{fill:#e1cec3;}.cls-1{opacity:0.25;}.cls-2{fill:#c6af9e;}.cls-3{opacity:0.97;}.cls-5{fill:url(#linear-gradient);}.cls-6{fill:url(#linear-gradient-2);}.cls-7{fill:url(#linear-gradient-3);}.cls-8{fill:url(#linear-gradient-4);}.cls-9{fill:url(#linear-gradient-5);}.cls-10{fill:url(#linear-gradient-6);}.cls-11{fill:url(#linear-gradient-7);}.cls-12{fill:url(#linear-gradient-8);}.cls-13{fill:url(#linear-gradient-9);}.cls-14{fill:url(#linear-gradient-10);}.cls-15{fill:url(#linear-gradient-11);}.cls-16{fill:url(#linear-gradient-12);}.cls-17{fill:url(#linear-gradient-13);}.cls-18{fill:url(#linear-gradient-14);}.cls-19{fill:url(#linear-gradient-15);}.cls-20{fill:url(#linear-gradient-16);}.cls-21{fill:url(#linear-gradient-17);}.cls-22{fill:url(#linear-gradient-18);}.cls-23{fill:url(#linear-gradient-19);}.cls-24{fill:url(#linear-gradient-20);}.cls-25{fill:url(#linear-gradient-21);}.cls-26,.cls-27,.cls-34,.cls-35,.cls-36,.cls-37,.cls-38{fill:none;stroke-miterlimit:10;}.cls-26,.cls-27{stroke-linecap:round;}.cls-26{stroke:url(#linear-gradient-22);}.cls-27{stroke:url(#linear-gradient-23);}.cls-28{fill:url(#linear-gradient-24);}.cls-29{fill:url(#linear-gradient-25);}.cls-30{fill:url(#linear-gradient-26);}.cls-31{fill:url(#linear-gradient-27);}.cls-32{fill:url(#linear-gradient-28);}.cls-33{fill:url(#linear-gradient-29);}.cls-34{stroke:url(#linear-gradient-30);}.cls-35{stroke:url(#linear-gradient-31);}.cls-36{stroke:url(#linear-gradient-32);}.cls-37{stroke:url(#linear-gradient-33);}.cls-38{stroke:url(#linear-gradient-34);}.cls-39{fill:url(#linear-gradient-35);}.cls-40{fill:url(#linear-gradient-36);}.cls-41{fill:url(#linear-gradient-37);}.cls-42{fill:url(#linear-gradient-38);}.cls-43{fill:url(#linear-gradient-39);}.cls-44{fill:url(#linear-gradient-40);}.cls-45{fill:url(#linear-gradient-41);}.cls-46{fill:url(#linear-gradient-42);}.cls-47{fill:url(#linear-gradient-43);}.cls-48{fill:url(#linear-gradient-44);}.cls-49{fill:url(#linear-gradient-45);}.cls-50{fill:url(#linear-gradient-46);}.cls-51{fill:url(#linear-gradient-47);}.cls-52{fill:url(#linear-gradient-48);}.cls-53{fill:url(#linear-gradient-49);}.cls-54{fill:url(#linear-gradient-50);}.cls-55{fill:url(#linear-gradient-51);}.cls-56{fill:url(#linear-gradient-52);}.cls-57{fill:url(#linear-gradient-53);}.cls-58{fill:url(#linear-gradient-54);}.cls-59{fill:url(#linear-gradient-55);}.cls-60{fill:url(#linear-gradient-56);}.cls-61{fill:url(#linear-gradient-57);}.cls-62{fill:url(#linear-gradient-58);}.cls-63{fill:url(#linear-gradient-59);}.cls-64{fill:url(#linear-gradient-60);}.cls-65{fill:url(#linear-gradient-61);}.cls-66{fill:url(#linear-gradient-62);}.cls-67{fill:url(#linear-gradient-63);}.cls-68{fill:url(#linear-gradient-64);}.cls-69{fill:url(#linear-gradient-65);}.cls-70{fill:url(#linear-gradient-66);}.cls-71{fill:url(#linear-gradient-67);}.cls-72{fill:url(#linear-gradient-68);}.cls-73{fill:url(#linear-gradient-69);}.cls-74{fill:url(#linear-gradient-70);}.cls-75{fill:url(#linear-gradient-71);}.cls-76{fill:url(#linear-gradient-72);}.cls-77{fill:url(#linear-gradient-73);}.cls-78{fill:url(#linear-gradient-74);}.cls-79{fill:url(#linear-gradient-75);}.cls-80{fill:url(#linear-gradient-76);}.cls-81{fill:url(#linear-gradient-77);}.cls-82{fill:url(#linear-gradient-78);}.cls-83{fill:url(#linear-gradient-79);}.cls-84{fill:url(#linear-gradient-80);}.cls-85{fill:url(#linear-gradient-81);}.cls-86{fill:url(#linear-gradient-82);}.cls-87{fill:url(#linear-gradient-83);}.cls-88{fill:url(#linear-gradient-84);}.cls-89{fill:url(#linear-gradient-85);}.cls-90{fill:url(#linear-gradient-86);}.cls-91{fill:url(#linear-gradient-87);}.cls-92{fill:url(#linear-gradient-88);}.cls-93{fill:url(#linear-gradient-89);}.cls-94{fill:url(#linear-gradient-90);}.cls-95{fill:url(#linear-gradient-91);}.cls-96{fill:url(#linear-gradient-92);}.cls-97{fill:url(#linear-gradient-93);}.cls-98{fill:url(#linear-gradient-94);}.cls-99{fill:url(#linear-gradient-95);}.cls-100{fill:url(#linear-gradient-96);}.cls-101{fill:url(#linear-gradient-97);}.cls-102{fill:url(#linear-gradient-98);}.cls-103{fill:url(#linear-gradient-99);}.cls-104{fill:url(#linear-gradient-100);}.cls-105{fill:url(#linear-gradient-101);}.cls-106{fill:url(#linear-gradient-102);}.cls-107{fill:url(#linear-gradient-103);}.cls-108{fill:url(#linear-gradient-104);}.cls-109{fill:url(#linear-gradient-105);}.cls-110{fill:url(#linear-gradient-106);}.cls-111{fill:url(#linear-gradient-107);}.cls-112{fill:url(#linear-gradient-108);}.cls-113{fill:url(#linear-gradient-109);}.cls-114{fill:url(#linear-gradient-110);}.cls-115{fill:url(#linear-gradient-111);}.cls-116{fill:url(#linear-gradient-112);}.cls-117{fill:url(#linear-gradient-113);}.cls-118{fill:url(#linear-gradient-114);}.cls-119{fill:url(#linear-gradient-115);}.cls-120{fill:url(#linear-gradient-116);}.cls-121{fill:url(#linear-gradient-117);}.cls-122{fill:url(#linear-gradient-118);}.cls-123{fill:url(#linear-gradient-119);}.cls-124{fill:url(#linear-gradient-120);}.cls-125{fill:url(#linear-gradient-121);}.cls-126{fill:url(#linear-gradient-122);}.cls-127{fill:url(#linear-gradient-123);}</style><linearGradient id="linear-gradient" x1="1737.37" y1="324.24" x2="1757.91" y2="324.24" gradientUnits="userSpaceOnUse"><stop offset="0" stop-color="#80634b"/><stop offset="0.41" stop-color="#907256"/></linearGradient><linearGradient id="linear-gradient-2" x1="1737.78" y1="390.62" x2="1782.77" y2="374.26" gradientUnits="userSpaceOnUse"><stop offset="0" stop-color="#80634b"/><stop offset="0.63" stop-color="#907256"/></linearGradient><linearGradient id="linear-gradient-3" x1="1769.15" y1="424.65" x2="1764.67" y2="410.1" gradientUnits="userSpaceOnUse"><stop offset="0" stop-color="#80634b"/><stop offset="0.77" stop-color="#907256"/></linearGradient><linearGradient id="linear-gradient-4" x1="1699.17" y1="470.32" x2="1757.6" y2="470.32" xlink:href="#linear-gradient"/><linearGradient id="linear-gradient-5" x1="1693.54" y1="533.91" x2="1719.4" y2="533.91" gradientUnits="userSpaceOnUse"><stop offset="0" stop-color="#80634b"/><stop offset="0.55" stop-color="#83654d"/><stop offset="0.88" stop-color="#8b6d53"/><stop offset="1" stop-color="#907256"/></linearGradient><linearGradient id="linear-gradient-6" x1="1562.52" y1="1072.5" x2="1553.77" y2="1084.41" gradientTransform="matrix(0.92, -0.59, 0.44, 0.69, -133.2, 613.23)" gradientUnits="userSpaceOnUse"><stop offset="0" stop-color="#80634b"/><stop offset="1" stop-color="#907256"/></linearGradient><linearGradient id="linear-gradient-7" x1="1317.72" y1="1340.49" x2="1308.96" y2="1352.4" gradientTransform="matrix(0.81, -0.95, 0.62, 0.53, -129.51, 972.36)" xlink:href="#linear-gradient-6"/><linearGradient id="linear-gradient-8" x1="1776.06" y1="414.63" x2="1769.02" y2="442.27" gradientTransform="matrix(1, 0, 0, 1, 0, 0)" xlink:href="#linear-gradient-6"/><linearGradient id="linear-gradient-9" x1="1700.65" y1="289.91" x2="1745.56" y2="289.91" xlink:href="#linear-gradient"/><linearGradient id="linear-gradient-10" x1="1677.1" y1="306.74" x2="1718.4" y2="306.74" xlink:href="#linear-gradient"/><linearGradient id="linear-gradient-11" x1="1677.25" y1="471.5" x2="1706.16" y2="471.5" gradientUnits="userSpaceOnUse"><stop offset="0" stop-color="#80634b"/><stop offset="0.5" stop-color="#8c6e53"/><stop offset="1" stop-color="#907256"/></linearGradient><linearGradient id="linear-gradient-12" x1="1860.39" y1="434.16" x2="1648.75" y2="351.79" gradientUnits="userSpaceOnUse"><stop offset="0" stop-color="#736357"/><stop offset="0.17" stop-color="#877666"/><stop offset="0.47" stop-color="#a4917c"/><stop offset="0.72" stop-color="#b6a189"/><stop offset="0.91" stop-color="#bca78e"/></linearGradient><linearGradient id="linear-gradient-13" x1="1571.73" y1="315.74" x2="1587.16" y2="315.74" xlink:href="#linear-gradient"/><linearGradient id="linear-gradient-14" x1="1586.21" y1="313.09" x2="1692.54" y2="313.09" xlink:href="#linear-gradient"/><linearGradient id="linear-gradient-15" x1="1589.11" y1="337.77" x2="1572.87" y2="318.3" gradientUnits="userSpaceOnUse"><stop offset="0" stop-color="#80634b"/><stop offset="0.9" stop-color="#907256"/></linearGradient><linearGradient id="linear-gradient-16" x1="1552.7" y1="323.96" x2="1586.27" y2="323.96" gradientUnits="userSpaceOnUse"><stop offset="0" stop-color="#80634b"/><stop offset="0.78" stop-color="#907256"/></linearGradient><linearGradient id="linear-gradient-17" x1="1569.46" y1="327.6" x2="1577.62" y2="327.6" xlink:href="#linear-gradient-16"/><linearGradient id="linear-gradient-18" x1="1571.94" y1="329.84" x2="1584.91" y2="329.84" xlink:href="#linear-gradient-16"/><linearGradient id="linear-gradient-19" x1="1663.03" y1="545.88" x2="1723.62" y2="533.21" gradientUnits="userSpaceOnUse"><stop offset="0.12" stop-color="#80634b"/><stop offset="0.19" stop-color="#82654c"/><stop offset="0.62" stop-color="#896d52"/><stop offset="0.89" stop-color="#907256"/></linearGradient><linearGradient id="linear-gradient-20" x1="1667.1" y1="588.53" x2="1715.62" y2="588.53" xlink:href="#linear-gradient"/><linearGradient id="linear-gradient-21" x1="1685.93" y1="255.06" x2="1732.83" y2="255.06" xlink:href="#linear-gradient"/><linearGradient id="linear-gradient-22" x1="1724.58" y1="296.51" x2="1698.62" y2="291.75" gradientUnits="userSpaceOnUse"><stop offset="0.3" stop-color="#b5504a"/><stop offset="0.49" stop-color="#a44642"/><stop offset="0.72" stop-color="#933c39"/></linearGradient><linearGradient id="linear-gradient-23" x1="1726.94" y1="297.67" x2="1723.31" y2="297.01" xlink:href="#linear-gradient-22"/><linearGradient id="linear-gradient-24" x1="1714.39" y1="260.64" x2="1704.44" y2="258.82" gradientTransform="matrix(1, 0, 0, 1, 0, 0)" xlink:href="#linear-gradient-6"/><linearGradient id="linear-gradient-25" x1="1665.96" y1="341.38" x2="1791.79" y2="341.38" xlink:href="#linear-gradient-22"/><linearGradient id="linear-gradient-26" x1="1689.29" y1="230.88" x2="1726.73" y2="230.88" gradientUnits="userSpaceOnUse"><stop offset="0" stop-color="#c7914a"/><stop offset="0.02" stop-color="#c8924b"/><stop offset="1" stop-color="#ffcd89"/></linearGradient><linearGradient id="linear-gradient-27" x1="1680.51" y1="235.47" x2="1721.39" y2="235.47" xlink:href="#linear-gradient-26"/><linearGradient id="linear-gradient-28" x1="1675.36" y1="197.82" x2="1804.42" y2="200.12" gradientUnits="userSpaceOnUse"><stop offset="0" stop-color="#bababa"/><stop offset="0.13" stop-color="#b3b3b3"/><stop offset="0.33" stop-color="#9f9f9f"/><stop offset="0.56" stop-color="#7e7e7e"/><stop offset="0.82" stop-color="#515151"/><stop offset="0.92" stop-color="#3d3d3d"/></linearGradient><linearGradient id="linear-gradient-29" x1="1751.21" y1="168.14" x2="1659.98" y2="165.15" gradientUnits="userSpaceOnUse"><stop offset="0.42" stop-color="#bababa"/><stop offset="0.62" stop-color="#b8b8b8"/><stop offset="0.72" stop-color="#b0b0b0"/><stop offset="0.79" stop-color="#a3a3a3"/><stop offset="0.85" stop-color="#919191"/><stop offset="0.91" stop-color="#797979"/><stop offset="0.96" stop-color="#5c5c5c"/><stop offset="1" stop-color="#3d3d3d"/></linearGradient><linearGradient id="linear-gradient-30" x1="1680.32" y1="180.45" x2="1740.05" y2="180.45" xlink:href="#linear-gradient-29"/><linearGradient id="linear-gradient-31" x1="1680.67" y1="183.29" x2="1739.41" y2="183.29" xlink:href="#linear-gradient-29"/><linearGradient id="linear-gradient-32" x1="1680.92" y1="185.97" x2="1738.84" y2="185.97" xlink:href="#linear-gradient-29"/><linearGradient id="linear-gradient-33" x1="1686.64" y1="225.93" x2="1730.87" y2="225.93" xlink:href="#linear-gradient-29"/><linearGradient id="linear-gradient-34" x1="1686.18" y1="223.04" x2="1731.58" y2="223.04" xlink:href="#linear-gradient-29"/><linearGradient id="linear-gradient-35" x1="1678.88" y1="155.48" x2="1694.54" y2="155.48" xlink:href="#linear-gradient-22"/><linearGradient id="linear-gradient-36" x1="1706.43" y1="160.81" x2="1679.97" y2="160.36" xlink:href="#linear-gradient-26"/><linearGradient id="linear-gradient-37" x1="1724.28" y1="160.67" x2="1745.01" y2="160.67" xlink:href="#linear-gradient-26"/><linearGradient id="linear-gradient-38" x1="1731.56" y1="158.41" x2="1703.26" y2="156.9" xlink:href="#linear-gradient-22"/><linearGradient id="linear-gradient-39" x1="1727.3" y1="175.05" x2="1705.87" y2="138.33" xlink:href="#linear-gradient-26"/><linearGradient id="linear-gradient-40" x1="854.65" y1="284.13" x2="974.53" y2="295.46" gradientTransform="matrix(0.98, 0.03, -0.03, 1.13, 10.76, -39.43)" gradientUnits="userSpaceOnUse"><stop offset="0" stop-color="#bababa"/><stop offset="0.18" stop-color="#b6b6b6"/><stop offset="0.36" stop-color="#aaa"/><stop offset="0.54" stop-color="#969696"/><stop offset="0.72" stop-color="#7b7b7b"/><stop offset="0.89" stop-color="#575757"/><stop offset="1" stop-color="#3d3d3d"/></linearGradient><linearGradient id="linear-gradient-41" x1="869.73" y1="257.42" x2="933.01" y2="269.68" gradientTransform="matrix(0.98, 0.03, -0.03, 1.13, 10.76, -39.43)" xlink:href="#linear-gradient-29"/><linearGradient id="linear-gradient-42" x1="897.07" y1="236.27" x2="897.07" y2="246.6" gradientTransform="translate(2.39 -14.04) scale(0.98 1.13)" gradientUnits="userSpaceOnUse"><stop offset="0" stop-color="#bababa"/><stop offset="0.43" stop-color="#b8b8b8"/><stop offset="0.58" stop-color="#b1b1b1"/><stop offset="0.7" stop-color="#a6a6a6"/><stop offset="0.78" stop-color="#959595"/><stop offset="0.86" stop-color="#7f7f7f"/><stop offset="0.93" stop-color="#636363"/><stop offset="0.99" stop-color="#444"/><stop offset="1" stop-color="#3d3d3d"/></linearGradient><linearGradient id="linear-gradient-43" x1="908.2" y1="418.25" x2="945.45" y2="418.25" gradientUnits="userSpaceOnUse"><stop offset="0" stop-color="#80634b"/><stop offset="0.72" stop-color="#907256"/></linearGradient><linearGradient id="linear-gradient-44" x1="939.53" y1="471.48" x2="947.85" y2="464.6" xlink:href="#linear-gradient-43"/><linearGradient id="linear-gradient-45" x1="941.11" y1="478.81" x2="949.06" y2="478.81" xlink:href="#linear-gradient-43"/><linearGradient id="linear-gradient-46" x1="931.37" y1="546.13" x2="942.14" y2="546.13" gradientTransform="translate(-47.78 36.76) rotate(-6.24)" xlink:href="#linear-gradient-6"/><linearGradient id="linear-gradient-47" x1="930.16" y1="559.95" x2="940.47" y2="559.95" gradientTransform="translate(-57.83 45.44) rotate(-7.63)" xlink:href="#linear-gradient-6"/><linearGradient id="linear-gradient-48" x1="949.42" y1="481.58" x2="934.08" y2="460.83" xlink:href="#linear-gradient-43"/><linearGradient id="linear-gradient-49" x1="832.74" y1="296.88" x2="872.95" y2="315.61" xlink:href="#linear-gradient-43"/><linearGradient id="linear-gradient-50" x1="-413.82" y1="436.85" x2="-435.36" y2="438.19" gradientTransform="translate(272.3 451.47) rotate(-151.27)" xlink:href="#linear-gradient-43"/><linearGradient id="linear-gradient-51" x1="861.18" y1="430.1" x2="910.05" y2="430.1" xlink:href="#linear-gradient-43"/><linearGradient id="linear-gradient-52" x1="865.86" y1="562.03" x2="882.17" y2="562.03" xlink:href="#linear-gradient-43"/><linearGradient id="linear-gradient-53" x1="885.17" y1="565.17" x2="902.73" y2="565.17" xlink:href="#linear-gradient-43"/><linearGradient id="linear-gradient-54" x1="864.8" y1="337.94" x2="894.24" y2="337.94" xlink:href="#linear-gradient-43"/><linearGradient id="linear-gradient-55" x1="871.46" y1="588.84" x2="882.9" y2="588.84" xlink:href="#linear-gradient-43"/><linearGradient id="linear-gradient-56" x1="884.77" y1="592.8" x2="895.07" y2="592.8" xlink:href="#linear-gradient-43"/><linearGradient id="linear-gradient-57" x1="870.04" y1="348.84" x2="890.56" y2="348.84" xlink:href="#linear-gradient-43"/><linearGradient id="linear-gradient-58" x1="883.51" y1="344.83" x2="843.42" y2="360.05" gradientUnits="userSpaceOnUse"><stop offset="0" stop-color="#6a767f"/><stop offset="0.12" stop-color="#7b8e9b"/><stop offset="0.31" stop-color="#93b1c3"/><stop offset="0.73" stop-color="#a5cae0"/><stop offset="1" stop-color="#add5ed"/></linearGradient><linearGradient id="linear-gradient-59" x1="920.89" y1="453.92" x2="848.35" y2="335.52" gradientUnits="userSpaceOnUse"><stop offset="0" stop-color="#6a767f"/><stop offset="0.04" stop-color="#6e7c86"/><stop offset="0.36" stop-color="#90acbe"/><stop offset="0.6" stop-color="#a5cae0"/><stop offset="0.72" stop-color="#add5ed"/></linearGradient><linearGradient id="linear-gradient-60" x1="877.21" y1="375.79" x2="926.5" y2="375.79" gradientUnits="userSpaceOnUse"><stop offset="0" stop-color="#6a767f"/><stop offset="0.05" stop-color="#6e7b85"/><stop offset="0.49" stop-color="#90acbd"/><stop offset="0.82" stop-color="#a5cae0"/><stop offset="1" stop-color="#add5ed"/></linearGradient><linearGradient id="linear-gradient-61" x1="856.41" y1="491.79" x2="961.9" y2="491.79" gradientUnits="userSpaceOnUse"><stop offset="0" stop-color="#c3949b"/><stop offset="0.41" stop-color="#d9b2b6"/><stop offset="0.75" stop-color="#e8c6c9"/></linearGradient><linearGradient id="linear-gradient-62" x1="892.85" y1="416" x2="926.04" y2="365.25" xlink:href="#linear-gradient-60"/><linearGradient id="linear-gradient-63" x1="878.43" y1="341.37" x2="840.74" y2="352.52" xlink:href="#linear-gradient-60"/><linearGradient id="linear-gradient-64" x1="872.28" y1="356.33" x2="893.03" y2="356.33" xlink:href="#linear-gradient-60"/><linearGradient id="linear-gradient-65" x1="941.19" y1="424.69" x2="819.67" y2="425.79" xlink:href="#linear-gradient-60"/><linearGradient id="linear-gradient-66" x1="820.43" y1="517.55" x2="933.36" y2="451.39" gradientUnits="userSpaceOnUse"><stop offset="0" stop-color="#c3949b"/><stop offset="0.55" stop-color="#d9b2b6"/><stop offset="1" stop-color="#e8c6c9"/></linearGradient><linearGradient id="linear-gradient-67" x1="882.16" y1="461.46" x2="883.97" y2="408.05" xlink:href="#linear-gradient-61"/><linearGradient id="linear-gradient-68" x1="864.06" y1="326.9" x2="894.22" y2="326.9" gradientUnits="userSpaceOnUse"><stop offset="0" stop-color="#c7914a"/><stop offset="0.03" stop-color="#ca954e"/><stop offset="0.26" stop-color="#e1ad68"/><stop offset="0.49" stop-color="#f2bf7a"/><stop offset="0.73" stop-color="#fcca85"/><stop offset="1" stop-color="#ffcd89"/></linearGradient><linearGradient id="linear-gradient-69" x1="863.15" y1="333.97" x2="895.45" y2="333.97" xlink:href="#linear-gradient-68"/><linearGradient id="linear-gradient-70" x1="866.18" y1="322.38" x2="894.17" y2="322.38" xlink:href="#linear-gradient-68"/><linearGradient id="linear-gradient-71" x1="473.19" y1="605.28" x2="483.94" y2="605.28" gradientUnits="userSpaceOnUse"><stop offset="0" stop-color="#808663"/><stop offset="0.75" stop-color="#99a575"/></linearGradient><linearGradient id="linear-gradient-72" x1="473.32" y1="609.73" x2="493.3" y2="609.73" xlink:href="#linear-gradient"/><linearGradient id="linear-gradient-73" x1="553.24" y1="296.63" x2="550.9" y2="235.07" xlink:href="#linear-gradient"/><linearGradient id="linear-gradient-74" x1="440.03" y1="382.24" x2="403.76" y2="393.71" gradientUnits="userSpaceOnUse"><stop offset="0" stop-color="#80634b"/><stop offset="0.41" stop-color="#907256"/></linearGradient><linearGradient id="linear-gradient-75" x1="419.85" y1="418.5" x2="439.12" y2="418.5" xlink:href="#linear-gradient"/><linearGradient id="linear-gradient-76" x1="419.18" y1="428.11" x2="429.75" y2="428.11" gradientUnits="userSpaceOnUse"><stop offset="0" stop-color="#80634b"/><stop offset="0.24" stop-color="#876a50"/><stop offset="0.41" stop-color="#907256"/></linearGradient><linearGradient id="linear-gradient-77" x1="420.33" y1="431.4" x2="437.78" y2="420.96" xlink:href="#linear-gradient"/><linearGradient id="linear-gradient-78" x1="427.54" y1="432.41" x2="431.01" y2="425.41" gradientUnits="userSpaceOnUse"><stop offset="0" stop-color="#80634b"/><stop offset="0.69" stop-color="#907256"/></linearGradient><linearGradient id="linear-gradient-79" x1="431.88" y1="437.67" x2="433.83" y2="418.99" xlink:href="#linear-gradient-78"/><linearGradient id="linear-gradient-80" x1="436.94" y1="297.37" x2="467.44" y2="297.37" xlink:href="#linear-gradient-26"/><linearGradient id="linear-gradient-81" x1="448.16" y1="291.2" x2="464.57" y2="291.2" xlink:href="#linear-gradient-26"/><linearGradient id="linear-gradient-82" x1="469.39" y1="265.61" x2="508.26" y2="265.61" xlink:href="#linear-gradient"/><linearGradient id="linear-gradient-83" x1="467.46" y1="262.58" x2="472.55" y2="262.58" xlink:href="#linear-gradient"/><linearGradient id="linear-gradient-84" x1="502.96" y1="262.09" x2="508.94" y2="262.09" xlink:href="#linear-gradient"/><linearGradient id="linear-gradient-85" x1="443.72" y1="532.02" x2="526.54" y2="532.02" gradientUnits="userSpaceOnUse"><stop offset="0" stop-color="#6a767f"/><stop offset="0.16" stop-color="#707e88"/><stop offset="0.42" stop-color="#7f94a1"/><stop offset="0.75" stop-color="#98b7ca"/><stop offset="1" stop-color="#add5ed"/></linearGradient><linearGradient id="linear-gradient-86" x1="469.08" y1="540.7" x2="565.56" y2="540.7" xlink:href="#linear-gradient-85"/><linearGradient id="linear-gradient-87" x1="467.82" y1="569.13" x2="495.67" y2="569.13" xlink:href="#linear-gradient"/><linearGradient id="linear-gradient-88" x1="495.43" y1="556" x2="514.83" y2="556" xlink:href="#linear-gradient"/><linearGradient id="linear-gradient-89" x1="497.88" y1="583.87" x2="516.15" y2="583.87" xlink:href="#linear-gradient"/><linearGradient id="linear-gradient-90" x1="479.89" y1="612.11" x2="495.84" y2="612.11" xlink:href="#linear-gradient"/><linearGradient id="linear-gradient-91" x1="475.98" y1="317.78" x2="446.39" y2="287.79" gradientUnits="userSpaceOnUse"><stop offset="0" stop-color="#6a767f"/><stop offset="0.11" stop-color="#758591"/><stop offset="0.38" stop-color="#8da8b8"/><stop offset="0.63" stop-color="#9fc0d5"/><stop offset="0.84" stop-color="#a9d0e7"/><stop offset="1" stop-color="#add5ed"/></linearGradient><linearGradient id="linear-gradient-92" x1="402.99" y1="347.21" x2="486.01" y2="283.58" gradientUnits="userSpaceOnUse"><stop offset="0" stop-color="#6a767f"/><stop offset="0.36" stop-color="#859cab"/><stop offset="0.79" stop-color="#a2c5db"/><stop offset="1" stop-color="#add5ed"/></linearGradient><linearGradient id="linear-gradient-93" x1="401.04" y1="444.01" x2="574.95" y2="444.01" xlink:href="#linear-gradient-85"/><linearGradient id="linear-gradient-94" x1="573.81" y1="347.76" x2="486.21" y2="253.72" gradientUnits="userSpaceOnUse"><stop offset="0" stop-color="#6a767f"/><stop offset="0.42" stop-color="#8aa3b3"/><stop offset="0.8" stop-color="#a3c7dd"/><stop offset="1" stop-color="#add5ed"/></linearGradient><linearGradient id="linear-gradient-95" x1="583.09" y1="360.94" x2="457.42" y2="304.68" gradientUnits="userSpaceOnUse"><stop offset="0" stop-color="#6a767f"/><stop offset="0.13" stop-color="#758691"/><stop offset="0.53" stop-color="#93b1c3"/><stop offset="0.83" stop-color="#a6cbe1"/><stop offset="1" stop-color="#add5ed"/></linearGradient><linearGradient id="linear-gradient-96" x1="377.3" y1="451.94" x2="621.6" y2="451.94" xlink:href="#linear-gradient-60"/><linearGradient id="linear-gradient-97" x1="344.34" y1="458.46" x2="590.15" y2="458.46" xlink:href="#linear-gradient-85"/><linearGradient id="linear-gradient-98" x1="496.62" y1="381.31" x2="523.39" y2="381.31" xlink:href="#linear-gradient"/><linearGradient id="linear-gradient-99" x1="513.51" y1="400.81" x2="542.09" y2="400.81" gradientUnits="userSpaceOnUse"><stop offset="0" stop-color="#80634b"/><stop offset="0.18" stop-color="#907256"/></linearGradient><linearGradient id="linear-gradient-100" x1="546.21" y1="413.58" x2="531.2" y2="410.25" xlink:href="#linear-gradient"/><linearGradient id="linear-gradient-101" x1="352.97" y1="456.81" x2="546.1" y2="456.81" xlink:href="#linear-gradient-85"/><linearGradient id="linear-gradient-102" x1="435.28" y1="330.57" x2="453.01" y2="330.57" gradientUnits="userSpaceOnUse"><stop offset="0" stop-color="#80634b"/><stop offset="0.9" stop-color="#907256"/></linearGradient><linearGradient id="linear-gradient-103" x1="443.72" y1="389.12" x2="455.06" y2="389.12" xlink:href="#linear-gradient"/><linearGradient id="linear-gradient-104" x1="413.44" y1="322.44" x2="449.88" y2="322.44" xlink:href="#linear-gradient-43"/><linearGradient id="linear-gradient-105" x1="423.55" y1="338.42" x2="430.91" y2="338.42" xlink:href="#linear-gradient"/><linearGradient id="linear-gradient-106" x1="432.52" y1="339.36" x2="511.63" y2="339.36" xlink:href="#linear-gradient-26"/><linearGradient id="linear-gradient-107" x1="433.68" y1="330.93" x2="505.7" y2="330.93" xlink:href="#linear-gradient-68"/><linearGradient id="linear-gradient-108" x1="475.08" y1="396.16" x2="520.85" y2="283.59" gradientUnits="userSpaceOnUse"><stop offset="0" stop-color="#c7914a"/><stop offset="0.05" stop-color="#cf9b55"/><stop offset="0.17" stop-color="#dead68"/><stop offset="0.31" stop-color="#e8b976"/><stop offset="0.49" stop-color="#eec17e"/><stop offset="0.81" stop-color="#f0c380"/><stop offset="1" stop-color="#ffcd89"/></linearGradient><linearGradient id="linear-gradient-109" x1="468.65" y1="612.22" x2="476.83" y2="612.22" xlink:href="#linear-gradient-71"/><linearGradient id="linear-gradient-110" x1="468.62" y1="616.1" x2="496.51" y2="616.1" xlink:href="#linear-gradient-71"/><linearGradient id="linear-gradient-111" x1="516.87" y1="592.57" x2="530.43" y2="592.57" xlink:href="#linear-gradient-71"/><linearGradient id="linear-gradient-112" x1="515.72" y1="211.45" x2="532.93" y2="211.45" gradientTransform="matrix(0.03, 1, -1.4, 0.04, 817.81, -351.51)" xlink:href="#linear-gradient-26"/><linearGradient id="linear-gradient-113" x1="495.56" y1="594.65" x2="534.65" y2="594.65" xlink:href="#linear-gradient-71"/><linearGradient id="linear-gradient-114" x1="496.56" y1="599.09" x2="567.05" y2="599.09" gradientUnits="userSpaceOnUse"><stop offset="0.2" stop-color="#808663"/><stop offset="0.52" stop-color="#828864"/><stop offset="0.63" stop-color="#878f68"/><stop offset="0.71" stop-color="#909a6f"/><stop offset="0.75" stop-color="#99a575"/></linearGradient><linearGradient id="linear-gradient-115" x1="494.49" y1="249.2" x2="517.67" y2="249.2" gradientUnits="userSpaceOnUse"><stop offset="0" stop-color="#736357"/><stop offset="0.14" stop-color="#877666"/><stop offset="0.39" stop-color="#a4917c"/><stop offset="0.6" stop-color="#b6a189"/><stop offset="0.76" stop-color="#bca78e"/></linearGradient><linearGradient id="linear-gradient-116" x1="495.97" y1="234.12" x2="527.13" y2="259.05" xlink:href="#linear-gradient-115"/><linearGradient id="linear-gradient-117" x1="456.15" y1="229.9" x2="531.98" y2="157.2" gradientUnits="userSpaceOnUse"><stop offset="0.08" stop-color="#c7914a"/><stop offset="0.28" stop-color="#d7a25c"/><stop offset="0.84" stop-color="#ffcd89"/></linearGradient><linearGradient id="linear-gradient-118" x1="487.85" y1="245.85" x2="470.55" y2="216.32" xlink:href="#linear-gradient-115"/><linearGradient id="linear-gradient-119" x1="522.52" y1="170.09" x2="531.82" y2="170.09" gradientUnits="userSpaceOnUse"><stop offset="0" stop-color="#1f364d"/><stop offset="0.4" stop-color="#3a6171"/><stop offset="1" stop-color="#619fa4"/></linearGradient><linearGradient id="linear-gradient-120" x1="518.67" y1="155.04" x2="529.48" y2="155.04" gradientTransform="matrix(-0.14, 0.99, -0.99, -0.14, 756.13, -321.09)" xlink:href="#linear-gradient-119"/><linearGradient id="linear-gradient-121" x1="526.14" y1="181.09" x2="533.92" y2="181.09" xlink:href="#linear-gradient-119"/><linearGradient id="linear-gradient-122" x1="521.3" y1="179.76" x2="533.67" y2="179.76" xlink:href="#linear-gradient-119"/><linearGradient id="linear-gradient-123" x1="443.71" y1="217.87" x2="536.97" y2="183.59" xlink:href="#linear-gradient-26"/></defs><g id="PEOPLE"><path id="_LAYER-06_SWIRL_ANIMATE_" data-name="&lt;LAYER-06_SWIRL(ANIMATE)&gt;" class="cls-1" d="M3675,689.84c-5.51-5.41-43.27-68.66-54.69-77.84-109.65-88-209.38-79.69-413.49-79.93-201-.23-302.77-.74-365.4-20-142.66-43.82-128.45-93.74-268.35-137-180.49-55.84-347.17-17-428.21,2.86-110,27-105.09,46.5-224.88,85.8-84.52,27.74-404.54,131-657.45,2.82-107-54.21-151.76-125.65-198.41-177.44C740.57-70.14,163.1,2.41,0,13.08c-220.17,14.4-395.3,25.86-575.68,139.31-157.78,99.25-197,199.43-374,242.65-127.27,31.09-202.79,2.69-319.73,62.81-94.42,48.54-153.54,177.76-188.41,232Z"/><g id="_LAYER-07_" data-name="&lt;LAYER-07&gt;"><path class="cls-2" d="M0,589.39s45.14-.36,70.11,7.28,114.57,14.85,114.57,14.85,67.85,6.44,107,6.39,140.75,3.53,140.75,3.53l129.69,2s53.92.2,87.5-.28,131.9-2.71,164.82-4.22,130-6.68,130-6.68,84.45-4.69,134.93-7.25,159.71-8.14,199.33-10,45.82-2,45.82-2,111.5-1.15,147.55-.55,83.4,1.18,114.24,4.47,155.94,7.77,155.94,7.77S1889.88,609.21,1920,608V782.76H-.85Z"/><g class="cls-3"><path class="cls-4" d="M202.15,558.63c-1.57-4.52-3.55-8.37-8.14-8.76A16.08,16.08,0,0,1,200,562c-.69-1.76-1.32-3.57-2.07-5.29a9,9,0,0,0-3.37-4.32c1.55,3.77,2.93,7.59,2.85,12h18.86c-.09-5.93.58-11.45,5.73-14.4-2.66-.66-4.35.74-7.72,6l2.11-6a7.94,7.94,0,0,0-3.57,4.66c.07-5.18,2.34-9.43,7-13.58a12.06,12.06,0,0,0-1.44.46c-4,1.85-6.32,5.64-7.7,10.32-.61,2.07-.9,4.28-1.34,6.43a7.38,7.38,0,0,1-.31,1.23c0-9.61,1-18.88,6-26.87-1.32.63-4,4.7-5.32,8.67-1.11,3.4-1.88,7-2.67,10-1.06-9-1.9-12.58-3.62-15.13.47,3.33,1,6.62,1.37,9.94a41.81,41.81,0,0,1,0,10c-.5-3.21-.9-6.43-1.53-9.58a30.73,30.73,0,0,0-4.72-11.9,12,12,0,0,0-5.06-4.31c-.23-.09-.47-.13-1-.29,4,3.85,6.29,8.57,7.79,13.94a52.74,52.74,0,0,1,1.89,14.57"/><path class="cls-4" d="M1272.78,588.55c1.38-4.52,3.13-8.37,7.16-8.76-3.15,2.94-5,6.89-5.26,12.17.6-1.77,1.16-3.57,1.82-5.29a8.8,8.8,0,0,1,3-4.32c-1.37,3.77-2.58,7.59-2.52,12h-16.59c.08-5.93-.51-11.45-5-14.41,2.34-.65,3.83.75,6.8,6.06l-1.86-6c1.5.89,2.45,2.5,3.15,4.66-.07-5.18-2.07-9.43-6.18-13.58a10.18,10.18,0,0,1,1.27.46c3.54,1.85,5.56,5.64,6.77,10.32.54,2.07.79,4.28,1.18,6.43a7.31,7.31,0,0,0,.28,1.23c0-9.61-.84-18.88-5.26-26.87,1.16.63,3.53,4.7,4.68,8.67,1,3.4,1.65,7,2.35,10,.94-9,1.68-12.58,3.19-15.13-.41,3.33-.89,6.62-1.21,9.94a47.75,47.75,0,0,0,0,10c.44-3.21.79-6.43,1.35-9.58a33.44,33.44,0,0,1,4.14-11.9,11.13,11.13,0,0,1,4.46-4.31c.2-.09.42-.13.9-.29-3.48,3.84-5.53,8.57-6.85,13.94a59.43,59.43,0,0,0-1.66,14.57"/><path class="cls-4" d="M1284.79,581.78c-1-2.89-2.25-5.36-5.16-5.6a10.3,10.3,0,0,1,3.79,7.79c-.43-1.13-.83-2.29-1.31-3.39a5.73,5.73,0,0,0-2.14-2.77,19,19,0,0,1,1.81,7.66h12c-.06-3.79.36-7.33,3.63-9.22-1.68-.42-2.76.48-4.9,3.88l1.34-3.82a5.11,5.11,0,0,0-2.27,3c0-3.32,1.49-6,4.46-8.69a7.4,7.4,0,0,0-.91.29c-2.56,1.19-4,3.61-4.89,6.61-.38,1.33-.57,2.74-.85,4.12a4.25,4.25,0,0,1-.2.78c0-6.15.61-12.08,3.79-17.2-.83.4-2.54,3-3.37,5.55-.71,2.18-1.19,4.47-1.69,6.4-.68-5.76-1.21-8.06-2.3-9.69.29,2.13.64,4.24.87,6.37a26.86,26.86,0,0,1,0,6.4c-.32-2.06-.57-4.12-1-6.14a19.77,19.77,0,0,0-3-7.61,7.55,7.55,0,0,0-3.21-2.76c-.15-.06-.3-.09-.65-.19a19.23,19.23,0,0,1,4.94,8.92,34,34,0,0,1,1.19,9.33"/><path class="cls-4" d="M219.84,566c-1.94-6-4.56-8.29-4.56-8.29a8.41,8.41,0,0,1,4.87,2.87c-.54-7.51,5.88-14.14,5.88-14.14-1.07,6.27-3.4,8.53.25,18.68,1.53-6.09,3.88-11.47,11.26-13.32-5.16,4.72-7.72,10.26-7,16.91.71-2.4,1.33-4.83,2.16-7.2a12.32,12.32,0,0,1,4.51-6.37c-1.68,5.15-4.84,13.14-1.09,21.55-4.12.76-9.07-4.33-13.17-3.58Z"/><path class="cls-4" d="M1440,579.37l480,6.37V608c-22.28,0-52.64-.06-88.72-.71-56-1-98.82-2.83-128.1-4.1-51.12-2.21-92.66-4.69-103.13-5.32-42-2.54-65.06-4.38-102.16-5.07-24.63-.46-44.78-.2-57.89.08l-117,.22c-22.44.6-304.62,15.07-304.62,15.07-119.43,6.7-179.15,10.05-227.74,11.73-78.55,2.73-135,3.29-156.65,3.45-55,.42-94.24-.17-170.46-1.38C270.6,618.91,218.59,614.69,193,612.3,126.47,606.08,93.2,603,74.32,597.81A231.11,231.11,0,0,0,23,589.39a226.46,226.46,0,0,0-23,0v-8.28c20.56-3.58,47.82-7.88,80-11.68,28.27-3.33,62.2-7.33,105.21-8.42,46.19-1.16,80.9,1.6,112.56,4.21,79.72,6.57,76.11,13.14,125.2,14.73,61.35,2,61.68-8.44,136.76-8.42,38.38,0,38.71,2.74,118.88,6.32,49.71,2.21,48.52,1.12,104.15,3.15,86.33,3.16,103,6.31,177.77,8.83,29.33,1,57,1.28,112.34,1.86,67.7.71,234.42-13.39,250.09-13.37C1323,578.32,1407.4,577,1440,579.37Z"/><path class="cls-4" d="M1860.13,566.49c-9,.31-17.91,1.14-26.54,3.49v9.13a28.83,28.83,0,0,0,5.88-5.74,28.67,28.67,0,0,1-5.68,8,76.25,76.25,0,0,1,21.44-13.08,55.69,55.69,0,0,0-16.5,11.82c-.89,1-1.65,2-2.68,3.29l9.71-5.06,0,.12-7.34,5.81.17.47a16.31,16.31,0,0,1,7.6,1.3,31.81,31.81,0,0,0-4.27,0c-3.19.43-5.1,2.48-6.1,5.4a1.63,1.63,0,0,1-1.87,1.29q-42.77,0-85.54,0c-3.88,0-7.76,0-11.64,0a1.56,1.56,0,0,1-1.19-.46c-2.4-4.32-6.35-6.65-10.74-8.37a52,52,0,0,0-15.4-3.22c-.64,0-1.28-.1-1.91-.17a.59.59,0,0,1-.46-.25c2.84-.14,5.67-.43,8.5-.4a58.69,58.69,0,0,1,8.69.63c2.8.46,5.53,1.39,8.54,2.18l-8.7-6.7.07-.16,11.29,6.13c-.78-2.87-2.72-4.19-5.36-5-6.38-2-12.69-4.25-19-6.4a4.45,4.45,0,0,1-.57-.38l21.32,6.07a98.94,98.94,0,0,0-14.5-16.9l.25-.31c4,3.1,8.11,6.12,12,9.34s7.7,6.71,11.8,10a33.7,33.7,0,0,0-1.47-4.17,120.48,120.48,0,0,1-9.24-24.7,4.83,4.83,0,0,1,0-.67c1.46,3.45,2.75,6.75,4.26,9.95s3.28,6.33,4.93,9.49l.26-.16.73-10.6.28,0c.17,2.36.19,4.75.53,7.1a75.66,75.66,0,0,0,1.61,7.58,4.89,4.89,0,0,0,1.16,1.78c1.07,1.23,2.2,2.41,3.3,3.6l.4-.18L1743.35,562a116.34,116.34,0,0,1,9.88,17.21c-1.63-12.13-6.24-23.39-9.9-34.93l11.91,27.56.24-.09-1-2.61.12-.09,2.54,3.84.19-.06c-.56-2.21-1-4.44-1.74-6.59-.22-.66-1.1-1.11-1.68-1.65a3.34,3.34,0,0,1-.88-1l2.4,1.61-2.26-10,.21-.06c.49,1.48,1,3,1.48,4.43.3.87.59,1.74.91,2.6,1.81,5,1.82,5,6.77,8l-2-25.19.11,0c.49,3.11,1,6.22,1.47,9.34.76,5.37,1.51,10.74,2.2,16.12.16,1.29,1.06,1.63,1.86,2.12l6.19-15.37.25.08-3.36,17.28.34.1c.09-.17.18-.33.25-.5,1.4-3.73,2.81-7.45,4.17-11.2a3.38,3.38,0,0,0,.13-1.81c-1-4.29-2.08-8.57-2.94-12.92l4,12.08c.27-.53.45-.89.64-1.25a15.66,15.66,0,0,1,1.21-2.34c2.41-3.17,2.57-6.83,2.41-10.58a1.44,1.44,0,0,1,.24-1l.88,4.66,11.49-16.39.35.23c-1.45,2.35-2.93,4.69-4.33,7.06-1.9,3.2-3.69,6.45-5.61,9.63a8.59,8.59,0,0,0-1.24,5.77c.56,4.64.83,9.31,1.17,14,.06.89.36,1.41,1.22,1.61a7.44,7.44,0,0,0,1-4.75l.38.75,5-14.68.19.05c-.42,1.86-.85,3.71-1.24,5.56-.78,3.71-1.64,7.4-2.22,11.14-.17,1,.49,2.22.78,3.33l.55,0,1.29-7.88h.13c0,3,.19,6-.07,8.89-.15,1.76.8,2.26,2,3,.52-5.49,1.07-10.86,2.73-16.12.43,4.93.85,9.75,1.28,14.57l.43.06a6.89,6.89,0,0,0,.74-1c1.37-2.66,2.73-5.33,4-8a1.88,1.88,0,0,0,0-1.38c-.84-1.84-1.76-3.65-2.48-5.58,1.09,1.7,2.19,3.39,3.33,5.16l.43-.56a9.34,9.34,0,0,0,.36,2.1,13.7,13.7,0,0,0,1.3,2.18c1.17-1.05,2.32-2.07,3.46-3.11a34.31,34.31,0,0,1,2.84-2.57,4,4,0,0,0,1.4-2.89,5,5,0,0,1,.47-1.43l-.28,2.73,10.46-9.63.15.16c-2.91,3.37-5.73,6.83-8.77,10.09a7.78,7.78,0,0,0-2.48,6.15c.14,2.18,0,4.38,0,6.68,2.24-.86,4.51-1.7,6.74-2.62.33-.14.53-.67.72-1,.74-1.5,1.46-3,2.32-4.47l-1.62,5.07c1.46-.45,2.83-.83,4.16-1.32.35-.13.59-.61.82-1,2.06-3.23,4.1-6.47,6.29-9.64l-4.93,10.07A105.49,105.49,0,0,1,1860.13,566.49Zm-27.66,3.6c-.84.5-1.6.69-1.91,1.17-2.38,3.7-3.76,7.83-5.15,12.09a4.24,4.24,0,0,0,3.2-2c.39-.7.86-1.34,1.25-2A19.73,19.73,0,0,0,1832.47,570.09Zm-11.75,12.13,9.35-11.21c-1.43.53-2.63,1.06-3.88,1.43a5.07,5.07,0,0,0-3.78,3.94C1821.94,578.27,1821.33,580.12,1820.72,582.22Zm-10.54-16.75c-1.73,2-3.25,3.7-4.75,5.45-.15.17-.3.53-.22.7.69,1.48,1.43,2.93,2.14,4.36a1.55,1.55,0,0,0,1.59-1.85,5.78,5.78,0,0,1,.16-1.3C1809.44,570.47,1809.79,568.12,1810.18,565.47ZM1796.87,581l.17.19c2.5-1.27,5-2.52,7.47-3.83a1,1,0,0,0,.3-.9c-.26-1.15-.62-2.27-1-3.62Zm-38.2-12.28-.29.19,4,8.74a44.42,44.42,0,0,0,.14-5,1.31,1.31,0,0,0-.24-.88C1761.1,570.71,1759.88,569.71,1758.67,568.7Zm20.51-10.92c-1.46,3.48-3.68,6.89-.94,10.81C1778.56,564.93,1778.87,561.36,1779.18,557.78Zm-3.24,11.28a27.45,27.45,0,0,0,.6,10C1777.85,575.52,1776.9,572.29,1775.94,569.06Zm25.29-2.49-2,5.55C1802.68,569.94,1802.91,569.29,1801.23,566.57Zm-15.54,11.92.41,0c1.38-2.76,1.35-3.2-.41-4Zm-3.07-6.39V575C1783.62,573.18,1783.61,572.59,1782.62,572.1Z"/><path class="cls-4" d="M818.66,579.14c7.62-6.11,16.3-9.75,24.76-13.77q5.13-2.43,10.25-4.9a1.9,1.9,0,0,1,1-.24c-2.54,1.55-5.1,3.07-7.6,4.66-6.54,4.16-13.14,8.24-19.54,12.6-2.85,1.94-5.28,4.49-7.9,6.78a12.48,12.48,0,0,0-.91,1.06,87,87,0,0,1,33.2,0c4.26.78,8.43,2,12.64,3l-.09.38-5.18-.74a90.77,90.77,0,0,0-25.92-.16c-4.09.62-8.12,1.6-12.18,2.41a7.63,7.63,0,0,1-1.41.21H791.48c-.31,0-.63,0-.92-.06-.91-4.71-4.24-7.89-9.16-8.79a22.62,22.62,0,0,0-11.77,1.23c-.36.13-.72.28-1.25.49,3.39-3,10.86-4.53,19.19-4-5-8.67-12.55-13.84-21.48-17.39a70.42,70.42,0,0,1,20.36,9.81c-5.53-9.81-8.62-20.13-10.69-30.81,3.66,11.92,9.67,22.36,19.24,30.86a136.52,136.52,0,0,1-4.47-40.17,127.39,127.39,0,0,0,10.22,44.43c1.21-11.91.42-23.78-.92-35.63l.3-.07c1.42,5.21,3,10.4,4.24,15.66s2.22,10.67,3.32,16c7.73-11.12,12.76-23.64,17.48-36.33-3.23,14.75-6.58,29.47-11.47,44.14A31.91,31.91,0,0,0,819.89,569c1.43-4.8,2.49-9.72,3.64-14.6.58-2.44,1-4.92,1.52-7.37a.67.67,0,0,1,.28-.38C825,557.78,823.39,568.66,818.66,579.14Z"/></g></g><g id="_LAYER-18_P12_" data-name="&lt;LAYER-18_P12&gt;"><path class="cls-5" d="M1738.9,291.4c1.72-1.43,4.35-1,6.53-.62a12,12,0,0,1,6.74,3.07c1.72,1.76,2.22,3.79,2.86,8.37,1,7.19,1.52,10.79,1.43,17.15-.07,5.08-.4,4.27-.61,11.85-.21,7.34-.3,11.06.41,13.48.93,3.18,2.16,4.83,1.43,7.35a8.48,8.48,0,0,1-4.09,4.69c-.81.46-3.82,2.14-6.53.82a6.41,6.41,0,0,1-2.86-3.27c-1.3-2.64-.8-4.53-1-7.55-.26-3.38-1.07-3.54-2.45-8.78a62.72,62.72,0,0,1-1.84-11c-.64-7,.51-6.86,0-13.68-.37-4.94-1.08-6.52-1.43-13.28C1737.19,294.53,1737.5,292.55,1738.9,291.4Z"/><path class="cls-6" d="M1744.86,351.48c-.65,1.61-1.11,3.7-.55,9.14a65.12,65.12,0,0,0,1.76,9.79c1.69,6.08,3.75,10.43,7.07,17.32,2.26,4.68,2.87,5.51,5.3,10.78a84.41,84.41,0,0,1,3.89,9.19c1.29,3.8,3.07,10.24,2.79,11.71a.4.4,0,0,0,0,.31c.37.44,2-1.19,4.6-1.59,1.82-.3,2.59.27,3.18-.36.44-.47.37-1.17,0-3.36-.43-2.45-.64-3.68-.89-4.59a56.65,56.65,0,0,0-1.76-5.66c-1.35-3.62-1.35-6.26-2.3-13.43-.09-.69.06.53-2.48-15-1.74-10.66-1.88-11.62-2.47-14-1.94-7.65-3.39-13.07-7.78-15a8.09,8.09,0,0,0-6.36-.18C1746.41,347.69,1745.41,350.15,1744.86,351.48Z"/><path class="cls-7" d="M1771.56,415.23c1,1.15,1,1.7,2.41,4.91a81.85,81.85,0,0,0,4.47,9.2,8.86,8.86,0,0,1,1.64,4.3,7.16,7.16,0,0,1-.61,3.27c-.43,1-.73,1-1.12,1.9a8.74,8.74,0,0,0-.43,3.27c0,2.66.42,3,0,3.95-.14.31-.37.66-2.49,2-3.9,2.42-4.93,2.37-5.51,2.24s-1.55-.59-1.55-1c0-.23.23-.43,1.12-1a17.09,17.09,0,0,1,2-1c1.61-.7,3.22-1.4,3.27-2.24,0-.59-.74-.82-2.32-2.15a23.51,23.51,0,0,1-2.75-2.84,16.74,16.74,0,0,1-2.5-4,18.73,18.73,0,0,1-1.29-5.5,44.88,44.88,0,0,1-.26-6.11c0-8.43-1.6-11.25-.17-12.13S1769.91,413.36,1771.56,415.23Z"/><path class="cls-8" d="M1723.5,456.25c1.29,1.53-.78,4.37-2.56,10a82.6,82.6,0,0,0-2,9,56.49,56.49,0,0,0-1.33,8.79c-.07,3.57.53,4.3-.22,6.23-.1.24-1.68,4.12-5.35,4.9a7.71,7.71,0,0,1-3.56-.22,12.48,12.48,0,0,1-6-3.34c-2.18-2.36-1.76-5-2-11.58-.37-9.93-1.58-10.41-1.23-18.25.33-7.38,1.51-9.46,2-10.24,2-3.21,6.44-7.11,10-6.12,4.31,1.19,4.64,8.73,10.24,10C1722.31,455.66,1723,455.66,1723.5,456.25Z"/><path class="cls-9" d="M1716.26,487.86c.85,1.2,1.2,2.58,1.89,5.35a39.32,39.32,0,0,1,1,6.56,69.6,69.6,0,0,1,.11,10,102.62,102.62,0,0,1-2,12.47c-1.32,6.8-2,10.28-3.34,15.13-1.5,5.46-1.79,5.2-2.67,9.13-1.26,5.66-.31,4.56-1.44,12.8,0,0-.58,4.2.66,6.57.36.68.78,1.33.78,1.33.85,1.32,1.12,1.38,1.45,2a5.62,5.62,0,0,1,.11,3.89,6.32,6.32,0,0,1-1,2.56c-1.38,1.88-3.21,1.06-5.68,2.45-3.21,1.82-2.65,4.66-5.56,5.57a4.62,4.62,0,0,1-4.12-.56c-.67-.56-1-1.33-1.34-6.12-.29-3.85-.16-4.13-.44-6.12-.39-2.78-.71-2.65-1-5.23a54.41,54.41,0,0,1-.11-5.79c0-2.91.1-3.46.55-3.79,1-.73,2.36.73,4.34.45,2.19-.32,3.56-2.53,4.12-3.45,2.24-3.63,1.41-7.75.78-12.36,0,0-.7-5.13-1.22-17.47-.3-7,.42-6.48.55-16.59.2-15.37-1.44-19.73,1.56-21.81C1707.43,482.64,1713.81,484.42,1716.26,487.86Z"/><path class="cls-10" d="M1773.52,431.19c.7-.45,2.14.74,3.65,2,1.92,1.59,1.82,2.2,1.74,2.43-.16.49-.68.69-1.45,1.17-1.21.76-1.47,1.26-3.12,2.86-3,3-5,4.93-6.64,4.64-.59-.11-1.21-.55-1.25-1.1s.82-1.36,1-1.53c1.07-.83,1.89-.57,2.74-1.43a4.08,4.08,0,0,0,.56-.84c1.38-2.11,3.41-2.42,3.53-3.51,0-.5-.37-.47-.8-1.39C1773,433.34,1772.86,431.6,1773.52,431.19Z"/><path class="cls-11" d="M1773.07,432.84c.63-.73,2.4-.07,4.27.63,2.37.89,2.41,1.55,2.38,1.81,0,.56-.54,1-1.23,1.75-1.08,1.23-1.23,1.84-2.55,4.09-2.45,4.17-4.09,6.95-5.8,7.27-.64.11-1.39-.09-1.56-.64s.53-1.69.71-1.95c.92-1.26,1.84-1.31,2.51-2.51a5.49,5.49,0,0,0,.39-1.07c.93-2.67,3-3.76,2.82-4.92-.06-.53-.49-.34-1.15-1.1C1773,435.23,1772.49,433.51,1773.07,432.84Z"/><path class="cls-12" d="M1767.08,423.46c0-.49-.26-2.72,1-3.45s2.83.37,3.14.56c.55.34,1.29.94,2.85,3.92a32,32,0,0,1,1.74,3.72,35.67,35.67,0,0,1,1.6,6.41,5,5,0,0,1,.14,2.41,4.4,4.4,0,0,1-2.43,2.89c-.79.35-1,.16-3.21.21-3.32.06-4.25.53-5.08-.21-.65-.58-1-1.62-.63-2,.19-.22.55-.16,1.25-.07,3.26.43,3.76.24,4,.07a5,5,0,0,0,1.12-1.24,4.36,4.36,0,0,0,1-1.72c.13-.74-.29-1.34-1.32-2.75s-1.63-2.24-2.09-2.83C1768.52,427.19,1767.28,425.58,1767.08,423.46Z"/><path class="cls-13" d="M1701.11,281.57a7.21,7.21,0,0,0,1.6-3.2,6.89,6.89,0,0,0,0-2.24c-.37-3.08,3.58-8,8.53-10a12.14,12.14,0,0,1,8.1-.75c.89.26,6.89-5.88,7.69-3.59.31.88-3,8.2-3.21,10.63a20.58,20.58,0,0,0,0,6.07,9.1,9.1,0,0,0,2.34,5.12,7.88,7.88,0,0,0,3.63,1.92c9.48,2.6,14.22,3.89,15.67,6.93.15.32.14.38-.1,6.72s-.23,6.29-.32,8.1c-.52,10-1,10.63-1.5,11-1.16.77-2.58.25-10.77-3.31-6.22-2.71-9.34-4.07-10.23-4.59a51,51,0,0,1-11.73-9.38C1703.79,293.49,1699.12,284.25,1701.11,281.57Z"/><path class="cls-14" d="M1684.79,282.42a38,38,0,0,1,7.36-1.71,47.8,47.8,0,0,1,6-.42c3.56-.08,5.33-.11,6.82.32,2.47.71,4.07,2.14,7.25,5,2.57,2.31,3.86,3.46,4.8,5.33,1.17,2.31,1.27,4.33,1.39,7.57,0,1.52,0,3.62-.85,10a85.08,85.08,0,0,1-1.39,8.53c-.9,3.1-2.19,7.54-6.18,11.2a18.48,18.48,0,0,1-10.88,4.9c-7.81.65-13.2-4.25-14.39-5.33a21.06,21.06,0,0,1-4.59-6.08,26.79,26.79,0,0,1-2.88-11.83C1677.05,306.36,1676.08,286.22,1684.79,282.42Z"/><path class="cls-15" d="M1677.55,453.63c-1.18,3.35,1.35,3.85,3.51,17,.56,3.44,1.26,8.7,2.46,13.5.39,1.59.7,2.55,1.22,4.91.74,3.31.69,3.91,1.23,4.91,1.28,2.36,3.88,3.26,5.61,3.85,4.06,1.4,11.05,2,13.5-1.57.54-.79.66-2.17.88-4.91a58.5,58.5,0,0,0,0-9.65,87.53,87.53,0,0,0-1.4-9.64c-2.78-14,3-21.2-.88-25.43C1698.48,441,1680.47,445.35,1677.55,453.63Z"/><path class="cls-16" d="M1679.11,307.69c2-1.9,3.88-1.25,10.87-2,3.94-.44,8.09-1.43,16.38-3.42,13.11-3.14,15.55-4.88,17-6.11,2.07-1.78,6.31-5.42,6.41-8.88,0-.37,0-2.27.79-2.53.3-.1.57.11,1.18.4.18.08.93.31,2.42.78,3.24,1,4.37.56,5.23,1.64.31.38.27.57.62,1.8.29,1,.76,2.13,1.69,4.38,1.61,3.9,3.1,7.08,4.86,11.59,1.43,3.66,1.54,4.37,1.54,5.18,0,1.19-.26,2.63-2.75,7-2.12,3.74-3,4.64-4.78,7.69a60.51,60.51,0,0,0-3.32,6.81c-2.5,5.77-6.3,14.53-6.79,25.87-.29,7,.77,12.29,2,18.58,1.55,7.75,2.79,9.52,4.06,14.87,3.58,15.09.3,28.56-.68,32.43-3.63,14.25-9.3,16.5-8.45,26,.21,2.33,1.18,9.14-1.52,10.48a2.52,2.52,0,0,1-1.37.21c-5.5-.54-8.26-.8-12.26-2.19-3.34-1.15-2.43.09-17.62-.16-3-.05-6.55-.2-13.6-.51-13-.56-12-.74-12.42-.67,0,0-2.54.43-7.72-.67a2,2,0,0,1-1.4-.84,1.49,1.49,0,0,1-.08-1c.44-2.19-.09-4.47.18-6.69,1-8.68.68-15,3.42-30.5,1.68-9.41,2.24-9.49,2.67-14.79.64-7.82-.48-8.89.61-15.87a115.41,115.41,0,0,1,3.39-13.94c1.07-3.77,1.59-5.66,2.42-8,3.28-9.15,5.22-8.78,6.71-14.26,1.6-5.84.75-11.28-.46-19.09-.71-4.58-1.17-4.94-1.49-8.75C1676.37,316.74,1675.87,310.79,1679.11,307.69Z"/><path class="cls-17" d="M1572.92,317.55a2.51,2.51,0,0,1-.29-.28,3.12,3.12,0,0,1-.89-2.23,1.56,1.56,0,0,1,.61-1.26,1.5,1.5,0,0,1,1.41.12,2.22,2.22,0,0,1,.8,1c1,1.75,2,2.17,1.82,2.62-.08.19-.63.23-1.71.31A2.47,2.47,0,0,1,1572.92,317.55Z"/><path class="cls-18" d="M1690.09,281.8c-2.51-1.75-6-.42-7.15,0-1.51.57-3.28,1.59-6.74,5.72-3.14,3.74-3.7,5.32-8,11.43-1.59,2.29-3,4.33-5.1,6.95-3,3.77-3.19,3.47-6.74,7.76-2.41,2.89-5,5.63-7.36,8.57a9.64,9.64,0,0,1-4.49,3.47,8.44,8.44,0,0,1-3.06.41c-3.73-.06-3.5.62-10.82,1.23-1.24.1-5.67.45-11.24.41a96.23,96.23,0,0,1-15.31-1c-4.46-.7-9.06-.32-13.48-1.22-.72-.15-2.4-.5-3.47.41-1.43,1.21-.93,3.95-.61,5.72.28,1.57.61,3.39,1.83,3.88.84.33,1.38-.26,2.86-.41a8.12,8.12,0,0,1,4.09.81c3,1.17,9,2.82,21,6.13a85.46,85.46,0,0,0,16.54,3.06c7.84.57,11.26-.45,13.48-1.43,2-.87,3.72-2.15,7.15-4.69,1.29-1,3.21-2.44,8.57-7.15,4.65-4.08,7-6.12,8.58-7.76a77,77,0,0,0,8.17-9.6c2.75-3.86,3-5.05,6.53-9.8,2.38-3.19,2.59-3.1,3.68-4.9,1.41-2.33,3.51-5.93,3.47-10.62C1692.52,287,1692.49,283.47,1690.09,281.8Z"/><path class="cls-19" d="M1590.69,326.64c-.72-1.86-2.28-3.23-5.39-6-3.88-3.41-5.61-3.9-6.56-4.07s-.58,0-3.71,0c-4.87-.06-6.9-.59-8.08.72a3.54,3.54,0,0,0-.73,1.39c-.22.74-.11,1.15.22,3.27s.31,2.39.72,3a2.09,2.09,0,0,0,1.53,1.09,1.56,1.56,0,0,0,1.39-.8,1.49,1.49,0,0,0,0-1.46c-.36-.55-1-.33-1.39-.87s-.38-1.62,0-1.82.69.34,1.53.58c1,.29,1.51-.38,2-.07s.49,1.09.58,1.67c.23,1.48,1.25,2.23,3.06,3.94,3.22,3,2.39,2.92,5,5.24s3.89,3.39,5.53,3.35a5.58,5.58,0,0,0,3.94-2.11C1592.39,331.08,1591,327.5,1590.69,326.64Z"/><path class="cls-20" d="M1573.28,319.8a2.84,2.84,0,0,1,2,1.11c.22.26,1,1.23.75,2-.17.47-.76.77-1.94,1.39-.64.33-1.1.51-1.07.71s.23.17.75.4,1,.43,1.15.67a1.41,1.41,0,0,1-.24,1.67,1.87,1.87,0,0,1-1.62.28c-.83-.11-.92-.38-2-.75-1.34-.47-1.76-.24-2.42-.8a1.8,1.8,0,0,1-.72-1.19c0-.48.25-.85.76-1.47a21.76,21.76,0,0,1,1.94-2.18C1571.93,320.42,1572.61,319.79,1573.28,319.8Z"/><path class="cls-21" d="M1574.86,323.45a2.81,2.81,0,0,1,2,1.11c.21.25,1,1.22.75,2-.17.47-.76.78-1.94,1.39-.64.33-1.1.51-1.08.72s.24.17.76.39,1,.43,1.15.68a1.41,1.41,0,0,1-.24,1.67,1.88,1.88,0,0,1-1.63.27c-.83-.1-.91-.38-2-.75-1.34-.47-1.76-.24-2.42-.79a1.82,1.82,0,0,1-.72-1.2c0-.48.25-.85.76-1.46a22.11,22.11,0,0,1,1.94-2.19C1573.51,324.06,1574.19,323.44,1574.86,323.45Z"/><path class="cls-22" d="M1577.35,325.69a2.78,2.78,0,0,1,1.94,1.11c.22.25,1,1.22.76,2-.18.47-.77.78-2,1.39-.64.33-1.1.51-1.07.72s.23.17.75.39,1,.43,1.15.68a1.41,1.41,0,0,1-.23,1.67,1.89,1.89,0,0,1-1.63.27c-.83-.1-.92-.38-2-.75-1.34-.47-1.76-.24-2.42-.79a1.81,1.81,0,0,1-.71-1.2c0-.48.24-.85.75-1.46a19.76,19.76,0,0,1,2-2.19C1576,326.3,1576.67,325.68,1577.35,325.69Z"/><path class="cls-23" d="M1686.73,489.52c-1.21,1.84-1,3.2-1,10.4-.06,9.77-.44,8.77-.23,12.16.14,2.34.46,5.21,3.27,15.89,2.88,10.95,6.19,22.09,6.19,22.09A82.43,82.43,0,0,1,1698,562.8c.6,4,.8,7.87.87,9.18.28,6-.32,5.1.1,7.77a8.85,8.85,0,0,1-.1,4.64,6,6,0,0,1-1.41,2.37c-.33.34-.67.59-3.45,2-1.38.74-1.82,1-2,1.52a2,2,0,0,0,.32,2c.38.39.88.49,2,.54,2.18.07,3.27.11,4.11-.22,1.23-.49,1.9-1.41,3.23-3.24,2.06-2.82,1.79-3.73,3.13-4.42a7.21,7.21,0,0,1,4.32-.33c1.33.32,2,.91,2.59.54.18-.12.55-.47.43-2.26a14,14,0,0,0-1.29-4.86,44.77,44.77,0,0,0-2-4.21c-2.06-3.66-.9-8.3-.33-12.63.56-4.18.19-9.08-.54-18.88-.67-9-1.39-8.67-1.51-15.33-.1-5.63.4-7,.11-13.38s-.81-5.65-1-11c-.25-8.11.93-10.42-1.08-13.38a10.51,10.51,0,0,0-6.69-4.1C1693.51,484.41,1688.87,486.25,1686.73,489.52Z"/><path class="cls-24" d="M1697.09,592.36c.15.62,1.57.45,5.25,1,2.74.4,3.79.75,5.88.58a5.2,5.2,0,0,0,2.94-.84,5.07,5.07,0,0,0,1.74-3.12,5.81,5.81,0,0,0-.31-3.52,5.6,5.6,0,0,0-2-2.45,5.78,5.78,0,0,0-3.43-.89,5.23,5.23,0,0,0-3.11.75c-.73.51-.74.89-1.88,2.59a26.32,26.32,0,0,1-2.49,3.25C1698,591.53,1697,591.83,1697.09,592.36Z"/><path class="cls-25" d="M1700.52,277.48a19.84,19.84,0,0,1-5.37,1.33c-2,.14-3.12.12-4.2-.57a5.67,5.67,0,0,1-2.41-4c-.1-.59-.87-1.67-1.54-1.57a.77.77,0,0,1-.61-.32,1.74,1.74,0,0,1-.28-1.87c.17-.48.62-.73.77-1.71-1.36-1.76-1.33-2.52.56-3.66l-.8-1.05a2.94,2.94,0,0,1,.68-4.11,6.42,6.42,0,0,0,2.82-6.54c-.91-5.86,1.07-10,4.51-13.85a17.87,17.87,0,0,1,2.77-2.73c.89-.7,4.24-2.43,10.57-4a35.8,35.8,0,0,1,11.6-1.51c5.08.28,7,1.65,7.46,2a12.31,12.31,0,0,1,3.33,4.43,18.53,18.53,0,0,1,2.42,7.66c.18,2.67-.36,4.52-1.31,7.77-1.09,3.71-2.08,7.08-4.74,10.28-1.52,1.82-3.26,3-6.76,5.24a71.91,71.91,0,0,1-13.1,6.66C1705.58,275.84,1706.61,275.4,1700.52,277.48Z"/><path class="cls-26" d="M1721.9,308.36c-2-8.1-4.78-12.5-7.08-15.06-2.13-2.35-4.49-3.85-6.6-7.67a10.1,10.1,0,0,0-2.56-3.35c-1.73-1.41-3-2.2-4.36-2.37"/><path class="cls-27" d="M1721.51,309.74a43.2,43.2,0,0,1,3.25-11.22c1.34-3,3.25-6.28,3.24-11a18.94,18.94,0,0,0-.2-2.73"/><path class="cls-28" d="M1706.57,253.49a3.36,3.36,0,0,1,2.31.47,4.29,4.29,0,0,1,1.72,1.6,4.92,4.92,0,0,1,.47,3.25,6,6,0,0,1-1.36,3.43,6.18,6.18,0,0,1-3.14,1.84c-.48.15-3.67,1.14-5-.3,0,0-.66-.72-.47-1.24s.75-.53,1-.59C1704.32,261.28,1704.09,254.26,1706.57,253.49Z"/><path class="cls-29" d="M1666,361.3a7.41,7.41,0,0,0,1.82,4.39,12.14,12.14,0,0,0,6.06,3.94c4.39,1.45,7.51,1.05,13.49.91,9.69-.22,8.44.67,13.63.15a109.05,109.05,0,0,0,14.85-2.88c.7-.17,8.1-2,11.67-.15a4.45,4.45,0,0,1,2.08,1.9c.57,1.17,0,1.77.41,3.08.66,2.05,3,3.38,3.44,3,.11-.08.11-.39.12-1a11.62,11.62,0,0,0-.06-1.48c-.24-1.79-.38-3.59-.66-5.38-.42-2.68.65-3.45,1.32-7.9.61-4-.2-4,.22-9.76.28-3.9.42-5.86,1.1-8.12,1-3.24,2.19-5,1.88-8.21a12,12,0,0,0-.71-3.06c-.81-2.23-1.84-3.2-3.52-5.4-1.15-1.52-2.55-3.8-5.36-8.38a35,35,0,0,1-2.11-3.68,26.65,26.65,0,0,0-2.07-4.44c-1.18-1.86-1.69-1.86-1.86-1.81s-.39.38-.51.65c-.41,1-1.12,1.8-1.51,2.78-.94,2.33-5.65,5.95-5.65,5.95-10.44,8-9.48,8.32-13.71,10.63-5.7,3.12-10.8,5.91-15.47,3.93-2.94-1.24-4.74-4-5.65-5.35-2.9-4.39-3.08-9-3.5-8.95-.25,0-.17,1.75,0,4.32.22,4.42.33,6.63.42,7.75a42.43,42.43,0,0,1-2.18,15.83c-1.67,4.9-2.75,8.05-5.4,11.37C1667.51,357.2,1665.93,358.91,1666,361.3Z"/><path class="cls-30" d="M1689.63,226.86c-.68.63-.15,1.74,0,4.39s-.25,3,.27,3.59c.27.28,1,.83,5-.18,3.62-.91,4.49-1.72,7-2.24a23,23,0,0,1,5.74-.18,59.22,59.22,0,0,1,11.47,1.17c2.26.49,4.72,1.2,6.46,0a2.59,2.59,0,0,0,1.07-1.35c.29-1-.27-2-.89-3.14a5.18,5.18,0,0,0-.9-1.34c-1.37-1.24-4-.46-4.66-.27-7,1.9-25.88-.21-28.86-.72A2.1,2.1,0,0,0,1689.63,226.86Z"/><path class="cls-31" d="M1688.47,234a3.65,3.65,0,0,0,.8,3.95c.6.44,1.1.21,2.16.89.68.45.69.7,1.52,1.35.57.45,4.28.1,6-1.17a17.51,17.51,0,0,1,6.46-2.69,28.22,28.22,0,0,1,6.54-.8c2-.08,1.81.05,6.28.09a40.55,40.55,0,0,0,6.81-.36c2.4-.37,3.86-.6,4-1.35.24-1-1.92-2.74-4.21-3.22-1.7-.36-2.42.2-5.73.54a37.09,37.09,0,0,1-4.47.17c-4.77,0-5.91-.82-10.06-.89a40.15,40.15,0,0,0-6,.45C1692.41,231.71,1689.3,232.11,1688.47,234Z"/><path class="cls-32" d="M1742.49,168.22l-12.08,60.31a169.94,169.94,0,0,1-43.42-1.37l-8.31-59.92S1721.29,169.56,1742.49,168.22Z"/><path class="cls-33" d="M1678,164.63c-.24,0-.85,0-1.12.32s-.11.75,0,1.22a4.16,4.16,0,0,0,.64,1.44c.85,1.08,3,.87,3.78.8,2.47-.2,4.94.54,7.42.48,7.68-.18,12.29,1,29.31.88,1.57,0,7-.08,14.06-.4,4.29-.2,8.58-1.13,12.86-.8a1.26,1.26,0,0,0,.91-.23,1.28,1.28,0,0,0,.36-.85,2.46,2.46,0,0,0-.27-1.89c-.56-.74-1.8-.68-2.38-.64l-13.18.86c-1.14.1-2.69.13-5.8.2-.94,0-4.54.09-10.29,0l-7.78-.2-10.15-.27c-9.46-.1-8.69.44-10.42-.06S1682.22,164.89,1678,164.63Z"/><path class="cls-34" d="M1680.38,179.54s25.32,3.29,59.64,1"/><path class="cls-35" d="M1680.74,182.12a296.34,296.34,0,0,0,58.64,1.62"/><path class="cls-36" d="M1681.07,184.46s15.6,4.92,57.74,2.15"/><path class="cls-37" d="M1686.71,225.13a247.84,247.84,0,0,0,44.12,1"/><path class="cls-38" d="M1686.21,222.53s33.56,2,45.31.47"/><path class="cls-39" d="M1694.45,152.49c-.12-1.34-.22-2.42-1-3.15-1.78-1.57-5.81-.5-8.22,1.49-1.84,1.52-1.54,2.59-4.2,4.81-1.33,1.11-2,1.36-2.1,2.1-.15,1.6,2.81,3.26,4.9,3.94,1.34.43,4.81,1.54,7.7-.44C1695,158.8,1694.58,153.85,1694.45,152.49Z"/><path class="cls-40" d="M1699.44,149.34c-1.21-.55-2.73.16-5.77,1.58a47.07,47.07,0,0,0-7.18,4.55c-4.92,3.47-3.72,3.09-5.77,4.28s-3.11,1.53-3.41,2.71.65,2.57,1.66,3.85a14.66,14.66,0,0,0,6.91,5,16.28,16.28,0,0,0,7.26.61c2.58-.25,8.76-.84,10.32-4.46.58-1.34,0-2-1-6.56C1700.75,152.92,1701.35,150.22,1699.44,149.34Z"/><path class="cls-41" d="M1736.09,154.42c2.17,1,1.37,2.77,4.46,5.51,2.39,2.12,4.45,2.48,4.46,3.85,0,1.12-1.37,2-2,2.36-2,1.26-3.64.87-8.13,1-5.15.1-5.74.65-7.26-.18a6.17,6.17,0,0,1-3.33-5.16c0-2.48,2-4.09,3.15-5.07C1729.29,155.15,1733.14,153,1736.09,154.42Z"/><path class="cls-42" d="M1718.16,151.35c-4.52,3.86-5.39,3.35-7.26,5.51-2.86,3.31-4.48,8.69-2.63,10.68.73.78,1.47.47,6.74.43,4.92,0,7.68-.05,10.85.09s4.93.38,5.24-.35c.55-1.25-3.67-3.58-3.06-5.16.22-.56,1.49-.9,4-1.57s2.94-.59,3.32-1c1.24-1.54-.49-5-1.4-6.74a11.05,11.05,0,0,0-2-3.15,9.41,9.41,0,0,0-9.27-2.36C1721.21,148.19,1721.2,148.77,1718.16,151.35Z"/><path class="cls-43" d="M1703,146.19c-2.29.85-4.82,1.79-6.48,4.38a9.32,9.32,0,0,0-1.4,5.6c.18,2.1,1.07,3.36,2.54,5.68,5.36,8.45,5.87,11.14,8.57,11.46a4,4,0,0,0,2.89-.7c1.94-1.58.4-4.58,1.49-8.66.71-2.66,2.14-4.28,4.54-7a23.68,23.68,0,0,1,8-6.21c2.6-1.18,4.57-2.08,6.21-1.22,1.92,1,1.43,3.34,4,5.42,1.42,1.14,3.48,2,4,1.4.69-.72-1.09-3.69-2.8-5.6a17.81,17.81,0,0,0-4.9-3.67,25.15,25.15,0,0,0-7.52-2.54c-4.07-.73-7.09-.36-12.86.35A26.76,26.76,0,0,0,1703,146.19Z"/></g><g id="_LAYER-18_P11_" data-name="&lt;LAYER-18_P11&gt;"><path class="cls-44" d="M903.1,304.82l-1,10.58c-.16,1.71-1.14,3-2.27,3l-43.61-1.27c-1.13,0-2-1.36-2.09-3.08l-.42-11.3"/><path class="cls-45" d="M903.94,303.68l3.92-41.23-56.42-1.64,1.49,40.72c0,.66.36,1.16.79,1.18l49.35,2.1C903.5,304.83,903.88,304.34,903.94,303.68Z"/><rect class="cls-46" x="849.55" y="259.21" width="59.61" height="3.63" rx="1.25" transform="translate(7.96 -25.47) rotate(1.67)"/><path class="cls-47" d="M906.61,385.74a113.38,113.38,0,0,0,2.53,11.87c2.2,8,3.3,12.06,4.15,15.73.19.84.66,2.91,1.49,5.64,0,0,.78,2.63,1.63,4.9,1.68,4.54,4.56,7.45,8.76,13.36,4.61,6.51,6.92,9.76,8.31,12.91s2.33,6.3,5.34,7.72c2.25,1.06,5,.89,5,1.48,0,.39-1.12.84-1.34.6s1-1.25,1.34-2.82c.26-1.4-.41-2.45-1.34-4.31s-1.48-3.7-2.37-5.49c-1.73-3.45-3.58-9-7.28-20-2.73-8.19-2.76-8.8-4-11.14-1.54-2.86-2.77-4.3-4.31-8a63.38,63.38,0,0,1-2.22-7c-1.69-5.89-2.53-8.83-2.82-11.28-.62-5.2.33-6.5-1.19-9.2-.54-.95-2.12-3.77-5.2-4.15a6.44,6.44,0,0,0-6.08,3C906,381.22,906.19,383.05,906.61,385.74Z"/><path class="cls-48" d="M937.68,456c-.54,1,.13,1.6.41,4.62.23,2.4-.17,2.36.09,4.78.21,2.08.51,2.21.74,4.53.12,1.25.79,1.22.93,3.63.08,1.64,2.43,1.25,2.61,2.67.31,2.48.48,3.74,1.24,5,.37.63-1.59,4-.25,3.92,1.08-.09,1.78-1.43,2.06-2,1.17-2.27,0-3.49,1.07-5.85.62-1.31,1.15-1.29,1.57-2.64a7,7,0,0,0,.08-3.38,36.08,36.08,0,0,0-1.73-5.85c-1-3.35-.58-3.8-1.73-7-1.23-3.43-2.11-3.89-2.47-4A4,4,0,0,0,937.68,456Z"/><path class="cls-49" d="M946.83,471.71c-.52.17-.24,1.66-.41,4a10.08,10.08,0,0,1-1,4.49,6.87,6.87,0,0,1-2,2.36c-1.23.88-2.24.92-2.6,1.89a1.29,1.29,0,0,0,.12,1.3c.22.19.58.18,1.24,0a6.58,6.58,0,0,0,2.89-1.42,10.13,10.13,0,0,0,1.89-2.6,8.89,8.89,0,0,0,.82-1.53c.43-1.12.19-1.47.48-3.19s.56-1.74.47-2.66a3.47,3.47,0,0,0-1.06-2.24C947.35,471.88,947.07,471.63,946.83,471.71Z"/><path class="cls-50" d="M945.89,471.45c-.55.08-.54,1.59-1.14,3.9a10,10,0,0,1-1.79,4.23,7,7,0,0,1-2.4,2c-1.37.65-2.37.5-2.9,1.39a1.31,1.31,0,0,0-.12,1.3c.19.23.54.29,1.22.22a6.37,6.37,0,0,0,3.1-.87,10.08,10.08,0,0,0,2.33-2.21,9.49,9.49,0,0,0,1.09-1.36c.62-1,.45-1.41,1-3.05s.87-1.61.94-2.53a3.44,3.44,0,0,0-.64-2.4C946.37,471.71,946.14,471.42,945.89,471.45Z"/><path class="cls-51" d="M944.6,471.29c-.47,0-.62,1.3-1.37,3.21a8.6,8.6,0,0,1-2,3.41,5.88,5.88,0,0,1-2.25,1.43c-1.23.41-2.07.18-2.61.88-.23.3-.42.79-.23,1.09s.43.3,1,.32a5.59,5.59,0,0,0,2.74-.42,9.12,9.12,0,0,0,2.21-1.65,9,9,0,0,0,1.07-1,13.23,13.23,0,0,0,1.2-2.49c.66-1.31.91-1.28,1.06-2.06a3,3,0,0,0-.29-2.11C945,471.56,944.82,471.29,944.6,471.29Z"/><path class="cls-52" d="M939,464.36a8.31,8.31,0,0,0,1.06,2.95c.86,1.32,1.49,1.17,2,2.36a4.61,4.61,0,0,1,.24,2.18,5.09,5.09,0,0,1-.53,1.65,7.23,7.23,0,0,1-3,3c-.75.34-1.22.35-1.48.82a1,1,0,0,0-.06.89.84.84,0,0,0,.59.35,3.72,3.72,0,0,0,2.48-.53,11.53,11.53,0,0,0,1.59-.94,8.69,8.69,0,0,0,2.47-2.11,6.81,6.81,0,0,0,1-3.16,26.19,26.19,0,0,0,.14-3c.07-3.13.13-2.9.09-3.37a7.16,7.16,0,0,0-1.49-4.32c-.09-.11-2-2.27-3.64-1.62-1.27.51-1.54,2.45-1.58,2.74A6.08,6.08,0,0,0,939,464.36Z"/><path class="cls-53" d="M846.87,354.89c-2.11-1-2.59-3.22-3.84-6.79-2.31-6.6-2.7-4.83-6.28-14.36-1.53-4.08-2.33-6.72-2.44-10.12a32.51,32.51,0,0,1,.13-3.46A76,76,0,0,1,836.11,309c2.12-9.59,3.18-14.38,5-19.36,2.42-6.65,3.68-7.81,3.84-11.79,0-1.39,0-4.74.42-8.7.07-.72.23-1.87.57-4.18a12.91,12.91,0,0,1,.76-3.51,9.05,9.05,0,0,1,1.8-2.76,9.68,9.68,0,0,1,3.42-2.18,4.91,4.91,0,0,1,2.76-.67,4.24,4.24,0,0,1,2.18,1.05c.91.71,2,2,1.71,2.56s-1.35.24-1.61.19c-1-.18-1.14-.62-2.19-.85a2.11,2.11,0,0,0-1.71.09c-.49.38-.53,1.15-.57,2s.15,1,0,1.52c0,.18-.18.49-1.33,1.61-.87.85-1.21,1.07-1.14,1.33s1,.47,1.14.48c1,.07,1.41-.46,1.9-.29s-.76,1.32-.67,2.09c.36,3,1.93,4.9,2,6.37.14,2.62.36,3.4-.28,4.28-.47.64-.87.61-1.71,1.42a8.55,8.55,0,0,0-1.9,3,25.41,25.41,0,0,0-1.62,5.13c-1.1,5.78-1.65,8.66-1.8,9.79-.59,4.16-.43,3.87-1.14,9.5,0,0-1.31,10.37-.86,15.59a10,10,0,0,0,.48,2.37,10.44,10.44,0,0,0,1.52,2.95,54.81,54.81,0,0,1,3.51,6.36,33.38,33.38,0,0,1,3.33,8.75,18.91,18.91,0,0,1,.47,3.51c.08,2.65.19,5.91-2,7.6A5.56,5.56,0,0,1,846.87,354.89Z"/><path class="cls-54" d="M853,261.35a9,9,0,0,0-2.76,2.69c-.13.17-.22.3-.28.39-.32.47-.6,1-1.55,2.62-1.84,3.17-1.76,2.9-2,3.4a8.31,8.31,0,0,0-.91,5.26c0,.16.81,3.46,2.82,3.7,1.6.19,3-1.64,3.16-1.92a6.93,6.93,0,0,0,1-2.32,9.47,9.47,0,0,0,.57-3.62c-.13-1.84-.86-2-.67-3.51a5.15,5.15,0,0,1,.83-2.15,1.58,1.58,0,0,1,.16-.22,7.73,7.73,0,0,1,1.47-1.4,2.47,2.47,0,0,0,1-1.54,1.92,1.92,0,0,0-1.56-1.84A2.13,2.13,0,0,0,853,261.35Z"/><path class="cls-55" d="M861.7,421.9c-.53.59-1.08,3.3-2.18,8.72-1.18,5.82-1,6.87-.44,7.62,1.26,1.71,4.07,1.49,9.7.87,13.06-1.44,13.81-2,20.91-2.72,4.25-.42,8.39-1.65,12.64-2.07,2.2-.21,4.63-.37,5.44-2s-.57-4.09-.87-4.57a8.49,8.49,0,0,0-3.81-3.27c-4.68-2.16-10.45-.64-13.4-.11C875.12,427.05,865.94,417.25,861.7,421.9Z"/><path class="cls-56" d="M880.76,542.12c1.67,1.33,0,10.35,0,10.35-.07.36,0-.21-.21,14.43-.07,3.9-1,7.86-.32,11.71a8.16,8.16,0,0,1-.2,4.18,5.65,5.65,0,0,1-3.14,3.66,4.06,4.06,0,0,1-3.35-.21,4.27,4.27,0,0,1-1.67-2.4,13.23,13.23,0,0,1-.52-5.13c-.06-2.51-.92-3.39-2.09-6.69-.57-1.57-.54-1.86-2.09-9.72-2-10.06-2.55-12.25-1.89-15.89a12,12,0,0,1,2-5c.16-.23,3.41-4.64,6.48-4,1.59.35,2.68,2,4.71,3.14.15.09.73.42,1.46.94C879.92,541.49,880.36,541.8,880.76,542.12Z"/><path class="cls-57" d="M885.36,542.43c-2.34,2.14-.34,6.2.42,13.7.13,1.31,0,.1-.32,16.83-.06,3.59.44,7.21,0,10.77,0-.27.1,1.84.21,6.07a3.63,3.63,0,0,0,.73,2.4,3.89,3.89,0,0,0,2.3,1,4.2,4.2,0,0,0,3-.11c.72-.42,1.06-1.14,1.46-2.43a16,16,0,0,0,1-5.2c0-3.58,1.34-7,2-10.56,1.58-8.64,2.37-13,3-16.31.8-4,1.29-8.09,2-12.13.82-4.71,1.23-6.82-.1-8.26-1.61-1.73-5-1.64-7.11-.84-1.35.51-1.37,1-3.87,2.51C887.05,541.83,886.29,541.58,885.36,542.43Z"/><path class="cls-58" d="M885.26,347.73a3.81,3.81,0,0,0,2.51,0,4,4,0,0,0,1.85-2.07,25.71,25.71,0,0,0,2-5.62,32.91,32.91,0,0,0,1.11-4.13,13.81,13.81,0,0,0,.3-3.33c-.06-1-.22-4.06-1.63-4.58-.95-.35-1.9.68-4.28,2.37a39.27,39.27,0,0,1-5.25,3.17c-5.56,2.48-14.46,1-16.23.68-.36-.08-1.48-.33-2,.24a2.22,2.22,0,0,0-.3,1.72,7.29,7.29,0,0,0,.59,2,14.74,14.74,0,0,0,1,2.5,3.3,3.3,0,0,0,1.3,1.49,1.85,1.85,0,0,0,1.13.23c.81-.13.95-.92,1.55-1.13.91-.31,2.1,1,2.67,1.55a17.39,17.39,0,0,0,7.26,4C881.6,347.74,881.61,346.8,885.26,347.73Z"/><path class="cls-59" d="M871.56,586.35c-.42,1.33.38,1.54.1,3.87a26.77,26.77,0,0,1-.52,2.92,3.93,3.93,0,0,0-.21,2,2.29,2.29,0,0,0,.94,1.46c.36.22.72.24,2.3,0s1.74-.34,2.93-.52c1.71-.26,2-.15,2.4-.52.57-.56.15-1.08.63-2.3s1.15-1.16,1.78-2.54a6.49,6.49,0,0,0,.52-2.59,9.27,9.27,0,0,0-.42-2.82c-.21-.75-1.25-4.45-2.4-4.39-.52,0-.47.76-1.36,1.46-1.17.92-2.1.33-3.66.94A5.19,5.19,0,0,0,871.56,586.35Z"/><path class="cls-60" d="M885.15,591.16a2.83,2.83,0,0,1,1.46-.45,9.87,9.87,0,0,1,2.51,0c3.75.47,4.67,0,5.23.86a2.32,2.32,0,0,1,.21,1.78,2.39,2.39,0,0,1-1,1.36c-.87.54-1.49.08-3.55,0a30.54,30.54,0,0,1-3.45,0c-1.57-.17-1.86-.46-2-.63A2.33,2.33,0,0,1,885.15,591.16Z"/><path class="cls-61" d="M869,342.55c-.18.65.44,1.92,1.7,4.44,1.45,2.9,1.71,3.42,1.92,4.43,0,.27.16,1.09.37,2.73.36,2.82.32,2.74.37,2.88.66,1.86,3.23,2.43,7.61,3.4,4.66,1,5.72.49,6.2,0a4.77,4.77,0,0,0,1.11-2.07,4.18,4.18,0,0,0,.07-1.18,18.78,18.78,0,0,0-.59-3.69,20.43,20.43,0,0,1-.88-4.14c0-.44,0-.94.07-1.92.14-2.16.22-3.37.37-4.28.62-3.69,2.89-4.81,2.29-5.84-.79-1.35-5.16-.25-6.43.07-2.74.7-2.54,1.24-5,1.78-3,.64-4,0-6.28,1C870.77,340.68,869.36,341.3,869,342.55Z"/><path class="cls-62" d="M867.34,356.48a20.42,20.42,0,0,0-2.49,2.35c-1.86,2.08-1.86,2.93-3.46,4.85a11.38,11.38,0,0,1-5,3.87c-1,.34-3,1.05-4.56.14-1-.55-.81-1.13-2.35-2.77s-1.94-1.29-2.63-2.35c-1-1.59-.19-2.4-1.25-5-.6-1.48-1-1.52-1.11-2.49s.29-1.62,1.39-3.74c2-3.87,2.13-4.56,3.32-5.53a5.22,5.22,0,0,1,2.35-1.25,6,6,0,0,1,4.57,1.39c2,1.74,1.7,3.89,3.32,4.29,1,.25,1.63-.51,2.49,0,.68.4.52,1,1.38,2.07a10,10,0,0,0,1.8,1.52A10.78,10.78,0,0,1,867.34,356.48Z"/><path class="cls-63" d="M873,354.15c-2.25-1.37-6.24,1.26-7.46,2.06a13.38,13.38,0,0,0-3.18,2.76c-1.26,1.53-1.22,2.21-2.63,3.74-.81.87-.68.5-2.76,2.35-1.83,1.63-2.36,2.3-3.19,2.21-1-.1-1.46-1.26-1.79-1.1s.11,2,.83,4.84c.6,2.39.91,3.58,1.1,4.56.82,4.13.26,4.71,1.25,6.5.81,1.48,1.46,1.57,1.8,2.91s-.16,2.3-.42,4c-.35,2.31.4,2.11.55,6.09.14,3.65-.45,4.75.42,6.92a7,7,0,0,1,.55,1.66,7.66,7.66,0,0,1-.69,4.15c-1,2.94,0,2.72-1,6.77a41,41,0,0,0-1,5.26,3.4,3.4,0,0,0,.14,1.8,4.33,4.33,0,0,0,2.49,2.08,20.76,20.76,0,0,0,5,1.66c6.39.88,4.72,1.34,12.31,2.21,1.17.13,5.5.61,11.49.83,1.12,0,.89,0,15.77-.55.79,0,5.78-.23,6-1.39,0-.31-.29-.51-.83-1.52a10.77,10.77,0,0,1-.83-2.07,54.28,54.28,0,0,1-1.53-6.37,44.67,44.67,0,0,1-.83-5.81c-.11-2.61.25-2.53,0-4.43-.33-2.57-1-3.11-1-5.25a11.68,11.68,0,0,1,.69-3.32c.58-1.87,1.44-2.32,1.93-4.29.24-.95.08-.9.35-2a25.89,25.89,0,0,1,1.35-3.57c.6-1.89-.37-2.82-.68-5.21-.15-1.19.48-3.53,1.74-8.17.67-2.47.81-5.1,1.83-7.44a4.28,4.28,0,0,0,.39-3.28,3.6,3.6,0,0,0-1.45-1.54,5.67,5.67,0,0,0-2.6-.77c-1.56-.21-.85-.33-4.73-1.26-2.71-.65-3-.57-5-1.06-3.07-.73-4.63-1.08-5.4-1.64-1-.7-1.58-1.51-2.6-1.44-.67,0-.92.42-1.83.87a9,9,0,0,1-3.09.77,26.77,26.77,0,0,1-6.07-.29c-2.23-.24-2.68-.36-3.18-.68C873.8,355.82,874.08,354.81,873,354.15Z"/><path class="cls-64" d="M909.93,364.61c.43,1.2.09,2.38-.58,4.72s-1,2.27-1.54,4.24a21.43,21.43,0,0,0-.67,3.86c-.81,7.59-2.17,11.22-1.06,11.76.88.43,2.72-1.38,2.89-1.54a8,8,0,0,0,1.25-1.74,9.34,9.34,0,0,1,4.53-3.28,66.73,66.73,0,0,1,6.36-2c.29-.08,1-.27,1.16-.77s-.54-1.38-1-1.83a36.57,36.57,0,0,1-3-4.34c-1.19-1.88-1.07-2.73-1.63-4.26a10.09,10.09,0,0,0-.69-1.52,19.56,19.56,0,0,0-3-4c-1-1.14-1.39-1.5-2-1.58a1.51,1.51,0,0,0-1.46.5C909.28,363.34,909.69,363.92,909.93,364.61Z"/><path class="cls-65" d="M909.12,439.21a2.89,2.89,0,0,1,2.63,1.35,4.13,4.13,0,0,1,.45,2.48v4.43c-.22,2.41-.08,4.83-.12,7.24,0,.82-.07,4.67,0,8.78.13,7.25.52,7.54.35,10.85,0,.85-.19,3.14-1.73,9.82-2.51,10.87-3.8,12.14-5,19.43-.47,2.9-.67,5.3-1.06,10.11-.55,6.77-.6,11.19-.6,12.53,0,5.15.22,8.09.3,8.9.33,3.54.49,5.31.75,5.89s.92,1.78.46,2.56a1.89,1.89,0,0,1-1.22.78,2,2,0,0,1-1-.09c-1.52-.46-.91,0-3.21-.69-2.53-.79-2.78-1.23-4.06-1.56s-2-.09-5.63.52a37.56,37.56,0,0,1-7.1.87c-1.77-.11-4.85-.29-6.14-2.25-.94-1.43-.4-3,.26-6.06,1.3-6,.17-4.18,1.64-11.25,1.38-6.62,2-6.21,3.15-11.8,1.26-6,.73-7,2-14.86.27-1.74.48-2.77,2.42-11.85,2.47-11.48,3.71-17.26,4.15-18.71,2.9-9.7,4.35-14.55,8.14-17.72,2.62-2.19,5.83-3.27,7.71-7C907.06,441.1,907.78,439.42,909.12,439.21Z"/><path class="cls-66" d="M919.52,378.29c1.07-.65,2.06-1.27,2.66-.89.14.08.15.16.73,1.59.38.93.49,1.18.37,1.47s-.3.38-.94.65a12.09,12.09,0,0,1-1.92.65s-1.31.3-2.57.7a30.53,30.53,0,0,0-3,1.3,13,13,0,0,0-2.9,1.51,14.78,14.78,0,0,0-1.59,1.8,23.64,23.64,0,0,1-1.71,2.12c-.48.44-1.88,1.76-2.86,1.35-.38-.17-.57-.56-.94-1.35-.29-.63-.73-1.55-.41-1.88s1,.38,1.88.21,1-.82,2.41-2.29a21.31,21.31,0,0,1,1.59-1.47,17.33,17.33,0,0,1,3.27-2C915.25,380.85,917.92,379.27,919.52,378.29Z"/><path class="cls-67" d="M842.84,353a3.56,3.56,0,0,0,1,2.82c.6.72,1.64,1.51,2.09,1.24.24-.15.18-.49.25-1a7.37,7.37,0,0,1,1.11-2.58c.76-1.38.93-1.42,1.8-2.87,1.24-2.07,1.24-2.58,2.13-3.24a3.65,3.65,0,0,1,1.93-.86c1-.08,1.38.36,2.17.08.51-.18,1.13-.64,1.11-1.11s-1-.59-1.39-1.56c-.24-.53-.09-.8-.37-1s-.66-.16-1.64.08a19.92,19.92,0,0,0-2.09.57,9.09,9.09,0,0,0-2.46,1.11,7.1,7.1,0,0,0-1.85,2.63c-1,2-.73,2.08-1.43,3.07C844.07,351.9,843.09,351.8,842.84,353Z"/><path class="cls-68" d="M872.25,353.17a1.42,1.42,0,0,0-1,1.4c0,.45.4.73.84,1.07,1.77,1.38,2.66,2.08,2.83,2.17a12.58,12.58,0,0,0,3.43,1.09,17.45,17.45,0,0,0,4.63.6c.39,0,.09,0,4.1-.56a11.12,11.12,0,0,0,2.9-.64c1-.4,2.34-1.13,2.23-1.59,0-.12-.11-.12-.53-.4-.68-.47-.72-.66-1.2-.94a2.45,2.45,0,0,0-1.1-.4c-.66,0-1,.41-1.73.8a7.33,7.33,0,0,1-2.07.54,25.28,25.28,0,0,1-3.86.33,13.81,13.81,0,0,1-4.3-.2,5.07,5.07,0,0,1-2.23-1.17,11.1,11.1,0,0,0-1.4-1.5C873.24,353.39,872.78,353.05,872.25,353.17Z"/><path class="cls-69" d="M855,422c-.16.28-.46.81-.27,1.21s.75.39,1.47.57a9.76,9.76,0,0,1,2.25,1.1,27.15,27.15,0,0,0,3.92,1.62,34.53,34.53,0,0,0,3.92.79c2.21.44,2.31.6,5.12,1.25a37.35,37.35,0,0,0,5.39,1.05c2.41.15,2.53-.34,5.75-.37,2.54,0,2.56.27,5.64.31,1.47,0,1.42,0,5.6-.21,3-.11,3.24-.08,6-.2,7.1-.31,4.91-.46,5.65-.42,1,.05,2.73.2,3.55-.68a1.75,1.75,0,0,0,.47-.94,1.32,1.32,0,0,0-.36-1.21c-.38-.25-.86,0-1.62.27-.27.07-1,.15-2.57.31-2,.21-3.71.33-4.18.36-5.63.42-5.18.4-5.59.42-2.11.1-3.64.09-6.69.06-2.22,0-3.89-.08-4.92-.11-2.21-.07-3.79-.12-5.91-.26a50.27,50.27,0,0,1-5.33-.52c-2.67-.47-2.42-.75-5-1.15s-3.1-.19-5.07-.79a21.42,21.42,0,0,1-2.82-1.1,8.08,8.08,0,0,1-2.3-1.25c-.54-.53-.74-1-1.17-1S855.08,421.74,855,422Z"/><path class="cls-70" d="M856.43,436.09c-.5.42-.22,1.07,0,5.48a23.15,23.15,0,0,1,0,4.39,21.18,21.18,0,0,1-.91,3.84c-.85,2.83-1.29,3.47-1.65,4.75a14.23,14.23,0,0,0,.18,7.13c1.06,5.15,1.6,10.38,2.56,15.54,1,5.35.48,3.68,2.38,15.54,1.26,7.87,1.89,11.81,2.38,14.08,1.25,5.88,2.16,8.55,2.56,13.89,0,.61.09,2.73.18,6.95.17,8,.26,12,.18,13-.51,7.05-2.25,11.17-1.1,11.7.81.37,2.52-1.25,3.3-2.19.93-1.14.69-1.52,1.64-2.75a9.75,9.75,0,0,1,3.47-2.74,10.12,10.12,0,0,1,3.84-.91c2-.11,2.44.38,3.29,0,1.45-.66,1.77-2.81,2-4.39.52-3.25,1.71-6.41,1.83-9.69.15-4.17,1.2-11.61,3.29-26.51.31-2.19,2.22-10.23,6-26.32,1-4.11,4.3-17.8,9.69-23,1.31-1.28,2.56-2.64,3.89-3.89,3.28-3.09,4.44-3.72,5.13-5.66a10.51,10.51,0,0,0,.32-4.71c-.14-1.83-.27-3.59-1.36-4.19-.89-.49-1.93.07-3.14.52-1.49.56-1.56.33-7.65,1.05-5.63.66-9.47,1.12-13.61,1.89-9.37,1.73-9.79,3.13-13.61,2.4a43.83,43.83,0,0,1-8.91-3C859.31,436.68,857.35,435.33,856.43,436.09Z"/><path class="cls-71" d="M856.77,434.43c.45-.65,1.29-1.43,6.07-2.17a58,58,0,0,1,10.42-.64c3.4.09,3.65.26,9.88.64a89,89,0,0,0,9.15.36A43.28,43.28,0,0,0,904.07,430c1.71-.73,3.91-1.86,4.89-1,.38.33.53,1.13.82,2.71a12.18,12.18,0,0,1,.27,2.36,9.18,9.18,0,0,1-.45,3c-1,2.2-6.08,1.61-11.15,2-6.09.46-5.16,1.8-14,3.27-6.87,1.13-10.3,1.69-13.14.9-3.5-1-6.39-3-10.15-1.9-1.13.33-1.89.82-2.81.45C856.3,441,855.2,436.75,856.77,434.43Z"/><path class="cls-72" d="M863.45,327.27c-.71-2-1.06-3-.92-4s.65-1.75,1.67-3.35c1.33-2.07,2.13-2.49,2.72-2.66a3.18,3.18,0,0,1,1-.12c1.92,0,3.86-.11,5.78.06.2,0,2.72.09,7.75.23,2.74.08,3.94.1,5.33.12a18.91,18.91,0,0,0,4.05,0,1.59,1.59,0,0,1,1,.05,1.63,1.63,0,0,1,.75.7,3.84,3.84,0,0,1,.41,2.37c-.27,3.5,0,2.81-.23,3.93a14.23,14.23,0,0,1-1.8,5.21c-1.74,2.75-4.46,3.79-7.4,4.92-2.14.82-4.15,1.09-8.16,1.62-4.81.64-6.14.32-7.17-.41-.69-.48-1.19-1.32-2.2-3A28.89,28.89,0,0,1,863.45,327.27Z"/><path class="cls-73" d="M863.16,323.56c-.47,0,.13,3-1,7.23-.42,1.55-1.13,3.49-.17,4.63.14.18.14.11.63.52a17.5,17.5,0,0,1,2.49,2.78c.58.72,1.11,1.39,1.45,1.79a14.14,14.14,0,0,0,4.05,3.65c1.35.7,2.83.74,5.78.81a22.28,22.28,0,0,0,5.44-.23,13.85,13.85,0,0,0,7.58-4.63c1.06-1.37.66-1.52,2.14-3.53,1.14-1.55,2.09-2.42,2.43-4.11,0-.19.07-.69.12-1.68a33.19,33.19,0,0,0,0-4.33,6.49,6.49,0,0,0-.75-2.78c-.44-.77-.69-.76-.76-.75-.3,0-.38.61-.69,1.33a9.75,9.75,0,0,1-1.22,1.79,15,15,0,0,1-4.22,3.18c-4.23,2.35-6.37,3.53-7.12,3.71a20.15,20.15,0,0,1-5.49.34c-2.37,0-3.57-.09-4.86-.69a8.92,8.92,0,0,1-3.76-3.65C863.42,326.08,863.59,323.54,863.16,323.56Z"/><path class="cls-74" d="M864.9,318.07c-.14.23-.37.78.17,2.14a9.16,9.16,0,0,0,1.79,2.72,13.25,13.25,0,0,0,3.36,2.89,12.43,12.43,0,0,0,3.59,1.33c2,.47,2.77.34,6.36.52,4.89.24,5.09.56,6.37.12a8.58,8.58,0,0,0,4.28-3.42c.83-1.4.34-1.74,1.39-3.41a3.35,3.35,0,0,0,.77-2.38,1.89,1.89,0,0,0-.26-.58,2.37,2.37,0,0,0-1.8-.69c-1.75-.1-2.63-.15-4.22-.11l-3.15-.08-5.2-.19c-2.4-.08-3.63-.13-5-.15-5-.11-3.92.08-4.73,0a4.73,4.73,0,0,0-1.47.05,4.14,4.14,0,0,0-1.63.66A1.84,1.84,0,0,0,864.9,318.07Z"/></g><g id="_LAYER-18_P10_" data-name="&lt;LAYER-18_P10&gt;"><path class="cls-75" d="M482.34,600.2a3.1,3.1,0,0,0-1.91-.32,6.38,6.38,0,0,0-6.36,4,6.35,6.35,0,0,0-.77,2.14,4.46,4.46,0,0,0,.45,3.22c1.05,1.53,3.27,1.51,4,1.5a6.54,6.54,0,0,0,5.41-2.77c1.23-2,.74-4,.31-5.72A2.92,2.92,0,0,0,482.34,600.2Z"/><path class="cls-76" d="M474.21,610.81c.92-1,1.7-.56,3.34-1.61a13.82,13.82,0,0,0,2.32-2.18c1.94-2,1.77-2.29,2.38-2.58,1.33-.62,3,.31,6.3,2.19,4,2.26,4.41,3.39,4.57,3.92a3.91,3.91,0,0,1-.32,3.09c-1.14,1.69-3.83,1.61-5.79,1.54-2.77-.09-2.53-.8-5.4-.9-1.14,0-2.58,0-5.6-.06-1.38-.05-2.15-.09-2.51-.64C473,612.85,473.51,611.58,474.21,610.81Z"/><path class="cls-77" d="M524.07,282.25c2.21-2.35,5.23-2.82,8.07-3.26,2-.3,1.76,0,4.45-.34a50.61,50.61,0,0,0,7.38-1.54c1.6-.43,3.13-.92,6.18-1.89,4.71-1.5,3.57-1.24,6.69-2.23,5-1.59,6.95-2,7.54-3.6a3.42,3.42,0,0,0,0-2.06A79.57,79.57,0,0,0,561,256.52c-1.88-4.72-.9-4.34-2.91-9.43-.83-2.09-1.81-4-3.78-7.89a105.15,105.15,0,0,0-5.14-9.44,48.06,48.06,0,0,0-4.81-6.69c-2.63-3-3.53-3.11-4.8-5.31-.31-.55-.6-1.15-2.06-7.21s-1.73-7.87-1.88-8.92c-.26-1.81-.07-1-.52-4.8-.4-3.41-.62-4.6-.17-4.8s.9.56,3.26,2.74a17.25,17.25,0,0,0,3.09,2.57c2,.95,3.11.34,3.94,1.38.58.72.32,1.4.52,2.74.29,2,1.18,2.72,2.23,4.63,2.72,4.95.88,7.45,3.6,9.95a12.13,12.13,0,0,1,2.23,2.23,10.66,10.66,0,0,1,1.54,3.26c.91,2.82,3,4.12,5.32,6.69,1.71,1.86,2,2.67,5.66,8.75,4.53,7.52,3.87,5.94,8.58,13.72,7.36,12.17,9.76,17.36,7.89,20.41a25.69,25.69,0,0,1-1.89,2.4,65.58,65.58,0,0,1-4.63,5c-3.53,3.35-4.7,3.24-8.41,6.35s-3.28,3.87-6.51,6.69c-3.08,2.68-5.71,4-10.3,6.17-7.29,3.53-11,5.28-15.78,4.63a14.33,14.33,0,0,1-6.69-2.57,15.13,15.13,0,0,1-4.11-4.8c-1.57-2.57-3.1-5.08-2.58-8.24A8.78,8.78,0,0,1,524.07,282.25Z"/><path class="cls-78" d="M435.18,352.43c-1.46,1.35-1.1,3.24-1.45,6.36-.45,4.07-1.47,4.6-3,10a61.17,61.17,0,0,0-2.17,12c-1.07,12,2.11,17.66-.14,22.58a15,15,0,0,0-1.16,5.94,4.72,4.72,0,0,0,.58,2.46c.33.55.8,1,3,2.17s3.52,1.8,4.34,1.59a4.19,4.19,0,0,0,2.46-2.46c.55-1.3.12-2,.29-3.76s.7-2.22,1.45-4.49c.55-1.7.54-2.32,1.15-6.08,0,0,0-.23,1.31-7.09,1.84-10,4.16-11,4.63-17.8.24-3.48-.47-6.86-1.88-13.61-1.24-5.89-2.18-7.73-3.91-8.54A5.26,5.26,0,0,0,435.18,352.43Z"/><path class="cls-79" d="M428.22,407.81c-.57.2-.5.4-2.69,3s-2.47,2.66-2.93,3.67a16.56,16.56,0,0,0-1.08,3.76,8.34,8.34,0,0,1-.69,2.69,6.36,6.36,0,0,0-.88,1.81,3.25,3.25,0,0,0-.05,1.37,3.73,3.73,0,0,0,1.47,2,9.11,9.11,0,0,0,2.84,1.52,27.35,27.35,0,0,0,4,1c3.33.71,4.22.9,5.14.35a4.34,4.34,0,0,0,1-.88,5.5,5.5,0,0,0,1-2.35c.3-1.11.72-2.19,1.08-3.28.59-1.81.78-2,1.32-3.52a19.25,19.25,0,0,0,1.32-5c.19-2.36-.34-5.82-1.91-6.27-1-.28-1.34,1-3.13,1.28C431.43,409.45,430.2,407.14,428.22,407.81Z"/><path class="cls-80" d="M421.47,423c-.76-.16-1.82,1.1-2.2,2.3-.2.61,0,.61.1,3.33.08,1.71,0,2.23.49,2.78,0,0,.43.36,1.27,1a3.71,3.71,0,0,0,1.17.78,2.1,2.1,0,0,0,1.57-.34,2.55,2.55,0,0,0,1-1.42c.15-.62,0-1.11-.59-2.44-.75-1.77-1-2.18-1.42-3.18C422,423.68,422,423.08,421.47,423Z"/><path class="cls-81" d="M423.28,423.76c-1.26.18-2.19,2.61-1.56,4.26a3.36,3.36,0,0,0,.78,1.12c2.55,2.94,3,4.66,3.86,4.55.63-.07,1.13-1,1.27-1.66.45-2.09-2.15-3.12-2.29-5.92a2.66,2.66,0,0,0-.44-1.52A1.93,1.93,0,0,0,423.28,423.76Z"/><path class="cls-82" d="M424.75,426.84c-.44,1.25.47,1.79,1.12,4.41a21.32,21.32,0,0,0,1.18,4.3c.18.4.5,1.06,1.12,1.23a2,2,0,0,0,1.23-.2,4.45,4.45,0,0,0,1.37-1c1.18-1.12,1.78-1.68,1.66-2.05s-.72-.26-1.37-.79c-.28-.22-.55-.55-1-1.95s-.42-2-.88-3.48-.71-1.73-1-1.9a2.33,2.33,0,0,0-2-.15A2.69,2.69,0,0,0,424.75,426.84Z"/><path class="cls-83" d="M428.47,427.33c-.58,1.11.2,2.61,1.76,5.63a3.73,3.73,0,0,0,.83,1.12,4.16,4.16,0,0,0,2.05,1,3.37,3.37,0,0,0,2.6-.19,2.83,2.83,0,0,0,1.12-1.47,3.09,3.09,0,0,0,.1-1.91c-.07-.27-.23-.83-.54-.88s-.35.22-1,.73-.72.6-.88.54-.17-.8-.29-1.76a5.76,5.76,0,0,0-.88-2.59A3.29,3.29,0,0,0,431,426,2.78,2.78,0,0,0,428.47,427.33Z"/><path class="cls-84" d="M467.42,290.8a7,7,0,0,0-.28-2.11c-.29-1.38-.44-2.07-.73-2.34a3.14,3.14,0,0,0-2.66-.39,7.14,7.14,0,0,0-1.95.84c-1.05.54-1.57.81-2.5,1.33-1.48.82-1.39.69-3.89,2-2.75,1.44-2.42,1.37-3.45,1.84-2.2,1-2.48.75-4.11,1.61a15.56,15.56,0,0,0-3.28,2.33,22.43,22.43,0,0,0-3.11,3.62c-.35.45-1,1.39-2.34,3.28-.1.13-.32.45-.61.88-1.64,2.45-1.61,2.94-1.56,3.17.14.65.8,1,1.28,1.28,2.59,1.4,5.68.46,6.23.28,2.46-.79,3.14-1.92,5.89-3.95,4.62-3.41,5.2-2.09,9.45-5.39,3.76-2.92,3.37-4,6.11-6.17A3.67,3.67,0,0,0,467.42,290.8Z"/><path class="cls-85" d="M464.52,289.63a3.21,3.21,0,0,0-1.11-1.78c-1-.86-2-.89-4.89-1.22-2.6-.29-3.91-.44-4.39-.56-2.3-.55-3.34-1.29-4.56-.72a2.68,2.68,0,0,0-1.28,1.28c-.33.8,0,1.41.28,3.33.05.4.09.88.17,1.84.29,3.75-.31,4.56.28,5.17s2,0,6.11-1c4.41-1.07,5.22-.79,6.78-2C462.27,293.76,464.92,291.8,464.52,289.63Z"/><path class="cls-86" d="M471.28,289.72c.38-1.49,4.49-.8,5.6-3a13.86,13.86,0,0,0,.15-2.05c.3-6.39-.17-4.47,0-6.22a2.68,2.68,0,0,0-.23-1.66c-.22-.38-.46-.5-1-1a15.51,15.51,0,0,1-1.34-1.42,7.25,7.25,0,0,1-1.34-2.21c-.36-1-.09-1.19-.39-2.75-.18-.92-.3-1-.71-2.45-.26-.91-.23-.94-.79-3.31-.6-2.56-.67-2.68-.94-4s-.42-2.36-.48-2.76c-.13-1-.19-1.73-.23-2.29-.08-1-.16-2-.16-3.23,0-1.05.11-2,.31-4,.24-2.19.41-3.22.48-3.62a8.94,8.94,0,0,1,.79-3.07c.76-1.12,2-1.4,4.09-1.82,3.09-.62,4.63-.93,7.09-1.34,1.56-.25,3.54-.61,7.49-1.34a33.56,33.56,0,0,1,5.44-.78,12.72,12.72,0,0,1,5.2.47c1,.35,2.44,1.63,5.36,4.18,1.59,1.39,2.38,2.16,2.6,3.38a10,10,0,0,1-.16,2.29c-.23,2.24-.34,3.35-.4,3.94a35.26,35.26,0,0,1-.31,3.62,24.67,24.67,0,0,1-.95,3.08c-.56,1.73-.91,3.11-1.41,5-.8,3.07-.75,3.36-1.27,4.18a5.55,5.55,0,0,0-.94,1.89c-.19.78,0,1-.16,2.12a9.66,9.66,0,0,1-.55,2.21,10.53,10.53,0,0,1-1,2c-.53.82-.65.81-1.42,1.89a17.19,17.19,0,0,0-1.34,2.13,7,7,0,0,0-.79,1.89,6.05,6.05,0,0,0,0,2.36c.06.32.22.85.55,1.9a16.05,16.05,0,0,1,.55,1.73c.12.84-.3,1.63-1.89,3.47a24.18,24.18,0,0,1-4.25,4.25,12.2,12.2,0,0,1-4.18,2.29,13.65,13.65,0,0,1-5,.15,20.64,20.64,0,0,1-6.31-1.1,11.22,11.22,0,0,1-4.65-3C471.64,290.85,471.14,290.29,471.28,289.72Z"/><path class="cls-87" d="M468.16,255.91c-.5.18-.66.9-.67,1-.09.43.05.68.39,1.63.41,1.15.28,1,.62,1.91.43,1.11.55,1,.73,1.68a8.82,8.82,0,0,1,.17,2.25c0,1.45,0,2.65,0,2.65,0,1.06,0,1.45.28,1.79a1.88,1.88,0,0,0,1.18.51,1.69,1.69,0,0,0,.79-.11c.85-.41.88-1.94.9-2.59a12.87,12.87,0,0,0-.51-3.09c-.36-1.61-.39-1.54-.67-2.81-.47-2.1-.39-2.3-.73-2.92C470.06,256.73,468.92,255.64,468.16,255.91Z"/><path class="cls-88" d="M503.91,267.44a1.91,1.91,0,0,0,.51,1.23,1.61,1.61,0,0,0,1,.4,1.78,1.78,0,0,0,1.18-.4c.3-.28.44-.67.5-1.8.1-1.56-.1-1.77,0-2.86a9.1,9.1,0,0,1,.51-2.25,22.33,22.33,0,0,1,1.07-2.25c.92-2,.9-2.65.84-3,0-.09-.2-1.22-.79-1.35-.35-.07-.7.26-.9.45a14.48,14.48,0,0,0-2.64,3,12.84,12.84,0,0,0-1.63,5.56C503.5,264.84,503.57,264.4,503.91,267.44Z"/><path class="cls-89" d="M444.22,522.56c-1,1.94-.34,5,1.06,11,.6,2.6,1,3.45,1.05,5.49.09,3.33-.89,4.64,0,5.7s2.16.57,6.55.43c4.72-.16,4.39.24,7.18,0,3.58-.32,4.72-1,8.65-1.9a61.71,61.71,0,0,1,9.92-1.27c9.75-.3,14.82,3.44,16.47,1.27,1-1.39-1-2.88-.84-7.18.18-5.19,3.26-6.54,2.53-9.5-.91-3.67-6.53-5.26-10.34-6.34-2.69-.76-4.51-.92-13.94-1.26-10.33-.38-13-.35-16.47,0C449.07,519.66,445.55,520.06,444.22,522.56Z"/><path class="cls-90" d="M469.58,531.23c-1,1.95-.34,5,1.06,11,.6,2.6,1,3.45,1.05,5.49.09,3.33-.89,4.64,0,5.7s2.16.57,6.55.42c4.72-.16,4.39.25,7.17,0,3.59-.31,4.73-1,8.66-1.9a61,61,0,0,1,9.92-1.26c9.75-.3,14.82,3.44,16.47,1.26,1-1.38-1-2.87-.84-7.17.18-5.19,3.26-6.54,2.53-9.5-.91-3.67-6.53-5.26-10.35-6.34-2.68-.76-4.5-.92-13.93-1.26-10.33-.38-13-.35-16.47,0C474.43,528.34,470.91,528.74,469.58,531.23Z"/><path class="cls-91" d="M468.18,531.19c-.67,2.66-.4,4.7.75,10.78,1.19,6.3,1.78,9.45,2.48,12.27,1.2,4.9,1.44,5.08,4.21,15,3.09,11.07,1.86,7.49,3.47,13a72.4,72.4,0,0,1,2.23,9.91,26.19,26.19,0,0,1,.37,5.2c-.09,2.18-.42,2.4-.62,5.46-.16,2.45.06,2.23-.12,4.71-.15,2-.31,2.45,0,3.22.51,1.26,1.71,1.83,3.34,2.6a16.73,16.73,0,0,0,6.82,1.49c2,0,3.07,0,3.72-.62s.42-1.75.37-5.45c0-1.2,0-3,.12-5.21.21-2.74.51-3.48.25-5.33a16.67,16.67,0,0,0-.74-3,21.42,21.42,0,0,0-1.37-3c-1-2.08-.73-4-.62-6.07.19-3.34-.38-6.69-.49-10-.14-4.14-.34-9.21-.5-12.14-.52-9.52-1.34-9.91-1.61-16-.62-14.14,3.41-21.79-.12-24-.93-.59-1.18,0-5.83,0-7.55.07-9.09-1.38-11.65,0C469.59,525.65,468.64,529.4,468.18,531.19Z"/><path class="cls-92" d="M497.45,525.62c-1.55,1-.59,3.58-.76,9.07s-1.24,5.86-1.26,11.72a52.75,52.75,0,0,0,.51,7.3,44.56,44.56,0,0,0,1.64,8.19,29.83,29.83,0,0,1,1.38,5,12.28,12.28,0,0,1,.13,4.41c-.27,1.49-.69,1.84-.88,3.4a12.79,12.79,0,0,0,.12,3.4c.59,5.43,0,5.88.76,6.81.53.67,1.22.93,6.3,1.38,7.29.65,8.48.35,9.07-.5s.38-1.92.12-3.4c-.39-2.29-1.24-2.43-1.63-4.54s.33-2.54-.13-4.41a9.35,9.35,0,0,0-2-3.53c-1.9-2.8-.71-6.12,0-11,1-6.49-.42-5.51.38-13.22,1-9.62,3.2-11.45,1.39-14.37-1.38-2.22-4.45-3.24-10.58-5.29C499.08,525.15,498.15,525.15,497.45,525.62Z"/><path class="cls-93" d="M499.27,588c-1.6-1.86-1.44-4.27-1.33-5.93s.22-3.32,1.48-4.29c.84-.64,1.78-.63,3.36-.62a11.25,11.25,0,0,1,5.3,1.09c.86.44,1.2.78,4.37,4.14s3.84,4.08,3.67,4.83c-.26,1.2-2,1.73-4.29,2.42a14.8,14.8,0,0,1-8.43.47C501.8,589.71,500.38,589.33,499.27,588Z"/><path class="cls-94" d="M479.91,612.21c.16-1,1.52-1.66,4.22-3,4.87-2.49,6.34-2.3,6.94-2.18a5.78,5.78,0,0,1,2.81,1.4c2.05,1.93,2.61,5.58,1.09,7.26-.22.25-.7.68-3.2,1.09-3.62.59-6.06,1-8.5-.31C481.89,615.69,479.63,613.93,479.91,612.21Z"/><path class="cls-95" d="M439.86,309.71c-.5-1.09.32-2.61,2-5.66a37.33,37.33,0,0,1,5.23-7.07,11.78,11.78,0,0,1,2.26-2.12,11.59,11.59,0,0,1,3.26-1.56c2.15-.68,2.88-.43,6.08-.85a27.09,27.09,0,0,0,7.35-1.69,24.83,24.83,0,0,1,2.55-1.13,11.52,11.52,0,0,1,6.5.14,15.09,15.09,0,0,1,4.67,2.4c3,2.08,5.59,3.86,5.66,5.94.07,2.43-3.38,3.28-7.92,6.93-4.93,4-3.94,5.44-11.32,13.72-1.7,1.9-8.93,9.88-10.6,8.76-.6-.39.06-1.57-.29-4.66a13.89,13.89,0,0,0-1.55-5.52c-1.59-2.73-4.27-3.93-6.22-4.8C443.09,310.56,440.64,311.4,439.86,309.71Z"/><path class="cls-96" d="M450.89,294c2.24.64,2.81,5.55,3.82,14.35,1.54,13.42-.5,16.48-1.56,17.65-.33.37-1.73,1.91-3,1.48-1.82-.62-1.47-4.87-3-8.57-2.38-5.92-8.46-4.39-9.19-8.25-.42-2.2,1.43-4.61,5.12-9.41C447.12,296.1,449.11,293.51,450.89,294Z"/><path class="cls-97" d="M519.53,342.24c.53,0,.38,4,2.25,10.14.88,2.89,1.46,3.79,1.33,5.75-.11,1.7-.66,2.92,0,4.39.47,1,1.12,1.27,1.86,2.06,1.68,1.76,1.54,3.92,2,6.85.5,3.27,1,2.7,2.66,8.63,0,0,1.18,4.21,2.12,9.46,2,11.15-.61,16,.39,31.94.36,5.69.82,7.18.78,12.46,0,6-.68,8.48-1.17,14.47-.92,11.32.67,10.85-.19,19.09-1,10.06-3.45,11.09-4.67,21.7-1,8.26.55,7.13-.2,16.07-1.42,16.91-6.66,18.94-5.06,29.94.57,4,2,8.86,0,10.25-.93.65-2.2.27-4.48-.4-4.68-1.38-4.91-3.19-8.18-3.62-2.55-.33-3.36.65-5.84-.2a7.83,7.83,0,0,1-3.31-2c-2.18-2.51-1-6.78.39-12.66,0,0,.24-1,3.11-13.86.46-2.05.73-3.51,2.92-20.3,1.35-10.28,2-15.43,2.15-16.87.92-10.64.13-11.92,1-21.5.74-8.51,1.32-7.11,2.73-19.09,1.69-14.49,1.46-21.78,1.36-24.12a113.91,113.91,0,0,0-1.17-12.25c-1.47-9.77-2.21-14.65-4.93-20.07-2.64-5.26-5.86-8.64-4.48-11.18.81-1.5,3.13-2.52,3.75-2.8,2-.86,2.73-.48,4.27-1.18,1.94-.88,2.94-2.49,4.07-4.3.53-.86,2-3.43,3.23-9C519.21,345.11,519.08,342.26,519.53,342.24Z"/><path class="cls-98" d="M501.84,287.29c.18-.48,2.18-.6,6.18-.83,3.1-.18,4.26-.14,5.36-1.07.71-.61.94-1.25,1.9-1.55,1.12-.35,1.87.19,2.5-.35s.18-1,.71-1.67,1.31-.62,2.5-.83a26.92,26.92,0,0,0,3.45-1.07c1.22-.42,2-.76,4.75-1.79,1.51-.55,1.95-.7,2.38-.47.92.47.89,2.1.95,3.45.13,2.62,1.1,5.14,1.55,7.73,1.51,8.73,1.47,8.23,1.54,8.92.64,5.63-.06,5.76.84,8.56.52,1.65,1.53,4,.83,4.52-.42.3-1.1-.3-1.9.12s-.58,1.08-1.19,1.31c-.83.3-1.43-.88-2.62-.72a2.2,2.2,0,0,0-1.54,1.07c-.5.9.17,1.47-.12,2.62-.19.7-.8,1.27-2,2.38s-2,1.84-2.49,1.9c-2.11.27-4.37-4.62-5.24-6.54-3.23-7.16-1.64-8.78-4.28-12.84-1.44-2.23-3.54-3.9-7.73-7.26C504.2,289.73,501.49,288.22,501.84,287.29Z"/><path class="cls-99" d="M501.36,285.75c2.39-1.11,5.29,1.43,10.71,1.9a4.48,4.48,0,0,1,2.61,1,4.7,4.7,0,0,1,1.43,2.62c.68,2.68,1.75,2.59,4.88,8.2a69.48,69.48,0,0,1,3.21,6.66c1.67,4,2.51,6,2.5,7.85,0,3.11-1.43,3.62-2,8.21a46.75,46.75,0,0,0-.12,5.35c-.14,3.93-.88,4.62-2.32,11.39-1.88,8.8-.77,8.31-2.19,11.72a15.61,15.61,0,0,0-1.58,6.38,8.55,8.55,0,0,0,.67,4c.55,1.16,1.13,1.52,1.06,2.26-.09,1-1.3,1.55-3.05,2.52-4.84,2.69-4.95,3.81-6.91,3.86a6.84,6.84,0,0,1-4.38-1.73c-3.75-3.19-2.51-9.58-2.13-17.13.34-6.67-.3-12.41-1.59-23.91-1.11-9.9-2.1-11.27-2.92-21.24C497.77,288.28,500.22,286.27,501.36,285.75Z"/><path class="cls-100" d="M465.91,390.55c-3.84,3.46-1.29,11.29-.14,17.87.49,2.84.34,3.22-3,33.12-3.65,32.26-3.72,34-3.19,37.82,1.86,13.29,5.73,14.56,6,26.05,0,2.11,0,6.42,2.91,9.15,2.2,2.06,6.1,3.23,9,1.94,3.88-1.73,4.24-7.06,6.51-19,1.92-10.12-.24,3.72,4.16-19,2.92-15.1,4.38-22.66,5.68-31.31,1.37-9.2,2.35-17.58,2.91-27,.83-14.08.13-20.75-3.88-26.46-1.34-1.9-4-5.56-8.45-6.66-2.52-.61-5.24,0-10.67,1.11C469.18,389.14,466.94,389.62,465.91,390.55Z"/><path class="cls-101" d="M486.56,390.11c-.57,3.45,1.16,5.28,2.54,9.93.89,3,1.18,6.74,1,14.14a185.19,185.19,0,0,1-2.74,28.7c-10.63,54.8-5,48.42-11.4,69.34,0,0-6.57,21.45-2.75,23.41a7,7,0,0,0,2.54.44c1.55,0,2-.49,4.43-1.11a20.6,20.6,0,0,1,4-.66,16.59,16.59,0,0,1,3.59.22c8.56,1.39,12.84,2,14.36.44,1.19-1.26.44-3,.21-6.84-.34-5.57,1-6.51,3.59-19.88.74-3.78,1.6-8.18,2.32-13.91.67-5.32.54-6.37,1.27-15.23.81-9.85,1.69-17.26,1.9-19,1.1-9.22,1.38-8.9,2.32-17,1-8.51,1.4-15,1.69-19.65.5-8.18.62-13.89.63-18.33,0-15.79-1.35-18.75-3.38-20.53-1.81-1.6-4.09-2-8.65-2.87-4.75-.89-7.86-1.47-11.19.22A11.86,11.86,0,0,0,486.56,390.11Z"/><path class="cls-102" d="M498.1,384.66c.25.23.62.51,3.64,1.34,2.62.72,3,.7,3.73,1.24.9.7.65,1.06,1.81,2.49a8.86,8.86,0,0,0,3.73,3,5.75,5.75,0,0,0,3.25.38,8.16,8.16,0,0,0,2.77-1.43c3-1.88,2.72-1.5,3.35-2s3.43-2.82,3-5.25a5.37,5.37,0,0,0-1.15-2.11,11.55,11.55,0,0,0-2-2.1,22,22,0,0,0-3.35-2.29c-1.82-1.09-2.4-1.31-3.44-1.92-3.43-2-3.34-3.1-6.31-4.78-2.22-1.25-3.62-2-5.16-1.62-2.26.62-3.26,3.43-4.49,6.88a9.82,9.82,0,0,0-.77,4.69A5.42,5.42,0,0,0,498.1,384.66Z"/><path class="cls-103" d="M513.59,392a4.08,4.08,0,0,0,.76,3c.61,1.11,1.61,2.38,5.74,5.06,3.1,2,3.48,1.91,5,3.25a24.85,24.85,0,0,1,3.25,3.63c1.21,1.66,1.24,2.13,2.68,3.92a23.4,23.4,0,0,1,1.72,2.2,21.41,21.41,0,0,0,1.43,2.3,14.65,14.65,0,0,0,1.63,1.62,6.25,6.25,0,0,0,1.72,1.34c1.57.43,3.23-1.41,3.34-1.53a5.39,5.39,0,0,0,1.24-3.92c-.1-1.34-.66-2-1.52-3.63-1.25-2.3-1.1-2.72-2.3-5.35a58.07,58.07,0,0,0-4.49-7.65c-4-6.21-5.08-7.58-5.64-8.22-2.9-3.32-5.56-5.21-6.31-4.69-.26.19-.16.58-.67,1.44A5.57,5.57,0,0,1,520,386.1c-1.86,1.72-1.25,1.34-2.58,2.48C514.61,391,513.87,391,513.59,392Z"/><path class="cls-104" d="M536.78,414.33c-.38,1.62-.73,3.12-.14,4.63a4.16,4.16,0,0,0,1.22,1.73,3.31,3.31,0,0,0,1.77.79,3.77,3.77,0,0,0,2.43-.79,7.68,7.68,0,0,0,2-2c.82-1.06.82-1.34,1.55-2.39a33.17,33.17,0,0,1,2.43-2.8,38.52,38.52,0,0,0,2.43-3.28,6.23,6.23,0,0,0,1.17-2.52,2.33,2.33,0,0,0-.14-1.54,2.1,2.1,0,0,0-.8-.8,1.21,1.21,0,0,0-.93-.28c-.38.13-.47.64-.61.61s0-.67-.28-.84-.46,0-.66.14a2.92,2.92,0,0,0-.93.84,11.47,11.47,0,0,1-1.92,1.4,14.28,14.28,0,0,1-1.73,1.08,13.3,13.3,0,0,1-2,.7,16.74,16.74,0,0,0-2.66.93,6.23,6.23,0,0,0-1.87,3.23A10.85,10.85,0,0,0,536.78,414.33Z"/><path class="cls-105" d="M449.31,400.53c-1.43,7.5-2,12.44-2,12.44-1.34,12.6-2,18.9-2.66,29-.6,9.18-1.29,20.07-1.42,34.47-.09,9.15.08,17.16.18,22,.11,5.46.27,11.09.53,19.72,0,0-2,7.54.35,11.55a3.73,3.73,0,0,0,1.17,1.24,3.53,3.53,0,0,0,1.91.48c2.35,0,1.21.53,5.47.6,3.56.05,4.62-.29,8.32-.42,6.07-.2,7,.6,9.28-.55a9.47,9.47,0,0,0,4.16-4.44c.87-2,.83-3.82.14-8-.81-4.87-1.76-8.46-2.08-9.7a104.33,104.33,0,0,1-2.64-15c-.47-4-.54-7.46-.69-14.41-.1-4.91-.23-11.46.14-20.09.29-6.88.78-12.19,1.25-17.32,1-10.7,1.4-11.39,1.66-17.46a153.47,153.47,0,0,0-.28-16.21c-.7-13.87-1.93-16.51-2.91-18.15s-3.66-6.24-9-8c-1.55-.51-2.33-.77-3.33-.55C455,382.12,452.39,384.33,449.31,400.53Z"/><path class="cls-106" d="M435.48,339c.58,1.16,2.29,1.55,3.43,1.52,2.57-.06,3.16-2.22,7-5.22,4-3.11,7.12-3.65,7.05-5.48,0-.9-.78-1-1.56-3.3-.41-1.2-.31-1.47-.76-2.73-.61-1.68-.93-2.56-1.65-2.94-1.54-.8-4.12,1.11-5.49,2.5-1.66,1.69-1.2,2.27-3.12,5.36s-3.57,4.48-4.82,7.89A3.06,3.06,0,0,0,435.48,339Z"/><path class="cls-107" d="M447.51,375.75c-.56.84-.53,1.5-.78,3.76-.39,3.56-.59,3-.78,5.34-.21,2.5-.12,4.81-.22,9.59a6.27,6.27,0,0,1-.42,2.42c-.45,1.11-.89,1.16-1.28,2.2a5.21,5.21,0,0,0-.14,3.06,3.16,3.16,0,0,0,1.35,2.27,3.22,3.22,0,0,0,2.13.07,4.92,4.92,0,0,0,1.78-.64c.92-.6,1.45-1.69,1.84-4a31.67,31.67,0,0,0,.36-5.4,30,30,0,0,1,1.28-6.75c1.55-6.09,2.9-7.25,2.27-10.09-.17-.76-.68-3.08-2.48-3.77S448.49,374.28,447.51,375.75Z"/><path class="cls-108" d="M421.92,306a19,19,0,0,1,7.45-2.28,11.71,11.71,0,0,1,6,.29,13.28,13.28,0,0,1,3.1,1.77,27.91,27.91,0,0,1,4.06,3.47,33.13,33.13,0,0,1,4.35,5.09,15.45,15.45,0,0,1,2.51,4.87,10.76,10.76,0,0,1,.44,3.61,11.14,11.14,0,0,1-1.92,5.53,21.08,21.08,0,0,1-3.46,3.4c-1.06.91-2.26,2-4,3.24-2.39,1.77-2.9,1.84-3.39,2.8-.85,1.67-.1,3-1,3.54-.59.37-1.48,0-3.24-.73a23.91,23.91,0,0,1-2.81-1.41,37.85,37.85,0,0,1-6.27-4.49c-1.84-1.65-1.4-1.6-3.68-3.69s-2.73-2.18-3.84-3.54a12.25,12.25,0,0,1-2.43-4.35,11.78,11.78,0,0,1-.15-5.76C415.09,310.06,421.52,306.2,421.92,306Z"/><path class="cls-109" d="M423.55,336.35c.06.67,1.19,1.08,2,1.36s.78.15,1.51.43,1.53.59,1.83,1.22-.07.8.23,1.55c0,.09.43,1,.94,1s.71-.72.76-.84a3.28,3.28,0,0,0-.52-2.68c-.68-1-1.16-.73-3.1-2.25-1-.8-1.27-1.18-1.88-1.18C424.43,334.94,423.5,335.72,423.55,336.35Z"/><path class="cls-110" d="M434.26,340.59c-.89.68-1.07,1.76-1.36,5.46-.28,3.41-.42,5.12-.38,5.95a28.86,28.86,0,0,0,1.21,6.79A48.92,48.92,0,0,0,437,366c2.3,4.6,3.37,6.05,4.84,7.32a13.09,13.09,0,0,0,2.23,1.62c2.3,1.28,3.59,1,5.46,2.11a12.74,12.74,0,0,1,2.61,2.48c3.19,3.52,3.54,5.09,5.95,7.44a21.85,21.85,0,0,0,3.73,2.86,30.65,30.65,0,0,0,13,5.08c6.71.74,11.7-1.86,18.37-5.33,4.53-2.37,9.1-4.82,11.79-9.93a30,30,0,0,0,2-5.71,85.22,85.22,0,0,0,2.73-13.4c1.09-9.53.84-17.32,1.24-31.87.42-14.83,1-18.89.47-23.71,0,0-1.28-11.14-.78-13a1.3,1.3,0,0,0,0-.76c-.27-.87-1.52-1.18-2-1.32-2.89-.84-6-3.5-8.24-5.41a3.2,3.2,0,0,0-1.25-.69,3.87,3.87,0,0,0-2.57.35,10.06,10.06,0,0,0-2.84,1.73c-9.4,8.82-14.11,13.23-14.76,13.93-2.32,2.49-6.19,6.22-13.94,13.67-6.56,6.32-7,6.58-8.65,8.61-2.29,2.88-4.7,6.53-8.07,9.68-.71.67-2.1,1.91-3.33,3a37.14,37.14,0,0,1-3.56,2.91,15.76,15.76,0,0,1-4.45,2.26C435.22,340.38,434.93,340.07,434.26,340.59Z"/><path class="cls-111" d="M505.7,287.22c-.1-1.78-5-3.84-8.19-2.32-2.18,1-3,3.49-3.28,4.24-3.56,10-19.86,31.27-34.08,41.44-10.18,7.28-12,8.25-12,8.25-3.42,1.81-6.95,3.25-10.23,7a16.39,16.39,0,0,0-3.23,4.85c-2.54,6.25.31,12.57,2.37,17.13,1.86,4.13,3.54,5.72,4.08,6.22a12.18,12.18,0,0,0,7.42,3.46,12.48,12.48,0,0,0,7.73-2.58c4.45-2.95,6.6-7,8.13-10,4.58-8.89,6.61-14.08,9.12-19.5,4.87-10.5,5.62-9,9.82-18.52A177,177,0,0,0,490.51,308c2.46-8.27,2.66-11.77,6.31-15.13C501,289,505.79,289,505.7,287.22Z"/><path class="cls-112" d="M499.25,311.67c-1.43,0,.46,12.32-5.5,29.14-2.09,5.9-8.46,21.69-7.12,28.65a25.93,25.93,0,0,0,2.43,6.47c1,1.79,2.15,3.91,2.91,3.73,1.22-.3.11-6.19.48-14.09a78.61,78.61,0,0,1,2.43-15.21c2.65-11.41,4.77-11.87,6-19.43C502.46,321.08,500.5,311.71,499.25,311.67Z"/><path class="cls-113" d="M473,607.92c-.44.15-.3.84-.88,2a7.72,7.72,0,0,1-1.4,1.93c-1.14,1.27-1.44,1.06-1.76,1.76a5.14,5.14,0,0,0-.09,2.9,13.44,13.44,0,0,0,4.13-.7,6.33,6.33,0,0,0,3.6-3.08,2.24,2.24,0,0,0,.27-1.14c0-.34-.16-.91-2.29-2.72C473.43,607.94,473.18,607.85,473,607.92Z"/><path class="cls-114" d="M469.26,615.73a1.92,1.92,0,0,0-.5,2c.22.42.69.58,1.5.77a15.34,15.34,0,0,0,3.45.5c2.17-.06,1.48.32,6.18.59a52.75,52.75,0,0,0,7.49.05c2.43-.18,1.76-.33,4.36-.55a10.62,10.62,0,0,0,3.27-.73c1.1-.43,1.49-.82,1.5-1.18a2.14,2.14,0,0,0-.41-1,2.91,2.91,0,0,0-.36-.55c-.49-.5-1.58-.21-2.27,0s-1.53.27-3.41.54a10.89,10.89,0,0,1-4.4,0,6.72,6.72,0,0,1-1.69-.59c-1.47-.77-1.61-1.59-3-2.41a5.94,5.94,0,0,0-2.54-.86,6.92,6.92,0,0,0-4,1c-1.24.65-1,.88-2,1.31C470.86,615.42,470,615,469.26,615.73Z"/><path class="cls-115" d="M517.09,583.2c.6-.76,2.32-.55,3-.39a2.63,2.63,0,0,1,1.08.44c.64.48.69,1.08,1.18,2a11.15,11.15,0,0,0,1.23,1.61c1.19,1.56,1.13,2.27,2.07,3.81s1.2,1.19,2.45,2.9,2.46,3.38,2.26,5.43c-.13,1.28-.87,3.3-2.07,3.48s-1.92-1.88-6.52-8.65a68.84,68.84,0,0,1-3.87-7C517.14,585.23,516.53,583.9,517.09,583.2Z"/><path class="cls-116" d="M533,173.36a2.64,2.64,0,0,0,2.62.07c1.29-.89,2.6-.73,3.92-.86.1,0,.21,0,.31,0,1.28-.25,1.57.23,1.91,3.47a59.18,59.18,0,0,1,.2,11.13c-.16,2-.47,2.58-1.25,2.55-1,0-2.06,0-3.1-.12a4.15,4.15,0,0,1-1.26-.69s-.1-.09-.15-.1a4.11,4.11,0,0,0-2.61.32"/><path class="cls-117" d="M496.59,591.89a5.17,5.17,0,0,1-1-2.13,4.81,4.81,0,0,1,.07-1.88,6,6,0,0,1,.58-1.54c.8-1.43,2.7-2.05,4.26-2.59,4.83-1.67,3.8-1.76,5.74-2.19,2.34-.52,6-1.34,9.23.45a13.92,13.92,0,0,1,3.23,2.84c1.93,2,2.26,3,4.45,5.49,1.05,1.19,1.87,2,3,3,2.24,2.16,3.41,3,5.48,5.23a11.71,11.71,0,0,1,2.07,2.84,8,8,0,0,1,.9,3,4,4,0,0,1-.51,2.84,3.06,3.06,0,0,1-1.49,1c-1.36.41-2.67-.37-5.1-1.87-2.66-1.65-4-2.47-4.26-2.65a58.86,58.86,0,0,0-7.94-4.39c-.88-.41-3.32-1.35-8.19-3.22-2.09-.81-4.07-2-6.26-2.46C499.3,593.36,497.65,593.19,496.59,591.89Z"/><path class="cls-118" d="M497.17,594.08a7.24,7.24,0,0,0,2.32,2.39,22.43,22.43,0,0,0,4.07,2.64,6.91,6.91,0,0,1,2.26,1.42,5.84,5.84,0,0,1,1.09,1.81c1,2.27.88,3,1.42,4.26a8.7,8.7,0,0,0,3.3,3.42,15.82,15.82,0,0,0,5.35,2.45,16.57,16.57,0,0,0,6.84.78,19.43,19.43,0,0,0,5-1.42c2.81-1.05,3.45-1.74,3.68-2a5.94,5.94,0,0,0,1.36-3.94,6.7,6.7,0,0,0-1.29-3.48c-.73-1.16-1.23-1.46-3.88-3.88-1.31-1.2-2.49-2.28-3.8-3.61-1.09-1.11-1.81-1.92-2.91-3.16-3.46-3.92-3.71-4.67-5.35-5.62a10.12,10.12,0,0,0-3.94-1.29,13.53,13.53,0,0,0-3.94.45,32.11,32.11,0,0,0-6.84,2,23.32,23.32,0,0,0-3.48,2c-1.11.77-1.42,1.11-1.62,1.55A3.91,3.91,0,0,0,497.17,594.08Z"/><path class="cls-119" d="M494.57,233.15c-.51.78,1.24,3,4.73,7.59a39.82,39.82,0,0,0,3.08,3.62c2.07,2.16,2.42,2,3.3,3.08,1.49,1.81,1.82,4.31,2.42,9.24.46,3.8.29,5,1.42,6.59.38.53,1.75,2.47,3.74,2.42,2.34-.05,3.67-2.79,3.85-3.19a6.34,6.34,0,0,0,.33-4.28c-.54-1.93-1.63-2.11-3.52-4.73a17.11,17.11,0,0,1-2.75-5.28c-.85-2.93.06-3.62-1-6.15a12,12,0,0,0-2.63-3.85,15.57,15.57,0,0,0-4.07-3C500.63,233.74,495.43,231.85,494.57,233.15Z"/><path class="cls-120" d="M500,230.18c-1.55-.21-4.31-.59-5.17.77s.73,3.94,1.87,5.17a9.49,9.49,0,0,0,4.65,2.61c3,.82,3.91-.24,5.66.79s2.34,2.83,2.89,4.37c1,2.82.11,3.39,1,5.89s2.06,2.31,3.57,5.38,1.38,5.39,2.21,5.44,1.35-1.49,1.59-2.32a7.68,7.68,0,0,0-.34-4.65c-.8-2.62-1.46-3.09-2.32-5.27-1.27-3.2-.5-3.9-1.48-6.68a16.24,16.24,0,0,0-4.42-6.46A17.68,17.68,0,0,0,500,230.18Z"/><path class="cls-121" d="M449.88,165.58s54.5-2.3,62.85-4.28,18,3.42,18,3.42a21.88,21.88,0,0,1,4,9.74c.9,5.9,1.61,17,1.61,17v3.49L539,198.5l.72,13.05s.8,7.87-2,9.47l-.09,4.38s.36,4.74-4,6.53c-2.06.84-4.36,1.8-6.22,2.58a14.17,14.17,0,0,1-7.53,1l-7.23-1.06a4.23,4.23,0,0,0-.94,0l-4,.27a11,11,0,0,1-4.47-.64l-5.54-2a7.88,7.88,0,0,0-1.8-.43l-5.81-.72a6.27,6.27,0,0,0-2.4.16l-17.28,4.53-.7.22-10.38,3.78a11.31,11.31,0,0,1-5.59.55l-8.64-1.33a3.54,3.54,0,0,1-2.69-2l-2.28-5a6.06,6.06,0,0,1-.46-1.5c-.88-5.2-5.79-35-4.74-51.41a5.15,5.15,0,0,1,.24-1.23l1.73-5.41a3.26,3.26,0,0,1,.47-.93,8.63,8.63,0,0,1,2.88-2.44,50.72,50.72,0,0,1,6.95-2.66,6.74,6.74,0,0,1,.75-.17Z"/><path class="cls-122" d="M465.55,238a8.43,8.43,0,0,0,.11,2.31,8.83,8.83,0,0,0,.66,1.87,9.46,9.46,0,0,0,.66,1.2c1.07,1.59,3.5,2.51,4.18,1.87.38-.36-.05-1,.44-1.65a2.26,2.26,0,0,1,1.43-.77,7.35,7.35,0,0,1,3.4.11c1.5.41,3.12.16,6.38-.32s2.85-1.19,8.8-3c2.55-.77,3.7-1,5.27-2.09.94-.68,3-2.17,2.86-4.07a4.1,4.1,0,0,0-2-2.75c-1.68-1.14-3.24-.9-6-1.1-3.43-.24-3.43-.78-6.05-1-.93-.07-2.71-.14-11,2-6.86,1.76-8.53,2.56-8.91,4A31.57,31.57,0,0,0,465.55,238Z"/><path class="cls-123" d="M523.91,172.61c0,.59-.2.78,0,1.06.42.59,1.84.27,2.46.14a14.08,14.08,0,0,0,1.59-.53c2.19-.71,3.45,0,3.79-.67s-.27-1.35-.8-2.19-.62-.67-.86-1.2c-.52-1.13.06-1.79-.47-2.45a2,2,0,0,0-1.52-.6c-1,0-1.08.67-2.46,1.33s-2,.37-2.59,1.13a1.84,1.84,0,0,0-.53,1.19C522.5,170.93,523.82,171.29,523.91,172.61Z"/><path class="cls-124" d="M530.72,170.65c-.76.18-.79.86-1.41.94s-.7-.42-1.47-.54a2,2,0,0,0-1.52.31c-.8.69,0,1.93-.74,3.79a15.59,15.59,0,0,1-.8,1.36c-1.07,1.89-1.61,2.84-1.36,3.36.43.89,2.52,1,3.91.36.81-.39.65-.71,1.58-1.18,1.44-.74,2.29-.22,3-1a2.42,2.42,0,0,0,.45-1.75,2.12,2.12,0,0,0-.55-1.29c-.43-.41-.86-.33-.92-.6s.63-.55,1.06-1.32a2,2,0,0,0,0-2.22A1.33,1.33,0,0,0,530.72,170.65Z"/><path class="cls-125" d="M526.18,178c.27-.85,1.94-1.22,3.12-1a4.33,4.33,0,0,1,2.19,1.32,3.88,3.88,0,0,1,1.2,1.73c.19.7,0,1,.26,1.6s.79.71.93,1.19a2.33,2.33,0,0,1-1.92,2.46c-.82,0-1-1-2.46-3C527.43,179.45,525.89,178.87,526.18,178Z"/><path class="cls-126" d="M521.38,174.72a3,3,0,0,1,2.06-1.66,3.8,3.8,0,0,1,2,.13c1.09.36,1.31.95,2,.87s.71-.61,1.33-.67a2.17,2.17,0,0,1,1.6.87c.95,1.13.31,2.23,1.13,2.85.66.51,1.35,0,1.86.53a1.85,1.85,0,0,1-.07,2.2c-.53.63-1.2.27-1.73.86-.14.16-.43.57-.2,2.79.21,2,.54,2.52.2,2.86-.5.49-1.89,0-2.72-.6-1.26-.86-.82-1.86-2.06-3.46-.8-1-1-.63-2.66-2.32a10,10,0,0,1-2.32-3.12A2.94,2.94,0,0,1,521.38,174.72Z"/><path class="cls-127" d="M437.11,182.18a10.39,10.39,0,0,1,1.7-4.57c1.11-1.63,2.6-2.75,5.37-4.06a37.12,37.12,0,0,1,9.81-3.14,166.57,166.57,0,0,1,23.55-1c10.64.12,15.95.17,22-.26,11.36-.81,17-1.22,18.45-1.83.79-.34,5-2.2,6.28-.79.11.12.26.34.66,2a28.15,28.15,0,0,1,.65,3.27c.4,3,3.64,5.68,6.14,10.21a30.84,30.84,0,0,1,3,8.06,48.63,48.63,0,0,1,1.2,9.13c.47,6.26-.08,5.6.34,11.61a82.82,82.82,0,0,1,.07,10.61,10.36,10.36,0,0,1-1.14,4.16,10.91,10.91,0,0,1-2,2.56,13.49,13.49,0,0,1-4,2.55,17,17,0,0,1-10.47,1.81,33.89,33.89,0,0,1-7-1.62c-5.5-1.71-5-2.13-7.9-2.73a46.46,46.46,0,0,0-7.79-.71c-2.25-.1-4-.11-5.17-.1a118.8,118.8,0,0,0-18.75,1.24,61.74,61.74,0,0,0-10.07,2.06c-4.39,1.38-7.89,3.15-13,3a7.51,7.51,0,0,1-4.41-1.24,7.77,7.77,0,0,1-2.76-4.55c-.69-2.81.21-4.32.69-7.86.39-2.86.22-4.85-.13-8.83A98.42,98.42,0,0,0,440.3,200c-1-4.49-1.5-9.1-2.76-13.52A10.8,10.8,0,0,1,437.11,182.18Z"/></g></g></svg>