<svg xmlns="http://www.w3.org/2000/svg" xmlns:xlink="http://www.w3.org/1999/xlink" viewBox="0 0 1920 563.88"><defs><style>.cls-1{fill:#e1cec3;opacity:0.15;}.cls-2{fill:#bca799;}.cls-3{fill:#d8c2b6;}.cls-4{fill:url(#linear-gradient);}.cls-5{fill:url(#linear-gradient-2);}.cls-6{fill:url(#linear-gradient-3);}.cls-7{fill:url(#linear-gradient-4);}.cls-8{fill:url(#linear-gradient-5);}.cls-9{fill:url(#linear-gradient-6);}.cls-10{fill:url(#linear-gradient-7);}.cls-11{fill:url(#linear-gradient-8);}.cls-12{fill:url(#linear-gradient-9);}.cls-13{fill:url(#linear-gradient-10);}.cls-14{fill:url(#linear-gradient-11);}.cls-15{fill:url(#linear-gradient-12);}.cls-16{fill:url(#linear-gradient-13);}.cls-17{fill:url(#linear-gradient-14);}.cls-18{fill:url(#linear-gradient-15);}.cls-19{fill:url(#linear-gradient-16);}.cls-20{fill:url(#linear-gradient-17);}.cls-21{fill:url(#linear-gradient-18);}.cls-22{fill:url(#linear-gradient-19);}.cls-23{fill:url(#linear-gradient-20);}.cls-24{fill:url(#linear-gradient-21);}.cls-25{fill:url(#linear-gradient-22);}.cls-26{fill:url(#linear-gradient-23);}.cls-27{fill:url(#linear-gradient-24);}.cls-28{fill:url(#linear-gradient-25);}.cls-29{fill:url(#linear-gradient-26);}.cls-30{fill:url(#linear-gradient-27);}.cls-31{fill:url(#linear-gradient-28);}.cls-32{fill:url(#linear-gradient-29);}.cls-33{fill:url(#linear-gradient-30);}.cls-34{fill:url(#linear-gradient-31);}.cls-35{fill:url(#linear-gradient-32);}.cls-36{fill:url(#linear-gradient-33);}.cls-37{fill:url(#linear-gradient-34);}.cls-38{fill:url(#linear-gradient-35);}.cls-39{fill:url(#linear-gradient-36);}.cls-40{fill:url(#linear-gradient-37);}.cls-41{fill:url(#linear-gradient-38);}.cls-42{fill:url(#linear-gradient-39);}.cls-43{fill:url(#linear-gradient-40);}.cls-44{fill:url(#linear-gradient-41);}.cls-45{fill:url(#linear-gradient-42);}.cls-46{fill:url(#linear-gradient-43);}.cls-47{fill:url(#linear-gradient-44);}.cls-48{fill:url(#linear-gradient-45);}.cls-49{fill:url(#linear-gradient-46);}.cls-50{fill:url(#linear-gradient-47);}.cls-51{fill:url(#linear-gradient-48);}.cls-52{fill:url(#linear-gradient-49);}.cls-53{fill:url(#linear-gradient-50);}.cls-54{fill:url(#linear-gradient-51);}.cls-55{fill:url(#linear-gradient-52);}.cls-56{fill:url(#linear-gradient-53);}.cls-57{fill:url(#linear-gradient-54);}.cls-58{fill:url(#linear-gradient-55);}.cls-59{fill:url(#linear-gradient-56);}.cls-60{fill:url(#linear-gradient-57);}.cls-61{fill:url(#linear-gradient-58);}.cls-62{fill:url(#linear-gradient-59);}.cls-63{fill:url(#linear-gradient-60);}.cls-64{fill:url(#linear-gradient-61);}.cls-65{fill:url(#linear-gradient-62);}.cls-66{fill:url(#linear-gradient-63);}.cls-67{fill:url(#linear-gradient-64);}.cls-68{fill:url(#linear-gradient-65);}.cls-69{fill:url(#linear-gradient-66);}.cls-70{fill:url(#linear-gradient-67);}.cls-71{fill:url(#linear-gradient-68);}.cls-101,.cls-72,.cls-96,.cls-98,.cls-99{fill:none;stroke-linecap:round;stroke-miterlimit:10;}.cls-72{stroke:url(#linear-gradient-69);}.cls-73{fill:url(#linear-gradient-70);}.cls-74{fill:url(#linear-gradient-71);}.cls-75{fill:url(#linear-gradient-72);}.cls-76{fill:url(#linear-gradient-73);}.cls-77{fill:url(#linear-gradient-74);}.cls-78{fill:url(#linear-gradient-75);}.cls-79{fill:url(#linear-gradient-76);}.cls-80{fill:url(#linear-gradient-77);}.cls-81{fill:url(#linear-gradient-78);}.cls-82{fill:url(#linear-gradient-79);}.cls-83{fill:url(#linear-gradient-80);}.cls-84{fill:url(#linear-gradient-81);}.cls-85{fill:url(#linear-gradient-82);}.cls-86{fill:url(#linear-gradient-83);}.cls-87{fill:url(#linear-gradient-84);}.cls-88{fill:url(#linear-gradient-85);}.cls-89{fill:url(#linear-gradient-86);}.cls-90{fill:url(#linear-gradient-87);}.cls-91{fill:url(#linear-gradient-88);}.cls-92{fill:url(#linear-gradient-89);}.cls-93{fill:url(#linear-gradient-90);}.cls-94{fill:url(#linear-gradient-91);}.cls-95{fill:url(#linear-gradient-92);}.cls-96{stroke:url(#linear-gradient-93);}.cls-97{fill:url(#linear-gradient-94);}.cls-98{stroke:url(#linear-gradient-95);}.cls-99{stroke:url(#linear-gradient-96);}.cls-100{fill:url(#linear-gradient-97);}.cls-101{stroke:url(#linear-gradient-98);}</style><linearGradient id="linear-gradient" x1="492.78" y1="158.55" x2="490.78" y2="117.3" gradientUnits="userSpaceOnUse"><stop offset="0" stop-color="#80634b"/><stop offset="0.41" stop-color="#907256"/></linearGradient><linearGradient id="linear-gradient-2" x1="477.92" y1="176.55" x2="473.59" y2="87.12" xlink:href="#linear-gradient"/><linearGradient id="linear-gradient-3" x1="518.09" y1="196.03" x2="517.5" y2="183.93" xlink:href="#linear-gradient"/><linearGradient id="linear-gradient-4" x1="497.41" y1="336.29" x2="496.79" y2="323.51" xlink:href="#linear-gradient"/><linearGradient id="linear-gradient-5" x1="514.89" y1="150.38" x2="512.47" y2="100.46" xlink:href="#linear-gradient"/><linearGradient id="linear-gradient-6" x1="515.29" y1="149.53" x2="513.03" y2="102.85" gradientUnits="userSpaceOnUse"><stop offset="0.14" stop-color="#80634b"/><stop offset="0.46" stop-color="#907256"/></linearGradient><linearGradient id="linear-gradient-7" x1="510.47" y1="347.6" x2="509.32" y2="323.88" gradientUnits="userSpaceOnUse"><stop offset="0" stop-color="#80634b"/><stop offset="0.32" stop-color="#907256"/></linearGradient><linearGradient id="linear-gradient-8" x1="496.35" y1="350.94" x2="494.36" y2="309.83" xlink:href="#linear-gradient"/><linearGradient id="linear-gradient-9" x1="526.17" y1="344.91" x2="525.47" y2="330.59" gradientUnits="userSpaceOnUse"><stop offset="0.07" stop-color="#80634b"/><stop offset="0.41" stop-color="#907256"/></linearGradient><linearGradient id="linear-gradient-10" x1="524.04" y1="346.84" x2="523.26" y2="330.79" xlink:href="#linear-gradient-9"/><linearGradient id="linear-gradient-11" x1="522.78" y1="349.85" x2="521.8" y2="329.68" gradientUnits="userSpaceOnUse"><stop offset="0.09" stop-color="#80634b"/><stop offset="0.41" stop-color="#907256"/></linearGradient><linearGradient id="linear-gradient-12" x1="518.43" y1="349.63" x2="517.08" y2="321.77" xlink:href="#linear-gradient"/><linearGradient id="linear-gradient-13" x1="552.63" y1="249.74" x2="530.42" y2="208.24" gradientUnits="userSpaceOnUse"><stop offset="0" stop-color="#80634b"/><stop offset="0.58" stop-color="#907256"/></linearGradient><linearGradient id="linear-gradient-14" x1="577.38" y1="254.77" x2="529.76" y2="231.51" gradientUnits="userSpaceOnUse"><stop offset="0.41" stop-color="#80634b"/><stop offset="0.59" stop-color="#876a50"/><stop offset="0.9" stop-color="#907256"/></linearGradient><linearGradient id="linear-gradient-15" x1="529.42" y1="342.22" x2="558.36" y2="183.67" gradientUnits="userSpaceOnUse"><stop offset="0" stop-color="#736357"/><stop offset="0.17" stop-color="#877666"/><stop offset="0.47" stop-color="#a4917c"/><stop offset="0.72" stop-color="#b6a189"/><stop offset="0.91" stop-color="#bca78e"/></linearGradient><linearGradient id="linear-gradient-16" x1="542.14" y1="229.71" x2="547.13" y2="241.61" gradientUnits="userSpaceOnUse"><stop offset="0" stop-color="#80634b"/><stop offset="0.44" stop-color="#907256"/></linearGradient><linearGradient id="linear-gradient-17" x1="543.52" y1="226.85" x2="541.84" y2="192.08" xlink:href="#linear-gradient"/><linearGradient id="linear-gradient-18" x1="533.87" y1="230.95" x2="532.81" y2="209.07" gradientUnits="userSpaceOnUse"><stop offset="0" stop-color="#80634b"/><stop offset="0.76" stop-color="#907256"/></linearGradient><linearGradient id="linear-gradient-19" x1="534" y1="237.3" x2="531.1" y2="177.35" gradientUnits="userSpaceOnUse"><stop offset="0.14" stop-color="#80634b"/><stop offset="0.2" stop-color="#85684f"/><stop offset="0.35" stop-color="#907256"/></linearGradient><linearGradient id="linear-gradient-20" x1="554.32" y1="376.66" x2="542.41" y2="130.61" xlink:href="#linear-gradient"/><linearGradient id="linear-gradient-21" x1="560.96" y1="353.35" x2="559.18" y2="316.51" xlink:href="#linear-gradient"/><linearGradient id="linear-gradient-22" x1="529.07" y1="267.42" x2="528.54" y2="256.28" gradientUnits="userSpaceOnUse"><stop offset="1" stop-color="#80634b"/><stop offset="1" stop-color="#907256"/></linearGradient><linearGradient id="linear-gradient-23" x1="528.23" y1="276.46" x2="527.44" y2="260.13" gradientUnits="userSpaceOnUse"><stop offset="0.12" stop-color="#80634b"/><stop offset="0.97" stop-color="#907256"/></linearGradient><linearGradient id="linear-gradient-24" x1="527.36" y1="279.1" x2="524.94" y2="229.09" gradientUnits="userSpaceOnUse"><stop offset="0" stop-color="#80634b"/><stop offset="0.66" stop-color="#907256"/></linearGradient><linearGradient id="linear-gradient-25" x1="527.16" y1="273.37" x2="524.73" y2="223.36" gradientUnits="userSpaceOnUse"><stop offset="0" stop-color="#80634b"/><stop offset="0.24" stop-color="#907256"/></linearGradient><linearGradient id="linear-gradient-26" x1="565.91" y1="348.93" x2="565.03" y2="330.68" xlink:href="#linear-gradient"/><linearGradient id="linear-gradient-27" x1="563.83" y1="356.43" x2="565.29" y2="327.45" gradientUnits="userSpaceOnUse"><stop offset="0" stop-color="#80634b"/><stop offset="0.47" stop-color="#907256"/></linearGradient><linearGradient id="linear-gradient-28" x1="459.13" y1="156.57" x2="516.95" y2="201.79" gradientUnits="userSpaceOnUse"><stop offset="0.3" stop-color="#b5504a"/><stop offset="0.49" stop-color="#a44642"/><stop offset="0.72" stop-color="#933c39"/></linearGradient><linearGradient id="linear-gradient-29" x1="546.35" y1="226.06" x2="545.95" y2="217.67" xlink:href="#linear-gradient"/><linearGradient id="linear-gradient-30" x1="524.47" y1="159.92" x2="403.82" y2="212.62" xlink:href="#linear-gradient-28"/><linearGradient id="linear-gradient-31" x1="486.02" y1="142.33" x2="507.69" y2="142.33" xlink:href="#linear-gradient-28"/><linearGradient id="linear-gradient-32" x1="528.5" y1="149.45" x2="461.16" y2="242.04" gradientUnits="userSpaceOnUse"><stop offset="0" stop-color="#b5504a"/><stop offset="0.17" stop-color="#ac4b45"/><stop offset="0.44" stop-color="#933c39"/></linearGradient><linearGradient id="linear-gradient-33" x1="485.51" y1="145.94" x2="512.08" y2="145.94" xlink:href="#linear-gradient-28"/><linearGradient id="linear-gradient-34" x1="488.89" y1="157.83" x2="488.25" y2="144.66" xlink:href="#linear-gradient"/><linearGradient id="linear-gradient-35" x1="490.35" y1="240.46" x2="488.63" y2="347.13" gradientUnits="userSpaceOnUse"><stop offset="0.3" stop-color="#b5504a"/><stop offset="0.44" stop-color="#ae4c47"/><stop offset="0.64" stop-color="#9c413e"/><stop offset="0.72" stop-color="#933c39"/></linearGradient><linearGradient id="linear-gradient-36" x1="485.82" y1="229.42" x2="509.86" y2="450.64" gradientUnits="userSpaceOnUse"><stop offset="0.06" stop-color="#b5504a"/><stop offset="0.36" stop-color="#a44642"/><stop offset="0.72" stop-color="#933c39"/></linearGradient><linearGradient id="linear-gradient-37" x1="454.15" y1="240.25" x2="567.05" y2="240.25" gradientUnits="userSpaceOnUse"><stop offset="0" stop-color="#b5504a"/><stop offset="0.32" stop-color="#a44642"/><stop offset="0.72" stop-color="#933c39"/></linearGradient><linearGradient id="linear-gradient-38" x1="499.41" y1="189.64" x2="497.23" y2="144.56" gradientUnits="userSpaceOnUse"><stop offset="0" stop-color="#80634b"/><stop offset="0.68" stop-color="#907256"/></linearGradient><linearGradient id="linear-gradient-39" x1="518.68" y1="201.28" x2="518.45" y2="196.66" gradientUnits="userSpaceOnUse"><stop offset="0" stop-color="#80634b"/><stop offset="1" stop-color="#907256"/></linearGradient><linearGradient id="linear-gradient-40" x1="486.15" y1="270.82" x2="511.24" y2="225.26" gradientUnits="userSpaceOnUse"><stop offset="0.3" stop-color="#b5504a"/><stop offset="0.55" stop-color="#a44642"/><stop offset="0.85" stop-color="#933c39"/></linearGradient><linearGradient id="linear-gradient-41" x1="485.8" y1="267.93" x2="513.94" y2="237.39" gradientUnits="userSpaceOnUse"><stop offset="0" stop-color="#b5504a"/><stop offset="0.07" stop-color="#b24e49"/><stop offset="0.84" stop-color="#973e3b"/><stop offset="1" stop-color="#933c39"/></linearGradient><linearGradient id="linear-gradient-42" x1="647.78" y1="317.5" x2="402.9" y2="262.58" xlink:href="#linear-gradient-15"/><linearGradient id="linear-gradient-43" x1="620.58" y1="269.2" x2="428.67" y2="268.26" gradientUnits="userSpaceOnUse"><stop offset="0" stop-color="#736357"/><stop offset="0.05" stop-color="#7c6b5d"/><stop offset="0.28" stop-color="#9f8c78"/><stop offset="0.47" stop-color="#b4a088"/><stop offset="0.6" stop-color="#bca78e"/></linearGradient><linearGradient id="linear-gradient-44" x1="563.16" y1="264.89" x2="561.98" y2="240.63" xlink:href="#linear-gradient"/><linearGradient id="linear-gradient-45" x1="553.34" y1="278.69" x2="551.73" y2="245.48" gradientUnits="userSpaceOnUse"><stop offset="0" stop-color="#80634b"/><stop offset="0.97" stop-color="#907256"/></linearGradient><linearGradient id="linear-gradient-46" x1="545.5" y1="262.5" x2="523.33" y2="249.44" xlink:href="#linear-gradient"/><linearGradient id="linear-gradient-47" x1="544.06" y1="261.73" x2="521.46" y2="258.05" xlink:href="#linear-gradient"/><linearGradient id="linear-gradient-48" x1="571.5" y1="294.26" x2="542.5" y2="198" gradientUnits="userSpaceOnUse"><stop offset="0" stop-color="#736357"/><stop offset="0.17" stop-color="#877666"/><stop offset="0.47" stop-color="#a4917c"/><stop offset="0.73" stop-color="#b6a189"/><stop offset="0.91" stop-color="#bca78e"/></linearGradient><linearGradient id="linear-gradient-49" x1="522.07" y1="225.42" x2="521.93" y2="210.06" gradientUnits="userSpaceOnUse"><stop offset="0.09" stop-color="#c7914a"/><stop offset="0.37" stop-color="#dda863"/><stop offset="0.85" stop-color="#ffcd89"/></linearGradient><linearGradient id="linear-gradient-50" x1="475.17" y1="237.11" x2="474.04" y2="114.92" gradientUnits="userSpaceOnUse"><stop offset="0.03" stop-color="#c7914a"/><stop offset="0.13" stop-color="#d9a45e"/><stop offset="0.28" stop-color="#eebb76"/><stop offset="0.41" stop-color="#fbc884"/><stop offset="0.53" stop-color="#ffcd89"/></linearGradient><linearGradient id="linear-gradient-51" x1="514.15" y1="206.93" x2="514" y2="190.68" xlink:href="#linear-gradient-49"/><linearGradient id="linear-gradient-52" x1="520.55" y1="228.67" x2="520.4" y2="212.34" xlink:href="#linear-gradient-49"/><linearGradient id="linear-gradient-53" x1="498.56" y1="234.91" x2="497.95" y2="169.85" xlink:href="#linear-gradient-49"/><linearGradient id="linear-gradient-54" x1="510.23" y1="186.23" x2="528.41" y2="259" xlink:href="#linear-gradient"/><linearGradient id="linear-gradient-55" x1="983.64" y1="186.68" x2="966.51" y2="209.59" xlink:href="#linear-gradient"/><linearGradient id="linear-gradient-56" x1="984.74" y1="178.53" x2="1009.18" y2="178.53" xlink:href="#linear-gradient"/><linearGradient id="linear-gradient-57" x1="994.7" y1="179.69" x2="954.02" y2="173.24" gradientUnits="userSpaceOnUse"><stop offset="0" stop-color="#80634b"/><stop offset="0.32" stop-color="#907256"/></linearGradient><linearGradient id="linear-gradient-58" x1="954.44" y1="323.48" x2="850.91" y2="319.35" gradientUnits="userSpaceOnUse"><stop offset="0" stop-color="#c3949b"/><stop offset="0.55" stop-color="#d9b2b6"/><stop offset="1" stop-color="#e8c6c9"/></linearGradient><linearGradient id="linear-gradient-59" x1="928.62" y1="315" x2="968.41" y2="315" xlink:href="#linear-gradient"/><linearGradient id="linear-gradient-60" x1="962.43" y1="338.83" x2="976.48" y2="381.19" xlink:href="#linear-gradient"/><linearGradient id="linear-gradient-61" x1="948.93" y1="325.02" x2="906.48" y2="345.55" xlink:href="#linear-gradient"/><linearGradient id="linear-gradient-62" x1="979.18" y1="383.06" x2="929.37" y2="281.44" gradientUnits="userSpaceOnUse"><stop offset="0" stop-color="#80634b"/><stop offset="0.04" stop-color="#84674e"/><stop offset="0.19" stop-color="#8d6f54"/><stop offset="0.41" stop-color="#907256"/></linearGradient><linearGradient id="linear-gradient-63" x1="1009.88" y1="232.14" x2="957.99" y2="156.18" gradientUnits="userSpaceOnUse"><stop offset="0.23" stop-color="#736357"/><stop offset="0.67" stop-color="#a5917d"/><stop offset="0.91" stop-color="#bca78e"/></linearGradient><linearGradient id="linear-gradient-64" x1="965.38" y1="217.51" x2="968.76" y2="100.73" gradientUnits="userSpaceOnUse"><stop offset="0" stop-color="#736357"/><stop offset="0.09" stop-color="#77675a"/><stop offset="0.19" stop-color="#847364"/><stop offset="0.29" stop-color="#9a8774"/><stop offset="0.39" stop-color="#b8a38b"/><stop offset="0.41" stop-color="#bca78e"/></linearGradient><linearGradient id="linear-gradient-65" x1="986.53" y1="384.64" x2="937.5" y2="337.67" xlink:href="#linear-gradient"/><linearGradient id="linear-gradient-66" x1="914.61" y1="165" x2="1023.97" y2="165" xlink:href="#linear-gradient-15"/><linearGradient id="linear-gradient-67" x1="970.17" y1="220.95" x2="976.94" y2="121.21" gradientUnits="userSpaceOnUse"><stop offset="0.24" stop-color="#736357"/><stop offset="0.3" stop-color="#877666"/><stop offset="0.4" stop-color="#a4917c"/><stop offset="0.49" stop-color="#b6a189"/><stop offset="0.56" stop-color="#bca78e"/></linearGradient><linearGradient id="linear-gradient-68" x1="1091.96" y1="218.38" x2="1100.55" y2="218.38" gradientTransform="matrix(-1, 0, 0, 1, 2089.35, 0)" xlink:href="#linear-gradient"/><linearGradient id="linear-gradient-69" x1="992.62" y1="231.62" x2="1001.53" y2="231.62" xlink:href="#linear-gradient-64"/><linearGradient id="linear-gradient-70" x1="1101.63" y1="230.64" x2="1092.6" y2="219.8" gradientTransform="matrix(-1, 0, 0, 1, 2089.35, 0)" gradientUnits="userSpaceOnUse"><stop offset="0" stop-color="#80634b"/><stop offset="0.9" stop-color="#907256"/></linearGradient><linearGradient id="linear-gradient-71" x1="1081.37" y1="222.95" x2="1100.05" y2="222.95" gradientTransform="matrix(-1, 0, 0, 1, 2089.35, 0)" gradientUnits="userSpaceOnUse"><stop offset="0" stop-color="#80634b"/><stop offset="0.78" stop-color="#907256"/></linearGradient><linearGradient id="linear-gradient-72" x1="1090.69" y1="224.98" x2="1095.24" y2="224.98" xlink:href="#linear-gradient-71"/><linearGradient id="linear-gradient-73" x1="1092.08" y1="226.23" x2="1099.29" y2="226.23" xlink:href="#linear-gradient-71"/><linearGradient id="linear-gradient-74" x1="973.31" y1="212.13" x2="975.16" y2="142.77" gradientUnits="userSpaceOnUse"><stop offset="0" stop-color="#736357"/><stop offset="0.49" stop-color="#a5917c"/><stop offset="0.77" stop-color="#bca78e"/></linearGradient><linearGradient id="linear-gradient-75" x1="962.53" y1="271.58" x2="1011.87" y2="271.58" xlink:href="#linear-gradient-58"/><linearGradient id="linear-gradient-76" x1="936.02" y1="270.69" x2="993.78" y2="270.69" xlink:href="#linear-gradient-58"/><linearGradient id="linear-gradient-77" x1="916.32" y1="258.38" x2="1038.29" y2="368" xlink:href="#linear-gradient-58"/><linearGradient id="linear-gradient-78" x1="909.06" y1="243.08" x2="1018.57" y2="243.08" xlink:href="#linear-gradient-41"/><linearGradient id="linear-gradient-79" x1="956.28" y1="236.92" x2="1001.51" y2="236.92" xlink:href="#linear-gradient"/><linearGradient id="linear-gradient-80" x1="968.86" y1="265.14" x2="1008.16" y2="265.14" xlink:href="#linear-gradient"/><linearGradient id="linear-gradient-81" x1="980.28" y1="292.4" x2="992.98" y2="292.4" xlink:href="#linear-gradient"/><linearGradient id="linear-gradient-82" x1="982.57" y1="298.22" x2="986.9" y2="298.22" xlink:href="#linear-gradient"/><linearGradient id="linear-gradient-83" x1="983.83" y1="299.14" x2="994.58" y2="299.14" xlink:href="#linear-gradient"/><linearGradient id="linear-gradient-84" x1="982.31" y1="298.17" x2="1005.14" y2="298.17" xlink:href="#linear-gradient"/><linearGradient id="linear-gradient-85" x1="984.14" y1="234.35" x2="877.81" y2="205.02" gradientUnits="userSpaceOnUse"><stop offset="0.19" stop-color="#c7914a"/><stop offset="0.21" stop-color="#ce9851"/><stop offset="0.3" stop-color="#e3af6a"/><stop offset="0.39" stop-color="#f3c07b"/><stop offset="0.49" stop-color="#fcca86"/><stop offset="0.61" stop-color="#ffcd89"/></linearGradient><linearGradient id="linear-gradient-86" x1="950.11" y1="268.35" x2="913.08" y2="174.55" gradientTransform="translate(942.16 -733.36) rotate(76.72)" xlink:href="#linear-gradient-49"/><linearGradient id="linear-gradient-87" x1="945.81" y1="257.46" x2="918.91" y2="189.33" gradientTransform="translate(942.16 -733.36) rotate(76.72)" gradientUnits="userSpaceOnUse"><stop offset="0.28" stop-color="#c7914a"/><stop offset="0.49" stop-color="#dda863"/><stop offset="0.85" stop-color="#ffcd89"/></linearGradient><linearGradient id="linear-gradient-88" x1="943.21" y1="250.89" x2="922.44" y2="198.25" gradientTransform="translate(942.16 -733.36) rotate(76.72)" gradientUnits="userSpaceOnUse"><stop offset="0.16" stop-color="#c7914a"/><stop offset="0.42" stop-color="#dda863"/><stop offset="0.85" stop-color="#ffcd89"/></linearGradient><linearGradient id="linear-gradient-89" x1="942.16" y1="248.2" x2="923.88" y2="201.89" gradientTransform="translate(34.67 -111.77) rotate(6.97)" gradientUnits="userSpaceOnUse"><stop offset="0.33" stop-color="#c7914a"/><stop offset="0.52" stop-color="#dda863"/><stop offset="0.85" stop-color="#ffcd89"/></linearGradient><linearGradient id="linear-gradient-90" x1="929.87" y1="225.76" x2="950.89" y2="229.88" gradientTransform="translate(225.97 -422.84) rotate(28.86)" gradientUnits="userSpaceOnUse"><stop offset="0.65" stop-color="#fff"/><stop offset="0.75" stop-color="#e7e7e7"/><stop offset="0.93" stop-color="#c1c1c1"/></linearGradient><linearGradient id="linear-gradient-91" x1="932.37" y1="205.39" x2="934.94" y2="234.6" gradientUnits="userSpaceOnUse"><stop offset="0.58" stop-color="#fff"/><stop offset="0.7" stop-color="#e7e7e7"/><stop offset="0.93" stop-color="#c1c1c1"/></linearGradient><linearGradient id="linear-gradient-92" x1="934.05" y1="224.53" x2="934.5" y2="229.6" gradientUnits="userSpaceOnUse"><stop offset="0" stop-color="#fff"/><stop offset="0.33" stop-color="#e7e7e7"/><stop offset="0.93" stop-color="#c1c1c1"/></linearGradient><linearGradient id="linear-gradient-93" x1="914.82" y1="206.44" x2="989.16" y2="206.44" xlink:href="#linear-gradient-64"/><linearGradient id="linear-gradient-94" x1="900.22" y1="207.69" x2="990.27" y2="207.69" xlink:href="#linear-gradient-58"/><linearGradient id="linear-gradient-95" x1="917.34" y1="205.29" x2="967.68" y2="205.29" gradientTransform="matrix(0.99, 0.12, -0.12, 0.99, 30.8, -111.58)" xlink:href="#linear-gradient-64"/><linearGradient id="linear-gradient-96" x1="915.42" y1="212.26" x2="958.62" y2="212.26" xlink:href="#linear-gradient-64"/><linearGradient id="linear-gradient-97" x1="964.88" y1="260.52" x2="995.47" y2="194.5" gradientUnits="userSpaceOnUse"><stop offset="0.38" stop-color="#c3949b"/><stop offset="0.48" stop-color="#cfa4aa"/><stop offset="0.63" stop-color="#ddb7bb"/><stop offset="0.8" stop-color="#e5c2c6"/><stop offset="0.97" stop-color="#e8c6c9"/></linearGradient><linearGradient id="linear-gradient-98" x1="918.52" y1="202.06" x2="956.69" y2="202.06" xlink:href="#linear-gradient-64"/></defs><g id="PEOPLE"><path id="_LAYER-08_SWIRL_ANIMATE_" data-name="&lt;LAYER-08_SWIRL(ANIMATE)&gt;" class="cls-1" d="M3817.61,434.54c-12-11.07-29.46-26.74-51.38-44.53C3643.91,290.73,3527.35,241.86,3475,222.15c-54.42-20.5-105.94-31.94-209-54.81-128.68-28.57-194.7-43.23-267.2-44.54C2872,120.51,2829.63,161,2694,194.74c-318.49,79.2-625.65-9.7-774-52.62-73.81-21.36-65.84-24.45-159.57-51.59-91.22-26.4-306.33-99.65-486-89.59C1083.65,11.63,962.74,73.79,823.8,123.11,517.22,231.94,275.49,274.76,0,229c-84.8-14.09-147.57-34.36-351.45-68.5C-598,119.2-653.71,124.15-690.6,129.66c-135.48,20.24-146.26,67.43-315.16,95.91-94,15.87-84.72.23-243.22,20.56-146,18.72-231.41,41.93-287.76,109.62a234.62,234.62,0,0,0-27.41,41.11l-20.55,37.68Z"/><g id="_LAYER-09_" data-name="&lt;LAYER-09&gt;"><path class="cls-2" d="M1920.41,563.88H-.85L1.68,371.23c92.08,4,158,2.28,158,2.28s66.73-.73,163.75-8,160.32-10.93,243.44-5.69,120.59,6.34,120.59,6.34,96.54,2.54,157.81,7S963.39,380,963.39,380s296.31,5.32,343.91,3.14S1440,382,1440,382s59.33,2,85.64,2.48,87.54-.87,110.33-2.63,36.83-2.34,36.83-2.34,43.7-1.16,66.79-1.31,56.83-2.23,56.83-2.23,12,0,44.11-9,79.47-9.64,79.47-9.64Z"/><path class="cls-3" d="M1264.36,383.27c24.71,0,45.08,0,58.64,0V370.84c-39.75-.61-95.11-1.75-161.61-4.08-29.57-1-57.07-2-93.71-3.86-79.66-4-140.43-9-182.6-12.56-30.23-2.53-75.38-6.29-135.25-12.56-68.23-7.15-89.75-10.65-134.29-11.6-24.31-.51-54.24-.25-82.12,0-49,.44-55.31,1.26-75.35,1-48.77-.72-76.42-6.53-110.14-10.63-47.73-5.8-58.58-2.2-211.58,1-32.3.67-79.18,1.49-136.35,1.93v51.63q16.22.6,32.59,1.08S89,373.75,145,373.65c83-.15,230.72-12.82,306.12-16.55,24.55-1.21,114.47,3.18,294.3,11.82,208.25,10,213.62,12,286,13C1075.71,382.54,1171.2,383.16,1264.36,383.27Z"/><path class="cls-3" d="M1463.24,371c-10.26,0-18.53,0-23.24,0v11.43c50.52,2.19,93.28,2.42,125.64,2.07,73.76-.78,59.21-4.16,147.75-6,58.72-1.24,88.24-.24,119.61-9a306.42,306.42,0,0,1,87-12.07V329.26c-11.49,1.83-21.15,3.32-28.22,4.39C1659.48,368.92,1504.56,370.77,1463.24,371Z"/><path class="cls-3" d="M737.45,318.44c-9,.31-17.91,1.14-26.55,3.49v9.13a28.89,28.89,0,0,0,5.89-5.74,28.48,28.48,0,0,1-5.68,8,76.07,76.07,0,0,1,21.44-13.07A55.61,55.61,0,0,0,716,332.11c-.88.95-1.65,2-2.67,3.28l9.71-5.05v.12l-7.34,5.81.18.47a16.17,16.17,0,0,1,7.6,1.29,33.72,33.72,0,0,0-4.28,0c-3.19.43-5.09,2.49-6.09,5.41a1.63,1.63,0,0,1-1.87,1.29q-42.76-.06-85.55,0c-3.88,0-7.76,0-11.64,0a1.53,1.53,0,0,1-1.18-.47c-2.41-4.31-6.35-6.65-10.74-8.36a52,52,0,0,0-15.4-3.22l-1.92-.17a.61.61,0,0,1-.45-.25c2.83-.15,5.66-.43,8.49-.4a57.4,57.4,0,0,1,8.7.63c2.8.45,5.52,1.38,8.54,2.18l-8.7-6.71.07-.15,11.29,6.12c-.78-2.86-2.72-4.18-5.37-5-6.37-2-12.68-4.26-19-6.41a5.12,5.12,0,0,1-.57-.37l21.31,6.07a99,99,0,0,0-14.5-16.91l.25-.31c4,3.11,8.11,6.12,12,9.35s7.7,6.7,11.8,10a34.94,34.94,0,0,0-1.48-4.17,120.81,120.81,0,0,1-9.23-24.7,4.18,4.18,0,0,1,0-.67c1.47,3.45,2.75,6.76,4.27,10s3.28,6.33,4.93,9.49l.26-.15.73-10.61.28,0c.16,2.37.19,4.76.53,7.1a75.85,75.85,0,0,0,1.61,7.59,4.77,4.77,0,0,0,1.16,1.77c1.07,1.23,2.19,2.41,3.3,3.61l.39-.19c-1.6-5.19-3.21-10.38-4.78-15.45a117.13,117.13,0,0,1,9.88,17.2c-1.64-12.12-6.24-23.38-9.91-34.93l11.92,27.57.23-.09-1-2.62.12-.08,2.55,3.84.18-.07c-.56-2.2-1-4.43-1.73-6.58-.22-.67-1.1-1.12-1.69-1.65a3.32,3.32,0,0,1-.87-1l2.4,1.6-2.26-10,.21-.05c.49,1.47,1,2.95,1.48,4.43.3.86.59,1.73.91,2.59,1.81,5,1.81,5,6.76,8l-2-25.2.12,0c.49,3.12,1,6.22,1.46,9.34.77,5.37,1.52,10.75,2.21,16.13.16,1.28,1.06,1.63,1.85,2.11,2.09-5.18,4.15-10.27,6.2-15.37l.25.09q-1.68,8.63-3.37,17.27l.35.1a4.44,4.44,0,0,0,.24-.49c1.4-3.73,2.82-7.46,4.18-11.2a3.48,3.48,0,0,0,.13-1.81c-1-4.3-2.08-8.58-2.94-12.93l4,12.08c.27-.52.45-.88.63-1.25a14.72,14.72,0,0,1,1.22-2.33c2.4-3.18,2.57-6.84,2.41-10.58a1.51,1.51,0,0,1,.23-1l.89,4.66,11.49-16.39.35.24c-1.45,2.35-2.93,4.68-4.34,7.06-1.89,3.19-3.69,6.45-5.6,9.63a8.57,8.57,0,0,0-1.24,5.76c.55,4.64.83,9.31,1.17,14,.06.88.36,1.41,1.22,1.61a7.46,7.46,0,0,0,1-4.76l.38.76c1.71-5,3.34-9.86,5-14.68l.19,0c-.41,1.85-.85,3.7-1.24,5.56-.77,3.7-1.63,7.4-2.22,11.14-.16,1,.5,2.21.78,3.32l.55,0q.66-3.93,1.3-7.88h.13c0,3,.19,5.94-.07,8.88-.16,1.76.8,2.27,2,3,.51-5.49,1.07-10.86,2.72-16.12.44,4.94.86,9.76,1.28,14.58l.44.06a7.73,7.73,0,0,0,.74-1c1.36-2.67,2.73-5.33,4-8a1.83,1.83,0,0,0,0-1.38c-.83-1.85-1.75-3.65-2.48-5.58,1.1,1.69,2.19,3.39,3.33,5.15l.44-.55a10,10,0,0,0,.35,2.1,14.55,14.55,0,0,0,1.31,2.17l3.46-3.1a32.77,32.77,0,0,1,2.84-2.57,4,4,0,0,0,1.4-2.89,5.14,5.14,0,0,1,.46-1.44L688.8,313l10.45-9.62.16.16c-2.91,3.37-5.73,6.83-8.77,10.08a7.83,7.83,0,0,0-2.49,6.16c.15,2.18,0,4.38,0,6.68,2.25-.87,4.52-1.7,6.74-2.62.34-.14.54-.67.73-1.06.74-1.49,1.45-3,2.31-4.46l-1.61,5.06c1.46-.45,2.83-.82,4.15-1.31.35-.13.6-.61.83-1,2-3.23,4.09-6.47,6.28-9.63l-4.92,10.07A105.23,105.23,0,0,1,737.45,318.44ZM709.79,322c-.85.5-1.61.69-1.92,1.17-2.37,3.71-3.75,7.84-5.14,12.1a4.23,4.23,0,0,0,3.19-2c.39-.69.87-1.34,1.25-2A19.9,19.9,0,0,0,709.79,322ZM698,334.17,707.38,323c-1.43.54-2.63,1.06-3.87,1.43a5.07,5.07,0,0,0-3.78,3.94C699.26,330.21,698.65,332.07,698,334.17ZM687.5,317.42c-1.73,2-3.26,3.7-4.75,5.44a.85.85,0,0,0-.22.71c.69,1.47,1.43,2.92,2.14,4.36a1.55,1.55,0,0,0,1.58-1.85,7.22,7.22,0,0,1,.16-1.3Zm-13.32,15.51.18.18c2.49-1.27,5-2.52,7.47-3.83a1,1,0,0,0,.3-.9c-.27-1.14-.63-2.26-1-3.62ZM636,320.64l-.29.2,4,8.74a47.17,47.17,0,0,0,.15-5,1.26,1.26,0,0,0-.25-.88C638.42,322.65,637.2,321.65,636,320.64Zm20.51-10.92c-1.47,3.48-3.68,6.9-.94,10.81C655.88,316.88,656.19,313.3,656.5,309.72ZM653.26,321a27.65,27.65,0,0,0,.59,10C655.17,327.47,654.22,324.24,653.26,321Zm25.28-2.49-1.95,5.55C680,321.89,680.23,321.24,678.54,318.51ZM663,330.44l.4-.06c1.39-2.75,1.35-3.2-.4-4Zm-3.07-6.39v2.88C660.93,325.12,660.92,324.53,659.94,324.05Z"/><path class="cls-3" d="M145.94,311.7c1.09.57,2.19,1.13,3.28,1.72s2.12,1.19,3.32,1.87c-2.69-4.87-6.29-8.81-10-12.65a95.42,95.42,0,0,1,12.92,10.54l.19-.08a14.3,14.3,0,0,0-.67-2.07,67.11,67.11,0,0,1-5.32-14.2.85.85,0,0,1,0-.39,53.73,53.73,0,0,0,5.32,11c.13-2.09.27-4.13.41-6.17h.18c.06,1.14,0,2.29.2,3.42.25,1.69.62,3.36,1,5a1.94,1.94,0,0,0,.49.77c.66.75,1.35,1.48,2,2.21l.2-.09q-1.32-4.32-2.66-8.65a61.16,61.16,0,0,1,5.53,9.7c-.92-6.91-3.58-13.32-5.67-19.9l6.91,16,.12-.05L163,308l.07,0,1.49,2.25c-.82-3.54-1.62-7-2.41-10.39a81.5,81.5,0,0,0,5.32,12.87c0-6.14-.55-12.24-1.19-18.33l.18,0c.83,5.76,1.65,11.52,2.5,17.4a80.41,80.41,0,0,1,4.13-10.47c-.65,3.45-1.28,6.74-1.91,10l.13,0,1.56-4.38a1.17,1.17,0,0,1,.12-.31,6.27,6.27,0,0,0,.4-5.7c-.48-1.47-.79-3-1.16-4.5a.39.39,0,0,1,.05-.33l2.29,6.87,1-1.84,0-.06a8.73,8.73,0,0,0,1.44-5.81,1.38,1.38,0,0,1,.1-.68l.48,2.55,6.4-9.13.2.13c-.51.83-1,1.64-1.52,2.48l-4.49,7.74a2.4,2.4,0,0,0-.27,1.52c.28,3.08.49,6.17.72,9.25,0,.66.07,1.32.12,2.13,1.37-4.2,2.7-8.23,4-12.27l0,0q-1.59,8.08-3.17,16.18l.17,0a25.44,25.44,0,0,0,2.63-9.56,38.09,38.09,0,0,1-.28,9.23c2.68-6.42,8.08-8.56,14.58-9.29-1.13.45-2.11.78-3.05,1.21a15,15,0,0,0-6.64,5.3,3.88,3.88,0,0,0-.76,2.86c.67-.61,1.26-1.19,1.89-1.73,1-.83,2-1.65,3-2.44a5.63,5.63,0,0,1,1.23-.67,2.07,2.07,0,0,1,2.71.72,9.71,9.71,0,0,1,.65.93c.81,1.37,1.6,2.76,2.31,4.22-.35-.38-.67-.77-1-1.13-.7-.69-1.38-1.4-2.13-2s-1.45-.51-1.69.61-.34,2.25-.57,3.36-.6,2.5-.88,3.75c-.11.46-.35.56-.8.56q-8.06,0-16.12,0c-7.4,0-14.8,0-22.2,0a1.9,1.9,0,0,1-1.08-.35,50.41,50.41,0,0,0-17-8c-4.24-1.16-8.54-2.09-12.81-3.13a1.11,1.11,0,0,1-.36-.18,107.44,107.44,0,0,1,15.33,2.51,142.57,142.57,0,0,1,14.94,4.55c-.61-.56-1.19-1.13-1.82-1.66s-1.28-1-1.94-1.52-1.36-1-2-1.46Zm30.81-10.26c-1.43,2.47-1.58,4.25-.55,6.35C176.39,305.65,176.56,303.63,176.75,301.44ZM174.93,308a15.37,15.37,0,0,0,.34,5.57C176,311.63,175.49,309.8,174.93,308Z"/><path class="cls-3" d="M210.26,312.51c6.24-1.43,16.78-2.86,25.19,1a45.6,45.6,0,0,0-9.78-20,62.34,62.34,0,0,1,16.22,21.57c.46-1.68,1.68-3.25,1.23-5.05a24.66,24.66,0,0,1,0-12.07.6.6,0,0,1,.14-.26l2.22,8.17h.38c1-1.62,2-3.24,3-4.87.15-.27-.14-.67-.35-1-.94-1.34-1.93-2.66-2.74-4.06l3.8,3.83c2-2.25,3.92-4.47,5.87-6.69l.26.08c-.88,1.21-1.84,2.41-2.64,3.64s-1.49,2.52-2.17,3.8a.82.82,0,0,0,0,.83c2,3,4.1,6,6.17,9.05,0,0,.09.07.43.07l-2.47-9.9a90.71,90.71,0,0,1,5.09,16,26.27,26.27,0,0,0,1.88-10h.41c.23,4,.45,8.11.64,11.77a37.44,37.44,0,0,1,4.74-11.84,35.92,35.92,0,0,1,9.88-11.13c-6.58,6.88-8,14.3-6.43,22.09,1.76-1.92,3.43-3.84,5.24-5.7a28.3,28.3,0,0,1,6.62-5.1c-5.34,4.05-8.16,8.79-10.33,13.7,1.9-1,3.81-2,5.67-3a1.33,1.33,0,0,0,.52-.64c.6-1.23,1.16-2.48,1.9-3.7l-1,3.74,3.23-1.17.09.08c-1,.53-2,1-3,1.6a2.23,2.23,0,0,0-.81.84c-1.09,2.12-2.13,4.23-3.2,6.36a26.67,26.67,0,0,1,11.79-1.1c-5.77.45-10.83,1.36-11,5.81H232.43c-.32-2.28-.56-4.6-3.9-6.06s-6.91-.85-10.43-.17a25.51,25.51,0,0,1,7.76-2.23,16.19,16.19,0,0,1,8.26,1c-.76-4.47-6.44-8.25-13.54-9.09A57.79,57.79,0,0,0,210.26,312.51Zm39.57-9.78c-.46,1.46-1,2.92-1.39,4.38-.52,1.71-.7,3.39.69,5.05,1.68,2,3.12,4.08,4.66,6.13l.53-.12a9.16,9.16,0,0,0-.67-1.51c-.47-.68-1.11-1.3-1.61-2a13.41,13.41,0,0,1-2.77-5.66,15.57,15.57,0,0,0,4.61,5.17A26.17,26.17,0,0,0,249.83,302.73Zm24,20.28.36.12,3.48-3.85-.37-.13A10.53,10.53,0,0,0,273.79,323Z"/><path class="cls-3" d="M215.61,316.16c7.63-6.1,16.3-9.74,24.76-13.76l10.26-4.9a1.69,1.69,0,0,1,1-.24c-2.53,1.55-5.09,3.06-7.6,4.66-6.53,4.16-13.13,8.23-19.53,12.59-2.85,1.95-5.29,4.5-7.9,6.78a10.73,10.73,0,0,0-.92,1.06,87.09,87.09,0,0,1,33.21,0c4.25.78,8.42,2,12.63,3l-.08.38-5.18-.74a91.14,91.14,0,0,0-25.92-.16c-4.09.62-8.13,1.6-12.19,2.41a6.77,6.77,0,0,1-1.41.21q-14.16,0-28.32,0c-.31,0-.62,0-.92-.06-.91-4.71-4.23-7.89-9.16-8.79a22.68,22.68,0,0,0-11.76,1.23c-.37.13-.72.28-1.26.49,3.4-3,10.86-4.52,19.19-4-5-8.66-12.55-13.84-21.48-17.39a70.73,70.73,0,0,1,20.37,9.81c-5.54-9.81-8.63-20.12-10.7-30.81,3.67,11.92,9.67,22.36,19.25,30.86a136.53,136.53,0,0,1-4.48-40.17,127.13,127.13,0,0,0,10.23,44.43c1.21-11.91.41-23.77-.93-35.62l.3-.08c1.43,5.22,3,10.4,4.24,15.66s2.23,10.68,3.32,16c7.73-11.11,12.77-23.63,17.48-36.33-3.23,14.76-6.58,29.47-11.47,44.15a32.07,32.07,0,0,0,6.2-10.94c1.42-4.8,2.48-9.72,3.64-14.6.58-2.44,1-4.91,1.52-7.37a.65.65,0,0,1,.27-.38C221.91,294.81,220.35,305.68,215.61,316.16Z"/><path class="cls-3" d="M1288.46,357.35c-2.83-3-6.39-4.89-10-6.62-.83-.39-1.68-.76-2.51-1.14,6.87.75,13.21,2.74,18.31,8-.35-7.56-1.33-14.6-6-20.6,5.86,5,8.49,11.79,10.83,19,.51-1.45,1.26-2.52.88-4a90.87,90.87,0,0,0-16.07-32.9c-.29-.39-.6-.76-.9-1.14l.24-.17a88.56,88.56,0,0,1,20.32,29,5.3,5.3,0,0,0,2-5.83c.24.82.48,1.63.74,2.53l2-1.74a1.34,1.34,0,0,1-.41.79,3.53,3.53,0,0,0-.83,4.11,36.46,36.46,0,0,1,1.19,3.89c.46,1.5.93,3,1.4,4.49a4.25,4.25,0,0,0,.45-1.39c1.54-7.7,1.55-7.7-.9-14.24-.19-.52-.41-1-.64-1.55-.42-1-.86-1.92-1.29-2.88l.22-.12,4.79,8.17c1.15-4.7,2.24-9.19,3.34-13.69a6,6,0,0,1,.09,1.92c-.27,4.87-.49,9.74-.84,14.6a7.78,7.78,0,0,0,.64,4c.84,1.8,1.49,3.7,2.22,5.56,1-13,1.11-26-1.65-38.84,6.51,18.95,7.68,38.48,6.53,58.36h-1.5c-10,0-20,0-30,0a3,3,0,0,1-2.94-1.46,8,8,0,0,0-6.44-3.84,30.65,30.65,0,0,0-4.79.08c-1.81.16-3.61.48-5.75.78,6.31-2.36,12.15-4.46,19.21-.55-.22-4.18-1.65-7.63-5.58-9.68a15.45,15.45,0,0,1,7.64,4.26A16.84,16.84,0,0,0,1288.46,357.35Zm16.81-6.05c.88,1.8,1.3,3.82,2,5.75-.44-3.64-.88-7.27-1.35-11.12C1304.7,347.75,1304.31,349.34,1305.27,351.3Z"/><path class="cls-3" d="M429.66,326.41a219.77,219.77,0,0,1,1.73-32c0,4.94-.09,9.89,0,14.82s.44,9.81.67,14.71h.39c-.05-.62-.14-1.24-.13-1.86.1-3.95.26-7.91.3-11.86a20.63,20.63,0,0,0-.54-3.37l.7,1.13.64-5.55.12,0c0,2.21,0,4.42,0,6.63a3.63,3.63,0,0,0,.14,1.19c1.12,3,2.28,5.94,3.42,8.92,1.41-4.14,2.83-8.26,4.2-12.39a1.87,1.87,0,0,0-.16-1.24c-1.46-3.27-3-6.53-4.46-9.8-.2-.46-.43-.91-.65-1.36l.27-.14,5.7,10.64c.55-1.37,1-2.61,1.55-3.85.86-2.06,1.7-4.13,2.6-6.18.76-1.71,1.76-3.36.89-5.36.1.27.23.54.31.82s.14.6.26,1.15l3.87-7.78.24.12c-.76,1.73-1.54,3.45-2.29,5.19-.49,1.13-.94,2.28-1.38,3.44a1.53,1.53,0,0,0-.1.79q1.54,9.25,3.11,18.51c0,.23.11.46.22.93l3.13-5.41.14,0a6,6,0,0,1-.19.64c-.47,1.1-.91,2.22-1.42,3.3a10.42,10.42,0,0,0-1.09,6.89,74.35,74.35,0,0,1,.81,7.64l3.41-6.44.19.07c-1.13,3.94-2.26,7.87-3.46,12.07,2.14-3.62,4-7.06,6.15-10.35s4.46-6.38,6.88-9.44c-4.14,5.82-7.88,11.82-9.75,19.17a94.35,94.35,0,0,1,19.53-12.31c-2.12,1.66-4.29,3.25-6.34,5-5.28,4.48-9.74,9.61-12.1,16.24a2.24,2.24,0,0,1-2.59,1.8c-9.44-.08-18.88-.05-28.32,0a2.23,2.23,0,0,1-1.71-.79,26.83,26.83,0,0,0-3.78-3.11,32.19,32.19,0,0,1-9.67-9.67,5.32,5.32,0,0,1-.58-1.17c3.94,5.36,9.35,8.52,15.76,10.4a26.17,26.17,0,0,0-2.25-3.13,16.2,16.2,0,0,0-3.17-2.52,37.71,37.71,0,0,0-3.89-1.82A21.64,21.64,0,0,1,427.24,334c-1.95-11.73-8.09-21.23-14.14-30.77l.24-.18c2,2.43,4,4.81,5.83,7.3s3.63,5.07,5.33,7.67S427.82,323.42,429.66,326.41ZM448,318.14c.7-1.14,1.36-2.18,2-3.26a1.72,1.72,0,0,0,.2-1q-.92-8.43-1.89-16.86c-.12-1.06-.39-2.09-.59-3.14h-.36c-1.29,4.17-2.59,8.34-3.86,12.51a2.28,2.28,0,0,0-.09,1.38C444.86,311.17,446.41,314.58,448,318.14Zm-8.56,9.1.46.08q2.31-5.94,4.61-11.88a1.16,1.16,0,0,0,.08-.68c-.58-1.72-1.18-3.43-1.78-5.14h-.39Q440.95,318.44,439.45,327.24Zm-4.59.06.42,0c.14-2.31,1.51-4.42.6-6.93-.83-2.3-1.33-4.72-2-7.09l-.35.06Q434.21,320.34,434.86,327.3Zm7.67-.59.24,0c1.07-1.77,2.15-3.54,3.21-5.31a1,1,0,0,0,.22-.66c-.34-1.52-.73-3-1.11-4.55l-.25,0Zm7.75-2.13v-6.09A5.52,5.52,0,0,0,450.28,324.58Z"/><path class="cls-3" d="M1873.34,317.21a27.27,27.27,0,0,1,15.05,4.78,28,28,0,0,1,7.28,7.28,21.08,21.08,0,0,0-16.92,1.17,49.16,49.16,0,0,1,5.25-.64,15.64,15.64,0,0,1,11.78,5,2.24,2.24,0,0,0,1.39.68c7.27,0,14.55,0,21.83,0,.15,0,.31,0,.63-.07.13-2.06.39-4.12.37-6.18-.06-4.59,0-9.19-.45-13.75-.59-6.49-3.24-12.29-6.82-17.69-4.71-7.12-10.72-13.09-16.89-18.91a29.73,29.73,0,0,0-2.83-2.41c1.93,2.15,3.9,4.26,5.77,6.46,4.93,5.75,9.5,11.77,12.14,19a78.11,78.11,0,0,1,2.13,8.19,8.05,8.05,0,0,1,0,1.52,66,66,0,0,0-6.85-13.68c1.13,3.84,2.4,7.43,3.22,11.12s1.2,7.46,1.77,11.19l-.45.11c-.1-.22-.23-.42-.31-.65-2.61-7.62-7-13.85-13.93-18.16a23.44,23.44,0,0,0-16.28-3.44,3.43,3.43,0,0,0-1.12.37c6.08-.41,11.63.84,16.28,5,4,3.55,6.27,8.15,8,13.5-8.57-7.74-18.39-12.35-29.09-15.26,2.5,1.27,5,2.48,7.49,3.81,5.79,3.14,11.25,6.73,15.59,11.8a20.85,20.85,0,0,1,4.45,8.12c.1.36.16.72.32,1.46a34,34,0,0,0-15.63-8.87A31.25,31.25,0,0,0,1873.34,317.21Z"/><path class="cls-3" d="M1096.31,361.52a191.61,191.61,0,0,0,6.84-25.16l.2,0c-1.28,8.43-2.57,16.85-3.8,25l5.35-6.16.17.12a33.56,33.56,0,0,0-6.07,11.25,10.74,10.74,0,0,1,7.66.56c-.94,0-2,0-3,0a6.08,6.08,0,0,0-4.09,1.61c-1.06,1-1.42,2-1.53,4.34-.23,0-.47,0-.71,0-3.13,0-6.26,0-9.39,0a2.12,2.12,0,0,1-1.11-.36,18.53,18.53,0,0,0-8.4-3.55,13.9,13.9,0,0,0-5.63.57c2.21-1.93,8-3.46,14.81,0-3-6.24-7.13-11.6-11.09-17.08,1.94,2.09,3.94,4.13,5.81,6.28s3.59,4.4,5.33,6.54a82.67,82.67,0,0,1-1.26-19.42c.68,6.79.34,13.73,3,20.22-1.31-8.78-2-17.62-2.62-26.46.65,3.72,1.21,7.48,2,11.18s1.8,7.31,2.72,11l.2-.06q1.32-9.24,2.65-18.49l.22,0a154.14,154.14,0,0,0-.31,21.06c.46-2.17,1-4.33,1.36-6.52s.7-4.41,1-6.62.47-4.5.57-6.76,0-4.47.12-6.71C1097.92,340.62,1097.4,355,1096.31,361.52Z"/><path class="cls-3" d="M1450.41,354.66a31.25,31.25,0,0,1,7.76-8.22,22.47,22.47,0,0,0-5.94,10,33.33,33.33,0,0,0-.79,4.83c5.46-8.21,13.35-12.45,22.74-14.33-7.26,3.16-14.26,6.59-16.78,15.3a43.64,43.64,0,0,1,14.47-4.12c-4.59,1.44-9.36,2.46-12.89,6.15,6.8-2.86,13.72-1.63,20.65-.75-5.15.53-10.36.78-15.19,3a24.31,24.31,0,0,1,9.73,1.77,42.25,42.25,0,0,0-4.49-.19,38,38,0,0,0-6,.8,7.4,7.4,0,0,0-4.36,3,1.39,1.39,0,0,1-.94.53c-6,0-12,0-18,0a1.74,1.74,0,0,1-.35-.12c0-1.94,0-3.92,0-5.91.11-5.87.19-11.75.38-17.63.34-10.11,1.14-20.16,4.32-29.86.57-1.74,1.26-3.43,2-5.11a86.85,86.85,0,0,0-3.19,35.58,26.64,26.64,0,0,1,4.49-9.52,32.11,32.11,0,0,0-2.06,11.8A58.93,58.93,0,0,1,1457.34,327C1451.67,335.3,1450.37,344.68,1450.41,354.66Z"/></g><g id="_LAYER-18_P9_" data-name="&lt;LAYER-18_P9&gt;"><path class="cls-4" d="M489.1,136.73a29.54,29.54,0,0,0,4.42-7.43,14.23,14.23,0,0,0,1-4.64c.09-2.73-.85-3.92,0-5a3.21,3.21,0,0,1,2.21-.93c.69-.11,2.64-.33,6.26,1.39,3,1.4,4.44,2.1,4.88,3.48s-.63,1.69-1.16,5.69c-.18,1.32-.42,2.63-.58,3.95s-.23,2.19-.81,2.55-1.3,0-2.21-.23a16.07,16.07,0,0,0-5.11-.35A9.6,9.6,0,0,0,492.7,137a9.2,9.2,0,0,0-3,4.3c-.54,1.51-.3,2-.69,4.52a27.21,27.21,0,0,1-1.51,5.92,14,14,0,0,1-3.72,5.92c-.63.56-.18,0-5.1,2.91-1.12.64-2,1.17-2.44.84s-.19-1.13,0-2.35c.42-2.67,0-2.7.35-4.65a19,19,0,0,1,2.78-6.84,24.47,24.47,0,0,1,3.6-4.88c.26-.27.2-.19,4.18-4A25.66,25.66,0,0,0,489.1,136.73Z"/><path class="cls-5" d="M470.88,162.15c-.05-1.77,1.12-2.77,2.67-5.11,1.79-2.7,1.22-2.87,2.79-5.34,2.53-4,6-6.68,6.38-6.38.19.16-.57,1.11-2,3.83a39,39,0,0,0-2.09,4.53c-1.77,5.08,1.15,7.83-.82,10.21-1.28,1.57-4,2.2-5.57,1.16A3.82,3.82,0,0,1,470.88,162.15Z"/><path class="cls-6" d="M513.89,184.62c.25-.1.72-.08,3.94,3.13a26,26,0,0,1,2.61,2.85c1.46,2,2.31,3.1,1.91,4.23a3,3,0,0,1-3.3,1.68c-.93-.25-1.06-1-2.44-3.19-2.09-3.36-3.12-3.78-3.36-5.74C513.13,186.59,513.17,184.91,513.89,184.62Z"/><path class="cls-7" d="M481.78,328.2a14,14,0,0,0-.5,4,5.53,5.53,0,0,0,.31,2.82,4.33,4.33,0,0,0,1.44,1.75,4.43,4.43,0,0,0,2.75.75,6.52,6.52,0,0,0,2.38-.62,13.61,13.61,0,0,0,2.19-1.07c2.52-1.5,7.38-2,10.45-2.31,2.35-.24,3.78-.27,6.39-.75a22.63,22.63,0,0,0,4.19-1.63,2.77,2.77,0,0,0,1.56-1.38,1.54,1.54,0,0,0-.06-1.38,1.33,1.33,0,0,0-.81-.37c-1.1-.27-1.18-.52-2-.75a8.29,8.29,0,0,0-2.81-.06s-.77,0-3.44-.25c-4-.41-7.14-2.24-11.21-2.57S482.94,325.26,481.78,328.2Z"/><path class="cls-8" d="M494.58,130a33.49,33.49,0,0,1-1.57-4.57,21.93,21.93,0,0,1-1.22-6.26,19.63,19.63,0,0,1,.61-4.84,12.51,12.51,0,0,1,1.57-4.63,15,15,0,0,1,3.2-3.21,24,24,0,0,1,3.27-2.45,21.78,21.78,0,0,1,5-2.11c3.2-1,5.58-1.68,8.66-1.29a16.82,16.82,0,0,1,7.35,3,46.26,46.26,0,0,1,5.52,4.91c4.46,4.26,3,3.54,5.38,5.65a7.15,7.15,0,0,1,2,2.59,9.7,9.7,0,0,1,.61,2.86c0,.42.08,1.28.14,3s0,1.39.07,2.11a18.85,18.85,0,0,1,.06,3.34,8.17,8.17,0,0,1-.61,2.18,10.33,10.33,0,0,1-1.29,2.11,11.16,11.16,0,0,1-1.71,2,10.05,10.05,0,0,1-2,1.36c-.43.23-.81.4-1.57.75s-1.08.44-1.84.82l-1.09.54h0a10.14,10.14,0,0,0-.34,1.91,15,15,0,0,1-.07,2.32,1.27,1.27,0,0,1-.34.74,2.34,2.34,0,0,1-.68.41h0c-1.13.28-1.29.62-1.29.62-.11.21,0,.28.13,1.09a2.27,2.27,0,0,1,0,1,1.66,1.66,0,0,1-.61.75,2.8,2.8,0,0,1-.89.41,2.49,2.49,0,0,1-.68.13c-.56,0-.78-.2-.95-.06s0,.3-.14.74a1.35,1.35,0,0,1-.48.82c-.13.1-.27.12-.88.14s-.8,0-1.23,0h-1.29l-1.36,1c-.76.54-.8.58-1,.62a2,2,0,0,1-1.43-.48,10.87,10.87,0,0,1-2.59-2.79c-1.06-1.78-1.56-1.37-5.11-4.77a53.37,53.37,0,0,1-4.15-4.43A32.4,32.4,0,0,1,494.58,130Z"/><path class="cls-9" d="M503.19,113.54a4.56,4.56,0,0,0-1.13,2.48,25.43,25.43,0,0,0,.38,9.18,41.49,41.49,0,0,0,2,7.6,18.22,18.22,0,0,0,2.63,5.26,11.41,11.41,0,0,0,5.27,4.14,10.86,10.86,0,0,0,5.26.45,6,6,0,0,0,3.61-1.28,5.4,5.4,0,0,0,1.58-3.38c.22-1.57-.28-2-.75-5.12-.37-2.4-.54-3.61.08-4.29.92-1,2.47-.13,3.46-1.2.81-.88.64-2.44.3-3.38-.64-1.78-2.17-2.28-5.19-4-2.7-1.53-5.21-3.38-7.83-5-2.9-1.84-4.39-2.75-6.24-2.71A5,5,0,0,0,503.19,113.54Z"/><path class="cls-10" d="M504.13,331.8a6.19,6.19,0,0,0,1.79,2.09,6,6,0,0,0,3.05,1c4.1.43,2,.72,7.41,1.2,5.57.48,8.35.73,9.56.71.58,0,3.72-.06,4.06,1a1.89,1.89,0,0,1,0,1,1.8,1.8,0,0,1-.48.78,2,2,0,0,1-1.07.48,19.14,19.14,0,0,0-4.13,1.13c-.43.21-.38.27-2.51,2.27-1.37,1.3-2.06,1.95-2.45,2.28-1.61,1.34-3.25,2.7-5.43,2.92-1.07.11-.94-.18-3.65-.42-.71-.06-1.39-.09-4.18-.11-3.67,0-5.51-.05-6.33,0a21.1,21.1,0,0,1-4.9,0,5.73,5.73,0,0,1-2.81-1,4.72,4.72,0,0,1-1.73-2.45c-.25-.87,0-2,.47-4.12.36-1.6.47-1.71.66-2.69a19.83,19.83,0,0,0,.3-4.07c0-4.88-.85-6.77.3-7.7a2.78,2.78,0,0,1,1.43-.42c1.33-.2,2.4,0,5.32,1,3.54,1.2,3.81,1.48,4,1.74C503.57,329.41,503.12,330.07,504.13,331.8Z"/><path class="cls-11" d="M498.87,343.87a4.24,4.24,0,0,1-2.45,1.56c-.13,0-2.49.51-3.7-1a3.89,3.89,0,0,1-.66-2.63c0-1.32.31-1.58.66-3.34.49-2.53.08-3.35.89-5.14.1-.21.75-1.65,1.2-1.56s.29,1.07.59,2.87a9.66,9.66,0,0,0,.9,3.41c1.12,1.75,2.85,1.34,3.35,2.81A3.62,3.62,0,0,1,498.87,343.87Z"/><path class="cls-12" d="M521.55,339.91c.21-.37.78-.3,2.74-.3a19.63,19.63,0,0,1,2.44,0,5,5,0,0,1,3,1.24,2.56,2.56,0,0,1,.64,1.07,1.58,1.58,0,0,1,0,1,1.37,1.37,0,0,1-.38.6,1.79,1.79,0,0,1-.86.47,2.21,2.21,0,0,1-1,0,5.05,5.05,0,0,1-1.15-.39c-.91-.43-1-.26-2.48-.77s-2.12-.75-2.62-1.45C521.84,341.18,521.27,340.38,521.55,339.91Z"/><path class="cls-13" d="M520.18,341.45c1-.81,2.21,0,5.18.34a3.48,3.48,0,0,1,1.45.47,3.12,3.12,0,0,1,.73.6c.3.32.86.93.73,1.58a1,1,0,0,1-.3.56,1.18,1.18,0,0,1-.77.26,1.84,1.84,0,0,1-.94-.26c-1.28-.65-1.51-1-2.23-1.2a4.12,4.12,0,0,0-1,0c-1.08,0-3.2-.07-3.51-.86C519.33,342.46,519.72,341.81,520.18,341.45Z"/><path class="cls-14" d="M518.85,343.46c.54-.76,1.94-.53,4.37-.13a4.81,4.81,0,0,1,2,.69,2.3,2.3,0,0,1,1.16,1.54.84.84,0,0,1-.17.64c-.08.09-.2.15-.77.21a4.84,4.84,0,0,1-1.16,0,3.56,3.56,0,0,1-.9-.26,14,14,0,0,0-2.18-.47c-1.44-.34-2.28-.53-2.53-1.16A1.23,1.23,0,0,1,518.85,343.46Z"/><path class="cls-15" d="M517.78,344.74a4.44,4.44,0,0,1,2,0,21.82,21.82,0,0,1,2.23.3,4,4,0,0,1,1.67.6,1.38,1.38,0,0,1,.68.86,1.27,1.27,0,0,1-.38,1,2.2,2.2,0,0,1-1.12.6,8,8,0,0,1-1.79.3l-2.19.21c-2.05.19-1.92.27-2.74.3-1.36.06-3.68-.1-3.81-.77-.06-.34.46-.7,1.24-1.24a29,29,0,0,1,2.66-1.37,10.55,10.55,0,0,1,1-.48Z"/><path class="cls-16" d="M536.2,233a8.1,8.1,0,0,0-1.9,3.41,7.29,7.29,0,0,0-.43,3.41,6.61,6.61,0,0,0,1.55,3.4,7.31,7.31,0,0,0,3.38,2.27,9.77,9.77,0,0,0,4.49.48,20,20,0,0,0,5.71-1.61c1.31-.5,1.16-.51,4.15-1.7a18.21,18.21,0,0,1,3.81-1.33c.55-.09,2.32-.33,3.11-.47a7.18,7.18,0,0,1,1.2-.25c.09,0,.15,0,.18,0,.22-.25-.67-1.5-1.21-2.27-3.19-4.54-3-4.48-3.72-5.2-.12-.13-1.06-.91-2.94-2.46a18.81,18.81,0,0,0-2.76-2.18c-1.13-.47-2.7,0-5.8.85-1.86.54-3.12,1-5.62,2C537.48,232.06,536.87,232.36,536.2,233Z"/><path class="cls-17" d="M550.39,232.1c-.54.18-1.21,1-2.51,2.68a23.66,23.66,0,0,1-2.41,3c-1,.92-1.25.84-2.51,2a15.44,15.44,0,0,0-2,2.17c-1.28,1.68-2.1,2.76-1.81,3.8.55,2,4.74,2.53,5.22,2.6,2.4.32,3-.31,8-1.21,5.32-1,7.34-.75,8.63-2.34a4.42,4.42,0,0,0,.9-2.42,6.56,6.56,0,0,0-1.5-4.5,13.75,13.75,0,0,0-5-4.24C553.37,232.51,551.8,231.63,550.39,232.1Z"/><path class="cls-18" d="M536.11,231.28c-.63-.15-2,3-2.62,4.9a35.1,35.1,0,0,0-1.71,7.85,74.14,74.14,0,0,0-.57,8c0,3.17.13,7.49,1.6,19.24.84,6.77,1.6,12.89,2.84,19.23,1.44,7.4,1.94,9.57,1.94,9.57.82,3.59.95,3.7,1,4.89.22,3.73-.93,6,.46,7.86a3,3,0,0,0,1.82,1.36,3.18,3.18,0,0,0,1.82-.34c2.62-.92,5.12,2.37,6.65,1.66,1.27-.58,1-3.51.89-5.86-.47-8.47.74-6.4.18-14.21-.38-5.22-.7-9.71-2.49-15.28-1.92-6-3.38-6.52-4.53-12.26-.8-4-1.42-7.33,0-10.87.6-1.48,1.35-2.49,2.43-5.5,1.78-4.91,1.06-5.78.77-6s-.77-.2-1.81-.22c-1.39,0-1.78.13-2.76.14a8.37,8.37,0,0,1-3.54-.63,7.87,7.87,0,0,1-2.43-1.64,6.08,6.08,0,0,1-1.55-7.28c.79-1.73,2.09-2.42,1.89-3.87C536.39,231.8,536.33,231.34,536.11,231.28Z"/><path class="cls-19" d="M550.73,223.94c.18,1-1.53,1.95-1.56,4.44a5.59,5.59,0,0,1,0,1.23c-.21,1.14-1.08,2-2.76,3a23.25,23.25,0,0,1-5.71,2.17c-3.86,1.16-5,1.43-5.54.76s.05-1.18-.43-2.27c-.73-1.68-2.45-1.37-3.29-2.84s-.28-3.28.26-4.34,1.65-2.39,6.58-3.31C543.88,221.76,550.39,222.09,550.73,223.94Z"/><path class="cls-20" d="M523.75,212a5.13,5.13,0,0,1-.61-3.11,19.83,19.83,0,0,1,2.42-8.91,14.44,14.44,0,0,1,5.88-6.22,13.26,13.26,0,0,1,2.17-.87c1-.32,4.53-1.3,11.58,0,4.82.89,7.68,1.42,10.38,3.81a16.89,16.89,0,0,1,2.86,3.46,18.8,18.8,0,0,1,3.72,8.47,16.79,16.79,0,0,1-1,7.87,16.29,16.29,0,0,1-3.89,6.57,14.14,14.14,0,0,1-5.37,3.2,4.16,4.16,0,0,1-1.73.18,4.87,4.87,0,0,1-2.85-1.65c-.18-.19-2.69-1.71-7.7-4.75-5.73-3.48-8.59-5.22-10.72-5.71C527,213.94,524.85,213.74,523.75,212Z"/><path class="cls-21" d="M524.44,210.39c-.33.74.38,1.9-.26,3.63a8.62,8.62,0,0,1-.52,1.13c-.51.92-.78,1-1.12,1.64A5.19,5.19,0,0,0,522,219c-.06.66,0,.68,0,2.08a9.89,9.89,0,0,1-.09,1.81c-.3,1.11-.93,1.41-.78,2.17.06.25.26.86.26.86h0s.76,0,1,.35-.12.49-.17.95,0,.66.61,1.47a6.75,6.75,0,0,0,1.73,2,5.16,5.16,0,0,0,3.37.6c6-.45,9-.67,12.11-2.33a10.75,10.75,0,0,0,3-2.08,9.45,9.45,0,0,0,2.77-6.57c-.27-5.73-8.55-8.7-11.07-9.6C530,208.94,525.09,208.92,524.44,210.39Z"/><path class="cls-22" d="M530.49,217.48c-2.22.9-3,.18-4.15,1.13a5.08,5.08,0,0,0-1.38,5.44,5.52,5.52,0,0,0,2.68,2.94c.71.41,2,1,5.1.78,4.27-.24,6.67-.37,8-2.25,1.64-2.23,1.33-5.74-.43-8-1.17-1.53-3.41-3.07-5.53-2.68C533.07,215.13,533,216.46,530.49,217.48Z"/><path class="cls-23" d="M546.05,312.5c-.09.9,5.61,20.92,7.21,24.8a4.14,4.14,0,0,1,.45,3.07,2.62,2.62,0,0,1-.81,1.09c-.8.6-1.45.26-2.8.45-2,.28-2.25,1.28-4.25,1.53a9.93,9.93,0,0,0-1.62.37c-.73.2-1,.32-1.18.54a1.32,1.32,0,0,0-.36,1.26c.13.33.4.31.9.72s.58.82,1,1.18a2.69,2.69,0,0,0,1.89.45,17.27,17.27,0,0,0,3.62-.54,44.62,44.62,0,0,1,4.51,0c2.38,0,2.95.07,4.07,0,1.89-.13,2.84-.21,3.43-.72,1-.9.86-2.54.63-4.7-1-9.74-6.75-30.1-7.3-30.67-1.68-1.74-4.82-3.11-7.14-1.9A4.25,4.25,0,0,0,546.05,312.5Z"/><path class="cls-24" d="M554.61,323.69c-.1,1.52.84,3.51,2.71,7.49,0,0,2.81,6,3,9.22a5.24,5.24,0,0,1-.18,1.64,3.91,3.91,0,0,1-1.08,1.88,3.79,3.79,0,0,1-1.54.72,12.77,12.77,0,0,0-4.06,2.26c-1.39,1.1-1.23,1.53-2.35,2.08a12.57,12.57,0,0,0-1.72,1c-.71.5-.9.74-.9,1,0,.46.59.82.72.91.49.3.73.14,1.09.45s.22.58.54.81c.59.42,1.71,0,1.71,0h0a12.65,12.65,0,0,0,1.45.36,3.4,3.4,0,0,0,1.9,0c.47-.17.49-.37,1.17-.81a7.48,7.48,0,0,1,1.54-.72c1.55-.6,2.32-.9,3.52-1.27a26.18,26.18,0,0,1,3.07-.81c1.43-.27,1.77-.18,4.06-.54,1.66-.26,2.21-.43,2.71-.9a3.49,3.49,0,0,0,.91-1.81,4.88,4.88,0,0,0-.73-3.7,4.56,4.56,0,0,0-1.89-1.54,18.79,18.79,0,0,1-1.81-3.79,19.41,19.41,0,0,1-1-4.7c-.75-6.84-1.15-10.32-2.53-12.64-.73-1.23-2.19-3.68-4.34-3.8C557.78,316.31,554.84,320.15,554.61,323.69Z"/><path class="cls-25" d="M531.77,256.12a19.61,19.61,0,0,1-3.53,2.79,32.77,32.77,0,0,0-3.15,2.1,4.18,4.18,0,0,0-1.67,1.92,2.54,2.54,0,0,0,0,1.92c.08.18.38.8.93.92.39.09.61-.16.86,0s.09.54.37,1a1.67,1.67,0,0,0,1,.68,1.37,1.37,0,0,0,1.24-.18,1,1,0,0,0,.31-1.11c-.17-.29-.52-.2-.62-.44s.43-.87.62-1a5.3,5.3,0,0,1,1.86-1.11c3.43-1.17,3.56-1.12,3.83-1.43.89-1,.68-2.83.06-4A4.45,4.45,0,0,0,531.77,256.12Z"/><path class="cls-26" d="M528.7,260.73a8.1,8.1,0,0,0-1.86,0,5.26,5.26,0,0,0-2.59,1.18,4.84,4.84,0,0,0-1.49,2.1c-.43,1.22-.47,2.94.43,3.84a1.24,1.24,0,0,0,.93.43c.43-.06.69-.5.87-.8a3.4,3.4,0,0,0,.37-1.49,5.4,5.4,0,0,1,.49-2.35c.64-.9,1.88-.27,4.09-1,1.51-.49,2.89-1.43,2.78-1.79S531.53,260.87,528.7,260.73Z"/><path class="cls-27" d="M527.63,259.16a7.56,7.56,0,0,0-1.86,0,5.27,5.27,0,0,0-2.6,1.17,4.91,4.91,0,0,0-1.48,2.11c-.44,1.22-.47,2.94.43,3.83a1.17,1.17,0,0,0,.93.43c.43-.05.69-.5.86-.8a3.11,3.11,0,0,0,.37-1.48,5.57,5.57,0,0,1,.5-2.36c.64-.9,1.88-.27,4.08-1,1.51-.49,2.9-1.42,2.79-1.79S530.46,259.29,527.63,259.16Z"/><path class="cls-28" d="M527.63,257.64a7.56,7.56,0,0,0-1.86,0,5.37,5.37,0,0,0-2.6,1.17,5,5,0,0,0-1.48,2.11c-.44,1.22-.47,2.94.43,3.83a1.21,1.21,0,0,0,.93.44c.43-.06.69-.5.86-.81a3.08,3.08,0,0,0,.37-1.48,5.51,5.51,0,0,1,.5-2.35c.64-.91,1.88-.28,4.08-1,1.51-.49,2.9-1.43,2.79-1.8S530.46,257.77,527.63,257.64Z"/><path class="cls-29" d="M563,343.61c.16.5.58.78,1.15,1.15a3.39,3.39,0,0,0,2.14.68c.15,0,1.6-.15,2-1.14.28-.72-.16-1.45-.69-2.3s-.94-1.53-1.76-1.6a2.08,2.08,0,0,0-1.45.61C564.24,341.11,562.62,342.38,563,343.61Z"/><path class="cls-30" d="M571.37,343.07a2,2,0,0,0-1.19.29c-.4.25-.52.54-1,1.23a6.44,6.44,0,0,1-1,1.4c-.46.33-.85.26-3,.15a14.28,14.28,0,0,0-2.42,0,5,5,0,0,0-2.52,1.37c-.63.65-.36.78-1.12,1.66a5.83,5.83,0,0,1-2.12,1.73,5.69,5.69,0,0,0-1.23.61c-.35.25-.61.35-.72.62a.9.9,0,0,0,0,.72c.25.52,1.13.59,1.66.54.89-.09,1.19-.6,2.2-1.16a11.59,11.59,0,0,1,2.48-.82c2.16-.62,3.23-1,3.93-1.09.5-.08.22,0,3.1-.36,1.95-.23,2.6-.32,3.32-.83a3.85,3.85,0,0,0,1.26-1.47,3.55,3.55,0,0,0,.22-2.46C573.21,345,572.67,343.23,571.37,343.07Z"/><path class="cls-31" d="M481.63,163.17c-2.56,2.46,1.2,6.36,1.48,17,.09,3.61-.25,6.77,1.48,10.85a9.32,9.32,0,0,0,3.08,4.32c2.81,2,7.34,2.15,9.5-.13.82-.87,1.37-2.18,1.35-4.93,0-6.59-3.25-8.62-6.16-16.9-2.24-6.36-1.87-9.5-4.69-10.85C485.88,161.69,483.14,161.71,481.63,163.17Z"/><path class="cls-32" d="M546.1,217.73a4,4,0,0,1,2,.07,3,3,0,0,1,1.72,1,2.86,2.86,0,0,1,.61,2,3.15,3.15,0,0,1-.34,1.18,6.05,6.05,0,0,1-1.39,1.86,8,8,0,0,1-2.46,1.55c-1.33.59-2.76,1.23-3.65.61a1.57,1.57,0,0,1-.61-.88,1.88,1.88,0,0,1,.31-1.38C544.1,220.51,544.17,218.23,546.1,217.73Z"/><path class="cls-33" d="M476.43,156.56c-.84.46-2.3,1.39-5.55,5.59-1.42,1.84-2.44,3.34-4.05,5.8a105.64,105.64,0,0,0-6.55,10.66c-1.71,3.54-2.56,5.36-2.66,8a14.35,14.35,0,0,0,1.69,7.27c1.8,3.25,4.47,4.77,6.79,6.06,2.17,1.21,11.5,6.4,16.72,2.42,1.81-1.38,2.39-3.31,3.15-5.81,1.24-4.14.71-7.06-.25-15-.92-7.7-1.38-11.55-1.45-13.33-.3-7.83.68-11.5-1.46-12.8S477.59,155.93,476.43,156.56Z"/><path class="cls-34" d="M507.69,136.7c-.15-1.32-2.63-2.08-4.28-2.59a13.56,13.56,0,0,0-7.65,0,10.93,10.93,0,0,0-4.73,2.47c-1.79,1.68-2.4,3.58-3.26,6.42-1.33,4.34-2.34,7.32-1.36,8,1.31.89,4.19-3.51,11.71-8.1C503.79,139.42,507.87,138.44,507.69,136.7Z"/><path class="cls-35" d="M510.49,142.32c.92.24,1.41,2,2.34,5.43,1.46,5.42,2.19,8.13,2.22,8.26,1.38,6.83,2.32,6.62,4.44,15.05,2.46,9.78.83,8.64,2.84,15.79.22.78.35,4.18.61,11a1.62,1.62,0,0,1-.37,1.24c-.89.85-3.1-.3-4.81-1-5.63-2.28-7.3-.12-14.3-2.59a16.85,16.85,0,0,1-4.2-1.85c-2.41-1.66-3.77-3.95-6.41-12s-4-12.27-3.21-15.54a63.69,63.69,0,0,1,3.09-7.16c2.69-5.85,3.56-6.8,4.19-7.4,2.45-2.31,3.62-1.33,7.15-3.82C508.12,144.89,509,141.93,510.49,142.32Z"/><path class="cls-36" d="M485.51,145.58c.1-1.38,7.66-5,7.66-5,6.06-2.85,6.82-3.22,8.55-3.71,3.09-.87,5.58-1.54,7.32-.22.91.69,1.32,1.71,2,3.48a10.1,10.1,0,0,1,1,4.39,8.68,8.68,0,0,1-2.92,5.63c-1.49,1.41-2.67,1.67-7.77,3.6-2.24.85-5.39,2.12-5.39,2.12a4.84,4.84,0,0,1-.37-.42,4.92,4.92,0,0,1-.84-3.08c0-2.34-2.31-5-4.57-6.11a16.37,16.37,0,0,0-4.4-.56s-.19,0-.26,0A.16.16,0,0,1,485.51,145.58Z"/><path class="cls-37" d="M495.37,152.4c0-1.57-1.23-2.83-2.44-4.06a10.43,10.43,0,0,0-2.2-1.74c-.88-.51-2.72-1.58-4.41-1.28-2.74.48-5.13,4.55-4.3,8.13.58,2.49,2.76,4.91,5.34,5.1,1.62.13,2.86-.66,4.18-1.51S495.37,154.6,495.37,152.4Z"/><path class="cls-38" d="M479.57,280.65a12,12,0,0,0-2.9,6.88c-.07,1.84.46,2.53,0,4.19-.23.86-.63,1.6-3.43,4.62-3,3.19-4,4-4.2,5.69a3.88,3.88,0,0,0,.54,2.48c.73,1.05,1.84,1.17,3.33,1.71a16.38,16.38,0,0,1,4.95,3c1.88,1.78,1.52,2.78,3.76,4.84a13.56,13.56,0,0,0,2.47,1.82c2.44,1.32,4.59.51,12.68-1.5a35.34,35.34,0,0,0,10.2-3.76,4.79,4.79,0,0,0,2.58-2.79c.19-.82-.3-2.06-1.29-4.52-1.35-3.37-1.41-3.51-1.5-3.86a12.29,12.29,0,0,1,.21-5.7c.42-2.35,1.29-7.18-.21-11.07a13,13,0,0,0-8.49-7.41c-2.68-.75-4.79-.35-7.74.21C486.76,276.21,482.53,277,479.57,280.65Z"/><path class="cls-39" d="M485.4,264.56c2.69,5.26,1,9.72.37,18.68-.59,8.56.79,7,.12,13.72a138.92,138.92,0,0,1-5.19,25.73c-.4,1.24-1.83,5.6-.25,6.8.15.11.49.32,3.34.25,2-.05,3.54-.2,4.08-.25,4.11-.39,4.24-.58,5.07-.37,1.67.42,1.84,1.36,3.84,2.84,2.15,1.61,6.36,3.78,8.53,2.35,1.06-.69,1.29-2,1.61-4.08a24.73,24.73,0,0,0-.37-8.16c-.17-1.19-.16-4-.13-9.65,0-8.11.43-8.07.37-13.23a119.22,119.22,0,0,0-1-13.6c-1.11-9.58-1.88-8.82-1.85-13,.06-8.77,3.46-11.85,1.11-15.46-2-3-6-3.49-7.91-3.71-6.29-.74-13.51,2.55-14,6.43C483,261.52,484.14,262.1,485.4,264.56Z"/><path class="cls-40" d="M470.37,232.12c-1.27,2.39,2.57,3.13,3.05,8.93.23,2.76-.46,4.75,1.7,7.34a12.7,12.7,0,0,0,3.39,2.78c.27.16,5.7,3.31,11.19,3.18,7.95-.18,13.25-7.17,14.92-11.32.8-2,4.43-11-5.09-15.08C489.73,223.73,472.76,227.63,470.37,232.12Z"/><path class="cls-41" d="M486.43,147c-.56.09-1.26.76-2.67,2.08s-2.19,2.08-2.67,3.26a6.75,6.75,0,0,0-.34,3.48c.13,1.13.52,2.36,2.32,5.1a42.89,42.89,0,0,0,3.36,4.53c3.26,3.7,5.16,5.49,7.2,7.66,5.84,6.22,10,10.68,11.61,14.51a5.92,5.92,0,0,0,2.09,2.79,6.9,6.9,0,0,0,3.83.93c1.84.08,3.71.16,4.64-1a3.68,3.68,0,0,0,.58-2.32,5.77,5.77,0,0,0-.69-2.67,30.11,30.11,0,0,0-4-5.57c-.29-.34-3-3.45-5.34-6.85-1.2-1.73-2-3.05-2.79-4.41-3.32-5.62-3.06-6.54-5.34-9.87-.28-.41,0-.06-5.45-6.26C489.31,148.25,488,146.68,486.43,147Z"/><path class="cls-42" d="M516.7,202.08a3.16,3.16,0,0,0,1.18,2.6,1.47,1.47,0,0,0,1.28.35,1.92,1.92,0,0,0,1.33-1.27,4,4,0,0,0-.15-3.31c-.27-.3-.94,0-2.28.64C516.93,201.62,516.77,201.79,516.7,202.08Z"/><path class="cls-43" d="M476.79,231c-.62,1.59.57,2.58.8,6,.1,1.6-.26,3.39-1,6.95a45.55,45.55,0,0,1-2.18,8.34c-1.26,3.16-2.06,3.72-2.58,6.35a19.8,19.8,0,0,0-.2,5.16,39.47,39.47,0,0,0,1.79,9.33c2.92,9.59,4.39,14.38,6.75,14.89,2.19.47,4.44-1.41,6.55-3.17,4.47-3.75,4.26-7,6.35-7.35,4.55-.79,9.3,14,13.1,13.1,1-.22,1.11-1.36,3-5.36,2.39-5.12,3.08-5.07,5.76-10.32a87.17,87.17,0,0,0,4.76-11.32,61.41,61.41,0,0,0,3.38-12.3,46.12,46.12,0,0,0,0-14.1c-.91-5.29-1.49-8.66-4.17-11.31-3.49-3.45-8.48-3.22-15.29-3-7.38.26-5.5,1.92-19.85,4.76C481,228.12,477.66,228.7,476.79,231Z"/><path class="cls-44" d="M488.31,230.75c-1.58,2.67.51,4.62-.8,10.52a24.4,24.4,0,0,1-2.78,6.95c-3.21,5.72-6.61,7.15-7.34,11.71-.35,2.18.2,3.24.59,3.77a4.82,4.82,0,0,0,2.78,1.59,20.11,20.11,0,0,0,6.35,1.19c2.15,0,8.22.19,13.11,3.18a86,86,0,0,1,7.54,5c.8.65,1.81,1.51,2.58,1.19,1-.4.83-2.34,1-4.36.19-2.33.58-2.53,2.19-8.14,0,0,1.67-5.83,3-11.92,2.1-9.75,4.11-19.09-.39-23.22-2.45-2.25-6.46-2-14.49-1.39C494.88,227.26,490.16,227.6,488.31,230.75Z"/><path class="cls-45" d="M536,265.68c-1.51,1.75-.13,4.22,1.13,10.92a79.93,79.93,0,0,1,1.28,9.93c.31,5-.18,5.75.56,8.66.62,2.4,1.08,2.39,3,7.23,1.39,3.53,1,3.22,2.56,7.24,2.25,5.9,2.64,5.52,3.69,9.08.67,2.3.68,3,1.56,4.11,1.67,2,4.25,2.51,6.1,2.84a10.89,10.89,0,0,0,6.8-.43,9.75,9.75,0,0,0,4.26-3.69,10.26,10.26,0,0,0,1.28-3.26,19.27,19.27,0,0,0,.28-3.83s.06-1.57.43-4.54a56,56,0,0,1,1.7-7.94c1-3.79,1.17-3.89,1.7-6.39.74-3.44,1.1-5.2.57-6.81a8.55,8.55,0,0,0-4.26-4.68c-2.24-1-3.06,0-7.23-.56a21,21,0,0,1-6.53-1.85A19.16,19.16,0,0,1,549,277c-6-6.63-5.75-12.06-9.37-12.63A4.25,4.25,0,0,0,536,265.68Z"/><path class="cls-46" d="M571.57,298c.58,0,1-1.1,2.87-8a49.76,49.76,0,0,0,1.44-6c.29-2.48.64-5.45-.46-8.32a34.72,34.72,0,0,1-1.21-3.39c-.08-.28-.35-1.22-.64-2.58-.44-2.06-.37-2.5-.74-4.62-.47-2.68-.68-2.52-.92-4.43-.29-2.26,0-2.31-.28-4.06s-.71-1.95-1.48-4.62c-.72-2.5-.43-2.55-1.11-4.71a11.69,11.69,0,0,0-2.17-4.58,8.85,8.85,0,0,0-3.09-2.29,9.57,9.57,0,0,0-6.11-.21c-1.36.31-1.68.6-5.8,2.62-4.57,2.24-4.6,2.1-5.27,2.63-1.59,1.28-2.31,3.54-3.77,7.9-1.31,3.88-2,5.82-2.05,8.3a20.46,20.46,0,0,0,1,7c.79,2.67,3.31,11.09,10.19,14.31,2.27,1.07,2.84.54,9.38,2.86,3.47,1.23,4.57,1.83,5.5,3s.85,1.67,2.75,5.84C571,297.74,571.27,298,571.57,298Z"/><path class="cls-47" d="M568.67,256.93a7.34,7.34,0,0,1,.25,3.59,5.94,5.94,0,0,1-.56,1.86,4,4,0,0,1-4.58,2.35,7.46,7.46,0,0,1-4.27-2.54c-1.5-1.54-3.13-3.21-2.84-5.13.39-2.65,4.27-4.78,7.54-4A6.37,6.37,0,0,1,568.67,256.93Z"/><path class="cls-48" d="M559.27,258.67c2.22-.31,3.36-.45,4.7.06a4.69,4.69,0,0,1,2.91,2.6A3.14,3.14,0,0,1,567,263c-.37,1.62-2.17,2.42-3.16,2.84-1.85.8-3.41.85-6.06.87-5.31,0-8,.05-9.34-.31-2.75-.71-3-1.44-6.19-2.35a16.34,16.34,0,0,1-2.78-1.3c-1-.54-1.44-.88-1.49-1.36a1.62,1.62,0,0,1,.62-1.18,2.65,2.65,0,0,1,1.42-.62,8.68,8.68,0,0,1,3,.07,27.13,27.13,0,0,0,7.06.37,34.52,34.52,0,0,0,4.27-.37C556.66,259.3,557.07,259,559.27,258.67Z"/><path class="cls-49" d="M542.47,260.38c.1-.44-.52-1.15-1.75-2.56a13.68,13.68,0,0,0-2.19-2.2,8.07,8.07,0,0,0-2-1.1,11.28,11.28,0,0,0-2.44-.49,5.19,5.19,0,0,0-1.83.08.91.91,0,0,0-.61.37.66.66,0,0,0,0,.69c.17.2.44.15.86.2a8.84,8.84,0,0,1,1.34.45c.59.22.45.2,1.46.61.68.28.78.3.94.45a2.26,2.26,0,0,1,.57,1.14c.3,1,.27,1.27.41,1.67a3.11,3.11,0,0,0,2.31,1.95C540.79,261.85,542.28,261.25,542.47,260.38Z"/><path class="cls-50" d="M538.08,258.55c-1.08-.54-1.92-.88-2.48-1.1-1.15-.46-.73-.23-2.28-.81a9.86,9.86,0,0,0-1.75-.45c-.47-.09-.8-.12-1,.08a1.08,1.08,0,0,0-.25.69,2,2,0,0,0,0,.81c.09.34.19.37.16.53s-.42.5-.65.61-.45.1-.65.25a1.19,1.19,0,0,0-.36,1.18c.08.35.37.58.93,1l1.59,1.22a7.4,7.4,0,0,0,3.17,1.1,10,10,0,0,0,2.81-.28c1.74-.31,2.62-.48,3-1.1a2.2,2.2,0,0,0,.2-2C540.52,260.09,540.29,259.64,538.08,258.55Z"/><path class="cls-51" d="M549,251.34c-.07,1.9-.11,2.33.23,2.91.56,1,1.5,1.22,1.61,2.23.06.62-.25.92,0,1.38s.74.36,1.3.76c1.09.79.54,2.19,1.46,2.69.3.17.42,0,2.07-.08,1-.07,1,0,1.76-.08,1.77-.12,2.17-.4,4.52-.69a12.2,12.2,0,0,0,1.39-.15c1.59-.44,1.83-1.5,3.37-1.84a7.49,7.49,0,0,1,1.53-.08c1.61,0,2.27.28,2.53-.07s.08-.49-.3-1.54c-.49-1.31-.88-2.27-1.08-2.76-.61-1.55-.43-1.5-.92-2.6a23.73,23.73,0,0,0-1.3-2.38,16.72,16.72,0,0,0-1.61-2.53c-.68-.69-1.29-.88-3.07-1.54-4.56-1.68-4.31-1.85-5.29-1.91a10,10,0,0,0-4.6,1c-1.7.69-2.55,1-3.14,1.91C549.05,246.56,549.15,246.81,549,251.34Z"/><path class="cls-52" d="M520.18,218.18h2.44s2.55,6.46.39,9.69h-2.55Z"/><path class="cls-53" d="M501.94,232.37s-7.42,1.15-33,1.4h-13.3s-6.67-.45-7.2-6.25,0-23.77,0-23.77l.3-6.38a5.93,5.93,0,0,1,5.82-5.2H487.1S485.2,210.48,501.94,232.37Z"/><path class="cls-54" d="M517.38,197.83a1.21,1.21,0,0,1,.34-1.53c.69-.46,1.88.3,2.6.77a5.07,5.07,0,0,1,1.87,1.83,5.61,5.61,0,0,1,.56,3.24,5.5,5.5,0,0,1-.6,2.81,3,3,0,0,1-.89,1,3.49,3.49,0,0,1-2.43.38,58.48,58.48,0,0,0-7.64-.34c-2.36,0-3.81.4-5-.6-.32-.27-.86-.85-.73-1.06s.54,0,1.41.08c.59.09,1.19.1,1.79.17,2.45.28,4.36-.12,7.8.17,2.09.18,2.84.46,3.54-.13a3.44,3.44,0,0,0,.89-2.55,4,4,0,0,0-.76-2.73,3.25,3.25,0,0,0-1.49-1.15C518,198,517.61,198.14,517.38,197.83Z"/><path class="cls-55" d="M518.63,217.9h2.44s2.55,6.87.39,10.31h-2.55Z"/><path class="cls-56" d="M517.41,195.14l2.22.22a6.5,6.5,0,0,1,5.63,5.73c.62,5.21-.84,7.81-.84,7.81s-4.34,5.07-4.39,7.21,2.05,9.65-.33,12.54-17.47,3.72-17.47,3.72c-7,.67-17.67.85-17.67.85L471,192.17H487.4l20.57,2,0,2.45-2.69-.19s-1-.18-.56,1.21,1.39,6.48,1.39,6.48.28.83.84,1,8.61.55,8.61.55l3.62.28s2.13,0,2.31-1.11.93-3.43-.18-5.74a4,4,0,0,0-3.89-2Z"/><path class="cls-57" d="M506.41,187.52c-.33.57-.29.89-.29,3.95s0,3.23,0,5.56c0,1.43,0,2.25.11,3.25.1,1.41-.19,2.07.24,2.43s.86,0,2.31.06a17.62,17.62,0,0,1,2.32.35c2.29.42,2.09.55,2.84.58a17.54,17.54,0,0,0,3.25-.58,7.53,7.53,0,0,0,2.32-.7,3.61,3.61,0,0,0,1.68-1.62c.18-.4.28-.91-.17-3.13a20.3,20.3,0,0,0-.76-3.07,18.26,18.26,0,0,0-2.26-4.18c-1.43-2.23-2.15-3.35-3-3.94a6.67,6.67,0,0,0-4.41-1.22C510,185.32,507.47,185.66,506.41,187.52Z"/></g><g id="_LAYER-18_P8_" data-name="&lt;LAYER-18_P8&gt;"><path class="cls-58" d="M963.14,200.63c0-.62,7.49-2.7,9.44-4.2a16.42,16.42,0,0,0,2.82-3.08,17.61,17.61,0,0,0,2.46-3.7A14.32,14.32,0,0,0,979,186a17.4,17.4,0,0,0,0-5.2c-.4-3.53-1.23-5.24-.44-5.81.25-.19.38,0,2.29,0,1.29,0,1.41-.06,2.2,0a5.43,5.43,0,0,1,2.38.44c.51.32.75.77,1.76,4.05.61,2,.67,2.29,1,2.82.71,1,1.06.69,2.29,1.85.56.52.44.53,2.56,3.87a1.84,1.84,0,0,1,.35,1.24,1.59,1.59,0,0,1-.53.88,2.14,2.14,0,0,1-1,.48c-1.44.34-3.1,3.62-3.7,4.8a11.26,11.26,0,0,0-1.58,4.32c-.08,1,.06,1.39-.27,1.67-.87.76-2.78-1.71-6-2.2s-4.16,1.5-8,.88C971,199.9,963.16,201.31,963.14,200.63Z"/><path class="cls-59" d="M1009,167a6.36,6.36,0,0,1,.14,2,15.5,15.5,0,0,1-1.49,6.14,15.42,15.42,0,0,0-.93,2.14,7.44,7.44,0,0,0-.47,1.77,6,6,0,0,0,1.4,4.24,1.19,1.19,0,0,1,.37.56,1.08,1.08,0,0,1-.19,1,1.39,1.39,0,0,1-.88.47,2.79,2.79,0,0,1-.7.09h-.56a2.13,2.13,0,0,0-.14,1.16s.12.25.33.66.26.48.23.6,0,.13-.56.47l-.51.32a2,2,0,0,0-.46.37,1.15,1.15,0,0,0-.1.7c0,.61.2.72.1.93a.92.92,0,0,1-.84.33c-.49,0-.62-.39-.93-.33s-.36.37-.7,1a10,10,0,0,1-1,1.4,3.52,3.52,0,0,1-1.25,1.11,2.94,2.94,0,0,1-2,0,11.92,11.92,0,0,1-2.56-1.45c-1.05-.62-1-.48-1.49-.83a11.66,11.66,0,0,1-2.79-2.61,22.19,22.19,0,0,1-1.63-2.84c-1-1.76-1.44-2.64-1.58-2.88-1.51-2.59-2.13-3.11-2.61-4.8a11.08,11.08,0,0,1-.33-1.62,13.78,13.78,0,0,1,.34-6,10.88,10.88,0,0,1,4.23-5.22A16.8,16.8,0,0,1,1002,163C1003.32,163.2,1008.05,164.06,1009,167Z"/><path class="cls-60" d="M989.14,175.37a3.27,3.27,0,0,0-1.37-1.69,3.67,3.67,0,0,0-2.28-.59,2.81,2.81,0,0,0-1.92.77c-.49.56-.48,1.32-.45,2.83a11.65,11.65,0,0,0,.45,3.29,6.13,6.13,0,0,0,1,2.23,3.19,3.19,0,0,0,2.23,1.46,1.89,1.89,0,0,0,1.46-.5c.36-.4.35-.88.37-1.78a32.46,32.46,0,0,1,.13-3.28C989,176.46,989.39,176.21,989.14,175.37Z"/><path class="cls-61" d="M959,302.2c-.66.76-.57,2.67-.62,10.13,0,1.37,0,4.46-.08,6.75-.17,8.42-.72,9-.46,11.74A18.82,18.82,0,0,0,963,342c4,4.55,8,4,10,3.67,1.77-.29,5.66-1,9.36-6.31,3.36-4.83,7.43-14.68,6-22.75-.05-.28-1-5.1-3.25-6.6-2.05-1.36-3.1,1.38-6.11,2.35-3.78,1.21-7.26-1.5-11.36-4.7-1.86-1.45-3.81-2.46-5.65-4C960.32,302.3,959.57,301.51,959,302.2Z"/><path class="cls-62" d="M962.44,313.55a64.65,64.65,0,0,1-7.87,4.05c-3.28,1.31-3,.75-7.62,2.34-4.31,1.5-6.52,2.29-8.73,4.18-1.9,1.63-2.85,2.44-3.69,3.93-.7,1.27-1,2.39-1.72,2.46s-1.19-.67-2.09-1.84a10.56,10.56,0,0,1-1.47-2.59,6.23,6.23,0,0,1-.62-2.95,5.5,5.5,0,0,1,.5-1.84,6,6,0,0,1,1.22-1.72,18.54,18.54,0,0,1,3.32-2.7,48.89,48.89,0,0,1,5-2.71c4.57-2.13,6.85-3.2,7.26-3.44a33.26,33.26,0,0,0,6.27-4.92c3.69-3.58,3.43-4.75,5.53-5.65,2.72-1.17,7.26-1,9.46,2.21a7.27,7.27,0,0,1,.12,7.74C967,310.75,966.45,311.29,962.44,313.55Z"/><path class="cls-63" d="M960.23,330.14c-1.54,1.17-.3,4,0,10.08a38.19,38.19,0,0,1-.25,8.24c-.9,5.79-1,6.27-1,6.27-.37,2-.67,3.32,0,4.79a4.34,4.34,0,0,0,2.09,2.21,4.49,4.49,0,0,0,3.68-.12,5,5,0,0,0,2.22-2c.25-.42.5-1,.73-3.32.22-2.1.09-2.46.25-3.93a26.62,26.62,0,0,1,.86-4.18c.75-2.9,1.06-3.14,1.47-4.92a21.66,21.66,0,0,0,.5-5.65c-.06-4.38-.08-6.72-1.6-7.74-.57-.39-2.4-.31-6-.13C960.63,329.9,960.43,330,960.23,330.14Z"/><path class="cls-64" d="M935.64,317.48c-1.64-.93-3,.34-6.88,1.11a31.48,31.48,0,0,1-8,.86c-1-.05-2.48-.18-3.32.73a3.75,3.75,0,0,0-.74,2.22,8.42,8.42,0,0,0,.25,3,29.78,29.78,0,0,0,1.35,5,27.7,27.7,0,0,0,1.84,3.93,52.39,52.39,0,0,0,3.44,4.92c1.86,2.61,3.23,4.85,3.57,5.41,1.05,1.73,2.26,3.36,3.19,5.16.77,1.46,1.36,2.82,2.46,2.95a1.7,1.7,0,0,0,1.36-.49c.48-.53.39-1.31.24-2.46a18.76,18.76,0,0,0-.49-2.21,24.5,24.5,0,0,1-.37-3c-.26-2.09-.6-2.46-.86-4.06s-.05-1.95,0-4.79c.08-5-.55-5.34,0-7.75a11.56,11.56,0,0,1,1.72-4.3c1.39-2,2.87-2.55,2.83-3.93A3,3,0,0,0,935.64,317.48Z"/><path class="cls-65" d="M960.05,354.85c-1.1.61-.82,1.77-2.14,5a35,35,0,0,1-1.68,3.41c-1.22,2.23-1.91,3-1.94,4.49a3.73,3.73,0,0,0,.54,2.14,3.85,3.85,0,0,0,2,1.45c1.6.62,2.68.33,5,.29.18,0,1.53.08,4.22.24,5.19.32,5.07.39,6.14.35,2-.08,1.53-.3,5.5-.72,2.81-.3,4.21-.45,5.16-.47a16.35,16.35,0,0,0,3.81-.4,5,5,0,0,0,2.35-1.21c.25-.24.9-.86.73-1.34-.1-.3-.49-.42-1.07-.6a9.31,9.31,0,0,0-1.4-.27c-.9-.21-1-.82-1.94-1.54a10.81,10.81,0,0,0-3.22-1.2c-1.1-.32-1.12-.26-2.28-.61-.78-.23-1-.32-2.41-.8-1.59-.54-2.38-.8-2.88-.94a18.24,18.24,0,0,1-3.14-.8,7.69,7.69,0,0,1-2-1.41c-1.8-1.58-1.59-2.33-3.08-3.48a8.15,8.15,0,0,0-2.95-1.41C962,354.64,960.94,354.36,960.05,354.85Z"/><path class="cls-66" d="M972.16,166.7c-1.54,2.29-.3,4-1.95,6-.6.71-.61.29-2.91,2a20.79,20.79,0,0,0-3.27,2.85,8.5,8.5,0,0,0-2.08,3.13,6.18,6.18,0,0,0-.21,3.33,6,6,0,0,0,3,4c.91.42,1.81.4,3.61.35,2.27-.07,3.4-.1,4.1-.84.94-1,0-2,1-3.82a4.77,4.77,0,0,1,3.4-2.64c.53,0,.65.12,1.18,0,.89-.19,1.31-.76,2.29-1.66s1.26-.91,1.81-1.46a7,7,0,0,0,1.81-6.25c-.31-1.34-1-2.12-2.23-3.54-1.77-2-3.52-4.06-5.76-3.89S972.35,166.42,972.16,166.7Z"/><path class="cls-67" d="M972.21,170.63a24.36,24.36,0,0,0-3.54-.07c-2.25,0-2.94.07-3.75.49a3.31,3.31,0,0,0-1.67,1.52c-.41,1,.08,1.67-.41,2.16-.33.32-.7.16-1.88.2a6.89,6.89,0,0,0-2.91.56,4.29,4.29,0,0,0-1.81,1.95,4.8,4.8,0,0,0-.21,3.88c.57,1.22,1.63,1.58,1.46,2.16s-.8.29-1.46.83c-1.21,1-.92,3.2-.83,3.82a4.53,4.53,0,0,0,1.11,2.71,6,6,0,0,0,1.87,1.18c1.18.57,1.28.36,1.88.76,1,.68.79,1.31,1.81,2.09a4.58,4.58,0,0,0,1.94.83,8,8,0,0,0,3-.07c.37,0,.94-.15,2.08-.35l1.53-.27a9.65,9.65,0,0,0,2.85-.91,4.14,4.14,0,0,0,2.08-2c.48-1.28-.39-2,.21-3,.47-.79,1.18-.58,1.66-1.39.38-.63.18-1.16,0-2.64a28.17,28.17,0,0,1-.13-4.58c.11-1.74.38-2,.13-2.92s-.72-1.3-1.59-2.36C973.23,172.3,973.65,171.26,972.21,170.63Z"/><path class="cls-68" d="M961.43,358.94a3.28,3.28,0,0,0-1.66,3.72,3.8,3.8,0,0,0,2.45,2.46c1.84.62,4.28-.13,4.78-1.6.61-1.75-1.72-4-3.78-4.58A2.7,2.7,0,0,0,961.43,358.94Z"/><path class="cls-69" d="M975.74,175.52c1.12.65,3,1.33,16.55-2.35,8.68-2.35,9-2.92,12-3.69,1.53-.39,2.89-1.4,4.46-1.65a1.05,1.05,0,0,0,.76-.4,1.23,1.23,0,0,0-.08-1.05,10.28,10.28,0,0,0-1.33-2.66A21.66,21.66,0,0,0,993.41,155c-3.95-.88-6.09-1.36-9-.85a16.34,16.34,0,0,0-8.1,4,14.7,14.7,0,0,0-4.38,6.79,9.37,9.37,0,0,0-.32,5.29A9.21,9.21,0,0,0,975.74,175.52Z"/><path class="cls-70" d="M966.58,192.94c3.32,2.16,8.93-1.33,9.16-1.48a12.28,12.28,0,0,0,5-6.65c.24-.75,2-6.61-1.47-10.42a7.19,7.19,0,0,0-4.66-2.43c-2.94-.2-5.12,1.89-6,2.73C963.52,179.63,962.4,190.22,966.58,192.94Z"/><path class="cls-71" d="M996.73,219.38a1.1,1.1,0,0,0,.16-.15,1.75,1.75,0,0,0,.5-1.24.9.9,0,0,0-.34-.7.85.85,0,0,0-.79.06,1.21,1.21,0,0,0-.44.55c-.54,1-1.14,1.21-1,1.46s.35.13,1,.17S996.52,219.54,996.73,219.38Z"/><path class="cls-72" d="M993.12,208.47c4.12,5.35,4.69,9.22,4.39,11.81-.28,2.38-1.55,5.89-1.13,9.24a7.81,7.81,0,0,1-.07,2.75c-.32,1.46-.9,1.87-1.41,3.18a9.34,9.34,0,0,0-.43,4.51,13.82,13.82,0,0,0,1.59,5.07c1,2,1.57,2.27,2.69,4.17a21.76,21.76,0,0,1,2.28,5.57"/><path class="cls-73" d="M986.84,224.45c.4-1,1.27-1.8,3-3.33,2.16-1.9,3.12-2.17,3.65-2.27a16.37,16.37,0,0,1,2.07,0c2.71,0,3.83-.32,4.49.41a1.91,1.91,0,0,1,.41.77c.12.41.06.64-.12,1.82s-.18,1.33-.41,1.66a1.16,1.16,0,0,1-.85.61.86.86,0,0,1-.77-.44.83.83,0,0,1,0-.81c.2-.31.53-.19.77-.49s.22-.9,0-1-.38.18-.85.32-.84-.21-1.13,0-.28.6-.33.93c-.12.82-.69,1.24-1.7,2.19-1.79,1.69-1.33,1.63-2.8,2.92s-2.16,1.88-3.08,1.86a3.1,3.1,0,0,1-2.19-1.17C985.89,226.92,986.66,224.92,986.84,224.45Z"/><path class="cls-74" d="M996.53,220.64a1.55,1.55,0,0,0-1.09.62c-.12.14-.58.68-.42,1.12.1.26.43.43,1.09.78.35.18.61.28.59.39s-.13.1-.42.23a1.67,1.67,0,0,0-.64.37.8.8,0,0,0,.14.93,1,1,0,0,0,.9.15c.46-.06.51-.21,1.11-.42s1-.13,1.34-.44a1,1,0,0,0,.4-.66c0-.27-.13-.47-.42-.82a10.75,10.75,0,0,0-1.08-1.21C997.28,221,996.9,220.63,996.53,220.64Z"/><path class="cls-75" d="M995.65,222.67a1.53,1.53,0,0,0-1.08.61c-.12.15-.59.69-.42,1.13.09.26.42.43,1.08.77.35.19.61.29.6.4s-.13.1-.42.22-.55.24-.65.38a.8.8,0,0,0,.14.93,1,1,0,0,0,.9.15c.47-.06.51-.21,1.11-.42s1-.13,1.35-.44a1,1,0,0,0,.39-.66c0-.27-.13-.48-.42-.82a12.08,12.08,0,0,0-1.08-1.22C996.4,223,996,222.66,995.65,222.67Z"/><path class="cls-76" d="M994.27,223.91a1.62,1.62,0,0,0-1.09.62c-.12.14-.58.68-.42,1.13.1.26.43.43,1.09.77.35.19.61.29.59.4s-.13.09-.42.22-.55.24-.64.38a.77.77,0,0,0,.14.92,1,1,0,0,0,.9.16c.46-.06.51-.21,1.11-.42s1-.13,1.34-.44a1,1,0,0,0,.4-.67c0-.27-.13-.47-.42-.81a12.08,12.08,0,0,0-1.08-1.22C995,224.26,994.64,223.91,994.27,223.91Z"/><path class="cls-77" d="M974,177.88c-1,.16-1.68,1.15-3.05,3.12a8.67,8.67,0,0,0-1.32,2.29,4.54,4.54,0,0,0,0,3.82,3.65,3.65,0,0,0,2.08,1.6c1.11.33,2,0,3.47-.49s2.26-.78,2.85-1.45c1.53-1.75.81-4.4.7-4.8a6.06,6.06,0,0,0-1.53-2.64C976.69,178.89,975.39,177.63,974,177.88Z"/><path class="cls-78" d="M970.19,260c-.21,1.56-.19,3,.55,7.71,1,6.13,1.37,6.17,2.46,12.21.85,4.66.89,6.12,2,7.55s3,2.55,4.35,1.61c2.3-1.59,1.92-8.47,1.57-14.78-.31-5.69-.64-10.74-3.13-15.43-.64-1.2-3.11-5.84-5.25-5C970.89,254.62,970.3,259.11,970.19,260Z"/><path class="cls-79" d="M958.41,202.69c-1.47,1-1.8,3.17-2.46,7.49-.49,3.29-.36,5.35-.38,9.8,0,5.78,0,8.67-.26,9.55-1,4.16-3.19,4.56-11.61,14.33-4.4,5.09-5.51,6.95-6.33,9.16-1.09,2.95-1.17,5.23-1.29,9.42a58.08,58.08,0,0,0,2,19.15A59.46,59.46,0,0,0,942.89,293c1.94,3.67,5,8.69,5.81,9.95,3.26,5.31,3.46,5.23,3.73,6.43,1,4.32-1.46,6.2-.21,11.41a20.11,20.11,0,0,0,1.66,4.35,24.08,24.08,0,0,0,3.32,4.77c3.16,3.77,4.74,5.65,6.22,6.64a15.31,15.31,0,0,0,10.58,2.7,14.21,14.21,0,0,0,4.35-1.46c5.36-2.8,7.49-8.22,8.3-10.37,1.39-3.7,1.75-7.46,1.24-13.27-.34-3.86-1.65-15.17-8.5-31.93-2.33-5.71-3.77-8.29-3.53-12.65.34-6,3.59-11,5.19-13.48,2.91-4.52,3.79-3.82,7.05-8.92a34.07,34.07,0,0,0,5-11.41c.61-2.94,1.11-5.36.2-8.29a14.87,14.87,0,0,0-5.8-7.47c-3.1-2.25-4.23-1.52-7.26-3.52-3.81-2.52-3.51-4.64-6.85-8.09C969.07,204,961.73,200.42,958.41,202.69Z"/><path class="cls-80" d="M940.15,251c-1.52,1.51-1.12,4-.7,6.35,1.37,7.66,2.06,11.49,3.12,14.19a88.25,88.25,0,0,0,5.71,11.19c4.11,7.35,4.76,7.62,6.75,11.7a51.89,51.89,0,0,1,4.85,13.52c.3,1.53,2.18,11.16.52,17.88a12.41,12.41,0,0,0-.41,4,10.94,10.94,0,0,0,2,6c2.33,3.09,6,3.79,7.61,4.11a16.18,16.18,0,0,0,11-1.82c5.92-3.52,7.12-10.13,7.73-13.48.39-2.19.72-5.57-.74-12.66a90,90,0,0,0-8.21-22.59c-2.68-5.27-5.87-9.94-12.26-19.28a55.91,55.91,0,0,0-8.09-9.94c-3.84-3.63-3.52-2.13-8.95-6.86-2.1-1.83-3.81-3.51-6.37-3.54A5,5,0,0,0,940.15,251Z"/><path class="cls-81" d="M953.08,230.59c1.86.28,1.92,2,5.26,6.26C960.78,240,964,244,969,246.8c2.45,1.38,5.18,2.37,7.37,5.37.32.42,1.7,2.31,1.12,3.12-.09.13-.39.45-3.46.23-1.26-.09-2.13-.21-3.1-.32-2-.23-3.25-.3-3.83-.35-4.07-.35-7.14-2.58-12.08-3.47-1.89-.34-.89.09-12.18-.33-2.7-.1-5.36-.24-6.26-1.9a3.64,3.64,0,0,1,0-2.91c1-3.43,3.74-5.1,6.71-7.49C950.08,233.26,950.6,230.22,953.08,230.59Z"/><path class="cls-82" d="M975.05,223.69c-1.23,1.34-.19,2.85,0,8.85V243a12.29,12.29,0,0,0,0,3.54,6.11,6.11,0,0,0,1.77,3.3,5.72,5.72,0,0,0,5.43,1.3,4.68,4.68,0,0,0,2.83-2.12c.52-1,.4-1.83.24-3.78-.15-1.73-.22-3.46-.36-5.19a51.18,51.18,0,0,1,.24-7.08c.47-7,1-8,0-9.09-1.51-1.74-4.62-1.52-6.14-1.41C977.27,222.63,975.93,222.72,975.05,223.69Z"/><path class="cls-83" d="M976.47,245.3c-1.2.54-1.52,2.26-1.65,3a8.86,8.86,0,0,0,.33,4c.69,2.88,1,4.33,1.41,5.38a81,81,0,0,1,2.65,10.1c1.15,5.46,1.73,8.18,1.65,10.1a14.06,14.06,0,0,0,.66,4.39c.66,2.07,1.35,2.49,1.66,2.65a3.16,3.16,0,0,0,3.06-.42,4.53,4.53,0,0,0,1.58-3.06,11.71,11.71,0,0,0-.17-4.72c-.45-2.42-.43-4.91-.66-7.37-.18-1.85-.51-5.32-.58-9.43-.07-3.75.12-6-.58-9.69-.52-2.71-1.08-4-2.15-4.47s-1.78.27-4.31-.08C977.69,245.4,977.25,245,976.47,245.3Z"/><path class="cls-84" d="M982.5,281.28c-.69,1.05-.42,1.9-.41,4.15a30.78,30.78,0,0,1-.34,4.47,24.61,24.61,0,0,1-.81,3.63c-.48,1.56-.72,1.74-1.09,3.24a17.52,17.52,0,0,0-.48,2.92c-.06.94,0,.68,0,2.08a5.38,5.38,0,0,0,.21,2.39c.1.26.33.84.68.85s.51-.35.61-.59,0-.66,0-1.23a7.89,7.89,0,0,1,0-1.29,10.17,10.17,0,0,1,.34-2.14c.11-.47.23-.84.47-1.56.52-1.55.59-1.42.75-2.14a2.54,2.54,0,0,1,.34-1,2.11,2.11,0,0,1,1.09-.71,3.36,3.36,0,0,1,2,0c1,.34.84.87,2,1.43a4.55,4.55,0,0,0,2.24.45,2.16,2.16,0,0,0,1.49-.45c.43-.47.21-1.07.14-2.27,0-.49,0-.11.2-3.12a19.69,19.69,0,0,0,.07-3.17,4.5,4.5,0,0,0-.68-2.47c-.6-.8-1.08-.61-2-1.42-1.45-1.23-1-2.2-2.24-3a3.57,3.57,0,0,0-3-.32A3.2,3.2,0,0,0,982.5,281.28Z"/><path class="cls-85" d="M982.87,292c.26,1.3-.26,1.25-.3,3.52,0,.36.08,1.23.24,2.95a22.48,22.48,0,0,0,.61,4.05,7.49,7.49,0,0,0,1.21,2.28c.3.42.62.79,1.08.81a1.26,1.26,0,0,0,.79-.28.88.88,0,0,0,.3-.67,1.83,1.83,0,0,0-.6-1.14,3.92,3.92,0,0,1-.55-2.15,18.26,18.26,0,0,1,.06-3.8,15.32,15.32,0,0,0,.18-4.86,2.09,2.09,0,0,0-1-1.71,2,2,0,0,0-1.88,0C982.69,291.29,982.81,291.7,982.87,292Z"/><path class="cls-86" d="M986.58,293.17c-.33.13-.46.49-.55,3.28,0,1.19,0,2.21,0,3.48a7.69,7.69,0,0,0,.38,2.71l.94,1.62c.32.56.49.86.82.91a.91.91,0,0,0,.77-.34c.11-.14.23-.38,0-1.09a7.32,7.32,0,0,0-.6-1.43,4.68,4.68,0,0,1-.33-1.76,10.57,10.57,0,0,1,.33-2.95c.47-2.54.62-3,.27-3.48A2.08,2.08,0,0,0,986.58,293.17Z"/><path class="cls-87" d="M989.34,293.74c-.05.45-.17,1.6-.24,3.81a15.07,15.07,0,0,0,.06,2.71,13.06,13.06,0,0,0,.48,2.05c.54,1.87.82,2.81,1.48,2.9a1.24,1.24,0,0,0,1-.43c.19-.2.37-.57,0-1.76a11,11,0,0,0-.77-1.76,7.44,7.44,0,0,1-.65-2.62c0-1.29.48-1.43.77-3.66a4.39,4.39,0,0,0,0-1.76c-.25-1.05-1-2.17-1.48-2.1C989.9,291.13,989.63,291.23,989.34,293.74Z"/><path class="cls-88" d="M915.8,214.11a34.67,34.67,0,0,1,3.09-8.15,22.66,22.66,0,0,1,4.78-6.47,21.41,21.41,0,0,1,8.44-4.65,22.54,22.54,0,0,1,10.13-.42c2.14.4,6.56,1.23,10,4.78a14.26,14.26,0,0,1,2.82,4.22,13.63,13.63,0,0,1,1,4.79c.28,6,1.47,6.55,1.83,12.8s.64,10-1.12,14.34a23,23,0,0,1-15.89,13.19,16.74,16.74,0,0,1-8.65,0c-1.35-.39-4-1.35-8.65-6.06-5.73-5.77-8.93-9-9.89-14.24C913,224.63,913.92,221.12,915.8,214.11Z"/><circle class="cls-89" cx="934.4" cy="228.56" r="21.55" transform="translate(497.27 1085.45) rotate(-76.72)"/><circle class="cls-90" cx="934.4" cy="228.56" r="15.65" transform="translate(497.27 1085.45) rotate(-76.72)"/><circle class="cls-91" cx="934.4" cy="228.56" r="12.09" transform="translate(497.27 1085.45) rotate(-76.72)"/><circle class="cls-92" cx="934.4" cy="228.55" r="10.64" transform="translate(-20.84 115.15) rotate(-6.97)"/><path class="cls-93" d="M929.87,227.53c-.12-.56.43-1.43.72-2.23a4.4,4.4,0,0,1,.74-1.46c1.24-1.56,4.11-1,4.43-.88s2.78.61,3.43,2.4a3.56,3.56,0,0,1,.16.69,6.87,6.87,0,0,1-.33,3.53c-.17.48-.26.71-.44.85-.63.5-1.68,0-3.22-.61C931.49,228.26,930.09,228.47,929.87,227.53Z"/><path class="cls-94" d="M939.23,228.55a4.83,4.83,0,1,1-4.83-4.83A4.83,4.83,0,0,1,939.23,228.55Z"/><path class="cls-95" d="M935.24,228.55a.84.84,0,1,1-.84-.84A.84.84,0,0,1,935.24,228.55Z"/><path class="cls-96" d="M988.66,202.82a14,14,0,0,0-7.91-5,11.69,11.69,0,0,0-3.53-.1c-7.65.72-15.37.72-23,1.56-10.38,1.14-11.3.82-17.7,1.77-7.14,1-10.65,2-14,4.47s-6.06,7.62-7.15,9.67"/><path class="cls-97" d="M957.2,196.3a1.74,1.74,0,0,0-.86,1.73c.17,1.17,1.82,1.37,1.84,2.27s-1.43.95-1.73,2.06.7,2.82,2,3.35,2-.48,4.43-.43a9.14,9.14,0,0,1,3.47.75,11.23,11.23,0,0,1,4,3.36c1,1.16,1.08,1.53,1.84,2.48a16.33,16.33,0,0,0,4.86,4c1.8,1.05,2.31,1,12.87,2.92,2,.37,3.62.67,4.44-.22.56-.62.43-1.45.22-4-.44-5.21-.15-4.79-.44-5.73-.76-2.46-2.34-3.92-4.43-5.84a17.71,17.71,0,0,0-5.63-3.79,17.34,17.34,0,0,0-6.49-1.19,21.74,21.74,0,0,0-5.62.86c-2.84.77-3.12,1.37-4.87,1.41a10.35,10.35,0,0,1-4.86-1.3C959.32,197.57,958.28,195.82,957.2,196.3Z"/><path class="cls-98" d="M967.86,198.49c-3.48-.23-7-.44-10.46-.47-10.44-.1-11.31-.52-17.77-.34-7.22.2-10.82.73-14.48,2.78s-6.93,6.85-8.25,8.75"/><path class="cls-99" d="M915.92,214.19a24.21,24.21,0,0,1,42.2,6"/><path class="cls-100" d="M981.32,201.92c-1.49.12-2.56,1.38-4.65,3.9a22.46,22.46,0,0,0-3.24,4.65,11.73,11.73,0,0,0-1.63,5c0,.4,0,.4,0,2.92,0,.89,0,1.51,0,2.38a9.76,9.76,0,0,0,.22,3c.56.87,1.78,1,4.22,1.3,2.09.24,2.57,0,3.46.54,1,.65,1.18,1.49,1.95,1.51s1.06-1.13,2.05-1.29,1.6,1.24,3.79,2.27a7.77,7.77,0,0,0,3.24.75c.67,0,3,0,4.11-1.4.62-.8.42-2.27,0-5.19-.92-6.44-1-6.8-1.19-7.47a19.45,19.45,0,0,0-2.27-5.73,17.74,17.74,0,0,0-7.35-6.27A4.79,4.79,0,0,0,981.32,201.92Z"/><path class="cls-101" d="M919,206.27a24.15,24.15,0,0,1,19.48-9.84c8.6,0,14.11,4.49,17.69,11.26"/></g></g></svg>