<svg xmlns="http://www.w3.org/2000/svg" xmlns:xlink="http://www.w3.org/1999/xlink" viewBox="0 0 1920 563.88"><defs><style>.cls-1{fill:#e1cec3;opacity:0.15;}.cls-2{fill:#bca799;}.cls-3{fill:#d8c2b6;}.cls-4{fill:url(#linear-gradient);}.cls-5{fill:url(#linear-gradient-2);}.cls-6{fill:url(#linear-gradient-3);}.cls-7{fill:url(#linear-gradient-4);}.cls-8{fill:url(#linear-gradient-5);}.cls-9{fill:url(#linear-gradient-6);}.cls-10{fill:url(#linear-gradient-7);}.cls-11{fill:url(#linear-gradient-8);}.cls-12{fill:url(#linear-gradient-9);}.cls-13{fill:url(#linear-gradient-10);}.cls-14{fill:url(#linear-gradient-11);}.cls-15{fill:url(#linear-gradient-12);}.cls-16{fill:url(#linear-gradient-13);}.cls-17{fill:url(#linear-gradient-14);}.cls-18{fill:url(#linear-gradient-15);}.cls-19{fill:url(#linear-gradient-16);}.cls-20{fill:url(#linear-gradient-17);}.cls-21{fill:url(#linear-gradient-18);}.cls-22{fill:url(#linear-gradient-19);}.cls-23{fill:url(#linear-gradient-20);}.cls-24{fill:url(#linear-gradient-21);}.cls-25{fill:url(#linear-gradient-22);}.cls-26{fill:url(#linear-gradient-23);}.cls-27{fill:url(#linear-gradient-24);}.cls-28{fill:url(#linear-gradient-25);}.cls-29{fill:url(#linear-gradient-26);}.cls-30{fill:url(#linear-gradient-27);}.cls-31{fill:url(#linear-gradient-28);}.cls-32{fill:url(#linear-gradient-29);}.cls-33{fill:url(#linear-gradient-30);}.cls-34{fill:url(#linear-gradient-31);}.cls-35{fill:url(#linear-gradient-32);}.cls-36{fill:url(#linear-gradient-33);}.cls-37{fill:url(#linear-gradient-34);}.cls-38{fill:url(#linear-gradient-35);}.cls-39{fill:url(#linear-gradient-36);}.cls-40{fill:url(#linear-gradient-37);}.cls-41{fill:url(#linear-gradient-38);}.cls-42{fill:url(#linear-gradient-39);}.cls-43{fill:url(#linear-gradient-40);}.cls-44{fill:url(#linear-gradient-41);}.cls-45{fill:url(#linear-gradient-42);}.cls-46{fill:url(#linear-gradient-43);}.cls-47{fill:url(#linear-gradient-44);}.cls-48{fill:url(#linear-gradient-45);}.cls-49{fill:url(#linear-gradient-46);}.cls-50{fill:url(#linear-gradient-47);}.cls-51{fill:url(#linear-gradient-48);}.cls-52{fill:url(#linear-gradient-49);}.cls-53{fill:url(#linear-gradient-50);}.cls-54{fill:url(#linear-gradient-51);}.cls-55{fill:url(#linear-gradient-52);}.cls-56{fill:url(#linear-gradient-53);}.cls-57{fill:url(#linear-gradient-54);}.cls-58{fill:url(#linear-gradient-55);}.cls-59{fill:url(#linear-gradient-56);}.cls-60{fill:url(#linear-gradient-57);}.cls-61{fill:url(#linear-gradient-58);}.cls-62{fill:url(#linear-gradient-59);}.cls-63{fill:url(#linear-gradient-60);}.cls-64{fill:url(#linear-gradient-61);}.cls-65{fill:url(#linear-gradient-62);}.cls-66{fill:url(#linear-gradient-63);}.cls-67{fill:url(#linear-gradient-64);}.cls-68{fill:url(#linear-gradient-65);}.cls-69{fill:url(#linear-gradient-66);}.cls-70{fill:url(#linear-gradient-67);}.cls-71{fill:url(#linear-gradient-68);}.cls-101,.cls-72,.cls-96,.cls-98,.cls-99{fill:none;stroke-linecap:round;stroke-miterlimit:10;}.cls-72{stroke:url(#linear-gradient-69);}.cls-73{fill:url(#linear-gradient-70);}.cls-74{fill:url(#linear-gradient-71);}.cls-75{fill:url(#linear-gradient-72);}.cls-76{fill:url(#linear-gradient-73);}.cls-77{fill:url(#linear-gradient-74);}.cls-78{fill:url(#linear-gradient-75);}.cls-79{fill:url(#linear-gradient-76);}.cls-80{fill:url(#linear-gradient-77);}.cls-81{fill:url(#linear-gradient-78);}.cls-82{fill:url(#linear-gradient-79);}.cls-83{fill:url(#linear-gradient-80);}.cls-84{fill:url(#linear-gradient-81);}.cls-85{fill:url(#linear-gradient-82);}.cls-86{fill:url(#linear-gradient-83);}.cls-87{fill:url(#linear-gradient-84);}.cls-88{fill:url(#linear-gradient-85);}.cls-89{fill:url(#linear-gradient-86);}.cls-90{fill:url(#linear-gradient-87);}.cls-91{fill:url(#linear-gradient-88);}.cls-92{fill:url(#linear-gradient-89);}.cls-93{fill:url(#linear-gradient-90);}.cls-94{fill:url(#linear-gradient-91);}.cls-95{fill:url(#linear-gradient-92);}.cls-96{stroke:url(#linear-gradient-93);}.cls-97{fill:url(#linear-gradient-94);}.cls-98{stroke:url(#linear-gradient-95);}.cls-99{stroke:url(#linear-gradient-96);}.cls-100{fill:url(#linear-gradient-97);}.cls-101{stroke:url(#linear-gradient-98);}</style><linearGradient id="linear-gradient" x1="504.38" y1="158.55" x2="502.38" y2="117.3" gradientUnits="userSpaceOnUse"><stop offset="0" stop-color="#80634b"/><stop offset="0.41" stop-color="#907256"/></linearGradient><linearGradient id="linear-gradient-2" x1="489.52" y1="176.55" x2="485.19" y2="87.12" xlink:href="#linear-gradient"/><linearGradient id="linear-gradient-3" x1="529.69" y1="196.03" x2="529.1" y2="183.93" xlink:href="#linear-gradient"/><linearGradient id="linear-gradient-4" x1="509.01" y1="336.29" x2="508.39" y2="323.51" xlink:href="#linear-gradient"/><linearGradient id="linear-gradient-5" x1="526.49" y1="150.38" x2="524.07" y2="100.46" xlink:href="#linear-gradient"/><linearGradient id="linear-gradient-6" x1="526.89" y1="149.53" x2="524.63" y2="102.85" gradientUnits="userSpaceOnUse"><stop offset="0.14" stop-color="#80634b"/><stop offset="0.46" stop-color="#907256"/></linearGradient><linearGradient id="linear-gradient-7" x1="522.06" y1="347.6" x2="520.92" y2="323.88" gradientUnits="userSpaceOnUse"><stop offset="0" stop-color="#80634b"/><stop offset="0.32" stop-color="#907256"/></linearGradient><linearGradient id="linear-gradient-8" x1="507.95" y1="350.94" x2="505.96" y2="309.83" xlink:href="#linear-gradient"/><linearGradient id="linear-gradient-9" x1="537.76" y1="344.91" x2="537.07" y2="330.59" gradientUnits="userSpaceOnUse"><stop offset="0.07" stop-color="#80634b"/><stop offset="0.41" stop-color="#907256"/></linearGradient><linearGradient id="linear-gradient-10" x1="535.63" y1="346.84" x2="534.86" y2="330.79" xlink:href="#linear-gradient-9"/><linearGradient id="linear-gradient-11" x1="534.38" y1="349.85" x2="533.4" y2="329.68" gradientUnits="userSpaceOnUse"><stop offset="0.09" stop-color="#80634b"/><stop offset="0.41" stop-color="#907256"/></linearGradient><linearGradient id="linear-gradient-12" x1="530.03" y1="349.63" x2="528.68" y2="321.77" xlink:href="#linear-gradient"/><linearGradient id="linear-gradient-13" x1="564.22" y1="249.74" x2="542.02" y2="208.24" gradientUnits="userSpaceOnUse"><stop offset="0" stop-color="#80634b"/><stop offset="0.58" stop-color="#907256"/></linearGradient><linearGradient id="linear-gradient-14" x1="588.98" y1="254.77" x2="541.36" y2="231.51" gradientUnits="userSpaceOnUse"><stop offset="0.41" stop-color="#80634b"/><stop offset="0.59" stop-color="#876a50"/><stop offset="0.9" stop-color="#907256"/></linearGradient><linearGradient id="linear-gradient-15" x1="541.02" y1="342.22" x2="569.96" y2="183.67" gradientUnits="userSpaceOnUse"><stop offset="0" stop-color="#736357"/><stop offset="0.17" stop-color="#877666"/><stop offset="0.47" stop-color="#a4917c"/><stop offset="0.72" stop-color="#b6a189"/><stop offset="0.91" stop-color="#bca78e"/></linearGradient><linearGradient id="linear-gradient-16" x1="553.74" y1="229.71" x2="558.73" y2="241.61" gradientUnits="userSpaceOnUse"><stop offset="0" stop-color="#80634b"/><stop offset="0.44" stop-color="#907256"/></linearGradient><linearGradient id="linear-gradient-17" x1="555.12" y1="226.85" x2="553.44" y2="192.08" xlink:href="#linear-gradient"/><linearGradient id="linear-gradient-18" x1="545.47" y1="230.95" x2="544.41" y2="209.07" gradientUnits="userSpaceOnUse"><stop offset="0" stop-color="#80634b"/><stop offset="0.76" stop-color="#907256"/></linearGradient><linearGradient id="linear-gradient-19" x1="545.6" y1="237.3" x2="542.7" y2="177.35" gradientUnits="userSpaceOnUse"><stop offset="0.14" stop-color="#80634b"/><stop offset="0.2" stop-color="#85684f"/><stop offset="0.35" stop-color="#907256"/></linearGradient><linearGradient id="linear-gradient-20" x1="565.92" y1="376.66" x2="554" y2="130.61" xlink:href="#linear-gradient"/><linearGradient id="linear-gradient-21" x1="572.56" y1="353.35" x2="570.78" y2="316.51" xlink:href="#linear-gradient"/><linearGradient id="linear-gradient-22" x1="540.67" y1="267.42" x2="540.13" y2="256.28" gradientUnits="userSpaceOnUse"><stop offset="1" stop-color="#80634b"/><stop offset="1" stop-color="#907256"/></linearGradient><linearGradient id="linear-gradient-23" x1="539.83" y1="276.46" x2="539.04" y2="260.13" gradientUnits="userSpaceOnUse"><stop offset="0.12" stop-color="#80634b"/><stop offset="0.97" stop-color="#907256"/></linearGradient><linearGradient id="linear-gradient-24" x1="538.96" y1="279.1" x2="536.54" y2="229.09" gradientUnits="userSpaceOnUse"><stop offset="0" stop-color="#80634b"/><stop offset="0.66" stop-color="#907256"/></linearGradient><linearGradient id="linear-gradient-25" x1="538.75" y1="273.37" x2="536.33" y2="223.36" gradientUnits="userSpaceOnUse"><stop offset="0" stop-color="#80634b"/><stop offset="0.24" stop-color="#907256"/></linearGradient><linearGradient id="linear-gradient-26" x1="577.51" y1="348.93" x2="576.62" y2="330.68" xlink:href="#linear-gradient"/><linearGradient id="linear-gradient-27" x1="575.43" y1="356.43" x2="576.89" y2="327.45" gradientUnits="userSpaceOnUse"><stop offset="0" stop-color="#80634b"/><stop offset="0.47" stop-color="#907256"/></linearGradient><linearGradient id="linear-gradient-28" x1="470.73" y1="156.57" x2="528.55" y2="201.79" gradientUnits="userSpaceOnUse"><stop offset="0.3" stop-color="#b5504a"/><stop offset="0.49" stop-color="#a44642"/><stop offset="0.72" stop-color="#933c39"/></linearGradient><linearGradient id="linear-gradient-29" x1="557.95" y1="226.06" x2="557.55" y2="217.67" xlink:href="#linear-gradient"/><linearGradient id="linear-gradient-30" x1="536.07" y1="159.92" x2="415.42" y2="212.62" xlink:href="#linear-gradient-28"/><linearGradient id="linear-gradient-31" x1="497.62" y1="142.33" x2="519.29" y2="142.33" xlink:href="#linear-gradient-28"/><linearGradient id="linear-gradient-32" x1="540.1" y1="149.45" x2="472.76" y2="242.04" gradientUnits="userSpaceOnUse"><stop offset="0" stop-color="#b5504a"/><stop offset="0.17" stop-color="#ac4b45"/><stop offset="0.44" stop-color="#933c39"/></linearGradient><linearGradient id="linear-gradient-33" x1="497.11" y1="145.94" x2="523.68" y2="145.94" xlink:href="#linear-gradient-28"/><linearGradient id="linear-gradient-34" x1="500.48" y1="157.83" x2="499.85" y2="144.66" xlink:href="#linear-gradient"/><linearGradient id="linear-gradient-35" x1="501.95" y1="240.46" x2="500.22" y2="347.13" gradientUnits="userSpaceOnUse"><stop offset="0.3" stop-color="#b5504a"/><stop offset="0.44" stop-color="#ae4c47"/><stop offset="0.64" stop-color="#9c413e"/><stop offset="0.72" stop-color="#933c39"/></linearGradient><linearGradient id="linear-gradient-36" x1="497.42" y1="229.42" x2="521.46" y2="450.64" gradientUnits="userSpaceOnUse"><stop offset="0.06" stop-color="#b5504a"/><stop offset="0.36" stop-color="#a44642"/><stop offset="0.72" stop-color="#933c39"/></linearGradient><linearGradient id="linear-gradient-37" x1="465.75" y1="240.25" x2="578.65" y2="240.25" gradientUnits="userSpaceOnUse"><stop offset="0" stop-color="#b5504a"/><stop offset="0.32" stop-color="#a44642"/><stop offset="0.72" stop-color="#933c39"/></linearGradient><linearGradient id="linear-gradient-38" x1="511.01" y1="189.64" x2="508.83" y2="144.56" gradientUnits="userSpaceOnUse"><stop offset="0" stop-color="#80634b"/><stop offset="0.68" stop-color="#907256"/></linearGradient><linearGradient id="linear-gradient-39" x1="530.27" y1="201.28" x2="530.05" y2="196.66" gradientUnits="userSpaceOnUse"><stop offset="0" stop-color="#80634b"/><stop offset="1" stop-color="#907256"/></linearGradient><linearGradient id="linear-gradient-40" x1="497.75" y1="270.82" x2="522.84" y2="225.26" gradientUnits="userSpaceOnUse"><stop offset="0.3" stop-color="#b5504a"/><stop offset="0.55" stop-color="#a44642"/><stop offset="0.85" stop-color="#933c39"/></linearGradient><linearGradient id="linear-gradient-41" x1="497.4" y1="267.93" x2="525.54" y2="237.39" gradientUnits="userSpaceOnUse"><stop offset="0" stop-color="#b5504a"/><stop offset="0.07" stop-color="#b24e49"/><stop offset="0.84" stop-color="#973e3b"/><stop offset="1" stop-color="#933c39"/></linearGradient><linearGradient id="linear-gradient-42" x1="659.38" y1="317.5" x2="414.49" y2="262.58" xlink:href="#linear-gradient-15"/><linearGradient id="linear-gradient-43" x1="632.18" y1="269.2" x2="440.27" y2="268.26" gradientUnits="userSpaceOnUse"><stop offset="0" stop-color="#736357"/><stop offset="0.05" stop-color="#7c6b5d"/><stop offset="0.28" stop-color="#9f8c78"/><stop offset="0.47" stop-color="#b4a088"/><stop offset="0.6" stop-color="#bca78e"/></linearGradient><linearGradient id="linear-gradient-44" x1="574.75" y1="264.89" x2="573.58" y2="240.63" xlink:href="#linear-gradient"/><linearGradient id="linear-gradient-45" x1="564.94" y1="278.69" x2="563.33" y2="245.48" gradientUnits="userSpaceOnUse"><stop offset="0" stop-color="#80634b"/><stop offset="0.97" stop-color="#907256"/></linearGradient><linearGradient id="linear-gradient-46" x1="557.1" y1="262.5" x2="534.93" y2="249.44" xlink:href="#linear-gradient"/><linearGradient id="linear-gradient-47" x1="555.66" y1="261.73" x2="533.06" y2="258.05" xlink:href="#linear-gradient"/><linearGradient id="linear-gradient-48" x1="583.1" y1="294.26" x2="554.1" y2="198" gradientUnits="userSpaceOnUse"><stop offset="0" stop-color="#736357"/><stop offset="0.17" stop-color="#877666"/><stop offset="0.47" stop-color="#a4917c"/><stop offset="0.73" stop-color="#b6a189"/><stop offset="0.91" stop-color="#bca78e"/></linearGradient><linearGradient id="linear-gradient-49" x1="533.67" y1="225.42" x2="533.53" y2="210.06" gradientUnits="userSpaceOnUse"><stop offset="0.09" stop-color="#c7914a"/><stop offset="0.37" stop-color="#dda863"/><stop offset="0.85" stop-color="#ffcd89"/></linearGradient><linearGradient id="linear-gradient-50" x1="486.77" y1="237.11" x2="485.64" y2="114.92" gradientUnits="userSpaceOnUse"><stop offset="0.03" stop-color="#c7914a"/><stop offset="0.13" stop-color="#d9a45e"/><stop offset="0.28" stop-color="#eebb76"/><stop offset="0.41" stop-color="#fbc884"/><stop offset="0.53" stop-color="#ffcd89"/></linearGradient><linearGradient id="linear-gradient-51" x1="525.75" y1="206.93" x2="525.6" y2="190.68" xlink:href="#linear-gradient-49"/><linearGradient id="linear-gradient-52" x1="532.15" y1="228.67" x2="532" y2="212.34" xlink:href="#linear-gradient-49"/><linearGradient id="linear-gradient-53" x1="510.16" y1="234.91" x2="509.55" y2="169.85" xlink:href="#linear-gradient-49"/><linearGradient id="linear-gradient-54" x1="521.83" y1="186.23" x2="540" y2="259" xlink:href="#linear-gradient"/><linearGradient id="linear-gradient-55" x1="307.05" y1="165.01" x2="287.91" y2="190.6" gradientTransform="translate(1358.42)" xlink:href="#linear-gradient"/><linearGradient id="linear-gradient-56" x1="308.27" y1="155.9" x2="335.57" y2="155.9" gradientTransform="translate(1358.42)" xlink:href="#linear-gradient"/><linearGradient id="linear-gradient-57" x1="319.4" y1="157.2" x2="273.97" y2="150" gradientTransform="translate(1358.42)" gradientUnits="userSpaceOnUse"><stop offset="0" stop-color="#80634b"/><stop offset="0.32" stop-color="#907256"/></linearGradient><linearGradient id="linear-gradient-58" x1="274.43" y1="317.78" x2="158.81" y2="313.17" gradientTransform="translate(1358.42)" gradientUnits="userSpaceOnUse"><stop offset="0" stop-color="#c3949b"/><stop offset="0.55" stop-color="#d9b2b6"/><stop offset="1" stop-color="#e8c6c9"/></linearGradient><linearGradient id="linear-gradient-59" x1="245.6" y1="308.32" x2="290.04" y2="308.32" gradientTransform="translate(1358.42)" xlink:href="#linear-gradient"/><linearGradient id="linear-gradient-60" x1="283.35" y1="334.93" x2="299.05" y2="382.24" gradientTransform="translate(1358.42)" xlink:href="#linear-gradient"/><linearGradient id="linear-gradient-61" x1="268.29" y1="319.51" x2="220.88" y2="342.44" gradientTransform="translate(1358.42)" xlink:href="#linear-gradient"/><linearGradient id="linear-gradient-62" x1="302.07" y1="384.33" x2="246.44" y2="270.83" gradientTransform="translate(1358.42)" gradientUnits="userSpaceOnUse"><stop offset="0" stop-color="#80634b"/><stop offset="0.04" stop-color="#84674e"/><stop offset="0.19" stop-color="#8d6f54"/><stop offset="0.41" stop-color="#907256"/></linearGradient><linearGradient id="linear-gradient-63" x1="336.35" y1="215.78" x2="278.4" y2="130.94" gradientTransform="translate(1358.42)" gradientUnits="userSpaceOnUse"><stop offset="0.23" stop-color="#736357"/><stop offset="0.67" stop-color="#a5917d"/><stop offset="0.91" stop-color="#bca78e"/></linearGradient><linearGradient id="linear-gradient-64" x1="286.65" y1="199.44" x2="290.43" y2="69.02" gradientTransform="translate(1358.42)" gradientUnits="userSpaceOnUse"><stop offset="0" stop-color="#736357"/><stop offset="0.09" stop-color="#77675a"/><stop offset="0.19" stop-color="#847364"/><stop offset="0.29" stop-color="#9a8774"/><stop offset="0.39" stop-color="#b8a38b"/><stop offset="0.41" stop-color="#bca78e"/></linearGradient><linearGradient id="linear-gradient-65" x1="310.27" y1="386.09" x2="255.52" y2="333.64" gradientTransform="translate(1358.42)" xlink:href="#linear-gradient"/><linearGradient id="linear-gradient-66" x1="229.95" y1="140.8" x2="352.09" y2="140.8" gradientTransform="translate(1358.42)" xlink:href="#linear-gradient-15"/><linearGradient id="linear-gradient-67" x1="292.01" y1="203.28" x2="299.57" y2="91.89" gradientTransform="translate(1358.42)" gradientUnits="userSpaceOnUse"><stop offset="0.24" stop-color="#736357"/><stop offset="0.3" stop-color="#877666"/><stop offset="0.4" stop-color="#a4917c"/><stop offset="0.49" stop-color="#b6a189"/><stop offset="0.56" stop-color="#bca78e"/></linearGradient><linearGradient id="linear-gradient-68" x1="1766.94" y1="200.41" x2="1776.54" y2="200.41" gradientTransform="matrix(-1, 0, 0, 1, 3447.77, 0)" xlink:href="#linear-gradient"/><linearGradient id="linear-gradient-69" x1="317.14" y1="215.2" x2="326.97" y2="215.2" xlink:href="#linear-gradient-64"/><linearGradient id="linear-gradient-70" x1="1777.75" y1="214.1" x2="1767.66" y2="202" gradientTransform="matrix(-1, 0, 0, 1, 3447.77, 0)" gradientUnits="userSpaceOnUse"><stop offset="0" stop-color="#80634b"/><stop offset="0.9" stop-color="#907256"/></linearGradient><linearGradient id="linear-gradient-71" x1="1755.12" y1="205.52" x2="1775.98" y2="205.52" gradientTransform="matrix(-1, 0, 0, 1, 3447.77, 0)" gradientUnits="userSpaceOnUse"><stop offset="0" stop-color="#80634b"/><stop offset="0.78" stop-color="#907256"/></linearGradient><linearGradient id="linear-gradient-72" x1="1765.53" y1="207.78" x2="1770.61" y2="207.78" xlink:href="#linear-gradient-71"/><linearGradient id="linear-gradient-73" x1="1767.08" y1="209.17" x2="1775.13" y2="209.17" xlink:href="#linear-gradient-71"/><linearGradient id="linear-gradient-74" x1="295.51" y1="193.43" x2="297.57" y2="115.97" gradientTransform="translate(1358.42)" gradientUnits="userSpaceOnUse"><stop offset="0" stop-color="#736357"/><stop offset="0.49" stop-color="#a5917c"/><stop offset="0.77" stop-color="#bca78e"/></linearGradient><linearGradient id="linear-gradient-75" x1="283.47" y1="259.83" x2="338.57" y2="259.83" xlink:href="#linear-gradient-58"/><linearGradient id="linear-gradient-76" x1="253.86" y1="258.83" x2="318.37" y2="258.83" xlink:href="#linear-gradient-58"/><linearGradient id="linear-gradient-77" x1="231.86" y1="245.08" x2="368.08" y2="367.51" xlink:href="#linear-gradient-58"/><linearGradient id="linear-gradient-78" x1="223.75" y1="228" x2="346.06" y2="228" gradientTransform="translate(1358.42)" xlink:href="#linear-gradient-41"/><linearGradient id="linear-gradient-79" x1="276.5" y1="221.12" x2="327.01" y2="221.12" gradientTransform="translate(1358.42)" xlink:href="#linear-gradient"/><linearGradient id="linear-gradient-80" x1="290.54" y1="252.63" x2="334.43" y2="252.63" gradientTransform="translate(1358.42)" xlink:href="#linear-gradient"/><linearGradient id="linear-gradient-81" x1="303.3" y1="283.07" x2="317.48" y2="283.07" gradientTransform="translate(1358.42)" xlink:href="#linear-gradient"/><linearGradient id="linear-gradient-82" x1="305.85" y1="289.58" x2="310.69" y2="289.58" gradientTransform="translate(1358.42)" xlink:href="#linear-gradient"/><linearGradient id="linear-gradient-83" x1="307.26" y1="290.61" x2="319.26" y2="290.61" gradientTransform="translate(1358.42)" xlink:href="#linear-gradient"/><linearGradient id="linear-gradient-84" x1="305.56" y1="289.52" x2="331.05" y2="289.52" gradientTransform="translate(1358.42)" xlink:href="#linear-gradient"/><linearGradient id="linear-gradient-85" x1="307.6" y1="218.25" x2="188.85" y2="185.49" gradientTransform="translate(1358.42)" gradientUnits="userSpaceOnUse"><stop offset="0.19" stop-color="#c7914a"/><stop offset="0.21" stop-color="#ce9851"/><stop offset="0.3" stop-color="#e3af6a"/><stop offset="0.39" stop-color="#f3c07b"/><stop offset="0.49" stop-color="#fcca86"/><stop offset="0.61" stop-color="#ffcd89"/></linearGradient><linearGradient id="linear-gradient-86" x1="269.6" y1="256.22" x2="228.25" y2="151.47" gradientTransform="translate(1758.68 -82.19) rotate(76.72)" xlink:href="#linear-gradient-49"/><linearGradient id="linear-gradient-87" x1="264.8" y1="244.06" x2="234.76" y2="167.96" gradientTransform="translate(1758.68 -82.19) rotate(76.72)" gradientUnits="userSpaceOnUse"><stop offset="0.28" stop-color="#c7914a"/><stop offset="0.49" stop-color="#dda863"/><stop offset="0.85" stop-color="#ffcd89"/></linearGradient><linearGradient id="linear-gradient-88" x1="261.9" y1="236.72" x2="238.7" y2="177.93" gradientTransform="translate(1758.68 -82.19) rotate(76.72)" gradientUnits="userSpaceOnUse"><stop offset="0.16" stop-color="#c7914a"/><stop offset="0.42" stop-color="#dda863"/><stop offset="0.85" stop-color="#ffcd89"/></linearGradient><linearGradient id="linear-gradient-89" x1="260.72" y1="233.71" x2="240.31" y2="181.99" gradientTransform="translate(1386 -29.04) rotate(6.97)" gradientUnits="userSpaceOnUse"><stop offset="0.33" stop-color="#c7914a"/><stop offset="0.52" stop-color="#dda863"/><stop offset="0.85" stop-color="#ffcd89"/></linearGradient><linearGradient id="linear-gradient-90" x1="323.58" y1="540.07" x2="347.06" y2="544.67" gradientTransform="translate(1584.39 -422.84) rotate(28.86)" gradientUnits="userSpaceOnUse"><stop offset="0.65" stop-color="#fff"/><stop offset="0.75" stop-color="#e7e7e7"/><stop offset="0.93" stop-color="#c1c1c1"/></linearGradient><linearGradient id="linear-gradient-91" x1="249.78" y1="185.9" x2="252.65" y2="218.53" gradientTransform="translate(1358.42)" gradientUnits="userSpaceOnUse"><stop offset="0.58" stop-color="#fff"/><stop offset="0.7" stop-color="#e7e7e7"/><stop offset="0.93" stop-color="#c1c1c1"/></linearGradient><linearGradient id="linear-gradient-92" x1="251.66" y1="207.28" x2="252.16" y2="212.94" gradientTransform="translate(1358.42)" gradientUnits="userSpaceOnUse"><stop offset="0" stop-color="#fff"/><stop offset="0.33" stop-color="#e7e7e7"/><stop offset="0.93" stop-color="#c1c1c1"/></linearGradient><linearGradient id="linear-gradient-93" x1="230.24" y1="187.08" x2="313.16" y2="187.08" xlink:href="#linear-gradient-64"/><linearGradient id="linear-gradient-94" x1="213.88" y1="188.47" x2="314.46" y2="188.47" xlink:href="#linear-gradient-58"/><linearGradient id="linear-gradient-95" x1="235.51" y1="266.44" x2="291.61" y2="266.44" gradientTransform="matrix(0.99, 0.12, -0.12, 0.99, 1389.22, -111.58)" xlink:href="#linear-gradient-64"/><linearGradient id="linear-gradient-96" x1="230.92" y1="193.58" x2="279.04" y2="193.58" xlink:href="#linear-gradient-64"/><linearGradient id="linear-gradient-97" x1="286.09" y1="247.48" x2="320.26" y2="173.75" gradientTransform="translate(1358.42)" gradientUnits="userSpaceOnUse"><stop offset="0.38" stop-color="#c3949b"/><stop offset="0.48" stop-color="#cfa4aa"/><stop offset="0.63" stop-color="#ddb7bb"/><stop offset="0.8" stop-color="#e5c2c6"/><stop offset="0.97" stop-color="#e8c6c9"/></linearGradient><linearGradient id="linear-gradient-98" x1="234.37" y1="182.19" x2="276.89" y2="182.19" xlink:href="#linear-gradient-64"/></defs><g id="PEOPLE"><path id="_LAYER-08_SWIRL_ANIMATE_" data-name="&lt;LAYER-08_SWIRL(ANIMATE)&gt;" class="cls-1" d="M3817.61,434.54c-12-11.07-29.46-26.74-51.38-44.53C3643.91,290.73,3527.35,241.86,3475,222.15c-54.42-20.5-105.94-31.94-209-54.81-128.68-28.57-194.7-43.23-267.2-44.54C2872,120.51,2829.63,161,2694,194.74c-318.49,79.2-625.65-9.7-774-52.62-73.81-21.36-65.84-24.45-159.57-51.59-91.22-26.4-306.33-99.65-486-89.59C1083.65,11.63,962.74,73.79,823.8,123.11,517.22,231.94,275.49,274.76,0,229c-84.8-14.09-147.57-34.36-351.45-68.5C-598,119.2-653.71,124.15-690.6,129.66c-135.48,20.24-146.26,67.43-315.16,95.91-94,15.87-84.72.23-243.22,20.56-146,18.72-231.41,41.93-287.76,109.62a234.62,234.62,0,0,0-27.41,41.11l-20.55,37.68Z"/><g id="_LAYER-09_" data-name="&lt;LAYER-09&gt;"><path class="cls-2" d="M1920.41,563.88H-.85L1.68,371.23c92.08,4,158,2.28,158,2.28s66.73-.73,163.75-8,160.32-10.93,243.44-5.69,120.59,6.34,120.59,6.34,96.54,2.54,157.81,7S963.39,380,963.39,380s296.31,5.32,343.91,3.14S1440,382,1440,382s59.33,2,85.64,2.48,87.54-.87,110.33-2.63,36.83-2.34,36.83-2.34,43.7-1.16,66.79-1.31,56.83-2.23,56.83-2.23,12,0,44.11-9,79.47-9.64,79.47-9.64Z"/><path class="cls-3" d="M1440,371c4.71,0,13,0,23.24,0,41.32-.21,196.24-2.06,428.54-37.33,7.07-1.07,16.73-2.56,28.22-4.39v28.08a306.42,306.42,0,0,0-87,12.07c-31.37,8.8-60.89,7.8-119.61,9-88.54,1.87-74,5.25-147.75,6-32.36.35-74.88,1.6-125.39-.59L1323,383.27c-13.56,0-33.93,0-58.64,0-93.16-.11-188.65-.73-232.93-1.35-72.4-1-77.77-3-286-13-179.83-8.64-269.75-13-294.3-11.82C375.71,360.83,228,373.5,145,373.65c-56,.1-112.4-1.52-112.4-1.52Q16.21,371.67,0,371.05V319.42c57.17-.44,104.05-1.26,136.35-1.93,153-3.17,163.85-6.77,211.58-1,33.72,4.1,61.37,9.91,110.14,10.63,20,.29,26.3-.53,75.35-1,27.88-.25,57.81-.51,82.12,0,44.54.95,66.06,4.45,134.29,11.6,59.87,6.27,105,10,135.25,12.56,42.17,3.51,102.94,8.53,182.6,12.56,36.64,1.85,64.14,2.82,93.71,3.86,66.5,2.33,121.86,3.47,161.61,4.08Z"/><path class="cls-3" d="M737.45,318.44c-9,.31-17.91,1.14-26.55,3.49v9.13a28.89,28.89,0,0,0,5.89-5.74,28.48,28.48,0,0,1-5.68,8,76.07,76.07,0,0,1,21.44-13.07A55.61,55.61,0,0,0,716,332.11c-.88.95-1.65,2-2.67,3.28l9.71-5.05v.12l-7.34,5.81.18.47a16.17,16.17,0,0,1,7.6,1.29,33.72,33.72,0,0,0-4.28,0c-3.19.43-5.09,2.49-6.09,5.41a1.63,1.63,0,0,1-1.87,1.29q-42.76-.06-85.55,0c-3.88,0-7.76,0-11.64,0a1.53,1.53,0,0,1-1.18-.47c-2.41-4.31-6.35-6.65-10.74-8.36a52,52,0,0,0-15.4-3.22l-1.92-.17a.61.61,0,0,1-.45-.25c2.83-.15,5.66-.43,8.49-.4a57.4,57.4,0,0,1,8.7.63c2.8.45,5.52,1.38,8.54,2.18l-8.7-6.71.07-.15,11.29,6.12c-.78-2.86-2.72-4.18-5.37-5-6.37-2-12.68-4.26-19-6.41a5.12,5.12,0,0,1-.57-.37l21.31,6.07a99,99,0,0,0-14.5-16.91l.25-.31c4,3.11,8.11,6.12,12,9.35s7.7,6.7,11.8,10a34.94,34.94,0,0,0-1.48-4.17,120.81,120.81,0,0,1-9.23-24.7,4.18,4.18,0,0,1,0-.67c1.47,3.45,2.75,6.76,4.27,10s3.28,6.33,4.93,9.49l.26-.15.73-10.61.28,0c.16,2.37.19,4.76.53,7.1a75.85,75.85,0,0,0,1.61,7.59,4.77,4.77,0,0,0,1.16,1.77c1.07,1.23,2.19,2.41,3.3,3.61l.39-.19c-1.6-5.19-3.21-10.38-4.78-15.45a117.13,117.13,0,0,1,9.88,17.2c-1.64-12.12-6.24-23.38-9.91-34.93l11.92,27.57.23-.09-1-2.62.12-.08,2.55,3.84.18-.07c-.56-2.2-1-4.43-1.73-6.58-.22-.67-1.1-1.12-1.69-1.65a3.32,3.32,0,0,1-.87-1l2.4,1.6-2.26-10,.21-.05c.49,1.47,1,2.95,1.48,4.43.3.86.59,1.73.91,2.59,1.81,5,1.81,5,6.76,8l-2-25.2.12,0c.49,3.12,1,6.22,1.46,9.34.77,5.37,1.52,10.75,2.21,16.13.16,1.28,1.06,1.63,1.85,2.11,2.09-5.18,4.15-10.27,6.2-15.37l.25.09q-1.68,8.63-3.37,17.27l.35.1a4.44,4.44,0,0,0,.24-.49c1.4-3.73,2.82-7.46,4.18-11.2a3.48,3.48,0,0,0,.13-1.81c-1-4.3-2.08-8.58-2.94-12.93l4,12.08c.27-.52.45-.88.63-1.25a14.72,14.72,0,0,1,1.22-2.33c2.4-3.18,2.57-6.84,2.41-10.58a1.51,1.51,0,0,1,.23-1l.89,4.66,11.49-16.39.35.24c-1.45,2.35-2.93,4.68-4.34,7.06-1.89,3.19-3.69,6.45-5.6,9.63a8.57,8.57,0,0,0-1.24,5.76c.55,4.64.83,9.31,1.17,14,.06.88.36,1.41,1.22,1.61a7.46,7.46,0,0,0,1-4.76l.38.76c1.71-5,3.34-9.86,5-14.68l.19,0c-.41,1.85-.85,3.7-1.24,5.56-.77,3.7-1.63,7.4-2.22,11.14-.16,1,.5,2.21.78,3.32l.55,0q.66-3.93,1.3-7.88h.13c0,3,.19,5.94-.07,8.88-.16,1.76.8,2.27,2,3,.51-5.49,1.07-10.86,2.72-16.12.44,4.94.86,9.76,1.28,14.58l.44.06a7.73,7.73,0,0,0,.74-1c1.36-2.67,2.73-5.33,4-8a1.83,1.83,0,0,0,0-1.38c-.83-1.85-1.75-3.65-2.48-5.58,1.1,1.69,2.19,3.39,3.33,5.15l.44-.55a10,10,0,0,0,.35,2.1,14.55,14.55,0,0,0,1.31,2.17l3.46-3.1a32.77,32.77,0,0,1,2.84-2.57,4,4,0,0,0,1.4-2.89,5.14,5.14,0,0,1,.46-1.44L688.8,313l10.45-9.62.16.16c-2.91,3.37-5.73,6.83-8.77,10.08a7.83,7.83,0,0,0-2.49,6.16c.15,2.18,0,4.38,0,6.68,2.25-.87,4.52-1.7,6.74-2.62.34-.14.54-.67.73-1.06.74-1.49,1.45-3,2.31-4.46l-1.61,5.06c1.46-.45,2.83-.82,4.15-1.31.35-.13.6-.61.83-1,2-3.23,4.09-6.47,6.28-9.63l-4.92,10.07A105.23,105.23,0,0,1,737.45,318.44ZM709.79,322c-.85.5-1.61.69-1.92,1.17-2.37,3.71-3.75,7.84-5.14,12.1a4.23,4.23,0,0,0,3.19-2c.39-.69.87-1.34,1.25-2A19.9,19.9,0,0,0,709.79,322ZM698,334.17,707.38,323c-1.43.54-2.63,1.06-3.87,1.43a5.07,5.07,0,0,0-3.78,3.94C699.26,330.21,698.65,332.07,698,334.17ZM687.5,317.42c-1.73,2-3.26,3.7-4.75,5.44a.85.85,0,0,0-.22.71c.69,1.47,1.43,2.92,2.14,4.36a1.55,1.55,0,0,0,1.58-1.85,7.22,7.22,0,0,1,.16-1.3Zm-13.32,15.51.18.18c2.49-1.27,5-2.52,7.47-3.83a1,1,0,0,0,.3-.9c-.27-1.14-.63-2.26-1-3.62ZM636,320.64l-.29.2,4,8.74a47.17,47.17,0,0,0,.15-5,1.26,1.26,0,0,0-.25-.88C638.42,322.65,637.2,321.65,636,320.64Zm20.51-10.92c-1.47,3.48-3.68,6.9-.94,10.81C655.88,316.88,656.19,313.3,656.5,309.72ZM653.26,321a27.65,27.65,0,0,0,.59,10C655.17,327.47,654.22,324.24,653.26,321Zm25.28-2.49-1.95,5.55C680,321.89,680.23,321.24,678.54,318.51ZM663,330.44l.4-.06c1.39-2.75,1.35-3.2-.4-4Zm-3.07-6.39v2.88C660.93,325.12,660.92,324.53,659.94,324.05Z"/><path class="cls-3" d="M145.94,311.7c1.09.57,2.19,1.13,3.28,1.72s2.12,1.19,3.32,1.87c-2.69-4.87-6.29-8.81-10-12.65a95.42,95.42,0,0,1,12.92,10.54l.19-.08a14.3,14.3,0,0,0-.67-2.07,67.11,67.11,0,0,1-5.32-14.2.85.85,0,0,1,0-.39,53.73,53.73,0,0,0,5.32,11c.13-2.09.27-4.13.41-6.17h.18c.06,1.14,0,2.29.2,3.42.25,1.69.62,3.36,1,5a1.94,1.94,0,0,0,.49.77c.66.75,1.35,1.48,2,2.21l.2-.09q-1.32-4.32-2.66-8.65a61.16,61.16,0,0,1,5.53,9.7c-.92-6.91-3.58-13.32-5.67-19.9l6.91,16,.12-.05L163,308l.07,0,1.49,2.25c-.82-3.54-1.62-7-2.41-10.39a81.5,81.5,0,0,0,5.32,12.87c0-6.14-.55-12.24-1.19-18.33l.18,0c.83,5.76,1.65,11.52,2.5,17.4a80.41,80.41,0,0,1,4.13-10.47c-.65,3.45-1.28,6.74-1.91,10l.13,0,1.56-4.38a1.17,1.17,0,0,1,.12-.31,6.27,6.27,0,0,0,.4-5.7c-.48-1.47-.79-3-1.16-4.5a.39.39,0,0,1,.05-.33l2.29,6.87,1-1.84,0-.06a8.73,8.73,0,0,0,1.44-5.81,1.38,1.38,0,0,1,.1-.68l.48,2.55,6.4-9.13.2.13c-.51.83-1,1.64-1.52,2.48l-4.49,7.74a2.4,2.4,0,0,0-.27,1.52c.28,3.08.49,6.17.72,9.25,0,.66.07,1.32.12,2.13,1.37-4.2,2.7-8.23,4-12.27l0,0q-1.59,8.08-3.17,16.18l.17,0a25.44,25.44,0,0,0,2.63-9.56,38.09,38.09,0,0,1-.28,9.23c2.68-6.42,8.08-8.56,14.58-9.29-1.13.45-2.11.78-3.05,1.21a15,15,0,0,0-6.64,5.3,3.88,3.88,0,0,0-.76,2.86c.67-.61,1.26-1.19,1.89-1.73,1-.83,2-1.65,3-2.44a5.63,5.63,0,0,1,1.23-.67,2.07,2.07,0,0,1,2.71.72,9.71,9.71,0,0,1,.65.93c.81,1.37,1.6,2.76,2.31,4.22-.35-.38-.67-.77-1-1.13-.7-.69-1.38-1.4-2.13-2s-1.45-.51-1.69.61-.34,2.25-.57,3.36-.6,2.5-.88,3.75c-.11.46-.35.56-.8.56q-8.06,0-16.12,0c-7.4,0-14.8,0-22.2,0a1.9,1.9,0,0,1-1.08-.35,50.41,50.41,0,0,0-17-8c-4.24-1.16-8.54-2.09-12.81-3.13a1.11,1.11,0,0,1-.36-.18,107.44,107.44,0,0,1,15.33,2.51,142.57,142.57,0,0,1,14.94,4.55c-.61-.56-1.19-1.13-1.82-1.66s-1.28-1-1.94-1.52-1.36-1-2-1.46Zm30.81-10.26c-1.43,2.47-1.58,4.25-.55,6.35C176.39,305.65,176.56,303.63,176.75,301.44ZM174.93,308a15.37,15.37,0,0,0,.34,5.57C176,311.63,175.49,309.8,174.93,308Z"/><path class="cls-3" d="M210.26,312.51c6.24-1.43,16.78-2.86,25.19,1a45.6,45.6,0,0,0-9.78-20,62.34,62.34,0,0,1,16.22,21.57c.46-1.68,1.68-3.25,1.23-5.05a24.66,24.66,0,0,1,0-12.07.6.6,0,0,1,.14-.26l2.22,8.17h.38c1-1.62,2-3.24,3-4.87.15-.27-.14-.67-.35-1-.94-1.34-1.93-2.66-2.74-4.06l3.8,3.83c2-2.25,3.92-4.47,5.87-6.69l.26.08c-.88,1.21-1.84,2.41-2.64,3.64s-1.49,2.52-2.17,3.8a.82.82,0,0,0,0,.83c2,3,4.1,6,6.17,9.05,0,0,.09.07.43.07l-2.47-9.9a90.71,90.71,0,0,1,5.09,16,26.27,26.27,0,0,0,1.88-10h.41c.23,4,.45,8.11.64,11.77a37.44,37.44,0,0,1,4.74-11.84,35.92,35.92,0,0,1,9.88-11.13c-6.58,6.88-8,14.3-6.43,22.09,1.76-1.92,3.43-3.84,5.24-5.7a28.3,28.3,0,0,1,6.62-5.1c-5.34,4.05-8.16,8.79-10.33,13.7,1.9-1,3.81-2,5.67-3a1.33,1.33,0,0,0,.52-.64c.6-1.23,1.16-2.48,1.9-3.7l-1,3.74,3.23-1.17.09.08c-1,.53-2,1-3,1.6a2.23,2.23,0,0,0-.81.84c-1.09,2.12-2.13,4.23-3.2,6.36a26.67,26.67,0,0,1,11.79-1.1c-5.77.45-10.83,1.36-11,5.81H232.43c-.32-2.28-.56-4.6-3.9-6.06s-6.91-.85-10.43-.17a25.51,25.51,0,0,1,7.76-2.23,16.19,16.19,0,0,1,8.26,1c-.76-4.47-6.44-8.25-13.54-9.09A57.79,57.79,0,0,0,210.26,312.51Zm39.57-9.78c-.46,1.46-1,2.92-1.39,4.38-.52,1.71-.7,3.39.69,5.05,1.68,2,3.12,4.08,4.66,6.13l.53-.12a9.16,9.16,0,0,0-.67-1.51c-.47-.68-1.11-1.3-1.61-2a13.41,13.41,0,0,1-2.77-5.66,15.57,15.57,0,0,0,4.61,5.17A26.17,26.17,0,0,0,249.83,302.73Zm24,20.28.36.12,3.48-3.85-.37-.13A10.53,10.53,0,0,0,273.79,323Z"/><path class="cls-3" d="M215.61,316.16c7.63-6.1,16.3-9.74,24.76-13.76l10.26-4.9a1.69,1.69,0,0,1,1-.24c-2.53,1.55-5.09,3.06-7.6,4.66-6.53,4.16-13.13,8.23-19.53,12.59-2.85,1.95-5.29,4.5-7.9,6.78a10.73,10.73,0,0,0-.92,1.06,87.09,87.09,0,0,1,33.21,0c4.25.78,8.42,2,12.63,3l-.08.38-5.18-.74a91.14,91.14,0,0,0-25.92-.16c-4.09.62-8.13,1.6-12.19,2.41a6.77,6.77,0,0,1-1.41.21q-14.16,0-28.32,0c-.31,0-.62,0-.92-.06-.91-4.71-4.23-7.89-9.16-8.79a22.68,22.68,0,0,0-11.76,1.23c-.37.13-.72.28-1.26.49,3.4-3,10.86-4.52,19.19-4-5-8.66-12.55-13.84-21.48-17.39a70.73,70.73,0,0,1,20.37,9.81c-5.54-9.81-8.63-20.12-10.7-30.81,3.67,11.92,9.67,22.36,19.25,30.86a136.53,136.53,0,0,1-4.48-40.17,127.13,127.13,0,0,0,10.23,44.43c1.21-11.91.41-23.77-.93-35.62l.3-.08c1.43,5.22,3,10.4,4.24,15.66s2.23,10.68,3.32,16c7.73-11.11,12.77-23.63,17.48-36.33-3.23,14.76-6.58,29.47-11.47,44.15a32.07,32.07,0,0,0,6.2-10.94c1.42-4.8,2.48-9.72,3.64-14.6.58-2.44,1-4.91,1.52-7.37a.65.65,0,0,1,.27-.38C221.91,294.81,220.35,305.68,215.61,316.16Z"/><path class="cls-3" d="M429.66,326.41a219.77,219.77,0,0,1,1.73-32c0,4.94-.09,9.89,0,14.82s.44,9.81.67,14.71h.39c-.05-.62-.14-1.24-.13-1.86.1-3.95.26-7.91.3-11.86a20.63,20.63,0,0,0-.54-3.37l.7,1.13.64-5.55.12,0c0,2.21,0,4.42,0,6.63a3.63,3.63,0,0,0,.14,1.19c1.12,3,2.28,5.94,3.42,8.92,1.41-4.14,2.83-8.26,4.2-12.39a1.87,1.87,0,0,0-.16-1.24c-1.46-3.27-3-6.53-4.46-9.8-.2-.46-.43-.91-.65-1.36l.27-.14,5.7,10.64c.55-1.37,1-2.61,1.55-3.85.86-2.06,1.7-4.13,2.6-6.18.76-1.71,1.76-3.36.89-5.36.1.27.23.54.31.82s.14.6.26,1.15l3.87-7.78.24.12c-.76,1.73-1.54,3.45-2.29,5.19-.49,1.13-.94,2.28-1.38,3.44a1.53,1.53,0,0,0-.1.79q1.54,9.25,3.11,18.51c0,.23.11.46.22.93l3.13-5.41.14,0a6,6,0,0,1-.19.64c-.47,1.1-.91,2.22-1.42,3.3a10.42,10.42,0,0,0-1.09,6.89,74.35,74.35,0,0,1,.81,7.64l3.41-6.44.19.07c-1.13,3.94-2.26,7.87-3.46,12.07,2.14-3.62,4-7.06,6.15-10.35s4.46-6.38,6.88-9.44c-4.14,5.82-7.88,11.82-9.75,19.17a94.35,94.35,0,0,1,19.53-12.31c-2.12,1.66-4.29,3.25-6.34,5-5.28,4.48-9.74,9.61-12.1,16.24a2.24,2.24,0,0,1-2.59,1.8c-9.44-.08-18.88-.05-28.32,0a2.23,2.23,0,0,1-1.71-.79,26.83,26.83,0,0,0-3.78-3.11,32.19,32.19,0,0,1-9.67-9.67,5.32,5.32,0,0,1-.58-1.17c3.94,5.36,9.35,8.52,15.76,10.4a26.17,26.17,0,0,0-2.25-3.13,16.2,16.2,0,0,0-3.17-2.52,37.71,37.71,0,0,0-3.89-1.82A21.64,21.64,0,0,1,427.24,334c-1.95-11.73-8.09-21.23-14.14-30.77l.24-.18c2,2.43,4,4.81,5.83,7.3s3.63,5.07,5.33,7.67S427.82,323.42,429.66,326.41ZM448,318.14c.7-1.14,1.36-2.18,2-3.26a1.72,1.72,0,0,0,.2-1q-.92-8.43-1.89-16.86c-.12-1.06-.39-2.09-.59-3.14h-.36c-1.29,4.17-2.59,8.34-3.86,12.51a2.28,2.28,0,0,0-.09,1.38C444.86,311.17,446.41,314.58,448,318.14Zm-8.56,9.1.46.08q2.31-5.94,4.61-11.88a1.16,1.16,0,0,0,.08-.68c-.58-1.72-1.18-3.43-1.78-5.14h-.39Q440.95,318.44,439.45,327.24Zm-4.59.06.42,0c.14-2.31,1.51-4.42.6-6.93-.83-2.3-1.33-4.72-2-7.09l-.35.06Q434.21,320.34,434.86,327.3Zm7.67-.59.24,0c1.07-1.77,2.15-3.54,3.21-5.31a1,1,0,0,0,.22-.66c-.34-1.52-.73-3-1.11-4.55l-.25,0Zm7.75-2.13v-6.09A5.52,5.52,0,0,0,450.28,324.58Z"/><path class="cls-3" d="M1873.34,317.21a27.27,27.27,0,0,1,15.05,4.78,28,28,0,0,1,7.28,7.28,21.08,21.08,0,0,0-16.92,1.17,49.16,49.16,0,0,1,5.25-.64,15.64,15.64,0,0,1,11.78,5,2.24,2.24,0,0,0,1.39.68c7.27,0,14.55,0,21.83,0,.15,0,.31,0,.63-.07.13-2.06.39-4.12.37-6.18-.06-4.59,0-9.19-.45-13.75-.59-6.49-3.24-12.29-6.82-17.69-4.71-7.12-10.72-13.09-16.89-18.91a29.73,29.73,0,0,0-2.83-2.41c1.93,2.15,3.9,4.26,5.77,6.46,4.93,5.75,9.5,11.77,12.14,19a78.11,78.11,0,0,1,2.13,8.19,8.05,8.05,0,0,1,0,1.52,66,66,0,0,0-6.85-13.68c1.13,3.84,2.4,7.43,3.22,11.12s1.2,7.46,1.77,11.19l-.45.11c-.1-.22-.23-.42-.31-.65-2.61-7.62-7-13.85-13.93-18.16a23.44,23.44,0,0,0-16.28-3.44,3.43,3.43,0,0,0-1.12.37c6.08-.41,11.63.84,16.28,5,4,3.55,6.27,8.15,8,13.5-8.57-7.74-18.39-12.35-29.09-15.26,2.5,1.27,5,2.48,7.49,3.81,5.79,3.14,11.25,6.73,15.59,11.8a20.85,20.85,0,0,1,4.45,8.12c.1.36.16.72.32,1.46a34,34,0,0,0-15.63-8.87A31.25,31.25,0,0,0,1873.34,317.21Z"/><path class="cls-3" d="M1096.31,361.52a191.61,191.61,0,0,0,6.84-25.16l.2,0c-1.28,8.43-2.57,16.85-3.8,25l5.35-6.16.17.12a33.56,33.56,0,0,0-6.07,11.25,10.74,10.74,0,0,1,7.66.56c-.94,0-2,0-3,0a6.08,6.08,0,0,0-4.09,1.61c-1.06,1-1.42,2-1.53,4.34-.23,0-.47,0-.71,0-3.13,0-6.26,0-9.39,0a2.12,2.12,0,0,1-1.11-.36,18.53,18.53,0,0,0-8.4-3.55,13.9,13.9,0,0,0-5.63.57c2.21-1.93,8-3.46,14.81,0-3-6.24-7.13-11.6-11.09-17.08,1.94,2.09,3.94,4.13,5.81,6.28s3.59,4.4,5.33,6.54a82.67,82.67,0,0,1-1.26-19.42c.68,6.79.34,13.73,3,20.22-1.31-8.78-2-17.62-2.62-26.46.65,3.72,1.21,7.48,2,11.18s1.8,7.31,2.72,11l.2-.06q1.32-9.24,2.65-18.49l.22,0a154.14,154.14,0,0,0-.31,21.06c.46-2.17,1-4.33,1.36-6.52s.7-4.41,1-6.62.47-4.5.57-6.76,0-4.47.12-6.71C1097.92,340.62,1097.4,355,1096.31,361.52Z"/></g><g id="_LAYER-18_P9_" data-name="&lt;LAYER-18_P9&gt;"><path class="cls-4" d="M500.7,136.73a29.13,29.13,0,0,0,4.41-7.43,14,14,0,0,0,1.05-4.64c.09-2.73-.85-3.92,0-5a3.2,3.2,0,0,1,2.2-.93c.7-.11,2.65-.33,6.27,1.39,3,1.4,4.44,2.1,4.88,3.48s-.63,1.69-1.16,5.69c-.18,1.32-.42,2.63-.58,3.95s-.23,2.19-.82,2.55-1.3,0-2.2-.23a16.07,16.07,0,0,0-5.11-.35A9.58,9.58,0,0,0,504.3,137a9.05,9.05,0,0,0-3,4.3c-.55,1.51-.3,2-.69,4.52a27.21,27.21,0,0,1-1.51,5.92,14,14,0,0,1-3.72,5.92c-.63.56-.18,0-5.1,2.91-1.12.64-2,1.17-2.44.84s-.19-1.13,0-2.35c.42-2.67,0-2.7.35-4.65a19,19,0,0,1,2.78-6.84,24.07,24.07,0,0,1,3.6-4.88c.26-.27.2-.19,4.18-4A25.66,25.66,0,0,0,500.7,136.73Z"/><path class="cls-5" d="M482.48,162.15c-.05-1.77,1.12-2.77,2.67-5.11,1.79-2.7,1.22-2.87,2.78-5.34,2.54-4,6-6.68,6.39-6.38.19.16-.58,1.11-2,3.83a39,39,0,0,0-2.09,4.53c-1.78,5.08,1.14,7.83-.82,10.21-1.28,1.57-4,2.2-5.57,1.16A3.82,3.82,0,0,1,482.48,162.15Z"/><path class="cls-6" d="M525.49,184.62c.25-.1.72-.08,3.94,3.13A27.38,27.38,0,0,1,532,190.6c1.46,2,2.31,3.1,1.91,4.23a3,3,0,0,1-3.3,1.68c-.93-.25-1.07-1-2.44-3.19-2.09-3.36-3.12-3.78-3.36-5.74C524.72,186.59,524.77,184.91,525.49,184.62Z"/><path class="cls-7" d="M493.38,328.2a14,14,0,0,0-.5,4,5.53,5.53,0,0,0,.31,2.82,4.33,4.33,0,0,0,1.44,1.75,4.43,4.43,0,0,0,2.75.75,6.57,6.57,0,0,0,2.38-.62,14.12,14.12,0,0,0,2.19-1.07c2.52-1.5,7.38-2,10.45-2.31,2.35-.24,3.78-.27,6.38-.75a22.82,22.82,0,0,0,4.2-1.63,2.77,2.77,0,0,0,1.56-1.38,1.54,1.54,0,0,0-.06-1.38,1.33,1.33,0,0,0-.81-.37c-1.11-.27-1.18-.52-2-.75a8.3,8.3,0,0,0-2.81-.06s-.77,0-3.44-.25c-4-.41-7.14-2.24-11.21-2.57S494.54,325.26,493.38,328.2Z"/><path class="cls-8" d="M506.18,130a33.49,33.49,0,0,1-1.57-4.57,21.93,21.93,0,0,1-1.22-6.26,19.63,19.63,0,0,1,.61-4.84,12.51,12.51,0,0,1,1.57-4.63,15,15,0,0,1,3.2-3.21A24,24,0,0,1,512,104a21.78,21.78,0,0,1,5-2.11c3.2-1,5.58-1.68,8.65-1.29a16.87,16.87,0,0,1,7.36,3,46.26,46.26,0,0,1,5.52,4.91c4.46,4.26,3,3.54,5.38,5.65a7.15,7.15,0,0,1,2.05,2.59,9.7,9.7,0,0,1,.61,2.86c0,.42.08,1.28.14,3s0,1.39.06,2.11a18.32,18.32,0,0,1,.07,3.34,8.17,8.17,0,0,1-.61,2.18,10,10,0,0,1-1.3,2.11,11.14,11.14,0,0,1-1.7,2,10.36,10.36,0,0,1-2,1.36c-.43.23-.81.4-1.57.75-.91.41-1.08.44-1.84.82l-1.09.54h0a10.14,10.14,0,0,0-.34,1.91,15,15,0,0,1-.07,2.32,1.27,1.27,0,0,1-.34.74,2.34,2.34,0,0,1-.68.41h0c-1.13.28-1.3.62-1.3.62-.1.21,0,.28.14,1.09a2.27,2.27,0,0,1,0,1,1.72,1.72,0,0,1-.61.75,2.8,2.8,0,0,1-.89.41,2.49,2.49,0,0,1-.68.13c-.56,0-.78-.2-1-.06s0,.3-.14.74a1.35,1.35,0,0,1-.48.82c-.13.1-.27.12-.88.14s-.8,0-1.23,0H527l-1.37,1c-.75.54-.79.58-.95.62a2,2,0,0,1-1.43-.48,10.87,10.87,0,0,1-2.59-2.79c-1.07-1.78-1.56-1.37-5.11-4.77a53.37,53.37,0,0,1-4.15-4.43A32.12,32.12,0,0,1,506.18,130Z"/><path class="cls-9" d="M514.79,113.54a4.56,4.56,0,0,0-1.13,2.48,25.21,25.21,0,0,0,.38,9.18,41.49,41.49,0,0,0,2,7.6,18,18,0,0,0,2.63,5.26A11.41,11.41,0,0,0,524,142.2a10.86,10.86,0,0,0,5.26.45,6,6,0,0,0,3.61-1.28,5.45,5.45,0,0,0,1.58-3.38c.22-1.57-.28-2-.75-5.12-.37-2.4-.54-3.61.07-4.29.93-1,2.48-.13,3.46-1.2.81-.88.64-2.44.31-3.38-.64-1.78-2.17-2.28-5.19-4-2.7-1.53-5.21-3.38-7.83-5-2.9-1.84-4.39-2.75-6.24-2.71A5,5,0,0,0,514.79,113.54Z"/><path class="cls-10" d="M515.73,331.8a6.19,6.19,0,0,0,1.79,2.09,6,6,0,0,0,3.05,1c4.1.43,2,.72,7.41,1.2,5.57.48,8.35.73,9.56.71.58,0,3.72-.06,4.06,1a1.89,1.89,0,0,1,0,1,1.8,1.8,0,0,1-.48.78,2,2,0,0,1-1.07.48,19,19,0,0,0-4.13,1.13c-.43.21-.39.27-2.51,2.27-1.37,1.3-2.06,1.95-2.45,2.28-1.61,1.34-3.25,2.7-5.43,2.92-1.07.11-.94-.18-3.65-.42-.71-.06-1.39-.09-4.18-.11-3.68,0-5.51-.05-6.33,0a21.1,21.1,0,0,1-4.9,0,5.73,5.73,0,0,1-2.81-1,4.78,4.78,0,0,1-1.74-2.45c-.24-.87,0-2,.48-4.12.36-1.6.47-1.71.66-2.69a19.83,19.83,0,0,0,.3-4.07c0-4.88-.86-6.77.3-7.7a2.78,2.78,0,0,1,1.43-.42c1.33-.2,2.4,0,5.32,1,3.54,1.2,3.81,1.48,4,1.74C515.17,329.41,514.72,330.07,515.73,331.8Z"/><path class="cls-11" d="M510.47,343.87a4.24,4.24,0,0,1-2.45,1.56c-.13,0-2.49.51-3.71-1a3.94,3.94,0,0,1-.65-2.63c0-1.32.31-1.58.65-3.34.5-2.53.08-3.35.9-5.14.1-.21.75-1.65,1.2-1.56s.29,1.07.59,2.87a9.66,9.66,0,0,0,.9,3.41c1.12,1.75,2.85,1.34,3.35,2.81A3.62,3.62,0,0,1,510.47,343.87Z"/><path class="cls-12" d="M533.15,339.91c.21-.37.78-.3,2.74-.3a19.63,19.63,0,0,1,2.44,0,5,5,0,0,1,3,1.24,2.56,2.56,0,0,1,.64,1.07,1.58,1.58,0,0,1,0,1,1.47,1.47,0,0,1-.38.6,1.79,1.79,0,0,1-.86.47,2.21,2.21,0,0,1-1,0,5.05,5.05,0,0,1-1.15-.39c-.92-.43-1-.26-2.49-.77s-2.11-.75-2.61-1.45C533.44,341.18,532.87,340.38,533.15,339.91Z"/><path class="cls-13" d="M531.78,341.45c1-.81,2.2,0,5.18.34a3.48,3.48,0,0,1,1.45.47,3.34,3.34,0,0,1,.73.6,2,2,0,0,1,.73,1.58,1,1,0,0,1-.3.56,1.18,1.18,0,0,1-.77.26,1.84,1.84,0,0,1-.94-.26c-1.28-.65-1.51-1-2.23-1.2a4.12,4.12,0,0,0-1,0c-1.08,0-3.2-.07-3.51-.86C530.92,342.46,531.32,341.81,531.78,341.45Z"/><path class="cls-14" d="M530.45,343.46c.54-.76,1.94-.53,4.37-.13a4.86,4.86,0,0,1,2,.69,2.3,2.3,0,0,1,1.16,1.54.84.84,0,0,1-.17.64c-.08.09-.2.15-.77.21a4.84,4.84,0,0,1-1.16,0,3.56,3.56,0,0,1-.9-.26,14,14,0,0,0-2.18-.47c-1.44-.34-2.28-.53-2.53-1.16A1.23,1.23,0,0,1,530.45,343.46Z"/><path class="cls-15" d="M529.38,344.74a4.43,4.43,0,0,1,2,0,21.82,21.82,0,0,1,2.23.3,4,4,0,0,1,1.67.6,1.38,1.38,0,0,1,.68.86,1.27,1.27,0,0,1-.38,1,2.2,2.2,0,0,1-1.12.6,8,8,0,0,1-1.8.3c-.72.06-1.45.15-2.18.21-2.05.19-1.92.27-2.74.3-1.36.06-3.68-.1-3.81-.77-.06-.34.46-.7,1.24-1.24a29,29,0,0,1,2.66-1.37c.12-.07.47-.26,1-.48Z"/><path class="cls-16" d="M547.8,233a8.1,8.1,0,0,0-1.9,3.41,7.41,7.41,0,0,0-.44,3.41,6.68,6.68,0,0,0,1.56,3.4,7.33,7.33,0,0,0,3.37,2.27,9.81,9.81,0,0,0,4.5.48,20.08,20.08,0,0,0,5.71-1.61c1.31-.5,1.16-.51,4.15-1.7a18.21,18.21,0,0,1,3.81-1.33c.55-.09,2.32-.33,3.11-.47a7.18,7.18,0,0,1,1.2-.25c.08,0,.14,0,.18,0,.22-.25-.67-1.5-1.21-2.27-3.19-4.54-3-4.48-3.72-5.2-.13-.13-1.06-.91-2.94-2.46a18.81,18.81,0,0,0-2.76-2.18c-1.13-.47-2.7,0-5.8.85-1.87.54-3.12,1-5.62,2C549.08,232.06,548.47,232.36,547.8,233Z"/><path class="cls-17" d="M562,232.1c-.54.18-1.21,1-2.51,2.68a23.66,23.66,0,0,1-2.41,3c-1,.92-1.26.84-2.51,2a16.59,16.59,0,0,0-2,2.17c-1.27,1.68-2.09,2.76-1.8,3.8.55,2,4.74,2.53,5.22,2.6,2.4.32,3-.31,8-1.21,5.32-1,7.34-.75,8.63-2.34a4.42,4.42,0,0,0,.9-2.42,6.56,6.56,0,0,0-1.5-4.5,13.75,13.75,0,0,0-5-4.24C565,232.51,563.4,231.63,562,232.1Z"/><path class="cls-18" d="M547.71,231.28c-.63-.15-2,3-2.62,4.9a35.1,35.1,0,0,0-1.71,7.85,71.31,71.31,0,0,0-.57,8c0,3.17.13,7.49,1.59,19.24.85,6.77,1.61,12.89,2.85,19.23,1.44,7.4,1.94,9.57,1.94,9.57.81,3.59.95,3.7,1,4.89.22,3.73-.93,6,.45,7.86a3.08,3.08,0,0,0,1.83,1.36,3.2,3.2,0,0,0,1.82-.34c2.62-.92,5.12,2.37,6.65,1.66,1.27-.58,1-3.51.89-5.86-.48-8.47.74-6.4.18-14.21-.38-5.22-.7-9.71-2.49-15.28-1.93-6-3.38-6.52-4.53-12.26-.8-4-1.42-7.33,0-10.87.6-1.48,1.35-2.49,2.43-5.5,1.77-4.91,1.06-5.78.77-6s-.77-.2-1.81-.22c-1.39,0-1.79.13-2.76.14a8.37,8.37,0,0,1-3.54-.63,7.87,7.87,0,0,1-2.43-1.64,6.08,6.08,0,0,1-1.55-7.28c.78-1.73,2.09-2.42,1.89-3.87C548,231.8,547.93,231.34,547.71,231.28Z"/><path class="cls-19" d="M562.33,223.94c.18,1-1.53,1.95-1.56,4.44a6.28,6.28,0,0,1,0,1.23c-.21,1.14-1.08,2-2.77,3a23,23,0,0,1-5.7,2.17c-3.86,1.16-5,1.43-5.54.76s0-1.18-.43-2.27c-.73-1.68-2.45-1.37-3.29-2.84s-.28-3.28.26-4.34,1.64-2.39,6.58-3.31C555.48,221.76,562,222.09,562.33,223.94Z"/><path class="cls-20" d="M535.35,212a5.13,5.13,0,0,1-.61-3.11,19.7,19.7,0,0,1,2.42-8.91,14.44,14.44,0,0,1,5.88-6.22,13,13,0,0,1,2.16-.87c1-.32,4.54-1.3,11.59,0,4.82.89,7.68,1.42,10.38,3.81a16.89,16.89,0,0,1,2.86,3.46,18.69,18.69,0,0,1,3.71,8.47,16.68,16.68,0,0,1-1,7.87,16.46,16.46,0,0,1-3.9,6.57,14.05,14.05,0,0,1-5.36,3.2,4.16,4.16,0,0,1-1.73.18,4.87,4.87,0,0,1-2.85-1.65c-.18-.19-2.69-1.71-7.7-4.75-5.73-3.48-8.59-5.22-10.72-5.71C538.58,213.94,536.44,213.74,535.35,212Z"/><path class="cls-21" d="M536,210.39c-.33.74.38,1.9-.26,3.63a10.43,10.43,0,0,1-.52,1.13c-.51.92-.78,1-1.12,1.64a5.19,5.19,0,0,0-.52,2.16c-.07.66,0,.68,0,2.08a11,11,0,0,1-.09,1.81c-.3,1.11-.93,1.41-.78,2.17,0,.25.26.86.26.86h0s.76,0,1,.35-.12.49-.17.95.05.66.6,1.47a7,7,0,0,0,1.73,2,5.19,5.19,0,0,0,3.38.6c6-.45,9-.67,12.1-2.33a10.66,10.66,0,0,0,3-2.08,9.45,9.45,0,0,0,2.77-6.57c-.28-5.73-8.55-8.7-11.07-9.6C541.55,208.94,536.69,208.92,536,210.39Z"/><path class="cls-22" d="M542.09,217.48c-2.22.9-3,.18-4.15,1.13a5.08,5.08,0,0,0-1.38,5.44,5.48,5.48,0,0,0,2.68,2.94c.71.41,2,1,5.1.78,4.27-.24,6.67-.37,8-2.25,1.64-2.23,1.33-5.74-.43-8-1.17-1.53-3.42-3.07-5.53-2.68C544.67,215.13,544.63,216.46,542.09,217.48Z"/><path class="cls-23" d="M557.65,312.5c-.09.9,5.61,20.92,7.21,24.8a4.14,4.14,0,0,1,.45,3.07,2.58,2.58,0,0,1-.82,1.09c-.8.6-1.44.26-2.8.45-2,.28-2.24,1.28-4.24,1.53a10.27,10.27,0,0,0-1.63.37c-.72.2-1,.32-1.17.54a1.32,1.32,0,0,0-.36,1.26c.13.33.4.31.9.72s.58.82,1,1.18a2.69,2.69,0,0,0,1.89.45,17.06,17.06,0,0,0,3.61-.54,44.92,44.92,0,0,1,4.52,0c2.38,0,2.95.07,4.07,0,1.89-.13,2.84-.21,3.43-.72,1-.9.86-2.54.63-4.7-1-9.74-6.76-30.1-7.3-30.67-1.68-1.74-4.82-3.11-7.14-1.9A4.23,4.23,0,0,0,557.65,312.5Z"/><path class="cls-24" d="M566.21,323.69c-.1,1.52.84,3.51,2.71,7.49,0,0,2.81,6,3,9.22a5.24,5.24,0,0,1-.18,1.64,3.91,3.91,0,0,1-1.08,1.88,3.79,3.79,0,0,1-1.54.72A12.77,12.77,0,0,0,565,346.9c-1.39,1.1-1.23,1.53-2.35,2.08a12.57,12.57,0,0,0-1.72,1c-.72.5-.9.74-.9,1,0,.46.59.82.72.91.49.3.73.14,1.09.45s.21.58.54.81c.58.42,1.71,0,1.71,0h0a12.65,12.65,0,0,0,1.45.36,3.4,3.4,0,0,0,1.9,0c.47-.17.49-.37,1.17-.81a7.62,7.62,0,0,1,1.53-.72c1.56-.6,2.33-.9,3.53-1.27a26.18,26.18,0,0,1,3.07-.81c1.43-.27,1.77-.18,4.06-.54,1.66-.26,2.21-.43,2.71-.9a3.39,3.39,0,0,0,.9-1.81,4.85,4.85,0,0,0-.72-3.7,4.56,4.56,0,0,0-1.89-1.54A18.79,18.79,0,0,1,580,337.6a19.41,19.41,0,0,1-1-4.7c-.75-6.84-1.15-10.32-2.53-12.64-.73-1.23-2.19-3.68-4.34-3.8C569.38,316.31,566.44,320.15,566.21,323.69Z"/><path class="cls-25" d="M543.37,256.12a19.61,19.61,0,0,1-3.53,2.79,32.77,32.77,0,0,0-3.15,2.1,4.12,4.12,0,0,0-1.67,1.92,2.49,2.49,0,0,0,0,1.92c.08.18.37.8.92.92.4.09.62-.16.87,0s.09.54.37,1a1.64,1.64,0,0,0,1,.68,1.37,1.37,0,0,0,1.24-.18,1,1,0,0,0,.31-1.11c-.17-.29-.52-.2-.62-.44s.43-.87.62-1a5.3,5.3,0,0,1,1.86-1.11c3.43-1.17,3.56-1.12,3.83-1.43.89-1,.68-2.83.06-4A4.45,4.45,0,0,0,543.37,256.12Z"/><path class="cls-26" d="M540.3,260.73a8.1,8.1,0,0,0-1.86,0,5.32,5.32,0,0,0-2.6,1.18,4.93,4.93,0,0,0-1.48,2.1c-.43,1.22-.47,2.94.43,3.84a1.24,1.24,0,0,0,.93.43c.43-.06.69-.5.87-.8A3.4,3.4,0,0,0,537,266a5.4,5.4,0,0,1,.49-2.35c.64-.9,1.88-.27,4.09-1,1.51-.49,2.89-1.43,2.78-1.79S543.13,260.87,540.3,260.73Z"/><path class="cls-27" d="M539.22,259.16a7.47,7.47,0,0,0-1.85,0,5.27,5.27,0,0,0-2.6,1.17,4.9,4.9,0,0,0-1.49,2.11c-.43,1.22-.46,2.94.44,3.83a1.17,1.17,0,0,0,.93.43c.43-.05.69-.5.86-.8a3.36,3.36,0,0,0,.37-1.48,5.57,5.57,0,0,1,.5-2.36c.64-.9,1.88-.27,4.08-1,1.51-.49,2.9-1.42,2.79-1.79S542.06,259.29,539.22,259.16Z"/><path class="cls-28" d="M539.22,257.64a7.47,7.47,0,0,0-1.85,0,5.37,5.37,0,0,0-2.6,1.17,5,5,0,0,0-1.49,2.11c-.43,1.22-.46,2.94.44,3.83a1.21,1.21,0,0,0,.93.44c.43-.06.69-.5.86-.81a3.33,3.33,0,0,0,.37-1.48,5.51,5.51,0,0,1,.5-2.35c.64-.91,1.88-.28,4.08-1,1.51-.49,2.9-1.43,2.79-1.8S542.06,257.77,539.22,257.64Z"/><path class="cls-29" d="M574.59,343.61c.16.5.58.78,1.15,1.15a3.39,3.39,0,0,0,2.14.68c.15,0,1.6-.15,2-1.14.28-.72-.16-1.45-.69-2.3s-.94-1.53-1.76-1.6A2.08,2.08,0,0,0,576,341C575.84,341.11,574.22,342.38,574.59,343.61Z"/><path class="cls-30" d="M583,343.07a2,2,0,0,0-1.19.29c-.4.25-.52.54-1,1.23a6.34,6.34,0,0,1-1,1.4c-.45.33-.85.26-3,.15a14.28,14.28,0,0,0-2.42,0,5,5,0,0,0-2.52,1.37c-.63.65-.36.78-1.12,1.66a5.79,5.79,0,0,1-2.13,1.73,5.66,5.66,0,0,0-1.22.61c-.35.25-.61.35-.72.62a.9.9,0,0,0,0,.72c.25.52,1.13.59,1.66.54.89-.09,1.19-.6,2.2-1.16a11.59,11.59,0,0,1,2.48-.82c2.16-.62,3.23-1,3.93-1.09.49-.08.22,0,3.1-.36,2-.23,2.6-.32,3.32-.83a3.85,3.85,0,0,0,1.26-1.47,3.55,3.55,0,0,0,.22-2.46C584.81,345,584.27,343.23,583,343.07Z"/><path class="cls-31" d="M493.23,163.17c-2.56,2.46,1.2,6.36,1.48,17,.09,3.61-.25,6.77,1.48,10.85a9.24,9.24,0,0,0,3.08,4.32c2.81,2,7.34,2.15,9.5-.13.82-.87,1.37-2.18,1.35-4.93,0-6.59-3.25-8.62-6.16-16.9-2.24-6.36-1.88-9.5-4.69-10.85C497.48,161.69,494.74,161.71,493.23,163.17Z"/><path class="cls-32" d="M557.7,217.73a4,4,0,0,1,2,.07,3,3,0,0,1,1.72,1,2.92,2.92,0,0,1,.61,2,3.34,3.34,0,0,1-.34,1.18,6.05,6.05,0,0,1-1.39,1.86,8,8,0,0,1-2.46,1.55c-1.33.59-2.76,1.23-3.65.61a1.57,1.57,0,0,1-.61-.88,1.88,1.88,0,0,1,.3-1.38C555.7,220.51,555.77,218.23,557.7,217.73Z"/><path class="cls-33" d="M488,156.56c-.85.46-2.3,1.39-5.55,5.59-1.43,1.84-2.45,3.34-4.06,5.8a105,105,0,0,0-6.54,10.66c-1.71,3.54-2.57,5.36-2.66,8a14.35,14.35,0,0,0,1.69,7.27c1.8,3.25,4.47,4.77,6.79,6.06s11.5,6.4,16.72,2.42c1.81-1.38,2.39-3.31,3.15-5.81,1.24-4.14.71-7.06-.25-15-.92-7.7-1.38-11.55-1.45-13.33-.3-7.83.68-11.5-1.46-12.8S489.19,155.93,488,156.56Z"/><path class="cls-34" d="M519.28,136.7c-.14-1.32-2.62-2.08-4.27-2.59a13.59,13.59,0,0,0-7.66,0,11,11,0,0,0-4.72,2.47c-1.8,1.68-2.4,3.58-3.27,6.42-1.32,4.34-2.33,7.32-1.35,8,1.31.89,4.19-3.51,11.71-8.1C515.39,139.42,519.47,138.44,519.28,136.7Z"/><path class="cls-35" d="M522.09,142.32c.92.24,1.41,2,2.34,5.43,1.46,5.42,2.19,8.13,2.22,8.26,1.37,6.83,2.32,6.62,4.44,15.05,2.46,9.78.83,8.64,2.84,15.79.22.78.35,4.18.61,11a1.62,1.62,0,0,1-.37,1.24c-.89.85-3.1-.3-4.81-1-5.63-2.28-7.3-.12-14.3-2.59a16.85,16.85,0,0,1-4.2-1.85c-2.41-1.66-3.78-3.95-6.41-12s-4-12.27-3.21-15.54a61.66,61.66,0,0,1,3.09-7.16c2.69-5.85,3.56-6.8,4.19-7.4,2.45-2.31,3.62-1.33,7.15-3.82C519.72,144.89,520.56,141.93,522.09,142.32Z"/><path class="cls-36" d="M497.11,145.58c.1-1.38,7.66-5,7.66-5,6.06-2.85,6.82-3.22,8.55-3.71,3.09-.87,5.58-1.54,7.31-.22.92.69,1.33,1.71,2,3.48a10.1,10.1,0,0,1,1,4.39,8.68,8.68,0,0,1-2.92,5.63c-1.49,1.41-2.67,1.67-7.77,3.6-2.25.85-5.39,2.12-5.39,2.12a4.84,4.84,0,0,1-.37-.42,4.92,4.92,0,0,1-.84-3.08c0-2.34-2.31-5-4.57-6.11a16.37,16.37,0,0,0-4.4-.56s-.19,0-.27,0A.18.18,0,0,1,497.11,145.58Z"/><path class="cls-37" d="M507,152.4c0-1.57-1.23-2.83-2.44-4.06a10.43,10.43,0,0,0-2.2-1.74c-.88-.51-2.72-1.58-4.41-1.28-2.74.48-5.13,4.55-4.3,8.13.58,2.49,2.76,4.91,5.34,5.1,1.62.13,2.86-.66,4.18-1.51S507,154.6,507,152.4Z"/><path class="cls-38" d="M491.17,280.65a12,12,0,0,0-2.9,6.88c-.07,1.84.46,2.53,0,4.19-.24.86-.64,1.6-3.44,4.62-2.95,3.19-4,4-4.19,5.69a3.81,3.81,0,0,0,.54,2.48c.72,1.05,1.83,1.17,3.33,1.71a16.27,16.27,0,0,1,4.94,3c1.88,1.78,1.53,2.78,3.76,4.84a14.18,14.18,0,0,0,2.48,1.82c2.44,1.32,4.59.51,12.67-1.5a35.29,35.29,0,0,0,10.21-3.76,4.79,4.79,0,0,0,2.58-2.79c.19-.82-.3-2.06-1.29-4.52a41.26,41.26,0,0,1-1.5-3.86,12.29,12.29,0,0,1,.21-5.7c.42-2.35,1.29-7.18-.21-11.07a13,13,0,0,0-8.49-7.41c-2.68-.75-4.79-.35-7.74.21C498.36,276.21,494.13,277,491.17,280.65Z"/><path class="cls-39" d="M497,264.56c2.68,5.26,1,9.72.37,18.68-.59,8.56.79,7,.12,13.72a138.92,138.92,0,0,1-5.19,25.73c-.4,1.24-1.83,5.6-.25,6.8.15.11.49.32,3.34.25,2-.05,3.54-.2,4.08-.25,4.11-.39,4.24-.58,5.07-.37,1.67.42,1.84,1.36,3.83,2.84,2.16,1.61,6.37,3.78,8.54,2.35,1.06-.69,1.28-2,1.61-4.08a24.43,24.43,0,0,0-.38-8.16c-.16-1.19-.15-4-.12-9.65,0-8.11.43-8.07.37-13.23a119.22,119.22,0,0,0-1-13.6c-1.11-9.58-1.88-8.82-1.85-13,.06-8.77,3.46-11.85,1.11-15.46-2-3-6-3.49-7.91-3.71-6.29-.74-13.51,2.55-14,6.43C494.57,261.52,495.74,262.1,497,264.56Z"/><path class="cls-40" d="M482,232.12c-1.27,2.39,2.57,3.13,3,8.93.23,2.76-.47,4.75,1.7,7.34a12.7,12.7,0,0,0,3.39,2.78c.27.16,5.7,3.31,11.19,3.18,7.94-.18,13.24-7.17,14.92-11.32.8-2,4.43-11-5.09-15.08C501.32,223.73,484.35,227.63,482,232.12Z"/><path class="cls-41" d="M498,147c-.56.09-1.26.76-2.67,2.08s-2.19,2.08-2.67,3.26a6.75,6.75,0,0,0-.34,3.48c.13,1.13.52,2.36,2.32,5.1A42.89,42.89,0,0,0,498,165.4c3.26,3.7,5.16,5.49,7.2,7.66,5.84,6.22,10,10.68,11.61,14.51a5.92,5.92,0,0,0,2.09,2.79,6.9,6.9,0,0,0,3.83.93c1.84.08,3.71.16,4.64-1a3.68,3.68,0,0,0,.58-2.32,5.63,5.63,0,0,0-.7-2.67,29.71,29.71,0,0,0-3.94-5.57c-.29-.34-3-3.45-5.34-6.85-1.21-1.73-2-3.05-2.79-4.41-3.32-5.62-3.06-6.54-5.34-9.87-.28-.41-.06-.06-5.45-6.26C500.91,148.25,499.57,146.68,498,147Z"/><path class="cls-42" d="M528.3,202.08a3.13,3.13,0,0,0,1.18,2.6,1.46,1.46,0,0,0,1.28.35,1.94,1.94,0,0,0,1.33-1.27,4,4,0,0,0-.15-3.31c-.27-.3-.94,0-2.28.64C528.53,201.62,528.37,201.79,528.3,202.08Z"/><path class="cls-43" d="M488.39,231c-.62,1.59.57,2.58.79,6,.11,1.6-.26,3.39-1,6.95a46.38,46.38,0,0,1-2.18,8.34c-1.26,3.16-2.06,3.72-2.58,6.35a19.31,19.31,0,0,0-.2,5.16A39.47,39.47,0,0,0,485,273c2.92,9.59,4.38,14.38,6.74,14.89,2.2.47,4.45-1.41,6.56-3.17,4.47-3.75,4.26-7,6.35-7.35,4.55-.79,9.3,14,13.1,13.1,1-.22,1.11-1.36,3-5.36,2.39-5.12,3.08-5.07,5.75-10.32a86.15,86.15,0,0,0,4.77-11.32,60.72,60.72,0,0,0,3.37-12.3,45.43,45.43,0,0,0,0-14.1c-.9-5.29-1.48-8.66-4.16-11.31-3.49-3.45-8.48-3.22-15.29-3-7.38.26-5.5,1.92-19.85,4.76C492.58,228.12,489.26,228.7,488.39,231Z"/><path class="cls-44" d="M499.9,230.75c-1.57,2.67.52,4.62-.79,10.52a24.7,24.7,0,0,1-2.78,6.95c-3.21,5.72-6.61,7.15-7.34,11.71-.35,2.18.2,3.24.59,3.77a4.82,4.82,0,0,0,2.78,1.59,20.06,20.06,0,0,0,6.35,1.19c2.15,0,8.22.19,13.11,3.18a86,86,0,0,1,7.54,5c.8.65,1.81,1.51,2.58,1.19.95-.4.83-2.34,1-4.36.19-2.33.58-2.53,2.19-8.14,0,0,1.66-5.83,3-11.92,2.1-9.75,4.11-19.09-.39-23.22-2.45-2.25-6.47-2-14.5-1.39C506.48,227.26,501.76,227.6,499.9,230.75Z"/><path class="cls-45" d="M547.56,265.68c-1.5,1.75-.12,4.22,1.14,10.92a79.93,79.93,0,0,1,1.28,9.93c.31,5-.18,5.75.56,8.66.62,2.4,1.08,2.39,3,7.23,1.39,3.53,1,3.22,2.56,7.24,2.25,5.9,2.64,5.52,3.68,9.08.68,2.3.69,3,1.56,4.11,1.68,2,4.26,2.51,6.1,2.84a10.92,10.92,0,0,0,6.81-.43,9.75,9.75,0,0,0,4.26-3.69,10.26,10.26,0,0,0,1.28-3.26,19.27,19.27,0,0,0,.28-3.83s.06-1.57.43-4.54a56,56,0,0,1,1.7-7.94c1-3.79,1.17-3.89,1.7-6.39.74-3.44,1.1-5.2.57-6.81a8.55,8.55,0,0,0-4.26-4.68c-2.24-1-3.07,0-7.23-.56a20.89,20.89,0,0,1-6.53-1.85,19.16,19.16,0,0,1-5.81-4.68c-6-6.63-5.75-12.06-9.37-12.63A4.28,4.28,0,0,0,547.56,265.68Z"/><path class="cls-46" d="M583.17,298c.58,0,1-1.1,2.87-8a52.65,52.65,0,0,0,1.44-6c.29-2.48.64-5.45-.46-8.32a34.72,34.72,0,0,1-1.21-3.39c-.08-.28-.35-1.22-.64-2.58-.44-2.06-.37-2.5-.74-4.62-.47-2.68-.68-2.52-.93-4.43-.29-2.26,0-2.31-.27-4.06s-.71-1.95-1.48-4.62c-.72-2.5-.43-2.55-1.11-4.71a11.69,11.69,0,0,0-2.17-4.58,8.85,8.85,0,0,0-3.09-2.29,9.57,9.57,0,0,0-6.11-.21c-1.36.31-1.68.6-5.8,2.62-4.57,2.24-4.6,2.1-5.27,2.63-1.59,1.28-2.31,3.54-3.77,7.9-1.31,3.88-2,5.82-2.06,8.3a20.41,20.41,0,0,0,1,7c.79,2.67,3.31,11.09,10.18,14.31,2.27,1.07,2.85.54,9.39,2.86,3.46,1.23,4.57,1.83,5.5,3s.85,1.67,2.74,5.84C582.59,297.74,582.86,298,583.17,298Z"/><path class="cls-47" d="M580.27,256.93a7.34,7.34,0,0,1,.25,3.59,5.94,5.94,0,0,1-.56,1.86,4.5,4.5,0,0,1-1.8,2,4.4,4.4,0,0,1-2.78.37,7.46,7.46,0,0,1-4.27-2.54c-1.51-1.54-3.13-3.21-2.84-5.13.39-2.65,4.27-4.78,7.54-4A6.37,6.37,0,0,1,580.27,256.93Z"/><path class="cls-48" d="M570.86,258.67c2.23-.31,3.37-.45,4.71.06a4.65,4.65,0,0,1,2.9,2.6,3,3,0,0,1,.13,1.67c-.37,1.62-2.17,2.42-3.16,2.84-1.85.8-3.42.85-6.06.87-5.31,0-8,.05-9.34-.31-2.75-.71-3-1.44-6.19-2.35a16.56,16.56,0,0,1-2.79-1.3c-1-.54-1.44-.88-1.48-1.36a1.62,1.62,0,0,1,.62-1.18,2.65,2.65,0,0,1,1.42-.62,8.68,8.68,0,0,1,3,.07,27.13,27.13,0,0,0,7.06.37,34.75,34.75,0,0,0,4.27-.37C568.26,259.3,568.67,259,570.86,258.67Z"/><path class="cls-49" d="M554.07,260.38c.1-.44-.52-1.15-1.75-2.56a13.68,13.68,0,0,0-2.19-2.2,8.07,8.07,0,0,0-2-1.1,11.28,11.28,0,0,0-2.44-.49,5.19,5.19,0,0,0-1.83.08.91.91,0,0,0-.61.37.66.66,0,0,0,0,.69c.17.2.43.15.86.2a8.84,8.84,0,0,1,1.34.45c.59.22.45.2,1.46.61.68.28.78.3.94.45a2.26,2.26,0,0,1,.57,1.14c.3,1,.27,1.27.4,1.67a3.14,3.14,0,0,0,2.32,1.95C552.38,261.85,553.88,261.25,554.07,260.38Z"/><path class="cls-50" d="M549.68,258.55c-1.08-.54-1.93-.88-2.48-1.1-1.15-.46-.73-.23-2.28-.81a9.86,9.86,0,0,0-1.75-.45c-.47-.09-.8-.12-1,.08a1.08,1.08,0,0,0-.24.69,2,2,0,0,0,0,.81c.09.34.19.37.16.53s-.42.5-.65.61-.45.1-.65.25a1.19,1.19,0,0,0-.36,1.18c.08.35.36.58.93,1l1.59,1.22a7.4,7.4,0,0,0,3.17,1.1,10,10,0,0,0,2.81-.28c1.74-.31,2.62-.48,3-1.1a2.2,2.2,0,0,0,.2-2C552.11,260.09,551.89,259.64,549.68,258.55Z"/><path class="cls-51" d="M560.58,251.34c-.06,1.9-.1,2.33.23,2.91.57,1,1.51,1.22,1.62,2.23.06.62-.25.92,0,1.38s.74.36,1.3.76c1.09.79.54,2.19,1.46,2.69.3.17.42,0,2.07-.08,1-.07,1,0,1.76-.08,1.77-.12,2.16-.4,4.52-.69a11.37,11.37,0,0,0,1.38-.15c1.6-.44,1.84-1.5,3.38-1.84a7.44,7.44,0,0,1,1.53-.08c1.61,0,2.26.28,2.53-.07s.08-.49-.3-1.54c-.49-1.31-.88-2.27-1.08-2.76-.61-1.55-.43-1.5-.92-2.6a23.73,23.73,0,0,0-1.3-2.38,16.72,16.72,0,0,0-1.61-2.53c-.68-.69-1.29-.88-3.07-1.54-4.56-1.68-4.32-1.85-5.29-1.91a10,10,0,0,0-4.6,1c-1.7.69-2.55,1-3.15,1.91C560.65,246.56,560.75,246.81,560.58,251.34Z"/><path class="cls-52" d="M531.78,218.18h2.44s2.55,6.46.39,9.69h-2.55Z"/><path class="cls-53" d="M513.54,232.37s-7.42,1.15-33,1.4h-13.3s-6.67-.45-7.2-6.25,0-23.77,0-23.77l.3-6.38a5.93,5.93,0,0,1,5.82-5.2H498.7S496.8,210.48,513.54,232.37Z"/><path class="cls-54" d="M529,197.83a1.22,1.22,0,0,1,.35-1.53c.68-.46,1.88.3,2.6.77a5.07,5.07,0,0,1,1.87,1.83,5.61,5.61,0,0,1,.56,3.24,5.5,5.5,0,0,1-.6,2.81,2.91,2.91,0,0,1-.9,1,3.48,3.48,0,0,1-2.43.38,58.29,58.29,0,0,0-7.63-.34c-2.36,0-3.81.4-5-.6-.32-.27-.85-.85-.72-1.06s.54,0,1.41.08c.59.09,1.19.1,1.79.17,2.45.28,4.36-.12,7.8.17,2.09.18,2.84.46,3.54-.13a3.48,3.48,0,0,0,.89-2.55,4.1,4.1,0,0,0-.76-2.73,3.24,3.24,0,0,0-1.5-1.15C529.59,198,529.21,198.14,529,197.83Z"/><path class="cls-55" d="M530.23,217.9h2.44s2.55,6.87.39,10.31h-2.55Z"/><path class="cls-56" d="M529,195.14l2.22.22a6.5,6.5,0,0,1,5.63,5.73c.62,5.21-.84,7.81-.84,7.81s-4.35,5.07-4.39,7.21,2,9.65-.33,12.54-17.47,3.72-17.47,3.72c-7,.67-17.67.85-17.67.85l-13.55-41.05H499l20.57,2,0,2.45-2.69-.19s-1-.18-.56,1.21,1.39,6.48,1.39,6.48.28.83.84,1,8.61.55,8.61.55l3.61.28s2.13,0,2.32-1.11.93-3.43-.19-5.74-3.89-2-3.89-2Z"/><path class="cls-57" d="M518,187.52c-.33.57-.29.89-.29,3.95s0,3.23,0,5.56c0,1.43,0,2.25.11,3.25.1,1.41-.19,2.07.23,2.43s.87,0,2.32.06a17.86,17.86,0,0,1,2.32.35c2.29.42,2.09.55,2.84.58a17.54,17.54,0,0,0,3.25-.58,7.53,7.53,0,0,0,2.32-.7,3.61,3.61,0,0,0,1.68-1.62c.18-.4.28-.91-.17-3.13a20.3,20.3,0,0,0-.76-3.07,18.26,18.26,0,0,0-2.26-4.18c-1.43-2.23-2.15-3.35-3-3.94a6.67,6.67,0,0,0-4.41-1.22C521.58,185.32,519.07,185.66,518,187.52Z"/></g><g id="_LAYER-18_P8_" data-name="&lt;LAYER-18_P8&gt;"><path class="cls-58" d="M1642.58,180.59c0-.69,8.36-3,10.54-4.69a17.78,17.78,0,0,0,3.14-3.44,20.1,20.1,0,0,0,2.76-4.13,16.89,16.89,0,0,0,1.28-4,19.41,19.41,0,0,0,0-5.8c-.44-4-1.37-5.86-.5-6.49.29-.21.43,0,2.56,0,1.45,0,1.58-.07,2.46,0a6,6,0,0,1,2.66.49c.57.36.83.86,2,4.52.69,2.22.75,2.56,1.18,3.15.79,1.08,1.18.77,2.56,2.07.62.58.49.59,2.85,4.32a2,2,0,0,1,.4,1.38,1.86,1.86,0,0,1-.59,1,2.41,2.41,0,0,1-1.08.53c-1.61.38-3.47,4.05-4.14,5.37-1.09,2.15-1.63,3.23-1.77,4.82-.09,1.07.07,1.56-.29,1.87-1,.84-3.11-1.92-6.69-2.46s-4.64,1.67-8.95,1C1651.3,179.77,1642.59,181.35,1642.58,180.59Z"/><path class="cls-59" d="M1693.82,143.06a6.77,6.77,0,0,1,.16,2.28,17.29,17.29,0,0,1-1.66,6.86,16.49,16.49,0,0,0-1,2.39,8.07,8.07,0,0,0-.52,2,6.64,6.64,0,0,0,1.56,4.73,1.34,1.34,0,0,1,.41.62,1.27,1.27,0,0,1-.2,1.09,1.63,1.63,0,0,1-1,.52,3.88,3.88,0,0,1-.78.11h-.62a2.23,2.23,0,0,0-.16,1.3c0,.05.13.27.36.72s.3.55.26.68,0,.14-.62.52c-.27.17-.34.2-.57.36a1.88,1.88,0,0,0-.52.42,1.24,1.24,0,0,0-.11.78c0,.67.22.8.11,1a1,1,0,0,1-.94.37c-.55,0-.69-.43-1-.37s-.39.41-.78,1.1a10.77,10.77,0,0,1-1.09,1.56,3.78,3.78,0,0,1-1.4,1.24,3.2,3.2,0,0,1-2.24,0c-.9-.26-1.17-.6-2.85-1.61-1.17-.69-1.06-.54-1.67-.93a12.89,12.89,0,0,1-3.11-2.91,24.22,24.22,0,0,1-1.82-3.17c-1.08-2-1.61-3-1.77-3.23-1.68-2.89-2.37-3.46-2.91-5.35a11.57,11.57,0,0,1-.36-1.82,15,15,0,0,1,.37-6.69,12.2,12.2,0,0,1,4.72-5.83,18.75,18.75,0,0,1,14-3.24C1687.45,138.79,1692.73,139.74,1693.82,143.06Z"/><path class="cls-60" d="M1671.61,152.38a3.61,3.61,0,0,0-1.53-1.89,4.1,4.1,0,0,0-2.54-.66,3.1,3.1,0,0,0-2.14.87c-.55.61-.54,1.46-.51,3.15a12.55,12.55,0,0,0,.51,3.67,6.76,6.76,0,0,0,1.12,2.5,3.58,3.58,0,0,0,2.49,1.63,2.17,2.17,0,0,0,1.63-.56c.41-.44.39-1,.41-2,0-1.87,0-2.81.15-3.67C1671.43,153.6,1671.9,153.32,1671.61,152.38Z"/><path class="cls-61" d="M1637.93,294c-.73.86-.64,3-.7,11.31,0,1.54,0,5-.08,7.54-.19,9.41-.81,10.05-.52,13.12a21.06,21.06,0,0,0,5.79,12.45c4.45,5.08,9,4.46,11.22,4.1,2-.32,6.33-1.14,10.45-7.05,3.77-5.39,8.3-16.39,6.65-25.4,0-.32-1.08-5.7-3.62-7.38-2.3-1.52-3.47,1.55-6.83,2.62-4.23,1.36-8.11-1.67-12.69-5.24-2.07-1.62-4.25-2.74-6.31-4.43C1639.43,294.14,1638.59,293.25,1637.93,294Z"/><path class="cls-62" d="M1641.79,306.7a72.37,72.37,0,0,1-8.78,4.53c-3.67,1.46-3.4.83-8.52,2.6-4.81,1.68-7.27,2.56-9.74,4.67-2.13,1.82-3.19,2.73-4.12,4.4-.79,1.41-1.1,2.66-1.92,2.74s-1.34-.75-2.34-2.06a12.21,12.21,0,0,1-1.64-2.88,6.91,6.91,0,0,1-.69-3.3,6.14,6.14,0,0,1,.55-2,6.69,6.69,0,0,1,1.37-1.93,21,21,0,0,1,3.71-3,57.3,57.3,0,0,1,5.63-3c5.09-2.38,7.64-3.57,8.1-3.84a37.1,37.1,0,0,0,7-5.49c4.13-4,3.83-5.31,6.17-6.32,3-1.3,8.11-1.07,10.58,2.47a8.16,8.16,0,0,1,.13,8.65C1646.83,303.57,1646.27,304.17,1641.79,306.7Z"/><path class="cls-63" d="M1639.32,325.23c-1.72,1.31-.33,4.44,0,11.26a42.57,42.57,0,0,1-.27,9.19c-1,6.48-1.1,7-1.1,7-.41,2.23-.74,3.71,0,5.35a4.84,4.84,0,0,0,2.33,2.47,5,5,0,0,0,4.12-.14,5.56,5.56,0,0,0,2.47-2.19c.28-.48.56-1.12.83-3.71.23-2.35.1-2.75.27-4.39a29.22,29.22,0,0,1,1-4.67c.83-3.24,1.19-3.51,1.65-5.49a24.87,24.87,0,0,0,.55-6.32c-.06-4.89-.09-7.5-1.79-8.65-.64-.43-2.67-.33-6.72-.13C1639.77,325,1639.55,325.06,1639.32,325.23Z"/><path class="cls-64" d="M1611.86,311.09c-1.83-1-3.31.37-7.68,1.23a35.1,35.1,0,0,1-8.93,1c-1.13-.06-2.76-.2-3.7.82a4.15,4.15,0,0,0-.83,2.47,9.71,9.71,0,0,0,.28,3.3,34.73,34.73,0,0,0,1.51,5.62,31.58,31.58,0,0,0,2.06,4.4,57,57,0,0,0,3.84,5.49c2.07,2.92,3.6,5.41,4,6,1.18,1.93,2.53,3.76,3.57,5.76.85,1.64,1.52,3.16,2.75,3.3a1.85,1.85,0,0,0,1.51-.55c.54-.59.44-1.46.27-2.75a21.64,21.64,0,0,0-.55-2.47,27.89,27.89,0,0,1-.41-3.29c-.29-2.34-.67-2.74-1-4.53s0-2.17,0-5.36c.09-5.62-.61-6,0-8.64a12.83,12.83,0,0,1,1.92-4.81c1.55-2.25,3.2-2.85,3.16-4.39A3.4,3.4,0,0,0,1611.86,311.09Z"/><path class="cls-65" d="M1639.13,352.82c-1.24.68-.92,2-2.4,5.54a37.87,37.87,0,0,1-1.87,3.81c-1.36,2.49-2.14,3.35-2.17,5a4.21,4.21,0,0,0,.6,2.4,4.43,4.43,0,0,0,2.25,1.62c1.79.68,3,.36,5.54.32.21,0,1.71.09,4.71.27,5.8.35,5.66.44,6.86.39,2.19-.09,1.71-.34,6.14-.81,3.14-.33,4.71-.5,5.76-.52a17.91,17.91,0,0,0,4.26-.45,5.64,5.64,0,0,0,2.62-1.35c.28-.26,1-1,.82-1.49-.11-.34-.55-.48-1.19-.68a10.89,10.89,0,0,0-1.57-.29c-1-.24-1.09-.92-2.17-1.72a12.09,12.09,0,0,0-3.59-1.35c-1.23-.36-1.25-.29-2.54-.67-.88-.27-1.12-.37-2.7-.9-1.77-.6-2.66-.9-3.21-1.05-2-.55-2.39-.37-3.52-.9a8.63,8.63,0,0,1-2.24-1.57c-2-1.77-1.77-2.6-3.44-3.88a9,9,0,0,0-3.29-1.58C1641.31,352.59,1640.12,352.28,1639.13,352.82Z"/><path class="cls-66" d="M1652.65,142.69c-1.72,2.56-.33,4.5-2.17,6.67-.68.79-.68.33-3.26,2.25a23.53,23.53,0,0,0-3.65,3.18,9.36,9.36,0,0,0-2.32,3.49A6.93,6.93,0,0,0,1641,162a6.68,6.68,0,0,0,3.34,4.42c1,.47,2,.44,4,.39,2.54-.08,3.81-.11,4.58-.94,1-1.12,0-2.18,1.08-4.26.69-1.29,2.13-2.83,3.81-3,.59,0,.72.13,1.31,0,1-.21,1.46-.86,2.56-1.86s1.4-1,2-1.63a7.83,7.83,0,0,0,2-7c-.35-1.49-1.11-2.37-2.49-4-2-2.28-3.93-4.53-6.43-4.34S1652.86,142.38,1652.65,142.69Z"/><path class="cls-67" d="M1652.71,147.08a26.76,26.76,0,0,0-4-.07c-2.51,0-3.28.07-4.18.54a3.65,3.65,0,0,0-1.87,1.7c-.46,1.08.09,1.87-.46,2.41-.37.36-.79.18-2.1.23a7.68,7.68,0,0,0-3.25.62,4.85,4.85,0,0,0-2,2.17,5.4,5.4,0,0,0-.23,4.35c.64,1.35,1.82,1.76,1.63,2.4s-.9.32-1.63.93c-1.36,1.13-1,3.58-.93,4.27a5,5,0,0,0,1.24,3A6.51,6.51,0,0,0,1637,171c1.32.64,1.43.4,2.1.86,1.1.75.88,1.45,2,2.32a5.1,5.1,0,0,0,2.17.93,9.27,9.27,0,0,0,3.34-.07l2.33-.39,1.7-.31a10.53,10.53,0,0,0,3.18-1,4.63,4.63,0,0,0,2.33-2.25c.54-1.43-.43-2.23.23-3.33.53-.89,1.33-.66,1.86-1.56.43-.7.2-1.29,0-2.94a31.37,31.37,0,0,1-.15-5.12c.13-1.95.43-2.25.15-3.26s-.81-1.46-1.78-2.64C1653.85,149,1654.31,147.79,1652.71,147.08Z"/><path class="cls-68" d="M1640.66,357.39a3.68,3.68,0,0,0-1.85,4.16,4.21,4.21,0,0,0,2.74,2.74c2.06.69,4.77-.15,5.34-1.78.68-2-1.93-4.49-4.23-5.12A3.06,3.06,0,0,0,1640.66,357.39Z"/><path class="cls-69" d="M1656.64,152.55c1.26.72,3.35,1.48,18.5-2.62,9.68-2.63,10-3.27,13.37-4.13,1.71-.44,3.23-1.56,5-1.84a1.19,1.19,0,0,0,.85-.45,1.35,1.35,0,0,0-.09-1.17,11.81,11.81,0,0,0-1.48-3,29.49,29.49,0,0,0-6.91-6.34,29.06,29.06,0,0,0-9.48-3.36c-4.41-1-6.8-1.52-10.06-.95a18.31,18.31,0,0,0-9,4.45,16.37,16.37,0,0,0-4.89,7.59,10.58,10.58,0,0,0-.36,5.91A10.33,10.33,0,0,0,1656.64,152.55Z"/><path class="cls-70" d="M1646.42,172c3.7,2.41,10-1.48,10.23-1.65a13.78,13.78,0,0,0,5.61-7.43c.26-.83,2.22-7.38-1.65-11.63a8,8,0,0,0-5.2-2.72c-3.29-.22-5.72,2.11-6.68,3.05C1643,157.14,1641.75,169,1646.42,172Z"/><path class="cls-71" d="M1680.09,201.53a1.41,1.41,0,0,0,.18-.17,1.9,1.9,0,0,0,.55-1.39,1,1,0,0,0-.38-.78,1,1,0,0,0-.87.07,1.41,1.41,0,0,0-.5.62c-.6,1.09-1.27,1.35-1.13,1.63,0,.12.39.14,1.06.19S1679.86,201.71,1680.09,201.53Z"/><path class="cls-72" d="M1676.06,189.35c4.6,6,5.24,10.29,4.9,13.19-.31,2.65-1.73,6.57-1.26,10.32a8.68,8.68,0,0,1-.08,3.07c-.36,1.63-1,2.08-1.58,3.54a10.59,10.59,0,0,0-.47,5,15.08,15.08,0,0,0,1.78,5.66c1.1,2.22,1.75,2.55,3,4.66a24.51,24.51,0,0,1,2.56,6.22"/><path class="cls-73" d="M1669.05,207.19c.44-1.16,1.41-2,3.35-3.71,2.41-2.13,3.48-2.43,4.07-2.54a15.88,15.88,0,0,1,2.31,0c3,0,4.28-.37,5,.45a2.33,2.33,0,0,1,.46.86c.13.46.06.72-.14,2s-.2,1.49-.45,1.86a1.3,1.3,0,0,1-1,.67,1,1,0,0,1-.86-.49.92.92,0,0,1,0-.91c.22-.34.59-.2.86-.54s.24-1,0-1.13-.43.21-1,.36-.94-.24-1.27-.05-.31.68-.36,1c-.14.92-.78,1.39-1.9,2.45-2,1.89-1.49,1.82-3.13,3.26s-2.41,2.1-3.44,2.08a3.45,3.45,0,0,1-2.44-1.31C1668,209.94,1668.84,207.72,1669.05,207.19Z"/><path class="cls-74" d="M1679.86,202.93a1.77,1.77,0,0,0-1.21.69c-.13.16-.65.77-.46,1.26.1.29.47.49,1.2.87.4.2.69.31.67.44s-.14.11-.47.25-.61.27-.71.42a.87.87,0,0,0,.14,1,1.19,1.19,0,0,0,1,.18c.51-.07.56-.24,1.23-.47.83-.29,1.1-.15,1.51-.5a1.12,1.12,0,0,0,.44-.74c0-.3-.15-.52-.47-.91a12.84,12.84,0,0,0-1.21-1.36C1680.7,203.32,1680.28,202.93,1679.86,202.93Z"/><path class="cls-75" d="M1678.88,205.2a1.77,1.77,0,0,0-1.21.69c-.13.16-.65.76-.47,1.26.11.29.48.48,1.21.86.4.21.69.32.67.45s-.15.1-.47.24-.61.27-.71.42a.89.89,0,0,0,.14,1,1.19,1.19,0,0,0,1,.17c.51-.06.56-.23,1.23-.47.83-.29,1.09-.14,1.5-.49a1.11,1.11,0,0,0,.45-.74c0-.3-.15-.53-.47-.91a12.84,12.84,0,0,0-1.21-1.36C1679.72,205.58,1679.3,205.19,1678.88,205.2Z"/><path class="cls-76" d="M1677.34,206.59a1.77,1.77,0,0,0-1.21.69c-.14.16-.65.76-.47,1.26.11.29.48.48,1.21.86.4.21.68.32.67.45s-.15.1-.47.24-.62.27-.72.42a.88.88,0,0,0,.15,1,1.14,1.14,0,0,0,1,.17c.52-.06.57-.23,1.24-.47.83-.29,1.09-.14,1.5-.49a1.11,1.11,0,0,0,.44-.74c0-.3-.15-.53-.46-.91a15.58,15.58,0,0,0-1.21-1.36C1678.18,207,1677.76,206.59,1677.34,206.59Z"/><path class="cls-77" d="M1654.65,155.18c-1.11.18-1.87,1.28-3.41,3.49a9.44,9.44,0,0,0-1.47,2.56c-.32.94-.92,2.69,0,4.26a4.17,4.17,0,0,0,2.32,1.79c1.24.37,2.28,0,3.88-.55s2.52-.87,3.18-1.63c1.71-1.95.9-4.91.78-5.35a6.57,6.57,0,0,0-1.71-2.94C1657.7,156.31,1656.26,154.91,1654.65,155.18Z"/><path class="cls-78" d="M1650.44,246.87c-.23,1.75-.2,3.41.63,8.61,1.09,6.84,1.52,6.9,2.74,13.64,1,5.2,1,6.83,2.25,8.43s3.35,2.85,4.87,1.8c2.56-1.78,2.14-9.46,1.75-16.51-.35-6.36-.71-12-3.5-17.22-.71-1.35-3.47-6.53-5.86-5.57C1651.23,240.89,1650.57,245.9,1650.44,246.87Z"/><path class="cls-79" d="M1637.29,182.89c-1.64,1.12-2,3.54-2.74,8.36-.56,3.67-.41,6-.43,10.95,0,6.46,0,9.68-.29,10.67-1.17,4.64-3.56,5.09-13,16-4.9,5.69-6.15,7.77-7.06,10.24-1.22,3.29-1.31,5.84-1.44,10.52-.15,5.52-.29,12.65,2.27,21.39a66.93,66.93,0,0,0,5.33,12.74c2.16,4.09,5.62,9.71,6.49,11.12,3.64,5.92,3.87,5.83,4.16,7.18,1.07,4.82-1.63,6.92-.23,12.73a22.22,22.22,0,0,0,1.86,4.87,26.81,26.81,0,0,0,3.7,5.32c3.53,4.21,5.29,6.32,7,7.42,1.2.79,5.86,3.89,11.81,3a15.92,15.92,0,0,0,4.86-1.62c6-3.13,8.37-9.19,9.27-11.58,1.55-4.14,2-8.34,1.39-14.83-.38-4.31-1.84-16.95-9.5-35.66-2.6-6.37-4.21-9.26-3.93-14.13.37-6.66,4-12.29,5.79-15.06,3.25-5,4.23-4.26,7.87-10a38.36,38.36,0,0,0,5.56-12.73c.68-3.29,1.24-6,.23-9.27a16.64,16.64,0,0,0-6.48-8.34c-3.47-2.51-4.73-1.7-8.11-3.93-4.26-2.81-3.91-5.19-7.64-9C1649.2,184.3,1641,180.36,1637.29,182.89Z"/><path class="cls-80" d="M1616.9,236.83c-1.7,1.69-1.24,4.48-.78,7.09,1.53,8.55,2.3,12.83,3.48,15.85,1.41,3.61,3.07,6.58,6.38,12.5,4.59,8.21,5.32,8.5,7.54,13.06a57.86,57.86,0,0,1,5.41,15.11c.34,1.7,2.44,12.46.58,20a14.29,14.29,0,0,0-.46,4.5,12.27,12.27,0,0,0,2.29,6.7c2.6,3.44,6.69,4.23,8.5,4.58a18.08,18.08,0,0,0,12.24-2c6.61-3.93,8-11.31,8.62-15.06.45-2.43.81-6.22-.82-14.13a100.37,100.37,0,0,0-9.17-25.23c-3-5.89-6.55-11.1-13.69-21.53a61.48,61.48,0,0,0-9-11.1c-4.3-4.06-3.93-2.38-10-7.66-2.35-2.05-4.26-3.92-7.11-4A5.67,5.67,0,0,0,1616.9,236.83Z"/><path class="cls-81" d="M1631.35,214.05c2.06.31,2.13,2.26,5.86,7,2.73,3.47,6.29,8,11.86,11.11,2.74,1.54,5.79,2.65,8.24,6,.35.48,1.89,2.59,1.25,3.5-.1.14-.43.5-3.87.25-1.41-.1-2.38-.24-3.46-.36-2.22-.26-3.62-.33-4.28-.39-4.54-.39-8-2.88-13.48-3.87-2.12-.38-1,.1-13.61-.37-3-.12-6-.27-7-2.13a4,4,0,0,1,0-3.24c1.17-3.84,4.17-5.7,7.49-8.37C1628,217,1628.57,213.63,1631.35,214.05Z"/><path class="cls-82" d="M1655.88,206.34c-1.38,1.5-.22,3.18,0,9.88V228c-.1,2.16-.27,2.77,0,4a6.89,6.89,0,0,0,2,3.69,6.41,6.41,0,0,0,6.07,1.45,5.31,5.31,0,0,0,3.16-2.38c.58-1.08.45-2,.26-4.21-.16-1.93-.24-3.87-.39-5.8a57.54,57.54,0,0,1,.26-7.91c.53-7.82,1.07-8.91,0-10.15-1.68-1.94-5.16-1.7-6.85-1.58C1658.36,205.16,1656.86,205.26,1655.88,206.34Z"/><path class="cls-83" d="M1657.47,230.47c-1.35.61-1.7,2.54-1.85,3.33a9.94,9.94,0,0,0,.37,4.44c.78,3.22,1.16,4.83,1.57,6a87.9,87.9,0,0,1,3,11.28c1.29,6.09,1.93,9.14,1.85,11.28a15.28,15.28,0,0,0,.74,4.9c.73,2.31,1.5,2.78,1.85,3a3.51,3.51,0,0,0,3.42-.46,5,5,0,0,0,1.75-3.42,12.73,12.73,0,0,0-.18-5.27c-.51-2.7-.48-5.48-.74-8.23-.2-2.07-.57-5.94-.65-10.53-.07-4.19.14-6.68-.64-10.82-.58-3-1.21-4.44-2.41-5s-2,.3-4.81-.1C1658.83,230.59,1658.33,230.09,1657.47,230.47Z"/><path class="cls-84" d="M1664.2,270.66c-.77,1.18-.47,2.12-.46,4.63a34.43,34.43,0,0,1-.38,5,27.15,27.15,0,0,1-.91,4c-.53,1.74-.79,1.94-1.21,3.62a17.37,17.37,0,0,0-.53,3.26c-.07,1,0,.76,0,2.32a6.08,6.08,0,0,0,.22,2.68c.12.29.38.93.76.94s.58-.39.69-.65a2.76,2.76,0,0,0,0-1.38,7.74,7.74,0,0,1,0-1.45,11.58,11.58,0,0,1,.38-2.39c.12-.52.26-.92.53-1.73.57-1.74.65-1.59.83-2.39a2.68,2.68,0,0,1,.38-1.16,2.43,2.43,0,0,1,1.21-.8,3.71,3.71,0,0,1,2.28,0c1.11.38,1,1,2.2,1.59a5,5,0,0,0,2.5.51,2.36,2.36,0,0,0,1.67-.51c.49-.51.23-1.18.16-2.53,0-.55,0-.12.22-3.48a22.26,22.26,0,0,0,.08-3.54,5.06,5.06,0,0,0-.76-2.76c-.67-.9-1.2-.68-2.28-1.59-1.61-1.37-1.09-2.46-2.5-3.33a3.92,3.92,0,0,0-3.34-.36A3.55,3.55,0,0,0,1664.2,270.66Z"/><path class="cls-85" d="M1664.61,282.66c.29,1.45-.29,1.41-.33,3.94,0,.4.08,1.37.27,3.29a25.59,25.59,0,0,0,.67,4.52,8.79,8.79,0,0,0,1.35,2.55,1.76,1.76,0,0,0,1.22.91,1.4,1.4,0,0,0,.87-.32,1,1,0,0,0,.34-.75,2,2,0,0,0-.67-1.27,4.34,4.34,0,0,1-.61-2.4,19.83,19.83,0,0,1,.07-4.25c.24-2.32.54-3.51.2-5.42a2.37,2.37,0,0,0-1.15-1.92,2.23,2.23,0,0,0-2.09,0C1664.41,281.84,1664.54,282.3,1664.61,282.66Z"/><path class="cls-86" d="M1668.75,283.94c-.36.15-.51.54-.61,3.67,0,1.32-.05,2.46,0,3.88a8.26,8.26,0,0,0,.43,3l1,1.81c.36.62.55.95.92,1a1,1,0,0,0,.85-.38c.13-.15.26-.43.07-1.22a7.57,7.57,0,0,0-.68-1.59,5.33,5.33,0,0,1-.36-2,11.87,11.87,0,0,1,.36-3.3c.53-2.83.7-3.28.31-3.88A2.34,2.34,0,0,0,1668.75,283.94Z"/><path class="cls-87" d="M1671.84,284.57c-.06.51-.2,1.79-.27,4.26a17.15,17.15,0,0,0,.07,3,13.9,13.9,0,0,0,.53,2.29c.6,2.08.92,3.13,1.65,3.24a1.37,1.37,0,0,0,1.12-.48c.22-.23.42-.64,0-2a11.49,11.49,0,0,0-.86-2,8.25,8.25,0,0,1-.72-2.93c0-1.44.53-1.6.86-4.09a5.26,5.26,0,0,0,0-2c-.29-1.17-1.13-2.42-1.66-2.34C1672.46,281.67,1672.16,281.77,1671.84,284.57Z"/><path class="cls-88" d="M1589.7,195.65a39.09,39.09,0,0,1,3.46-9.11,25.33,25.33,0,0,1,5.34-7.23,23.85,23.85,0,0,1,9.42-5.18,24.82,24.82,0,0,1,11.31-.47c2.39.44,7.33,1.37,11.16,5.34a15.69,15.69,0,0,1,3.14,4.71,15.41,15.41,0,0,1,1.1,5.34c.31,6.73,1.63,7.32,2,14.29s.72,11.18-1.26,16c-3.17,7.8-10.57,13.1-17.74,14.72a18.6,18.6,0,0,1-9.66,0c-1.51-.43-4.45-1.51-9.66-6.76-6.4-6.45-10-10.05-11-15.9C1586.57,207.39,1587.61,203.48,1589.7,195.65Z"/><circle class="cls-89" cx="1610.48" cy="211.78" r="24.06" transform="translate(1034.35 1730.51) rotate(-76.72)"/><circle class="cls-90" cx="1610.48" cy="211.78" r="17.48" transform="translate(1034.35 1730.51) rotate(-76.72)"/><circle class="cls-91" cx="1610.48" cy="211.78" r="13.5" transform="translate(1034.35 1730.51) rotate(-76.72)"/><circle class="cls-92" cx="1610.48" cy="211.77" r="11.88" transform="translate(-13.8 197.12) rotate(-6.97)"/><path class="cls-93" d="M1605.42,210.63c-.14-.62.48-1.6.8-2.49a5.11,5.11,0,0,1,.83-1.64c1.39-1.73,4.59-1.05,5-1s3.1.68,3.83,2.67a4.43,4.43,0,0,1,.18.77,7.83,7.83,0,0,1-.37,3.95c-.19.53-.29.8-.49,1-.71.56-1.88,0-3.6-.68C1607.22,211.44,1605.66,211.68,1605.42,210.63Z"/><path class="cls-94" d="M1615.87,211.77a5.39,5.39,0,1,1-5.39-5.39A5.39,5.39,0,0,1,1615.87,211.77Z"/><path class="cls-95" d="M1611.42,211.77a.94.94,0,1,1-.94-.94A.94.94,0,0,1,1611.42,211.77Z"/><path class="cls-96" d="M1671.08,183a15.76,15.76,0,0,0-8.83-5.55,13.2,13.2,0,0,0-4-.11c-8.55.81-17.16.8-25.69,1.74-11.59,1.28-12.62.92-19.76,2-8,1.17-11.9,2.23-15.69,5s-6.78,8.51-8,10.79"/><path class="cls-97" d="M1635.94,175.75a2,2,0,0,0-1,1.93c.19,1.31,2,1.54,2,2.54s-1.59,1.06-1.93,2.3.78,3.15,2.29,3.74,2.23-.53,5-.48a10,10,0,0,1,3.86.84,12.51,12.51,0,0,1,4.47,3.75c1.12,1.3,1.21,1.71,2.06,2.78a18,18,0,0,0,5.43,4.47c2,1.17,2.58,1.07,14.38,3.26,2.24.41,4,.75,5-.24.63-.69.48-1.62.24-4.47-.49-5.82-.16-5.35-.48-6.41-.85-2.74-2.62-4.37-5-6.52A19.8,19.8,0,0,0,1666,179a19.6,19.6,0,0,0-7.25-1.33,24.06,24.06,0,0,0-6.28,1c-3.17.86-3.48,1.53-5.43,1.57a11.57,11.57,0,0,1-5.44-1.45C1638.31,177.17,1637.15,175.21,1635.94,175.75Z"/><path class="cls-98" d="M1647.85,178.2c-3.89-.26-7.78-.49-11.68-.53-11.66-.1-12.63-.58-19.85-.38-8.06.23-12.09.81-16.18,3.11s-7.73,7.65-9.21,9.77"/><path class="cls-99" d="M1589.84,195.73a27,27,0,0,1,47.13,6.69"/><path class="cls-100" d="M1662.88,182c-1.66.14-2.86,1.54-5.19,4.35a25,25,0,0,0-3.63,5.2,13.32,13.32,0,0,0-1.81,5.55c0,.45,0,.45,0,3.26,0,1,0,1.68,0,2.66,0,2,0,3.07.24,3.38.63,1,2,1.13,4.71,1.45,2.35.28,2.88,0,3.87.61,1.17.72,1.32,1.66,2.17,1.69,1,0,1.19-1.27,2.3-1.45,1.28-.21,1.79,1.39,4.23,2.54a8.78,8.78,0,0,0,3.62.84c.75,0,3.37,0,4.59-1.57.69-.89.47-2.54,0-5.8-1-7.19-1.12-7.59-1.33-8.33a22,22,0,0,0-2.53-6.4,19.77,19.77,0,0,0-8.22-7C1664.22,182.1,1663.52,182,1662.88,182Z"/><path class="cls-101" d="M1593.3,186.89a27,27,0,0,1,21.75-11c9.61,0,15.77,5,19.76,12.57"/></g></g></svg>