<svg xmlns="http://www.w3.org/2000/svg" xmlns:xlink="http://www.w3.org/1999/xlink" viewBox="0 0 1920 889.11"><defs><style>.cls-1{isolation:isolate;}.cls-2{fill:#e1cec3;opacity:0.1;}.cls-3{fill:#d8c2b6;}.cls-113,.cls-4,.cls-82,.cls-83,.cls-84,.cls-85{fill:none;stroke-miterlimit:10;}.cls-113,.cls-4{stroke:#8e8075;}.cls-4{stroke-width:0.25px;}.cls-5{fill:#ead9d0;}.cls-6{fill:#fff;}.cls-7{fill:url(#linear-gradient);}.cls-8{fill:url(#linear-gradient-2);}.cls-9{fill:url(#linear-gradient-3);}.cls-10{fill:url(#linear-gradient-4);}.cls-11{fill:url(#linear-gradient-5);}.cls-12{fill:url(#linear-gradient-6);}.cls-13{fill:url(#linear-gradient-7);}.cls-14{fill:url(#linear-gradient-8);}.cls-15{fill:url(#linear-gradient-9);}.cls-16{fill:url(#linear-gradient-10);}.cls-17{fill:url(#linear-gradient-11);}.cls-18{fill:url(#linear-gradient-12);}.cls-19{fill:url(#linear-gradient-13);}.cls-20{fill:url(#linear-gradient-14);}.cls-21{fill:url(#linear-gradient-15);}.cls-22{fill:url(#linear-gradient-16);}.cls-23{fill:url(#linear-gradient-17);}.cls-24{fill:url(#linear-gradient-18);}.cls-25{fill:url(#linear-gradient-19);}.cls-26{fill:url(#linear-gradient-20);}.cls-27{fill:url(#linear-gradient-21);}.cls-28{fill:url(#linear-gradient-22);}.cls-29{fill:url(#linear-gradient-23);}.cls-30{fill:url(#linear-gradient-24);}.cls-31{fill:url(#linear-gradient-25);}.cls-32{fill:url(#linear-gradient-26);}.cls-33{fill:url(#linear-gradient-27);}.cls-34{fill:url(#linear-gradient-28);}.cls-35{fill:url(#linear-gradient-29);}.cls-36{fill:url(#linear-gradient-30);}.cls-37{fill:url(#linear-gradient-31);}.cls-38{fill:url(#linear-gradient-32);}.cls-39{fill:url(#linear-gradient-33);}.cls-40{fill:url(#linear-gradient-34);}.cls-41{fill:url(#linear-gradient-35);}.cls-42{fill:url(#linear-gradient-36);}.cls-43{fill:url(#linear-gradient-37);}.cls-44{fill:url(#linear-gradient-38);}.cls-45{fill:url(#linear-gradient-39);}.cls-46{fill:url(#linear-gradient-40);}.cls-47{fill:url(#linear-gradient-41);}.cls-48{fill:url(#linear-gradient-42);}.cls-49{fill:url(#linear-gradient-43);}.cls-50{fill:url(#linear-gradient-44);}.cls-51{fill:url(#linear-gradient-45);}.cls-52{fill:url(#linear-gradient-46);}.cls-53{fill:url(#linear-gradient-47);}.cls-54{fill:url(#linear-gradient-48);}.cls-55{fill:url(#linear-gradient-49);}.cls-56{fill:url(#linear-gradient-50);}.cls-57{fill:url(#linear-gradient-51);}.cls-58{fill:url(#linear-gradient-52);}.cls-59{fill:url(#linear-gradient-53);}.cls-60{fill:url(#linear-gradient-54);}.cls-61{fill:url(#linear-gradient-55);}.cls-62{fill:url(#linear-gradient-56);}.cls-63{fill:url(#linear-gradient-57);}.cls-64{fill:url(#linear-gradient-58);}.cls-65{fill:url(#linear-gradient-59);}.cls-66{fill:url(#linear-gradient-60);}.cls-67{fill:url(#linear-gradient-61);}.cls-68{fill:url(#linear-gradient-62);}.cls-69{fill:url(#linear-gradient-63);}.cls-70{fill:url(#linear-gradient-64);}.cls-71{fill:url(#linear-gradient-65);}.cls-72{fill:url(#linear-gradient-66);}.cls-73{fill:url(#linear-gradient-67);}.cls-74{fill:url(#linear-gradient-68);}.cls-75{fill:url(#linear-gradient-69);}.cls-76{fill:url(#linear-gradient-70);}.cls-77{fill:url(#linear-gradient-71);}.cls-78{fill:url(#linear-gradient-72);}.cls-79{fill:url(#linear-gradient-73);}.cls-80{fill:url(#linear-gradient-74);}.cls-81{fill:url(#linear-gradient-75);}.cls-82,.cls-83,.cls-84,.cls-85{stroke-linecap:round;}.cls-82{stroke:url(#linear-gradient-76);}.cls-83{stroke:url(#linear-gradient-77);}.cls-84{stroke:url(#linear-gradient-78);}.cls-85{stroke:url(#linear-gradient-79);}.cls-86{fill:url(#linear-gradient-80);}.cls-87{fill:url(#linear-gradient-81);}.cls-100,.cls-101,.cls-102,.cls-103,.cls-104,.cls-105,.cls-106,.cls-107,.cls-108,.cls-109,.cls-88,.cls-89,.cls-90,.cls-91,.cls-92,.cls-93,.cls-94,.cls-95,.cls-96,.cls-97,.cls-98,.cls-99{opacity:0.81;mix-blend-mode:multiply;}.cls-88{fill:url(#linear-gradient-82);}.cls-89{fill:url(#linear-gradient-83);}.cls-90{fill:url(#linear-gradient-84);}.cls-91{fill:url(#linear-gradient-85);}.cls-92{fill:url(#linear-gradient-86);}.cls-93{fill:url(#linear-gradient-87);}.cls-94{fill:url(#linear-gradient-88);}.cls-95{fill:url(#linear-gradient-89);}.cls-96{fill:url(#linear-gradient-90);}.cls-97{fill:url(#linear-gradient-91);}.cls-98{fill:url(#linear-gradient-92);}.cls-99{fill:url(#linear-gradient-93);}.cls-100{fill:url(#linear-gradient-94);}.cls-101{fill:url(#linear-gradient-95);}.cls-102{fill:url(#linear-gradient-96);}.cls-103{fill:url(#linear-gradient-97);}.cls-104{fill:url(#linear-gradient-98);}.cls-105{fill:url(#linear-gradient-99);}.cls-106{fill:url(#linear-gradient-100);}.cls-107{fill:url(#linear-gradient-101);}.cls-108{fill:url(#linear-gradient-102);}.cls-109{fill:url(#linear-gradient-103);}.cls-110{fill:#78c134;}.cls-111{fill:#64b133;}.cls-112{fill:#95c97e;}</style><linearGradient id="linear-gradient" x1="-11153.68" y1="424.67" x2="-10962.57" y2="424.67" gradientTransform="matrix(-1, 0, 0, 1, -10520.89, 0)" gradientUnits="userSpaceOnUse"><stop offset="0.03" stop-color="#c7914a"/><stop offset="0.13" stop-color="#d9a45e"/><stop offset="0.28" stop-color="#eebb76"/><stop offset="0.41" stop-color="#fbc884"/><stop offset="0.53" stop-color="#ffcd89"/></linearGradient><linearGradient id="linear-gradient-2" x1="-11135.97" y1="459.27" x2="-10924.94" y2="459.27" xlink:href="#linear-gradient"/><linearGradient id="linear-gradient-3" x1="-11230.64" y1="502.04" x2="-11116.84" y2="411.94" gradientTransform="matrix(-1, 0, 0, 1, -10520.89, 0)" gradientUnits="userSpaceOnUse"><stop offset="0" stop-color="#80634b"/><stop offset="1" stop-color="#1e1310"/></linearGradient><linearGradient id="linear-gradient-4" x1="-11255.09" y1="494.06" x2="-11120.41" y2="494.06" gradientTransform="matrix(-1, 0, 0, 1, -10520.89, 0)" gradientUnits="userSpaceOnUse"><stop offset="0" stop-color="#80634b"/><stop offset="0.2" stop-color="#7c6048"/><stop offset="0.4" stop-color="#6f5541"/><stop offset="0.61" stop-color="#5a4434"/><stop offset="0.82" stop-color="#3d2c23"/><stop offset="1" stop-color="#1e1310"/></linearGradient><linearGradient id="linear-gradient-5" x1="-11151.86" y1="522.85" x2="-11006.45" y2="522.85" xlink:href="#linear-gradient-3"/><linearGradient id="linear-gradient-6" x1="-11121.64" y1="550.2" x2="-11085.94" y2="550.2" xlink:href="#linear-gradient-3"/><linearGradient id="linear-gradient-7" x1="-11117.65" y1="552" x2="-11083.51" y2="552" xlink:href="#linear-gradient-3"/><linearGradient id="linear-gradient-8" x1="-11117.91" y1="553.81" x2="-11089.24" y2="553.81" xlink:href="#linear-gradient-3"/><linearGradient id="linear-gradient-9" x1="-11120.64" y1="556.47" x2="-11071.77" y2="556.47" gradientTransform="matrix(-1, 0, 0, 1, -10520.89, 0)" gradientUnits="userSpaceOnUse"><stop offset="0" stop-color="#80634b"/><stop offset="0.67" stop-color="#402f24"/><stop offset="1" stop-color="#1e1310"/></linearGradient><linearGradient id="linear-gradient-10" x1="-11140.94" y1="544.31" x2="-11012.26" y2="544.31" gradientTransform="matrix(-1, 0, 0, 1, -10520.89, 0)" gradientUnits="userSpaceOnUse"><stop offset="0.17" stop-color="#80634b"/><stop offset="0.81" stop-color="#1e1310"/></linearGradient><linearGradient id="linear-gradient-11" x1="-11088.15" y1="532.83" x2="-10980.5" y2="515.33" gradientTransform="matrix(-1, 0, 0, 1, -10520.89, 0)" gradientUnits="userSpaceOnUse"><stop offset="0" stop-color="#80634b"/><stop offset="0.15" stop-color="#69503d"/><stop offset="0.42" stop-color="#453327"/><stop offset="0.64" stop-color="#2f211a"/><stop offset="0.78" stop-color="#271a15"/><stop offset="0.83" stop-color="#241713"/><stop offset="1" stop-color="#1e1310"/></linearGradient><linearGradient id="linear-gradient-12" x1="-11117.63" y1="560.98" x2="-10982.28" y2="560.98" gradientTransform="matrix(-1, 0, 0, 1, -10520.89, 0)" gradientUnits="userSpaceOnUse"><stop offset="0" stop-color="#80634b"/><stop offset="0.28" stop-color="#69503d"/><stop offset="0.86" stop-color="#2d1f19"/><stop offset="1" stop-color="#1e1310"/></linearGradient><linearGradient id="linear-gradient-13" x1="-11092.44" y1="569.98" x2="-11037.67" y2="569.98" gradientTransform="matrix(-1, 0, 0, 1, -10520.89, 0)" gradientUnits="userSpaceOnUse"><stop offset="0" stop-color="#80634b"/><stop offset="0.12" stop-color="#6d5440"/><stop offset="0.37" stop-color="#4b382b"/><stop offset="0.61" stop-color="#32241c"/><stop offset="0.82" stop-color="#231713"/><stop offset="1" stop-color="#1e1310"/></linearGradient><linearGradient id="linear-gradient-14" x1="-11090.86" y1="571.34" x2="-11047.86" y2="571.34" gradientTransform="matrix(-1, 0, 0, 1, -10520.89, 0)" gradientUnits="userSpaceOnUse"><stop offset="0" stop-color="#80634b"/><stop offset="0.39" stop-color="#5d4636"/><stop offset="1" stop-color="#1e1310"/></linearGradient><linearGradient id="linear-gradient-15" x1="-11094.39" y1="572.68" x2="-11028.97" y2="572.68" gradientTransform="matrix(-1, 0, 0, 1, -10520.89, 0)" gradientUnits="userSpaceOnUse"><stop offset="0" stop-color="#80634b"/><stop offset="0.24" stop-color="#6d5440"/><stop offset="0.72" stop-color="#3d2d23"/><stop offset="1" stop-color="#1e1310"/></linearGradient><linearGradient id="linear-gradient-16" x1="-11094.34" y1="572.65" x2="-11000.23" y2="572.65" xlink:href="#linear-gradient-3"/><linearGradient id="linear-gradient-17" x1="-11082.44" y1="561.96" x2="-11012.06" y2="561.96" xlink:href="#linear-gradient-3"/><linearGradient id="linear-gradient-18" x1="-11068.36" y1="343.76" x2="-10910.12" y2="395.15" gradientTransform="matrix(-1.03, 0, 0, 1.03, -10654.45, -3.93)" xlink:href="#linear-gradient-3"/><linearGradient id="linear-gradient-19" x1="-11146.51" y1="478.36" x2="-11011.72" y2="478.36" xlink:href="#linear-gradient-3"/><linearGradient id="linear-gradient-20" x1="-10935.14" y1="432.34" x2="-11167.46" y2="439.86" gradientTransform="matrix(-1, 0, 0, 1, -10520.89, 0)" gradientUnits="userSpaceOnUse"><stop offset="0" stop-color="#736357"/><stop offset="0.09" stop-color="#827469"/><stop offset="0.4" stop-color="#b7afa9"/><stop offset="0.67" stop-color="#dedad8"/><stop offset="0.88" stop-color="#f6f5f4"/><stop offset="1" stop-color="#fff"/></linearGradient><linearGradient id="linear-gradient-21" x1="-11094.44" y1="435.46" x2="-11141.62" y2="145.58" gradientTransform="matrix(-1, 0, 0, 1, -10520.89, 0)" gradientUnits="userSpaceOnUse"><stop offset="0" stop-color="#6a767f"/><stop offset="0.03" stop-color="#6e7c86"/><stop offset="0.26" stop-color="#90acbe"/><stop offset="0.43" stop-color="#a5cae0"/><stop offset="0.53" stop-color="#add5ed"/></linearGradient><linearGradient id="linear-gradient-22" x1="-11126.22" y1="479.33" x2="-11171.83" y2="238.38" gradientTransform="matrix(-1, 0, 0, 1, -10520.89, 0)" gradientUnits="userSpaceOnUse"><stop offset="0.13" stop-color="#6a767f"/><stop offset="0.17" stop-color="#6e7c86"/><stop offset="0.43" stop-color="#90acbe"/><stop offset="0.62" stop-color="#a5cae0"/><stop offset="0.72" stop-color="#add5ed"/></linearGradient><linearGradient id="linear-gradient-23" x1="-11088.44" y1="457.48" x2="-11280.9" y2="375.96" gradientTransform="matrix(-1, 0, 0, 1, -10520.89, 0)" gradientUnits="userSpaceOnUse"><stop offset="0" stop-color="#6a767f"/><stop offset="0.04" stop-color="#6e7c86"/><stop offset="0.36" stop-color="#90acbe"/><stop offset="0.6" stop-color="#a5cae0"/><stop offset="0.72" stop-color="#add5ed"/></linearGradient><linearGradient id="linear-gradient-24" x1="-11221.26" y1="479.45" x2="-11052.63" y2="479.45" gradientTransform="matrix(-1, 0, 0, 1, -10520.89, 0)" gradientUnits="userSpaceOnUse"><stop offset="0" stop-color="#80634b"/><stop offset="0.6" stop-color="#453327"/><stop offset="1" stop-color="#1e1310"/></linearGradient><linearGradient id="linear-gradient-25" x1="-11098.79" y1="428.87" x2="-11344.53" y2="335.57" gradientTransform="matrix(-1, 0, 0, 1, -10520.89, 0)" gradientUnits="userSpaceOnUse"><stop offset="0" stop-color="#6a767f"/><stop offset="0.02" stop-color="#6e7c86"/><stop offset="0.16" stop-color="#90acbe"/><stop offset="0.27" stop-color="#a5cae0"/><stop offset="0.33" stop-color="#add5ed"/></linearGradient><linearGradient id="linear-gradient-26" x1="-11122" y1="450.08" x2="-10892.49" y2="317.87" gradientTransform="matrix(-1, 0, 0, 1, -10520.89, 0)" gradientUnits="userSpaceOnUse"><stop offset="0.03" stop-color="#c7914a"/><stop offset="0.54" stop-color="#f0c180"/><stop offset="0.64" stop-color="#f5c782"/><stop offset="0.64" stop-color="#faca86"/><stop offset="0.64" stop-color="#ffcd89"/></linearGradient><linearGradient id="linear-gradient-27" x1="-11054.67" y1="603.33" x2="-11050.93" y2="351.44" gradientTransform="matrix(-1, 0, 0, 1, -10520.89, 0)" gradientUnits="userSpaceOnUse"><stop offset="0.03" stop-color="#c7914a"/><stop offset="0.46" stop-color="#c9934c"/><stop offset="0.62" stop-color="#cf9953"/><stop offset="0.73" stop-color="#d9a55e"/><stop offset="0.82" stop-color="#e8b46f"/><stop offset="0.9" stop-color="#fbc985"/><stop offset="0.91" stop-color="#ffcd89"/></linearGradient><linearGradient id="linear-gradient-28" x1="-11079.24" y1="433.13" x2="-11050.12" y2="252.48" xlink:href="#linear-gradient-23"/><linearGradient id="linear-gradient-29" x1="-11444.79" y1="484.43" x2="-11317.21" y2="484.43" gradientTransform="matrix(-1, 0, 0, 1, -9604.76, 0)" gradientUnits="userSpaceOnUse"><stop offset="0" stop-color="#1a1a1a"/><stop offset="0.03" stop-color="#1b1b1b"/><stop offset="0.54" stop-color="#2d2d2d"/><stop offset="0.91" stop-color="#333"/></linearGradient><linearGradient id="linear-gradient-30" x1="-11459.02" y1="512.17" x2="-11424.39" y2="512.17" gradientTransform="matrix(-1, 0, 0, 1, -9604.76, 0)" gradientUnits="userSpaceOnUse"><stop offset="0.14" stop-color="#80634b"/><stop offset="0.46" stop-color="#907256"/></linearGradient><linearGradient id="linear-gradient-31" x1="-11502.18" y1="436.64" x2="-11400.6" y2="436.64" xlink:href="#linear-gradient-29"/><linearGradient id="linear-gradient-32" x1="-11354.85" y1="427.94" x2="-11372.24" y2="380.96" gradientTransform="matrix(-1, 0, 0, 1, -9604.76, 0)" gradientUnits="userSpaceOnUse"><stop offset="0.18" stop-color="#80634b"/><stop offset="0.3" stop-color="#85684e"/><stop offset="0.68" stop-color="#907256"/></linearGradient><linearGradient id="linear-gradient-33" x1="-11438.71" y1="378.63" x2="-11363.74" y2="378.63" xlink:href="#linear-gradient-30"/><linearGradient id="linear-gradient-34" x1="-11365.5" y1="378.48" x2="-11349.78" y2="425.23" gradientTransform="matrix(-1, 0, 0, 1, -9604.76, 0)" gradientUnits="userSpaceOnUse"><stop offset="0" stop-color="#80634b"/><stop offset="0.7" stop-color="#907256"/></linearGradient><linearGradient id="linear-gradient-35" x1="-11528.52" y1="427.14" x2="-11451.5" y2="427.14" gradientTransform="matrix(-1, 0, 0, 1, -9604.76, 0)" gradientUnits="userSpaceOnUse"><stop offset="0.16" stop-color="#1a1a1a"/><stop offset="0.18" stop-color="#1b1b1b"/><stop offset="0.6" stop-color="#2d2d2d"/><stop offset="0.91" stop-color="#333"/></linearGradient><linearGradient id="linear-gradient-36" x1="-11536.23" y1="431.85" x2="-11439.28" y2="431.85" xlink:href="#linear-gradient-29"/><linearGradient id="linear-gradient-37" x1="-11463.2" y1="354.78" x2="-11347.36" y2="354.78" gradientTransform="matrix(-1, 0, 0, 1, -9604.76, 0)" gradientUnits="userSpaceOnUse"><stop offset="0" stop-color="#b5504a"/><stop offset="0.07" stop-color="#b24e49"/><stop offset="0.84" stop-color="#973e3b"/><stop offset="1" stop-color="#933c39"/></linearGradient><linearGradient id="linear-gradient-38" x1="-11529.11" y1="355.31" x2="-11439.16" y2="355.31" xlink:href="#linear-gradient-37"/><linearGradient id="linear-gradient-39" x1="-11480.34" y1="253.72" x2="-11407.59" y2="363.1" gradientTransform="matrix(-1, 0, 0, 1, -9604.76, 0)" gradientUnits="userSpaceOnUse"><stop offset="0" stop-color="#b5504a"/><stop offset="0.35" stop-color="#b24e49"/><stop offset="0.6" stop-color="#a94944"/><stop offset="0.82" stop-color="#9a403c"/><stop offset="0.84" stop-color="#973e3b"/><stop offset="1" stop-color="#933c39"/></linearGradient><linearGradient id="linear-gradient-40" x1="-11354.34" y1="295.32" x2="-11458.03" y2="299.95" gradientTransform="matrix(-1, 0, 0, 1, -9604.76, 0)" gradientUnits="userSpaceOnUse"><stop offset="0" stop-color="#80634b"/><stop offset="0.2" stop-color="#8c6e53"/><stop offset="0.4" stop-color="#907256"/></linearGradient><linearGradient id="linear-gradient-41" x1="-11346.37" y1="309.83" x2="-11279.76" y2="309.83" gradientTransform="matrix(-1, 0, 0, 1, -9604.76, 0)" gradientUnits="userSpaceOnUse"><stop offset="0" stop-color="#736357"/><stop offset="0.17" stop-color="#877666"/><stop offset="0.47" stop-color="#a4917c"/><stop offset="0.72" stop-color="#b6a189"/><stop offset="0.91" stop-color="#bca78e"/></linearGradient><linearGradient id="linear-gradient-42" x1="-11477.23" y1="333.83" x2="-11429.63" y2="333.83" xlink:href="#linear-gradient-30"/><linearGradient id="linear-gradient-43" x1="-11413.52" y1="581.52" x2="-11430.7" y2="517.41" xlink:href="#linear-gradient-30"/><linearGradient id="linear-gradient-44" x1="-11430.32" y1="565.35" x2="-11432.16" y2="505.14" xlink:href="#linear-gradient-30"/><linearGradient id="linear-gradient-45" x1="-11492.54" y1="525.1" x2="-11458.9" y2="525.1" xlink:href="#linear-gradient-30"/><linearGradient id="linear-gradient-46" x1="-11328.23" y1="322.42" x2="-11434.84" y2="205.59" gradientTransform="matrix(-1, 0, 0, 1, -9604.76, 0)" gradientUnits="userSpaceOnUse"><stop offset="0.16" stop-color="#80634b"/><stop offset="0.43" stop-color="#907256"/></linearGradient><linearGradient id="linear-gradient-47" x1="-11359.09" y1="326.12" x2="-11389.35" y2="268.47" gradientTransform="matrix(-1, 0, 0, 1, -9604.76, 0)" gradientUnits="userSpaceOnUse"><stop offset="0.03" stop-color="#80634b"/><stop offset="0.97" stop-color="#907256"/></linearGradient><linearGradient id="linear-gradient-48" x1="-11344.27" y1="321.32" x2="-11368.71" y2="278.35" gradientTransform="matrix(-1, 0, 0, 1, -9604.76, 0)" gradientUnits="userSpaceOnUse"><stop offset="0.24" stop-color="#80634b"/><stop offset="0.56" stop-color="#86694f"/><stop offset="0.82" stop-color="#907256"/></linearGradient><linearGradient id="linear-gradient-49" x1="-11471.02" y1="377.6" x2="-11407.55" y2="346.12" gradientTransform="matrix(-1, 0, 0, 1, -9604.76, 0)" gradientUnits="userSpaceOnUse"><stop offset="0.14" stop-color="#80634b"/><stop offset="0.34" stop-color="#876a50"/><stop offset="0.49" stop-color="#907256"/></linearGradient><linearGradient id="linear-gradient-50" x1="-11408.84" y1="230.38" x2="-11390.32" y2="312.65" xlink:href="#linear-gradient-37"/><linearGradient id="linear-gradient-51" x1="-11402.95" y1="393.18" x2="-11414.74" y2="409.23" xlink:href="#linear-gradient-30"/><linearGradient id="linear-gradient-52" x1="-11419.71" y1="408.21" x2="-11374.27" y2="371.1" xlink:href="#linear-gradient-30"/><linearGradient id="linear-gradient-53" x1="-11454.24" y1="580.79" x2="-11459.62" y2="521.16" xlink:href="#linear-gradient-30"/><linearGradient id="linear-gradient-54" x1="-11481.82" y1="567.01" x2="-11474.23" y2="522.57" gradientTransform="matrix(-1, 0, 0, 1, -9604.76, 0)" gradientUnits="userSpaceOnUse"><stop offset="0.01" stop-color="#80634b"/><stop offset="0.46" stop-color="#907256"/></linearGradient><linearGradient id="linear-gradient-55" x1="-11436.16" y1="576.09" x2="-11441.58" y2="545.47" gradientTransform="matrix(-1, 0, 0, 1, -9604.76, 0)" gradientUnits="userSpaceOnUse"><stop offset="0.14" stop-color="#80634b"/><stop offset="0.53" stop-color="#907256"/></linearGradient><linearGradient id="linear-gradient-56" x1="-11442.1" y1="573.24" x2="-11445.56" y2="561.04" gradientTransform="matrix(-1, 0, 0, 1, -9604.76, 0)" gradientUnits="userSpaceOnUse"><stop offset="0.14" stop-color="#80634b"/><stop offset="0.63" stop-color="#876a50"/><stop offset="1" stop-color="#907256"/></linearGradient><linearGradient id="linear-gradient-57" x1="-11447.98" y1="571.02" x2="-11455.73" y2="543.34" xlink:href="#linear-gradient-30"/><linearGradient id="linear-gradient-58" x1="-11453.34" y1="572.98" x2="-11459.62" y2="541.95" xlink:href="#linear-gradient-30"/><linearGradient id="linear-gradient-59" x1="-11515.57" y1="496.37" x2="-11406.76" y2="496.37" xlink:href="#linear-gradient-29"/><linearGradient id="linear-gradient-60" x1="-11482.19" y1="482.72" x2="-11355.99" y2="482.72" xlink:href="#linear-gradient-29"/><linearGradient id="linear-gradient-61" x1="-11455.84" y1="293.25" x2="-11417.21" y2="337.05" xlink:href="#linear-gradient-37"/><linearGradient id="linear-gradient-62" x1="-11523.06" y1="330.61" x2="-11435.71" y2="330.61" xlink:href="#linear-gradient-37"/><linearGradient id="linear-gradient-63" x1="-11358.28" y1="282.27" x2="-11387.79" y2="255.6" xlink:href="#linear-gradient-41"/><linearGradient id="linear-gradient-64" x1="-11356.49" y1="269.03" x2="-11320.2" y2="269.03" xlink:href="#linear-gradient-41"/><linearGradient id="linear-gradient-65" x1="-11364.99" y1="307.28" x2="-11355.48" y2="230.67" xlink:href="#linear-gradient-41"/><linearGradient id="linear-gradient-66" x1="-11366.85" y1="321" x2="-11348.92" y2="246.94" xlink:href="#linear-gradient-41"/><linearGradient id="linear-gradient-67" x1="-11369.61" y1="328.4" x2="-11311.65" y2="262.63" gradientTransform="matrix(-1, 0, 0, 1, -9604.76, 0)" gradientUnits="userSpaceOnUse"><stop offset="0" stop-color="#736357"/><stop offset="0.03" stop-color="#77665a"/><stop offset="0.41" stop-color="#9f8c78"/><stop offset="0.61" stop-color="#ae9a83"/><stop offset="0.73" stop-color="#b6a189"/><stop offset="0.91" stop-color="#bca78e"/></linearGradient><linearGradient id="linear-gradient-68" x1="-11368.99" y1="316.71" x2="-11327.85" y2="235.12" xlink:href="#linear-gradient-41"/><linearGradient id="linear-gradient-69" x1="-11360.07" y1="307.76" x2="-11306.34" y2="307.76" xlink:href="#linear-gradient-41"/><linearGradient id="linear-gradient-70" x1="-11366.3" y1="405.72" x2="-11313.32" y2="468.14" gradientTransform="matrix(-1, 0, 0, 1, -9604.76, 0)" gradientUnits="userSpaceOnUse"><stop offset="0.42" stop-color="#bababa"/><stop offset="0.51" stop-color="#b5b5b5"/><stop offset="0.62" stop-color="#a8a8a8"/><stop offset="0.73" stop-color="#919191"/><stop offset="0.85" stop-color="#727272"/><stop offset="0.97" stop-color="#4a4a4a"/><stop offset="1" stop-color="#3d3d3d"/></linearGradient><linearGradient id="linear-gradient-71" x1="-11365.23" y1="413.34" x2="-11315.05" y2="472.47" gradientTransform="matrix(-1, 0, 0, 1, -9604.76, 0)" gradientUnits="userSpaceOnUse"><stop offset="0" stop-color="#bababa"/><stop offset="0.16" stop-color="#b5b5b5"/><stop offset="0.35" stop-color="#a8a8a8"/><stop offset="0.54" stop-color="#919191"/><stop offset="0.74" stop-color="#727272"/><stop offset="0.94" stop-color="#4a4a4a"/><stop offset="1" stop-color="#3d3d3d"/></linearGradient><linearGradient id="linear-gradient-72" x1="-11365.79" y1="362.78" x2="-11370.34" y2="506.55" xlink:href="#linear-gradient-71"/><linearGradient id="linear-gradient-73" x1="-11401.51" y1="377.85" x2="-11360.82" y2="425.79" xlink:href="#linear-gradient-70"/><linearGradient id="linear-gradient-74" x1="-3317.12" y1="-3026.03" x2="-3447.39" y2="-3035.27" gradientTransform="matrix(0.72, -0.69, -0.69, -0.72, 2142.47, -4071.11)" gradientUnits="userSpaceOnUse"><stop offset="0" stop-color="#bababa"/><stop offset="0.13" stop-color="#b3b3b3"/><stop offset="0.33" stop-color="#9f9f9f"/><stop offset="0.56" stop-color="#7e7e7e"/><stop offset="0.82" stop-color="#515151"/><stop offset="0.92" stop-color="#3d3d3d"/></linearGradient><linearGradient id="linear-gradient-75" x1="-3183.6" y1="-3062.46" x2="-3254.24" y2="-3064.77" gradientTransform="matrix(0.67, -0.67, -0.7, -0.71, 1778.56, -3896.18)" gradientUnits="userSpaceOnUse"><stop offset="0.42" stop-color="#bababa"/><stop offset="0.62" stop-color="#b8b8b8"/><stop offset="0.72" stop-color="#b0b0b0"/><stop offset="0.79" stop-color="#a3a3a3"/><stop offset="0.85" stop-color="#919191"/><stop offset="0.91" stop-color="#797979"/><stop offset="0.96" stop-color="#5c5c5c"/><stop offset="1" stop-color="#3d3d3d"/></linearGradient><linearGradient id="linear-gradient-76" x1="-11436.19" y1="429.12" x2="-11396.85" y2="475.48" xlink:href="#linear-gradient-70"/><linearGradient id="linear-gradient-77" x1="-11419.53" y1="449.52" x2="-11380.18" y2="495.89" gradientTransform="matrix(-1, 0, 0, 1, -9626.92, 21.17)" xlink:href="#linear-gradient-70"/><linearGradient id="linear-gradient-78" x1="-11914.42" y1="-80.39" x2="-11875.07" y2="-34.03" gradientTransform="matrix(-0.92, -0.08, 0.08, 0.92, -9103.97, -478.26)" xlink:href="#linear-gradient-70"/><linearGradient id="linear-gradient-79" x1="-11894.19" y1="-56.51" x2="-11854.4" y2="-9.62" gradientTransform="matrix(-0.92, -0.08, 0.08, 0.93, -9122.57, -460.5)" xlink:href="#linear-gradient-70"/><linearGradient id="linear-gradient-80" x1="-10024.03" y1="3869.7" x2="-9889.72" y2="4004.67" gradientTransform="matrix(-1.03, 0, 0, 1, -8428.73, -3519.71)" gradientUnits="userSpaceOnUse"><stop offset="0.42" stop-color="#bababa"/><stop offset="0.51" stop-color="#b5b5b5"/><stop offset="0.62" stop-color="#a6a6a6"/><stop offset="0.74" stop-color="#8e8e8e"/><stop offset="0.86" stop-color="#6c6c6c"/><stop offset="0.99" stop-color="#414141"/><stop offset="1" stop-color="#3d3d3d"/></linearGradient><linearGradient id="linear-gradient-81" x1="-11369.92" y1="376.04" x2="-11353.55" y2="414.28" xlink:href="#linear-gradient-30"/><linearGradient id="linear-gradient-82" x1="-11271.41" y1="493.27" x2="-11268.76" y2="493.27" gradientTransform="matrix(-1, 0, 0, 1, -9604.76, 0)" gradientUnits="userSpaceOnUse"><stop offset="0" stop-color="#4aa1b7"/><stop offset="0.29" stop-color="#479eb3"/><stop offset="0.56" stop-color="#3d94a8"/><stop offset="0.82" stop-color="#2d8495"/><stop offset="1" stop-color="#1d7583"/></linearGradient><linearGradient id="linear-gradient-83" x1="-11298.17" y1="458.87" x2="-11292.95" y2="458.87" xlink:href="#linear-gradient-82"/><linearGradient id="linear-gradient-84" x1="-11284.76" y1="511.41" x2="-11282.03" y2="511.41" xlink:href="#linear-gradient-82"/><linearGradient id="linear-gradient-85" x1="-11276.01" y1="524.88" x2="-11273.28" y2="524.88" xlink:href="#linear-gradient-82"/><linearGradient id="linear-gradient-86" x1="-11310.01" y1="464.77" x2="-11304.29" y2="464.77" xlink:href="#linear-gradient-82"/><linearGradient id="linear-gradient-87" x1="-11316.84" y1="467.08" x2="-11312.85" y2="467.08" xlink:href="#linear-gradient-82"/><linearGradient id="linear-gradient-88" x1="-11298.38" y1="467.55" x2="-11293.46" y2="467.55" xlink:href="#linear-gradient-82"/><linearGradient id="linear-gradient-89" x1="-11296.93" y1="478.24" x2="-11293.26" y2="478.24" xlink:href="#linear-gradient-82"/><linearGradient id="linear-gradient-90" x1="-11301.75" y1="484.29" x2="-11299" y2="484.29" xlink:href="#linear-gradient-82"/><linearGradient id="linear-gradient-91" x1="-11274.64" y1="480.45" x2="-11270.94" y2="480.45" xlink:href="#linear-gradient-82"/><linearGradient id="linear-gradient-92" x1="-11295.91" y1="495.29" x2="-11293.2" y2="495.29" xlink:href="#linear-gradient-82"/><linearGradient id="linear-gradient-93" x1="-11284.88" y1="469.73" x2="-11280.88" y2="469.73" xlink:href="#linear-gradient-82"/><linearGradient id="linear-gradient-94" x1="-11281.97" y1="496.73" x2="-11279.22" y2="496.73" xlink:href="#linear-gradient-82"/><linearGradient id="linear-gradient-95" x1="-11295.89" y1="510.28" x2="-11293.21" y2="510.28" xlink:href="#linear-gradient-82"/><linearGradient id="linear-gradient-96" x1="-11289.2" y1="524.88" x2="-11286.52" y2="524.88" xlink:href="#linear-gradient-82"/><linearGradient id="linear-gradient-97" x1="-11271.89" y1="509.11" x2="-11269.15" y2="509.11" xlink:href="#linear-gradient-82"/><linearGradient id="linear-gradient-98" x1="-11280.59" y1="535.85" x2="-11277.85" y2="535.85" xlink:href="#linear-gradient-82"/><linearGradient id="linear-gradient-99" x1="-11264.76" y1="516.18" x2="-11262.02" y2="516.18" xlink:href="#linear-gradient-82"/><linearGradient id="linear-gradient-100" x1="-11285.03" y1="482.97" x2="-11281.87" y2="482.97" xlink:href="#linear-gradient-82"/><linearGradient id="linear-gradient-101" x1="-11263.8" y1="504.08" x2="-11261.1" y2="504.08" xlink:href="#linear-gradient-82"/><linearGradient id="linear-gradient-102" x1="-11315.19" y1="455.77" x2="-11309.42" y2="455.77" xlink:href="#linear-gradient-82"/><linearGradient id="linear-gradient-103" x1="-11308.57" y1="474.79" x2="-11305.2" y2="474.79" xlink:href="#linear-gradient-82"/></defs><g class="cls-1"><g id="PLANTS"><path id="_LAYER-10_SWIRL_ANIMATE_" data-name="&lt;LAYER-10_SWIRL(ANIMATE)&gt;" class="cls-2" d="M3917,638c-182.62-126.09-330-149.62-431.64-147.31-168.36,3.83-233.72,79.05-424.79,61.66-124.81-11.35-122.33-45.76-304.88-85.64-185.19-40.45-334.33-37.07-431.64-34.25-287.28,8.31-295.74,69.72-466.69,66.26-339.56-6.86-372.08-217.12-747.17-307.63-193.53-46.7-374.23-5.64-586.09,42.5-60.34,13.71-231,56.29-463.07,59.77-25.78.39-47,.21-61,0a1445.09,1445.09,0,0,0-416.54-11.63c-211,24.8-263.8,130.73-465.9,137-148.21,4.62-175.58-41.6-311.73-30.83-188.31,14.91-325,122.45-363.13,150.73a812,812,0,0,0-123.32,113Z"/><path class="cls-3" d="M0,708.3-.3,546.47c12.83.91,20.59,1.19,20.59,1.19,136.59-.2,200.13-23.37,257.91-18,252.86,23.5,353.23-16.82,440.59-17.29,75.41-.4,133.19,27.25,211.6,28.24,26.59.34,4.45.71,40.25,1.61,75.34,1.91,112.46-10.91,160.39-7.08,82.21,6.57,70.91,20.66,171.28,21.24l155.52,1.17c27.4.47,53.51.82,82.09-4.73,181.23-35.17,143.71-16.94,329.51,3,0,0,33,.4,50.57.47V717.2"/><line class="cls-3" y1="708.3" x2="1920" y2="717.2"/><path class="cls-4" d="M703.54,518.1s6.49,2.07,19.46,0"/><path class="cls-5" d="M1920.37,796.47H0L-.28,614.41c12-2.41,24.48-4.66,39.47-6.24,75.66-8,83.57,15.08,175.25,20.51,95.31,5.65,102.64-18.34,220-20.51,95-1.75,87,14,175.25,13.05,129.19-1.4,158.26-25.33,262.72-21.29,85,3.29,69.92,18.16,181,32.48,120.49,15.53,179.81,2.23,220.41-6.32,73.63-15.52,110.89-13,166.22-16.67,59.4-3.91,93,6.37,142.84,9.75,97.16,6.6,137.51,14.36,238.63-1.73,57.13-9.08,67.45-17.11,98.53-21.2Z"/><path class="cls-6" d="M1920.41,886.11V735.51s-91.42-31-156.1-21.86c-52.42,27.8-132.61,15.16-232,17.43-56,1.28-61.9-8.53-142.75-12.72-117-6.06-143.43,12.45-272.13,15.9-114.84,3.07-104.23-11.39-225.28-9.54-128,1.95-132.3,18-254.28,22.26-136.16,4.73-138.2-15-307.82-15.9-142.19-.73-143.79,13.13-254.28,6.36-18.52-1.14-43.65-5.1-75.79-8.5V886.11Z"/><g id="_LAYER-18_P7_" data-name="&lt;LAYER-18_P7&gt;"><path class="cls-7" d="M575.31,395.73c.93-.2,1.94,4.57,6.67,13.15,3.27,5.92,3.68,5.27,6.06,9.81,3.55,6.78,1.79,6.6,6.47,18.79a48.17,48.17,0,0,1,2.5,13.36c0,.8.1,2.39-.62,2.71s-2.17-1.1-2.51-1.46c-2.67-2.87-3-6.83-3.13-7.93s-2.37-5.86-6.89-15.45c-6.22-13.23-6.3-12.16-7.3-15.45C573.9,404.57,574.09,396,575.31,395.73Z"/><path class="cls-8" d="M579.48,413.06c2,.33,2.72,3.06,5.43,10.22,0,0,2.55,6.77,6.26,15.45,3.9,9.11,5.62,11.1,7.3,17.74a37.5,37.5,0,0,1,1.26,8.35,37,37,0,0,1-1.05,9.81,38.11,38.11,0,0,1-4,9.81c-1.53,2.77-1.73,2.45-9.4,12.11-3.52,4.44-4.92,6.32-7.93,7.72a9.68,9.68,0,0,1-6.47,1c-2.71-.68-4.47-2.85-6.26-5.84a57.87,57.87,0,0,1-6.89-19.2c-1.64-8.35-2.46-12.52-2.29-15.66.48-8.95,4-9.27,8.76-24.21,2.58-8.09,2.86-12.15,6.89-19C572.92,418.36,576.35,412.52,579.48,413.06Z"/><path class="cls-9" d="M664.92,453.85c5.68,2.87,8.62,11.94,16.53,19.77a128.73,128.73,0,0,0,9.88,8.35c2.42,1.94,4.74,4,7.15,6,0,0,1.11.9,5.12,4.94a8.29,8.29,0,0,1,2.38,3.92,2.88,2.88,0,0,1-.17,2.39c-.75,1-2.46.88-2.72.85-1.12-.12-1.21-.63-2.56-.85a17.73,17.73,0,0,0-2.22,0c-1.6-.07-1.8-.36-3.06-.34a22.91,22.91,0,0,0-2.39.34,8.27,8.27,0,0,1-3.58-.51c-2.11-.95-2.61-3.9-3.06-5.46-1.18-4.08-4.6-6.58-11.42-11.58-3.88-2.85-9.8-6.41-13.29-8.52-2.06-1.24-4.75-2.83-6-6a11.18,11.18,0,0,1-.51-5.46,12.46,12.46,0,0,1,2.55-6.13,5,5,0,0,1,7.33-1.71Z"/><path class="cls-10" d="M688.66,490.41a26.55,26.55,0,0,0,3,3.28,19.31,19.31,0,0,1,2,1.9,7.73,7.73,0,0,1,.51.62,22.52,22.52,0,0,1,2.08,3.5h0s1.93-.08,2.3.66a1.19,1.19,0,0,1-.44,1.31c-.33.26-.78.29-2,0a16.78,16.78,0,0,1-2.63-.87c-3-1.32-2.82-1-3.72-1.53a9.76,9.76,0,0,1-3-2.85c-.87-1.3-1.17-2.89-1.75-6-.5-2.65-.73-4-.33-4.16S685.43,486.63,688.66,490.41Z"/><path class="cls-11" d="M592,550.53c.55-.33,1.2.1,1.5-.3s-.24-1.79-1.1-2.59c-1.26-1.18-2.71-.64-4.68-1.39a48.07,48.07,0,0,1-5-2.44c-4.92-2.6-4.88-2.86-8.41-4.62-1.46-.73-1.54-.72-1.81-1-1.59-1.55-1.08-4.63,0-10.72,1.53-8.68,1.7-9.58,2-11.06.81-4.26,1.21-6.4,1.32-6.93.36-1.66.61-2.65.83-4.29a23.73,23.73,0,0,0,.33-4.94,12.47,12.47,0,0,0-3.3-7.92,10,10,0,0,0-15.06-.16c-3.72,4.33.32,9.38.18,23.58-.07,7-.23,11.49-2,17.14a77.79,77.79,0,0,0-4.46,10,19.25,19.25,0,0,0-.67,5.87,3.27,3.27,0,0,0,.39,1.82c.71,1.13,2.12,1.32,4.29,1.69,4.66.8,3.14.78,5.61,1.08,1.55.19,3,.29,7.56.43,6.06.19,5.7.07,7.77.22a38.32,38.32,0,0,1,8,1.08c3.64,1,5.18,2.26,6.05,1.51C592.65,555.47,590.63,551.36,592,550.53Z"/><path class="cls-12" d="M588.79,549.32c.51-1.18,3.66-1.28,5.26-.07a3.56,3.56,0,0,1,1.07,1.35c.18.39.41.91.21,1.21s-.9.16-2.43-.07c-2.57-.39-3.17-.24-3.7-.87A1.68,1.68,0,0,1,588.79,549.32Z"/><path class="cls-13" d="M588.81,551.12c.61-1.17,4.39-1.27,6.31-.06a3.88,3.88,0,0,1,1.29,1.34c.22.39.5.91.25,1.22s-1.08.16-2.92-.07c-3.09-.39-3.81-.24-4.45-.88C588.94,552.32,588.54,551.65,588.81,551.12Z"/><path class="cls-14" d="M588.55,552.93c.65-1.17,4.68-1.28,6.72-.07a3.94,3.94,0,0,1,1.38,1.35c.23.39.53.91.26,1.21s-1.14.17-3.1-.06c-3.29-.39-4.06-.24-4.74-.88C588.69,554.12,588.27,553.45,588.55,552.93Z"/><path class="cls-15" d="M587.2,552.89c2.14.58,1.84.73,3.09,1,3.44.76,6.08-.21,8.15.87a2.43,2.43,0,0,1,1.08,1,2.6,2.6,0,0,1,.13,1.75,3.82,3.82,0,0,1-2.15,3c-.47.18-1.18.31-2.83-.27a14.87,14.87,0,0,1-4.38-2.49c-4.54-3.38-9.63-2.75-9.63-4.1,0-.43.5-.74,1-1C582.38,552.21,583.58,551.9,587.2,552.89Z"/><path class="cls-16" d="M561.08,540.67a4.89,4.89,0,0,1,3.24-.36,5.25,5.25,0,0,1,2.72,1.84c.69.79,1.84,2.09,1.49,3.33-.29,1-1.42,1.44-3.42,2.19a6.93,6.93,0,0,1-3.85.7,3.82,3.82,0,0,1-2.63-1.31C557.43,545.31,558.72,541.87,561.08,540.67Z"/><path class="cls-17" d="M538.12,495.1c.54,10.54,1.29,20.36,2.15,29.37,1.21,12.69,2,16.6,4,19.77a24.69,24.69,0,0,1,3.3,7.59c.71,2.31.89,3.7.43,5.16a6.94,6.94,0,0,1-3,3.72c-.61.37-1.48.76-6.45.86-5.21.11-6.15-.27-6.73-.57a8.21,8.21,0,0,1-3.44-3.44,8.93,8.93,0,0,1-.86-4c-.12-2.92-.77-5.81-.86-8.74a86.44,86.44,0,0,0-2.15-16.48c-1.32-5.16-3.09-8.25-8.45-22.78a8.64,8.64,0,0,1-.43-6c1.09-3,4.22-4.38,6.3-5.3a18.29,18.29,0,0,1,9.75-1.29A18.6,18.6,0,0,1,538.12,495.1Z"/><path class="cls-18" d="M541.93,549c1.77.5,2.07,1,8.78,5.6,1.86,1.28,3.06,2.08,4.72,3.18a80.85,80.85,0,0,0,7.13,4.5c3.12,1.65,4.68,2.48,6.14,2.52s2.85.37,4.28.55a2.89,2.89,0,0,1,1.65.66,3,3,0,0,1,.76,1.21,2.59,2.59,0,0,1,.22,1.53,2.69,2.69,0,0,1-.77,1.32c-1.35,1.3-5.19.44-8.11.22-2.05-.16-1.27.18-7.24.55-5.49.34-6.29.07-13,.44a46,46,0,0,0-7,.65,52.33,52.33,0,0,1-6,1.32c-2.72.38-3.75.21-4.6-.11a6.49,6.49,0,0,1-3.19-2.52c-.92-1.47-.84-2.94-.65-5.82a38.8,38.8,0,0,1,1.2-7c.8-3.19,1.21-4.8,2.09-5.81,1.58-1.83,3.7-2.35,5.81-2.86A15.08,15.08,0,0,1,541.93,549Z"/><path class="cls-19" d="M562.61,567.16c1-.09,1.68.16,3.54.81,4.43,1.55,5.33,1.7,5.39,2.33.09.9-1.62,1.74-2,1.94a5.07,5.07,0,0,1-3.22.48c-1.37-.29-1.4-1-3.38-2.17s-3.35-1.18-3.38-1.78S561.12,567.3,562.61,567.16Z"/><path class="cls-20" d="M557.4,568c1.74-1.17,4.5.23,5.64.81,2,1,1.74,1.61,3.94,2.66,1.74.83,2.88.92,3,1.61s-.93,1.43-1.62,1.74a4.36,4.36,0,0,1-2.65.13,11.46,11.46,0,0,1-3.06-1.23c-1.19-.61-1.26-.72-2.33-1.29-2.79-1.48-3.83-1.51-4-2.33A2.31,2.31,0,0,1,557.4,568Z"/><path class="cls-21" d="M560.94,571.32a13.19,13.19,0,0,1,2.18,1,4.12,4.12,0,0,1,1.53,1.21c.38.57.74,1.6.32,2.09s-1,.28-2.09.08a12.62,12.62,0,0,1-3.39-1.12c-1.45-.74-1.26-.91-2.25-1.37-2.14-1-3-.21-5.07-1.13-1.36-.61-2.69-1.75-2.5-2.26s1.46-.29,4,0A45,45,0,0,1,560.94,571.32Z"/><path class="cls-22" d="M558.09,572.36c.36.11,1.11.36,1.32,1a2.18,2.18,0,0,1-1.17,2.24c-1.21.69-2.79,0-3.5-.31-1.59-.63-4.22-.77-9.4-1.29-1.26-.13-2.73,0-5.06-.29-.63-.07-1.12-.14-2.1-.29-4.88-.71-5-1-5.06-1.14-.12-.7,2.51-1.68,2.87-1.82a18.27,18.27,0,0,1,7.25-.95A59.91,59.91,0,0,1,558.09,572.36Z"/><path class="cls-23" d="M535.6,556.59a5.79,5.79,0,0,1,3.92,2.1c.93,1.12,2,3.32,1.14,5.15-.58,1.22-1.73,1.68-3.53,2.39-2.12.83-4.33,1.71-6.11.57a4.34,4.34,0,0,1-1.91-3.44,5.08,5.08,0,0,1,.39-1.71,7.71,7.71,0,0,1,2-3.73A5.83,5.83,0,0,1,535.6,556.59Z"/><path class="cls-24" d="M663.32,377.69c.09-.13.64,2.13,2.51.84.28-.19.41-.59.7-.77,1.16-.73,1.21-1.3,2.2-.19s3.48.18,3.79-1.45c.67-3.56,3.66-5.15,7-6,5.12-1.24,8.86-4.6,11.59-9.07.48-.79,1-1.54,1.58-2.32l.32.39a7.49,7.49,0,0,1,1.63-3.64c.08-.08.18-.23.16-.32-.44-1.71,1-3.17.53-5-.55-2-.42-4.15-1.68-6a11.7,11.7,0,0,1-.81-2.82,29.45,29.45,0,0,0-1.38-3.56,39,39,0,0,0-3-5.64c-1-1.46-1.93-3-3-4.47a18.63,18.63,0,0,0-5.62-4.71c-1.12-.68-2.63-.72-4-1.07-.24-.07-.41-.33-.65-.39a24.68,24.68,0,0,0-4.29-.45,18.46,18.46,0,0,0-6.1.71,29.23,29.23,0,0,0-5.41,1.84c-3.17,1.42-3.57,2.58-5.68,5.07a15.44,15.44,0,0,0-2,4.16c-.54,1.33-1.24,5.74-2.84,6.4a3.18,3.18,0,0,0-1.44,1.81,18,18,0,0,1-2,4.21c-.27,1.31-1.95,2.45-3.39,3a15.93,15.93,0,0,1-3.66,1.06c-2.5.32-5,.44-7.42.62,1.09,2.56,2.51,4.91,3.07,7.45a52.27,52.27,0,0,1,1.11,10.23c.09,4.38-.23,8.77-.38,13.21a17.34,17.34,0,0,0,6-5,7.75,7.75,0,0,0,1.7-3.68c.07-.53.78-1.08,1.32-1.42,1-.61,2.08-1,3.07-1.59.56-.33.92-.3,1.23.23s.6,1.09.89,1.65c.64,1.24,1.3,2.48,1.93,3.73a15.1,15.1,0,0,0,.91,1.9,16.7,16.7,0,0,0,2.27,2.86,2,2,0,0,0,2.66,0,3.91,3.91,0,0,1,3.93-.8c.21.1.49.8.7.86C665.15,380.64,663.25,377.79,663.32,377.69Z"/><path class="cls-25" d="M578.75,452.4c3.82,3.42-.9,8.44-.51,27.54.11,5.67-.75,11.32-.77,17,0,3.93.08,6.73-1.85,8.28-2.62,2.1-7.19.51-9.26-.22-1.57-.54-5.35-1.85-7.74-5.12-3.2-4.39-.31-7.45-.85-19.59-.33-7.41-1.58-10.17-.34-16.57.61-3.18,1.06-5.38,2.72-7.51C564.48,450.62,574.59,448.66,578.75,452.4Z"/><path class="cls-26" d="M590.7,450.72c-.85,2-2.53,2.94-5.31,4.46-2.07,1.13-3.72,1.72-11.13,3.71,0,0-3.57.95-11.56,2.44-2.81.52-4.88.85-5.51-.11s.42-2.55,1.06-3.6c2.16-3.6,3.46-7.64,5.41-11.35s6.06-11.55,6.68-20.47a18.11,18.11,0,0,1,.95-5.19c1.49-4.23,4.85-8.31,6.68-7.74.52.16.76.64,1.27,1.8a43.26,43.26,0,0,1,2.76,7.11s0-.09,4.14,10.81c1.55,4.07,2.34,6.16,3.18,8.8C591.39,448,591.22,449.5,590.7,450.72Z"/><path class="cls-27" d="M630.06,326.76c-.25-1.24-1.1-3.11-11.9-8.2-6.6-3.1-9.94-4.68-14.8-5.79-1.32-.3-3.43-.72-6.91-1.6a56.21,56.21,0,0,1-7.24-2.1c-2.92-1.19-3.29-1.84-5.3-2.09s-2.51.26-4.67-.16c-1.75-.34-1.78-.74-3.86-1.28a34.9,34.9,0,0,0-5-.65,54.77,54.77,0,0,1-5.47-.8c-2.59-.58-3.33-1.07-5.14-1a5.47,5.47,0,0,0-3.06.8c-1.47,1.1-1.62,3.31-1.45,7.07.25,5.2.37,7.8,1.45,12.06a75.48,75.48,0,0,0,3.54,10.13c2.77,7,3.21,6.81,4.34,10.3.93,2.87,1.38,6.67,2.25,14.15,1.21,10.38.9,11.13,2.09,14a34.1,34.1,0,0,0,6.6,9.81,39.25,39.25,0,0,0,5.78,5.14c3,2.14,3.62,1.95,8.85,5.15,3.75,2.29,3.94,2.71,5.63,3.21.41.13,6,1.74,8.36-1a4.91,4.91,0,0,0,.8-1.45c.69-1.65.55-3,.48-5.15a31,31,0,0,1,0-4.34c.57-2.72,2.7-3.2,4.67-5.62,3-3.73,1-6.37,3.54-12.23,1.89-4.39,3.23-3.38,5.14-7.39,3.78-7.93-1.09-12.57,2.89-18,2.15-2.94,4.51-2.87,6.76-7.08C629.41,330.91,630.48,328.92,630.06,326.76Z"/><path class="cls-28" d="M657.55,345.74a21.28,21.28,0,0,0-.64-7.72,18.83,18.83,0,0,0-3-5.95c-1.68-2.26-2.77-3.74-4.67-4.18-.88-.2-.93.05-4.34,0a22.86,22.86,0,0,1-3.22-.16c-2-.35-2.26-1-4.5-1.77-.67-.24-.7-.2-5.79-1.13a23.4,23.4,0,0,0-4.18-.64,12,12,0,0,0-5.14,1.45,23.34,23.34,0,0,0-7.4,5.79,39.07,39.07,0,0,0-4,5.95c-2.14,3.51-3.2,5.27-3.54,7.07-.52,2.79.51,3,.32,7.24a17.25,17.25,0,0,1-1.6,7.39c-1.29,2.53-2.31,2.45-4,4.83-3.24,4.48-3.22,9.74-3.22,11.25a34.46,34.46,0,0,0,1.77,9.81c.88,2.6,1.89,4.43,1.12,6.6-.67,1.9-2.3,2.9-1.93,3.53.24.41,1.07.23,3.38,0,.32,0,3.17-.31,5-.32a20.53,20.53,0,0,1,5,.64c4.65,1.09,5.71,2.81,7.24,2.26,2.21-.81,2.42-5.29,2.57-6.92.74-8.26,6.16-14.33,14.31-23.48C647,356,656.68,353.1,657.55,345.74Z"/><path class="cls-29" d="M652.31,375.74c0,.65-.07,5.24-2.56,8.46a8.43,8.43,0,0,0-1.77,3.14,21.81,21.81,0,0,0-.39,2.75c-.35,2.68-.38,2.45-.4,3-.07,1.78.38,2.12.59,4.33.13,1.26,0,1.06,0,3.74,0,2.35.15,2.62.2,5.11.07,3.18-.12,2.78,0,4.33.18,2.21.56,2.85,1,5.7.2,1.29.27,2.17.4,3.73.5,6,0,6.77,1,8.46.75,1.27,1.29,1.24,2.36,3.15a20.23,20.23,0,0,0,1.57,3c1.14,1.44,1.78,1.23,2.36,2.36s0,1.73.4,3.54c.08.34.21.78,2.16,3.93,1.13,1.83,1.7,2.75,2.16,3.34a29,29,0,0,0,3.15,3.34c1.79,1.7,2.59,2.29,3.54,3.15,0,0,2,1.77,7.08,10h0s1.56.92,1.55,1.65-1.45,1.22-2.08,1.45c-7.08,2.56-6.46,3.17-8.85,3.32a54.45,54.45,0,0,1-6.34-.75c-3.8-.54-3.47-.61-5-.76-5.58-.56-6.47.67-8.46-.45-1-.57-1.28-1.16-4-6-3.3-5.88-3.17-5.49-3.4-6-2.37-5.24.22-9.23,1-16.63.75-7.17-.69-12.77-2.21-18.63-2.51-9.72-5.17-10.66-5.8-18a35,35,0,0,1,1.8-14c3.59-11.56,12.56-22.62,16.42-21.23C652.25,369,652.31,375,652.31,375.74Z"/><path class="cls-30" d="M639.46,447.84c7.24,11.54,9.67,16.54,9.67,16.54,2.31,4.76,4.76,9.44,7.09,14.19a32.87,32.87,0,0,0,3.44,6c2.93,3.83,4.4,3.53,8.38,7.73a38.54,38.54,0,0,1,6.24,9,12.6,12.6,0,0,1,1.72,5.16,11,11,0,0,1-.17,3.2,7,7,0,0,1-2,4,6.27,6.27,0,0,1-3.2,1.18c-3.06.56-3.52-.41-6.73,0-1.92.24-2.73.71-3.88.16a5,5,0,0,1-1.85-1.85,17.5,17.5,0,0,1-2-3.87c-1.37-3.38-1.71-3-3.2-6.56-.46-1.12-.87-2.32-1.68-4.72-1.55-4.58-1.65-5.36-2.52-7.57A48.34,48.34,0,0,0,646,485a134.38,134.38,0,0,0-9.09-14.14c-2.65-3.75-3-4-5.05-7.07-5-7.39-5.55-9.31-5.39-11.28a10.78,10.78,0,0,1,3.37-6.56c1-.93,2.58-2.47,4.55-2.36C636.81,443.69,638.44,446.21,639.46,447.84Z"/><path class="cls-31" d="M638.48,470.4c-.61.61-1.18.14-4,.52a15.72,15.72,0,0,0-6,1.69c-2.6,1.49-3.68,3.61-4.3,3.26-.34-.18-.23-.92-.13-1.95.16-1.86-.08-3.74,0-5.61,0-.9.07-3.46-1.83-11.87-1.2-5.33-2.25-8.89-2.74-10.69-1.08-4-1-5.26-2.48-21.51,0,0-1.86-20.85-.34-28.7a35.35,35.35,0,0,1,1.21-4.53,35.89,35.89,0,0,1,1.92-4.36c.62-1.24,1-2.08,3.14-8.7,2.27-6.89,3.41-10.34,3.52-11.07a62.82,62.82,0,0,0,.46-10.3c-.09-3.49-.4-5.41.93-7.38a22.45,22.45,0,0,1,3.53-3.38,39.06,39.06,0,0,1,3.38-2.77c2.42-1.64,4.6-2.17,7.69-2.92,3.56-.86,5.56-1.34,8.3-.92a12.42,12.42,0,0,1,5.38,2,12.26,12.26,0,0,1,4,4.61c.65,1.24,1,3.15,1.69,6.91.83,4.52.8,5.73.77,6.31a19.89,19.89,0,0,1-.92,4.92,29.59,29.59,0,0,1-2.61,6c-.77,1.41-1.51,2.59-2.15,3.54-3.39,5-5.44,5.77-9.53,11.22-1.06,1.4-1.26,1.8-2.31,3.07-1.81,2.19-2.6,2.69-3.53,4.46a7.16,7.16,0,0,0-1.08,3.07,25.43,25.43,0,0,1,0,2.77c-.15,1.09-.35,1-.46,2-.17,1.44.27,1.77.15,3.07s-.5,1.06-.77,2.46.14,1.62,0,3.84a13,13,0,0,0-.15,2.15,8,8,0,0,0,.77,2.62,18.69,18.69,0,0,1,1.23,4.45c.31,2.55-.48,3.18.31,4.62a4.9,4.9,0,0,1,.92,1.84c.15,1-.33,1.3-.31,2.15,0,1.54,1.58,1.64,2.15,3.38.5,1.52-.53,1.91-.31,4.46.14,1.46.49,1.45.62,3.07s-.17,2.08-.15,3.54a13,13,0,0,0,.76,4c1.86,6.12,1.24,4.92,2.31,8,1.47,4.21,3.37,8.55,2.4,9.63a1.83,1.83,0,0,1-1,.57,1.74,1.74,0,0,1-1.18-.31,4.62,4.62,0,0,1-1.69-2c-1.82-4-4.28-7.67-6.21-11.61v0c-.54-1.09-.58-1.3-.65-1.29-.26,0-.29,2.75-.29,2.75,0,5-1.69,5.91-1.8,9.69C636.92,466.33,639.89,469,638.48,470.4Z"/><path class="cls-32" d="M573.64,375.49c1.09,2.73-.27,3.37,1,9a54.18,54.18,0,0,0,2.5,7.51c1.66,4.27,2.14,4.6,2.72,6.48,1.1,3.56.58,6.28-.21,11.48-.88,5.75-1.47,11.55-2.3,17.32-1.78,12.37-1.17,11.5-1.88,14.4-.8,3.28-4.69,12.69-12.52,20.46-1.73,1.71-5,4.71-4.59,8.14a8.1,8.1,0,0,0,1.67,3.55c1.85,2.67,3.37,2.81,5.84,5.21a15.4,15.4,0,0,1,4.18,6.27c.27.82,1.72,5.28-.42,7.51a4.68,4.68,0,0,1-2.92,1.25c-9.79,1.19-14.68,1.78-15.66,1.67-7.75-.84-8.94-3-19.83-6.26-13.22-4-14.88-1.88-21.29-5.64a35.54,35.54,0,0,1-13.15-14.19c-4.59-8.67-4.39-16.7-4.17-25.88.19-8,1.48-14.63,3.55-25.26,1.23-6.32,2.1-9.48,2.92-16.07a101.3,101.3,0,0,0,1-15.24c-.2-10-2.36-11.67-4.59-26.92-1.22-8.33-1.81-12.6-1-17.74a34.22,34.22,0,0,1,6.89-16.91c3.17-4,10.91-11.66,16.49-9.6,2.66,1,3.07,3.54,6.67,10.43,1.78,3.41.63.77,9,14.41,11,18,11.56,20.19,15.65,22.33s4.61.65,12.53,4C567.91,369.72,572,371.51,573.64,375.49Z"/><path class="cls-33" d="M564.26,424c-1.07-.19-2.1,6.86-5.91,13.79A42.74,42.74,0,0,1,548,450c-5.92,5.12-11.34,7.47-18.71,10.67-6,2.61-9,3.92-13.63,4.6-6,.88-12,2.07-16.41-1.15-1.65-1.21-3.34-3.2-4.38-2.67-.3.16-.73.61-.7,3.13a25.63,25.63,0,0,0,1.22,7.13c.26,1,.52,3.22,1,7.73,2.12,18.39,2.17,27,2.17,27,0,1.54,0,5.33,2.45,7.81a5.62,5.62,0,0,0,3.47,1.76,5.5,5.5,0,0,0,3.47-1.18c4.8-3.46,10.58-5.36,15.47-8.68a105.51,105.51,0,0,1,18.21-9.82c8.1-3.37,13.11-5.45,17.34-4.63,1.53.29,3.47.15,7.34-.14a4.34,4.34,0,0,0,2.59-1,1.63,1.63,0,0,0,.67-1.18c-.07-.7-1-1.14-1.48-1.33a55.06,55.06,0,0,0-12-3.84c-6.51-1-9.76-1.51-11.31-1.56a62.28,62.28,0,0,0-11,.7c-3.66.59-7.48.29-11.06,1.26-.51.14-2.11.61-2.8-.14-.2-.22-.36-.59-.28-1.54a8.22,8.22,0,0,1,1.4-3.78c2.55-3.48,7.14-6.11,7.7-6.43,3.79-2.14,4.45-2.05,7.7-3.78a57,57,0,0,0,9.52-6.44,45.57,45.57,0,0,0,9.52-9.8c2.88-4.2,1.05-3.38,6.16-13.86,1.46-3,3.43-6.8,3.22-11.89C564.91,426.16,564.82,424.12,564.26,424Z"/><path class="cls-34" d="M561.88,308.59c1.66,7.68,1.85,5.22,3.53,13.19a141.08,141.08,0,0,1,2.26,14.15c1.12,10.88-.36,10.1.8,17.85s2.94,10.61,1.61,16.24a35.72,35.72,0,0,1-2.9,6.91c-3.84,7.94-5.61,7.8-8.2,14.15-1,2.36-1.74,4.89-2.73,4.83-.65-.05-1-1.18-1.45-2.25-.75-1.86-.48-.53-4.5-7.4-8.28-14.13-14.95-26.69-14.95-26.69-10.05-18.91-6.64-14.21-12.23-24.12-5.38-9.56-10.45-17.3-7.88-20.43.4-.47.65-.46,3.86-1.6,0,0,3.25-1.16,10.3-4,6.24-2.54,5.94-3,9.48-4.18a60.69,60.69,0,0,1,10-2.09c6.39-.76,9.6-1.11,10.94,0S561.2,305.48,561.88,308.59Z"/></g><g id="_LAYER-18_P1_" data-name="&lt;LAYER-18_P1&gt;"><path class="cls-35" d="M1861,486.85a3.09,3.09,0,0,1-.52,2.26c-.86,1.1-2.53,1.09-3.15,1.08-4.5,0-9.08,1-13.49.09-9-1.76-12.18,2.43-19.78.08a4.46,4.46,0,0,1-2.31-.83,3.63,3.63,0,0,1-1-2.19,5,5,0,0,1,.77-3.39c1.41-2.07,4.69-2,7.3-2.15,9.15-.63,9-4.6,15.08-4,3.92.42,7.11,2.42,12.64,5.91C1858.45,485,1860,486.08,1861,486.85Z"/><path class="cls-36" d="M1854.07,484.34c.91,4.67-1.66,7.92-4,13.18-1.41,3.2-2.31,7.33-4.11,15.58-1.7,7.79-2.55,11.69-2.55,15.15,0,4.25-1.08,8.52-.57,12.75.1.77.39,3-.85,4.1-.55.51-1.41.63-3.11.85a15.79,15.79,0,0,1-4.82.15,20.84,20.84,0,0,1-4.11-1.42,32.61,32.61,0,0,1-5-2.27,14.85,14.85,0,0,1-4.39-4.1,4.07,4.07,0,0,1-1-2.84,3.68,3.68,0,0,1,.85-1.7,45.33,45.33,0,0,0,2.13-4.39,43.42,43.42,0,0,0,2.41-6.94,65.15,65.15,0,0,0,2-11c1.5-15,2.26-22.49,1-28.33-.19-.89-.81-3.5.43-4.53.88-.74,2.3-.34,3.11-.14,3.35.81,6.9.23,10.34.42,7.32.4,8.66,0,10.2,1.42A7.15,7.15,0,0,1,1854.07,484.34Z"/><path class="cls-37" d="M1836.28,392.87a14.48,14.48,0,0,0-3.33,4.86c-.46,1.07-1.09,2.87-1.28,7.42-.24,6.18.76,6.9.26,11.52a21,21,0,0,1-1.79,7.16c-1.52,3.2-3,3.81-4.61,6.4s-1.86,4.67-2.56,10.23c-1.46,11.72-2.2,17.58-2.3,18.17-1.31,7.76-2.24,9-2.05,13.56.15,3.32.67,3.55,1,9.21.22,3.49.1,4.74,1,5.37,1.63,1.12,4.16-1.35,9.21-3.07a32.11,32.11,0,0,1,10-1.53c3.6,0,9.71.11,14.84,3.84,1.75,1.26,3.34,2.92,5.38,2.56.59-.11,1.54-.45,3.32-2.56a20.79,20.79,0,0,0,3.84-6.4c3.23-9.41,1.54-28.15,1.54-28.15a187.64,187.64,0,0,1-.26-28.14c.52-10.31-1.45-20.74,0-31,.21-1.45.83-5.57-1.28-7.17-1.28-1-3-.56-8.19.77-6.5,1.66-8.5,2.23-10.74,2.82C1840.41,390.82,1838.64,390.67,1836.28,392.87Z"/><path class="cls-38" d="M1770.16,400.41c-.06.88-1,1.06-2.48,2.77a20.28,20.28,0,0,0-1.84,2.69c-.47.76-.91,1.52-2.69,4.89-1.58,3-1.49,2.88-1.85,3.48-1.06,1.76-1.3,1.8-2.62,4a16.25,16.25,0,0,0-1.56,2.41,2,2,0,0,1-.71,1,1.65,1.65,0,0,1-1,.28,1.62,1.62,0,0,1-1.07-.42,2.32,2.32,0,0,1-.54-1.66c0-.21.09-.27,0-.33s-.7.35-1.42.29a2.09,2.09,0,0,1-1.13-.57,2.25,2.25,0,0,1-.71-.92,1.48,1.48,0,0,1-.13-.48c0-.31,0-.49,0-.51s-.24.51-.71.78a2.29,2.29,0,0,1-.85.14,5.25,5.25,0,0,1-1.35,0,2.27,2.27,0,0,1-1.13-.64,2.41,2.41,0,0,1-.57-1.56,13,13,0,0,1,.49-4.18,29.25,29.25,0,0,1,1.42-4.33,15.2,15.2,0,0,1,2.7-4.46c1.37-1.48,2-1.25,5.74-3.41,4.13-2.36,4.51-3.27,6.52-3.4a8.3,8.3,0,0,1,4.61,1.21C1768.22,397.94,1770.25,399.08,1770.16,400.41Z"/><path class="cls-39" d="M1797.35,370.87c-1.25,1.58-2.26,2.71-2.95,3.49-2.69,3-4.8,5.33-7.91,7.37a30.69,30.69,0,0,1-4.29,2.28c-3.76,1.73-13.33,5.56-19.57,6.84a4.67,4.67,0,0,0-3.09,1.74,3.92,3.92,0,0,0-.53,2.55c.2,1.84,1.6,3,3,4.15a10.36,10.36,0,0,0,3.75,2.15,10.71,10.71,0,0,0,4.16.4,12.6,12.6,0,0,0,5.36-1.88c3.78-2.27,8.26-3.13,12.33-4.82,13.46-5.61,16.9-5.48,26.82-10.19,9.35-4.45,9.13-6.82,14.21-8.05,1.15-.28,3.89-.84,5-2.95.61-1.21.49-2.59-.14-4.69-1.34-4.48-2.59-8.68-7-11.53-5-3.23-10.26-2.32-12.06-2a19,19,0,0,0-10.33,5.36C1801.62,363.68,1801.7,365.36,1797.35,370.87Z"/><path class="cls-40" d="M1761.23,397c-.59-.87-3.81,1.41-9.29,2.48a19,19,0,0,0-4.18,1.56,5.37,5.37,0,0,0-1.63,1.21,4.12,4.12,0,0,0-.85,1.35c-.32.9,0,1.37.07,2.62.15,2.16-.65,2.69-.14,4.32a2.46,2.46,0,0,0,.85,1.35,2.8,2.8,0,0,0,1.49.42,7.06,7.06,0,0,0,3.12-.49c1-.38,1.57-.6,1.91-1.21a1.8,1.8,0,0,0,0-1.91,1.37,1.37,0,0,0-.78-.43,19.1,19.1,0,0,0-3.4-.21,11.82,11.82,0,0,0,2.83-1.49c1-.88.88-1.47,1.71-2.41,1.29-1.47,2.59-1.13,4.46-2.12C1760,400.68,1761.76,397.79,1761.23,397Z"/><path class="cls-41" d="M1914.9,359.42c1.85,1.08.76,5.92-.44,11.67-2,9.43-3.47,19-5.29,28.4s-.62,6.76-3.52,26.21c-1.87,12.5-2.34,13.5-4,25.1-1.78,12.73-2.67,19.09-2.65,21.58.06,7.06,1.12,20-2,20.92a16.67,16.67,0,0,0-3.52.88c-1.38.57-1.72,1-2.2.88-1.43-.38-1.36-5-1.32-6.82.18-9.15.28-13.72.44-14.76,2.25-14.5.1-15,2.64-30.83,1.92-11.94,3-10.48,4.62-22,2-13.94.29-14.6,2.65-23.56,3-11.5,6.31-12.05,6.38-20.26,0-5.68-1.48-9.7,1.32-13.65C1909.93,360.54,1913.32,358.49,1914.9,359.42Z"/><path class="cls-42" d="M1909.83,367.34c-.54-.93-6.56,1.67-10.57,3.31-7.39,3-13.21,5.4-19.37,6.82-11.33,2.63-18,.69-20.7,5.07a12.51,12.51,0,0,0-1.76,6.6,8.49,8.49,0,0,0,.88,3.75c1.18,2.25,2.79,2.41,3.08,4.18.16,1-.2,1.78-.88,3.3a23.87,23.87,0,0,1-2.2,3.53c-1.12,1.9-.89,3.6-.88,6.38,0,5-.72,3.82-1.1,11.67a51.48,51.48,0,0,0,0,9c.46,4,1.13,4.14,1.76,8.59.79,5.59-.24,5.62.66,9.47.76,3.28,1.5,3.23,3.3,9.25,1,3.47,1.21,4.86.88,6.38s-.9,2.11-.88,3.75.73,1.94,1.1,4.18a12.84,12.84,0,0,1-.22,5.07c-.45,1.94-.86,1.75-1.12,3.09-.68,3.57,2.25,4.84,1.91,8.93-.13,1.54-.62,2.25-.12,3.34a4.81,4.81,0,0,0,3.1,2.26c5.9,1.95,13.46,1.2,17.38.72,5.28-.65,7.45-1.24,8-2.74.29-.82-.09-1.39-.47-3.46a34,34,0,0,1-.36-5.95,81.16,81.16,0,0,1,.47-9.53c.46-4.52.72-4.33,1.08-8.1.33-3.57.12-3.91.35-9.76A101.5,101.5,0,0,1,1894,445c.51-3.47,1.24-6.68,1.78-9,.6-2.61.66-2.58,1.31-5.36a106.83,106.83,0,0,0,2.15-10.71c.22-1.68.34-4.38.59-9.77s.22-7.23,1-10.12a57.1,57.1,0,0,1,2-5.72c2.41-6.32,2.82-6.41,3.69-9.41,1.11-3.82,1.67-5.73,1.55-8.33-.11-2.36-.67-4.21.36-6.55C1909.1,368.36,1910.06,367.74,1909.83,367.34Z"/><path class="cls-43" d="M1787.42,339.14c-1.06.73.42,3.64,2.1,11.14,1.38,6.15,2.07,9.22,2.31,12.18.31,3.82.18,7.31,1.89,8,.51.2.85,0,2.1-.21a34.19,34.19,0,0,1,5.68-.42c3.84-.25,9.86-.64,11.34-3.78.12-.25.51-1.17,0-3.58-.74-3.49-2.62-6.48-5.88-9.87-2.44-2.54-3-2.59-13.45-10.09C1789.62,339.7,1788.19,338.62,1787.42,339.14Z"/><path class="cls-44" d="M1901.9,313.68a11.82,11.82,0,0,1,4.19,2.92,21.92,21.92,0,0,1,3.8,5.45c3.95,6.89,3.39,5.57,4.44,7.61,3.08,6,2,5.88,4.82,11.29,1.45,2.74,2.26,5.84,4.06,8.37.4.56,1.51,2.07,1,2.92-.34.57-1.15.37-2.41,1a6.27,6.27,0,0,0-2.15,1.9,9.49,9.49,0,0,0-1.65,4.31c-.5,2.05-2,3.52-5,6.47a39.78,39.78,0,0,1-9.76,7.1c-1.21.64-2.18,1.08-9.77,3.81-9.68,3.48-11.3,3.91-15,5.58-3.88,1.76-3.08,1.74-7.86,4.06a140.3,140.3,0,0,1-16.87,6.72c-7,2.28-4.29.81-11,2.91-3.4,1.07-5.55,1.9-7,.77s-1.54-3.48-1.39-4.82a9.42,9.42,0,0,1,.76-2.67c.6-1.25,1.08-1.4,1.14-2.15.1-1.17-1-1.67-1.52-2.92-.89-2,.26-4.37.5-4.82,2-3.77,9.81-.51,16.36-3.17,4.59-1.86,5.38-5.33,11.8-17.25,9-16.73,8.71-12.22,16.36-26.75,3.91-7.44,7.16-14.66,13.57-17.63C1894.82,314,1898.35,312.41,1901.9,313.68Z"/><path class="cls-45" d="M1772.71,320.23a11.17,11.17,0,0,0,1.47,4.84,16.3,16.3,0,0,0,1.89,2.31,40.62,40.62,0,0,1,3.79,4.62c1.42,2.64.19,3.58,1.47,6.09.94,1.86,1.89,1.89,4.41,4.2,1.08,1,.9,1,6.09,7.57a48.87,48.87,0,0,0,5.25,6.09c.74.69,1.29,1.14,3.58,2.94,3.87,3.06,6.92,5.4,7.56,5.89,5.78,4.44,5,4.18,8.4,6.72a122.21,122.21,0,0,0,12.19,7.77c3.09,1.78,2.58,1.35,7.77,4.2,10.17,5.58,12.39,7.36,14.71,6.31.81-.37,1-.81,3.57-5.25,5.08-8.87,4.14-7,5.46-9.46,3.78-7.13,3.1-7,5.68-11.56.89-1.58,3-4.71,7.14-10.92,5.38-8,5.69-8.37,6.93-10.51,3.33-5.69,2.67-5.89,5.47-10.5,3.93-6.48,5.89-9.72,9.87-12s8.43-2.52,8.62-4.62c0-.61-.46-1.39-1.47-2.94a27.67,27.67,0,0,0-3-3.78,86.73,86.73,0,0,0-7.14-6.51c-6.5-5.35-5.81-5.43-10.29-8.83-3.18-2.41-2.88-1.88-7.15-5-4.46-3.31-5-4.05-9.24-7.15a69.12,69.12,0,0,0-7.78-5.25c-3-1.67-5.59-2.58-10.71-4.41a73.49,73.49,0,0,0-10.93-3.36,57,57,0,0,0-10.29-1,55.24,55.24,0,0,0-11.35.63,45.79,45.79,0,0,0-13,4c-4.83,2.36-5,3.59-8.83,4.62a4,4,0,0,0-3.25,3.43c-.14.59,1.35-.2,1.95,1.65,0,0,.3.93.75,3.1a38.63,38.63,0,0,1,.25,9c-.25,6-.43,8.18-1.09,11a10.52,10.52,0,0,1-1.92,4.27c-.61.77-5.11-1.08-6.93-.74a13.05,13.05,0,0,1-2.34.08c-1.47,0-1.7-.11-2.18-.08-2.21.14-3.78,2.76-4.19,3.43C1772.48,313.46,1772.64,319.2,1772.71,320.23Z"/><path class="cls-46" d="M1768.86,277.45c1.74.05,1.92,1.74,6,3.64,2.35,1.11,4.91,2.32,7.66,1.72,3.64-.78,7.15-5.23,8.93-4.56,1,.38.26,2.85.62,4.18a15.05,15.05,0,0,1,0,6.71c-.27,1.71.28-1.31-.77,9.58-.56,5.84-.83,7.77-2.3,9.78a6.48,6.48,0,0,1-4.18,2.11c-1.07-.07-1.19-1-2.3-1.54-2.58-1.19-7.06,1.6-9.58,4-1.27,1.23-1.65,2-2.68,2.1-1.25.15-2.7-.71-4.6-3.25-6.32-8.42-6.14-16.49-6.14-16.49C1759.67,286.67,1764.73,277.31,1768.86,277.45Z"/><path class="cls-47" d="M1741.29,294.62c.91.34-.36,3.48-.76,12-.18,3.82-.1,6.89-1.52,10.32a14.9,14.9,0,0,1-2.65,4.26,9.27,9.27,0,0,1-2.84,2.37,14,14,0,0,1-3.41,1c-4,.84-4.48.49-4.64.28-.36-.46-.11-1.21.19-2.08a14.44,14.44,0,0,1,2.65-4.26c1.12-1.53,1.17-2.47,2.09-5.21a61.27,61.27,0,0,1,4.35-9.75C1735.3,302.48,1739.76,294.05,1741.29,294.62Z"/><path class="cls-48" d="M1865,322.07c.31.27.14.21,3.14,6.55.77,1.64,1.52,3.29,2.32,4.91,1.86,3.8,2.07,3.91,2,4.51-.16,3.25-6.77,5.42-10.24,6.55-4.26,1.39-10.17,3.23-16.51,1.09-1.8-.61-4.47-1.56-5.73-4.1a7.82,7.82,0,0,1-.41-5.18c.2-1,1.16-4.87,7.37-9.28C1851.46,323.92,1861.13,318.74,1865,322.07Z"/><path class="cls-49" d="M1841.94,536.94c.7,1.54.19,1.81.94,7.5a51.51,51.51,0,0,0,.94,5.74c1.15,4.49,2.55,5.71,2,8.08a4.74,4.74,0,0,1-1.89,2.82c-1.13.65-2.28.26-3.6-.1-2.17-.59-4.41-.78-6.6-1.26a73.25,73.25,0,0,0-7.63-.88c-1.93-.18-2.62-.21-11.32-.78-5.88-.38-6.52-.42-8-.39-2.73.07-3.11.29-6.94.39-4.25.12-3.48-.16-6.43,0-.72,0-2.19,0-5.15-.19a3.2,3.2,0,0,1-2.65-1,2.71,2.71,0,0,1-.52-1.94,2.64,2.64,0,0,1,.86-1.56,3.59,3.59,0,0,1,2.15-.87c1.51-.21,1.92.25,3.33.12a7.36,7.36,0,0,0,2.23-.61,31.09,31.09,0,0,0,5.75-2.73c3.75-2.29,4.27-1.58,9.68-4.38,4.81-2.47,7.21-3.71,9-5.74,2.66-3,3-5.35,6.34-7.59a9.38,9.38,0,0,1,4.37-1.76c2.31-.24,4,.61,6.43,1.85C1838.88,533.55,1840.85,534.56,1841.94,536.94Z"/><path class="cls-50" d="M1832.44,538.28c-.47,2.7-1.11,6.41-4.08,7.6-2.65,1-5.38-.61-5.65-.78a5.69,5.69,0,0,1-2.73-3.41c-.12-.62-.17-1.65,2.92-6.42,2.67-4.12,3.49-4.56,4.19-4.77a4.82,4.82,0,0,1,4.48.87C1833.36,533,1832.86,535.89,1832.44,538.28Z"/><path class="cls-51" d="M1887.28,499.92c1.22,1.74.18,3.2-2.83,13.88-2.36,8.38-3.54,12.67-4,17.71-.4,4.83-.56,8.21-.56,8.21-.11,2.32-.32,4.63-.43,6.94-.12,2.68-.11,3.41-.57,4.53a9.54,9.54,0,0,1-3.82,4.25,14.79,14.79,0,0,1-6.8,2.27,16.11,16.11,0,0,1-8.07-.57,9.07,9.07,0,0,1-4.67-3.11c-.29-.41-1.89-2.62-1.28-5a5.54,5.54,0,0,1,1-1.84c1.13-1.66,2-3.51,3-5.24a48.14,48.14,0,0,0,3.68-8.36,41.27,41.27,0,0,0,2-11.9c.77-14.73,1.67-22.07,1-26.62-.09-.61-.33-2.13.43-2.69,1.24-.92,3.93,1.6,7.36,3.4C1880.39,499.85,1885.06,496.78,1887.28,499.92Z"/><path class="cls-52" d="M1761.64,269.37c1.14.6,2.58,2.22,5.47,5.47s4.4,5,5.16,6.84c2.17,5.35.1,10.66-.3,11.69s-1.08,2.53-5.77,7.75c-8.21,9.13-12.62,11.59-14.74,12.61a14.1,14.1,0,0,1-7,1.67,16.69,16.69,0,0,1-4-.76,23.93,23.93,0,0,1-5.77-2.43c-5-3.28-4.34-13-4.25-14.28.61-9.4,6.37-15.77,8.81-18.38C1744.87,273.58,1755.48,266.14,1761.64,269.37Z"/><path class="cls-53" d="M1776.64,306.9c0,1.76-.5,2.36-.6,6,0,.81,0,1.92-.1,4a14.38,14.38,0,0,1-.51,4,5.79,5.79,0,0,1-1,2.21c-.93,1.13-2.2,1.49-3.73,1.91a8,8,0,0,1-3.22.51c-.76-.08-2.32-.39-3,0a3.21,3.21,0,0,0-.66.46c-.2.2-.24.32-.44.43a1.38,1.38,0,0,1-.65.13,6.21,6.21,0,0,1-1,0,1.27,1.27,0,0,1-.91-.56c-.06-.12,0-.17,0-1,0-.6,0-.5,0-.78s0-.69,0-1.13.08-.79,0-.83-.2.14-.53.48c0,0-.24.24-.65.61-.07.07-.41.39-.87.78-.61.54-.69.58-.78.61-.29.1-.31,0-1,0a3.68,3.68,0,0,1-.78,0,1,1,0,0,1-.66-.22c-.16-.18-.07-.33-.17-.69s-.13-.26-.52-.87a9,9,0,0,0-.52-.83,2.11,2.11,0,0,0-.87-.61.73.73,0,0,0-.61,0c-.14.08-.11.2-.26.52,0,.08-.18.3-.48.74s-.31.46-.39.52a2,2,0,0,1-.56.26,5.6,5.6,0,0,1-.66.22,2.11,2.11,0,0,1-.78.09,1.66,1.66,0,0,1-.82-.4,2.93,2.93,0,0,1-.87-1.08,22.4,22.4,0,0,1-1-2.61,8.48,8.48,0,0,0-1.68-3.07c-1.49-1.65-3.39-1.82-3.32-2.59,0-.34.42-.54.71-.71a12.24,12.24,0,0,0,4.15-4.79,11.85,11.85,0,0,0,1.2-4,20,20,0,0,1,5.63-9.89c.73-.66,5.5-5,10.9-3.76,3.52.78,5.44,3.48,8.65,8C1775.2,302.14,1776.6,304.12,1776.64,306.9Z"/><path class="cls-54" d="M1751.85,287.26c.18-1.7.26-2.54.73-3.08a4.11,4.11,0,0,1,3-1.05,6.93,6.93,0,0,1,3.4.64,9.55,9.55,0,0,1,4.38,9.48,4.93,4.93,0,0,1-1.06,2,2.79,2.79,0,0,1-1.29,1,3.17,3.17,0,0,1-2.59-.65,5.85,5.85,0,0,1-1-.89c-1.41-1.37-2.2-1.12-3.8-2.43a4.82,4.82,0,0,1-1.71-1.94A6.47,6.47,0,0,1,1751.85,287.26Z"/><path class="cls-55" d="M1870.56,337.35a4.83,4.83,0,0,1,2.59,2.73,5.49,5.49,0,0,1-.55,3.55,10.85,10.85,0,0,1-1.77,3,48.54,48.54,0,0,1-5.87,5.87c-6.81,5.76-6.23,5.34-7.09,6-2.53,1.92-4.59,3.27-7.65,5.19-5.43,3.42-8.15,5.13-12.55,7.64-2,1.17-23.28,14.17-26.74,16.92a8,8,0,0,1-2.19,1.23,5.05,5.05,0,0,1-2.86.41,4.85,4.85,0,0,1-3.14-2.73c-.49-1.13-.33-2.17,0-4.23s.56-3.55,1.64-4.91a7.56,7.56,0,0,1,3.13-2.19c2.44-1.1,2.42-1.81,8-6.55,2.87-2.4,5.37-4.29,10.38-8,5.84-4.4,5.66-4,6.27-4.77,3.66-4.52,2.43-8.39,6.69-12.15a8,8,0,0,1,4.09-2.18c1.92-.31,2.81.45,5,.55,1,0,2-.06,5.6-1.23,4.51-1.46,5.18-2,8.73-3.14C1867.93,336.53,1869.5,336.85,1870.56,337.35Z"/><path class="cls-56" d="M1789.39,278.25a3.7,3.7,0,0,1,3.24-1,2.58,2.58,0,0,1,1.2.72,3.58,3.58,0,0,1,.78,2.52c0,4.17.78,1.67.48,9.85-.11,2.95-.28,5.21-.42,6.72a53.42,53.42,0,0,1-1,6.85c-.78,3.55-1.51,4.71-2,5.4a7.07,7.07,0,0,1-3.13,2.52,9.82,9.82,0,0,1-3.84.42c-1.25,0-1.32-.18-2.4-.12a2.54,2.54,0,0,1-2.16-1.17,1.43,1.43,0,0,1,0-1.44,1.08,1.08,0,0,1,.31-.4c.38-.32.85-.26,1.49-.23s1.35,1.11,2.28,1.05a6.85,6.85,0,0,0,1.4-.18,5,5,0,0,0,1.68-.85,5.68,5.68,0,0,0,1.33-1.47,18,18,0,0,0,2.08-6.6c.37-3.62,0-3.38.27-7.52.35-4.65.53-7,.54-7a6.56,6.56,0,0,0-1.18-5.72,4.3,4.3,0,0,0-.63-.72c-.13-.13-.18-.16-.23-.22S1789.19,279,1789.39,278.25Z"/><path class="cls-57" d="M1810.8,388.94c.61.5-.54,2.92-.64,3.13a10.28,10.28,0,0,1-1.47,2.2,29.79,29.79,0,0,0-2.21,2.39,4.83,4.83,0,0,0-.64,1,5.66,5.66,0,0,0-.1,2.85,23.76,23.76,0,0,1-.27,3.21c-.1.89-.26,2-.55,3.41-.41,1.88-.67,2.25-1,2.48s-1,.24-2,.18c-1.32-.06-2-.09-2.39-.55-.22-.25-.23-.44-.46-1.84a17.44,17.44,0,0,1-.37-2.2c.07-.89.43-.89,1.2-2.85a5.17,5.17,0,0,0,.55-2.12,11.07,11.07,0,0,0-.27-1.65h0a2.83,2.83,0,0,0-1.66.64c-.3.34-.21.7-.28,1.47a9.4,9.4,0,0,1-.55,2.3c-.68,2.59,3.28,7.93,2.58,8.55-.51.45-3.34-1.6-4.88-3a16.33,16.33,0,0,0-2-1.75c-1.22-.88-1.49-.8-1.84-1.29-1-1.38,0-3.66.28-4.23a8.1,8.1,0,0,1,2.39-3c2.13-1.79,3.13-1.43,6.25-3,.81-.41,2.66-1.65,6.35-4.13C1809.26,389.37,1810.37,388.59,1810.8,388.94Z"/><path class="cls-58" d="M1810.43,384.9a7,7,0,0,1,.37,4.4,6.84,6.84,0,0,1-1.17,2.45c-1,1.25-2,1.56-4.22,2.72-3.56,1.81-2.9,1.94-5.25,2.95s-3.11.95-4.72,2.1a8.33,8.33,0,0,0-2.36,2.23c-1.55,2.29-.79,4.12-2.3,5.05a6.41,6.41,0,0,1-2.17.66,2.26,2.26,0,0,1-1.37,0,1.73,1.73,0,0,1-.92-.92,2.42,2.42,0,0,1,.13-1.64c.64-2.29.72-2.49.72-2.49a17.46,17.46,0,0,0,.79-2.82c.06-.4.11-.9.13-1,.09-.9.12-1.52.13-1.71a8.61,8.61,0,0,1,1.9-4.39,9.76,9.76,0,0,1,1.84-1.71,42,42,0,0,0,5.64-5c1.84-2.09,2.14-3.41,4.27-5.12a4.2,4.2,0,0,1,2.69-1.11,5.62,5.62,0,0,1,2,.59,8,8,0,0,1,2.42,1.25A5,5,0,0,1,1810.43,384.9Z"/><path class="cls-59" d="M1878.76,544.34c1.38,2.76-.06,3.19,1.5,7.91a13.87,13.87,0,0,1,.85,4.62,6.36,6.36,0,0,1-.47,2.64,5.7,5.7,0,0,1-1.51,2.07,6.28,6.28,0,0,1-3.56,1.36c-3.25.35-3.36,1.59-9.49,3.39a57.93,57.93,0,0,1-10.69,2c-1,.11-3.69.24-9.15.51-4.87.24-4.44.18-7.12.34-1.69.1-3.79.24-6.79.34,0,0-1.6.06-4.23,0a20.61,20.61,0,0,1-4.24-.51c-1.4-.31-2-.6-2.34-1.16a2.32,2.32,0,0,1-.19-1.76,3.15,3.15,0,0,1,2-1.94,6.91,6.91,0,0,1,2.43-.2c1.52,0,1.76.15,2.53.1a7.24,7.24,0,0,0,3-1c3.63-1.88,2-.54,7.11-3.31,1.71-.93,4.21-2.28,7.69-4.48,5.25-3.32,7.87-5,10.12-7.2,1.63-1.61,2.51-2.82,5.74-5.94,2.31-2.24,3.45-3.16,5.16-3.6a9,9,0,0,1,5.35.39A11.49,11.49,0,0,1,1878.76,544.34Z"/><path class="cls-60" d="M1873.69,553.84c-2-1-2.78-.58-3.75-1.52-1.26-1.24-1.18-3.22-1.14-4.21a9.63,9.63,0,0,1,2.44-5.72c1-1.2,3.28-4.13,5-3.59,2,.6,2.12,5.27,2.22,9,0,1.34.2,7.77-1.53,8.17C1876.21,556.16,1875.91,555,1873.69,553.84Z"/><path class="cls-61" d="M1838.5,565c-.77-.59-1.82-.49-4.2.07a21.86,21.86,0,0,0-4.27,1.21c-2,1.09-3.9,3.09-3.49,4,.18.39.77.5,1.56.64a6.56,6.56,0,0,0,2.64-.07c3.59-.8,5.39-1.21,6.91-2.49.6-.51,1.68-1.45,1.49-2.42A1.62,1.62,0,0,0,1838.5,565Z"/><path class="cls-62" d="M1844.49,565c-.77-.59-1.81-.49-4.2.07a21.86,21.86,0,0,0-4.27,1.21c-2,1.09-3.9,3.09-3.49,4,.18.39.77.5,1.57.64a6.52,6.52,0,0,0,2.63-.07c3.59-.8,5.39-1.21,6.91-2.49.6-.51,1.68-1.45,1.49-2.42A1.62,1.62,0,0,0,1844.49,565Z"/><path class="cls-63" d="M1848.3,565.32c-.63-.42-1.43-.29-3.24.26a16.58,16.58,0,0,0-3.23,1.14c-1.48.93-2.85,2.57-2.49,3.24.16.3.62.35,1.24.42a5.31,5.31,0,0,0,2-.18c2.73-.8,4.09-1.2,5.2-2.26.44-.43,1.23-1.2,1-1.94A1.24,1.24,0,0,0,1848.3,565.32Z"/><path class="cls-64" d="M1853.46,564.83c-.67-.34-1.45-.12-3.18.64a17.49,17.49,0,0,0-3.07,1.52c-1.36,1.11-2.52,2.9-2.08,3.52.19.27.65.27,1.28.27a5.11,5.11,0,0,0,2-.43c2.62-1.11,3.92-1.67,4.9-2.86.38-.47,1.07-1.34.79-2A1.25,1.25,0,0,0,1853.46,564.83Z"/><path class="cls-65" d="M1897.27,490.9c1.13.39,1.6,2.07,1.74,2.56.31,1.13,0,1.23.33,2.57a7.15,7.15,0,0,1,.58,2.15,2.36,2.36,0,0,1-.42,1.57c-.71.78-2,.08-3.88.25s-1.84.89-4,1.48c-1.5.42-2.18.25-5.88.17,0,0-2.61,0-5.37,0-5.07.1-5.78.51-8.36.08a12.5,12.5,0,0,1-4.13-1.16c-2.08-1.06-2.52-2.19-4.22-2.31-1.26-.09-2,.46-2.73-.08-.3-.24-.51-.61-.66-1.82-.29-2.3-.49-3.85.41-4.72s2.09-.58,4.14-.25c2.32.39,3,.94,6.28,2a20.24,20.24,0,0,0,5.22,1.24c1.31.07,1.66-.1,5-.58,4.07-.58,3.94-.38,7.2-.91s4.88-.78,5.78-1.24C1895.61,491.27,1896.38,490.59,1897.27,490.9Z"/><path class="cls-66" d="M1862.43,488.45a4.12,4.12,0,0,1-2.87,2.07,3.53,3.53,0,0,1-2.3.06c-1.14-.44-1.4-1.5-2.07-2.47-1.1-1.58-2.73-2.09-6-3.11a24.26,24.26,0,0,0-6.73-1,32.23,32.23,0,0,0-6.55.52c-3.76.58-6.4,1-9.55,2.41s-5,3-6.61,2.19a3.43,3.43,0,0,1-1.38-1.61c-.3-.73-.13-1.11-.11-3,0-2.05-.18-2.14,0-2.59.47-.89,1.51-1.09,3.51-1.61,1.54-.4,3.06-.92,4.6-1.32.91-.24.49-.15,7.42-2.25,3.81-1.15,4.24-1.27,5.06-1.43a18.53,18.53,0,0,1,6-.52,15.37,15.37,0,0,1,6.44,2.41c3.64,2.19,3.35,3.57,6.84,5.18a7.67,7.67,0,0,1,2.87,1.72C1861.3,484.35,1863.25,486.49,1862.43,488.45Z"/><path class="cls-67" d="M1833.47,279.92c-2-.88-4.52,0-9.61,1.72-4.17,1.42-6.82,2.32-9.18,4.88-1.18,1.27-2,2.86-3.58,6-1.71,3.37-2.56,5-2.73,6.89-.06.66-.17,2.65,2.3,8.17,2.06,4.62,2.82,4.76,4.87,9,2.87,6,3.94,4.2,6.24,7.67,2.93,4.43,4.9,3.88,6.45,7.75,1.26,3.12,2.54,1,4.37,4.12a12,12,0,0,0,4.45,4.31,4.5,4.5,0,0,0,2.44.71c1.79-.1,3-1.64,3.58-2.29,2.17-2.6.47.89,2.88-1.48a59,59,0,0,1,10.75-8.17c3.29-2.05,4.93-3.07,5.74-3.45,2.3-1.07,4.34-1.69,4.3-2.58,0-.51-.72-.65-1.57-1.43a7.43,7.43,0,0,1-2-4c-.58-2.2-2.4-4.24-6-8.31-4.57-5.14-5.48-4.51-10.18-9.47a48.38,48.38,0,0,1-7.46-9.47C1835.85,284.25,1836.4,281.23,1833.47,279.92Z"/><path class="cls-68" d="M1867.12,324.12a1.62,1.62,0,0,0,.26-1.12,3.11,3.11,0,0,0-.58-1.71,6.15,6.15,0,0,0-4-2.24,7.16,7.16,0,0,0-2.83,0c-2.4.51-3,2.09-6.93,5.6-.62.55-2.11,1.88-4.11,3.36-2.79,2.07-2.83,1.69-4.85,3.25-3.77,2.91-2.72,3.54-6.24,6.45a2.91,2.91,0,0,0-1.28,1.87,2.75,2.75,0,0,0,1.86,2.61,2.22,2.22,0,0,0,.86.11,4.15,4.15,0,0,0,2.66-1.81c1.09-1.27,2.63-2.06,3.9-3.15,0,0,2.79-2.41,5.7-4.69,3.18-2.49,2.46-1.59,7.1-5,3.29-2.43,4.7-3.66,6.4-3.36C1865.5,324.36,1866.61,324.66,1867.12,324.12Z"/><path class="cls-69" d="M1770.15,263.72a10.59,10.59,0,0,1,1.61,2.09c1.6,2.29,1.68,2.79,1.51,3.12s-.55.35-1.42.66a23,23,0,0,0-2.65,1.42c-3.33,2-5.46,5.86-7.29,5.31-.46-.14-.79-.52-1.42-1.23a3.53,3.53,0,0,1-1.14-2c0-1.1,1.48-1.9,2.28-2.37C1766.88,267.6,1768.25,263,1770.15,263.72Z"/><path class="cls-70" d="M1735.09,267.13a1.81,1.81,0,0,0-1.46,0,3.22,3.22,0,0,0-1.5.91,2.75,2.75,0,0,0-.69,1.35c0,.25-.21,1.17.25,1.54.64.51,2-.38,2.38-.62s1.86-1.21,1.68-2.27A1.32,1.32,0,0,0,1735.09,267.13Z"/><path class="cls-71" d="M1765.76,274.33a21.69,21.69,0,0,1-4.15-5.89,9.86,9.86,0,0,1-1-5.07c.12-1.28.54-2.42,0-2.84s-1.07,0-1.79.22a31.93,31.93,0,0,1-4.85.45c-3.27.21-4.87.41-8.06.82-.28,0-.93.13-1,.38s1.1.8,1.87,1.12c1.69.7,3.26,1.67,4.92,2.46a21.29,21.29,0,0,1,7.24,5.22c1.2,1.4,3.47,4.54,4.77,4.4.07,0,.29,0,.56-.1.62-.16,1.71-.54,1.69-.93C1765.93,274.45,1765.8,274.36,1765.76,274.33Z"/><path class="cls-72" d="M1747,262.68a7,7,0,0,0-3.1-.06,10.14,10.14,0,0,0-2.77,1.31c-1.61.92-1.54,1.13-3.47,2.26-.48.28-1,.58-1,.67a12.06,12.06,0,0,0,2-.44s.9-.19,1.63-.27c1-.11,1.93.22,4.73,1.79,1.43.81,2.34,1.32,3.74,2.23a28.23,28.23,0,0,1,3.75,2.66,14.15,14.15,0,0,1,3.31,3.59s1,1.8,2.07,2.17a1.14,1.14,0,0,0,.54.05,1,1,0,0,0,.54-.27,15.35,15.35,0,0,1,1.47-.87c1.53-1,1.81-1.17,2.12-1.19a1.43,1.43,0,0,0,.56-.17.63.63,0,0,0,.23-.2c.15-.27-.12-.7-.22-.85a14.06,14.06,0,0,0-2.13-2.64c-1.57-1.41-1-1.49-2.64-3a19.64,19.64,0,0,0-3.58-2.58c-1.93-1.15-2-.85-3.87-2C1748.7,263.59,1748.46,263,1747,262.68Z"/><path class="cls-73" d="M1730.75,271.68a21.31,21.31,0,0,0-2,2.58c-2.26,3.58-3.9,6-4.91,8.54a7.84,7.84,0,0,0-.48,1.72,8,8,0,0,0,0,2.67c.7,4-.19,9.39,1.6,14.12a37.48,37.48,0,0,1,1.63,3.83,6.4,6.4,0,0,0,.89,1.84,1.77,1.77,0,0,0,.79.73,1.84,1.84,0,0,0,1.57-.31,10,10,0,0,0,2.89-3.15c1.88-2.61,3.25-1.6,5.82-4.67a7.33,7.33,0,0,0,1.84-3.73,4.55,4.55,0,0,0-.21-2.31,4.7,4.7,0,0,0-.89-1.41c-.42-.5-.5-.71-2-3.68-2.41-4.78-2.8-5.55-3.56-7.08a16.49,16.49,0,0,1-1.11-2.36,14.6,14.6,0,0,1-.42-5.3c.13-2,.44-3.11.07-3.26C1732.15,270.39,1731.9,270.42,1730.75,271.68Z"/><path class="cls-74" d="M1758.47,278c0,.37-.31.65-.79,1.16a6.43,6.43,0,0,1-1.63,1.26c-.87.47-.85.68-4.09,3.2-3.48,2.71-3.36,2.36-6.2,4.62a45.62,45.62,0,0,0-4.15,3.47c-.69.87-1.62,2.3-2.36,2.1-.21-.06-.36-.23-.63-.53a4.1,4.1,0,0,1-.79-1.26c-.49-1.24-3.06-6.74-4.62-9.5a13.57,13.57,0,0,1-1.31-3,14.57,14.57,0,0,1-.42-1.84c-.39-2.32-.72-4.3.23-6.15a9,9,0,0,1,1.47-1.87,11.59,11.59,0,0,1,2.68-2.36,11.85,11.85,0,0,1,2.3-1.1,7,7,0,0,1,2.46-.54,5.48,5.48,0,0,1,2.54.76c2.43,1.22,4.2,2.36,6.06,3.51,2.27,1.41,2.31,1.37,3,1.91,1.67,1.25,1.46,1.47,3.55,3.24C1757.56,276.57,1758.58,277.15,1758.47,278Z"/><path class="cls-75" d="M1741.86,291.73c.66,1-1.41,8.33-1.41,8.33-1.15,4.07-.21,3.68-1.45,8.24a22.48,22.48,0,0,1-3.22,7.52c-.27.37-1.3,1.42-3.36,3.53a23.08,23.08,0,0,1-6.42,4.56c-.18.07-.69.27-.82.11s0-.29,0-.34a20.17,20.17,0,0,0,.45-3c.3-1.31.18-1.7.8-5.9.88-5.94,1.09-4.89,1.09-5.94a4,4,0,0,1,.68-2.4,2.73,2.73,0,0,1,.38-.45c1-1,1.62-1.9,3.24-3.73,1.29-1.44,2.68-2.83,5.46-5.61a14,14,0,0,0,1.76-1.93,18.43,18.43,0,0,0,2-2.78c0-.11.22-.47.45-.48S1741.81,291.66,1741.86,291.73Z"/><path class="cls-76" d="M1721.9,449.92a4.61,4.61,0,0,0-.06-1.57,2.51,2.51,0,0,0-.61-1.35,1.9,1.9,0,0,0-.87-.53,2.28,2.28,0,0,0-1.49.25,5.57,5.57,0,0,0-1.63,1.1,10.48,10.48,0,0,0-1.83,2.24,15.55,15.55,0,0,0-1.35,2.76,21.81,21.81,0,0,0-1.21,5.22,24.35,24.35,0,0,0,.09,5.45,10.26,10.26,0,0,0,.79,3.2,6.85,6.85,0,0,0,1,1.58,1.91,1.91,0,0,0,1.06.76,1,1,0,0,0,.59-.06,1,1,0,0,0,.42-.42,1.87,1.87,0,0,0,.12-1.27c-.27-1.14.45-6,1.71-9.29C1719.57,455.61,1721.63,451.71,1721.9,449.92Z"/><path class="cls-77" d="M1721.22,447.91c.79,2.24,9,9.72,11.09,10.68a1.56,1.56,0,0,1,.93.87,1.19,1.19,0,0,1-.06.7c-.45,1.53-.68,2.3-1.16,2.61a1.77,1.77,0,0,1-.87.29c-1,.11-4.48,1.16-13.18,4.3l-1.74,1-1-.58c-1.23-.7-1.68-3.54-1.68-3.54a24.63,24.63,0,0,1,.17-8.71,20.38,20.38,0,0,1,2.38-5.69c.19-.31,1.52-2.43,3.2-2.9a1.76,1.76,0,0,1,1.33,0A1.56,1.56,0,0,1,1721.22,447.91Z"/><path class="cls-78" d="M1789.66,464.74c-5.74-3.08-8.39-1.37-23.44-2.65-7.39-.64-5.52-.94-22.11-2.87-5-.58-14.52-1.63-14.52-1.63h0l-.39.56c-.62.9-.5,5.44-.5,5.44h0l8.33.88c10.09,1.08,29.9,4.16,42.93,6.37,12.24,2.08,18.36,3.12,19,3.37.25.1.94.39,1.11.21C1800.59,473.8,1795.46,467.85,1789.66,464.74Z"/><path class="cls-79" d="M1784.94,417.88c-.52-1.45-3.42-.47-10.07-2.22a42.52,42.52,0,0,1-8.65-3.22l-15.44-7.82c-.51.49-1.21,1.17-2,2-1.38,1.46,10.38,7.92,10.5,8.27s1,.55,1.3.59c1.33.15,1.37.58,6.77,3.17,7.13,3.41,10.75,5.11,12.83,4.52C1783.11,422.36,1785.48,419.37,1784.94,417.88Z"/><path class="cls-80" d="M1847.69,443.58l-50.39-42.49c-21.58,17.11-33.82,34.39-33.82,34.39L1802.76,490S1829.64,458.75,1847.69,443.58Z"/><path class="cls-81" d="M1763.45,435.58c-.12.13-.42.46-.76.4s-.47-.36-.67-.68a3.37,3.37,0,0,1-.45-1.11c-.14-1,1.06-2,1.53-2.39,1.39-1.17,2.28-2.84,3.6-4.09,4.08-3.85,5.82-6.89,14.74-15.58.82-.8,3.66-3.54,7.52-7,2.33-2.1,5.07-3.8,7.11-6.18a.92.92,0,0,1,.6-.35,1.09,1.09,0,0,1,.65.29,2,2,0,0,1,.89,1.18c.12.69-.57,1.3-.88,1.57-4.7,4.07-7,6.1-7.32,6.32-.64.53-1.47,1.32-3.12,2.88-.5.47-2.4,2.28-5.34,5.3-.47.48-.67.69-3.94,4.11l-5.13,5.38c-4.86,4.93-4.75,4.24-5.37,5.4A28.81,28.81,0,0,1,1763.45,435.58Z"/><path class="cls-82" d="M1791.47,474.31s5.51-13.17,41.47-43.26"/><path class="cls-83" d="M1793.7,476.67s5.58-13.24,41.78-43.55"/><path class="cls-84" d="M1769,443s4-11.72,34.5-36.61"/><path class="cls-85" d="M1771,446s4.23-12.38,35-37.46"/><ellipse class="cls-86" cx="1825.5" cy="467.06" rx="32.29" ry="9.12" transform="translate(204.42 1427.62) rotate(-45)"/><path class="cls-87" d="M1761.59,392.12c-.25-.07-.8-.21-3.48.57-.54.15-1.68.5-3.33,1.13a13.21,13.21,0,0,0-3.19,1.49,9,9,0,0,0-1.84,1.91,19.69,19.69,0,0,0-2.13,4.12c-1.18,2.69-1.35,3.48-1.06,4.32a3.31,3.31,0,0,0,.56,1c.42.54.91.93,3.9,2.13a6.85,6.85,0,0,0,2.56.64c1,0,1.27-.27,1.34-.36.36-.47.14-1.49.14-1.49h0a8.16,8.16,0,0,0-1.77-3.4c-.61-.65-.83-.56-1.06-1.06a4.35,4.35,0,0,1-.07-2.55h0a24.82,24.82,0,0,0,6.73-1.28,8.29,8.29,0,0,0,3.19-1.77c.6-.59,1.89-1.86,1.56-3.33A3,3,0,0,0,1761.59,392.12Z"/><path class="cls-88" d="M1666.46,490.52a22.5,22.5,0,0,1,.13,4.09c-.07.55-1,1-1.61,1.45-.35-.72-1.12-1.57-1-2.13a17.45,17.45,0,0,1,1.87-3.44Z"/><path class="cls-89" d="M1693.41,457.67a20.67,20.67,0,0,1-2.47,2.48,3,3,0,0,1-2.07.33c-.3,0-.8-1-.66-1.27a3.24,3.24,0,0,1,1.56-1.42,21.55,21.55,0,0,1,3.43-.58Z"/><path class="cls-90" d="M1679.74,508.81a17.57,17.57,0,0,1,.19,3.88c-.09.57-1.17,1-1.8,1.45-.3-.67-1-1.47-.84-2a20.88,20.88,0,0,1,1.88-3.47Z"/><path class="cls-91" d="M1671,522.27a17.11,17.11,0,0,1,.2,3.89c-.09.57-1.17,1-1.8,1.45-.31-.67-1-1.47-.84-2a20.83,20.83,0,0,1,1.87-3.47Z"/><path class="cls-92" d="M1705.25,463.17a27.48,27.48,0,0,1-3.06,2.89,3.08,3.08,0,0,1-2.11.23c-.27-.05-.67-1-.52-1.35a2.57,2.57,0,0,1,1.45-1.25A33,33,0,0,1,1705.25,463.17Z"/><path class="cls-93" d="M1712.08,465.3a16.78,16.78,0,0,1-1.73,3.47c-.36.46-1.48.31-2.26.44.09-.78-.11-1.89.33-2.29a16.87,16.87,0,0,1,3.29-2Z"/><path class="cls-94" d="M1693.62,466.11a25.14,25.14,0,0,1-2.3,2.83,2.47,2.47,0,0,1-1.85.43,1.49,1.49,0,0,1-.76-1.24,2.51,2.51,0,0,1,1.2-1.48,23.65,23.65,0,0,1,3.37-.95Z"/><path class="cls-95" d="M1692.17,476.18a17.31,17.31,0,0,1-1.23,3.66c-.31.51-1.44.53-2.2.78-.06-.75-.45-1.79-.1-2.2a20.46,20.46,0,0,1,3.12-2.56Z"/><path class="cls-96" d="M1696.48,481.54a28.86,28.86,0,0,1,.51,3.91,2.57,2.57,0,0,1-1,1.61,1.33,1.33,0,0,1-1.29-.27,2.66,2.66,0,0,1-.36-1.89,27.47,27.47,0,0,1,1.76-3.46Z"/><path class="cls-97" d="M1669.88,478.31a30.53,30.53,0,0,1-1,3.58,2,2,0,0,1-1.36,1,1.53,1.53,0,0,1-1.28-.77,2.06,2.06,0,0,1,.33-1.69,30.36,30.36,0,0,1,2.81-2.48Z"/><path class="cls-98" d="M1690.77,492.73a31.31,31.31,0,0,1,.38,3.71,2.07,2.07,0,0,1-.83,1.52,1.49,1.49,0,0,1-1.46-.25,2.44,2.44,0,0,1-.34-1.89,25,25,0,0,1,1.76-3.3Z"/><path class="cls-99" d="M1680.12,467.9a16.56,16.56,0,0,1-1.71,3.45c-.38.49-1.5.38-2.29.55.07-.79-.16-1.91.28-2.31a17.38,17.38,0,0,1,3.33-2Z"/><path class="cls-100" d="M1677.06,494.1a22.75,22.75,0,0,1,.07,4.12c-.07.49-1.1.85-1.7,1.26-.34-.65-1.12-1.46-1-1.94a22.08,22.08,0,0,1,2-3.57Z"/><path class="cls-101" d="M1690.93,507.67a18.38,18.38,0,0,1,.12,3.91c-.1.56-1.16.95-1.79,1.42-.28-.69-1-1.5-.78-2a19.61,19.61,0,0,1,1.87-3.41Z"/><path class="cls-102" d="M1684.25,522.27a18.36,18.36,0,0,1,.11,3.91c-.1.56-1.16,1-1.78,1.42-.29-.68-1-1.5-.79-2a19.23,19.23,0,0,1,1.88-3.4Z"/><path class="cls-103" d="M1666.83,506.47a25.21,25.21,0,0,1,.29,3.67,2.64,2.64,0,0,1-1,1.62,1.31,1.31,0,0,1-1.29-.24,2.59,2.59,0,0,1-.33-1.87,25.46,25.46,0,0,1,1.8-3.27Z"/><path class="cls-104" d="M1675.54,533.2a25.41,25.41,0,0,1,.28,3.67,2.69,2.69,0,0,1-1,1.63,1.35,1.35,0,0,1-1.3-.24,2.63,2.63,0,0,1-.33-1.88,27.5,27.5,0,0,1,1.8-3.27Z"/><path class="cls-105" d="M1659.7,513.54a25.21,25.21,0,0,1,.29,3.67,2.67,2.67,0,0,1-1,1.62,1.34,1.34,0,0,1-1.29-.24,2.59,2.59,0,0,1-.33-1.87,26.74,26.74,0,0,1,1.8-3.27Z"/><path class="cls-106" d="M1680.27,480.62a20,20,0,0,1-.48,3.3,3.22,3.22,0,0,1-1.33,1.63c-.25.16-1.32-.33-1.34-.58a3.76,3.76,0,0,1,.43-2.24,16.58,16.58,0,0,1,2.29-2.38Z"/><path class="cls-107" d="M1658.79,501.5a17.22,17.22,0,0,1,.18,3.84c-.1.57-1.17,1-1.8,1.44-.3-.68-1-1.5-.8-2a19.45,19.45,0,0,1,1.9-3.37Z"/><path class="cls-108" d="M1710.43,455.08a28,28,0,0,1-3.62,2,2.42,2.42,0,0,1-1.87-.39,1.49,1.49,0,0,1-.15-1.47,2,2,0,0,1,1.5-.83A33,33,0,0,1,1710.43,455.08Z"/><path class="cls-109" d="M1703.81,472.47a31.53,31.53,0,0,1-.7,3.66,2.11,2.11,0,0,1-1.26,1.19,1.51,1.51,0,0,1-1.33-.68,2.41,2.41,0,0,1,.25-1.87,24,24,0,0,1,2.52-2.52Z"/></g><g id="_LAYER-19_PLANT_ANIMATE_" data-name="&lt;LAYER-19_PLANT(ANIMATE)&gt;"><path class="cls-110" d="M718.79,517.85c3.87-7.48,9-12.11,18.36-12.64A62.48,62.48,0,0,1,754,506.87V508l-3.09,1.22a15.39,15.39,0,0,0-6,.85c-9.45,2.58-17.62,7.75-26,12.57C718.91,521,718.85,519.45,718.79,517.85Z"/><path class="cls-110" d="M714.48,518.92c-16.76,1.87-26.82-3.77-34.76-19.49,2-.69,3.6.47,5.31,1.18,10.36,4.32,19.53,10.77,29.15,16.39Z"/><path class="cls-111" d="M714.18,517c-9.62-5.62-18.79-12.07-29.15-16.39-1.71-.71-3.3-1.87-5.31-1.18l0-.09c.3-.7.59-1.4.88-2.1,8.46-.93,16.85-1.39,24.24,4.08,5,3.68,8.61,8.26,9.69,14.54Z"/><path class="cls-111" d="M719,522.64c8.35-4.82,16.52-10,26-12.57a15.39,15.39,0,0,1,6-.85c-3.58,3.49-7,7.16-10.77,10.44-6.14,5.37-12.76,9.11-21.07,4.23-.54-.32-1.46,0-2.2,0l-1.06-.14c-.11-2.65-.21-5.3-.32-8,.81-4.77-1.5-9.8,1.22-14.41,0,5.81,0,11.63.12,17.44C716.86,520.45,716.4,522.41,719,522.64Z"/><path class="cls-111" d="M741.9,484.37a34.81,34.81,0,0,0-3,4.72c-4.54,10.27-8.33,12.13-19.73,9.42a1.63,1.63,0,0,0-.12-.82C725.48,491.23,732.75,486.2,741.9,484.37Z"/><path class="cls-110" d="M741.9,484.37c-9.15,1.83-16.42,6.86-22.86,13.32l-1.27-1.08c2.76-12,13.58-17.71,24.57-13a.49.49,0,0,1,0,.39A1.82,1.82,0,0,1,741.9,484.37Z"/><path class="cls-110" d="M714.44,532.69c-8,2.56-8,2.56-15.13-7.26,7.28-2.78,9.84-2.09,14.17,3.81Z"/><path class="cls-110" d="M696,481c-1.14-.33-2.54-1.42-1.1-2.07,4.38-1.95,9.14-2.52,13.54-.07C712.25,481,716,483.5,714.9,489,708.79,485.86,703.47,480.86,696,481Z"/><path class="cls-110" d="M715.83,523.77l1.06.14c-1,3.47,1.67,6.63.84,10.09-2.34,9-1.4,18.61.28,19.79-2.63,1.81-3.56.76-3.54-2,.09-8.4.15-4.8.22-13.2C716.76,533.75,715.08,528.67,715.83,523.77Z"/><path class="cls-110" d="M716.88,473.32c-3.71-.49-6.69-3.52-8.29-8.5a11.22,11.22,0,0,1,1.27-9.84l1.25.94C712.19,462,714.9,467.54,716.88,473.32Z"/><path class="cls-111" d="M696,481c7.5-.14,12.82,4.86,18.93,8-4.32,4.4-8.24,1.52-11.79-1C700.44,486.06,698.33,483.35,696,481Z"/><path class="cls-111" d="M716.88,473.32c-2-5.78-4.69-11.32-5.77-17.4C718.81,460.86,720.54,466.1,716.88,473.32Z"/><path class="cls-112" d="M717.77,496.61l1.27,1.08a1.63,1.63,0,0,1,.12.82c-2.84,6.39-1.61,12.87-.37,19.34.06,1.6.12,3.19.17,4.79-2.56-.23-2.1-2.19-2.11-3.8-.07-5.81-.09-11.63-.12-17.44C717.07,499.8,717.42,498.21,717.77,496.61Z"/><path class="cls-111" d="M718,553.79c-.22-.14-.63.62-1.29.4s-1.38-11.29,1-20.19C717.82,544.6,717.92,543.2,718,553.79Z"/><path class="cls-112" d="M715.83,523.77c-.75,4.9.93,10-1.14,14.77-.08-1.95-.17-3.9-.25-5.85l-1-3.45c2.3-3.25,1.32-6.82,1-10.32l-.3-1.92.33-1.14a.74.74,0,0,0,1-.05C715.62,518.47,715.72,521.12,715.83,523.77Z"/><path class="cls-110" d="M680.58,497.24c-.29.7-.58,1.4-.88,2.1-.33-.61-1-1.31-.9-1.81C679,496.66,679.91,497,680.58,497.24Z"/><path class="cls-113" d="M708,552.29s6,4.25,18.09,0"/></g><g id="_LAYER-19_PLANTS_" data-name="&lt;LAYER-19_PLANTS&gt;"><path class="cls-113" d="M1663.44,547.29s6.45,4.25,19.34,0"/><path class="cls-110" d="M1670.6,539.2a10,10,0,0,0,1.1-.15c0-1.54.07-3.07.1-4.6-5.84-11.61-17.39-16-29.21-11.18-2.5,1-3.4,1.86-.22,3.14C1653.48,526.93,1662.4,532.26,1670.6,539.2Z"/><path class="cls-110" d="M1674,536c13.68-.57,21-6,25.15-18.09,1.44-4.15-1-2.29-2.58-2.18a4.43,4.43,0,0,1-2.39,3.56c-7.34,4.34-13.73,9.91-20.25,15.33Z"/><path class="cls-111" d="M1670.6,539.2c-8.2-6.94-17.12-12.27-28.23-12.79,3.51,3.37,6.91,6.87,10.56,10.07C1659.32,542.07,1664.86,542.82,1670.6,539.2Z"/><path class="cls-111" d="M1673.91,534.6c6.52-5.42,12.91-11,20.25-15.33a4.43,4.43,0,0,0,2.39-3.56c-14.93,1-20.87,5.75-23.75,18.88A2.77,2.77,0,0,1,1673.91,534.6Z"/><path class="cls-112" d="M1673.91,534.6a2.77,2.77,0,0,0-1.11,0l-1-.14c0,1.53-.06,3.06-.1,4.6v9.61c3.79,2.58,1.57-7.8,2.28-12.68C1674,535.52,1673.93,535.06,1673.91,534.6Z"/><path class="cls-113" d="M251.23,535.77s3.41,2.09,10.22,0"/><path class="cls-110" d="M257.71,529.53a10,10,0,0,1-1.1-.15c0-1.53-.07-3.07-.11-4.6,5.85-11.61,17.4-16,29.21-11.17,2.51,1,3.4,1.85.23,3.14C274.83,517.26,265.91,522.6,257.71,529.53Z"/><path class="cls-110" d="M254.33,526.31c-13.68-.57-21-6-25.16-18.09-1.44-4.14,1-2.29,2.59-2.17a4.42,4.42,0,0,0,2.38,3.55c7.34,4.34,13.74,9.91,20.25,15.34Z"/><path class="cls-111" d="M257.71,529.53c8.2-6.93,17.12-12.27,28.23-12.78-3.51,3.36-6.91,6.87-10.57,10.07C269,532.4,263.44,533.16,257.71,529.53Z"/><path class="cls-111" d="M254.39,524.94c-6.51-5.43-12.91-11-20.25-15.34a4.42,4.42,0,0,1-2.38-3.55c14.92,1,20.86,5.74,23.75,18.87A2.82,2.82,0,0,0,254.39,524.94Z"/><path class="cls-112" d="M254.39,524.94a2.82,2.82,0,0,1,1.12,0l1-.14c0,1.53.07,3.07.11,4.6V537c-4.49,1.63-1.57-5.8-2.28-10.68Z"/><path class="cls-113" d="M855.25,614.74s3.41,2.08,10.23,0"/><path class="cls-110" d="M861.44,609.37a6.94,6.94,0,0,1-.9-.12l-.09-3.76c4.78-9.49,14.22-13.08,23.88-9.14,2,.84,2.78,1.52.19,2.57C875.44,599.34,868.14,603.7,861.44,609.37Z"/><path class="cls-110" d="M858.68,606.74c-11.18-.47-17.13-4.89-20.56-14.78-1.18-3.4.84-1.88,2.11-1.78a3.62,3.62,0,0,0,1.95,2.9c6,3.55,11.23,8.1,16.55,12.54Z"/><path class="cls-111" d="M861.44,609.37c6.7-5.67,14-10,23.08-10.45-2.88,2.75-5.65,5.62-8.64,8.23C870.66,611.72,866.13,612.34,861.44,609.37Z"/><path class="cls-111" d="M858.73,605.62c-5.32-4.44-10.55-9-16.55-12.54a3.62,3.62,0,0,1-1.95-2.9c12.2.83,17,4.69,19.41,15.42A2.32,2.32,0,0,0,858.73,605.62Z"/><path class="cls-112" d="M858.73,605.62a2.32,2.32,0,0,1,.91,0l.81-.11.09,3.76v6.22c-3.67,1.33-1.28-4.74-1.86-8.73C858.7,606.36,858.71,606,858.73,605.62Z"/><path class="cls-113" d="M1110.66,547.29s4.85,4.25,14.56,0"/><path class="cls-110" d="M1117.61,513.21c2.2-.64,3-2.68,4.3-4.25,8-10,21.54-11.24,32.28-7.07,1.12.43,2.91.75.78,2.32-13.28,1.91-24.73,7.87-35.23,15.92-3.15,4-.77,8.6-1.14,12.9s.25,8.6.38,12.91c0,1.43.45,3.26-1.91,3.24s-1.75-2.1-1.72-3.33c.25-9.19.62-18.38,1-27.57.1-2.44.05-3.94-3.33-4.27-16.5-1.61-28.16-9.47-32.28-26.38a3.92,3.92,0,0,1,3.18.51c6.81,4.15,13,9.18,19.57,13.66C1108.55,505.25,1111.63,511,1117.61,513.21Z"/><path class="cls-111" d="M1117.61,513.21c-6-2.19-9.06-8-14.11-11.41-6.56-4.48-12.76-9.51-19.57-13.66a3.92,3.92,0,0,0-3.18-.51v-.1l.63-1.38c12.75-1.08,23.73,2.08,31.5,13.05.22.31.87.32,1.32.47l-.09-.06c-.53,1.26-.37,2.17,1.2,2.37l-.07-.12c-1,1.19.32,2.38,0,3.56.22,1.63-.73,3.73,1.81,4.4Z"/><path class="cls-111" d="M1119.74,520.13c10.5-8,22-14,35.23-15.92-4.52,3.33-8.26,7.48-12.21,11.41-4.63,4.59-10,7.72-16.79,7.59C1123.56,523.16,1121.18,522.44,1119.74,520.13Z"/><path class="cls-111" d="M1129,474.76a32.54,32.54,0,0,0,2.12,9.26c3.13,8.58-3.13,18-12.41,18.87C1119.13,492.43,1122.23,482.93,1129,474.76Z"/><path class="cls-110" d="M1129,474.76c-6.74,8.17-9.84,17.67-10.29,28.13-3.47,1.63-.41,4.77-1.61,6.93-2.54-.67-1.59-2.77-1.81-4.4,2.87-1.19,1.69-2.38,0-3.56l.07.12c.09-1,.08-2-1.2-2.37l.09.06c-1.76-10.29.17-19.1,10.17-24.43C1125.64,474.56,1127.17,472,1129,474.76Z"/><path class="cls-110" d="M1081.39,486.15l-.63,1.38C1080,486.62,1080.3,486.21,1081.39,486.15Z"/><path class="cls-113" d="M460.67,621.54s-4.85,4.24-14.55,0"/><path class="cls-110" d="M453.72,587.45c-2.2-.64-3-2.68-4.29-4.25-8-10-21.54-11.24-32.28-7.07-1.13.43-2.91.75-.78,2.32,13.28,1.91,24.72,7.87,35.22,15.92,3.16,4,.78,8.6,1.15,12.9s-.25,8.6-.38,12.91c0,1.43-.45,3.26,1.9,3.24,2.5,0,1.76-2.1,1.72-3.33-.24-9.19-.61-18.38-1-27.56-.1-2.45-.06-3.95,3.33-4.28,16.49-1.61,28.16-9.47,32.28-26.38a3.91,3.91,0,0,0-3.18.51c-6.81,4.15-13,9.18-19.58,13.66C462.78,579.49,459.71,585.27,453.72,587.45Z"/><path class="cls-111" d="M453.72,587.45c6-2.18,9.06-8,14.11-11.41,6.57-4.48,12.77-9.51,19.58-13.66a3.91,3.91,0,0,1,3.18-.51v-.1c-.22-.46-.43-.92-.64-1.38-12.74-1.08-23.73,2.08-31.49,13.05-.22.31-.87.32-1.33.47l.1-.06c.53,1.26.37,2.17-1.2,2.37l.07-.11c1,1.19-.32,2.37,0,3.56-.21,1.62.74,3.72-1.8,4.39C454.09,585.19,453.91,586.32,453.72,587.45Z"/><path class="cls-111" d="M451.59,594.37c-10.5-8-21.94-14-35.22-15.92,4.51,3.33,8.25,7.48,12.21,11.41,4.63,4.59,10.05,7.73,16.79,7.59C447.77,597.4,450.16,596.68,451.59,594.37Z"/><path class="cls-111" d="M442.36,549a32.19,32.19,0,0,1-2.11,9.26c-3.13,8.59,3.13,18,12.41,18.87C452.2,566.67,449.11,557.17,442.36,549Z"/><path class="cls-110" d="M442.36,549c6.75,8.17,9.84,17.67,10.3,28.13,3.46,1.63.41,4.78,1.61,6.93,2.54-.67,1.59-2.77,1.8-4.39-2.86-1.2-1.68-2.38,0-3.56l-.07.11c-.09-1-.08-2,1.2-2.37l-.1.06c1.76-10.29-.16-19.1-10.16-24.43C445.7,548.8,444.17,546.2,442.36,549Z"/><path class="cls-110" d="M489.94,560.39c.21.46.42.92.64,1.38C491.35,560.86,491,560.45,489.94,560.39Z"/><path class="cls-113" d="M47.76,620.24s6,4.25,18.1,0"/><path class="cls-110" d="M54.9,618.13c5.77-3.76,10-9.62,16.57-12.29,2,11-3.43,12.31-13.6,15.56-4.65,1.48-.6,1.26-2,.4Z"/><path class="cls-111" d="M57.2,618.8l-1,3.68a17.78,17.78,0,0,1-2.94-.72c-3.46-1.51-5.29-4.16-4.89-8,.08-.75,1.33-2.08,1.72-2C53.72,612.82,57.56,613.75,57.2,618.8Z"/></g></g></g></svg>