<svg xmlns="http://www.w3.org/2000/svg" xmlns:xlink="http://www.w3.org/1999/xlink" viewBox="0 0 1920 889.11"><defs><style>.cls-1{isolation:isolate;}.cls-2{fill:#c1c1c1;}.cls-3{fill:#989898;}.cls-4{fill:#7c7c7c;}.cls-5{fill:#fff;}.cls-6{fill:#4aa1b7;opacity:0.75;}.cls-100,.cls-101,.cls-102,.cls-103,.cls-104,.cls-105,.cls-106,.cls-107,.cls-108,.cls-109,.cls-110,.cls-111,.cls-112,.cls-113,.cls-114,.cls-115,.cls-12,.cls-6,.cls-94,.cls-95,.cls-96,.cls-97,.cls-98,.cls-99{mix-blend-mode:multiply;}.cls-10,.cls-7{fill:#e1cec3;}.cls-7{opacity:0.1;}.cls-8{fill:#d8c2b6;}.cls-119,.cls-88,.cls-89,.cls-9,.cls-90,.cls-91{fill:none;stroke-miterlimit:10;}.cls-119,.cls-9{stroke:#8e8075;}.cls-9{stroke-width:0.25px;}.cls-11{fill:url(#linear-gradient);}.cls-100,.cls-101,.cls-102,.cls-103,.cls-104,.cls-105,.cls-106,.cls-107,.cls-108,.cls-109,.cls-110,.cls-111,.cls-112,.cls-113,.cls-114,.cls-115,.cls-12,.cls-94,.cls-95,.cls-96,.cls-97,.cls-98,.cls-99{opacity:0.81;}.cls-12{fill:url(#linear-gradient-2);}.cls-13{fill:url(#linear-gradient-3);}.cls-14{fill:url(#linear-gradient-4);}.cls-15{fill:url(#linear-gradient-5);}.cls-16{fill:url(#linear-gradient-6);}.cls-17{fill:url(#linear-gradient-7);}.cls-18{fill:url(#linear-gradient-8);}.cls-19{fill:url(#linear-gradient-9);}.cls-20{fill:url(#linear-gradient-10);}.cls-21{fill:url(#linear-gradient-11);}.cls-22{fill:url(#linear-gradient-12);}.cls-23{fill:url(#linear-gradient-13);}.cls-24{fill:url(#linear-gradient-14);}.cls-25{fill:url(#linear-gradient-15);}.cls-26{fill:url(#linear-gradient-16);}.cls-27{fill:url(#linear-gradient-17);}.cls-28{fill:url(#linear-gradient-18);}.cls-29{fill:url(#linear-gradient-19);}.cls-30{fill:url(#linear-gradient-20);}.cls-31{fill:url(#linear-gradient-21);}.cls-32{fill:url(#linear-gradient-22);}.cls-33{fill:url(#linear-gradient-23);}.cls-34{fill:url(#linear-gradient-24);}.cls-35{fill:url(#linear-gradient-25);}.cls-36{fill:url(#linear-gradient-26);}.cls-37{fill:url(#linear-gradient-27);}.cls-38{fill:url(#linear-gradient-28);}.cls-39{fill:url(#linear-gradient-29);}.cls-40{fill:url(#linear-gradient-30);}.cls-41{fill:url(#linear-gradient-31);}.cls-42{fill:url(#linear-gradient-32);}.cls-43{fill:url(#linear-gradient-33);}.cls-44{fill:url(#linear-gradient-34);}.cls-45{fill:url(#linear-gradient-35);}.cls-46{fill:url(#linear-gradient-36);}.cls-47{fill:url(#linear-gradient-37);}.cls-48{fill:url(#linear-gradient-38);}.cls-49{fill:url(#linear-gradient-39);}.cls-50{fill:url(#linear-gradient-40);}.cls-51{fill:url(#linear-gradient-41);}.cls-52{fill:url(#linear-gradient-42);}.cls-53{fill:url(#linear-gradient-43);}.cls-54{fill:url(#linear-gradient-44);}.cls-55{fill:url(#linear-gradient-45);}.cls-56{fill:url(#linear-gradient-46);}.cls-57{fill:url(#linear-gradient-47);}.cls-58{fill:url(#linear-gradient-48);}.cls-59{fill:url(#linear-gradient-49);}.cls-60{fill:url(#linear-gradient-50);}.cls-61{fill:url(#linear-gradient-51);}.cls-62{fill:url(#linear-gradient-52);}.cls-63{fill:url(#linear-gradient-53);}.cls-64{fill:url(#linear-gradient-54);}.cls-65{fill:url(#linear-gradient-55);}.cls-66{fill:url(#linear-gradient-56);}.cls-67{fill:url(#linear-gradient-57);}.cls-68{fill:url(#linear-gradient-58);}.cls-69{fill:url(#linear-gradient-59);}.cls-70{fill:url(#linear-gradient-60);}.cls-71{fill:url(#linear-gradient-61);}.cls-72{fill:url(#linear-gradient-62);}.cls-73{fill:url(#linear-gradient-63);}.cls-74{fill:url(#linear-gradient-64);}.cls-75{fill:url(#linear-gradient-65);}.cls-76{fill:url(#linear-gradient-66);}.cls-77{fill:url(#linear-gradient-67);}.cls-78{fill:url(#linear-gradient-68);}.cls-79{fill:url(#linear-gradient-69);}.cls-80{fill:url(#linear-gradient-70);}.cls-81{fill:url(#linear-gradient-71);}.cls-82{fill:url(#linear-gradient-72);}.cls-83{fill:url(#linear-gradient-73);}.cls-84{fill:url(#linear-gradient-74);}.cls-85{fill:url(#linear-gradient-75);}.cls-86{fill:url(#linear-gradient-76);}.cls-87{fill:url(#linear-gradient-77);}.cls-88,.cls-89,.cls-90,.cls-91{stroke-linecap:round;}.cls-88{stroke:url(#linear-gradient-78);}.cls-89{stroke:url(#linear-gradient-79);}.cls-90{stroke:url(#linear-gradient-80);}.cls-91{stroke:url(#linear-gradient-81);}.cls-92{fill:url(#linear-gradient-82);}.cls-93{fill:url(#linear-gradient-83);}.cls-94{fill:url(#linear-gradient-84);}.cls-95{fill:url(#linear-gradient-85);}.cls-96{fill:url(#linear-gradient-86);}.cls-97{fill:url(#linear-gradient-87);}.cls-98{fill:url(#linear-gradient-88);}.cls-99{fill:url(#linear-gradient-89);}.cls-100{fill:url(#linear-gradient-90);}.cls-101{fill:url(#linear-gradient-91);}.cls-102{fill:url(#linear-gradient-92);}.cls-103{fill:url(#linear-gradient-93);}.cls-104{fill:url(#linear-gradient-94);}.cls-105{fill:url(#linear-gradient-95);}.cls-106{fill:url(#linear-gradient-96);}.cls-107{fill:url(#linear-gradient-97);}.cls-108{fill:url(#linear-gradient-98);}.cls-109{fill:url(#linear-gradient-99);}.cls-110{fill:url(#linear-gradient-100);}.cls-111{fill:url(#linear-gradient-101);}.cls-112{fill:url(#linear-gradient-102);}.cls-113{fill:url(#linear-gradient-103);}.cls-114{fill:url(#linear-gradient-104);}.cls-115{fill:url(#linear-gradient-105);}.cls-116{fill:#78c134;}.cls-117{fill:#64b133;}.cls-118{fill:#95c97e;}</style><linearGradient id="linear-gradient" x1="1360.06" y1="367.21" x2="1413.98" y2="367.21" gradientUnits="userSpaceOnUse"><stop offset="0.22" stop-color="#7f7f7f"/><stop offset="0.33" stop-color="#757575"/><stop offset="0.53" stop-color="#595959"/><stop offset="0.79" stop-color="#2c2c2c"/><stop offset="1" stop-color="#020202"/></linearGradient><linearGradient id="linear-gradient-2" x1="1381.5" y1="211.01" x2="1381.5" y2="611.82" gradientUnits="userSpaceOnUse"><stop offset="0" stop-color="#4aa1b7"/><stop offset="0.29" stop-color="#479eb3"/><stop offset="0.56" stop-color="#3d94a8"/><stop offset="0.82" stop-color="#2d8495"/><stop offset="1" stop-color="#1d7583"/></linearGradient><linearGradient id="linear-gradient-3" x1="804.02" y1="412.79" x2="996.68" y2="412.79" gradientUnits="userSpaceOnUse"><stop offset="0.03" stop-color="#c7914a"/><stop offset="0.13" stop-color="#d9a45e"/><stop offset="0.28" stop-color="#eebb76"/><stop offset="0.41" stop-color="#fbc884"/><stop offset="0.53" stop-color="#ffcd89"/></linearGradient><linearGradient id="linear-gradient-4" x1="821.87" y1="447.67" x2="1034.61" y2="447.67" xlink:href="#linear-gradient-3"/><linearGradient id="linear-gradient-5" x1="726.44" y1="490.79" x2="841.16" y2="399.96" gradientUnits="userSpaceOnUse"><stop offset="0" stop-color="#80634b"/><stop offset="1" stop-color="#1e1310"/></linearGradient><linearGradient id="linear-gradient-6" x1="701.79" y1="482.74" x2="837.57" y2="482.74" gradientUnits="userSpaceOnUse"><stop offset="0" stop-color="#80634b"/><stop offset="0.2" stop-color="#7c6048"/><stop offset="0.4" stop-color="#6f5541"/><stop offset="0.61" stop-color="#5a4434"/><stop offset="0.82" stop-color="#3d2c23"/><stop offset="1" stop-color="#1e1310"/></linearGradient><linearGradient id="linear-gradient-7" x1="805.86" y1="511.76" x2="952.44" y2="511.76" xlink:href="#linear-gradient-5"/><linearGradient id="linear-gradient-8" x1="836.32" y1="539.33" x2="872.31" y2="539.33" xlink:href="#linear-gradient-5"/><linearGradient id="linear-gradient-9" x1="840.34" y1="541.15" x2="874.76" y2="541.15" xlink:href="#linear-gradient-5"/><linearGradient id="linear-gradient-10" x1="840.08" y1="542.97" x2="868.98" y2="542.97" xlink:href="#linear-gradient-5"/><linearGradient id="linear-gradient-11" x1="837.33" y1="545.66" x2="886.59" y2="545.66" gradientUnits="userSpaceOnUse"><stop offset="0" stop-color="#80634b"/><stop offset="0.67" stop-color="#402f24"/><stop offset="1" stop-color="#1e1310"/></linearGradient><linearGradient id="linear-gradient-12" x1="816.86" y1="533.4" x2="946.58" y2="533.4" gradientUnits="userSpaceOnUse"><stop offset="0.17" stop-color="#80634b"/><stop offset="0.81" stop-color="#1e1310"/></linearGradient><linearGradient id="linear-gradient-13" x1="870.09" y1="521.83" x2="978.6" y2="504.19" gradientUnits="userSpaceOnUse"><stop offset="0" stop-color="#80634b"/><stop offset="0.15" stop-color="#69503d"/><stop offset="0.42" stop-color="#453327"/><stop offset="0.64" stop-color="#2f211a"/><stop offset="0.78" stop-color="#271a15"/><stop offset="0.83" stop-color="#241713"/><stop offset="1" stop-color="#1e1310"/></linearGradient><linearGradient id="linear-gradient-14" x1="840.36" y1="550.2" x2="976.81" y2="550.2" gradientUnits="userSpaceOnUse"><stop offset="0" stop-color="#80634b"/><stop offset="0.28" stop-color="#69503d"/><stop offset="0.86" stop-color="#2d1f19"/><stop offset="1" stop-color="#1e1310"/></linearGradient><linearGradient id="linear-gradient-15" x1="865.76" y1="559.27" x2="920.97" y2="559.27" gradientUnits="userSpaceOnUse"><stop offset="0" stop-color="#80634b"/><stop offset="0.12" stop-color="#6d5440"/><stop offset="0.37" stop-color="#4b382b"/><stop offset="0.61" stop-color="#32241c"/><stop offset="0.82" stop-color="#231713"/><stop offset="1" stop-color="#1e1310"/></linearGradient><linearGradient id="linear-gradient-16" x1="867.35" y1="560.65" x2="910.69" y2="560.65" gradientUnits="userSpaceOnUse"><stop offset="0" stop-color="#80634b"/><stop offset="0.39" stop-color="#5d4636"/><stop offset="1" stop-color="#1e1310"/></linearGradient><linearGradient id="linear-gradient-17" x1="863.79" y1="562" x2="929.74" y2="562" gradientUnits="userSpaceOnUse"><stop offset="0" stop-color="#80634b"/><stop offset="0.24" stop-color="#6d5440"/><stop offset="0.72" stop-color="#3d2d23"/><stop offset="1" stop-color="#1e1310"/></linearGradient><linearGradient id="linear-gradient-18" x1="863.84" y1="561.97" x2="958.71" y2="561.97" xlink:href="#linear-gradient-5"/><linearGradient id="linear-gradient-19" x1="875.84" y1="551.19" x2="946.78" y2="551.19" xlink:href="#linear-gradient-5"/><linearGradient id="linear-gradient-20" x1="725.53" y1="323.96" x2="885.04" y2="375.76" gradientTransform="matrix(1.03, 0, 0, 1.03, -24.92, -11.41)" xlink:href="#linear-gradient-5"/><linearGradient id="linear-gradient-21" x1="811.25" y1="466.92" x2="947.12" y2="466.92" xlink:href="#linear-gradient-5"/><linearGradient id="linear-gradient-22" x1="1024.33" y1="420.53" x2="790.13" y2="428.1" gradientUnits="userSpaceOnUse"><stop offset="0" stop-color="#736357"/><stop offset="0.09" stop-color="#827469"/><stop offset="0.4" stop-color="#b7afa9"/><stop offset="0.67" stop-color="#dedad8"/><stop offset="0.88" stop-color="#f6f5f4"/><stop offset="1" stop-color="#fff"/></linearGradient><linearGradient id="linear-gradient-23" x1="863.74" y1="423.66" x2="816.18" y2="131.44" gradientUnits="userSpaceOnUse"><stop offset="0" stop-color="#6a767f"/><stop offset="0.03" stop-color="#6e7c86"/><stop offset="0.26" stop-color="#90acbe"/><stop offset="0.43" stop-color="#a5cae0"/><stop offset="0.53" stop-color="#add5ed"/></linearGradient><linearGradient id="linear-gradient-24" x1="831.71" y1="467.89" x2="785.73" y2="225" gradientUnits="userSpaceOnUse"><stop offset="0.13" stop-color="#6a767f"/><stop offset="0.17" stop-color="#6e7c86"/><stop offset="0.43" stop-color="#90acbe"/><stop offset="0.62" stop-color="#a5cae0"/><stop offset="0.72" stop-color="#add5ed"/></linearGradient><linearGradient id="linear-gradient-25" x1="869.79" y1="445.86" x2="675.78" y2="363.69" gradientUnits="userSpaceOnUse"><stop offset="0" stop-color="#6a767f"/><stop offset="0.04" stop-color="#6e7c86"/><stop offset="0.36" stop-color="#90acbe"/><stop offset="0.6" stop-color="#a5cae0"/><stop offset="0.72" stop-color="#add5ed"/></linearGradient><linearGradient id="linear-gradient-26" x1="735.9" y1="468.01" x2="905.89" y2="468.01" gradientUnits="userSpaceOnUse"><stop offset="0" stop-color="#80634b"/><stop offset="0.6" stop-color="#453327"/><stop offset="1" stop-color="#1e1310"/></linearGradient><linearGradient id="linear-gradient-27" x1="859.36" y1="417.02" x2="611.63" y2="322.97" gradientUnits="userSpaceOnUse"><stop offset="0" stop-color="#6a767f"/><stop offset="0.02" stop-color="#6e7c86"/><stop offset="0.16" stop-color="#90acbe"/><stop offset="0.27" stop-color="#a5cae0"/><stop offset="0.33" stop-color="#add5ed"/></linearGradient><linearGradient id="linear-gradient-28" x1="835.96" y1="438.41" x2="1067.33" y2="305.13" gradientUnits="userSpaceOnUse"><stop offset="0.03" stop-color="#c7914a"/><stop offset="0.54" stop-color="#f0c180"/><stop offset="0.64" stop-color="#f5c782"/><stop offset="0.64" stop-color="#faca86"/><stop offset="0.64" stop-color="#ffcd89"/></linearGradient><linearGradient id="linear-gradient-29" x1="903.83" y1="592.89" x2="907.6" y2="338.97" gradientUnits="userSpaceOnUse"><stop offset="0.03" stop-color="#c7914a"/><stop offset="0.46" stop-color="#c9934c"/><stop offset="0.62" stop-color="#cf9953"/><stop offset="0.73" stop-color="#d9a55e"/><stop offset="0.82" stop-color="#e8b46f"/><stop offset="0.9" stop-color="#fbc985"/><stop offset="0.91" stop-color="#ffcd89"/></linearGradient><linearGradient id="linear-gradient-30" x1="879.06" y1="421.32" x2="908.42" y2="239.21" xlink:href="#linear-gradient-25"/><linearGradient id="linear-gradient-31" x1="555.01" y1="484.43" x2="682.58" y2="484.43" gradientUnits="userSpaceOnUse"><stop offset="0" stop-color="#1a1a1a"/><stop offset="0.03" stop-color="#1b1b1b"/><stop offset="0.54" stop-color="#2d2d2d"/><stop offset="0.91" stop-color="#333"/></linearGradient><linearGradient id="linear-gradient-32" x1="540.78" y1="512.17" x2="575.4" y2="512.17" gradientUnits="userSpaceOnUse"><stop offset="0.14" stop-color="#80634b"/><stop offset="0.46" stop-color="#907256"/></linearGradient><linearGradient id="linear-gradient-33" x1="497.62" y1="436.64" x2="599.19" y2="436.64" xlink:href="#linear-gradient-31"/><linearGradient id="linear-gradient-34" x1="644.95" y1="427.94" x2="627.55" y2="380.96" gradientUnits="userSpaceOnUse"><stop offset="0.18" stop-color="#80634b"/><stop offset="0.3" stop-color="#85684e"/><stop offset="0.68" stop-color="#907256"/></linearGradient><linearGradient id="linear-gradient-35" x1="561.09" y1="378.63" x2="636.06" y2="378.63" xlink:href="#linear-gradient-32"/><linearGradient id="linear-gradient-36" x1="634.29" y1="378.48" x2="650.01" y2="425.23" gradientUnits="userSpaceOnUse"><stop offset="0" stop-color="#80634b"/><stop offset="0.7" stop-color="#907256"/></linearGradient><linearGradient id="linear-gradient-37" x1="471.28" y1="427.14" x2="548.3" y2="427.14" gradientUnits="userSpaceOnUse"><stop offset="0.16" stop-color="#1a1a1a"/><stop offset="0.18" stop-color="#1b1b1b"/><stop offset="0.6" stop-color="#2d2d2d"/><stop offset="0.91" stop-color="#333"/></linearGradient><linearGradient id="linear-gradient-38" x1="463.57" y1="431.85" x2="560.51" y2="431.85" xlink:href="#linear-gradient-31"/><linearGradient id="linear-gradient-39" x1="536.6" y1="354.78" x2="652.44" y2="354.78" gradientUnits="userSpaceOnUse"><stop offset="0" stop-color="#b5504a"/><stop offset="0.07" stop-color="#b24e49"/><stop offset="0.84" stop-color="#973e3b"/><stop offset="1" stop-color="#933c39"/></linearGradient><linearGradient id="linear-gradient-40" x1="470.69" y1="355.31" x2="560.64" y2="355.31" xlink:href="#linear-gradient-39"/><linearGradient id="linear-gradient-41" x1="519.46" y1="253.72" x2="592.21" y2="363.1" gradientUnits="userSpaceOnUse"><stop offset="0" stop-color="#b5504a"/><stop offset="0.35" stop-color="#b24e49"/><stop offset="0.6" stop-color="#a94944"/><stop offset="0.82" stop-color="#9a403c"/><stop offset="0.84" stop-color="#973e3b"/><stop offset="1" stop-color="#933c39"/></linearGradient><linearGradient id="linear-gradient-42" x1="645.46" y1="295.32" x2="541.77" y2="299.95" gradientUnits="userSpaceOnUse"><stop offset="0" stop-color="#80634b"/><stop offset="0.2" stop-color="#8c6e53"/><stop offset="0.4" stop-color="#907256"/></linearGradient><linearGradient id="linear-gradient-43" x1="653.43" y1="309.83" x2="720.04" y2="309.83" gradientUnits="userSpaceOnUse"><stop offset="0" stop-color="#736357"/><stop offset="0.17" stop-color="#877666"/><stop offset="0.47" stop-color="#a4917c"/><stop offset="0.72" stop-color="#b6a189"/><stop offset="0.91" stop-color="#bca78e"/></linearGradient><linearGradient id="linear-gradient-44" x1="522.57" y1="333.83" x2="570.17" y2="333.83" xlink:href="#linear-gradient-32"/><linearGradient id="linear-gradient-45" x1="586.27" y1="581.52" x2="569.1" y2="517.41" xlink:href="#linear-gradient-32"/><linearGradient id="linear-gradient-46" x1="569.48" y1="565.35" x2="567.63" y2="505.14" xlink:href="#linear-gradient-32"/><linearGradient id="linear-gradient-47" x1="507.25" y1="525.1" x2="540.89" y2="525.1" xlink:href="#linear-gradient-32"/><linearGradient id="linear-gradient-48" x1="671.56" y1="322.42" x2="564.96" y2="205.59" gradientUnits="userSpaceOnUse"><stop offset="0.16" stop-color="#80634b"/><stop offset="0.43" stop-color="#907256"/></linearGradient><linearGradient id="linear-gradient-49" x1="640.71" y1="326.12" x2="610.45" y2="268.47" gradientUnits="userSpaceOnUse"><stop offset="0.03" stop-color="#80634b"/><stop offset="0.97" stop-color="#907256"/></linearGradient><linearGradient id="linear-gradient-50" x1="655.52" y1="321.32" x2="631.09" y2="278.35" gradientUnits="userSpaceOnUse"><stop offset="0.24" stop-color="#80634b"/><stop offset="0.56" stop-color="#86694f"/><stop offset="0.82" stop-color="#907256"/></linearGradient><linearGradient id="linear-gradient-51" x1="528.77" y1="377.6" x2="592.24" y2="346.12" gradientUnits="userSpaceOnUse"><stop offset="0.14" stop-color="#80634b"/><stop offset="0.34" stop-color="#876a50"/><stop offset="0.49" stop-color="#907256"/></linearGradient><linearGradient id="linear-gradient-52" x1="590.95" y1="230.38" x2="609.48" y2="312.65" xlink:href="#linear-gradient-39"/><linearGradient id="linear-gradient-53" x1="596.85" y1="393.18" x2="585.06" y2="409.23" xlink:href="#linear-gradient-32"/><linearGradient id="linear-gradient-54" x1="580.08" y1="408.21" x2="625.53" y2="371.1" xlink:href="#linear-gradient-32"/><linearGradient id="linear-gradient-55" x1="545.56" y1="580.79" x2="540.17" y2="521.16" xlink:href="#linear-gradient-32"/><linearGradient id="linear-gradient-56" x1="517.98" y1="567.01" x2="525.57" y2="522.57" gradientUnits="userSpaceOnUse"><stop offset="0.01" stop-color="#80634b"/><stop offset="0.46" stop-color="#907256"/></linearGradient><linearGradient id="linear-gradient-57" x1="563.64" y1="576.09" x2="558.22" y2="545.47" gradientUnits="userSpaceOnUse"><stop offset="0.14" stop-color="#80634b"/><stop offset="0.53" stop-color="#907256"/></linearGradient><linearGradient id="linear-gradient-58" x1="557.69" y1="573.24" x2="554.24" y2="561.04" gradientUnits="userSpaceOnUse"><stop offset="0.14" stop-color="#80634b"/><stop offset="0.63" stop-color="#876a50"/><stop offset="1" stop-color="#907256"/></linearGradient><linearGradient id="linear-gradient-59" x1="551.81" y1="571.02" x2="544.07" y2="543.34" xlink:href="#linear-gradient-32"/><linearGradient id="linear-gradient-60" x1="546.46" y1="572.98" x2="540.17" y2="541.95" xlink:href="#linear-gradient-32"/><linearGradient id="linear-gradient-61" x1="484.23" y1="496.37" x2="593.04" y2="496.37" xlink:href="#linear-gradient-31"/><linearGradient id="linear-gradient-62" x1="517.61" y1="482.72" x2="643.81" y2="482.72" xlink:href="#linear-gradient-31"/><linearGradient id="linear-gradient-63" x1="543.96" y1="293.25" x2="582.58" y2="337.05" xlink:href="#linear-gradient-39"/><linearGradient id="linear-gradient-64" x1="476.73" y1="330.61" x2="564.08" y2="330.61" xlink:href="#linear-gradient-39"/><linearGradient id="linear-gradient-65" x1="641.51" y1="282.27" x2="612" y2="255.6" xlink:href="#linear-gradient-43"/><linearGradient id="linear-gradient-66" x1="643.3" y1="269.03" x2="679.6" y2="269.03" xlink:href="#linear-gradient-43"/><linearGradient id="linear-gradient-67" x1="634.81" y1="307.28" x2="644.31" y2="230.67" xlink:href="#linear-gradient-43"/><linearGradient id="linear-gradient-68" x1="632.94" y1="321" x2="650.87" y2="246.94" xlink:href="#linear-gradient-43"/><linearGradient id="linear-gradient-69" x1="630.19" y1="328.4" x2="688.15" y2="262.63" gradientUnits="userSpaceOnUse"><stop offset="0" stop-color="#736357"/><stop offset="0.03" stop-color="#77665a"/><stop offset="0.41" stop-color="#9f8c78"/><stop offset="0.61" stop-color="#ae9a83"/><stop offset="0.73" stop-color="#b6a189"/><stop offset="0.91" stop-color="#bca78e"/></linearGradient><linearGradient id="linear-gradient-70" x1="630.81" y1="316.71" x2="671.95" y2="235.12" xlink:href="#linear-gradient-43"/><linearGradient id="linear-gradient-71" x1="639.72" y1="307.76" x2="693.46" y2="307.76" xlink:href="#linear-gradient-43"/><linearGradient id="linear-gradient-72" x1="633.5" y1="405.72" x2="686.47" y2="468.14" gradientUnits="userSpaceOnUse"><stop offset="0.42" stop-color="#bababa"/><stop offset="0.51" stop-color="#b5b5b5"/><stop offset="0.62" stop-color="#a8a8a8"/><stop offset="0.73" stop-color="#919191"/><stop offset="0.85" stop-color="#727272"/><stop offset="0.97" stop-color="#4a4a4a"/><stop offset="1" stop-color="#3d3d3d"/></linearGradient><linearGradient id="linear-gradient-73" x1="634.57" y1="413.34" x2="684.74" y2="472.47" gradientUnits="userSpaceOnUse"><stop offset="0" stop-color="#bababa"/><stop offset="0.16" stop-color="#b5b5b5"/><stop offset="0.35" stop-color="#a8a8a8"/><stop offset="0.54" stop-color="#919191"/><stop offset="0.74" stop-color="#727272"/><stop offset="0.94" stop-color="#4a4a4a"/><stop offset="1" stop-color="#3d3d3d"/></linearGradient><linearGradient id="linear-gradient-74" x1="634.01" y1="362.78" x2="629.45" y2="506.55" xlink:href="#linear-gradient-73"/><linearGradient id="linear-gradient-75" x1="598.29" y1="377.85" x2="638.97" y2="425.79" xlink:href="#linear-gradient-72"/><linearGradient id="linear-gradient-76" x1="-1982.37" y1="1248.52" x2="-2112.64" y2="1239.29" gradientTransform="translate(-1734.4 -57.96) rotate(-136.32)" gradientUnits="userSpaceOnUse"><stop offset="0" stop-color="#bababa"/><stop offset="0.13" stop-color="#b3b3b3"/><stop offset="0.33" stop-color="#9f9f9f"/><stop offset="0.56" stop-color="#7e7e7e"/><stop offset="0.82" stop-color="#515151"/><stop offset="0.92" stop-color="#3d3d3d"/></linearGradient><linearGradient id="linear-gradient-77" x1="-2025.17" y1="1295.57" x2="-2095.81" y2="1293.25" gradientTransform="matrix(-0.67, -0.67, 0.7, -0.71, -1675.17, -31.18)" gradientUnits="userSpaceOnUse"><stop offset="0.42" stop-color="#bababa"/><stop offset="0.62" stop-color="#b8b8b8"/><stop offset="0.72" stop-color="#b0b0b0"/><stop offset="0.79" stop-color="#a3a3a3"/><stop offset="0.85" stop-color="#919191"/><stop offset="0.91" stop-color="#797979"/><stop offset="0.96" stop-color="#5c5c5c"/><stop offset="1" stop-color="#3d3d3d"/></linearGradient><linearGradient id="linear-gradient-78" x1="563.6" y1="429.12" x2="602.95" y2="475.48" xlink:href="#linear-gradient-72"/><linearGradient id="linear-gradient-79" x1="557.14" y1="427.43" x2="596.48" y2="473.8" gradientTransform="matrix(1, 0, 0, 1, 0.29, 0.28)" xlink:href="#linear-gradient-72"/><linearGradient id="linear-gradient-80" x1="705.65" y1="511.98" x2="744.99" y2="558.34" gradientTransform="matrix(0.92, -0.08, -0.08, 0.92, -12.1, -11.55)" xlink:href="#linear-gradient-72"/><linearGradient id="linear-gradient-81" x1="698.31" y1="509.54" x2="738.1" y2="556.42" gradientTransform="matrix(0.92, -0.08, -0.08, 0.93, -11.86, -11.32)" xlink:href="#linear-gradient-72"/><linearGradient id="linear-gradient-82" x1="15.04" y1="-506.69" x2="149.35" y2="-371.71" gradientTransform="matrix(0, 1.03, -1, 0, 179.91, 330.92)" gradientUnits="userSpaceOnUse"><stop offset="0.42" stop-color="#bababa"/><stop offset="0.51" stop-color="#b5b5b5"/><stop offset="0.62" stop-color="#a6a6a6"/><stop offset="0.74" stop-color="#8e8e8e"/><stop offset="0.86" stop-color="#6c6c6c"/><stop offset="0.99" stop-color="#414141"/><stop offset="1" stop-color="#3d3d3d"/></linearGradient><linearGradient id="linear-gradient-83" x1="629.88" y1="376.04" x2="646.24" y2="414.28" xlink:href="#linear-gradient-32"/><linearGradient id="linear-gradient-84" x1="728.38" y1="493.27" x2="731.03" y2="493.27" xlink:href="#linear-gradient-2"/><linearGradient id="linear-gradient-85" x1="701.62" y1="458.87" x2="706.85" y2="458.87" xlink:href="#linear-gradient-2"/><linearGradient id="linear-gradient-86" x1="715.04" y1="511.41" x2="717.77" y2="511.41" xlink:href="#linear-gradient-2"/><linearGradient id="linear-gradient-87" x1="723.79" y1="524.88" x2="726.52" y2="524.88" xlink:href="#linear-gradient-2"/><linearGradient id="linear-gradient-88" x1="689.79" y1="464.77" x2="695.51" y2="464.77" xlink:href="#linear-gradient-2"/><linearGradient id="linear-gradient-89" x1="682.95" y1="467.08" x2="686.94" y2="467.08" xlink:href="#linear-gradient-2"/><linearGradient id="linear-gradient-90" x1="701.41" y1="467.55" x2="706.33" y2="467.55" xlink:href="#linear-gradient-2"/><linearGradient id="linear-gradient-91" x1="702.87" y1="478.24" x2="706.54" y2="478.24" xlink:href="#linear-gradient-2"/><linearGradient id="linear-gradient-92" x1="698.05" y1="484.29" x2="700.79" y2="484.29" xlink:href="#linear-gradient-2"/><linearGradient id="linear-gradient-93" x1="725.15" y1="480.45" x2="728.86" y2="480.45" xlink:href="#linear-gradient-2"/><linearGradient id="linear-gradient-94" x1="703.88" y1="495.29" x2="706.6" y2="495.29" xlink:href="#linear-gradient-2"/><linearGradient id="linear-gradient-95" x1="714.91" y1="469.73" x2="718.91" y2="469.73" xlink:href="#linear-gradient-2"/><linearGradient id="linear-gradient-96" x1="717.82" y1="496.73" x2="720.58" y2="496.73" xlink:href="#linear-gradient-2"/><linearGradient id="linear-gradient-97" x1="703.91" y1="510.28" x2="706.59" y2="510.28" xlink:href="#linear-gradient-2"/><linearGradient id="linear-gradient-98" x1="710.59" y1="524.88" x2="713.27" y2="524.88" xlink:href="#linear-gradient-2"/><linearGradient id="linear-gradient-99" x1="727.91" y1="509.11" x2="730.65" y2="509.11" xlink:href="#linear-gradient-2"/><linearGradient id="linear-gradient-100" x1="719.2" y1="535.85" x2="721.95" y2="535.85" xlink:href="#linear-gradient-2"/><linearGradient id="linear-gradient-101" x1="735.04" y1="516.18" x2="737.78" y2="516.18" xlink:href="#linear-gradient-2"/><linearGradient id="linear-gradient-102" x1="714.76" y1="482.97" x2="717.93" y2="482.97" xlink:href="#linear-gradient-2"/><linearGradient id="linear-gradient-103" x1="736" y1="504.08" x2="738.7" y2="504.08" xlink:href="#linear-gradient-2"/><linearGradient id="linear-gradient-104" x1="684.61" y1="455.77" x2="690.37" y2="455.77" xlink:href="#linear-gradient-2"/><linearGradient id="linear-gradient-105" x1="691.22" y1="474.79" x2="694.6" y2="474.79" xlink:href="#linear-gradient-2"/></defs><g class="cls-1"><g id="WELL"><g id="_LAYER-15_WELL_MIDDLE_" data-name="&lt;LAYER-15_WELL(MIDDLE)&gt;"><rect class="cls-2" x="1337.65" y="0.04" width="89.24" height="99.96"/><polygon class="cls-3" points="1323.08 99.96 1323.08 0 1350.08 0.01 1350.08 100 1323.08 100 1323.08 99.96"/><polyline class="cls-3" points="1413.08 0.01 1413.08 100 1440.08 100 1440.08 0"/><polygon class="cls-4" points="1392.63 0 1392.63 100 1370.63 100 1370.63 0.02 1392.63 0"/><rect class="cls-5" x="1374.65" width="14.04" height="100"/><rect class="cls-6" x="1374.65" width="14.04" height="100"/></g></g><g id="PLANTS"><path id="_LAYER-10_SWIRL_ANIMATE_" data-name="&lt;LAYER-10_SWIRL(ANIMATE)&gt;" class="cls-7" d="M3917,638c-182.62-126.09-330-149.62-431.64-147.31-168.36,3.83-233.72,79.05-424.79,61.66-124.81-11.35-122.33-45.76-304.88-85.64-185.19-40.45-334.33-37.07-431.64-34.25-287.28,8.31-295.74,69.72-466.69,66.26-339.56-6.86-372.08-217.12-747.17-307.63-193.53-46.7-374.23-5.64-586.09,42.5-60.34,13.71-231,56.29-463.07,59.77-25.78.39-47,.21-61,0a1445.09,1445.09,0,0,0-416.54-11.63c-211,24.8-263.8,130.73-465.9,137-148.21,4.62-175.58-41.6-311.73-30.83-188.31,14.91-325,122.45-363.13,150.73a812,812,0,0,0-123.32,113Z"/><path class="cls-8" d="M0,708.3-.3,546.47c12.83.91,20.59,1.19,20.59,1.19,136.59-.2,200.13-23.37,257.91-18,252.86,23.5,353.23-16.82,440.59-17.29,75.41-.4,133.19,27.25,211.6,28.24,26.59.34,4.45.71,40.25,1.61,75.34,1.91,112.46-10.91,160.39-7.08,82.21,6.57,70.91,20.66,171.28,21.24l155.52,1.17c27.4.47,76.51.82,105.09-4.73,181.23-35.17,143.71-16.94,329.51,3,0,0,10,.4,27.57.47V717.2"/><line class="cls-8" y1="708.3" x2="1920" y2="717.2"/><path class="cls-9" d="M703.54,518.1s6.49,2.07,19.46,0"/><path class="cls-10" d="M1920.37,796.47H0L-.28,614.41c12-2.41,24.48-4.66,39.47-6.24,75.66-8,83.57,15.08,175.25,20.51,95.31,5.65,102.64-18.34,220-20.51,95-1.75,87,14,175.25,13.05,129.19-1.4,158.26-25.33,262.72-21.29,85,3.29,69.92,18.16,181,32.48,120.49,15.53,179.81,2.23,220.41-6.32,73.63-15.52,110.89-13,166.22-16.67,59.4-3.91,93,6.37,142.84,9.75,97.16,6.6,137.51,14.36,238.63-1.73,57.13-9.08,67.45-17.11,98.53-21.2Z"/><path class="cls-5" d="M1920.41,886.11V735.51s-91.42-31-156.1-21.86c-52.42,27.8-132.61,15.16-232,17.43-56,1.28-61.9-8.53-142.75-12.72-117-6.06-143.43,12.45-272.13,15.9-114.84,3.07-104.23-11.39-225.28-9.54-128,1.95-132.3,18-254.28,22.26-136.16,4.73-138.2-15-307.82-15.9-142.19-.73-143.79,13.13-254.28,6.36-18.52-1.14-43.65-5.1-75.79-8.5V886.11Z"/><g id="_LAYER-16_WELL_BOTTOM_" data-name="&lt;LAYER-16_WELL(BOTTOM)&gt;"><rect class="cls-2" x="1337.6" y="97.51" width="89.24" height="558.83"/><polygon class="cls-3" points="1440.03 97.49 1440.03 680.11 1323.03 680.11 1323.03 97.27 1350.03 97.49 1350.03 654.11 1413.03 654.11 1413.03 97.49 1440.03 97.49"/><polygon class="cls-4" points="1392.58 97.49 1392.58 106.07 1370.58 106.07 1370.58 97.57 1392.58 97.49"/><rect class="cls-11" x="1361.44" y="106.07" width="39.66" height="522.27"/><rect class="cls-12" x="1350" y="77.41" width="63" height="576.7"/></g><g id="_LAYER-18_P7_" data-name="&lt;LAYER-18_P7&gt;"><path class="cls-13" d="M862,383.62c-.94-.2-2,4.6-6.74,13.26-3.29,6-3.7,5.31-6.1,9.89-3.58,6.82-1.81,6.65-6.52,18.93a48.69,48.69,0,0,0-2.53,13.47c0,.81-.09,2.41.64,2.73s2.18-1.1,2.52-1.47c2.69-2.89,3-6.88,3.16-8s2.39-5.9,6.94-15.57c6.28-13.34,6.35-12.26,7.36-15.58C863.38,392.53,863.19,383.88,862,383.62Z"/><path class="cls-14" d="M857.76,401.08c-2,.35-2.75,3.09-5.47,10.31,0,0-2.58,6.83-6.31,15.57-3.93,9.19-5.67,11.19-7.37,17.89a38.11,38.11,0,0,0-1.26,8.42,36.79,36.79,0,0,0,1,9.89,38.91,38.91,0,0,0,4,9.89c1.54,2.79,1.74,2.47,9.47,12.2,3.55,4.48,5,6.37,8,7.78a9.78,9.78,0,0,0,6.53,1.06c2.73-.69,4.5-2.88,6.31-5.9a58.3,58.3,0,0,0,6.94-19.35c1.66-8.42,2.49-12.62,2.32-15.78-.49-9-4.05-9.35-8.84-24.41-2.59-8.15-2.89-12.25-6.94-19.15C864.37,406.43,860.91,400.55,857.76,401.08Z"/><path class="cls-15" d="M771.63,442.21c-5.73,2.89-8.69,12-16.66,19.93-2.32,2.29-5.12,4.53-10,8.41-2.45,2-4.78,4.05-7.22,6,0,0-1.12.9-5.15,5a8.24,8.24,0,0,0-2.41,3.95,2.91,2.91,0,0,0,.18,2.4c.76,1,2.48.89,2.74.86,1.13-.12,1.22-.63,2.58-.86a20.15,20.15,0,0,1,2.23,0c1.62-.07,1.82-.36,3.1-.34s1.28.26,2.4.34a8.22,8.22,0,0,0,3.61-.51c2.13-1,2.64-3.93,3.09-5.5,1.19-4.12,4.63-6.64,11.51-11.68,3.91-2.87,9.87-6.46,13.39-8.59,2.08-1.25,4.79-2.85,6-6a11.34,11.34,0,0,0,.51-5.5,12.5,12.5,0,0,0-2.57-6.18,5.1,5.1,0,0,0-7.39-1.72Z"/><path class="cls-16" d="M747.7,479.06a27.06,27.06,0,0,1-3,3.31,21.32,21.32,0,0,0-2,1.92,7.64,7.64,0,0,0-.52.62,22.66,22.66,0,0,0-2.1,3.53h0s-1.94-.08-2.31.66a1.2,1.2,0,0,0,.44,1.33c.33.26.79.29,2,0a16.11,16.11,0,0,0,2.65-.88c3-1.33,2.85-1,3.75-1.55a9.64,9.64,0,0,0,3-2.87c.87-1.31,1.18-2.91,1.77-6.07.49-2.67.73-4,.33-4.19S751,475.25,747.7,479.06Z"/><path class="cls-17" d="M845.11,539.67c-.55-.33-1.21.1-1.5-.31s.23-1.79,1.1-2.6c1.27-1.19,2.74-.65,4.72-1.41a46.45,46.45,0,0,0,5.05-2.46c5-2.62,4.92-2.88,8.48-4.65,1.47-.74,1.56-.73,1.83-1,1.6-1.57,1.09-4.67,0-10.81-1.55-8.75-1.72-9.66-2-11.14-.81-4.31-1.21-6.46-1.33-7-.36-1.68-.61-2.68-.83-4.32a24.2,24.2,0,0,1-.33-5,12.54,12.54,0,0,1,3.33-8,10.12,10.12,0,0,1,15.18-.16c3.74,4.36-.33,9.45-.18,23.76.07,7.05.23,11.59,2,17.28a80.58,80.58,0,0,1,4.5,10.08,19.62,19.62,0,0,1,.67,5.93,3.33,3.33,0,0,1-.39,1.83c-.71,1.14-2.13,1.33-4.33,1.71-4.69.8-3.16.78-5.66,1.08-1.55.19-3,.3-7.61.44-6.11.18-5.75.06-7.84.22a38.12,38.12,0,0,0-8.05,1.09c-3.66,1-5.22,2.28-6.09,1.52C844.48,544.65,846.52,540.51,845.11,539.67Z"/><path class="cls-18" d="M848.37,538.45c-.51-1.19-3.68-1.29-5.3-.07a3.75,3.75,0,0,0-1.08,1.36c-.18.39-.42.91-.21,1.22s.9.16,2.45-.07c2.59-.39,3.19-.24,3.73-.88A1.66,1.66,0,0,0,848.37,538.45Z"/><path class="cls-19" d="M848.35,540.27c-.61-1.18-4.42-1.29-6.36-.07a3.75,3.75,0,0,0-1.3,1.36c-.22.39-.5.92-.25,1.22s1.08.16,2.94-.07c3.12-.39,3.84-.24,4.48-.88C848.22,541.47,848.63,540.8,848.35,540.27Z"/><path class="cls-20" d="M848.61,542.09c-.65-1.18-4.71-1.29-6.77-.07a3.91,3.91,0,0,0-1.39,1.36c-.23.39-.53.92-.26,1.22s1.15.17,3.12-.07c3.32-.39,4.09-.24,4.78-.88C848.47,543.29,848.9,542.62,848.61,542.09Z"/><path class="cls-21" d="M850,542c-2.16.6-1.85.74-3.12,1-3.46.78-6.13-.21-8.22.89a2.37,2.37,0,0,0-1.08,1,2.67,2.67,0,0,0-.14,1.77,3.87,3.87,0,0,0,2.17,3c.47.18,1.19.31,2.85-.27a15.11,15.11,0,0,0,4.42-2.51c4.58-3.41,9.71-2.77,9.71-4.14,0-.43-.51-.74-1-1C854.84,541.36,853.62,541.05,850,542Z"/><path class="cls-22" d="M876.3,529.72a4.92,4.92,0,0,0-3.26-.35,5.17,5.17,0,0,0-2.74,1.86c-.69.78-1.86,2.1-1.5,3.35.29,1,1.43,1.45,3.44,2.21a7.06,7.06,0,0,0,3.89.71,3.91,3.91,0,0,0,2.65-1.33C880,534.41,878.69,530.94,876.3,529.72Z"/><path class="cls-23" d="M899.45,483.79c-.55,10.63-1.3,20.52-2.17,29.6-1.22,12.8-2,16.75-4,19.94a25.06,25.06,0,0,0-3.32,7.65c-.72,2.33-.9,3.73-.44,5.2a7,7,0,0,0,3,3.75c.61.38,1.48.77,6.49.87,5.26.11,6.21-.28,6.79-.58a8.24,8.24,0,0,0,3.47-3.46,9.12,9.12,0,0,0,.87-4c.12-2.94.78-5.86.86-8.81a86.82,86.82,0,0,1,2.17-16.61c1.33-5.2,3.12-8.32,8.52-23a8.75,8.75,0,0,0,.43-6.07c-1.1-3-4.26-4.41-6.35-5.34a18.5,18.5,0,0,0-9.82-1.3A18.8,18.8,0,0,0,899.45,483.79Z"/><path class="cls-24" d="M895.61,538.11c-1.78.5-2.09,1-8.85,5.64-1.88,1.29-3.08,2.1-4.75,3.21a82.31,82.31,0,0,1-7.19,4.53c-3.15,1.67-4.72,2.5-6.2,2.55s-2.87.37-4.31.55a2.61,2.61,0,0,0-2.43,1.88,2.66,2.66,0,0,0-.22,1.55,2.73,2.73,0,0,0,.77,1.33c1.37,1.31,5.24.44,8.18.22,2.07-.16,1.28.17,7.3.55,5.53.34,6.34.07,13.05.44a46,46,0,0,1,7.08.67,55.76,55.76,0,0,0,6.09,1.32c2.74.38,3.78.21,4.64-.11A6.43,6.43,0,0,0,912,559.9c.92-1.48.85-3,.66-5.86a39.55,39.55,0,0,0-1.21-7.08c-.81-3.21-1.22-4.84-2.11-5.86-1.59-1.85-3.73-2.37-5.86-2.88A15.08,15.08,0,0,0,895.61,538.11Z"/><path class="cls-25" d="M874.77,556.44c-1-.1-1.7.15-3.57.81-4.47,1.56-5.38,1.72-5.44,2.35-.09.91,1.63,1.76,2,1.95A5.06,5.06,0,0,0,871,562c1.38-.3,1.41-1,3.4-2.19s3.38-1.19,3.41-1.79S876.26,556.58,874.77,556.44Z"/><path class="cls-26" d="M880,557.3c-1.76-1.18-4.54.23-5.69.82-2,1-1.76,1.62-4,2.67-1.76.84-2.9.93-3,1.63s.94,1.45,1.64,1.75a4.27,4.27,0,0,0,2.67.13,11.18,11.18,0,0,0,3.08-1.23c1.21-.62,1.28-.73,2.35-1.3,2.82-1.5,3.86-1.52,4.06-2.36A2.32,2.32,0,0,0,880,557.3Z"/><path class="cls-27" d="M876.44,560.63a12.5,12.5,0,0,0-2.19,1,4.1,4.1,0,0,0-1.54,1.21c-.38.58-.75,1.61-.32,2.11s1,.28,2.11.08a12.39,12.39,0,0,0,3.41-1.13c1.46-.74,1.27-.92,2.27-1.38,2.15-1,3.07-.21,5.11-1.14,1.37-.62,2.71-1.76,2.52-2.27s-1.47-.3-4.06,0A43.79,43.79,0,0,0,876.44,560.63Z"/><path class="cls-28" d="M879.32,561.67c-.36.12-1.12.37-1.33,1a2.2,2.2,0,0,0,1.18,2.25c1.22.69,2.82,0,3.53-.31,1.6-.64,4.25-.78,9.48-1.31,1.26-.12,2.75,0,5.09-.28l2.12-.29c4.93-.73,5.08-1,5.1-1.16.12-.7-2.53-1.69-2.89-1.83a18.6,18.6,0,0,0-7.31-1A61,61,0,0,0,879.32,561.67Z"/><path class="cls-29" d="M902,545.78a5.88,5.88,0,0,0-4,2.11c-.93,1.14-2,3.35-1.15,5.2.58,1.22,1.75,1.69,3.56,2.4,2.14.85,4.36,1.73,6.16.58a4.36,4.36,0,0,0,1.92-3.46,4.73,4.73,0,0,0-.39-1.74,7.6,7.6,0,0,0-2-3.75A5.87,5.87,0,0,0,902,545.78Z"/><path class="cls-30" d="M773.24,365.44c-.09-.14-.65,2.14-2.53.84-.28-.19-.42-.6-.7-.78-1.18-.73-1.23-1.31-2.22-.18s-3.51.18-3.82-1.47c-.68-3.59-3.7-5.19-7.08-6-5.16-1.26-8.93-4.64-11.68-9.15-.49-.8-1.06-1.55-1.6-2.34l-.32.39a7.51,7.51,0,0,0-1.64-3.67c-.08-.08-.18-.23-.16-.31.44-1.73-1-3.2-.53-5,.55-2,.42-4.18,1.68-6.05.53-.78.51-1.91.82-2.84a29.94,29.94,0,0,1,1.39-3.59,39.7,39.7,0,0,1,3-5.69c1-1.47,1.94-3.05,3-4.5a18.69,18.69,0,0,1,5.67-4.75c1.13-.69,2.65-.72,4-1.08.24-.06.42-.34.65-.39a25,25,0,0,1,4.33-.46,18.73,18.73,0,0,1,6.15.72,29.4,29.4,0,0,1,5.45,1.85c3.19,1.44,3.6,2.6,5.72,5.12a15,15,0,0,1,2,4.19c.55,1.34,1.26,5.79,2.86,6.45a3.26,3.26,0,0,1,1.46,1.83,18.29,18.29,0,0,0,2.06,4.24c.26,1.33,2,2.47,3.41,3a16.75,16.75,0,0,0,3.69,1.08c2.52.32,5.07.43,7.48.62-1.1,2.57-2.52,4.94-3.09,7.51a52.33,52.33,0,0,0-1.12,10.31c-.09,4.41.24,8.84.38,13.32a17.71,17.71,0,0,1-6.1-5,7.86,7.86,0,0,1-1.71-3.72c-.07-.53-.79-1.08-1.34-1.42-1-.61-2.09-1-3.08-1.61-.57-.33-.94-.3-1.25.23s-.6,1.11-.89,1.66c-.65,1.26-1.31,2.51-1.95,3.77a17.79,17.79,0,0,1-.91,1.92,16.45,16.45,0,0,1-2.3,2.87,2,2,0,0,1-2.67,0,4,4,0,0,0-4-.81c-.21.1-.5.81-.71.87C771.39,368.41,773.31,365.53,773.24,365.44Z"/><path class="cls-31" d="M858.49,440.75c-3.84,3.45.91,8.51.52,27.76-.12,5.71.75,11.41.78,17.12,0,4-.09,6.78,1.86,8.34,2.64,2.12,7.25.51,9.34-.22,1.58-.55,5.39-1.86,7.79-5.16,3.23-4.43.32-7.51.86-19.75.33-7.47,1.59-10.25.35-16.7-.62-3.21-1.07-5.42-2.74-7.58C872.87,439,862.69,437,858.49,440.75Z"/><path class="cls-32" d="M846.45,439.06c.85,2,2.55,3,5.35,4.48,2.08,1.15,3.75,1.75,11.22,3.75,0,0,3.6,1,11.65,2.45,2.84.53,4.93.87,5.56-.1s-.43-2.57-1.07-3.64c-2.18-3.62-3.49-7.69-5.45-11.43s-6.12-11.65-6.74-20.63a17.78,17.78,0,0,0-1-5.24c-1.5-4.27-4.88-8.38-6.73-7.8-.52.16-.77.64-1.28,1.81a43.08,43.08,0,0,0-2.78,7.16s0-.08-4.17,10.91c-1.57,4.1-2.36,6.2-3.21,8.87C845.75,436.26,845.93,437.83,846.45,439.06Z"/><path class="cls-33" d="M806.77,314.09c.25-1.25,1.11-3.14,12-8.26,6.65-3.13,10-4.72,14.91-5.84,1.33-.3,3.47-.73,7-1.62a57,57,0,0,0,7.3-2.11c2.94-1.2,3.32-1.86,5.35-2.1s2.52.26,4.7-.17c1.77-.34,1.79-.75,3.89-1.29a35.54,35.54,0,0,1,5-.65c2.71-.33,4.06-.49,5.51-.81,2.61-.59,3.37-1.09,5.19-1a5.48,5.48,0,0,1,3.08.81c1.49,1.11,1.64,3.33,1.46,7.13-.25,5.24-.37,7.86-1.46,12.16a76.78,76.78,0,0,1-3.57,10.21c-2.79,7.05-3.24,6.85-4.37,10.37-.94,2.9-1.4,6.73-2.27,14.27-1.22,10.46-.91,11.22-2.11,14.1a34.09,34.09,0,0,1-6.65,9.89,39.14,39.14,0,0,1-5.83,5.18c-3,2.16-3.65,2-8.92,5.19-3.77,2.31-4,2.74-5.67,3.24-.42.13-6.09,1.75-8.43-1a5.1,5.1,0,0,1-.81-1.46c-.69-1.66-.55-3-.49-5.18a28.38,28.38,0,0,0,0-4.38c-.57-2.75-2.72-3.23-4.7-5.67-3-3.76-1-6.42-3.56-12.32-1.92-4.44-3.26-3.42-5.19-7.46-3.81-8,1.1-12.67-2.92-18.16-2.16-3-4.54-2.89-6.81-7.13C807.42,318.28,806.35,316.26,806.77,314.09Z"/><path class="cls-34" d="M779.05,333.22a21.79,21.79,0,0,1,.65-7.78,19,19,0,0,1,3.08-6c1.69-2.28,2.79-3.77,4.7-4.21.89-.21.94,0,4.38,0a23,23,0,0,0,3.24-.16c2-.35,2.28-1,4.54-1.79.67-.23.71-.2,5.84-1.13a23.33,23.33,0,0,1,4.21-.65,12.18,12.18,0,0,1,5.19,1.46,23.7,23.7,0,0,1,7.45,5.84,39.72,39.72,0,0,1,4.06,6c2.15,3.55,3.23,5.32,3.56,7.14.53,2.81-.51,3.05-.32,7.29a17.32,17.32,0,0,0,1.62,7.46c1.3,2.54,2.32,2.46,4,4.86,3.26,4.51,3.25,9.82,3.24,11.35a34.78,34.78,0,0,1-1.78,9.88c-.89,2.62-1.9,4.47-1.13,6.65.67,1.92,2.32,2.93,1.94,3.57-.24.41-1.07.23-3.4,0-.33,0-3.2-.32-5-.33a20.25,20.25,0,0,0-5,.65c-4.69,1.1-5.75,2.83-7.3,2.27-2.23-.81-2.44-5.33-2.59-7-.74-8.33-6.21-14.45-14.43-23.67C789.65,343.56,779.93,340.65,779.05,333.22Z"/><path class="cls-35" d="M784.34,363.47c0,.65.07,5.28,2.58,8.52a8.33,8.33,0,0,1,1.78,3.17,21,21,0,0,1,.4,2.78c.35,2.7.38,2.46.4,3,.07,1.79-.38,2.14-.6,4.36-.12,1.27,0,1.07,0,3.77,0,2.37-.14,2.64-.2,5.15-.06,3.2.13,2.81,0,4.36-.18,2.24-.56,2.88-1,5.75-.19,1.3-.26,2.2-.39,3.77-.51,6,0,6.82-1,8.52-.76,1.29-1.3,1.26-2.38,3.17a19.61,19.61,0,0,1-1.59,3c-1.14,1.46-1.79,1.25-2.38,2.38s0,1.74-.39,3.56c-.08.35-.22.8-2.19,4-1.14,1.85-1.71,2.77-2.18,3.37a27.85,27.85,0,0,1-3.17,3.37c-1.8,1.71-2.61,2.31-3.57,3.17,0,0-2,1.79-7.13,10.11h0s-1.57.92-1.56,1.67,1.45,1.22,2.09,1.46c7.14,2.58,6.51,3.19,8.92,3.34a54.17,54.17,0,0,0,6.39-.76c3.84-.54,3.5-.6,5-.76,5.62-.57,6.52.67,8.52-.46,1-.56,1.29-1.16,4-6.05,3.33-5.93,3.2-5.54,3.43-6.06,2.39-5.29-.22-9.3-1-16.76-.77-7.23.69-12.88,2.22-18.78,2.53-9.8,5.21-10.76,5.85-18.18a35.31,35.31,0,0,0-1.82-14.13c-3.62-11.66-12.66-22.81-16.55-21.41C784.4,356.69,784.34,362.67,784.34,363.47Z"/><path class="cls-36" d="M797.29,436.14c-7.3,11.64-9.75,16.69-9.75,16.69-2.32,4.79-4.8,9.51-7.15,14.3a31.55,31.55,0,0,1-3.46,6.06c-2.95,3.87-4.43,3.56-8.45,7.8a38.84,38.84,0,0,0-6.29,9.1,12.8,12.8,0,0,0-1.73,5.2,10.84,10.84,0,0,0,.17,3.23,6.94,6.94,0,0,0,2,4.07,6.31,6.31,0,0,0,3.22,1.19c3.08.56,3.55-.41,6.79,0,1.93.24,2.74.72,3.9.17a5,5,0,0,0,1.87-1.87,17.84,17.84,0,0,0,2-3.9c1.38-3.41,1.73-3,3.22-6.62.47-1.12.88-2.33,1.7-4.75,1.56-4.62,1.66-5.41,2.54-7.64a48.2,48.2,0,0,1,2.72-5.6,135.67,135.67,0,0,1,9.16-14.25c2.68-3.78,3-4,5.09-7.13,5.07-7.45,5.6-9.39,5.43-11.37A10.82,10.82,0,0,0,807,434.2c-1-.93-2.6-2.49-4.58-2.38C800,432,798.32,434.51,797.29,436.14Z"/><path class="cls-37" d="M798.28,458.89c.61.62,1.19.14,4.08.52a16,16,0,0,1,6,1.71c2.62,1.5,3.71,3.64,4.34,3.29.34-.19.22-.93.13-2-.16-1.88.08-3.77,0-5.65,0-.92-.07-3.49,1.84-12,1.22-5.38,2.27-9,2.76-10.78,1.09-4,1-5.3,2.5-21.69,0,0,1.88-21,.35-28.92a36,36,0,0,0-1.23-4.57,33.64,33.64,0,0,0-1.93-4.39c-.62-1.25-.95-2.1-3.16-8.78-2.29-6.94-3.44-10.42-3.55-11.16a64.13,64.13,0,0,1-.47-10.38c.1-3.51.41-5.45-.93-7.44a23.86,23.86,0,0,0-3.56-3.41,39.51,39.51,0,0,0-3.41-2.79c-2.43-1.65-4.64-2.19-7.75-2.94-3.59-.87-5.6-1.36-8.36-.93a12,12,0,0,0-9.46,6.66c-.65,1.26-1,3.18-1.7,7-.83,4.55-.8,5.77-.78,6.35a20.58,20.58,0,0,0,.93,5,29.81,29.81,0,0,0,2.64,6,40.5,40.5,0,0,0,2.17,3.56c3.41,5,5.48,5.82,9.6,11.31,1.07,1.42,1.27,1.83,2.33,3.1,1.82,2.22,2.62,2.72,3.56,4.5a7.3,7.3,0,0,1,1.09,3.1,21.5,21.5,0,0,0,0,2.79c.14,1.09.35,1,.46,2,.17,1.46-.28,1.78-.15,3.1s.51,1.07.77,2.48-.14,1.63,0,3.87a14.72,14.72,0,0,1,.16,2.17,8.31,8.31,0,0,1-.78,2.63,19,19,0,0,0-1.24,4.5c-.31,2.57.49,3.2-.31,4.65a4.86,4.86,0,0,0-.93,1.86c-.15,1,.33,1.31.31,2.17,0,1.54-1.59,1.65-2.17,3.4-.5,1.54.54,1.93.31,4.5-.13,1.47-.48,1.46-.62,3.1a33.67,33.67,0,0,0,.16,3.56,12.88,12.88,0,0,1-.78,4c-1.87,6.17-1.24,5-2.32,8.06-1.48,4.24-3.39,8.62-2.42,9.7a1.82,1.82,0,0,0,1,.58,1.74,1.74,0,0,0,1.18-.31,4.58,4.58,0,0,0,1.71-2c1.83-4,4.31-7.73,6.26-11.71v0c.54-1.1.59-1.31.66-1.31.26,0,.28,2.78.28,2.78,0,5,1.72,5.95,1.82,9.77C799.85,454.78,796.86,457.45,798.28,458.89Z"/><path class="cls-38" d="M863.65,363.21c-1.11,2.76.27,3.4-1,9.05a53.8,53.8,0,0,1-2.53,7.57c-1.66,4.31-2.15,4.64-2.73,6.53-1.12,3.59-.59,6.33.21,11.57.89,5.8,1.48,11.65,2.31,17.46,1.8,12.47,1.18,11.59,1.9,14.52.8,3.31,4.73,12.79,12.62,20.62,1.75,1.73,5.08,4.75,4.63,8.21a8.09,8.09,0,0,1-1.68,3.57c-1.87,2.7-3.4,2.84-5.89,5.26a15.47,15.47,0,0,0-4.21,6.32c-.27.83-1.74,5.32.42,7.57a4.69,4.69,0,0,0,2.94,1.26c9.87,1.2,14.8,1.79,15.78,1.69,7.82-.85,9-3,20-6.31,13.33-4,15-1.9,21.47-5.69a35.83,35.83,0,0,0,13.25-14.3c4.63-8.74,4.43-16.84,4.21-26.1-.2-8.08-1.49-14.74-3.58-25.45-1.24-6.38-2.12-9.56-2.94-16.21a101.37,101.37,0,0,1-1-15.36c.2-10.09,2.38-11.76,4.62-27.14,1.23-8.4,1.83-12.7,1.06-17.89a34.67,34.67,0,0,0-6.95-17c-3.19-4-11-11.75-16.62-9.68-2.68,1-3.1,3.57-6.73,10.52-1.8,3.43-.63.77-9.05,14.52-11.13,18.17-11.65,20.35-15.78,22.52s-4.64.65-12.63,4C869.43,357.39,865.26,359.21,863.65,363.21Z"/><path class="cls-39" d="M873.1,412.14c1.08-.18,2.12,6.92,6,13.9a43.25,43.25,0,0,0,10.42,12.25c6,5.16,11.43,7.53,18.87,10.75,6.06,2.63,9.11,4,13.73,4.64,6.09.89,12.09,2.09,16.55-1.16,1.66-1.22,3.37-3.23,4.42-2.69.3.16.73.62.7,3.15a26.31,26.31,0,0,1-1.23,7.19c-.26,1-.53,3.25-1,7.8-2.14,18.53-2.19,27.18-2.19,27.18,0,1.55,0,5.38-2.47,7.87a4.9,4.9,0,0,1-7,.59c-4.83-3.49-10.66-5.4-15.59-8.75a105.64,105.64,0,0,0-18.36-9.9c-8.16-3.39-13.21-5.49-17.48-4.67-1.54.3-3.49.15-7.4-.14a4.43,4.43,0,0,1-2.61-1c-.23-.22-.72-.67-.67-1.19.07-.71,1.06-1.16,1.49-1.35a55.68,55.68,0,0,1,12.07-3.87c6.57-1,9.85-1.52,11.4-1.57a61.89,61.89,0,0,1,11.09.71c3.69.59,7.53.28,11.14,1.27.52.14,2.14.61,2.82-.14.21-.23.37-.6.29-1.55a8.14,8.14,0,0,0-1.41-3.81c-2.57-3.52-7.19-6.17-7.77-6.49-3.82-2.16-4.48-2.07-7.76-3.81a57.18,57.18,0,0,1-9.59-6.49,45.85,45.85,0,0,1-9.6-9.88c-2.91-4.24-1.06-3.4-6.2-14-1.48-3-3.46-6.86-3.25-12C872.45,414.3,872.53,412.24,873.1,412.14Z"/><path class="cls-40" d="M875.5,295.78c-1.67,7.74-1.87,5.26-3.56,13.29a138.61,138.61,0,0,0-2.27,14.26c-1.13,11,.36,10.19-.81,18s-3,10.69-1.62,16.37c.43,1.85,1.26,3.56,2.91,7,3.88,8,5.66,7.86,8.27,14.26,1,2.38,1.76,4.94,2.76,4.87.65-.05,1-1.19,1.46-2.27.75-1.87.48-.54,4.53-7.46,8.35-14.24,15.08-26.91,15.08-26.91,10.13-19.05,6.69-14.32,12.32-24.31,5.42-9.63,10.54-17.44,7.94-20.59-.39-.48-.65-.46-3.89-1.62,0,0-3.27-1.17-10.37-4.05-6.29-2.56-6-3-9.57-4.22a60.7,60.7,0,0,0-10-2.1c-6.43-.77-9.68-1.12-11,0S876.18,292.64,875.5,295.78Z"/></g><g id="_LAYER-18_P1_" data-name="&lt;LAYER-18_P1&gt;"><path class="cls-41" d="M534,486.85a3.13,3.13,0,0,0,.51,2.26c.87,1.1,2.53,1.09,3.16,1.08,4.49,0,9.07,1,13.48.09,9-1.76,12.19,2.43,19.78.08a4.46,4.46,0,0,0,2.31-.83,3.57,3.57,0,0,0,1-2.19,5,5,0,0,0-.77-3.39c-1.4-2.07-4.69-2-7.29-2.15-9.16-.63-9-4.6-15.08-4-3.93.42-7.11,2.42-12.65,5.91C536.58,485,535.05,486.08,534,486.85Z"/><path class="cls-42" d="M541,484.34c-.9,4.67,1.66,7.92,4,13.18,1.41,3.2,2.31,7.33,4.11,15.58,1.7,7.79,2.55,11.69,2.55,15.15,0,4.25,1.08,8.52.56,12.75-.09.77-.39,3,.85,4.1.56.51,1.42.63,3.12.85a15.72,15.72,0,0,0,4.81.15,20.63,20.63,0,0,0,4.11-1.42,32.84,32.84,0,0,0,5-2.27,15,15,0,0,0,4.39-4.1,4,4,0,0,0,1-2.84,3.5,3.5,0,0,0-.85-1.7c-.26-.35-.88-1.7-2.12-4.39a43.42,43.42,0,0,1-2.41-6.94,65.15,65.15,0,0,1-2-11c-1.51-15-2.26-22.49-1-28.33.2-.89.82-3.5-.42-4.53-.88-.74-2.31-.34-3.12-.14-3.35.81-6.89.23-10.34.42-7.31.4-8.65,0-10.19,1.42A7.18,7.18,0,0,0,541,484.34Z"/><path class="cls-43" d="M558.76,392.87a14.4,14.4,0,0,1,3.32,4.86c.46,1.07,1.1,2.87,1.28,7.42.25,6.18-.76,6.9-.25,11.52a20.52,20.52,0,0,0,1.79,7.16c1.52,3.2,3,3.81,4.6,6.4s1.86,4.67,2.56,10.23c1.47,11.72,2.21,17.58,2.3,18.17,1.31,7.76,2.25,9,2,13.56-.14,3.32-.67,3.55-1,9.21-.22,3.49-.11,4.74-1,5.37-1.63,1.12-4.16-1.35-9.21-3.07a32,32,0,0,0-10-1.53c-3.59,0-9.7.11-14.84,3.84-1.74,1.26-3.34,2.92-5.37,2.56-.59-.11-1.54-.45-3.33-2.56a20.62,20.62,0,0,1-3.83-6.4c-3.23-9.41-1.54-28.15-1.54-28.15a187.64,187.64,0,0,0,.26-28.14c-.53-10.31,1.45-20.74,0-31-.21-1.45-.84-5.57,1.28-7.17,1.28-1,3-.56,8.18.77,6.51,1.66,8.51,2.23,10.75,2.82C554.62,390.82,556.39,390.67,558.76,392.87Z"/><path class="cls-44" d="M624.87,400.41c.06.88,1,1.06,2.48,2.77a20.13,20.13,0,0,1,1.85,2.69c.47.76.91,1.52,2.69,4.89,1.58,3,1.48,2.88,1.84,3.48,1.07,1.76,1.3,1.8,2.63,4a16.25,16.25,0,0,1,1.56,2.41,2,2,0,0,0,.7,1,1.68,1.68,0,0,0,1,.28,1.59,1.59,0,0,0,1.06-.42,1.85,1.85,0,0,0,.5-1,1.78,1.78,0,0,0,0-.67c0-.21-.08-.27,0-.33s.69.35,1.41.29a2.12,2.12,0,0,0,1.14-.57,2.43,2.43,0,0,0,.71-.92,2.26,2.26,0,0,0,.13-.48c0-.31,0-.49,0-.51s.24.51.71.78a2.23,2.23,0,0,0,.85.14,5.25,5.25,0,0,0,1.35,0,2.31,2.31,0,0,0,1.13-.64,2.41,2.41,0,0,0,.57-1.56,12.93,12.93,0,0,0-.5-4.18,27.07,27.07,0,0,0-1.42-4.33,15.16,15.16,0,0,0-2.69-4.46c-1.37-1.48-2-1.25-5.74-3.41-4.13-2.36-4.52-3.27-6.52-3.4a8.27,8.27,0,0,0-4.61,1.21C626.82,397.94,624.78,399.08,624.87,400.41Z"/><path class="cls-45" d="M597.69,370.87c1.24,1.58,2.25,2.71,2.94,3.49,2.7,3,4.81,5.33,7.91,7.37a31.26,31.26,0,0,0,4.29,2.28c3.76,1.73,13.33,5.56,19.58,6.84a4.66,4.66,0,0,1,3.08,1.74,3.94,3.94,0,0,1,.54,2.55c-.21,1.84-1.6,3-2.95,4.15a10.42,10.42,0,0,1-3.76,2.15,10.65,10.65,0,0,1-4.15.4,12.55,12.55,0,0,1-5.36-1.88c-3.79-2.27-8.26-3.13-12.34-4.82-13.45-5.61-16.89-5.48-26.81-10.19-9.35-4.45-9.13-6.82-14.21-8.05-1.16-.28-3.9-.84-5-2.95-.61-1.21-.49-2.59.13-4.69,1.34-4.48,2.6-8.68,7-11.53,5-3.23,10.27-2.32,12.07-2A18.92,18.92,0,0,1,591,361.08C593.42,363.68,593.34,365.36,597.69,370.87Z"/><path class="cls-46" d="M633.81,397c.59-.87,3.81,1.41,9.28,2.48a18.79,18.79,0,0,1,4.18,1.56,5.25,5.25,0,0,1,1.63,1.21,4.11,4.11,0,0,1,.86,1.35c.32.9,0,1.37-.08,2.62-.15,2.16.65,2.69.15,4.32a2.52,2.52,0,0,1-.85,1.35,2.8,2.8,0,0,1-1.49.42,7.06,7.06,0,0,1-3.12-.49c-1-.38-1.58-.6-1.92-1.21a1.82,1.82,0,0,1,0-1.91,1.43,1.43,0,0,1,.78-.43,19.22,19.22,0,0,1,3.41-.21,12,12,0,0,1-2.84-1.49c-1-.88-.87-1.47-1.7-2.41-1.29-1.47-2.6-1.13-4.47-2.12C635.08,400.68,633.28,397.79,633.81,397Z"/><path class="cls-47" d="M480.14,359.42c-1.85,1.08-.76,5.92.44,11.67,2,9.43,3.46,19,5.28,28.4s.62,6.76,3.52,26.21c1.87,12.5,2.35,13.5,4,25.1,1.77,12.73,2.66,19.09,2.64,21.58-.06,7.06-1.12,20,2,20.92a16.57,16.57,0,0,1,3.53.88c1.38.57,1.71,1,2.2.88,1.42-.38,1.36-5,1.32-6.82-.19-9.15-.28-13.72-.44-14.76-2.26-14.5-.1-15-2.64-30.83-1.92-11.94-3-10.48-4.63-22-2-13.94-.28-14.6-2.64-23.56-3-11.5-6.31-12.05-6.39-20.26,0-5.68,1.49-9.7-1.32-13.65C485.1,360.54,481.72,358.49,480.14,359.42Z"/><path class="cls-48" d="M485.2,367.34c.55-.93,6.57,1.67,10.57,3.31,7.39,3,13.22,5.4,19.38,6.82,11.33,2.63,18,.69,20.7,5.07a12.62,12.62,0,0,1,1.76,6.6,8.49,8.49,0,0,1-.88,3.75c-1.19,2.25-2.8,2.41-3.08,4.18-.16,1,.19,1.78.88,3.3a23.06,23.06,0,0,0,2.2,3.53c1.12,1.9.89,3.6.88,6.38,0,5,.72,3.82,1.1,11.67a51.48,51.48,0,0,1,0,9c-.46,4-1.13,4.14-1.76,8.59-.79,5.59.23,5.62-.66,9.47-.76,3.28-1.5,3.23-3.31,9.25-1,3.47-1.2,4.86-.88,6.38s.91,2.11.88,3.75-.72,1.94-1.1,4.18a12.84,12.84,0,0,0,.22,5.07c.45,1.94.87,1.75,1.12,3.09.68,3.57-2.24,4.84-1.9,8.93.12,1.54.61,2.25.12,3.34a4.84,4.84,0,0,1-3.1,2.26c-5.9,1.95-13.46,1.2-17.39.72-5.28-.65-7.45-1.24-8-2.74-.29-.82.1-1.39.48-3.46a36.08,36.08,0,0,0,.36-5.95,84.83,84.83,0,0,0-.48-9.53c-.45-4.52-.71-4.33-1.07-8.1-.34-3.57-.12-3.91-.36-9.76a99.54,99.54,0,0,0-.83-11.44c-.51-3.47-1.25-6.68-1.79-9-.59-2.61-.66-2.58-1.31-5.36a106.71,106.71,0,0,1-2.14-10.71c-.22-1.68-.35-4.38-.6-9.77s-.22-7.23-1-10.12c-.31-1.21-.88-2.71-2-5.72-2.42-6.32-2.83-6.41-3.7-9.41-1.11-3.82-1.66-5.73-1.54-8.33.1-2.36.67-4.21-.36-6.55C485.93,368.36,485,367.74,485.2,367.34Z"/><path class="cls-49" d="M607.62,339.14c1.06.73-.42,3.64-2.11,11.14-1.38,6.15-2.07,9.22-2.31,12.18-.3,3.82-.17,7.31-1.89,8-.5.2-.84,0-2.1-.21a34.07,34.07,0,0,0-5.67-.42c-3.84-.25-9.87-.64-11.35-3.78-.11-.25-.51-1.17,0-3.58.75-3.49,2.63-6.48,5.89-9.87,2.43-2.54,3-2.59,13.44-10.09C605.42,339.7,606.85,338.62,607.62,339.14Z"/><path class="cls-50" d="M493.13,313.68A11.77,11.77,0,0,0,489,316.6a21.93,21.93,0,0,0-3.81,5.45c-3.94,6.89-3.39,5.57-4.43,7.61-3.09,6-2,5.88-4.82,11.29-1.45,2.74-2.26,5.84-4.06,8.37-.4.56-1.52,2.07-1,2.92.34.57,1.16.37,2.41,1a6.23,6.23,0,0,1,2.16,1.9,9.73,9.73,0,0,1,1.65,4.31c.5,2.05,2,3.52,4.94,6.47a39.86,39.86,0,0,0,9.77,7.1c1.21.64,2.18,1.08,9.76,3.81,9.68,3.48,11.31,3.91,15,5.58,3.87,1.76,3.07,1.74,7.86,4.06a140.3,140.3,0,0,0,16.87,6.72c7,2.28,4.28.81,11,2.91,3.39,1.07,5.55,1.9,7,.77s1.54-3.48,1.4-4.82a9.42,9.42,0,0,0-.76-2.67c-.6-1.25-1.08-1.4-1.14-2.15-.1-1.17,1-1.67,1.52-2.92.88-2-.26-4.37-.51-4.82-2.05-3.77-9.81-.51-16.36-3.17-4.59-1.86-5.38-5.33-11.79-17.25-9-16.73-8.72-12.22-16.36-26.75-3.91-7.44-7.17-14.66-13.57-17.63C500.21,314,496.68,312.41,493.13,313.68Z"/><path class="cls-51" d="M622.32,320.23a10.89,10.89,0,0,1-1.47,4.84,16.3,16.3,0,0,1-1.89,2.31,41.22,41.22,0,0,0-3.78,4.62c-1.43,2.64-.19,3.58-1.47,6.09-1,1.86-1.9,1.89-4.41,4.2-1.09,1-.9,1-6.1,7.57A48,48,0,0,1,598,356c-.73.69-1.28,1.14-3.57,2.94-3.88,3.06-6.93,5.4-7.56,5.89-5.79,4.44-5,4.18-8.41,6.72a122.23,122.23,0,0,1-12.18,7.77c-3.1,1.78-2.58,1.35-7.78,4.2-10.16,5.58-12.38,7.36-14.71,6.31-.81-.37-1-.81-3.57-5.25-5.08-8.87-4.14-7-5.46-9.46-3.77-7.13-3.09-7-5.67-11.56-.89-1.58-3-4.71-7.15-10.92-5.38-8-5.68-8.37-6.93-10.51-3.32-5.69-2.67-5.89-5.46-10.5-3.93-6.48-5.89-9.72-9.88-12S491.2,317.08,491,315c-.06-.61.45-1.39,1.47-2.94a29.06,29.06,0,0,1,2.94-3.78,90.31,90.31,0,0,1,7.14-6.51c6.51-5.35,5.82-5.43,10.3-8.83,3.17-2.41,2.88-1.88,7.14-5,4.47-3.31,5-4.05,9.25-7.15a70.09,70.09,0,0,1,7.77-5.25c3-1.67,5.6-2.58,10.72-4.41a73.07,73.07,0,0,1,10.92-3.36,57.1,57.1,0,0,1,10.3-1,55.15,55.15,0,0,1,11.34.63,45.74,45.74,0,0,1,13,4c4.83,2.36,4.94,3.59,8.82,4.62a4,4,0,0,1,3.26,3.43c.14.59-1.35-.2-1.95,1.65,0,0-.3.93-.75,3.1-.51,2.39-.42,5.27-.26,9,.26,6,.44,8.18,1.09,11a10.43,10.43,0,0,0,1.93,4.27c.61.77,5.1-1.08,6.93-.74a13,13,0,0,0,2.34.08c1.47,0,1.69-.11,2.18-.08,2.21.14,3.78,2.76,4.18,3.43C622.55,313.46,622.39,319.2,622.32,320.23Z"/><path class="cls-52" d="M626.17,277.45c-1.74.05-1.91,1.74-5.94,3.64-2.36,1.11-4.91,2.32-7.67,1.72-3.64-.78-7.14-5.23-8.93-4.56-1,.38-.26,2.85-.61,4.18a14.91,14.91,0,0,0,0,6.71c.27,1.71-.29-1.31.77,9.58.56,5.84.82,7.77,2.3,9.78a6.48,6.48,0,0,0,4.17,2.11c1.07-.07,1.19-1,2.3-1.54,2.59-1.19,7.07,1.6,9.59,4,1.27,1.23,1.64,2,2.68,2.1,1.25.15,2.69-.71,4.6-3.25,6.31-8.42,6.13-16.49,6.13-16.49C635.36,286.67,630.31,277.31,626.17,277.45Z"/><path class="cls-53" d="M653.75,294.62c-.91.34.36,3.48.76,12,.18,3.82.09,6.89,1.51,10.32a15.38,15.38,0,0,0,2.65,4.26,9.39,9.39,0,0,0,2.84,2.37,14.12,14.12,0,0,0,3.41,1c4,.84,4.48.49,4.64.28.37-.46.12-1.21-.19-2.08a14,14,0,0,0-2.65-4.26c-1.11-1.53-1.17-2.47-2.08-5.21a61.19,61.19,0,0,0-4.36-9.75C659.73,302.48,655.27,294.05,653.75,294.62Z"/><path class="cls-54" d="M530.07,322.07c-.3.27-.13.21-3.13,6.55-.78,1.64-1.53,3.29-2.32,4.91-1.86,3.8-2.08,3.91-2,4.51.15,3.25,6.77,5.42,10.23,6.55,4.26,1.39,10.17,3.23,16.51,1.09,1.81-.61,4.47-1.56,5.74-4.1a7.81,7.81,0,0,0,.4-5.18c-.2-1-1.15-4.87-7.36-9.28C543.58,323.92,533.9,318.74,530.07,322.07Z"/><path class="cls-55" d="M553.1,536.94c-.71,1.54-.2,1.81-1,7.5a49.24,49.24,0,0,1-.94,5.74c-1.14,4.49-2.54,5.71-2,8.08a4.76,4.76,0,0,0,1.88,2.82c1.14.65,2.29.26,3.61-.1,2.16-.59,4.41-.78,6.6-1.26a72.88,72.88,0,0,1,7.63-.88c1.92-.18,2.62-.21,11.31-.78,5.89-.38,6.52-.42,8-.39,2.72.07,3.1.29,6.94.39,4.24.12,3.47-.16,6.43,0,.71,0,2.19,0,5.14-.19a3.22,3.22,0,0,0,2.66-1,2.73,2.73,0,0,0,.51-1.94,2.64,2.64,0,0,0-.85-1.56,3.67,3.67,0,0,0-2.15-.87c-1.51-.21-1.92.25-3.34.12a7.52,7.52,0,0,1-2.23-.61,31,31,0,0,1-5.74-2.73c-3.76-2.29-4.27-1.58-9.69-4.38-4.8-2.47-7.2-3.71-9-5.74-2.67-3-3-5.35-6.34-7.59a9.38,9.38,0,0,0-4.38-1.76c-2.3-.24-4,.61-6.43,1.85C556.16,533.55,554.18,534.56,553.1,536.94Z"/><path class="cls-56" d="M562.59,538.28c.47,2.7,1.12,6.41,4.09,7.6,2.65,1,5.38-.61,5.65-.78a5.71,5.71,0,0,0,2.72-3.41c.13-.62.17-1.65-2.92-6.42-2.67-4.12-3.49-4.56-4.18-4.77a4.81,4.81,0,0,0-4.48.87C561.67,533,562.17,535.89,562.59,538.28Z"/><path class="cls-57" d="M507.75,499.92c-1.22,1.74-.17,3.2,2.84,13.88,2.36,8.38,3.54,12.67,4,17.71.41,4.83.57,8.21.57,8.21.11,2.32.32,4.63.42,6.94.13,2.68.11,3.41.57,4.53a9.54,9.54,0,0,0,3.82,4.25,14.82,14.82,0,0,0,6.8,2.27,16.15,16.15,0,0,0,8.08-.57,9.07,9.07,0,0,0,4.67-3.11c.29-.41,1.89-2.62,1.27-5a5.37,5.37,0,0,0-1-1.84c-1.13-1.66-2-3.51-3-5.24a47.35,47.35,0,0,1-3.68-8.36,41,41,0,0,1-2-11.9c-.77-14.73-1.67-22.07-1-26.62.09-.61.34-2.13-.42-2.69-1.24-.92-3.93,1.6-7.37,3.4C514.65,499.85,510,496.78,507.75,499.92Z"/><path class="cls-58" d="M633.4,269.37c-1.14.6-2.59,2.22-5.47,5.47s-4.41,5-5.17,6.84c-2.16,5.35-.1,10.66.31,11.69s1.07,2.53,5.77,7.75c8.2,9.13,12.61,11.59,14.73,12.61a14.12,14.12,0,0,0,7,1.67,16.59,16.59,0,0,0,4-.76,24.22,24.22,0,0,0,5.78-2.43c5-3.28,4.33-13,4.25-14.28-.61-9.4-6.38-15.77-8.81-18.38C650.17,273.58,639.56,266.14,633.4,269.37Z"/><path class="cls-59" d="M618.39,306.9c0,1.76.51,2.36.61,6,0,.81,0,1.92.1,4a14.42,14.42,0,0,0,.5,4,5.79,5.79,0,0,0,1,2.21c.93,1.13,2.19,1.49,3.72,1.91a8.09,8.09,0,0,0,3.22.51c.76-.08,2.33-.39,3,0a3.14,3.14,0,0,1,.67.46c.2.2.24.32.43.43a1.38,1.38,0,0,0,.65.13,6.32,6.32,0,0,0,1,0,1.3,1.3,0,0,0,.91-.56c.06-.12.05-.17,0-1,0-.6,0-.5,0-.78s0-.69,0-1.13-.08-.79,0-.83.19.14.52.48c0,0,.25.24.65.61.08.07.42.39.87.78.62.54.69.58.78.61.3.1.32,0,1,0a3.66,3.66,0,0,0,.78,0,1,1,0,0,0,.65-.22c.16-.18.07-.33.17-.69s.13-.26.53-.87a5.84,5.84,0,0,1,.52-.83,2.11,2.11,0,0,1,.87-.61.73.73,0,0,1,.61,0c.13.08.11.2.26.52a8.29,8.29,0,0,0,.47.74c.28.41.31.46.4.52a2,2,0,0,0,.56.26,5,5,0,0,0,.65.22,2.16,2.16,0,0,0,.78.09,1.66,1.66,0,0,0,.83-.4,3,3,0,0,0,.87-1.08,19.71,19.71,0,0,0,1-2.61,8.81,8.81,0,0,1,1.68-3.07c1.5-1.65,3.39-1.82,3.33-2.59,0-.34-.42-.54-.72-.71a12.2,12.2,0,0,1-4.14-4.79,11.85,11.85,0,0,1-1.2-4,20,20,0,0,0-5.64-9.89c-.72-.66-5.49-5-10.9-3.76-3.52.78-5.43,3.48-8.64,8C619.83,302.14,618.44,304.12,618.39,306.9Z"/><path class="cls-60" d="M643.18,287.26c-.17-1.7-.26-2.54-.73-3.08a4.09,4.09,0,0,0-3-1.05,7,7,0,0,0-3.41.64,9.56,9.56,0,0,0-4.37,9.48,4.88,4.88,0,0,0,1.05,2,2.82,2.82,0,0,0,1.3,1,3.18,3.18,0,0,0,2.59-.65,6.2,6.2,0,0,0,1-.89c1.42-1.37,2.21-1.12,3.81-2.43a4.8,4.8,0,0,0,1.7-1.94A6.34,6.34,0,0,0,643.18,287.26Z"/><path class="cls-61" d="M524.48,337.35a4.77,4.77,0,0,0-2.59,2.73,5.42,5.42,0,0,0,.54,3.55,11.05,11.05,0,0,0,1.78,3,49.52,49.52,0,0,0,5.86,5.87c6.81,5.76,6.23,5.34,7.1,6,2.52,1.92,4.58,3.27,7.64,5.19,5.44,3.42,8.15,5.13,12.56,7.64,2,1.17,23.28,14.17,26.74,16.92a8,8,0,0,0,2.18,1.23,5.1,5.1,0,0,0,2.87.41,4.91,4.91,0,0,0,3.14-2.73c.49-1.13.32-2.17,0-4.23s-.57-3.55-1.64-4.91a7.52,7.52,0,0,0-3.14-2.19c-2.43-1.1-2.42-1.81-8-6.55-2.87-2.4-5.37-4.29-10.37-8-5.85-4.4-5.66-4-6.28-4.77-3.66-4.52-2.42-8.39-6.68-12.15a8.07,8.07,0,0,0-4.1-2.18c-1.91-.31-2.81.45-5,.55-1,0-2-.06-5.59-1.23-4.52-1.46-5.18-2-8.73-3.14C527.11,336.53,525.54,336.85,524.48,337.35Z"/><path class="cls-62" d="M605.65,278.25a3.73,3.73,0,0,0-3.24-1,2.54,2.54,0,0,0-1.2.72,3.54,3.54,0,0,0-.78,2.52c0,4.17-.78,1.67-.48,9.85.1,2.95.28,5.21.42,6.72a49.9,49.9,0,0,0,1,6.85c.78,3.55,1.51,4.71,2,5.4a7,7,0,0,0,3.12,2.52,9.82,9.82,0,0,0,3.84.42c1.25,0,1.32-.18,2.41-.12a2.54,2.54,0,0,0,2.16-1.17,1.43,1.43,0,0,0,0-1.44,1.2,1.2,0,0,0-.31-.4c-.39-.32-.86-.26-1.5-.23s-1.34,1.11-2.27,1.05a7,7,0,0,1-1.41-.18,5,5,0,0,1-1.67-.85,5.59,5.59,0,0,1-1.34-1.47,17.92,17.92,0,0,1-2.07-6.6c-.38-3.62.05-3.38-.27-7.52-.35-4.65-.53-7-.54-7a7.92,7.92,0,0,1,.18-3.92,7.73,7.73,0,0,1,1-1.8,4.82,4.82,0,0,1,.63-.72l.24-.22C605.71,279.41,605.84,279,605.65,278.25Z"/><path class="cls-63" d="M584.23,388.94c-.61.5.55,2.92.65,3.13a9.87,9.87,0,0,0,1.47,2.2,31.75,31.75,0,0,1,2.21,2.39,4.83,4.83,0,0,1,.64,1,5.67,5.67,0,0,1,.09,2.85,24.5,24.5,0,0,0,.28,3.21,32.91,32.91,0,0,0,.55,3.41c.41,1.88.66,2.25,1,2.48s.94.24,2,.18c1.32-.06,2-.09,2.39-.55.23-.25.23-.44.46-1.84a15,15,0,0,0,.37-2.2c-.07-.89-.42-.89-1.19-2.85a5.54,5.54,0,0,1-.56-2.12,10.57,10.57,0,0,1,.28-1.65h0a2.83,2.83,0,0,1,1.66.64c.29.34.2.7.27,1.47a9.9,9.9,0,0,0,.55,2.3c.68,2.59-3.28,7.93-2.57,8.55.51.45,3.33-1.6,4.87-3a17.12,17.12,0,0,1,2-1.75c1.22-.88,1.5-.8,1.84-1.29,1-1.38,0-3.66-.27-4.23a8.31,8.31,0,0,0-2.39-3c-2.14-1.79-3.13-1.43-6.26-3-.81-.41-2.65-1.65-6.34-4.13C585.77,389.37,584.67,388.59,584.23,388.94Z"/><path class="cls-64" d="M584.6,384.9a7.14,7.14,0,0,0-.36,4.4,6.84,6.84,0,0,0,1.17,2.45c1,1.25,1.94,1.56,4.21,2.72,3.56,1.81,2.91,1.94,5.25,2.95s3.11.95,4.73,2.1a8.47,8.47,0,0,1,2.36,2.23c1.55,2.29.78,4.12,2.3,5.05a6.42,6.42,0,0,0,2.16.66,2.29,2.29,0,0,0,1.38,0,1.8,1.8,0,0,0,.92-.92,2.42,2.42,0,0,0-.13-1.64c-.64-2.29-.72-2.49-.72-2.49a16.41,16.41,0,0,1-.79-2.82c-.06-.4-.12-.9-.13-1-.1-.9-.12-1.52-.13-1.71a8.63,8.63,0,0,0-1.91-4.39,9.72,9.72,0,0,0-1.83-1.71,42.13,42.13,0,0,1-5.65-5c-1.84-2.09-2.14-3.41-4.26-5.12a4.23,4.23,0,0,0-2.69-1.11,5.62,5.62,0,0,0-2,.59,8.25,8.25,0,0,0-2.43,1.25A5.12,5.12,0,0,0,584.6,384.9Z"/><path class="cls-65" d="M516.28,544.34c-1.39,2.76.06,3.19-1.51,7.91a14.42,14.42,0,0,0-.85,4.62,6.36,6.36,0,0,0,.47,2.64,5.82,5.82,0,0,0,1.51,2.07,6.3,6.3,0,0,0,3.56,1.36c3.26.35,3.36,1.59,9.5,3.39a57.71,57.71,0,0,0,10.68,2c1,.11,3.7.24,9.16.51,4.86.24,4.44.18,7.12.34,1.69.1,3.79.24,6.78.34,0,0,1.61.06,4.24,0a20.61,20.61,0,0,0,4.24-.51c1.39-.31,2-.6,2.33-1.16a2.34,2.34,0,0,0,.2-1.76,3.19,3.19,0,0,0-2-1.94,7,7,0,0,0-2.44-.2c-1.52,0-1.76.15-2.53.1a7.34,7.34,0,0,1-3-1c-3.63-1.88-1.95-.54-7.1-3.31-1.71-.93-4.21-2.28-7.69-4.48-5.25-3.32-7.88-5-10.12-7.2-1.63-1.61-2.52-2.82-5.75-5.94-2.31-2.24-3.44-3.16-5.16-3.6a9,9,0,0,0-5.35.39A11.49,11.49,0,0,0,516.28,544.34Z"/><path class="cls-66" d="M521.35,553.84c2-1,2.78-.58,3.74-1.52,1.27-1.24,1.19-3.22,1.15-4.21a9.63,9.63,0,0,0-2.45-5.72c-.95-1.2-3.28-4.13-5-3.59-2,.6-2.11,5.27-2.21,9,0,1.34-.21,7.77,1.53,8.17C518.83,556.16,519.13,555,521.35,553.84Z"/><path class="cls-67" d="M556.53,565c.78-.59,1.82-.49,4.21.07a22.1,22.1,0,0,1,4.27,1.21c2,1.09,3.9,3.09,3.49,4-.18.39-.77.5-1.57.64a6.52,6.52,0,0,1-2.63-.07c-3.6-.8-5.39-1.21-6.91-2.49-.6-.51-1.69-1.45-1.5-2.42A1.62,1.62,0,0,1,556.53,565Z"/><path class="cls-68" d="M550.54,565c.78-.59,1.82-.49,4.2.07a22.05,22.05,0,0,1,4.28,1.21c2,1.09,3.9,3.09,3.49,4-.18.39-.77.5-1.57.64a6.52,6.52,0,0,1-2.63-.07c-3.6-.8-5.39-1.21-6.91-2.49-.6-.51-1.69-1.45-1.5-2.42A1.62,1.62,0,0,1,550.54,565Z"/><path class="cls-69" d="M546.74,565.32c.63-.42,1.42-.29,3.23.26a16.31,16.31,0,0,1,3.23,1.14c1.49.93,2.86,2.57,2.5,3.24-.16.3-.62.35-1.24.42a5.37,5.37,0,0,1-2-.18c-2.73-.8-4.09-1.2-5.2-2.26-.44-.43-1.22-1.2-1-1.94A1.2,1.2,0,0,1,546.74,565.32Z"/><path class="cls-70" d="M541.57,564.83c.67-.34,1.45-.12,3.18.64a17.1,17.1,0,0,1,3.07,1.52c1.37,1.11,2.53,2.9,2.09,3.52-.19.27-.65.27-1.28.27a5.18,5.18,0,0,1-2-.43c-2.61-1.11-3.92-1.67-4.89-2.86-.38-.47-1.07-1.34-.79-2A1.2,1.2,0,0,1,541.57,564.83Z"/><path class="cls-71" d="M497.77,490.9c-1.13.39-1.6,2.07-1.74,2.56-.32,1.13,0,1.23-.33,2.57a6.87,6.87,0,0,0-.58,2.15,2.35,2.35,0,0,0,.41,1.57c.72.78,2,.08,3.89.25s1.83.89,4,1.48c1.5.42,2.17.25,5.87.17,0,0,2.61,0,5.38,0,5.07.1,5.77.51,8.35.08a12.56,12.56,0,0,0,4.14-1.16c2.07-1.06,2.51-2.19,4.21-2.31,1.27-.09,2,.46,2.73-.08.3-.24.51-.61.66-1.82.3-2.3.49-3.85-.41-4.72s-2.09-.58-4.13-.25c-2.32.39-3,.94-6.29,2a20.18,20.18,0,0,1-5.21,1.24c-1.31.07-1.66-.1-5-.58-4.07-.58-3.94-.38-7.2-.91s-4.88-.78-5.79-1.24C499.43,491.27,498.66,490.59,497.77,490.9Z"/><path class="cls-72" d="M532.6,488.45a4.12,4.12,0,0,0,2.88,2.07,3.53,3.53,0,0,0,2.3.06c1.13-.44,1.39-1.5,2.07-2.47,1.09-1.58,2.72-2.09,6-3.11a24.25,24.25,0,0,1,6.72-1,32.27,32.27,0,0,1,6.56.52c3.76.58,6.39,1,9.54,2.41s5,3,6.61,2.19a3.37,3.37,0,0,0,1.38-1.61c.31-.73.14-1.11.12-3,0-2.05.18-2.14-.06-2.59-.46-.89-1.5-1.09-3.51-1.61-1.54-.4-3.05-.92-4.59-1.32-.92-.24-.5-.15-7.42-2.25-3.82-1.15-4.24-1.27-5.06-1.43a18.56,18.56,0,0,0-6-.52,15.31,15.31,0,0,0-6.44,2.41c-3.65,2.19-3.35,3.57-6.84,5.18a7.79,7.79,0,0,0-2.88,1.72C533.73,484.35,531.79,486.49,532.6,488.45Z"/><path class="cls-73" d="M561.57,279.92c2-.88,4.51,0,9.61,1.72,4.16,1.42,6.82,2.32,9.17,4.88,1.18,1.27,2,2.86,3.59,6,1.71,3.37,2.56,5,2.72,6.89.06.66.18,2.65-2.29,8.17-2.06,4.62-2.83,4.76-4.88,9-2.86,6-3.93,4.2-6.23,7.67-2.93,4.43-4.9,3.88-6.46,7.75-1.25,3.12-2.53,1-4.37,4.12a11.9,11.9,0,0,1-4.44,4.31,4.5,4.5,0,0,1-2.44.71c-1.8-.1-3-1.64-3.59-2.29-2.16-2.6-.46.89-2.87-1.48a58.68,58.68,0,0,0-10.76-8.17c-3.28-2.05-4.93-3.07-5.73-3.45-2.31-1.07-4.34-1.69-4.31-2.58,0-.51.73-.65,1.58-1.43a7.43,7.43,0,0,0,2-4c.58-2.2,2.39-4.24,6-8.31,4.57-5.14,5.49-4.51,10.18-9.47a48,48,0,0,0,7.46-9.47C559.19,284.25,558.63,281.23,561.57,279.92Z"/><path class="cls-74" d="M527.92,324.12a1.58,1.58,0,0,1-.27-1.12,3.25,3.25,0,0,1,.59-1.71,6.13,6.13,0,0,1,4-2.24,7.16,7.16,0,0,1,2.83,0c2.4.51,3,2.09,6.93,5.6.61.55,2.11,1.88,4.11,3.36,2.79,2.07,2.82,1.69,4.85,3.25,3.76,2.91,2.71,3.54,6.24,6.45a2.91,2.91,0,0,1,1.28,1.87,2.76,2.76,0,0,1-1.87,2.61,2.18,2.18,0,0,1-.85.11,4.2,4.2,0,0,1-2.67-1.81c-1.08-1.27-2.63-2.06-3.89-3.15,0,0-2.79-2.41-5.71-4.69-3.18-2.49-2.45-1.59-7.09-5-3.29-2.43-4.7-3.66-6.4-3.36C529.54,324.36,528.42,324.66,527.92,324.12Z"/><path class="cls-75" d="M624.89,263.72a10.59,10.59,0,0,0-1.61,2.09c-1.61,2.29-1.68,2.79-1.52,3.12s.56.35,1.42.66a21.9,21.9,0,0,1,2.65,1.42c3.33,2,5.46,5.86,7.3,5.31.45-.14.79-.52,1.42-1.23a3.57,3.57,0,0,0,1.13-2c0-1.1-1.48-1.9-2.27-2.37C628.15,267.6,626.78,263,624.89,263.72Z"/><path class="cls-76" d="M659.94,267.13a1.81,1.81,0,0,1,1.46,0,3.16,3.16,0,0,1,1.5.91,2.74,2.74,0,0,1,.7,1.35c0,.25.2,1.17-.26,1.54-.64.51-2-.38-2.37-.62s-1.86-1.21-1.69-2.27A1.39,1.39,0,0,1,659.94,267.13Z"/><path class="cls-77" d="M629.27,274.33a21.68,21.68,0,0,0,4.16-5.89,9.77,9.77,0,0,0,1-5.07c-.12-1.28-.54-2.42,0-2.84s1.08,0,1.79.22a32.1,32.1,0,0,0,4.85.45c3.28.21,4.87.41,8.06.82.29,0,.93.13,1,.38s-1.1.8-1.86,1.12c-1.7.7-3.27,1.67-4.93,2.46a21.37,21.37,0,0,0-7.23,5.22c-1.2,1.4-3.48,4.54-4.78,4.4-.06,0-.29,0-.55-.1-.63-.16-1.72-.54-1.7-.93C629.1,274.45,629.23,274.36,629.27,274.33Z"/><path class="cls-78" d="M648,262.68a6.94,6.94,0,0,1,3.09-.06,9.88,9.88,0,0,1,2.77,1.31c1.61.92,1.54,1.13,3.47,2.26.48.28,1,.58,1,.67a12,12,0,0,1-2-.44s-.9-.19-1.63-.27c-1-.11-1.93.22-4.72,1.79-1.43.81-2.34,1.32-3.75,2.23a29.67,29.67,0,0,0-3.75,2.66,14.34,14.34,0,0,0-3.31,3.59s-1,1.8-2.06,2.17a1.18,1.18,0,0,1-.55.05,1.06,1.06,0,0,1-.54-.27,13.23,13.23,0,0,0-1.47-.87c-1.52-1-1.81-1.17-2.11-1.19a1.35,1.35,0,0,1-.56-.17.63.63,0,0,1-.23-.2c-.16-.27.12-.7.21-.85a14.56,14.56,0,0,1,2.13-2.64c1.58-1.41,1-1.49,2.64-3a20,20,0,0,1,3.58-2.58c1.94-1.15,2-.85,3.87-2C646.34,263.59,646.57,263,648,262.68Z"/><path class="cls-79" d="M664.28,271.68a21.31,21.31,0,0,1,2.05,2.58c2.27,3.58,3.91,6,4.92,8.54a8,8,0,0,1,.47,1.72,7.8,7.8,0,0,1,0,2.67c-.7,4,.18,9.39-1.61,14.12a37.31,37.31,0,0,0-1.62,3.83,6.28,6.28,0,0,1-.9,1.84,1.76,1.76,0,0,1-.78.73,1.87,1.87,0,0,1-1.58-.31,9.93,9.93,0,0,1-2.88-3.15c-1.88-2.61-3.26-1.6-5.83-4.67a7.31,7.31,0,0,1-1.83-3.73,4.26,4.26,0,0,1,1.1-3.72c.41-.5.49-.71,2-3.68,2.42-4.78,2.8-5.55,3.57-7.08a15.7,15.7,0,0,0,1.1-2.36,14.38,14.38,0,0,0,.42-5.3c-.12-2-.43-3.11-.07-3.26C662.88,270.39,663.13,270.42,664.28,271.68Z"/><path class="cls-80" d="M636.57,278c0,.37.31.65.78,1.16a6.43,6.43,0,0,0,1.63,1.26c.88.47.86.68,4.1,3.2,3.48,2.71,3.36,2.36,6.19,4.62a45.62,45.62,0,0,1,4.15,3.47c.69.87,1.63,2.3,2.37,2.1.2-.06.36-.23.63-.53a4,4,0,0,0,.78-1.26c.49-1.24,3.06-6.74,4.62-9.5a14,14,0,0,0,1.32-3,14.57,14.57,0,0,0,.42-1.84c.39-2.32.72-4.3-.24-6.15a8.9,8.9,0,0,0-1.46-1.87,11.81,11.81,0,0,0-2.68-2.36,12.08,12.08,0,0,0-2.31-1.1,7,7,0,0,0-2.45-.54,5.41,5.41,0,0,0-2.54.76,69.33,69.33,0,0,0-6.06,3.51c-2.28,1.41-2.31,1.37-3,1.91-1.66,1.25-1.46,1.47-3.54,3.24C637.47,276.57,636.45,277.15,636.57,278Z"/><path class="cls-81" d="M653.18,291.73c-.66,1,1.41,8.33,1.41,8.33,1.14,4.07.2,3.68,1.44,8.24,1.29,4.77,2.78,6.91,3.23,7.52.26.37,1.29,1.42,3.36,3.53a22.91,22.91,0,0,0,6.42,4.56c.18.07.68.27.82.11s0-.29,0-.34a20.16,20.16,0,0,1-.44-3c-.31-1.31-.19-1.7-.81-5.9-.87-5.94-1.08-4.89-1.09-5.94a4,4,0,0,0-.67-2.4,3.17,3.17,0,0,0-.39-.45c-1-1-1.61-1.9-3.24-3.73-1.29-1.44-2.67-2.83-5.45-5.61A14.3,14.3,0,0,1,656,294.7a19.17,19.17,0,0,1-2-2.78c0-.11-.21-.47-.44-.48S653.23,291.66,653.18,291.73Z"/><path class="cls-82" d="M673.13,449.92a4.9,4.9,0,0,1,.06-1.57,2.53,2.53,0,0,1,.62-1.35,1.9,1.9,0,0,1,.87-.53,2.28,2.28,0,0,1,1.49.25,5.57,5.57,0,0,1,1.63,1.1,10.85,10.85,0,0,1,1.82,2.24,14.87,14.87,0,0,1,1.35,2.76,20.81,20.81,0,0,1,1.21,5.22,25,25,0,0,1-.08,5.45,10.56,10.56,0,0,1-.79,3.2,7.3,7.3,0,0,1-1,1.58,1.9,1.9,0,0,1-1.07.76,1,1,0,0,1-.59-.06,1,1,0,0,1-.42-.42,1.91,1.91,0,0,1-.11-1.27c.26-1.14-.45-6-1.71-9.29C675.46,455.61,673.4,451.71,673.13,449.92Z"/><path class="cls-83" d="M673.81,447.91c-.78,2.24-9,9.72-11.09,10.68a1.56,1.56,0,0,0-.93.87,1.19,1.19,0,0,0,.06.7c.45,1.53.69,2.3,1.16,2.61a1.79,1.79,0,0,0,.87.29c1,.11,4.48,1.16,13.19,4.3l1.74,1,1-.58c1.23-.7,1.69-3.54,1.69-3.54a24.76,24.76,0,0,0-.18-8.71,19.74,19.74,0,0,0-2.38-5.69c-.19-.31-1.52-2.43-3.19-2.9a1.79,1.79,0,0,0-1.34,0A1.61,1.61,0,0,0,673.81,447.91Z"/><path class="cls-84" d="M605.37,464.74c5.75-3.08,8.39-1.37,23.45-2.65,7.38-.64,5.51-.94,22.11-2.87,5.05-.58,14.51-1.63,14.51-1.63h0s.37.52.39.56c.63.9.51,5.44.51,5.44h0l-8.33.88c-10.1,1.08-29.9,4.16-42.93,6.37-12.25,2.08-18.37,3.12-19,3.37-.25.1-.94.39-1.1.21C594.44,473.8,599.58,467.85,605.37,464.74Z"/><path class="cls-85" d="M610.1,417.88c.52-1.45,3.41-.47,10.06-2.22a42.75,42.75,0,0,0,8.66-3.22l15.43-7.82c.52.49,1.22,1.17,2,2,1.37,1.46-10.38,7.92-10.51,8.27s-1,.55-1.3.59c-1.33.15-1.36.58-6.76,3.17-7.14,3.41-10.75,5.11-12.84,4.52C611.93,422.36,609.56,419.37,610.1,417.88Z"/><path class="cls-86" d="M547.35,443.58l50.38-42.49c21.59,17.11,33.82,34.39,33.82,34.39L592.27,490S565.39,458.75,547.35,443.58Z"/><path class="cls-87" d="M631.59,435.58c.12.13.42.46.75.4s.47-.36.67-.68a3.17,3.17,0,0,0,.45-1.11c.15-1-1.06-2-1.52-2.39-1.39-1.17-2.28-2.84-3.6-4.09-4.08-3.85-5.82-6.89-14.75-15.58-.82-.8-3.65-3.54-7.51-7-2.34-2.1-5.07-3.8-7.12-6.18a.89.89,0,0,0-.59-.35,1.13,1.13,0,0,0-.66.29,2,2,0,0,0-.89,1.18c-.11.69.57,1.3.89,1.57l7.31,6.32c.65.53,1.47,1.32,3.13,2.88.49.47,2.4,2.28,5.34,5.3.47.48.67.69,3.93,4.11l5.13,5.38c4.86,4.93,4.75,4.24,5.38,5.4A28.21,28.21,0,0,0,631.59,435.58Z"/><path class="cls-88" d="M603.56,474.31s-5.5-13.17-41.46-43.26"/><path class="cls-89" d="M601.33,476.67s-5.57-13.24-41.77-43.55"/><path class="cls-90" d="M626.05,443s-4-11.72-34.5-36.61"/><path class="cls-91" d="M624,446s-4.23-12.38-35-37.46"/><ellipse class="cls-92" cx="569.53" cy="467.06" rx="9.12" ry="32.29" transform="translate(-163.45 539.52) rotate(-45)"/><path class="cls-93" d="M633.45,392.12c.24-.07.79-.21,3.47.57.54.15,1.69.5,3.34,1.13a13.41,13.41,0,0,1,3.19,1.49,9,9,0,0,1,1.84,1.91,19.28,19.28,0,0,1,2.12,4.12c1.19,2.69,1.36,3.48,1.07,4.32a3.31,3.31,0,0,1-.57,1c-.41.54-.91.93-3.9,2.13a6.75,6.75,0,0,1-2.55.64c-1,0-1.28-.27-1.35-.36a2.36,2.36,0,0,1-.14-1.49h0a8.3,8.3,0,0,1,1.77-3.4c.61-.65.83-.56,1.07-1.06a4.35,4.35,0,0,0,.07-2.55h0a24.92,24.92,0,0,1-6.74-1.28,8.39,8.39,0,0,1-3.19-1.77c-.59-.59-1.88-1.86-1.56-3.33A3,3,0,0,1,633.45,392.12Z"/><path class="cls-94" d="M728.58,490.52a23.45,23.45,0,0,0-.14,4.09c.08.55,1,1,1.62,1.45.34-.72,1.12-1.57,1-2.13a17,17,0,0,0-1.88-3.44Z"/><path class="cls-95" d="M701.62,457.67a20,20,0,0,0,2.48,2.48,3,3,0,0,0,2.06.33c.31,0,.8-1,.66-1.27a3.16,3.16,0,0,0-1.56-1.42,21.55,21.55,0,0,0-3.43-.58Z"/><path class="cls-96" d="M715.3,508.81a17,17,0,0,0-.2,3.88c.09.57,1.17,1,1.8,1.45.31-.67,1-1.47.84-2a20.12,20.12,0,0,0-1.87-3.47Z"/><path class="cls-97" d="M724.05,522.27a17.7,17.7,0,0,0-.2,3.89c.09.57,1.18,1,1.81,1.45.3-.67,1-1.47.83-2a20.12,20.12,0,0,0-1.87-3.47Z"/><path class="cls-98" d="M689.79,463.17a27.48,27.48,0,0,0,3.06,2.89,3.07,3.07,0,0,0,2.11.23c.27-.05.67-1,.51-1.35a2.52,2.52,0,0,0-1.44-1.25A33.47,33.47,0,0,0,689.79,463.17Z"/><path class="cls-99" d="M683,465.3a17.84,17.84,0,0,0,1.73,3.47c.36.46,1.49.31,2.26.44-.08-.78.12-1.89-.32-2.29a17,17,0,0,0-3.3-2Z"/><path class="cls-100" d="M701.41,466.11a26.38,26.38,0,0,0,2.31,2.83,2.43,2.43,0,0,0,1.84.43,1.45,1.45,0,0,0,.76-1.24,2.5,2.5,0,0,0-1.19-1.48,24.16,24.16,0,0,0-3.38-.95Z"/><path class="cls-101" d="M702.87,476.18a16.76,16.76,0,0,0,1.23,3.66c.3.51,1.44.53,2.2.78.05-.75.44-1.79.1-2.2a20.07,20.07,0,0,0-3.13-2.56Z"/><path class="cls-102" d="M698.55,481.54a27.33,27.33,0,0,0-.5,3.91,2.49,2.49,0,0,0,1,1.61,1.33,1.33,0,0,0,1.29-.27,2.66,2.66,0,0,0,.36-1.89,30.42,30.42,0,0,0-1.76-3.46Z"/><path class="cls-103" d="M725.15,478.31a30.57,30.57,0,0,0,1,3.58,2,2,0,0,0,1.36,1,1.55,1.55,0,0,0,1.28-.77,2.06,2.06,0,0,0-.33-1.69,31.71,31.71,0,0,0-2.81-2.48Z"/><path class="cls-104" d="M704.27,492.73a31.34,31.34,0,0,0-.39,3.71,2.07,2.07,0,0,0,.83,1.52,1.52,1.52,0,0,0,1.47-.25,2.44,2.44,0,0,0,.34-1.89,26.19,26.19,0,0,0-1.76-3.3Z"/><path class="cls-105" d="M714.91,467.9a17.07,17.07,0,0,0,1.71,3.45c.38.49,1.51.38,2.29.55-.07-.79.16-1.91-.27-2.31a17.46,17.46,0,0,0-3.34-2Z"/><path class="cls-106" d="M718,494.1a23.71,23.71,0,0,0-.08,4.12c.07.49,1.11.85,1.71,1.26.34-.65,1.11-1.46.94-1.94a21.34,21.34,0,0,0-2-3.57Z"/><path class="cls-107" d="M704.1,507.67a17.73,17.73,0,0,0-.11,3.91c.1.56,1.16.95,1.78,1.42.29-.69,1-1.5.79-2a20.36,20.36,0,0,0-1.88-3.41Z"/><path class="cls-108" d="M710.79,522.27a17.73,17.73,0,0,0-.11,3.91c.09.56,1.16,1,1.78,1.42.29-.68,1-1.5.78-2a19.17,19.17,0,0,0-1.87-3.4Z"/><path class="cls-109" d="M728.2,506.47a25.19,25.19,0,0,0-.28,3.67,2.67,2.67,0,0,0,1,1.62,1.33,1.33,0,0,0,1.3-.24,2.54,2.54,0,0,0,.32-1.87,24.29,24.29,0,0,0-1.8-3.27Z"/><path class="cls-110" d="M719.5,533.2a25.41,25.41,0,0,0-.28,3.67,2.69,2.69,0,0,0,1,1.63,1.36,1.36,0,0,0,1.3-.24,2.62,2.62,0,0,0,.32-1.88,26.14,26.14,0,0,0-1.8-3.27Z"/><path class="cls-111" d="M735.33,513.54a25.19,25.19,0,0,0-.28,3.67,2.69,2.69,0,0,0,1,1.62,1.35,1.35,0,0,0,1.3-.24,2.54,2.54,0,0,0,.32-1.87,25.46,25.46,0,0,0-1.8-3.27Z"/><path class="cls-112" d="M714.76,480.62a22.42,22.42,0,0,0,.48,3.3,3.27,3.27,0,0,0,1.33,1.63c.25.16,1.33-.33,1.34-.58a3.76,3.76,0,0,0-.43-2.24,16.58,16.58,0,0,0-2.29-2.38Z"/><path class="cls-113" d="M736.25,501.5a16.65,16.65,0,0,0-.18,3.84c.09.57,1.17,1,1.8,1.44.29-.68,1-1.5.8-2a19.45,19.45,0,0,0-1.9-3.37Z"/><path class="cls-114" d="M684.61,455.08a27.94,27.94,0,0,0,3.61,2,2.44,2.44,0,0,0,1.88-.39,1.52,1.52,0,0,0,.15-1.47,2,2,0,0,0-1.51-.83A32.64,32.64,0,0,0,684.61,455.08Z"/><path class="cls-115" d="M691.22,472.47a31.55,31.55,0,0,0,.71,3.66,2.06,2.06,0,0,0,1.26,1.19,1.51,1.51,0,0,0,1.33-.68,2.42,2.42,0,0,0-.26-1.87,23.88,23.88,0,0,0-2.51-2.52Z"/></g><g id="_LAYER-19_PLANT_ANIMATE_" data-name="&lt;LAYER-19_PLANT(ANIMATE)&gt;"><path class="cls-116" d="M718.79,517.85c3.87-7.48,9-12.11,18.36-12.64A62.48,62.48,0,0,1,754,506.87V508l-3.09,1.22a15.39,15.39,0,0,0-6,.85c-9.45,2.58-17.62,7.75-26,12.57C718.91,521,718.85,519.45,718.79,517.85Z"/><path class="cls-116" d="M714.48,518.92c-16.76,1.87-26.82-3.77-34.76-19.49,2-.69,3.6.47,5.31,1.18,10.36,4.32,19.53,10.77,29.15,16.39Z"/><path class="cls-117" d="M714.18,517c-9.62-5.62-18.79-12.07-29.15-16.39-1.71-.71-3.3-1.87-5.31-1.18l0-.09c.3-.7.59-1.4.88-2.1,8.46-.93,16.85-1.39,24.24,4.08,5,3.68,8.61,8.26,9.69,14.54Z"/><path class="cls-117" d="M719,522.64c8.35-4.82,16.52-10,26-12.57a15.39,15.39,0,0,1,6-.85c-3.58,3.49-7,7.16-10.77,10.44-6.14,5.37-12.76,9.11-21.07,4.23-.54-.32-1.46,0-2.2,0l-1.06-.14c-.11-2.65-.21-5.3-.32-8,.81-4.77-1.5-9.8,1.22-14.41,0,5.81,0,11.63.12,17.44C716.86,520.45,716.4,522.41,719,522.64Z"/><path class="cls-117" d="M741.9,484.37a34.81,34.81,0,0,0-3,4.72c-4.54,10.27-8.33,12.13-19.73,9.42a1.63,1.63,0,0,0-.12-.82C725.48,491.23,732.75,486.2,741.9,484.37Z"/><path class="cls-116" d="M741.9,484.37c-9.15,1.83-16.42,6.86-22.86,13.32l-1.27-1.08c2.76-12,13.58-17.71,24.57-13a.49.49,0,0,1,0,.39A1.82,1.82,0,0,1,741.9,484.37Z"/><path class="cls-116" d="M714.44,532.69c-8,2.56-8,2.56-15.13-7.26,7.28-2.78,9.84-2.09,14.17,3.81Z"/><path class="cls-116" d="M696,481c-1.14-.33-2.54-1.42-1.1-2.07,4.38-1.95,9.14-2.52,13.54-.07C712.25,481,716,483.5,714.9,489,708.79,485.86,703.47,480.86,696,481Z"/><path class="cls-116" d="M715.83,523.77l1.06.14c-1,3.47,1.67,6.63.84,10.09-2.34,9-1.4,18.61.28,19.79-2.63,1.81-3.56.76-3.54-2,.09-8.4.15-4.8.22-13.2C716.76,533.75,715.08,528.67,715.83,523.77Z"/><path class="cls-116" d="M716.88,473.32c-3.71-.49-6.69-3.52-8.29-8.5a11.22,11.22,0,0,1,1.27-9.84l1.25.94C712.19,462,714.9,467.54,716.88,473.32Z"/><path class="cls-117" d="M696,481c7.5-.14,12.82,4.86,18.93,8-4.32,4.4-8.24,1.52-11.79-1C700.44,486.06,698.33,483.35,696,481Z"/><path class="cls-117" d="M716.88,473.32c-2-5.78-4.69-11.32-5.77-17.4C718.81,460.86,720.54,466.1,716.88,473.32Z"/><path class="cls-118" d="M717.77,496.61l1.27,1.08a1.63,1.63,0,0,1,.12.82c-2.84,6.39-1.61,12.87-.37,19.34.06,1.6.12,3.19.17,4.79-2.56-.23-2.1-2.19-2.11-3.8-.07-5.81-.09-11.63-.12-17.44C717.07,499.8,717.42,498.21,717.77,496.61Z"/><path class="cls-117" d="M718,553.79c-.22-.14-.63.62-1.29.4s-1.38-11.29,1-20.19C717.82,544.6,717.92,543.2,718,553.79Z"/><path class="cls-118" d="M715.83,523.77c-.75,4.9.93,10-1.14,14.77-.08-1.95-.17-3.9-.25-5.85l-1-3.45c2.3-3.25,1.32-6.82,1-10.32l-.3-1.92.33-1.14a.74.74,0,0,0,1-.05C715.62,518.47,715.72,521.12,715.83,523.77Z"/><path class="cls-116" d="M680.58,497.24c-.29.7-.58,1.4-.88,2.1-.33-.61-1-1.31-.9-1.81C679,496.66,679.91,497,680.58,497.24Z"/><path class="cls-119" d="M708,552.29s6,4.25,18.09,0"/></g><g id="_LAYER-19_PLANTS_" data-name="&lt;LAYER-19_PLANTS&gt;"><path class="cls-119" d="M1692.44,547.29s6.45,4.25,19.34,0"/><path class="cls-116" d="M1699.6,539.2a10,10,0,0,0,1.1-.15c0-1.54.07-3.07.1-4.6-5.84-11.61-17.39-16-29.21-11.18-2.5,1-3.4,1.86-.22,3.14C1682.48,526.93,1691.4,532.26,1699.6,539.2Z"/><path class="cls-116" d="M1703,536c13.68-.57,21-6,25.15-18.09,1.44-4.15-1-2.29-2.58-2.18a4.43,4.43,0,0,1-2.39,3.56c-7.34,4.34-13.73,9.91-20.25,15.33Z"/><path class="cls-117" d="M1699.6,539.2c-8.2-6.94-17.12-12.27-28.23-12.79,3.51,3.37,6.91,6.87,10.56,10.07C1688.32,542.07,1693.86,542.82,1699.6,539.2Z"/><path class="cls-117" d="M1702.91,534.6c6.52-5.42,12.91-11,20.25-15.33a4.43,4.43,0,0,0,2.39-3.56c-14.93,1-20.87,5.75-23.75,18.88A2.77,2.77,0,0,1,1702.91,534.6Z"/><path class="cls-118" d="M1702.91,534.6a2.77,2.77,0,0,0-1.11,0l-1-.14c0,1.53-.06,3.06-.1,4.6v9.61c3.79,2.58,1.57-7.8,2.28-12.68C1703,535.52,1702.93,535.06,1702.91,534.6Z"/><path class="cls-119" d="M251.23,535.77s3.41,2.09,10.22,0"/><path class="cls-116" d="M257.71,529.53a10,10,0,0,1-1.1-.15c0-1.53-.07-3.07-.11-4.6,5.85-11.61,17.4-16,29.21-11.17,2.51,1,3.4,1.85.23,3.14C274.83,517.26,265.91,522.6,257.71,529.53Z"/><path class="cls-116" d="M254.33,526.31c-13.68-.57-21-6-25.16-18.09-1.44-4.14,1-2.29,2.59-2.17a4.42,4.42,0,0,0,2.38,3.55c7.34,4.34,13.74,9.91,20.25,15.34Z"/><path class="cls-117" d="M257.71,529.53c8.2-6.93,17.12-12.27,28.23-12.78-3.51,3.36-6.91,6.87-10.57,10.07C269,532.4,263.44,533.16,257.71,529.53Z"/><path class="cls-117" d="M254.39,524.94c-6.51-5.43-12.91-11-20.25-15.34a4.42,4.42,0,0,1-2.38-3.55c14.92,1,20.86,5.74,23.75,18.87A2.82,2.82,0,0,0,254.39,524.94Z"/><path class="cls-118" d="M254.39,524.94a2.82,2.82,0,0,1,1.12,0l1-.14c0,1.53.07,3.07.11,4.6V537c-4.49,1.63-1.57-5.8-2.28-10.68Z"/><path class="cls-119" d="M855.25,614.74s3.41,2.08,10.23,0"/><path class="cls-116" d="M861.44,609.37a6.94,6.94,0,0,1-.9-.12l-.09-3.76c4.78-9.49,14.22-13.08,23.88-9.14,2,.84,2.78,1.52.19,2.57C875.44,599.34,868.14,603.7,861.44,609.37Z"/><path class="cls-116" d="M858.68,606.74c-11.18-.47-17.13-4.89-20.56-14.78-1.18-3.4.84-1.88,2.11-1.78a3.62,3.62,0,0,0,1.95,2.9c6,3.55,11.23,8.1,16.55,12.54Z"/><path class="cls-117" d="M861.44,609.37c6.7-5.67,14-10,23.08-10.45-2.88,2.75-5.65,5.62-8.64,8.23C870.66,611.72,866.13,612.34,861.44,609.37Z"/><path class="cls-117" d="M858.73,605.62c-5.32-4.44-10.55-9-16.55-12.54a3.62,3.62,0,0,1-1.95-2.9c12.2.83,17,4.69,19.41,15.42A2.32,2.32,0,0,0,858.73,605.62Z"/><path class="cls-118" d="M858.73,605.62a2.32,2.32,0,0,1,.91,0l.81-.11.09,3.76v6.22c-3.67,1.33-1.28-4.74-1.86-8.73C858.7,606.36,858.71,606,858.73,605.62Z"/><path class="cls-119" d="M1110.66,547.29s4.85,4.25,14.56,0"/><path class="cls-116" d="M1117.61,513.21c2.2-.64,3-2.68,4.3-4.25,8-10,21.54-11.24,32.28-7.07,1.12.43,2.91.75.78,2.32-13.28,1.91-24.73,7.87-35.23,15.92-3.15,4-.77,8.6-1.14,12.9s.25,8.6.38,12.91c0,1.43.45,3.26-1.91,3.24s-1.75-2.1-1.72-3.33c.25-9.19.62-18.38,1-27.57.1-2.44.05-3.94-3.33-4.27-16.5-1.61-28.16-9.47-32.28-26.38a3.92,3.92,0,0,1,3.18.51c6.81,4.15,13,9.18,19.57,13.66C1108.55,505.25,1111.63,511,1117.61,513.21Z"/><path class="cls-117" d="M1117.61,513.21c-6-2.19-9.06-8-14.11-11.41-6.56-4.48-12.76-9.51-19.57-13.66a3.92,3.92,0,0,0-3.18-.51v-.1l.63-1.38c12.75-1.08,23.73,2.08,31.5,13.05.22.31.87.32,1.32.47l-.09-.06c-.53,1.26-.37,2.17,1.2,2.37l-.07-.12c-1,1.19.32,2.38,0,3.56.22,1.63-.73,3.73,1.81,4.4Z"/><path class="cls-117" d="M1119.74,520.13c10.5-8,22-14,35.23-15.92-4.52,3.33-8.26,7.48-12.21,11.41-4.63,4.59-10,7.72-16.79,7.59C1123.56,523.16,1121.18,522.44,1119.74,520.13Z"/><path class="cls-117" d="M1129,474.76a32.54,32.54,0,0,0,2.12,9.26c3.13,8.58-3.13,18-12.41,18.87C1119.13,492.43,1122.23,482.93,1129,474.76Z"/><path class="cls-116" d="M1129,474.76c-6.74,8.17-9.84,17.67-10.29,28.13-3.47,1.63-.41,4.77-1.61,6.93-2.54-.67-1.59-2.77-1.81-4.4,2.87-1.19,1.69-2.38,0-3.56l.07.12c.09-1,.08-2-1.2-2.37l.09.06c-1.76-10.29.17-19.1,10.17-24.43C1125.64,474.56,1127.17,472,1129,474.76Z"/><path class="cls-116" d="M1081.39,486.15l-.63,1.38C1080,486.62,1080.3,486.21,1081.39,486.15Z"/><path class="cls-119" d="M460.67,621.54s-4.85,4.24-14.55,0"/><path class="cls-116" d="M453.72,587.45c-2.2-.64-3-2.68-4.29-4.25-8-10-21.54-11.24-32.28-7.07-1.13.43-2.91.75-.78,2.32,13.28,1.91,24.72,7.87,35.22,15.92,3.16,4,.78,8.6,1.15,12.9s-.25,8.6-.38,12.91c0,1.43-.45,3.26,1.9,3.24,2.5,0,1.76-2.1,1.72-3.33-.24-9.19-.61-18.38-1-27.56-.1-2.45-.06-3.95,3.33-4.28,16.49-1.61,28.16-9.47,32.28-26.38a3.91,3.91,0,0,0-3.18.51c-6.81,4.15-13,9.18-19.58,13.66C462.78,579.49,459.71,585.27,453.72,587.45Z"/><path class="cls-117" d="M453.72,587.45c6-2.18,9.06-8,14.11-11.41,6.57-4.48,12.77-9.51,19.58-13.66a3.91,3.91,0,0,1,3.18-.51v-.1c-.22-.46-.43-.92-.64-1.38-12.74-1.08-23.73,2.08-31.49,13.05-.22.31-.87.32-1.33.47l.1-.06c.53,1.26.37,2.17-1.2,2.37l.07-.11c1,1.19-.32,2.37,0,3.56-.21,1.62.74,3.72-1.8,4.39C454.09,585.19,453.91,586.32,453.72,587.45Z"/><path class="cls-117" d="M451.59,594.37c-10.5-8-21.94-14-35.22-15.92,4.51,3.33,8.25,7.48,12.21,11.41,4.63,4.59,10.05,7.73,16.79,7.59C447.77,597.4,450.16,596.68,451.59,594.37Z"/><path class="cls-117" d="M442.36,549a32.19,32.19,0,0,1-2.11,9.26c-3.13,8.59,3.13,18,12.41,18.87C452.2,566.67,449.11,557.17,442.36,549Z"/><path class="cls-116" d="M442.36,549c6.75,8.17,9.84,17.67,10.3,28.13,3.46,1.63.41,4.78,1.61,6.93,2.54-.67,1.59-2.77,1.8-4.39-2.86-1.2-1.68-2.38,0-3.56l-.07.11c-.09-1-.08-2,1.2-2.37l-.1.06c1.76-10.29-.16-19.1-10.16-24.43C445.7,548.8,444.17,546.2,442.36,549Z"/><path class="cls-116" d="M489.94,560.39c.21.46.42.92.64,1.38C491.35,560.86,491,560.45,489.94,560.39Z"/><path class="cls-119" d="M47.76,620.24s6,4.25,18.1,0"/><path class="cls-116" d="M54.9,618.13c5.77-3.76,10-9.62,16.57-12.29,2,11-3.43,12.31-13.6,15.56-4.65,1.48-.6,1.26-2,.4Z"/><path class="cls-117" d="M57.2,618.8l-1,3.68a17.78,17.78,0,0,1-2.94-.72c-3.46-1.51-5.29-4.16-4.89-8,.08-.75,1.33-2.08,1.72-2C53.72,612.82,57.56,613.75,57.2,618.8Z"/></g></g></g></svg>