<svg xmlns="http://www.w3.org/2000/svg" xmlns:xlink="http://www.w3.org/1999/xlink" viewBox="0 0 1920 1080"><defs><style>.cls-1,.cls-25,.cls-67,.cls-68{fill:none;}.cls-2{fill:#e1f0f4;}.cls-3,.cls-4{fill:#fff;}.cls-20,.cls-4{opacity:0.5;}.cls-5{fill:url(#linear-gradient);}.cls-6{fill:#b7c090;}.cls-7{fill:url(#linear-gradient-2);}.cls-8{fill:url(#linear-gradient-3);}.cls-9{fill:#f8d8a9;}.cls-10,.cls-21,.cls-22,.cls-29{opacity:0.75;}.cls-11{clip-path:url(#clip-path);}.cls-12{fill:#162a15;}.cls-13{fill:#587149;}.cls-14{fill:#f3f3f2;}.cls-15{fill:#e1e1e1;}.cls-16{fill:#e3e3e3;}.cls-17{fill:#c8c8c8;}.cls-18{fill:#adadad;}.cls-19{fill:#cdad83;}.cls-21,.cls-48{fill:#3c260f;}.cls-22,.cls-47{fill:#261a0b;}.cls-23{fill:#dedede;}.cls-24{fill:url(#linear-gradient-4);}.cls-25{stroke:#f0c180;stroke-width:2px;}.cls-25,.cls-67,.cls-68{stroke-miterlimit:10;}.cls-26{fill:url(#linear-gradient-5);}.cls-27{fill:url(#linear-gradient-6);}.cls-28{fill:#76423e;}.cls-29,.cls-70{fill:#c17f79;}.cls-30{fill:#b9b8b8;}.cls-31{fill:url(#linear-gradient-7);}.cls-32{fill:url(#linear-gradient-8);}.cls-33{fill:url(#linear-gradient-9);}.cls-34{fill:url(#linear-gradient-10);}.cls-35{fill:url(#linear-gradient-11);}.cls-36{fill:#c7c6c6;}.cls-37{fill:#c47275;}.cls-38{fill:#e8e4e4;}.cls-39{fill:url(#linear-gradient-12);}.cls-40{fill:url(#linear-gradient-13);}.cls-41{fill:url(#linear-gradient-14);}.cls-42{fill:url(#linear-gradient-15);}.cls-43{fill:url(#linear-gradient-16);}.cls-44{fill:url(#linear-gradient-17);}.cls-45{fill:url(#linear-gradient-18);}.cls-46{fill:url(#linear-gradient-19);}.cls-49{fill:#2e2419;}.cls-50{fill:#522d13;}.cls-51{fill:#34190b;}.cls-52{fill:#673d1c;}.cls-53{fill:url(#linear-gradient-20);}.cls-54{fill:url(#linear-gradient-21);}.cls-55{fill:#f8b17d;}.cls-56{fill:#1f5786;}.cls-57{fill:#ce9067;}.cls-58{fill:#7a564b;}.cls-59{fill:#462225;}.cls-60{fill:#08253b;}.cls-61{fill:url(#linear-gradient-22);}.cls-62{fill:url(#linear-gradient-23);}.cls-63{fill:url(#linear-gradient-24);}.cls-64{opacity:0.9;}.cls-65{fill:#57312e;}.cls-66{fill:#e9d5c5;}.cls-67,.cls-68{stroke:#fff;stroke-width:4px;}.cls-68{stroke-dasharray:190.02 190.02;}.cls-69{fill:#959595;}.cls-71{fill:#d39272;}.cls-72{fill:url(#linear-gradient-25);}.cls-73{fill:url(#linear-gradient-26);}.cls-74{fill:url(#linear-gradient-27);}.cls-75{fill:#2d2d2d;}.cls-76{fill:#fc9445;}.cls-77{fill:#351f16;}.cls-78{fill:#080000;}.cls-79{fill:url(#linear-gradient-28);}.cls-80{fill:#2d130e;}.cls-81{fill:url(#linear-gradient-29);}.cls-82{fill:#b16f49;}.cls-83{fill:url(#linear-gradient-30);}.cls-84{fill:#424242;}.cls-85{fill:#cbcecf;}.cls-86{fill:#ffccbf;}.cls-87{fill:#4a4690;}.cls-88{fill:url(#linear-gradient-31);}.cls-89{fill:url(#linear-gradient-32);}.cls-90{fill:url(#linear-gradient-33);}.cls-91{fill:url(#linear-gradient-34);}.cls-92{fill:url(#linear-gradient-35);}.cls-93{fill:url(#linear-gradient-36);}.cls-94{fill:#282e57;}.cls-95{fill:#b24b32;}.cls-96{fill:#f1dcc4;}.cls-97{fill:#ff6954;}.cls-98{fill:#f7b07d;}.cls-99{fill:#a8432f;}.cls-100{fill:#d99020;}.cls-101{fill:url(#linear-gradient-37);}.cls-102{fill:#e5a070;}.cls-103{fill:#050505;}.cls-104{fill:#9a9a9a;}.cls-105{fill:#bfbfbf;}.cls-106{fill:#fa6a3d;}.cls-107{fill:#878787;}</style><linearGradient id="linear-gradient" x1="267.81" y1="710" x2="1498.31" y2="710" gradientUnits="userSpaceOnUse"><stop offset="0" stop-color="#c3949b"/><stop offset="0.3" stop-color="#d9b2b6"/><stop offset="0.55" stop-color="#e8c6c9"/></linearGradient><linearGradient id="linear-gradient-2" x1="551.06" y1="1182.01" x2="551.06" y2="520.83" gradientUnits="userSpaceOnUse"><stop offset="0.03" stop-color="#c7914a"/><stop offset="0.03" stop-color="#c9934c"/><stop offset="0.11" stop-color="#daa763"/><stop offset="0.19" stop-color="#e6b673"/><stop offset="0.27" stop-color="#eebe7d"/><stop offset="0.39" stop-color="#f0c180"/><stop offset="0.64" stop-color="#f5c782"/><stop offset="0.96" stop-color="#ffcd89"/></linearGradient><linearGradient id="linear-gradient-3" x1="555.75" y1="567.31" x2="555.75" y2="510.22" xlink:href="#linear-gradient-2"/><clipPath id="clip-path"><rect class="cls-1" x="530.06" y="578.08" width="368.25" height="293.25"/></clipPath><linearGradient id="linear-gradient-4" x1="818.44" y1="602.96" x2="1320.49" y2="602.96" gradientUnits="userSpaceOnUse"><stop offset="0.39" stop-color="#f0c180"/><stop offset="0.64" stop-color="#f5c782"/><stop offset="0.96" stop-color="#ffcd89"/></linearGradient><linearGradient id="linear-gradient-5" x1="1598.95" y1="1374.74" x2="1598.95" y2="272.61" gradientUnits="userSpaceOnUse"><stop offset="0" stop-color="#b5504a"/><stop offset="0.07" stop-color="#b24e49"/><stop offset="0.84" stop-color="#973e3b"/><stop offset="1" stop-color="#933c39"/></linearGradient><linearGradient id="linear-gradient-6" x1="1594.83" y1="361.53" x2="1594.83" y2="233.76" xlink:href="#linear-gradient-5"/><linearGradient id="linear-gradient-7" x1="659.67" y1="590.95" x2="697.39" y2="590.95" xlink:href="#linear-gradient-5"/><linearGradient id="linear-gradient-8" x1="807.73" y1="590.68" x2="845.04" y2="590.68" xlink:href="#linear-gradient-5"/><linearGradient id="linear-gradient-9" x1="585.86" y1="590.63" x2="622.95" y2="590.63" xlink:href="#linear-gradient-5"/><linearGradient id="linear-gradient-10" x1="511.22" y1="590.73" x2="548.31" y2="590.73" xlink:href="#linear-gradient-5"/><linearGradient id="linear-gradient-11" x1="734.49" y1="590.68" x2="771.51" y2="590.68" xlink:href="#linear-gradient-5"/><linearGradient id="linear-gradient-12" x1="880.33" y1="590.68" x2="917.64" y2="590.68" xlink:href="#linear-gradient-5"/><linearGradient id="linear-gradient-13" x1="197.5" y1="590.95" x2="235.22" y2="590.95" xlink:href="#linear-gradient-5"/><linearGradient id="linear-gradient-14" x1="345.56" y1="590.68" x2="382.87" y2="590.68" xlink:href="#linear-gradient-5"/><linearGradient id="linear-gradient-15" x1="123.69" y1="590.63" x2="160.78" y2="590.63" xlink:href="#linear-gradient-5"/><linearGradient id="linear-gradient-16" x1="49.05" y1="590.73" x2="86.14" y2="590.73" xlink:href="#linear-gradient-5"/><linearGradient id="linear-gradient-17" x1="272.32" y1="590.68" x2="309.34" y2="590.68" xlink:href="#linear-gradient-5"/><linearGradient id="linear-gradient-18" x1="0" y1="590.39" x2="11.31" y2="590.39" xlink:href="#linear-gradient-5"/><linearGradient id="linear-gradient-19" x1="418.16" y1="590.68" x2="455.47" y2="590.68" xlink:href="#linear-gradient-5"/><linearGradient id="linear-gradient-20" x1="247.16" y1="837.08" x2="310.04" y2="837.08" gradientUnits="userSpaceOnUse"><stop offset="0.13" stop-color="#6a767f"/><stop offset="0.17" stop-color="#6e7c86"/><stop offset="0.43" stop-color="#90acbe"/><stop offset="0.62" stop-color="#a5cae0"/><stop offset="0.72" stop-color="#add5ed"/></linearGradient><linearGradient id="linear-gradient-21" x1="387.96" y1="836.08" x2="450.85" y2="836.08" gradientTransform="matrix(-1, 0, 0, 1, 816, 0)" xlink:href="#linear-gradient-20"/><linearGradient id="linear-gradient-22" x1="720.15" y1="842.08" x2="783.04" y2="842.08" gradientTransform="matrix(-1, 0, 0, 1, 816, 0)" xlink:href="#linear-gradient-20"/><linearGradient id="linear-gradient-23" x1="1610.5" y1="612.93" x2="1920" y2="612.93" xlink:href="#linear-gradient-5"/><linearGradient id="linear-gradient-24" x1="1693.3" y1="785.44" x2="1817.53" y2="501.97" xlink:href="#linear-gradient-5"/><linearGradient id="linear-gradient-25" x1="587.04" y1="771.02" x2="662.07" y2="771.02" gradientUnits="userSpaceOnUse"><stop offset="0.09" stop-color="#c7914a"/><stop offset="0.16" stop-color="#cd9751"/><stop offset="0.61" stop-color="#f1be79"/><stop offset="0.85" stop-color="#ffcd89"/></linearGradient><linearGradient id="linear-gradient-26" x1="718.16" y1="788.85" x2="532.47" y2="788.85" gradientUnits="userSpaceOnUse"><stop offset="0" stop-color="#736357"/><stop offset="0.15" stop-color="#76665a"/><stop offset="0.29" stop-color="#817062"/><stop offset="0.41" stop-color="#93816f"/><stop offset="0.53" stop-color="#ac9882"/><stop offset="0.6" stop-color="#bca78e"/></linearGradient><linearGradient id="linear-gradient-27" x1="550.7" y1="787.34" x2="755.28" y2="787.34" gradientUnits="userSpaceOnUse"><stop offset="0.24" stop-color="#736357"/><stop offset="0.27" stop-color="#7b6b5d"/><stop offset="0.35" stop-color="#988573"/><stop offset="0.43" stop-color="#ac9882"/><stop offset="0.51" stop-color="#b8a38b"/><stop offset="0.6" stop-color="#bca78e"/></linearGradient><linearGradient id="linear-gradient-28" x1="1378.72" y1="764.75" x2="1432.79" y2="764.75" gradientUnits="userSpaceOnUse"><stop offset="0.24" stop-color="#80634b"/><stop offset="0.56" stop-color="#86694f"/><stop offset="0.82" stop-color="#907256"/></linearGradient><linearGradient id="linear-gradient-29" x1="1371.01" y1="725.62" x2="1510.6" y2="725.62" xlink:href="#linear-gradient-28"/><linearGradient id="linear-gradient-30" x1="1383.76" y1="818.25" x2="1436.09" y2="818.25" gradientUnits="userSpaceOnUse"><stop offset="0.03" stop-color="#c7914a"/><stop offset="0.54" stop-color="#f0c180"/><stop offset="0.64" stop-color="#f5c782"/><stop offset="0.74" stop-color="#faca86"/><stop offset="0.96" stop-color="#ffcd89"/></linearGradient><linearGradient id="linear-gradient-31" x1="228.63" y1="871.58" x2="344.82" y2="695.28" gradientUnits="userSpaceOnUse"><stop offset="0" stop-color="#c3949b"/><stop offset="0.55" stop-color="#d9b2b6"/><stop offset="1" stop-color="#e8c6c9"/></linearGradient><linearGradient id="linear-gradient-32" x1="188.25" y1="800.75" x2="474.46" y2="800.75" xlink:href="#linear-gradient-31"/><linearGradient id="linear-gradient-33" x1="221.33" y1="775.99" x2="536.33" y2="775.99" xlink:href="#linear-gradient-31"/><linearGradient id="linear-gradient-34" x1="209.15" y1="854.75" x2="487.62" y2="854.75" gradientUnits="userSpaceOnUse"><stop offset="0" stop-color="#1a1a1a"/><stop offset="0.03" stop-color="#1b1b1b"/><stop offset="0.54" stop-color="#2d2d2d"/><stop offset="0.91" stop-color="#333"/></linearGradient><linearGradient id="linear-gradient-35" x1="304.23" y1="852.82" x2="353.61" y2="852.82" xlink:href="#linear-gradient-34"/><linearGradient id="linear-gradient-36" x1="242.76" y1="819.65" x2="449.03" y2="819.65" xlink:href="#linear-gradient-34"/><linearGradient id="linear-gradient-37" x1="1462.99" y1="-400.42" x2="1474.59" y2="-400.42" gradientTransform="matrix(1, 0, 0, -1, 177.4, 387.01)" xlink:href="#linear-gradient-34"/></defs><g id="PEOPLE"><rect class="cls-2" x="-0.05" y="0.4" width="1920.45" height="1080"/><path class="cls-3" d="M1920.4.4V53.6a207.09,207.09,0,0,0-87-3.18c-42.57,7.66-55,24-87,35-69.38,23.93-84.22-27.47-182.9-28.62-62.09-.72-64.66,19.52-133.83,15.9-63.25-3.32-60.35-20.21-111.53-22.26-98.79-4-125.75,59.54-196.29,29.82-38.26-16.12-30.57,2.79-69.14-10.35-51.88-17.68-76.55,12-156.14,15.89-55.22,2.72-45-40.39-87-35.26C728.67,60.4,706,101.61,649,85.4c-36.15-10.3-31.43-32.07-66.92-41.34-58.43-15.26-78.71,41.81-145,50.87-59.52,8.14-64.14-35-149.45-47.69-37.63-5.59-73.57.07-145,15.9C74.1,78.35,33.94,99,0,103.27L-.85.4Z"/><path id="_LAYER-12_CLOUDS_ANIMATE_" data-name="&lt;LAYER-12_CLOUDS(ANIMATE)&gt;" class="cls-4" d="M2420,.4V84.51c-28.22,17.09-70.88,105.06-121.94,101.77-45.41-2.93-48.7-20.69-102.95-27.2-63.76-7.65-131.37,8.22-147.83,12.09-27.51,6.45-48.18,13.84-76.55,6-24-6.61-30.48-12.77-50.73-16.15-33.66-5.62-58.93,13-78.62,25.22-57.12,35.32-107.66,87.42-237.57,64.29-84.51-15-101.93-44.41-171.58-72.11-94.48-37.57-106.43-22.93-176.86-30.67-78.43-8.62-102.43-86.86-171.59-72.35-42,8.81-36.41,29.5-79.19,39.28C937.23,130.13,910.35,91,814.53,81.58c-49.72-4.88-37.6,36.09-102.95,33.51C617.39,111.38,588.2,83.19,526.8,100c-45.65,12.5-36.55-5.48-81.83,9.84-83.48,28.25-115.38-32.1-232.29-28.34-60.57,2-57.14,48-132,51.16-81.86,3.44-84.91-15.8-158.38-15.11-116.79,1.09-134.34,49.94-216.46,27.19-37.83-10.48-52.57-29-103-36.24-42.77-6.18-78.86-28.76-102.9-24V.4Z"/><g id="_LAYER-13_CLOUDS_ANIMATE_" data-name="&lt;LAYER-13_CLOUDS(ANIMATE)&gt;"><path class="cls-4" d="M89.67,479.09c89.15,41.64,73.72,57.17,119.22,70.24C351.14,590.19,488.2,441.24,583,479.46c32.48,13.09,62.74,32.65,134.82,58.23,62.17,22.06,66.1-93.3,134.82-69.43,82.63,28.7,92,41.39,131.45,40.76,35.9-.57,87.94-1.4,114.6-64,2-4.69,22.36-54,13.48-104.81-2.68-15.32-13.77-63.7-114.6-110.63-50.76-23.63-106-174.88-185.38-166.3C723.92,72.78,714.05,88,643.69,79,591.36,72.23,590,49.65,512.24,15.5c-96-42.13-121.38,31.56-229.19-1.9C182.32-17.67,195.53,58.78,117.89,37.38c-13.28-3.67-23.67-5-28.22-6.33C-5.61,3.1-9.37,1.92-18.14,1.06-55.39-2.58-84,9.31-116.2,22.67-142,33.39-183.46,50.59-182.9,71.55c.54,20.59,41.11,24.42,43.5,48.87,2.25,23-32.49,32.34-37.7,64.16-3.84,23.4,11,42.6,23.2,61.09,55.43,84,29.52,112.8,69.6,158.85C-46.33,448.16-17.06,429.23,89.67,479.09Z"/><path class="cls-4" d="M1963.37,474.33c-71.78,2.39-98.3-88.09-159.71-78.37-27.33,4.33-35,24.27-78,27.86-15.67,1.31-38.63,2.92-53-11.14-11.78-11.58-11.75-27.91-11.14-61.31,1.18-65,1.77-97.46,2.79-100.31,21.63-60.48,82.36-66.26,83.59-114.25.62-24.09-14.49-30.52-8.36-44.58,13.86-31.78,103.69-28.12,167.19-8.36,19.22,6,32.76,12.61,55.2,23.34,76.91,36.78,79.56,56.19,120.69,64.21,40.32,7.87,47.22-8.94,92.4,3.43,16,4.37,40,11,61.61,30.8,28.66,26.37,21.73,47.39,44.49,58.18,26.89,12.74,47.77-11.32,71.86,3.42,18.07,11.05,22.16,34.27,24,44.49,5.74,32.56-6.28,76.78-34.22,89-35.08,15.31-63.58-33.66-109.52-20.53-30.89,8.82-25.36,33.07-61.6,51.33C2130.07,452.46,2108,428,2045,441.79,1991.71,453.42,1996.92,473.21,1963.37,474.33Z"/></g><g id="_LAYER-14_CITY_" data-name="&lt;LAYER-14_CITY&gt;"><path class="cls-5" d="M1060.89,567.07H1130V528.76h83.68v85.3s16-57.38,79.71-57.38,64.34,35,64.34,35V891.23h-264.8L1077.4,573.44Z"/><path class="cls-6" d="M1045.1,892c-24.06-15-36.08-33.94-20.27-42.45,16.61-8.93,49.9,1.13,119.08-5.55,50.28-4.85,49.1-11.75,106.24-16.66,18.8-1.62,88.66-7.62,107.53,5.25,3.39,2.32,4.14,4.51,4.55,5.86,8,26.16,13.07,42.52,11.74,52.33"/><rect class="cls-7" y="532.72" width="1102.12" height="358.5"/><rect class="cls-8" y="511.24" width="1111.51" height="30.96"/><rect class="cls-9" x="530.06" y="578.08" width="368.25" height="293.25"/><rect class="cls-9" x="11.21" y="579.5" width="428.73" height="187.83"/><g class="cls-10"><g class="cls-11"><path class="cls-12" d="M891.85,830.38v-.26m1.72.16v.25m1-.48c-.22-1.87-.43-8.73-.65-10.59-.53.37-.56.7-.34,1.06a.3.3,0,0,0,0,.43c0,1.45,0,7.89.05,9.33m10.71.4c.05-8,.37-21.09.86-29.12.14-2.36-.08-4.17-2.21-5.55a9.73,9.73,0,0,1-2.47-3c-.29-.45-.37-1.06-.91-1.41-.21.85.23,1.64-.19,2.46a24.1,24.1,0,0,1-4.29-3c-.72-.73-1.27-1.64-2.31-2-.43-.37-.29-1.16-1.06-1.36.89,7.76,1.75,15.48,2.66,23.2.48,4.11,1,13.2,1.55,17.3a.28.28,0,0,0,0,.09,1.08,1.08,0,0,0,.08.19l.18,1.73.08.4,0,.09.07.08c-1.21.87-1.53.75-1.7-.65m9.74,1.09c0-.15,0-.31,0-.46m2,.15v.46m-14.38-1.17a144.25,144.25,0,0,0-4.7-35.82,7.49,7.49,0,0,0-.79-2.48,77.27,77.27,0,0,0-5.6-14.07c-.24-.45-.3-1.09-1-1.11-.07-1.65-1.34-2.65-2.12-3.92-.15-.16-.29-.32-.44-.47a6.69,6.69,0,0,0-2.07-2.35c-5.15-5.92-12.15-5.74-18.21-.57l-.11,0a.17.17,0,0,0,0,.08l.12-.13a3.36,3.36,0,0,0,1.43-.23c5.79-1.5,11.46-1.63,16.77,1.7l1.87,1.63.45.45,2.12,3.73.81,5-.06,1.51c-.2.11-.21.22,0,.33-.6,8.93-3.39,17-9.32,23.84a20.24,20.24,0,0,1-8.86,6.05c-6.17,2-11.72,4.9-15.08,11.1-.42-1.43-.69-2.62-1.12-3.75a16.72,16.72,0,0,0-6.81-8.41c-7.4-4.68-10.35-11.82-11.24-20.07a23.52,23.52,0,0,1,7.34-20.47,3.13,3.13,0,0,0,.4-.6,4.64,4.64,0,0,0,1.6-1c4.39-3.23,9.37-3,13.35.62.74.67,1.18.71,1.92,0a28.38,28.38,0,0,1,7.41-5.4,13.41,13.41,0,0,1,9.22-1.28c2.28.56,4.12,1.95,6,3.19a44.19,44.19,0,0,1,5.53,6.83c.94,1.75,2,3.47,2.79,5.27,1.16,2.5,2.19,5.07,3.27,7.61l.07.54s-.09.08-.08.1a.92.92,0,0,0,.13.21,137.08,137.08,0,0,1,4.5,16.15s0,.07,0,.1a.67.67,0,0,0,.07.18l.46,2.2-.06,0,.07.06.29,1.75v0l0,0,0,.38a10.08,10.08,0,0,0,.75,3.77,13.21,13.21,0,0,0-.29-3.79c-.17-1.29-.33-2.58-.5-3.87l0-.5c-.54-5.27-1.15-10.53-1.6-15.81a12.7,12.7,0,0,0-2-6.44c-1-1.95-.62-3.88.14-5.77a4.6,4.6,0,0,0,0-3.79c-.49,1.45-.94,2.81-1.4,4.19-.25-.14-.36-.17-.4-.24-.19-.33-.38-.68-.55-1a44.44,44.44,0,0,1-3.89-17.29,47,47,0,0,1,.57-7.86,29.34,29.34,0,0,1,2.87-8,1.32,1.32,0,0,0,.21-.68c-.2-2.85-.44-5.68-.68-8.73l-2.56,1.89c-1.46.67-2.88,1.4-4.36,2a24.58,24.58,0,0,1-8.84,1.87l.81-.63c1.83-1.41,1.89-2.38.3-4-.67-.7-1.34-1.41-1.95-2.16a17.58,17.58,0,0,1-3.67-8.59,4.84,4.84,0,0,0-2.29-3.73,4.94,4.94,0,0,1-2.18-4.39A33.93,33.93,0,0,1,865,699.19a9.53,9.53,0,0,1,6-4.75l.32-.08.31-.18H873c3,.73,4.23,3.06,5.12,5.73.11-.07.28-.12.32-.22,2.1-5.23,9.87-6.78,14.47-1.27a20.84,20.84,0,0,1,4.49,9.25l.06.37,0,.38c1.19,6.76-.81,12.66-4.84,18,0,0-.07.08-.07.11a1.55,1.55,0,0,0,.06.23l0,0c-1.28.69-1.84,2.25-3.4,2.84a15.17,15.17,0,0,0-3-11.1c1.58,6.8,1.46,13.72,1.46,20.9l3.2-3.52a20.23,20.23,0,0,1,4.14-2.77c4.21-2,8.19-1.2,12,1a20.27,20.27,0,0,1,4.67,4.71h0l1.27,2.63a12.89,12.89,0,0,1,2.27-7.33,14,14,0,0,1,3-2.91l.21-.16.18-.22,1.13-.43a8,8,0,0,1,10.33,4.43c.94,2.11,2.33,3.94,4.46,4.64,6.85,2.26,8.71,7.74,9.71,14a42.67,42.67,0,0,1-.72,18.17l-2.1,5.82a.17.17,0,0,0-.05.15c-.81,1.23-1.17,2.73-2.26,3.93a41.64,41.64,0,0,0-3.45-6.91,32.39,32.39,0,0,0-4.73-6,9.73,9.73,0,0,0-5.86-3.06c-.54,0-1.15-.11-1.44.46s.15.94.44,1.31a14,14,0,0,0,5.9,4.45,8.5,8.5,0,0,1,3.8,3.1c2,2.82,2.91,6,3.84,9.29a1.81,1.81,0,0,1-.46,2c-1.7,1.81-3.37,3.66-5.05,5.5a5.06,5.06,0,0,0-1.43,1.52c-.85.4-1.19,1.31-1.87,1.88l-.72.65c-2.07,2.25-2.53,5-2.06,8.15a19.58,19.58,0,0,0-7.61-3.84.51.51,0,0,0-.65-.15,23,23,0,0,0-6.42-.1c-.23-.27-.41-.17-.58.07-.19.06-.39.17-.58,0a44.33,44.33,0,0,1,.12-6.62l.42-2.21a25.11,25.11,0,0,1,2.54-4.77,7.65,7.65,0,0,0,1.32-5.57c-.16-1-.28-2.26-1.45-2.48s-1.69.77-2.19,1.64a6.22,6.22,0,0,0-1.62,2.12,16.65,16.65,0,0,0-1.27,4c-.77,4.24-.26,8.43.41,12.62l0,.93a1,1,0,0,1-.81-.22c-.8-.53-1-.27-1,.65-.18,8.62-.56,22.22-.51,30.84m-5-55.1c-.77,1.62-.72,3.4-1,5.14,2-2.8,4.25-5.45,6.48-8.09a1.72,1.72,0,0,0,.36-.93c.2-2.05.4-4.09.52-6.14.06-1-.36-.49-.67-.14a2.17,2.17,0,0,0-1.24.71A16.05,16.05,0,0,0,901.21,775.73Zm-11-3.56a59.13,59.13,0,0,1,3.91-6.26c2.56-3.27,5-6.71,9.26-8a2.27,2.27,0,0,0,.93-.68,1.47,1.47,0,0,0,.21-1.88c-.38-.67-1-.52-1.57-.38a8,8,0,0,0-2.52,1.14,29.61,29.61,0,0,0-10.37,13A3.39,3.39,0,0,0,890.24,772.17Zm-5.75-51.46c-.11-1.51-.28-2.73-.26-3.94a2.45,2.45,0,0,0-1.45-2.32c-.37-.22-.74-.56-1.21-.31s-.36.77-.32,1.19A7.47,7.47,0,0,0,884.49,720.71Zm8.88,98.69.41,0a30.23,30.23,0,0,0-.3-4l-.38,0Z"/><path class="cls-13" d="M892.71,726.42c4-5.35,6-11.25,4.84-18,.85,0,.62-.73.71-1.14,1.23-5.33,2.4-10.68,3.61-16,.44-2,1-3.89,1.48-5.82a4.34,4.34,0,0,0-.62-3.31c-3-5.79-7.25-11.07-8.27-17.7a51.36,51.36,0,0,0-4.53-14.61c-.93-1.91-1.8-4-1.52-6.19.46-3.69,3.64-6.37,7.63-6.7a11.78,11.78,0,0,1,9.52,3.71,29.28,29.28,0,0,1,6.17,8.5c.39.83.91,1.61,1.32,2.43.3.6.61,1.14,1.37,1.15s1.18-.64,1.4-1.28a57.43,57.43,0,0,1,3-6.52,2.77,2.77,0,0,1,2.63-1.75c5.54.1,11.08-.73,16.59,1.11,2.07.69,4.58.47,6.81,1.15,1.36.41,2.7.85,4.06,1.25,3.36,1,5.3,3.77,7.59,6.06a23.32,23.32,0,0,1,6.93,13.14,40.68,40.68,0,0,0,1.67,5.92,20.32,20.32,0,0,1-6.52,21.43,22.86,22.86,0,0,1-3.51,2.35,14.83,14.83,0,0,0-3.54,2.6c-2.61,2.63-5.17,5.32-7.75,8a2.13,2.13,0,0,0-.93,1.55c-.16.72-.38,1.65-1.33,1.7s-1.18-.85-1.36-1.62a8.63,8.63,0,0,0-2.78-4.84h0a6.8,6.8,0,0,0-2.66-2.06c-1.33-1.17-3.06-1.44-4.61-2.12a39.65,39.65,0,0,0-8.83-3.06,17.23,17.23,0,0,1-8.36-3.93c-2.19-1.87-4.3-3.83-6.46-5.74-.27-.24-.45-.67-1-.56-.15.6-.31,1.21-.48,1.82-3.71,13.91-6.64,28-9.36,42.14-.24,1.2-.85,2.35-.57,3.64a20.23,20.23,0,0,0-4.14,2.77c.09-.53.18-1.05.28-1.57.48-2.52,1.24-5,1.5-7.55l0,0C893,726.66,892.87,726.54,892.71,726.42Zm65.84-44.84c0-.41-.11-1.14-.24-1.86-.83-4.75-4.07-7.48-8-9.62-2.22-1.2-4.73-1.83-6.67-3.59a2.94,2.94,0,0,0-3.07-.34,23.6,23.6,0,0,0-2.67,1.19c-1.36.68-1.42,1-.42,2.17,1.9,2.29,3.84,4.55,5.74,6.85,3.7,4.48,7.22,9.1,11.3,13.27.67.68,1,.62,1.53-.11A12.76,12.76,0,0,0,958.55,681.58Zm-59.16-9a1,1,0,0,0,.05.51c1.17,2.15,2.07,4.42,3,6.65a.57.57,0,0,0,.7.38.64.64,0,0,0,.43-.7,12,12,0,0,1,.59-3.3c1.24-4.82,3.93-8.9,6.67-13,.31-.46.68-.92.26-1.45s-1-.5-1.58-.23a20.53,20.53,0,0,0-8.63,6.81A7.66,7.66,0,0,0,899.39,672.57Zm14.42,11.15a14.22,14.22,0,0,0,.4,4.07,4,4,0,0,0,2.39,3c1.35.5,1.61.33,1.6-1.07,0-5.23-.31-10.46.95-15.61a4.69,4.69,0,0,0-.17-2.46c-.36-1.18-1.28-1.41-2.05-.46a11.16,11.16,0,0,0-1.3,2.12C914,676.57,914.18,680.19,913.81,683.72Zm48-18.51c-3.3-4.12-20.84-9.94-25.64-8.56C944.64,659.69,953,662.67,961.77,665.21Zm-58.14-11.32c1,0,1.63,0,2.32,0,.33,0,.73,0,.82-.45s-.26-.59-.58-.72a16.64,16.64,0,0,0-9.55-1.5c-1,.17-1.71.62-1.66,1.68a1.94,1.94,0,0,0,1.83,2,5.74,5.74,0,0,0,1.74-.19A21.73,21.73,0,0,1,903.63,653.89Zm31.23,21.63c.81,1.83,4.08,5.16,8.21,8.35C942.92,679.58,939,675.6,934.86,675.52Z"/><path class="cls-13" d="M873,694.17h-1.42c-.53-4-1.22-8.06-2.11-12a2.51,2.51,0,0,0-.56-1.46c.06-2.31-1-4.45-1.1-6.75-.12-1.95-1.09-3.85-1.19-5.8-.2-4.21-1.54-8.24-1.83-12.42,0-.35-.12-.7-.55-.75s-.63.26-.79.56a1.39,1.39,0,0,0,0,1.27c2,4.72,2,9.7,1.93,14.69a2.38,2.38,0,0,1-1.23,2.29,37.25,37.25,0,0,0-8.1,6c-1,1-1.92,2.18-3.61,2.31a3.14,3.14,0,0,1,.13-.68c2.54-5.26,3.59-10.9,4.18-16.65a1.64,1.64,0,0,0-.89-1.83c-.69-.32-1.25.17-1.64.67-.73,1-1.56,1.94-1.48,3.26.29,5.24-1.4,10-3.47,14.66A9.13,9.13,0,0,1,845.4,686a29,29,0,0,0-5.93.88,7.75,7.75,0,0,1-3.34.07l3.07-2.72a3.25,3.25,0,0,0,1.25-1.51c.53-.21.63-.74.89-1.17a9.53,9.53,0,0,0,1.87-2.7,8.28,8.28,0,0,0,2.49-4.75c.14-.67-.22-1.13-1-1.1-1.36.22-2.14,1.27-3.09,2.08l-.28.31.06,0a9.15,9.15,0,0,0-4.21,4.45,2.29,2.29,0,0,0-.84,1.73,31,31,0,0,1-3.52,6.15,7.25,7.25,0,0,0-1.05,2.86c-.43,1.85-1.42,2.37-3.24,1.86-3-.85-5.3-2.81-7.74-4.57a2.44,2.44,0,0,1-.89-2.21.14.14,0,0,0,.05-.23l.23-.66a38.62,38.62,0,0,1,12.94-12.92c1.16-.59,2.35-1.15,3.49-1.78q1.41-.78,2.73-1.68a1,1,0,0,0,.44-1.27.92.92,0,0,0-1.11-.51c-1.17.25-2.44.11-3.5.84a7.7,7.7,0,0,0-2.77.89c-.58.1-1.17.2-1.37.9a11.22,11.22,0,0,0-5.16,4.53,68.26,68.26,0,0,1-8.24,10.75l-.06,0c-.15,0-.24,0-.22.2a.22.22,0,0,0-.13.21l-.3.37c-.42.57-.76.82-1.17-.05-1.2-2.57-1.75-5.13-.2-7.75a45,45,0,0,1,10.58-9.61c1.41-.88,2.83-1.73,4.24-2.6,1.52-.3,2.8-1.22,4.24-1.71a16.11,16.11,0,0,0,4.38-1.45c1.17.33,2.09-.42,3.08-.77.71-.25,1.9-.43,1.71-1.44s-1.36-.61-2.12-.74c-1.47.25-3-.3-4.42.62-.15-.1-.32-.3-.46-.28a20.45,20.45,0,0,0-6.1,1.87c-.5.25-.43.71-.58,1.09-.34-1-.85-.37-1.28-.11-5.32,3.22-9.43,7.85-13.93,12-1-1.26-.73-2.76-.58-4.16.33-3.11,1.42-5.87,4.27-7.6a1.79,1.79,0,0,0,.81-1.62c.28-6.53,3.65-11.21,8.78-14.94a38.23,38.23,0,0,1,9.63-5.41,23.78,23.78,0,0,0,5.89-1.18,73.38,73.38,0,0,1,10-1.07,19.81,19.81,0,0,1,7,1.32c.87.31,1.29.74,1.13,1.72a4.09,4.09,0,0,0,.08,1.74c.56,2.08,2.16,3.83,1.77,6.25,1.8-1.49,3.73-2.57,4.88-4.52a6.52,6.52,0,0,1,2.68-2.44c.91-.48,1.81-.74,2.65.2a1.28,1.28,0,0,0,1.73.18c.39-.21.79-.39,1.19-.56,1.47-.6,1.7-.43,2,1.08a22,22,0,0,1-1.15,14.32c-.12.09-.3.15-.34.26-1.4,3.56-4,6.23-6.75,8.71-1.63,1.49-2.41,2.94-1.44,5.07a13.29,13.29,0,0,1,.37,1.71c.52,1.7.42,3.55,1.2,5.19a52,52,0,0,0,1,8.71C872.24,689.65,872.8,691.88,873,694.17Zm1.38-44.95c.57.25,1.14.52,1.72.76s1,.4,1.36,0a1.52,1.52,0,0,0,.25-1.51,3.47,3.47,0,0,0-5.41-2.09,4.91,4.91,0,0,0-2.4,1.24.82.82,0,0,0-.37.89c.07.35.35.43.65.45Zm-41.7-2.07h14.62l0-.56c-4.36-1.93-9-2-13.63-1.46-1,.16-2,.3-3,.49-.51.1-1.18.16-1.06.9s.69.52,1.17.53S832.09,647.11,832.72,647.15Zm-2.71,10c1-.33,2-.74,3-1,3.52-.78,7-1.5,10.57-2.23.43-.09,1.06-.11,1.08-.55,0-.62-.67-.56-1.12-.65-3.83-.73-7.45.15-11,1.49a4.32,4.32,0,0,0-2.43,1.51,4.65,4.65,0,0,0-2.74,1.93A3,3,0,0,0,830,657.14Zm38,6.77a4.79,4.79,0,0,0-.8-4.37Z"/><path class="cls-13" d="M865.17,723.24a17.58,17.58,0,0,0,3.67,8.59c.61.75,1.28,1.46,1.95,2.16,1.59,1.65,1.53,2.62-.3,4l-.81.63a24.58,24.58,0,0,0,8.84-1.87c1.48-.61,2.9-1.34,4.36-2,.07.62.19,1.25.21,1.88.13,4.2-.16,8.39-.39,12.59,0,.32-.49.92.34,1a47,47,0,0,0-.57,7.86,44.44,44.44,0,0,0,3.89,17.29c.17.35.36.7.55,1,0,.07.15.1.4.24.46-1.38.91-2.74,1.4-4.19a4.6,4.6,0,0,1,0,3.79c-.76,1.89-1.18,3.82-.14,5.77-1.67.16-2.07,1.12-1.81,2.66a12.56,12.56,0,0,1,0,2.29c-1.08-2.54-2.11-5.11-3.27-7.61-.84-1.8-1.85-3.52-2.79-5.27a5.48,5.48,0,0,0,.3-.8c.75-3.36-.09-6.49-1.32-9.58-.41-1-.88-2.09-2.24-1.88s-1.91,1.33-2,2.67a8.88,8.88,0,0,1-.27,2.76c-1.92-1.24-3.76-2.63-6-3.19a13.41,13.41,0,0,0-9.22,1.28,28.38,28.38,0,0,0-7.41,5.4c-.74.72-1.18.68-1.92,0-4-3.64-9-3.85-13.35-.62a4.64,4.64,0,0,1-1.6,1A26.42,26.42,0,0,1,832.23,759c0-2.24-.09-4.54.13-6.81.58-6.14,3.58-11.09,7.53-15.55A38.77,38.77,0,0,1,865.17,723.24Zm-12,25.5a59.49,59.49,0,0,0-14.29,1.74,11.7,11.7,0,0,0-4.79,2.09c-.3.23-.68.47-.5.94a.82.82,0,0,0,1.11.43,35.26,35.26,0,0,0,3.51-1,32.65,32.65,0,0,1,20.16-1c2.41.6,4.85,1.12,7.27,1.7.62.15,1.18.22,1.55-.4s0-1.11-.43-1.56a4.19,4.19,0,0,0-2.22-1.34A40,40,0,0,0,853.14,748.74Zm.61-13.27c-.45-.05-.94-.09-1.18.36s.1.93.5,1.23a13.55,13.55,0,0,0,1.7,1.13,71,71,0,0,0,7.92,3.4c.62.23,1.35.62,1.85-.14s-.22-1.18-.59-1.64C861.31,736.59,857.58,735.91,853.75,735.47Z"/><path class="cls-13" d="M919.91,730.38l-1.13.43a92.94,92.94,0,0,1,2.78-10,18.28,18.28,0,0,1,3.4-5.6c1.21-1.44,1.27-1.39-.34-2.49-2.07-1.42-2.53-3.26-1.35-5.42a5.31,5.31,0,0,1,7-1.69c1.07.68,1.5,1.83,2.41,2.71a2.26,2.26,0,0,0-.26-2.43c-.37-.67-.48-1.29.24-1.8l.44-.2.06.07.08,0a3.18,3.18,0,0,0,1.45.33c0,.57.51.76.85,1.07l9.54,9.27a2.17,2.17,0,0,0,1,.53c3,2.77,6,5.43,8.82,8.35a61.1,61.1,0,0,1,5.75,7.18,5.75,5.75,0,0,1-.57,6.9,3.06,3.06,0,0,1-.34-2.09,6.64,6.64,0,0,0-2.16-5.51c-2.44-2.38-5.31-4.17-8-6.25a19.42,19.42,0,0,0-8.62-4.07c-4.34-.78-8.09-2.8-11.87-4.85a1.78,1.78,0,0,0-2.41.42c-3.49,3.19-5,7.38-6.12,11.78A11.17,11.17,0,0,0,919.91,730.38Z"/><path class="cls-12" d="M845.4,686a9.13,9.13,0,0,0,3.92-4.54c2.07-4.68,3.76-9.42,3.47-14.66-.08-1.32.75-2.3,1.48-3.26.39-.5,1-1,1.64-.67a1.64,1.64,0,0,1,.89,1.83c-.59,5.75-1.64,11.39-4.18,16.65a3.14,3.14,0,0,0-.13.68c1.69-.13,2.66-1.35,3.61-2.31a37.25,37.25,0,0,1,8.1-6,2.38,2.38,0,0,0,1.23-2.29c.06-5,.09-10-1.93-14.69a1.39,1.39,0,0,1,0-1.27c.16-.3.4-.6.79-.56s.53.4.55.75c.29,4.18,1.63,8.21,1.83,12.42.1,2,1.07,3.85,1.19,5.8.15,2.3,1.16,4.44,1.1,6.75l-2.66,2.89a16.91,16.91,0,0,0-3.79,3.57c-1,1.41-.85,2.27.41,3.57.24.69,1.68.72,1.25,1.5s-1.31-.09-2-.23A57.79,57.79,0,0,1,845.4,686Z"/><path class="cls-13" d="M887.42,829.48c0,1.17.1,2.18-1.55,1.91-.35-.06-.52.2-.62.49l-.39-.3-.75-.6,0-.86"/><path class="cls-13" d="M884.07,830.12c-.27-5-.54-15-.81-19.94-.48-8.88-1-17.76-1.42-26.65-.06-1.07-.33-1.78-1.48-1.93l-.81-5,.11,0,.09.07c.71,0,.77.66,1,1.11a77.27,77.27,0,0,1,5.6,14.07,7.49,7.49,0,0,1,.79,2.48c-.48,1.52-.09,3.06-.07,4.59.08,8.53.19,22.06.34,30.59"/><path class="cls-12" d="M870.8,678.69c-.78-1.64-.68-3.49-1.2-5.19a13.29,13.29,0,0,0-.37-1.71c-1-2.13-.19-3.58,1.44-5.07,2.75-2.48,5.35-5.15,6.75-8.71,0-.11.22-.17.34-.26a22.91,22.91,0,0,1-.18,9C876.51,671.39,873.83,675.13,870.8,678.69Z"/><path class="cls-13" d="M909.49,830.08c0,.58-.11,1.16-.17,1.74l-.36,0c-1-.14-1-.84-1-1.68"/><path class="cls-13" d="M908,830.16c.32-8,.6-21,.88-29.08,0-.51.22-1.08-.25-1.52l0-.93c.46-.31.28-.79.29-1.2.18-3.93.39-7.86.46-11.79,0-1.22.62-2.42.11-3.65a6.22,6.22,0,0,1,1.62-2.12c-.31,3.72-.69,7.44-.7,11.18a4.15,4.15,0,0,0,.06,2.21,44.33,44.33,0,0,0-.12,6.62c-.53.47-.31,1.09-.32,1.65-.19,7.85-.36,20.7-.54,28.55"/><path class="cls-12" d="M843.71,639.53a23.78,23.78,0,0,1-5.89,1.18A6.22,6.22,0,0,1,843.71,639.53Z"/><path class="cls-13" d="M910.93,799.88c.17-.24.35-.34.58-.07A.41.41,0,0,1,910.93,799.88Z"/><path class="cls-13" d="M917.93,799.91a.51.51,0,0,1,.65.15A.54.54,0,0,1,917.93,799.91Z"/><path class="cls-13" d="M880.29,783.44c-.2-.11-.19-.22,0-.33Z"/><path class="cls-13" d="M897.5,708l-.06-.37A.22.22,0,0,1,897.5,708Z"/><path class="cls-13" d="M871.31,694.36l-.32.08Z"/><path class="cls-14" d="M820,685.42a.14.14,0,0,1-.05.23A.32.32,0,0,1,820,685.42Z"/><path class="cls-14" d="M816.94,685.34l.3-.37Z"/><path class="cls-14" d="M817.37,684.76c0-.17.07-.21.22-.2Z"/><path class="cls-13" d="M901.2,830.64a.82.82,0,0,1-.55.63,1.06,1.06,0,0,0-.87,0c-.22-.28-.42-.11-.63,0a.28.28,0,0,1-.25,0,1.69,1.69,0,0,1-.45-.93"/><path class="cls-13" d="M898.45,830.35c-.06-.38-.05-.77-.09-1.14-.39-3.15-.86-11.29-1.65-14.37a46.1,46.1,0,0,1-1.77-12.74,25.71,25.71,0,0,0-.72-6.4c-.5-2.24-1-4.48-1.46-6.72,1,.38,1.59,1.29,2.31,2,.77,4.87,1.81,9.68,2.91,14.48,1.47,6.48,2.26,18.06,3.11,24.64l.11.52"/><path class="cls-13" d="M890.24,772.17a3.39,3.39,0,0,1-.15-3,29.61,29.61,0,0,1,10.37-13A8,8,0,0,1,903,755c.55-.14,1.19-.29,1.57.38a1.47,1.47,0,0,1-.21,1.88,2.27,2.27,0,0,1-.93.68c-4.3,1.25-6.7,4.69-9.26,8A59.13,59.13,0,0,0,890.24,772.17Z"/><path class="cls-13" d="M875.11,770.8c-5.31-3.33-11-3.2-16.77-1.7a3.36,3.36,0,0,1-1.43.23h0c6.06-5.17,13.06-5.35,18.21.57C875.11,770.2,875.11,770.5,875.11,770.8Z"/><path class="cls-13" d="M906.91,765.57a18.8,18.8,0,0,1-5.7,10.16,16.05,16.05,0,0,1,4.46-9.45A2.17,2.17,0,0,1,906.91,765.57Z"/><path class="cls-15" d="M877.19,772.25c.15.15.29.31.44.47l-.2.16-.45-.45A1.68,1.68,0,0,1,877.19,772.25Z"/><path class="cls-15" d="M892.17,804.78l0-.5Z"/><path class="cls-16" d="M896.12,830.13c0,.09.08.17.11.26s0,.09,0,.14l-.08-.4"/><path class="cls-16" d="M895.91,828.12a.28.28,0,0,1,0,.28,1.08,1.08,0,0,1-.08-.19A.28.28,0,0,1,895.91,828.12Z"/><path class="cls-15" d="M893.54,820.52l0,.43A.3.3,0,0,1,893.54,820.52Z"/><polygon class="cls-15" points="892.16 808.3 892.17 808.29 892.15 808.25 892.16 808.3"/><polygon class="cls-15" points="891.86 806.46 891.87 806.55 891.8 806.49 891.86 806.46"/><path class="cls-15" d="M891.35,804a1.22,1.22,0,0,1,.12.19s0,.06-.07.09a.67.67,0,0,1-.07-.18S891.34,804,891.35,804Z"/><path class="cls-13" d="M886.8,787.52l.05.31a.92.92,0,0,1-.13-.21S886.77,787.56,886.8,787.52Z"/><path class="cls-13" d="M856.91,769.33l-.12.13a.17.17,0,0,1,0-.08l.11,0Z"/><path class="cls-13" d="M918.39,731.19l.21-.16Z"/><path class="cls-12" d="M830.16,655.74a4.32,4.32,0,0,1,2.43-1.51c3.55-1.34,7.17-2.22,11-1.49.45.09,1.14,0,1.12.65,0,.44-.65.46-1.08.55-3.53.73-7,1.45-10.57,2.23-1,.23-2,.64-3,1l0-.54.07-.39Z"/><path class="cls-12" d="M833.73,645.13c4.68-.57,9.27-.47,13.63,1.46l0,.56H832.72Z"/><path class="cls-12" d="M830.27,664.49l-.15-2c.15-.38.08-.84.58-1.09a20.45,20.45,0,0,1,6.1-1.87c.14,0,.31.18.46.28a20.61,20.61,0,0,0-2.63,3.78c-1.44.49-2.72,1.41-4.24,1.71l-.06-.51C830.52,664.67,830.46,664.57,830.27,664.49Z"/><path class="cls-12" d="M840.45,682.73l-3.25-2.9a9.15,9.15,0,0,1,4.21-4.45c-.06,1.56-.12,3.12-.19,4.67a.36.36,0,0,0,0,.61l.11.9C841.08,682,841,682.52,840.45,682.73Z"/><path class="cls-12" d="M833.14,671.84a25.5,25.5,0,0,1,2.05-4.4c1.06-.73,2.33-.59,3.5-.84a.92.92,0,0,1,1.11.51,1,1,0,0,1-.44,1.27q-1.32.9-2.73,1.68C835.49,670.69,834.3,671.25,833.14,671.84Z"/><path class="cls-12" d="M872.34,646.34a17.87,17.87,0,0,1,2.08,2.88l-4.2-.3c-.3,0-.58-.1-.65-.45a.82.82,0,0,1,.37-.89A4.91,4.91,0,0,1,872.34,646.34Z"/><path class="cls-12" d="M839,662.17l2.67-2.95c.76.13,1.92-.32,2.12.74s-1,1.19-1.71,1.44C841.1,661.75,840.18,662.5,839,662.17Z"/><path class="cls-12" d="M843.21,678.86a21.92,21.92,0,0,1,1.51-5.85c.76,0,1.12.43,1,1.1A8.28,8.28,0,0,1,843.21,678.86Z"/><path class="cls-12" d="M868,663.91l-.8-4.37A4.79,4.79,0,0,1,868,663.91Z"/><path class="cls-12" d="M832.42,668.33l-.82,3-.55-2.12C831.25,668.53,831.84,668.43,832.42,668.33Z"/><path class="cls-12" d="M841.63,675.09c0,.19-.11.27-.28.31A4.12,4.12,0,0,1,841.63,675.09Z"/><path class="cls-15" d="M899.28,831.58l-.13-.28c.21-.12.41-.29.63,0A.52.52,0,0,1,899.28,831.58Z"/><path class="cls-14" d="M932.67,704.1l.44-.2Z"/><path class="cls-13" d="M830.27,664.49c.19.08.25.18.06.33a1.43,1.43,0,0,1-.08-.22S830.26,664.53,830.27,664.49Z"/><path class="cls-15" d="M901.2,830.64l-.11-.52A.37.37,0,0,1,901.2,830.64Z"/><path class="cls-13" d="M841.22,680.05a.56.56,0,0,1,0,.61A.36.36,0,0,1,841.22,680.05Z"/><path class="cls-17" d="M912.45,885.58H879.92a7,7,0,0,1-7-6.54l-3.38-50.92h53.8l-3.91,51A7,7,0,0,1,912.45,885.58Z"/><path class="cls-18" d="M925.42,834.79l.44-5.77a2.73,2.73,0,0,0-2.72-2.94H869.6a2.73,2.73,0,0,0-2.72,2.92l.38,5.78Z"/></g></g><rect class="cls-19" x="977.54" y="586.52" width="90.2" height="292.78"/><g class="cls-20"><rect class="cls-21" x="530.06" y="761.23" width="291.29" height="3.84"/><rect class="cls-22" x="530.06" y="765.07" width="291.29" height="7.68"/></g><rect class="cls-23" x="963.43" y="876.2" width="118.14" height="15.03"/><rect class="cls-24" x="977.54" y="586.52" width="90.2" height="32.9"/><line class="cls-25" x1="271.67" y1="579.52" x2="271.67" y2="768.17"/><line class="cls-25" x1="356.5" y1="579.52" x2="356.5" y2="768.17"/><line class="cls-25" x1="180.27" y1="578.52" x2="180.27" y2="767.17"/><line class="cls-25" x1="94.65" y1="579.52" x2="94.65" y2="768.17"/><rect class="cls-26" x="1277.91" y="292.44" width="642.09" height="597.59"/><rect class="cls-27" x="1269.66" y="236.05" width="650.34" height="69.28"/><rect class="cls-28" x="1610.5" y="604.98" width="309.5" height="284.81"/><rect class="cls-29" x="1328.38" y="609.18" width="58.61" height="57.41"/><rect class="cls-29" x="1328.38" y="681.16" width="58.61" height="145.42"/><rect class="cls-29" x="1407.28" y="681.16" width="147.47" height="145.42"/><rect class="cls-29" x="1328.38" y="339.09" width="58.61" height="57.41"/><rect class="cls-29" x="1328.38" y="411.08" width="58.61" height="145.42"/><rect class="cls-29" x="1407.28" y="411.08" width="147.47" height="145.42"/><rect class="cls-29" x="1407.28" y="339.09" width="147.47" height="57.41"/><rect class="cls-29" x="1407.28" y="609.18" width="147.47" height="57.41"/><rect class="cls-29" x="1610.5" y="339.09" width="58.61" height="57.41"/><rect class="cls-29" x="1610.5" y="411.08" width="58.61" height="145.42"/><rect class="cls-29" x="1689.4" y="411.08" width="147.47" height="145.42"/><rect class="cls-29" x="1689.4" y="339.09" width="147.47" height="57.41"/><rect class="cls-29" x="1893.5" y="339.09" width="26.9" height="57.41"/><rect class="cls-29" x="1893.5" y="411.08" width="26.9" height="145.42"/><line class="cls-25" x1="439.94" y1="620.82" x2="11.21" y2="620.82"/><line class="cls-25" x1="716.76" y1="578.08" x2="716.76" y2="871.33"/><line class="cls-25" x1="812.59" y1="577.4" x2="812.59" y2="871.33"/><line class="cls-25" x1="622.36" y1="576.86" x2="622.36" y2="871.33"/><line class="cls-25" x1="900.03" y1="620.82" x2="530.06" y2="620.82"/><line class="cls-25" x1="900.03" y1="768.17" x2="530.06" y2="768.17"/><path class="cls-30" d="M1105.43,640.74a.82.82,0,0,1,.6-1.13Z"/><path class="cls-31" d="M696.89,577.23a1.83,1.83,0,0,1,.5.26c-.3,5,.17,10-.67,15-3.47,8.06-10.35,12.52-18.76,12.17s-14.85-4.94-17.58-12.77q-.36-6.89-.71-13.77l.62-.89C672.49,577.63,684.69,577.61,696.89,577.23Z"/><path class="cls-32" d="M808,588.72c0-2.75.13-5.5,0-8.24-.13-2.36.73-3.08,3-3.06,9.7.1,19.4.06,29.1,0,1.22,0,2.57.42,3.6-.72.35.29,1,.58,1,.88.22,7.65,2,15.65-4.64,21.79a20.73,20.73,0,0,1-22.75,3.18A16.46,16.46,0,0,1,808,591.24,3.33,3.33,0,0,1,808,588.72Z"/><path class="cls-33" d="M585.94,576.86a2.14,2.14,0,0,1,.54-.23c1.08,1.36,2.58.8,3.9.81,10.78,0,21.56,0,32.34,0l.23-.06c-.5,5,.38,10.13-.72,15.13-3.35,7.9-10,12.46-18.43,12.05s-14.95-4-17.94-12.76Q585.91,584.37,585.94,576.86Z"/><path class="cls-30" d="M696.72,592.48c.84-5,.37-10,.67-15,11,0,21.94,0,32.91-.07,1.21,0,2.92.79,3.4-1.37l.81,1.48q0,7.05,0,14.11c-3,7.44-8.36,11.62-16.12,12.88-7.17,1.17-16-2.93-19.48-9.52C698.36,594,698.2,592.62,696.72,592.48Z"/><path class="cls-34" d="M512.54,576.67c1.11,1.26,2.59.77,3.91.77,10.59.07,21.18.07,31.77.1l.09,13.64c-5.52,12.56-17.62,17.13-28.79,10.71-5.35-3.08-8.46-7.72-8.29-14.33.06-2.64,0-5.28,0-7.92C511.24,578.46,511,577.15,512.54,576.67Z"/><path class="cls-35" d="M734.49,591.64q0-7,0-14.11,16.29,0,32.57-.08c1.22,0,2.58.45,3.6-.71l.83.73-.21,14.4c-3.16,8.77-9.73,12.48-18.31,12.74S738,600.29,734.49,591.64Z"/><path class="cls-30" d="M622.23,592.56c1.1-5,.22-10.1.72-15.13l32.67,0c1.38,0,2.8-.23,4,.65q.36,6.89.71,13.77c-1,.06-1.16.93-1.49,1.7-3.4,7.94-10,11-17.7,11s-14.07-3.05-17.45-10.84C623.43,593,623.5,591.92,622.23,592.56Z"/><path class="cls-30" d="M771.3,591.87l.21-14.4h36.73c.85,3.71-.47,7.57.73,11.25a3.38,3.38,0,0,0-.05,2.52c-3,7.44-8.19,11.83-16,13.12a19,19,0,0,1-20.1-10.14C772.38,593.39,772.21,592.38,771.3,591.87Z"/><path class="cls-36" d="M548.31,591.18l-.09-13.64.64-.07h36.27q0,7.14,0,14.28c-2.86,9.56-13.58,14.91-23.82,12C554.82,601.91,550.58,597.68,548.31,591.18Z"/><rect class="cls-37" x="511.24" y="557.64" width="36.98" height="22"/><rect class="cls-38" x="548.2" y="557.64" width="36.98" height="22"/><rect class="cls-37" x="585.45" y="557.64" width="36.98" height="22"/><rect class="cls-38" x="622.41" y="557.64" width="36.98" height="22"/><rect class="cls-37" x="659.75" y="557.64" width="36.98" height="22"/><rect class="cls-38" x="696.71" y="557.64" width="36.98" height="22"/><rect class="cls-37" x="734.33" y="557.64" width="36.98" height="22"/><rect class="cls-37" x="807.89" y="557.64" width="36.98" height="22"/><rect class="cls-38" x="771.29" y="557.64" width="36.98" height="22"/><path class="cls-39" d="M880.61,588.72c0-2.75.13-5.5,0-8.24-.13-2.36.73-3.08,3-3.06,9.7.1,19.4.06,29.1,0,1.22,0,2.57.42,3.6-.72.35.29,1,.58,1,.88.22,7.65,2,15.65-4.64,21.79a20.73,20.73,0,0,1-22.75,3.18,16.44,16.44,0,0,1-9.33-11.34A3.33,3.33,0,0,1,880.61,588.72Z"/><path class="cls-30" d="M843.9,591.87l.21-14.4h36.73c.85,3.71-.47,7.57.73,11.25a3.38,3.38,0,0,0-.05,2.52c-3,7.44-8.19,11.83-16,13.12a19,19,0,0,1-20.1-10.14C845,593.39,844.81,592.38,843.9,591.87Z"/><rect class="cls-37" x="880.49" y="557.64" width="36.98" height="22"/><rect class="cls-38" x="843.89" y="557.64" width="36.98" height="22"/><path class="cls-40" d="M234.72,577.23a2,2,0,0,1,.5.26c-.3,5,.17,10-.67,15-3.48,8.06-10.35,12.52-18.76,12.17s-14.85-4.94-17.58-12.77q-.36-6.89-.71-13.77c.2-.3.41-.59.62-.89C210.32,577.63,222.52,577.61,234.72,577.23Z"/><path class="cls-41" d="M345.84,588.72c0-2.75.12-5.5,0-8.24-.14-2.36.73-3.08,3-3.06,9.7.1,19.4.06,29.09,0,1.23,0,2.58.42,3.61-.72.35.29,1,.58,1,.88.22,7.65,1.95,15.65-4.64,21.79a20.73,20.73,0,0,1-22.75,3.18,16.44,16.44,0,0,1-9.33-11.34A3.33,3.33,0,0,1,345.84,588.72Z"/><path class="cls-42" d="M123.77,576.86a2.08,2.08,0,0,1,.53-.23c1.09,1.36,2.59.8,3.91.81,10.78,0,21.56,0,32.33,0l.24-.06c-.5,5,.38,10.13-.73,15.13-3.34,7.9-10,12.46-18.42,12.05s-14.95-4-17.94-12.76Q123.74,584.37,123.77,576.86Z"/><path class="cls-30" d="M234.55,592.48c.84-5,.37-10,.67-15,11,0,21.93,0,32.9-.07,1.22,0,2.93.79,3.41-1.37l.81,1.48q0,7.05,0,14.11c-3,7.44-8.36,11.62-16.12,12.88-7.17,1.17-16-2.93-19.48-9.52C236.19,594,236,592.62,234.55,592.48Z"/><path class="cls-43" d="M50.37,576.67c1.11,1.26,2.59.77,3.91.77,10.59.07,21.18.07,31.77.1l.09,13.64c-5.52,12.56-17.63,17.13-28.79,10.71-5.35-3.08-8.46-7.72-8.3-14.33.07-2.64,0-5.28,0-7.92C49.07,578.46,48.85,577.15,50.37,576.67Z"/><path class="cls-44" d="M272.32,591.64q0-7,0-14.11,16.29,0,32.57-.08c1.22,0,2.57.45,3.6-.71l.83.73-.21,14.4c-3.16,8.77-9.73,12.48-18.31,12.74S275.87,600.29,272.32,591.64Z"/><path class="cls-30" d="M160.05,592.56c1.11-5,.23-10.1.73-15.13l32.67,0c1.38,0,2.8-.23,4.05.65q.34,6.89.71,13.77c-1.05.06-1.16.93-1.49,1.7-3.4,7.94-10.05,11-17.7,11s-14.07-3.05-17.45-10.84C161.26,593,161.32,591.92,160.05,592.56Z"/><path class="cls-30" d="M309.13,591.87l.21-14.4h36.73c.85,3.71-.48,7.57.73,11.25a3.33,3.33,0,0,0-.05,2.52c-3,7.44-8.19,11.83-16,13.12a19,19,0,0,1-20.1-10.14C310.21,593.39,310,592.38,309.13,591.87Z"/><path class="cls-36" d="M86.14,591.18l-.09-13.64.63-.07H123l0,14.28c-2.86,9.56-13.58,14.91-23.81,12C92.65,601.91,88.4,597.68,86.14,591.18Z"/><rect class="cls-37" x="49.07" y="557.64" width="36.98" height="22"/><rect class="cls-38" x="86.03" y="557.64" width="36.98" height="22"/><path class="cls-45" d="M0,577.51l11.23,0q0,6.81.08,13.64c-2.58,5.89-6.61,10-11.31,12.08"/><path class="cls-36" d="M11.31,591.18q0-6.82-.08-13.64l.63-.07H48.14l0,14.28c-2.86,9.56-13.58,14.91-23.82,12C17.83,601.91,13.58,597.68,11.31,591.18Z"/><polyline class="cls-37" points="0 579.64 11.23 579.64 11.23 557.64 0 557.64"/><rect class="cls-38" x="11.21" y="557.64" width="36.98" height="22"/><rect class="cls-37" x="123.28" y="557.64" width="36.98" height="22"/><rect class="cls-38" x="160.24" y="557.64" width="36.98" height="22"/><rect class="cls-37" x="197.58" y="557.64" width="36.98" height="22"/><rect class="cls-38" x="234.54" y="557.64" width="36.98" height="22"/><rect class="cls-37" x="272.16" y="557.64" width="36.98" height="22"/><rect class="cls-37" x="345.72" y="557.64" width="36.98" height="22"/><rect class="cls-38" x="309.12" y="557.64" width="36.98" height="22"/><path class="cls-46" d="M418.43,588.72c0-2.75.13-5.5,0-8.24-.14-2.36.73-3.08,3-3.06,9.7.1,19.4.06,29.09,0,1.22,0,2.57.42,3.6-.72.36.29,1,.58,1,.88.22,7.65,1.95,15.65-4.65,21.79a20.73,20.73,0,0,1-22.75,3.18,16.45,16.45,0,0,1-9.32-11.34A3.38,3.38,0,0,1,418.43,588.72Z"/><path class="cls-30" d="M381.73,591.87l.21-14.4h36.73c.85,3.71-.48,7.57.73,11.25a3.33,3.33,0,0,0,0,2.52c-3,7.44-8.19,11.83-16,13.12a19,19,0,0,1-20.1-10.14C382.81,593.39,382.63,592.38,381.73,591.87Z"/><rect class="cls-37" x="418.32" y="557.64" width="36.98" height="22"/><rect class="cls-38" x="381.72" y="557.64" width="36.98" height="22"/><g class="cls-20"><path class="cls-47" d="M739.32,830.67l.22-2c2.76-2.15,1.94-4.65.73-7.2,0-1.73-.35-3.5.69-5.09,1-.22,1.61-.66.94-1.78-1.62-2.43-.56-5-.28-7.47l4.18-.91a24.38,24.38,0,0,1-.28,3.54c-.95,4,.57,5.14,4.63,5,10.17-.3,20.35-.2,30.53,0,3,0,3.76-.88,3.31-3.79-.73-4.69-1.07-9.43-1.58-14.15l4.61,0q.72,10.22,1.46,20.42c-1.08,1.68-2.82,1-4.32,1.23H745.33c-.9-.8-.83-.11-.8.52l-.6,7.61c-2.77,2.14-1.93,4.65-.74,7.2l-.15,2c-3.44,3.14-1.77,6.74-.92,10.27l-.24,2c-2.76,2.14-1.94,4.65-.73,7.2-.19,3.08,2.05,2.44,3.81,2.44,12.43,0,24.86-.26,37.28.14,4.89.16,6.87-1,5.82-6l-.38-1.72-.2-2.07c1.13-3.89,2.22-7.78-1-11.28l0-1c1.07-2.2,2.06-4.39-.67-6.18l-.35-4.07c1.44-1.19.31-4.77,3.78-4.09l.17,3.07c-1.1,2.2-2.07,4.38.65,6.17l.33,3.06c-.9,3.19-2.31,6.43.86,9.24l.36,5.94c0,.33.07.67.1,1a10.57,10.57,0,0,1,.74,5.36c-1,2.85-2.27,5.72.72,8.22l.3,3.06c-1.63.59.24,5.54-3.83,3.07l-.07-1c1-2.62,2.54-5.35-1.28-7.1l-47,0c-.89-.8-.83-.11-.8.52-.22,2.54-.61,6.81-.82,9.35l-4,0c.16-2.37.51-6.47.67-8.84,3.7-1.3.31-3.57.73-5.31l.27-6c3.39-2.4,1.87-5.34.92-8.22l.14-2C741.83,837.8,740.12,834.19,739.32,830.67Z"/><path class="cls-48" d="M787,796.76l-4.61,0c-11.91-.22-23.82-.54-35.73.17l-4.39-.14c-2-.45-3.57-1.43-3.06-3.81s2.57-2.27,4.46-2.27q21.16,0,42.32,0c2,0,4,.08,4.35,2.45S789.08,796.44,787,796.76Z"/><path class="cls-49" d="M789.48,871.33c0-.56,0-1.13.1-1.69,4.07,2.47,2.2-2.48,3.83-3.07l.45,4.76"/><path class="cls-49" d="M789.18,821.45c-3.47-.68-2.34,2.9-3.78,4.09q-.61-3.56-1.24-7.13c1.5-.2,3.24.45,4.32-1.23A6.23,6.23,0,0,1,789.18,821.45Z"/><path class="cls-47" d="M742.29,796.81l4.39.14c-.19,2.35-.39,4.69-.58,7-4.94.18-1.53-4.65-3.69-6.13Z"/><path class="cls-49" d="M742.41,797.86c2.16,1.48-1.25,6.31,3.69,6.13l-.3,2.2-4.18.91Q742,802.48,742.41,797.86Z"/><path class="cls-49" d="M739.32,830.67c.8,3.52,2.51,7.13-.94,10.27Z"/><path class="cls-49" d="M791.19,843c-3.17-2.81-1.76-6-.86-9.24C790.62,836.83,790.9,839.91,791.19,843Z"/><path class="cls-49" d="M738.24,843c1,2.88,2.47,5.82-.92,8.22Z"/><path class="cls-49" d="M793.11,863.51c-3-2.5-1.72-5.37-.72-8.22Z"/><path class="cls-49" d="M740.27,821.44c1.21,2.55,2,5-.73,7.2Z"/><path class="cls-49" d="M788.23,861.5c3.82,1.75,2.28,4.48,1.28,7.1Z"/><path class="cls-49" d="M790,830.69c-2.72-1.79-1.75-4-.65-6.17C789.56,826.58,789.78,828.63,790,830.69Z"/><path class="cls-49" d="M737.05,857.16c-.42,1.74,3,4-.73,5.31A9.41,9.41,0,0,1,737.05,857.16Z"/><path class="cls-49" d="M741.9,814.57c.67,1.12.07,1.56-.94,1.78C740.55,815.37,740.71,814.7,741.9,814.57Z"/><path class="cls-49" d="M740.43,862c0-.63-.09-1.32.8-.52A1,1,0,0,1,740.43,862Z"/><path class="cls-49" d="M791.65,849.93c0-.33-.07-.67-.1-1a4.32,4.32,0,0,1,.32.69C791.89,849.69,791.73,849.83,791.65,849.93Z"/><path class="cls-49" d="M787.48,848.1l-1-11.28C789.7,840.32,788.61,844.21,787.48,848.1Z"/><path class="cls-49" d="M743,835.78c-.31,3.42-.61,6.84-.92,10.27C741.27,842.52,739.6,838.92,743,835.78Z"/><path class="cls-49" d="M743.93,826.54l-.74,7.2C742,831.19,741.16,828.68,743.93,826.54Z"/><path class="cls-49" d="M741.88,848.08l-.73,7.2C739.94,852.73,739.12,850.22,741.88,848.08Z"/><path class="cls-49" d="M786.42,835.79l-.67-6.18C788.48,831.4,787.49,833.59,786.42,835.79Z"/><path class="cls-49" d="M788.06,851.89l-.38-1.72Z"/><path class="cls-49" d="M745.33,818.41a1,1,0,0,1-.8.52C744.5,818.3,744.43,817.61,745.33,818.41Z"/><path class="cls-47" d="M646.53,830.67l.22-2c2.76-2.15,1.94-4.65.73-7.2,0-1.73-.35-3.5.69-5.09,1-.22,1.61-.66.94-1.78-1.62-2.43-.57-5-.28-7.47l4.18-.91a24.38,24.38,0,0,1-.28,3.54c-1,4,.57,5.14,4.63,5,10.17-.3,20.35-.2,30.53,0,3,0,3.76-.88,3.31-3.79-.73-4.69-1.08-9.43-1.58-14.15l4.61,0q.72,10.22,1.46,20.42c-1.08,1.68-2.82,1-4.32,1.23H652.54c-.9-.8-.83-.11-.8.52l-.6,7.61c-2.77,2.14-1.93,4.65-.74,7.2l-.16,2c-3.43,3.14-1.76,6.74-.91,10.27l-.24,2c-2.76,2.14-2,4.65-.73,7.2-.19,3.08,2,2.44,3.81,2.44,12.43,0,24.86-.26,37.27.14,4.9.16,6.88-1,5.82-6l-.37-1.72-.21-2.07c1.13-3.89,2.23-7.78-1-11.28l0-1c1.07-2.2,2.06-4.39-.67-6.18l-.35-4.07c1.44-1.19.31-4.77,3.78-4.09l.16,3.07c-1.1,2.2-2.06,4.38.66,6.17l.33,3.06c-.91,3.19-2.31,6.43.86,9.24l.36,5.94c0,.33.07.67.1,1a10.46,10.46,0,0,1,.73,5.36c-1,2.85-2.26,5.72.73,8.22l.3,3.06c-1.63.59.24,5.54-3.84,3.07l-.06-1c1-2.62,2.54-5.35-1.28-7.1l-47,0c-.9-.8-.83-.11-.81.52l-.63,7.61-4,0,.48-7.1c3.7-1.3.3-3.57.73-5.31l.27-6c3.39-2.4,1.87-5.34.92-8.22l.14-2C649,837.8,647.33,834.19,646.53,830.67Z"/><path class="cls-48" d="M694.23,796.76l-4.61,0c-11.91-.22-23.82-.54-35.73.17l-4.39-.14c-2-.45-3.57-1.43-3.06-3.81s2.57-2.27,4.46-2.27q21.17,0,42.32,0c2,0,4,.08,4.35,2.45S696.29,796.44,694.23,796.76Z"/><path class="cls-49" d="M696.69,871.33c0-.56,0-1.13.09-1.69,4.08,2.47,2.21-2.48,3.84-3.07l.45,4.76"/><path class="cls-49" d="M696.39,821.45c-3.47-.68-2.34,2.9-3.78,4.09q-.61-3.56-1.24-7.13c1.5-.2,3.24.45,4.32-1.23A6.29,6.29,0,0,1,696.39,821.45Z"/><path class="cls-47" d="M649.5,796.81l4.39.14c-.19,2.35-.39,4.69-.59,7-4.93.18-1.52-4.65-3.68-6.13Z"/><path class="cls-49" d="M642.38,871.32a2.74,2.74,0,0,1,.67-1.75l4,0-.17,1.72"/><path class="cls-49" d="M649.62,797.86c2.16,1.48-1.25,6.31,3.68,6.13l-.29,2.2-4.18.91C649.09,804,649.36,800.94,649.62,797.86Z"/><path class="cls-49" d="M646.53,830.67c.8,3.52,2.51,7.13-.94,10.27Z"/><path class="cls-49" d="M698.4,843c-3.17-2.81-1.77-6-.86-9.24C697.83,836.83,698.11,839.91,698.4,843Z"/><path class="cls-49" d="M645.45,843c.95,2.88,2.47,5.82-.92,8.22Z"/><path class="cls-49" d="M700.32,863.51c-3-2.5-1.72-5.37-.73-8.22Q700,859.4,700.32,863.51Z"/><path class="cls-49" d="M647.48,821.44c1.21,2.55,2,5-.73,7.2Z"/><path class="cls-49" d="M695.44,861.5c3.82,1.75,2.27,4.48,1.28,7.1Z"/><path class="cls-49" d="M697.21,830.69c-2.72-1.79-1.76-4-.66-6.17Z"/><path class="cls-49" d="M644.26,857.16c-.43,1.74,3,4-.73,5.31A9.41,9.41,0,0,1,644.26,857.16Z"/><path class="cls-49" d="M649.11,814.57c.67,1.12.07,1.56-.94,1.78C647.76,815.37,647.92,814.7,649.11,814.57Z"/><path class="cls-49" d="M647.63,862c0-.63-.09-1.32.81-.52A1,1,0,0,1,647.63,862Z"/><path class="cls-49" d="M698.86,849.93c0-.33-.07-.67-.1-1a4.32,4.32,0,0,1,.32.69C699.1,849.69,698.94,849.83,698.86,849.93Z"/><path class="cls-49" d="M694.68,848.1q-.49-5.64-1-11.28C696.91,840.32,695.81,844.21,694.68,848.1Z"/><path class="cls-49" d="M650.24,835.78c-.3,3.42-.61,6.84-.91,10.27C648.48,842.52,646.81,838.92,650.24,835.78Z"/><path class="cls-49" d="M651.14,826.54l-.74,7.2C649.21,831.19,648.37,828.68,651.14,826.54Z"/><path class="cls-49" d="M649.09,848.08l-.73,7.2C647.14,852.73,646.33,850.22,649.09,848.08Z"/><path class="cls-49" d="M693.63,835.79l-.67-6.18C695.69,831.4,694.7,833.59,693.63,835.79Z"/><path class="cls-49" d="M695.26,851.89l-.37-1.72Z"/><path class="cls-49" d="M652.54,818.41a1,1,0,0,1-.8.52C651.71,818.3,651.64,817.61,652.54,818.41Z"/><path class="cls-47" d="M548.47,830.67l.23-2c2.75-2.15,1.94-4.65.72-7.2,0-1.73-.34-3.5.69-5.09,1-.22,1.62-.66.95-1.78-1.62-2.43-.57-5-.28-7.47l4.17-.91a21.86,21.86,0,0,1-.28,3.54c-.95,4,.57,5.14,4.63,5,10.17-.3,20.36-.2,30.53,0,3,0,3.76-.88,3.31-3.79-.73-4.69-1.07-9.43-1.58-14.15l4.61,0q.74,10.22,1.46,20.42c-1.07,1.68-2.81,1-4.31,1.23H554.48c-.89-.8-.83-.11-.8.52l-.6,7.61c-2.76,2.14-1.92,4.65-.74,7.2l-.15,2c-3.44,3.14-1.76,6.74-.92,10.27l-.24,2c-2.76,2.14-1.94,4.65-.73,7.2-.18,3.08,2.06,2.44,3.81,2.44,12.43,0,24.87-.26,37.28.14,4.9.16,6.88-1,5.82-6l-.38-1.72-.2-2.07c1.13-3.89,2.23-7.78-1-11.28l0-1c1.07-2.2,2-4.39-.67-6.18l-.36-4.07c1.44-1.19.31-4.77,3.78-4.09l.17,3.07c-1.1,2.2-2.06,4.38.66,6.17l.32,3.06c-.9,3.19-2.3,6.43.86,9.24.12,2,.25,4,.37,5.94l.09,1a10.36,10.36,0,0,1,.74,5.36c-1,2.85-2.27,5.72.73,8.22l.29,3.06c-1.62.59.24,5.54-3.83,3.07l-.06-1c1-2.62,2.54-5.35-1.29-7.1l-47,0c-.89-.8-.83-.11-.8.52l-.63,7.61-4,0,.49-7.1c3.69-1.3.3-3.57.73-5.31l.27-6c3.38-2.4,1.86-5.34.91-8.22l.15-2C551,837.8,549.28,834.19,548.47,830.67Z"/><path class="cls-48" d="M596.17,796.76l-4.61,0c-11.91-.22-23.82-.54-35.72.17l-4.39-.14c-2-.45-3.58-1.43-3.07-3.81s2.57-2.27,4.46-2.27q21.17,0,42.32,0c2,0,4,.08,4.36,2.45S598.23,796.44,596.17,796.76Z"/><path class="cls-49" d="M598.64,871.33c0-.56.05-1.13.09-1.69,4.07,2.47,2.21-2.48,3.83-3.07l.46,4.76"/><path class="cls-49" d="M598.33,821.45c-3.47-.68-2.34,2.9-3.78,4.09l-1.23-7.13c1.5-.2,3.24.45,4.31-1.23A6.17,6.17,0,0,1,598.33,821.45Z"/><path class="cls-47" d="M551.45,796.81l4.39.14c-.2,2.35-.39,4.69-.59,7-4.94.18-1.53-4.65-3.69-6.13Z"/><path class="cls-49" d="M544.33,871.32a2.68,2.68,0,0,1,.66-1.75l4,0-.17,1.72"/><path class="cls-49" d="M551.56,797.86c2.16,1.48-1.25,6.31,3.69,6.13l-.3,2.2-4.17.91Z"/><path class="cls-49" d="M548.47,830.67c.81,3.52,2.51,7.13-.93,10.27Z"/><path class="cls-49" d="M600.34,843c-3.16-2.81-1.76-6-.86-9.24Q599.92,838.37,600.34,843Z"/><path class="cls-49" d="M547.39,843c1,2.88,2.47,5.82-.91,8.22Z"/><path class="cls-49" d="M602.27,863.51c-3-2.5-1.73-5.37-.73-8.22C601.78,858,602,860.77,602.27,863.51Z"/><path class="cls-49" d="M549.42,821.44c1.22,2.55,2,5-.72,7.2Z"/><path class="cls-49" d="M597.38,861.5c3.83,1.75,2.28,4.48,1.29,7.1Z"/><path class="cls-49" d="M599.16,830.69c-2.72-1.79-1.76-4-.66-6.17Z"/><path class="cls-49" d="M546.21,857.16c-.43,1.74,3,4-.73,5.31A9.41,9.41,0,0,1,546.21,857.16Z"/><path class="cls-49" d="M551.06,814.57c.67,1.12.07,1.56-.95,1.78C549.71,815.37,549.87,814.7,551.06,814.57Z"/><path class="cls-49" d="M549.58,862c0-.63-.09-1.32.8-.52A1,1,0,0,1,549.58,862Z"/><path class="cls-49" d="M600.8,849.93l-.09-1a3.55,3.55,0,0,1,.31.69C601.05,849.69,600.88,849.83,600.8,849.93Z"/><path class="cls-49" d="M596.63,848.1q-.51-5.64-1-11.28C598.86,840.32,597.76,844.21,596.63,848.1Z"/><path class="cls-49" d="M552.19,835.78c-.31,3.42-.61,6.84-.92,10.27C550.43,842.52,548.75,838.92,552.19,835.78Z"/><path class="cls-49" d="M553.08,826.54l-.74,7.2C551.16,831.19,550.32,828.68,553.08,826.54Z"/><path class="cls-49" d="M551,848.08l-.73,7.2C549.09,852.73,548.27,850.22,551,848.08Z"/><path class="cls-49" d="M595.58,835.79l-.67-6.18C597.63,831.4,596.65,833.59,595.58,835.79Z"/><path class="cls-49" d="M597.21,851.89l-.38-1.72Z"/><path class="cls-49" d="M554.48,818.41a1,1,0,0,1-.8.52C553.65,818.3,553.59,817.61,554.48,818.41Z"/></g><g class="cls-10"><path class="cls-50" d="M242.07,777.6c.37,3.28.72,6.56,1.09,9.84,1,8.24,2,16.46,2.38,24.76.4,8.74,1,17.47,1.49,26.2a6.68,6.68,0,0,0,.16,2.78l.35,6.49c-.43,4.47-.85,8.94-1.31,13.4-.52,5.09-2,10-3.13,15-1.51,6.91-3.14,13.79-4.69,20.7-.13.56-.34.74-.89.7a9.54,9.54,0,0,0-1.69,0c-.57,0-.63-.14-.54-.66.79-4.5,1.54-9,2.31-13.51,1.12-6.59,2.35-13.16,3.31-19.78.56-3.87.62-7.82,1-11.72.83-7.63-.1-15.23-.28-22.84-.15-6.43-.54-12.86-.74-19.29-.18-5.74-.76-11.44-1.28-17.14q-.63-6.79-1.29-13.57a2,2,0,0,0-.16-1Z"/><path class="cls-51" d="M247.54,847.67c-.12-2.16-.23-4.33-.35-6.49h56.93v6.48l-.77,0h-55C248.1,847.63,247.82,847.66,247.54,847.67Z"/><path class="cls-50" d="M304.11,847.65q0-3.24,0-6.48a32.88,32.88,0,0,1,5.25.16c0,8.47,0,16.94,0,25.41.1,9.9.32,19.81.51,29.71,0,.72-.1,1-.89.94a12.69,12.69,0,0,0-1.95,0c-.42,0-.58-.11-.61-.56-.26-3.49-.54-7-.81-10.46l-1.47-18.91c-.18-2.25-.09-4.51-.09-6.77Q304.08,854.18,304.11,847.65Z"/><path class="cls-52" d="M309.37,841.33a32.88,32.88,0,0,0-5.25-.16H247.19a6.68,6.68,0,0,1-.16-2.78h.13c.33,0,.67.05,1,.05h60.94l.93,0c.31.2.89-.33,1,.41a2,2,0,0,1-.95,2.3C309.85,841.22,309.57,841.13,309.37,841.33Z"/><path class="cls-53" d="M310,838.42l-.93,0H248.17c-.34,0-.68,0-1-.05a2.72,2.72,0,0,1,3-2.68h56.94A2.73,2.73,0,0,1,310,838.42Z"/><path class="cls-51" d="M242.07,777.6l-3.87.34c-.31,0-.51,0-.55-.41-.25-2.7-.51-5.39-.78-8.09,0-.34.11-.43.42-.46,1.35-.1,2.7-.22,4.05-.34.38,0,.55,0,.58.47q.33,3.93.73,7.84C242.7,777.46,242.54,777.62,242.07,777.6Z"/></g><g class="cls-10"><path class="cls-50" d="M433.12,776.6c-.36,3.28-.71,6.56-1.09,9.84-.94,8.24-2,16.46-2.37,24.76-.4,8.74-1,17.47-1.49,26.2a6.85,6.85,0,0,1-.16,2.78l-.35,6.49c.43,4.47.84,8.94,1.3,13.4.53,5.09,2.05,10,3.14,15,1.51,6.91,3.14,13.79,4.69,20.7.12.56.33.74.88.7a9.65,9.65,0,0,1,1.7,0c.57,0,.63-.14.54-.66-.79-4.5-1.55-9-2.31-13.51-1.12-6.59-2.35-13.16-3.31-19.78-.57-3.87-.62-7.82-1-11.72-.83-7.63.1-15.23.27-22.84.15-6.43.54-12.86.74-19.29.18-5.74.76-11.44,1.29-17.14q.63-6.79,1.28-13.57a2.09,2.09,0,0,1,.16-1Z"/><path class="cls-51" d="M427.66,846.67c.11-2.16.23-4.33.35-6.49H371.08v6.48l.76,0h55C427.1,846.63,427.38,846.66,427.66,846.67Z"/><path class="cls-50" d="M371.09,846.65q0-3.24,0-6.48a32.88,32.88,0,0,0-5.25.16c0,8.47,0,16.94-.05,25.41-.1,9.9-.31,19.81-.5,29.71,0,.72.1,1,.89.94a12.69,12.69,0,0,1,1.95,0c.42,0,.58-.11.61-.56.25-3.49.54-7,.81-10.46L371,866.46c.18-2.25.08-4.51.09-6.77Q371.12,853.18,371.09,846.65Z"/><path class="cls-52" d="M365.83,840.33a32.88,32.88,0,0,1,5.25-.16H428a6.85,6.85,0,0,0,.16-2.78H428c-.34,0-.67.05-1,.05H366.08l-.93,0c-.3.2-.89-.33-1,.41a2,2,0,0,0,1,2.3C365.35,840.22,365.63,840.13,365.83,840.33Z"/><path class="cls-54" d="M365.15,837.42l.93,0H427c.34,0,.67,0,1-.05a2.73,2.73,0,0,0-3-2.68H368.12A2.74,2.74,0,0,0,365.15,837.42Z"/><path class="cls-51" d="M433.12,776.6l3.87.34c.32,0,.52,0,.56-.41.24-2.7.51-5.39.78-8.09,0-.34-.11-.43-.42-.46-1.35-.1-2.7-.22-4.05-.34-.38,0-.55,0-.58.47Q433,772,432.55,776C432.5,776.46,432.66,776.62,433.12,776.6Z"/></g><path class="cls-3" d="M777.11,758c.14,3.26-.71,3.24-.88,3.26-.49.06-9.78,0-20.42,0-1.45-6.33-5.49-25.32-3.58-27.46,2.3-2.56,7.18-15.13,7.18-15.13s8.54,4.61,11.85-3.52c0,0-.42,2.87,1.2,12.85s3.12,24.15,4.46,27.39A4,4,0,0,1,777.11,758Z"/><path class="cls-55" d="M786.34,785.56s-1.22,5-.35,6.92,2.16,1.26.85,2.65-1.93,3.88-1.62,4.42c0,0-1.5,1-.53,2,0,0-.28,1.67.78,1.49s1.18-.79,1.18-.79.07.6,1,.45,6.37-6.82,6.24-8.33-1.22-4-1.43-5-.82-5.12-.82-5.12Z"/><path class="cls-56" d="M776.23,761.23c-1.31-5-3.23-11.61-3.77-13.36-.83-2.73-2.55-14.47-3.06-16.7s3-11.7,2.23-13.42-.31-10.63-.31-10.63,6.18,1.86,6.68,5.17-.61,4,1.12,5,9.71,3.44,9.61,7.69,2.12,18.72.61,23.17-.61,9.41-.51,13.06"/><path class="cls-56" d="M790.7,772.76c.6,3,1.16,5.54,1.37,6.17.5,1.54,2.53,3.6,1.52,4.73s-8.61,2.67-9.21,2.05.1-12.75-.1-13"/><path class="cls-55" d="M737.69,749.94c-.51,2.19-1.28,5.15-1.87,7.66a32.81,32.81,0,0,0-3.35-2s-3.85-5.67,4.25-6.58C737,749.29,737.34,749.62,737.69,749.94Z"/><path class="cls-57" d="M772.46,707.48s-1.41,5.11-1.2,7.27-3.14,5.26-4.81,5.66-6.39,1-7.54-2.63.81-5-.4-7.76S772.46,707.48,772.46,707.48Z"/><path class="cls-56" d="M735,761.23a6.71,6.71,0,0,0-.13,1.11"/><path class="cls-56" d="M757.41,761.23c1-8.74,2.07-19.88,3.09-21.66,1.21-2.12,3.3-16.49-.44-20.13s.53-11.71,1.14-12.32c0,0-10.32.27-11,3.21s-9.41,1.62-10.92,2.83-6,8.3-8.4,11.33-6.78,5.67-7.49,7.59-.81,2.63-2.13,4-.5,2.94-.5,5.36,2.83,5.37,4,8.81,4.25,6.27,7.69,5.26c0,0-3.85-5.67,4.25-6.58a8.73,8.73,0,0,0-3.55-5.87c-.75-.48.11-.5.61-.91a48,48,0,0,0,3.64-5.66c.21-.51,1.12,8.29.81,10.72-.26,2.13-2.61,10.59-3.2,14"/><path class="cls-55" d="M757.66,695.35s-.93,8.51-.81,11,.81,5.57,2.53,5.77,6.41.44,9.45-1.38,4.52-4.19,4.92-6.21,6.07-14.87-2-17.61S760.59,685,757.66,695.35Z"/><path class="cls-58" d="M766.06,687.46s-1.62-3.24-3.64.3-6.78,11.64-6.48,16.09a21.45,21.45,0,0,0,3,9.41c.61.71-5.67-4-4.35-12.85s4.55-9.41,5-12.55,1.51-6.47,4-7.18a51,51,0,0,0,5.59-1.6,9.12,9.12,0,0,0,2.63-1.49,3.78,3.78,0,0,1,2.81-1.32A11,11,0,0,1,779,677c1.68.62,2.65,1.41,2.94,3.19.39,2.43.41,5.57,2.12,7.73,2.51,3.16,2,7.11.66,10.93-.84,2.34-4,8.2-7.13,8.2a3.72,3.72,0,0,0-2.94,1.21s-1,9.92-5.87,11.14c0,0,5.47-5.57,4-11-.89-3.23-2.5-6.18-3.46-9.38a8,8,0,0,1-.26-4.12c.37-1.42,1.47-2.56,1.4-4.1s-1.33-2.42-2.55-3.14C767.8,687.63,765.81,687,766.06,687.46Z"/><path class="cls-59" d="M747.69,871.46c-.26-1.29-.42-2.57-.1-3.1a.44.44,0,0,1,.16-.17c.66-.44,2.72-.13,3.51-.17,1.41-.09,6.21-.19,5.59-2.67,0-.07.46-.07.49-.06.57.09.8.79.95,1.25a17,17,0,0,1,.69,4.81"/><path class="cls-59" d="M780.68,871.46c0-3.09.14-7.8.15-7.83s-2.67,2.32-9.43,0c-.18-.07-.87.79-1,.9a3.17,3.17,0,0,0-.52,2.5,38.68,38.68,0,0,1,.17,4.43"/><path class="cls-60" d="M744.57,772.76c-.57,8-3.44,15.9-2.05,24,1.08,6.34,5.13,22.53,3.51,30S744,843.6,745,854s2.29,14.16,2.29,14.16,9.45.41,9.58-1.75c.22-3.48-.79-7-.94-10.46a77,77,0,0,1,.77-12c.48-4.37.74-8.76,1.25-13.12.4-3.51,1.62-7.53,1.62-15.77s3.91-23.9,3.91-23.9c1,3.4,1.93,6.83,2.73,10.29,2.66,11.32,1,23.22,3.19,34.64.83,4.32.56,13.36,1.1,17.4s1.08,11.88,1.08,11.88,4.05,4.72,7.82,1.62c1.3-1.07,1.51-3.54,1.75-5.06a73.34,73.34,0,0,0,.7-9.48,142.68,142.68,0,0,0-.22-15.75c-.29-3.34-1.18-6.55-1-9.9.33-6.1,1.29-12.18,2.17-18.21.43-3,.93-5.95,1.34-8.93.18-1.35.73-7.31,1.1-13.76-.41,0-.7,0-.8-.14-.61-.6.17-12.89-.1-13s-3.94,0-7.25,0"/><g class="cls-10"><path class="cls-50" d="M100.94,782.6c-.36,3.28-.71,6.56-1.09,9.84-.95,8.24-2,16.46-2.38,24.76-.4,8.74-1,17.47-1.49,26.2a6.68,6.68,0,0,1-.16,2.78l-.35,6.49c.44,4.47.85,8.94,1.31,13.4.52,5.09,2,10,3.13,15,1.51,6.91,3.14,13.79,4.69,20.7.13.56.34.74.89.7a9.54,9.54,0,0,1,1.69,0c.57,0,.63-.14.54-.66-.78-4.5-1.54-9-2.31-13.51-1.11-6.59-2.35-13.16-3.31-19.78-.56-3.87-.61-7.82-1-11.72-.83-7.63.1-15.23.28-22.84.15-6.43.54-12.86.74-19.29.18-5.74.76-11.44,1.29-17.14.41-4.53.85-9,1.28-13.57a2,2,0,0,1,.16-1Z"/><path class="cls-51" d="M95.47,852.67c.12-2.16.24-4.33.35-6.49H38.9v6.48l.76,0h55C94.91,852.63,95.19,852.66,95.47,852.67Z"/><path class="cls-50" d="M38.91,852.65q0-3.24,0-6.48a33,33,0,0,0-5.26.16c0,8.47,0,16.94,0,25.41-.1,9.9-.32,19.81-.51,29.71,0,.72.1,1,.9.94a12.56,12.56,0,0,1,1.94,0c.42,0,.58-.11.62-.56.25-3.49.53-7,.8-10.46q.74-9.45,1.48-18.91c.17-2.25.08-4.51.08-6.77C38.93,861.35,38.91,857,38.91,852.65Z"/><path class="cls-52" d="M33.64,846.33a33,33,0,0,1,5.26-.16H95.82A6.68,6.68,0,0,0,96,843.4h-.13c-.33,0-.67.05-1,.05H33.9l-.93,0c-.31.2-.89-.33-1,.41a2,2,0,0,0,.95,2.3C33.16,846.22,33.44,846.13,33.64,846.33Z"/><path class="cls-61" d="M33,843.42l.93,0H94.84c.34,0,.68,0,1-.05a2.72,2.72,0,0,0-3-2.68H35.93A2.73,2.73,0,0,0,33,843.42Z"/><path class="cls-51" d="M100.94,782.6l3.87.34c.31,0,.52,0,.55-.41.25-2.7.52-5.39.79-8.09,0-.34-.12-.43-.43-.46-1.35-.1-2.7-.22-4-.34-.38,0-.54,0-.58.47q-.33,3.93-.72,7.84C100.31,782.46,100.47,782.62,100.94,782.6Z"/></g><g class="cls-10"><path class="cls-50" d="M334.5,817.54c0-3.25,0-6.51,0-9.76,1.76.1,3.52-.29,5.26.24,0,12.76,0,29.28,0,42,.1,14.93,15.35,29.85,15.54,44.78,0,1.07-.1,1.55-.9,1.41a7.87,7.87,0,0,0-1.94,0c-.42,0-.58-.16-.62-.83-.25-5.26-15.56-10.52-15.83-15.77q-.74-14.25-1.48-28.49c-.17-3.4-.08-6.8-.08-10.2C334.49,834.4,334.5,824.09,334.5,817.54Z"/><path class="cls-50" d="M337.47,817.54c0-3.25,0-6.51,0-9.76-1.75.1-3.51-.29-5.25.24,0,12.76,0,29.28,0,42-.1,14.93-15.34,29.85-15.53,44.78,0,1.07.1,1.55.89,1.41a8,8,0,0,1,2,0c.42,0,.58-.16.61-.83.26-5.26,15.57-10.52,15.84-15.77l1.47-28.49c.18-3.4.08-6.8.09-10.2C337.49,834.4,337.48,824.09,337.47,817.54Z"/><path class="cls-52" d="M336.88,808.55c-.18,2.34-.05,4.71-.08,7.06v83a1.37,1.37,0,0,1-1.39.22.54.54,0,0,0,0-.18c0-.45,0-.9,0-1.35V808.9c0-.42,0-.84,0-1.25s-.16-1.2.21-1.33c.55-.21,1,.27,1.14,1.28A5.5,5.5,0,0,0,336.88,808.55Z"/><path class="cls-51" d="M287.91,813.77c-.13-2.16-.25-4.33-.38-6.49h96.92v6.48l-.82,0h-94.8C288.52,813.73,288.21,813.76,287.91,813.77Z"/><path class="cls-52" d="M384.16,807.43a32.88,32.88,0,0,0-5.25-.16H286.29a6.68,6.68,0,0,1-.16-2.78h.13c.33,0,.67,0,1,0h96.64l.93,0c.3.2.89-.33,1,.41a2,2,0,0,1-1,2.3C384.64,807.32,384.36,807.23,384.16,807.43Z"/></g><g class="cls-10"><path class="cls-50" d="M0,817.41q0-4.89,0-9.76c1.76.09,2.06-.16,3.81.37,0,12.76-.05,29.28,0,42C4,865,19.19,879.91,19.38,894.84c0,1.07-.1,1.55-.89,1.41a8,8,0,0,0-1.95,0c-.41,0-.58-.16-.61-.83C15.68,890.15.37,884.89.09,879.64c-.49-9.5.48-19.12,0-28.62-.17-3.4-.08-6.8-.08-10.2C0,834.27,0,824,0,817.41Z"/><path class="cls-52" d="M.91,808.55c-.11,2.34,0,4.71-.05,7.06v83c-.28.42-.57.32-.86.22v-.18c0-.45,0-.9,0-1.35V808.9c0-.42,0-.84,0-1.25s-.1-1.2.13-1.33.62.27.72,1.28A9.12,9.12,0,0,0,.91,808.55Z"/><path class="cls-51" d="M0,807.28H48.48v6.48l-.82,0H0"/><path class="cls-52" d="M0,804.55h48l.93,0c.31.2.89-.33,1,.41a2,2,0,0,1-1,2.3c-.23.09-.51,0-.71.2a33,33,0,0,0-5.26-.16H0"/></g><rect class="cls-62" x="1610.5" y="603.98" width="309.5" height="17.9"/><rect class="cls-63" x="1610.5" y="614.35" width="309.5" height="13.84"/><g class="cls-64"><path class="cls-65" d="M1920,635.18H1753.49a7.87,7.87,0,0,1-7.87-7.87V596.92a7.87,7.87,0,0,1,7.87-7.87H1920"/><path class="cls-38" d="M1920,632.25H1756.09a7.86,7.86,0,0,1-7.86-7.86V599.85a7.86,7.86,0,0,1,7.86-7.87H1920"/></g><path class="cls-65" d="M1758.7,621.88v-20h4l4.75,14.19c.43,1.33.75,2.31,1,3,.23-.73.59-1.8,1.07-3.21l4.8-13.95h3.57v20h-2.56V605.1l-5.82,16.78h-2.4l-5.79-17.07v17.07Z"/><path class="cls-65" d="M1784.29,621.88v-20h14.49v2.37h-11.84v6.14H1798v2.35h-11.09v6.82h12.31v2.37Z"/><path class="cls-65" d="M1810.14,621.88V604.2h-6.61v-2.37h15.89v2.37h-6.63v17.68Z"/><path class="cls-65" d="M1824.31,621.88v-20h8.89a11.83,11.83,0,0,1,4.07.54,4.49,4.49,0,0,1,2.23,1.91,5.65,5.65,0,0,1,.83,3,5.06,5.06,0,0,1-1.38,3.6,7,7,0,0,1-4.26,1.86,7.08,7.08,0,0,1,1.6,1,14.05,14.05,0,0,1,2.2,2.67l3.48,5.46h-3.33l-2.65-4.17c-.78-1.21-1.42-2.13-1.92-2.77a6.43,6.43,0,0,0-1.34-1.34,4.14,4.14,0,0,0-1.21-.53A8.61,8.61,0,0,0,1830,613H1827v8.9Zm2.65-11.2h5.7a8.59,8.59,0,0,0,2.85-.38,3.06,3.06,0,0,0,1.56-1.2,3.29,3.29,0,0,0,.53-1.8,3,3,0,0,0-1-2.34,4.85,4.85,0,0,0-3.26-.91H1827Z"/><path class="cls-65" d="M1845.81,612.11a10.92,10.92,0,0,1,2.68-7.81,9.12,9.12,0,0,1,6.92-2.82,9.6,9.6,0,0,1,5,1.32,8.69,8.69,0,0,1,3.4,3.7,12,12,0,0,1,1.17,5.38,11.86,11.86,0,0,1-1.23,5.46,8.36,8.36,0,0,1-3.49,3.64,9.87,9.87,0,0,1-4.86,1.24,9.47,9.47,0,0,1-5.06-1.37,8.77,8.77,0,0,1-3.38-3.73A11.29,11.29,0,0,1,1845.81,612.11Zm2.74,0a8.05,8.05,0,0,0,1.94,5.7,6.79,6.79,0,0,0,9.82,0,8.49,8.49,0,0,0,1.94-6,10.26,10.26,0,0,0-.83-4.27,6.34,6.34,0,0,0-2.42-2.83,6.58,6.58,0,0,0-3.58-1,6.78,6.78,0,0,0-4.84,1.94C1849.22,607,1848.55,609.14,1848.55,612.16Z"/><path class="cls-65" d="M1890.4,621.88v-20h14.49v2.37h-11.84v6.14h11.09v2.35h-11.09v6.82h12.3v2.37Z"/><path class="cls-65" d="M1920,615.61l-6.34-9.48v15.75h-2.54v-20h2.72L1920,611"/><path class="cls-66" d="M1275.89,556.19a5,5,0,0,1-1.24.42,5.05,5.05,0,0,0-4.08,2.32c-1,1.3-2,2.58-2.83,3.94A9.44,9.44,0,0,0,1267,565a8.52,8.52,0,0,1-.48,1.53c-.51.9-1.19,1-1.92.26a4.35,4.35,0,0,1-.89-1,4.3,4.3,0,0,0-3.65-2.21c-3-.45-6.1-.79-9.15-1.2-.67-.09-1.32-.26-2-.39v-.42a6.31,6.31,0,0,1,1.3-.36c4.13-.28,8.25-.58,12.21,1.06a2.16,2.16,0,0,0,3-.86,33,33,0,0,1,4.26-4.81,5,5,0,0,1,2.7-1,22.62,22.62,0,0,1,3.49,0Z"/><rect class="cls-18" y="977.6" width="1920" height="102.8"/><g class="cls-10"><line class="cls-67" x1="9.78" y1="1037.17" x2="109.78" y2="1037.17"/><line class="cls-68" x1="299.8" y1="1037.17" x2="1724.99" y2="1037.17"/><line class="cls-67" x1="1820" y1="1037.17" x2="1920" y2="1037.17"/></g><rect class="cls-69" y="963.05" width="1920" height="14.55"/><rect class="cls-17" y="890.03" width="1920" height="73.02"/><path class="cls-70" d="M1855.4,890.39V796.77a3.43,3.43,0,0,1,3.42-3.43h0a3.44,3.44,0,0,1,3.43,3.43v93.62"/></g><g id="_LAYER-18_P6_" data-name="&lt;LAYER-18_P6&gt;"><path class="cls-71" d="M631.81,725.17a16.86,16.86,0,0,0,2.77,2.54c1.19.74-4.37,11.49-6.83,15.22s-2.82,8.29-3.1,9-1.64-13.76-2.18-16.31S631.81,725.17,631.81,725.17Z"/><path class="cls-55" d="M601.51,733s-1.55-6.56-.88-8.2c.49-1.19,1.27-4.74,2.71-5,1.15-.21,5.71-1.21,6.59-.22a6.32,6.32,0,0,1,1,2.61c.13.9-1.11,2.12-1.42,3-.94,2.58,0,5.49-1,8.15-.61,1.64-.85,2-.73,3S600.81,735.79,601.51,733Z"/><path class="cls-55" d="M671.87,881.25s3.83,5.34,4,6.92c0,0,5.53.55,5.95-2s1.83-6.68,0-8.56a20.49,20.49,0,0,0-4.49-3.28Z"/><path class="cls-55" d="M627.27,889.67a34.69,34.69,0,0,1,.69,7.07c-.18,2.67,8.93,2,9.11,1.58s-1-8.93-1.09-9.9S627.27,889.67,627.27,889.67Z"/><path class="cls-56" d="M636.28,888.6c-2.06,2.55-10.3.85-10.3.85l0-1.94c.36-4.74-5.71-24-5.71-28.06V848.4c0-2.31-2.07-8-2.07-8-6.31-13.24-7.4-34.38-7.4-34.38l.32-.06c0,.34,0,.68,0,1,0,.63,0,1.27,0,1.91a68.72,68.72,0,0,0,10.06,1.49c.54,0,1.18-4.21,1.41-6.55h0c.24,2.29,1.25,6.36,2.55,6.92a23.4,23.4,0,0,0,5.28.8c1.38,11.73,2.89,27.77,3.71,29.08a4.09,4.09,0,0,1,.45,1.42l-.58,6c-1.45,5.19.86,14.11,1.71,17.15S636.28,888.6,636.28,888.6Z"/><path class="cls-56" d="M674,881c-1.52,1.34-5.71.79-6.38-1.34s-9.84-10.75-12.87-14.63-13.55-7.66-16-10.63-1.89-5.4-1.89-5.4a78.33,78.33,0,0,1,9.42-.92,14.31,14.31,0,0,0,7.07-1.92.58.58,0,0,0,.16.16c1.28.49,6.5,6.74,10.57,9.47s13,16.58,14.09,18.16S675.52,879.61,674,881Z"/><path class="cls-72" d="M626.69,769.68c-.73,4.25.36,25.39,1.91,30,.5,1.5,1.13,6.17,1.8,11.85a23.41,23.41,0,0,1-5.29-.8c-1.3-.56-2.31-4.65-2.56-6.94-.23,2.34-.87,6.57-1.41,6.57a68.72,68.72,0,0,1-10.06-1.49c0-.64,0-1.28,0-1.91.29-12.75,0-18.94,1.73-22.34s5-8.75,4.89-18.71c-.12-9.74,2.74-29.27,3.4-31.26v0s0,0,0,0v0s4.54,3.13,5.52,3.14c2.3,0,5.65-5.36,6.71-7.19-.19,1.08-.51,2.26-.78,3.58C631.81,738,627.42,765.43,626.69,769.68Z"/><path class="cls-73" d="M618.56,732.46s-7.23,3.85-8.35,4.63c-.47.33-1.65-.89-2.18-1.48a.74.74,0,0,0-.67-.24c-1.47.2-6,.62-5.85-2.37,0,0-2,0-2.18,1.82a147.35,147.35,0,0,1-3.65,14.76c-.63,1.46-2.73,13-1.64,16.31s1.92,3.37,4.19,3,4.83-1.09,5.29-2c0,0-4.92,22.68-5,29.33S596,828,595,832.12s-2.27,13-1.82,13.12,7.11-3.19,8.11-4.38,15.53-2.4,16.16-2.22-6.62-18.46-6.32-31.67c.29-12.75,0-18.94,1.73-22.35s5-8.74,4.89-18.7,2.88-30.18,3.44-31.37S618.56,732.46,618.56,732.46Z"/><path class="cls-55" d="M612.81,720.79s1.37,7.93,2.91,9.3,5.56,4.55,6.75,5.55,4.73,1.55,5.55,0,4.47-7.19,4.29-9.11-3.92-5.92-6.93-7.92S613.08,716.24,612.81,720.79Z"/><path class="cls-74" d="M631.81,725.17s5.44,1.24,7.08,2.44a93.2,93.2,0,0,0,8.14,4.85c2.31,1.21,6.38,1.09,6.87,3.7s12.57,24.26,14.23,26.9c1.82,2.92,2.61,10,3.1,14.4s-14.15,13.18-14,13.66S655.72,803.21,654,807c0,0,1.94,12.64,1.58,16.16s1.09,18,0,20.53-5.1,4.25-9.36,4.37-11.09,1-11.49,1.46.56-6.93-.65-8.87-4-36.32-5.5-40.93-2.64-25.75-1.91-30,5.12-31.73,5.9-35.6S634.62,727.55,631.81,725.17Z"/><path class="cls-75" d="M678.88,875.31c.21-.47,3.7-.59,5.14-.07s5.22-.34,4.71,6.53.2,16.64-1.07,19.46a10.42,10.42,0,0,1-7.67,6c-3.6.54-1.66-5.2-1.66-7a40.64,40.64,0,0,0-1.51-9.2,25.77,25.77,0,0,1-1-2.89s4.17-2.58,4.62-6.4A9.53,9.53,0,0,0,678.88,875.31Z"/><path class="cls-75" d="M628,896.74S623.1,901,619.55,904s-5.65,3.37-6.74,5-2.55,4.37,2.82,5.19,9.84-2.64,11.21-3.37a81.28,81.28,0,0,1,11-3.49c1.64-.25,2.83-1.52,2.19-3.71s-1.63-5.83-3-6.37C637.09,897.26,636.37,899.59,628,896.74Z"/><path class="cls-55" d="M651.18,784a29.3,29.3,0,0,0,3.28,5.37l-2.16,2.1a7.6,7.6,0,0,0-1.4,1.84L648.36,798s.09-8.75-2.1-10.62Z"/><path class="cls-76" d="M630.33,811c0,.18,0,.35.07.53h0Z"/><path class="cls-77" d="M640,727.64c-1.19.39-3.54-.95-4.71-1.33s-2.26-.63-3.4-.93a22.44,22.44,0,0,0-6.54-6.77c-3-2-12.3-2.37-12.57,2.18,0,0,.22,1.29.59,2.91v0s-4.33-3-3.29-8,1.58-9.66,4.86-10.63c2.09-.62,3.24-2.58,5.57-2.36,7.55.73,15.24,6.34,16,14.33.1,1,0,2.88.81,3.68s2.52.49,3.51,1.65C642,723.69,642,727,640,727.64Z"/></g><g id="_LAYER-18_P5_" data-name="&lt;LAYER-18_P5&gt;"><path class="cls-78" d="M1424.7,740.94a2.12,2.12,0,0,0,2.14-.29,3.86,3.86,0,0,1,2.07-.93c.3,0,.58.09.88.12,3.24.32,3.21-4,5.74-4.77.43-.14.89-.12,1.32-.24a2.63,2.63,0,0,0,1.49-1.33c1.18-2.22,0-5.25,1.88-7.11.76-.76,2.27-5.32.61-7-1.39-1.4-3.76-1.79-4.2-3.95a10.84,10.84,0,0,1-.05-2.73,24.22,24.22,0,0,0-.49-3.37c-.33-2.8-2.63-5-5.23-6a21.38,21.38,0,0,1-4.24-2.64c-1-.81-1.28-2.21-2.36-3-1.86-1.42-4,.18-6.15-.41-2.47-.7-4.38-2.43-7.1-1.71-1.32.35-2.52,1.16-3.88,1.3s-4.26-1.62-5.12-.52-.45,2.59-2.6,2.93c-1.16.18-2.36-.06-3.53.11a1.91,1.91,0,0,0-1.09.46c-1.17,1.17.54,3.48-1.93,4.22-1.39.42-2,.43-2.54,1.83s-2,1.79-2.67,2.88a5.79,5.79,0,0,0-1,3.38c0,1,.66,2.21.42,3.22a7.58,7.58,0,0,1-.45,1c-1,2.37,1.53,5.42-.09,7.69a10.73,10.73,0,0,1-1.22,1.21c-1.33,1.36.21,2.52.89,3.74,1.48,2.65.75,5.89,3.06,8.12,1.6,1.54,1.33,4.62,3.83,5.14a8,8,0,0,0,2.76-.09,6.54,6.54,0,0,1,2.75,0,9.43,9.43,0,0,0,1.18.35c2.8.41,4.86-3.42,7.42-3,1.67.31,4.69-.76,6.81-1.22a6.29,6.29,0,0,1,5.6,1.22,7.82,7.82,0,0,0,4.32,1.22A3.73,3.73,0,0,1,1424.7,740.94Z"/><path class="cls-79" d="M1431.63,743.81a15.35,15.35,0,0,0-5.75-2.62c-1.87-.53-4.38-.89-5.7-2.44a4.82,4.82,0,0,1-.72-4.66c.65-1.9-11.32-.53-11.34-.53s.09.46.08.49a1.85,1.85,0,0,1-.62,1.18,7.74,7.74,0,0,1-2.91,1.59,26.66,26.66,0,0,0-3.42,1.21,13.74,13.74,0,0,0-1.93,1.28,27.56,27.56,0,0,0-3.81,3.75,81.67,81.67,0,0,0-6.4,8.83c-.74,1.14-1.45,2.32-2.24,3.44-2.16,3-8.44,19.12-8.14,22.65.25,3,9.38,13.3,12.39,16.68h0l.13.12c.49.55.79.89.82.94s0,0,.08-.05l.74.73s5.06-2.29,3.66-5.42l-2-2.86c-1.51-2.78-5.58-10.25-5.82-10.25s5.91-14.76,5.91-14.76l10.44,10.64,24.44,19.71s-2.16-17-2.65-18,3-15.59,3-15.59S1435.06,746.65,1431.63,743.81Z"/><path class="cls-80" d="M1383.79,885s-3.79,4.77-1.83,7.32,3.71,5.49,5.66,8.16c2.7,3.69,4.5,5.13,9.22,5.78a2.57,2.57,0,0,0,1.35-.06c1.91-.79-2.2-7.46-2.71-8.48-1.41-2.8-3.81-8.76-2.14-11.68C1394.12,884.66,1383.79,885,1383.79,885Z"/><path class="cls-80" d="M1426.55,898.84c1.49,4.25,3.14,8.39,4.56,12.66,1.12,3.36,4.76,4.45,8.08,5,2.07.32,3.51-.51,3.46-2.71-.09-4-1.78-7-3.77-10.39-.79-1.34-2.64-7.37-4.29-7.72C1433.74,895.45,1426.55,898.84,1426.55,898.84Z"/><path class="cls-81" d="M1405.1,721.4c0,.29-.29,8.43,1.18,10.3s6.28,5.68,8.34,5.68,8-5.88,7.74-8,.49-9.66-2.25-12.5a8.72,8.72,0,0,0-7.16-3C1410.79,713.85,1405.21,717.57,1405.1,721.4Z"/><path class="cls-82" d="M1394.76,788.52c.22.4.34.64.34.64s-2.84,6.86-3,6.56l-.82-.93C1392.37,792.54,1393.66,790.46,1394.76,788.52Z"/><path class="cls-82" d="M1429.83,759.84s-3.45,14.51-3,15.59a9.12,9.12,0,0,1,.33,1.48c.58,3.32,1.61,11.11,2.08,14.69.15,1.15.24,1.87.24,1.87l-24.44-19.71-10.2-10.4a6.17,6.17,0,0,0,1.27.52,2.6,2.6,0,0,0,1.63,0,8.89,8.89,0,0,0,2.61-2.13,13.54,13.54,0,0,0,3.35-6.5c.46-2.29-.17-4.61-.84-6.8-.3-.94-2.28-8.6-3.51-9.18a10.08,10.08,0,0,1,3.49-1.88s11.38,12,14.25,13.21,6.22-7.81,5-10.56c.78.29,1.71.56,2.69.85h0c.11.75,2,12.75,4.55,18a8.05,8.05,0,0,1,.41,1Z"/><path class="cls-83" d="M1399.25,739.22l.56-.46a6.34,6.34,0,0,1,2.31-1.18l.76-.2s11.38,12,14.25,13.21,6.22-7.82,5-10.56l2.69.82s2,12.61,4.56,18-1,14.78-3.92,22.88,8.11,9.55,6.28,17.26-10.46,31.9-10.46,31.9l14.77,65.37s-5.1,3.92-9.54,2.61l-17.92-40.92-15.29,31s-8.63-1.57-9.55-3.92S1399,833.74,1399,833.74,1388.11,816,1388.37,805s10.46-18.82,8.89-24.84c-1.24-4.77-2-12.13-2.62-17,0,.28,1.26.69,1.51.76a2.6,2.6,0,0,0,1.63,0,8.73,8.73,0,0,0,2.6-2.13,13.47,13.47,0,0,0,3.36-6.5c.46-2.29-.17-4.61-.84-6.8C1402.59,747.46,1400.46,739.22,1399.25,739.22Z"/></g><g id="_LAYER-18_P4_" data-name="&lt;LAYER-18_P4&gt;"><path class="cls-55" d="M277.81,737.74s2.08-7,2.08-10.41c0-2.47,2.18-5,3.9-6.55a14.34,14.34,0,0,1,11.87-3.22c2.59.42,6.21,1.25,7.83,3.47,2.07,2.82,4,6.7,2.89,10.27a13.6,13.6,0,0,1-1.46,3.7c-.09.12-.24.23-.32.35-.63,1,.09,2.82.17,3.89.05.66.38,2.86-.56,3.13-1.33.38-.76-.66-1.33.38-.48.88-.92,1.78-1.47,2.62s-1.42,1.38-1.74,2.34c-.37,1.17,0,5.31-2.18,5-2.46-.38-6-5.49-8.9-3.6s-3.31,3.22-3.31,3.22Z"/><path class="cls-84" d="M313.16,803.45V804a1,1,0,0,0,1,1h53.21L356,803.28Z"/><polygon class="cls-85" points="356.02 803.28 368.61 773.46 382.31 771.28 367.39 805.06 356.02 803.28"/><path class="cls-84" d="M369.21,774.42c-.4.84-11.27,27.1-11.27,27.1l8.85.5,12.67-29.34Z"/><path class="cls-85" d="M356,803.28l-42.83.17,3.27,1.06a11.2,11.2,0,0,0,3.44.55h47.54Z"/><polygon class="cls-84" points="350.55 804.29 333.95 804.29 339.75 803.71 353.12 803.71 350.55 804.29"/><polygon class="cls-84" points="330.48 804.29 329.32 804.29 335.05 803.71 337.23 803.71 330.48 804.29"/><path class="cls-55" d="M317.55,791.72,332.43,794c2.66.4,8.15,4.95,9.32,5.77s-2.14,2.77-4.1,1.54-2.11-2.25-5.76-1.8-7.35,2.06-10.05.94-5.25-2.3-5.25-2.3l.83-5.54"/><path class="cls-55" d="M316.88,796.41h15.05c2.69,0,8.8,3.68,10.08,4.32s-1.71,3.06-3.84,2.13-2.41-1.91-6-.92-6.95,3.12-9.79,2.41-5.54-1.49-5.54-1.49v-5.6"/><path class="cls-57" d="M336.46,798.08a14.35,14.35,0,0,0-5.07-1.67h-14.8l.3-2,.13-.84,14.87,2.23A14,14,0,0,1,336.46,798.08Z"/><path class="cls-86" d="M320.57,874.79v4.83c0,.28,6.66,3.74,7.2,3.83s1-4.68,1-4.68l.81-5.62Z"/><path class="cls-75" d="M320.4,878.77s-2.92,5.47-2.37,11.12,3.46,4,6.38,4.38,2.55-1.1,2.55-1.1c.07.26,1.53.68,1.75.77a27.14,27.14,0,0,0,4.7,1.34,25.4,25.4,0,0,0,6.16.35c1.67-.11,4.4-.12,5.85-1,2.28-1.45,1.93-4.2-.21-5.5-4.19-2.55-10.44-1.58-12.52-4.86a58.12,58.12,0,0,0-3.9-5.47S322.41,879.87,320.4,878.77Z"/><path class="cls-86" d="M305.06,883.18v5c0,.28,6.91,3.88,7.48,4s1-4.85,1-4.85l.84-5.84Z"/><path class="cls-75" d="M332.58,844.56c0,6.63-2.16,31.78-2.54,32.34-.17.27-2,.33-4,.26a30.7,30.7,0,0,1-5.88-.63c-.33-.11-.53-1.07-.65-2.52,0-.21,0-.43,0-.66-.3-5.47.37-16.19.17-17.27,0-.17-.09-.11-.16.22-.76,3.21-2.73,25.15-3.86,27.61a2.62,2.62,0,0,1-1.64,1.28c-2.26.74-6,.18-8,0-2.64-.19-2.15-2.16-2-4.81,0-.23,0-.52.07-.89.34-3.88,1.42-15.14,0-21.61,0-.1-.05-.2-.07-.3-1.69-7-.39-18.36,0-20.72s-8.9-2.56-15.38-.86-33.26.76-35.52-1.89c-1.25-1.47-1.76-6.24-2-10.21-.16-3.2-.14-7.22-.14-7.22s0,1.34,1.14.78,30.66-8.9,37.67-9.85,24.6,2.66,31.41,3.79,9.47,4.35,10,7.76S332.58,837.94,332.58,844.56Z"/><path class="cls-77" d="M278.25,736.36s-1-8.94,0-11.35a18.34,18.34,0,0,1,2.74-5.25c1.87-2.7,3.74-6.25,9.36-6.39s5.76,1.28,7.92,1.28,9.79,2.5,11,5.48.71,7.53-1.16,8.53-6.19-2.8-8.49-3.94-1.73.43-1.59,1.71-.86,4.11-1.87,4.54-2.46-.14-2.31,1.28-1.86,6-1.86,7.66,1.72,5.4,3,4.69,3.88-3.1,5.76-2.84a7.74,7.74,0,0,1,2.41.56s-.28,3.23-1.91,3.32c0,0-3.28-1.38-4.15-.15A6.44,6.44,0,0,0,300,747c1.44.19.67,10.5-5.57,7.19s-9.31-8.71-7.29-12.11,2.78-3.31,3.36-4.92,1.53-5.21.09-6.15-3.74-2-5,.85-2.59,6.72-5.28,5.68S278.25,736.36,278.25,736.36Z"/><path class="cls-87" d="M263.69,777.35c-.84-1.71-1.36-2.82-1.39-2.89C262.93,774.82,263.38,775.87,263.69,777.35Z"/><path class="cls-88" d="M320.47,792.09c-1.22-.39-7.86-2.54-10.51-3.82-2.92-1.42-8.27-3.22-10.54-6.2s-3.69-1.22-4.69-4.72-4.61-15.07-5.23-16.39c0,0,0,0,0,0a24.22,24.22,0,0,0-2.58-3.17l-1.72-1.89c-2.69-4.74-10.74-14.43-12.62-13.39,0,0-13.2,6-16,20.72s-8.33,54.09-4.92,55.51a69,69,0,0,0,7.88,1.9c11.09,2.28,29.49,3.9,30.54,3.49,1.42-.57,2.13-16.33,2.27-18.46a2.63,2.63,0,0,0,0-.31v-.54c4.53.23,25,1.24,25.81.9s0-6.13-.52-9.38a15.06,15.06,0,0,0-.43-2.07C317.25,793.77,318.83,791.66,320.47,792.09Z"/><path class="cls-3" d="M277.24,736.79s-5.11,5.68-4.68,5.68,11.92,7.52,12.35,16.32L289,754S280.65,737.92,277.24,736.79Z"/><path class="cls-89" d="M291.71,814.81c-.37,4.5-.92,9-1.67,9.27-1,.42-19.85-1.17-30.94-3.57a39.07,39.07,0,0,1,1-6.69c1.14-4.36-3.4-11.74-2.84-14s5.87,1.51,6.44-2.46c.45-3.13,1.19-14.5,0-20,3.1,6.29,10.6,20.72,14.74,21.9,5.3,1.52,12.87,6.06,13.82,6.06l.05,0a2.63,2.63,0,0,1,0,.31c-.05.77-.18,3.35-.38,6.33Z"/><path class="cls-90" d="M294.74,782.5c1,3.5,2.41,1.74,4.68,4.72,2,2.65,14.73,5.66,17.74,7-6.47-1-22.74-3.56-23.37-3.64-1.08-.15-7.75-31.47-6.89-32.84,1.17,1.3.81,2.93,1.08,3.45"/><path class="cls-91" d="M314,885.19c-2.26.74-6,.18-8,0-2.64-.19-2.15-2.16-2-4.81,0-.23,0-.52.07-.89.34-3.88,1.42-15.14,0-21.61,0-.1-.05-.2-.07-.3-1.69-7-.39-18.36,0-20.72s-8.9-2.56-15.38-.86-33.26.76-35.52-1.89c-1.25-1.47-1.76-6.24-2-10.21,0,.61,1.14,2,1.46,2.49a20.08,20.08,0,0,0,3.5,4.35c4.4,4.1,12.43,3.15,18,3.09,8.89-.08,17.77-.37,26.64-.37,5.25,0,9.44,3,10.44,3s-1,2.13-1,3.13,1.78,1,2,1.42-4,.56-3.16,3.83,1.84,5.11.85,10.93-2.55,22-1.13,24.94C309.77,882.87,313.6,883.7,314,885.19Z"/><path class="cls-92" d="M326.08,877.16a30.7,30.7,0,0,1-5.88-.63c-.33-.11-.53-1.07-.65-2.52a1.38,1.38,0,0,0,0-.66c-.3-5.47.37-16.19.17-17.27.84-9.94,2.51-27.17,2.51-27.59,0,0,1.42,12.91,1.56,18.73s-.85,20.44,1.7,27.54A10.85,10.85,0,0,1,326.08,877.16Z"/><path class="cls-93" d="M322.38,827.34a5.8,5.8,0,0,0-2.45-4.21c-4.06-3.4-10.16-4.16-15.18-5.36-.92-.22-13.08-2.73-13.06-3,.08-1,.15-1.92.21-2.85,5.15,1,17.72,3.5,23.66,6C319.62,819.71,322.27,822.9,322.38,827.34Z"/><path class="cls-75" d="M332,902.61a3.72,3.72,0,0,1-1.16,1.14c-1.5.94-4.33,1-6.07,1.07a26.4,26.4,0,0,1-6.4-.37,27.36,27.36,0,0,1-4.87-1.39c-.23-.09-1.75-.52-1.82-.79,0,0,.38,1.51-2.65,1.13s-6.05,1.33-6.62-4.54c-.05-.53-.07-1.05-.07-1.57a24.1,24.1,0,0,1,2.53-10c2.08,1.13,8.7,0,8.7,0a59.09,59.09,0,0,1,4.06,5.67c2.16,3.41,8.65,2.4,13,5A3.29,3.29,0,0,1,332,902.61Z"/><path class="cls-94" d="M332,902.61a3.72,3.72,0,0,1-1.16,1.14c-1.5.94-4.33,1-6.07,1.07a26.4,26.4,0,0,1-6.4-.37,27.36,27.36,0,0,1-4.87-1.39c-.23-.09-1.75-.52-1.82-.79,0,0,.38,1.51-2.65,1.13s-6.05,1.33-6.62-4.54c-.05-.53-.07-1.05-.07-1.57,2.66,1,15,5.69,19,5.86C325.12,903.31,329.74,903.54,332,902.61Z"/><path class="cls-94" d="M346.52,893.51a3.44,3.44,0,0,1-1.12,1.09c-1.44.91-4.17.92-5.84,1a25.4,25.4,0,0,1-6.16-.35,26.52,26.52,0,0,1-4.7-1.34c-.21-.08-1.68-.51-1.74-.77,0,0,.36,1.46-2.55,1.1s-5.83,1.27-6.38-4.37c0-.51-.07-1-.07-1.52,2.56,1,14.47,5.48,18.28,5.64C339.89,894.18,344.33,894.4,346.52,893.51Z"/></g><g id="_LAYER-18_P3_" data-name="&lt;LAYER-18_P3&gt;"><path class="cls-95" d="M1717.41,768.76s16.76,5.62,19.09,8.48,5.28,7.18,7,21.66,2.43,32.54,0,40.47c-1.09,3.56-1.84,6.69-2.33,9.06a3,3,0,0,1-4.58,2c-1.63-1-3.39-1.85-4.39-1.51l-9.11,1.58a3,3,0,0,1-3.52-2.53c-2-12.71-9.1-60.91-6.08-66.68C1713.46,781.25,1721.05,773.49,1717.41,768.76Z"/><path class="cls-96" d="M1717.63,768.84l-.15-.06.12,0Z"/><path class="cls-96" d="M1719.78,848.73c-3.28.4-11.81,1.27-17.88.49,0-.15-15.21-.31-15.19-.47l8.86-66.45s7.31-6.25,7.79-10.3a3.68,3.68,0,0,0,0-.8l14-2.41c3.58,4.73-4,12.46-4,12.46-3,5.77,4.12,54,6.08,66.68A2.65,2.65,0,0,0,1719.78,848.73Z"/><path class="cls-97" d="M1694,945.09c-.25,0-2.43,4-2.67,4.36-1.66,2.42-4,3.74-5.86,6-1.44,1.75-2.22,4-.85,6,1.61,2.35,6,1,8.12.3,3.07-1,6.1-3.21,9.2-3.78a8.43,8.43,0,0,0,2.39-.63c2.85-1.48,1.47-8.87.64-11.34C1704.46,944.45,1694,945.09,1694,945.09Z"/><path class="cls-97" d="M1715.9,943.41c-.87.06-1.73,8-1.63,9,.42,3.91,3.54,4.7,6.72,6.06,2.57,1.1,5.09,2.48,7.85,3,1.4.29,7.17.85,7.74-1.07s-1.35-5.59-4.88-7.89-6.5-8.43-6.32-9.16S1715.94,943.41,1715.9,943.41Z"/><path class="cls-98" d="M1651.86,787.74l6.3,3.42,3.18,10.37s-12.53-7.44-13-8.27S1651.86,787.74,1651.86,787.74Z"/><path class="cls-98" d="M1731.48,846.54l-.29.48-2.31,3.83,4.55,8.08,3.85-11.48-4.72-2Z"/><path class="cls-99" d="M1687,777.57c5.6-.26,2.81,17.6,10.74,38.71.31.81.93,2.45.17,3.51-2.56,3.57-14.14-3-23.43-7.92a198.42,198.42,0,0,1-20.53-13h0a18.69,18.69,0,0,1,2.27-5.42c.74-1.12,2-3,3.71-3.1,1.33-.12,2.25.82,3.54,1.82,3.41,2.64,6.76,3.62,10.09,4.6s6.28,1.84,7.57.53c1.68-1.71-1.24-5-.62-10.07C1681,783,1683.94,777.72,1687,777.57Z"/><path class="cls-80" d="M1686.48,847.62s-3.38,5.93-2.44,8.27,4.52,46.62,4.68,50.67c.27,7.17.9,14.33,1.39,21.49q.41,6,.83,12c.06.86-.15,2.51.23,3.29,1.13,2.32,14.49,5.36,14.38,1.85,0,0-1.71-57.38,5.31-70.48,1.56,7.35,3.48,14.64,4.54,22.08,1,6.88.57,13.55.25,20.45-.4,8.66-1.05,17.4-1.05,26.08,0,.62,11.41,3.74,14.28.15,0,0,4.27-62.68,5.21-66s.15-21.52,0-22.76-3-7.18-3-7.18S1696.09,849.5,1686.48,847.62Z"/><path class="cls-95" d="M1698.92,771.68s-12,1.89-15.14,9.16-12.27,23.91-6.86,50.73q1.3,6.51,2.65,13,.67,3.24,1.28,6.49a2,2,0,0,0,.28.8c.95,1.27,2.29-2,2.71-2.5.6-.76,1.53-1.93,2.64-1.76,1.5.22,2.79-2.28,7-1a3.53,3.53,0,0,0,4.55-2.92l8.86-66.45s-4-1.26-3.5-5.3S1698.92,771.68,1698.92,771.68Z"/><path class="cls-98" d="M1690.39,750.28c-.52.29.65,6.15.74,6.7.07.4.19,1.29.42,2.44.16.81-.54,2.33-1,3.37a1.14,1.14,0,0,0,.52,1.5c.63.32,1.37.78,1.51,1.21.47,1.57,1,1.45,2.22,3.5a10.89,10.89,0,0,0,2.91,3.6,6.56,6.56,0,0,0,1.83,1c1.79.63,4.27-2.16,5.78-.47,1.3,1.47,10.7.29,12.94-3.89,0,0-4.48-4.61-4.23-8.76S1705.67,741.88,1690.39,750.28Z"/><path class="cls-77" d="M1700.41,751.21s7,5,7.81,6.26,1.13-3.3,3.62-.44a6.06,6.06,0,0,1,1,3.91c-.13,2.52,1.34,3.2,2.07,3.45,1.23.43,1.33-6.38,1.22-7.63S1707.8,748.79,1700.41,751.21Z"/><path class="cls-100" d="M1716.15,757s2.27-11.45-3.81-15-11-5.2-16.31-1.66-5.49,8.34-5.49,8.34-8.56.17-8.52,1,7.7,2.91,8.35,2.8-.7-2.41,2.07-2.25S1714.26,754.56,1716.15,757Z"/><path class="cls-95" d="M1717.41,768.76l.07,0h0Z"/><rect class="cls-101" x="1640.39" y="777.92" width="11.6" height="19.01" rx="2.03" transform="translate(3274.88 -35.59) rotate(127.63)"/><rect class="cls-96" x="1640.8" y="778.25" width="10.86" height="18.4" rx="2.03" transform="translate(3274.97 -35.58) rotate(127.63)"/><path class="cls-98" d="M1655.92,789.43a3.73,3.73,0,0,0-1.29-1.46c-.39-.25-.46-.17-3-.45a.86.86,0,0,0-.74.16.67.67,0,0,0-.11.55.92.92,0,0,0,.46.54c.56.36,1,.25,1.59.45a3.63,3.63,0,0,1,1.1.63c1.13.84,1.32,1.74,1.74,1.66s.51-.83.52-.9A2,2,0,0,0,1655.92,789.43Z"/><path class="cls-102" d="M1728.56,848.45c-.15-.22-.49-.22-1-.22a2.64,2.64,0,0,0-2,.63c-.25.26-.07.25-.61,1.18-.22.37-.37.58-.29.75s.2.2.64.21a3.28,3.28,0,0,0,2.49-.89C1728.24,849.69,1728.82,848.85,1728.56,848.45Z"/><path class="cls-103" d="M1855.39,943.6c-1,17-14.09,32.4-31.16,36.63a41.49,41.49,0,0,1-28.73-77.33l.93-.47a10.17,10.17,0,0,1,1,3.46c-.49.24-1,.46-1.47.73A38,38,0,0,0,1822.46,977c20-4.53,32.26-23.13,29-43.28a37.94,37.94,0,0,0-48.35-30.09,14,14,0,0,1-.93-3.41c14.66-3.91,27.91-1.17,39.39,8.81a39.81,39.81,0,0,1,13.74,27.05c0,.24,0,.51.3.59v.6C1855.14,939.36,1855.54,941.49,1855.39,943.6Z"/><path class="cls-104" d="M1855.39,943.6c.15-2.11-.25-4.24.26-6.33v6.3A2.06,2.06,0,0,0,1855.39,943.6Z"/><path class="cls-56" d="M1797.41,905.89a10.17,10.17,0,0,0-1-3.46l-4-12.83c-.59,0-.79.48-1.07.79l-38.84,43.17c-.23.26-.49.49-.74.73-.68-.64-1-1.58-1.84-2.08-.67-1-1.82-1.34-2.65-2.1,1.64-1.81,3.29-3.62,4.93-5.44q18.68-20.64,37.36-41.26a1.89,1.89,0,0,0,.4-2.15c-.31-.94-1-.7-1.58-.7q-30,0-59.91,0c-1.22,0-1.55.2-1.14,1.49,2.34,7.38,4.6,14.79,6.87,22.19q3.81,12.45,7.6,24.91c-2.18-.09-4,.89-5.91,1.81q-7.1-23.1-14.2-46.19c-.07-.23-.13-.48-.52-.48-.83,1.5-1.68,3-2.51,4.55l-8.86,16.31a7.91,7.91,0,0,0-1.64,3.16,5,5,0,0,0-1.18,1.92c-.31.51-.63,1-.92,1.53l-13.54,24.58c-1.08-1.5-2.81-2-4.32-2.9,1.31-2.36,2.63-4.72,3.93-7.08l10.31-18.78a6,6,0,0,0,1-1.85,12.51,12.51,0,0,0,1.74-3.19l9.55-17.06c1.07-1.91,2-3.91,3.21-5.73s1.55-3.37.55-5.25c-.47-.9-.16-1.48.79-1.78a14,14,0,0,0,3.6-1.15c.93-.3,1.43.06,1.52,1,.16,1.64,1.1,1.93,2.64,1.93,19.7-.06,39.39,0,59.09,0,1.75,0,1.71,0,1.25-1.66a78.32,78.32,0,0,1-2.38-8.47,5.16,5.16,0,0,0,3.37.9c1.09-.07,2.19,0,3.28,0q4.26,14.21,8.53,28.41c.66,2.2,1.35,4.39,2,6.58a14,14,0,0,0,.93,3.41l.66,2.11c1,3.34,2,6.69,3,10,2.14,6.75,4.59,13.39,7.1,20a6,6,0,0,0-3.36,1.55c-3-6.17-5.89-12.43-8.42-18.83-1.42-3.56-2.76-7.15-4.13-10.73A3,3,0,0,0,1797.41,905.89Z"/><path class="cls-103" d="M1705.19,902.51a12.51,12.51,0,0,1-1.74,3.19,36.53,36.53,0,0,0-22.91-3,37.9,37.9,0,0,0-29,50.36c6.51,17.68,24.27,27.68,43,24.22,16.67-3.07,29.61-17.73,30.48-34.53h3.56a41.47,41.47,0,0,1-35,38.33c-22.45,3.61-44.23-12.39-47.35-34.79-3-21.84,10.21-41.49,31.59-46.65a40.63,40.63,0,0,1,26,2.32Z"/><path class="cls-103" d="M1790.83,865.91c-1,0-1.95-.09-2.91,0a4.54,4.54,0,0,1-3-.79h0l-.21-.32c-1.4-2.25.22-4.71,3.09-4.64,7.24.18,14.49.05,21.74.06a11.15,11.15,0,0,1,2.3,22.08,10.07,10.07,0,0,1-2,.19,2.75,2.75,0,0,1-3.07-2.76c0-1.68,1.08-2.78,2.94-2.9a5.5,5.5,0,0,0,5.24-4.48,5.4,5.4,0,0,0-2.8-5.8,5,5,0,0,0-2.42-.65C1803.46,865.87,1797.15,865.9,1790.83,865.91Z"/><path class="cls-103" d="M1716.28,863c-4.15,2.37-8,1.82-11.62-1.17-1.54-1.27-3.23-2.35-4.83-3.55a3.72,3.72,0,0,1,2.29-6.81h28.52c2,0,3.28,1.13,3.33,2.85s-1.2,3-3.3,3a23.94,23.94,0,0,0-11,3.46Z"/><path class="cls-104" d="M1749.91,932.21c.82.5,1.16,1.44,1.84,2.08a11.18,11.18,0,0,1-2,13.81,12,12,0,0,1-8.22,3l-3.82-1c-1.06-.88-2.5-1.31-3.18-2.64a44.37,44.37,0,0,0,4.22-4c.54-.5.37-1,.12-1.63-.9-2.16-.66-3.34.92-4.81,1.23-1.16,2.73-1.34,4.53-.39a1,1,0,0,0,1.44-.17C1747.12,935.06,1748.52,933.63,1749.91,932.21Z"/><path class="cls-56" d="M1728.66,942.72h-5.76l-29.74-.05a13,13,0,0,0,.32-5l29.44-.06a3,3,0,0,0,2.24-.07,6.74,6.74,0,0,0,3.51,0l2.91.13a11.66,11.66,0,0,0,0,4.92Z"/><path class="cls-105" d="M1731.58,942.65a11.66,11.66,0,0,1,0-4.92c.49-2.86,2.34-4.86,4.3-6.8,1.87-.92,3.73-1.9,5.91-1.81a13.15,13.15,0,0,1,5.47,1c.83.76,2,1.12,2.65,2.1-1.39,1.42-2.79,2.85-4.17,4.28a1,1,0,0,1-1.44.17c-1.8-.95-3.3-.77-4.53.39-1.58,1.47-1.82,2.65-.92,4.81.25.6.42,1.13-.12,1.63a44.37,44.37,0,0,1-4.22,4C1732.82,946.31,1732.26,944.45,1731.58,942.65Z"/><path class="cls-103" d="M1739.42,961c3.26.13,3.26.13,3.26,3.42,0,2,0,2-2,2-2.65,0-5.29,0-7.94,0-1.14,0-1.44-.39-1.45-1.48,0-3.78,0-3.78,3.91-4Z"/><path class="cls-105" d="M1739.42,961h-4.24q1.26-5.4,2.51-10.8l3.82,1c-.63,2.85-1.27,5.7-1.89,8.55C1739.52,960.07,1739.49,960.51,1739.42,961Z"/><path class="cls-105" d="M1722.89,871.54a14,14,0,0,1-3.6,1.15c-.46-1.88-1.37-3.63-1.53-5.59a8.87,8.87,0,0,1,3-1.92Z"/><path class="cls-104" d="M1720.8,865.18a8.87,8.87,0,0,0-3,1.92,14.53,14.53,0,0,1-1.48-4.09l3.37-2.17C1720,862.3,1720.71,863.66,1720.8,865.18Z"/><path class="cls-106" d="M1784.79,864l.24.36C1784.79,864.31,1784.78,864.14,1784.79,864Z"/><path class="cls-105" d="M1803.81,905.74l-.66-2.11a37.94,37.94,0,0,1,48.35,30.09c3.22,20.15-9.07,38.75-29,43.28a38,38,0,0,1-26.52-70.38c.48-.27,1-.49,1.47-.73a3,3,0,0,1,.64,1.85c-.79.9-1.94,1.21-2.88,1.85-12.68,8.64-18.48,20.51-16.42,35.82,2.57,19.12,20.68,32.64,39.92,30.05a34.2,34.2,0,0,0,22.1-11.72c9-10.46,11.44-22.42,7.06-35.48-3.45-10.27-10.53-17.45-20.57-21.51A34.2,34.2,0,0,0,1803.81,905.74Z"/><path class="cls-105" d="M1702.43,907.55a36.11,36.11,0,0,0-16.43-3.32,35.8,35.8,0,0,0-33.73,28.36,35.75,35.75,0,0,0,59.48,33.46,35.63,35.63,0,0,0,11.08-21.54,15.39,15.39,0,0,0,.07-1.8h2.2c-.87,16.8-13.81,31.46-30.48,34.53-18.76,3.46-36.52-6.54-43-24.22a37.9,37.9,0,0,1,29-50.36,36.53,36.53,0,0,1,22.91,3A6,6,0,0,1,1702.43,907.55Z"/><path class="cls-103" d="M1709.79,905.12a41.25,41.25,0,0,1,18.35,27.72c.29,1.57.36,3.17.53,4.75a6.64,6.64,0,0,1-3.51,0c-.15-1.34-.23-2.69-.47-4a37.33,37.33,0,0,0-16.54-25.27A7.91,7.91,0,0,1,1709.79,905.12Z"/><path class="cls-105" d="M1692.51,936.31a3.14,3.14,0,0,0,1,1.38,13,13,0,0,1-.32,5c-2.28,3.25-4.77,4.3-7.81,3.37a6.33,6.33,0,0,1,1.41-12.35c.49,0,1,.09,1.43-.27C1689.7,934.27,1691.43,934.81,1692.51,936.31Z"/><path class="cls-105" d="M1708.15,908.28a37.33,37.33,0,0,1,16.54,25.27c.24,1.32.32,2.67.47,4a3,3,0,0,1-2.24.07c-.86-11.73-6.23-20.85-16-27.43A5,5,0,0,1,1708.15,908.28Z"/><path class="cls-105" d="M1814.66,934.55c3.39.35,5.46,2.05,6,5a6,6,0,0,1-9.85,5.29,5.63,5.63,0,0,1-1.46-6.58c.21-.51.4-1,.6-1.54C1811.41,935.66,1812.8,934.6,1814.66,934.55Z"/><path class="cls-107" d="M1742.53,935.55c2.53.26,4.08,1.53,4.52,3.72a4.46,4.46,0,0,1-7.36,4,4.2,4.2,0,0,1-1.09-4.91l.45-1.15A6.17,6.17,0,0,1,1742.53,935.55Z"/><path class="cls-103" d="M1745.12,918.33c-3.32-.08-3,.44-3-3.09,0-.45,0-.9,0-1.35,0-.67.23-1,.94-1h9.45c.68,0,1,.27,1,1V914c-.11,5.14.86,4.23-4.16,4.3a7.83,7.83,0,0,1,.1-1.18,1.81,1.81,0,0,0-1.35-2.4c-1.16-.31-2,.34-2.38,1.63A6.19,6.19,0,0,1,1745.12,918.33Z"/><path class="cls-105" d="M1745.12,918.33a6.19,6.19,0,0,0,.58-2c.35-1.29,1.22-1.94,2.38-1.63a1.81,1.81,0,0,1,1.35,2.4,7.83,7.83,0,0,0-.1,1.18c-.72,2.08-1,4.26-1.53,6.38a6.38,6.38,0,0,1-.38,1.29,1.84,1.84,0,0,1-2.37,1,1.71,1.71,0,0,1-1.22-2.23C1744.27,922.62,1744.69,920.47,1745.12,918.33Z"/><path class="cls-98" d="M1732.48,846.54c-.76-.31-2.27.62-5.5,2.35a11.83,11.83,0,0,0-1.9,1.1c-1.24.91-1.79,1.33-2.06,2-.09.21-.41,1-.08,1.27a.88.88,0,0,0,1-.08,1.27,1.27,0,0,0,.16-.15,1.14,1.14,0,0,0,.23-.64s-.23.75.07,1,.67,0,.7,0a1.27,1.27,0,0,0,.58-.7s-.12.32-.23.63a.29.29,0,0,0,0,.14.51.51,0,0,0,.31.4.73.73,0,0,0,.57,0,1.34,1.34,0,0,0,.66-.92s0-.06,0-.06,0,.25.06.45c.06.5.09.76.24.87s.68,0,.73,0c.53-.25.57-.88.79-1.29a3,3,0,0,1,3-1.14c1.37.35,1.91,2,2.33,1.87.16-.08.17-.38.19-.9a4.59,4.59,0,0,0-.3-1.83,7,7,0,0,0-1-1.59C1731.76,847.49,1733.12,846.81,1732.48,846.54Z"/></g></g></svg>