<svg xmlns="http://www.w3.org/2000/svg" xmlns:xlink="http://www.w3.org/1999/xlink" viewBox="0 0 561.38 271.71"><defs><style>.cls-1{fill:url(#linear-gradient);}.cls-2{fill:url(#linear-gradient-2);}.cls-3{fill:url(#linear-gradient-3);}.cls-4{fill:url(#linear-gradient-4);}.cls-5{fill:url(#linear-gradient-5);}.cls-6{fill:url(#linear-gradient-6);}.cls-7{fill:url(#linear-gradient-7);}.cls-8{fill:url(#linear-gradient-8);}.cls-9{fill:url(#linear-gradient-9);}.cls-10{fill:url(#linear-gradient-10);}.cls-11{fill:url(#linear-gradient-11);}.cls-12{fill:url(#linear-gradient-12);}.cls-13{fill:url(#linear-gradient-13);}.cls-14{fill:url(#linear-gradient-14);}.cls-15{fill:url(#linear-gradient-15);}.cls-16{fill:url(#linear-gradient-16);}.cls-17{fill:url(#linear-gradient-17);}.cls-18{fill:url(#linear-gradient-18);}.cls-19{fill:url(#linear-gradient-19);}.cls-20{fill:url(#linear-gradient-20);}.cls-21{fill:url(#linear-gradient-21);}.cls-22{fill:url(#linear-gradient-22);}.cls-23{fill:url(#linear-gradient-23);}.cls-24{fill:url(#linear-gradient-24);}.cls-25{fill:url(#linear-gradient-25);}.cls-26{fill:url(#linear-gradient-26);}.cls-27{fill:url(#linear-gradient-27);}.cls-28{fill:url(#linear-gradient-28);}.cls-29{fill:url(#linear-gradient-29);}.cls-30{fill:url(#linear-gradient-30);}.cls-31{fill:url(#linear-gradient-31);}.cls-32{fill:url(#linear-gradient-32);}.cls-33{fill:url(#linear-gradient-33);}.cls-34{fill:url(#linear-gradient-34);}.cls-35{fill:url(#linear-gradient-35);}.cls-36{fill:url(#linear-gradient-36);}.cls-37{fill:url(#linear-gradient-37);}.cls-38{fill:url(#linear-gradient-38);}.cls-39{fill:url(#linear-gradient-39);}.cls-40{fill:url(#linear-gradient-40);}.cls-41{fill:url(#linear-gradient-41);}.cls-42{fill:url(#linear-gradient-42);}.cls-43{fill:url(#linear-gradient-43);}.cls-44{fill:url(#linear-gradient-44);}.cls-45{fill:url(#linear-gradient-45);}.cls-46{fill:url(#linear-gradient-46);}.cls-47{fill:url(#linear-gradient-47);}.cls-48{fill:url(#linear-gradient-48);}.cls-49{fill:url(#linear-gradient-49);}.cls-50{fill:url(#linear-gradient-50);}.cls-51{fill:url(#linear-gradient-51);}.cls-52{fill:url(#linear-gradient-52);}.cls-53{fill:url(#linear-gradient-53);}.cls-54{fill:url(#linear-gradient-54);}.cls-55{fill:url(#linear-gradient-55);}.cls-56{fill:url(#linear-gradient-56);}.cls-57{fill:url(#linear-gradient-57);}.cls-58{fill:url(#linear-gradient-58);}.cls-59{fill:url(#linear-gradient-59);}.cls-60{fill:url(#linear-gradient-60);}.cls-61{fill:url(#linear-gradient-61);}.cls-62{fill:url(#linear-gradient-62);}.cls-63{fill:url(#linear-gradient-63);}.cls-64{fill:url(#linear-gradient-64);}.cls-65{fill:url(#linear-gradient-65);}.cls-66{fill:url(#linear-gradient-66);}.cls-67{fill:url(#linear-gradient-67);}.cls-68{fill:url(#linear-gradient-68);}.cls-69,.cls-93,.cls-95,.cls-96,.cls-98{fill:none;stroke-linecap:round;stroke-miterlimit:10;}.cls-69{stroke:url(#linear-gradient-69);}.cls-70{fill:url(#linear-gradient-70);}.cls-71{fill:url(#linear-gradient-71);}.cls-72{fill:url(#linear-gradient-72);}.cls-73{fill:url(#linear-gradient-73);}.cls-74{fill:url(#linear-gradient-74);}.cls-75{fill:url(#linear-gradient-75);}.cls-76{fill:url(#linear-gradient-76);}.cls-77{fill:url(#linear-gradient-77);}.cls-78{fill:url(#linear-gradient-78);}.cls-79{fill:url(#linear-gradient-79);}.cls-80{fill:url(#linear-gradient-80);}.cls-81{fill:url(#linear-gradient-81);}.cls-82{fill:url(#linear-gradient-82);}.cls-83{fill:url(#linear-gradient-83);}.cls-84{fill:url(#linear-gradient-84);}.cls-85{fill:url(#linear-gradient-85);}.cls-86{fill:url(#linear-gradient-86);}.cls-87{fill:url(#linear-gradient-87);}.cls-88{fill:url(#linear-gradient-88);}.cls-89{fill:url(#linear-gradient-89);}.cls-90{fill:url(#linear-gradient-90);}.cls-91{fill:url(#linear-gradient-91);}.cls-92{fill:url(#linear-gradient-92);}.cls-93{stroke:url(#linear-gradient-93);}.cls-94{fill:url(#linear-gradient-94);}.cls-95{stroke:url(#linear-gradient-95);}.cls-96{stroke:url(#linear-gradient-96);}.cls-97{fill:url(#linear-gradient-97);}.cls-98{stroke:url(#linear-gradient-98);}</style><linearGradient id="linear-gradient" x1="44.58" y1="58.07" x2="42.58" y2="16.82" gradientUnits="userSpaceOnUse"><stop offset="0" stop-color="#80634b"/><stop offset="0.41" stop-color="#907256"/></linearGradient><linearGradient id="linear-gradient-2" x1="29.72" y1="76.07" x2="25.39" y2="-13.36" xlink:href="#linear-gradient"/><linearGradient id="linear-gradient-3" x1="69.89" y1="95.55" x2="69.3" y2="83.45" xlink:href="#linear-gradient"/><linearGradient id="linear-gradient-4" x1="49.21" y1="235.82" x2="48.59" y2="223.03" xlink:href="#linear-gradient"/><linearGradient id="linear-gradient-5" x1="66.69" y1="49.9" x2="64.27" y2="-0.02" xlink:href="#linear-gradient"/><linearGradient id="linear-gradient-6" x1="67.09" y1="49.05" x2="64.83" y2="2.38" gradientUnits="userSpaceOnUse"><stop offset="0.14" stop-color="#80634b"/><stop offset="0.46" stop-color="#907256"/></linearGradient><linearGradient id="linear-gradient-7" x1="62.27" y1="247.12" x2="61.12" y2="223.4" gradientUnits="userSpaceOnUse"><stop offset="0" stop-color="#80634b"/><stop offset="0.32" stop-color="#907256"/></linearGradient><linearGradient id="linear-gradient-8" x1="48.15" y1="250.46" x2="46.16" y2="209.35" xlink:href="#linear-gradient"/><linearGradient id="linear-gradient-9" x1="77.97" y1="244.43" x2="77.27" y2="230.11" gradientUnits="userSpaceOnUse"><stop offset="0.07" stop-color="#80634b"/><stop offset="0.41" stop-color="#907256"/></linearGradient><linearGradient id="linear-gradient-10" x1="75.84" y1="246.37" x2="75.06" y2="230.31" xlink:href="#linear-gradient-9"/><linearGradient id="linear-gradient-11" x1="74.58" y1="249.37" x2="73.6" y2="229.2" gradientUnits="userSpaceOnUse"><stop offset="0.09" stop-color="#80634b"/><stop offset="0.41" stop-color="#907256"/></linearGradient><linearGradient id="linear-gradient-12" x1="70.23" y1="249.15" x2="68.88" y2="221.3" xlink:href="#linear-gradient"/><linearGradient id="linear-gradient-13" x1="104.43" y1="149.26" x2="82.22" y2="107.77" gradientUnits="userSpaceOnUse"><stop offset="0" stop-color="#80634b"/><stop offset="0.58" stop-color="#907256"/></linearGradient><linearGradient id="linear-gradient-14" x1="129.18" y1="154.29" x2="81.56" y2="131.03" gradientUnits="userSpaceOnUse"><stop offset="0.41" stop-color="#80634b"/><stop offset="0.59" stop-color="#876a50"/><stop offset="0.9" stop-color="#907256"/></linearGradient><linearGradient id="linear-gradient-15" x1="81.22" y1="241.74" x2="110.16" y2="83.19" gradientUnits="userSpaceOnUse"><stop offset="0" stop-color="#736357"/><stop offset="0.17" stop-color="#877666"/><stop offset="0.47" stop-color="#a4917c"/><stop offset="0.72" stop-color="#b6a189"/><stop offset="0.91" stop-color="#bca78e"/></linearGradient><linearGradient id="linear-gradient-16" x1="93.94" y1="129.23" x2="98.93" y2="141.13" gradientUnits="userSpaceOnUse"><stop offset="0" stop-color="#80634b"/><stop offset="0.44" stop-color="#907256"/></linearGradient><linearGradient id="linear-gradient-17" x1="95.32" y1="126.37" x2="93.64" y2="91.6" xlink:href="#linear-gradient"/><linearGradient id="linear-gradient-18" x1="85.67" y1="130.47" x2="84.61" y2="108.59" gradientUnits="userSpaceOnUse"><stop offset="0" stop-color="#80634b"/><stop offset="0.76" stop-color="#907256"/></linearGradient><linearGradient id="linear-gradient-19" x1="85.8" y1="136.83" x2="82.9" y2="76.87" gradientUnits="userSpaceOnUse"><stop offset="0.14" stop-color="#80634b"/><stop offset="0.2" stop-color="#85684f"/><stop offset="0.35" stop-color="#907256"/></linearGradient><linearGradient id="linear-gradient-20" x1="106.12" y1="276.19" x2="94.21" y2="30.14" xlink:href="#linear-gradient"/><linearGradient id="linear-gradient-21" x1="112.76" y1="252.87" x2="110.98" y2="216.04" xlink:href="#linear-gradient"/><linearGradient id="linear-gradient-22" x1="80.87" y1="166.94" x2="80.34" y2="155.8" gradientUnits="userSpaceOnUse"><stop offset="1" stop-color="#80634b"/><stop offset="1" stop-color="#907256"/></linearGradient><linearGradient id="linear-gradient-23" x1="80.03" y1="175.99" x2="79.24" y2="159.65" gradientUnits="userSpaceOnUse"><stop offset="0.12" stop-color="#80634b"/><stop offset="0.97" stop-color="#907256"/></linearGradient><linearGradient id="linear-gradient-24" x1="79.16" y1="178.62" x2="76.74" y2="128.61" gradientUnits="userSpaceOnUse"><stop offset="0" stop-color="#80634b"/><stop offset="0.66" stop-color="#907256"/></linearGradient><linearGradient id="linear-gradient-25" x1="78.96" y1="172.89" x2="76.53" y2="122.88" gradientUnits="userSpaceOnUse"><stop offset="0" stop-color="#80634b"/><stop offset="0.24" stop-color="#907256"/></linearGradient><linearGradient id="linear-gradient-26" x1="117.71" y1="248.45" x2="116.83" y2="230.2" xlink:href="#linear-gradient"/><linearGradient id="linear-gradient-27" x1="115.63" y1="255.95" x2="117.09" y2="226.97" gradientUnits="userSpaceOnUse"><stop offset="0" stop-color="#80634b"/><stop offset="0.47" stop-color="#907256"/></linearGradient><linearGradient id="linear-gradient-28" x1="10.93" y1="56.1" x2="68.75" y2="101.31" gradientUnits="userSpaceOnUse"><stop offset="0.3" stop-color="#b5504a"/><stop offset="0.49" stop-color="#a44642"/><stop offset="0.72" stop-color="#933c39"/></linearGradient><linearGradient id="linear-gradient-29" x1="98.15" y1="125.58" x2="97.75" y2="117.2" xlink:href="#linear-gradient"/><linearGradient id="linear-gradient-30" x1="76.27" y1="59.45" x2="-44.38" y2="112.14" xlink:href="#linear-gradient-28"/><linearGradient id="linear-gradient-31" x1="37.82" y1="41.85" x2="59.49" y2="41.85" xlink:href="#linear-gradient-28"/><linearGradient id="linear-gradient-32" x1="80.3" y1="48.98" x2="12.96" y2="141.56" gradientUnits="userSpaceOnUse"><stop offset="0" stop-color="#b5504a"/><stop offset="0.17" stop-color="#ac4b45"/><stop offset="0.44" stop-color="#933c39"/></linearGradient><linearGradient id="linear-gradient-33" x1="37.31" y1="45.46" x2="63.88" y2="45.46" xlink:href="#linear-gradient-28"/><linearGradient id="linear-gradient-34" x1="40.69" y1="57.35" x2="40.05" y2="44.18" xlink:href="#linear-gradient"/><linearGradient id="linear-gradient-35" x1="42.15" y1="139.98" x2="40.43" y2="246.65" gradientUnits="userSpaceOnUse"><stop offset="0.3" stop-color="#b5504a"/><stop offset="0.44" stop-color="#ae4c47"/><stop offset="0.64" stop-color="#9c413e"/><stop offset="0.72" stop-color="#933c39"/></linearGradient><linearGradient id="linear-gradient-36" x1="37.62" y1="128.94" x2="61.66" y2="350.16" gradientUnits="userSpaceOnUse"><stop offset="0.06" stop-color="#b5504a"/><stop offset="0.36" stop-color="#a44642"/><stop offset="0.72" stop-color="#933c39"/></linearGradient><linearGradient id="linear-gradient-37" x1="5.95" y1="139.77" x2="118.85" y2="139.77" gradientUnits="userSpaceOnUse"><stop offset="0" stop-color="#b5504a"/><stop offset="0.32" stop-color="#a44642"/><stop offset="0.72" stop-color="#933c39"/></linearGradient><linearGradient id="linear-gradient-38" x1="51.21" y1="89.16" x2="49.03" y2="44.08" gradientUnits="userSpaceOnUse"><stop offset="0" stop-color="#80634b"/><stop offset="0.68" stop-color="#907256"/></linearGradient><linearGradient id="linear-gradient-39" x1="70.48" y1="100.8" x2="70.25" y2="96.18" gradientUnits="userSpaceOnUse"><stop offset="0" stop-color="#80634b"/><stop offset="1" stop-color="#907256"/></linearGradient><linearGradient id="linear-gradient-40" x1="37.95" y1="170.35" x2="63.04" y2="124.78" gradientUnits="userSpaceOnUse"><stop offset="0.3" stop-color="#b5504a"/><stop offset="0.55" stop-color="#a44642"/><stop offset="0.85" stop-color="#933c39"/></linearGradient><linearGradient id="linear-gradient-41" x1="37.6" y1="167.45" x2="65.74" y2="136.91" gradientUnits="userSpaceOnUse"><stop offset="0" stop-color="#b5504a"/><stop offset="0.07" stop-color="#b24e49"/><stop offset="0.84" stop-color="#973e3b"/><stop offset="1" stop-color="#933c39"/></linearGradient><linearGradient id="linear-gradient-42" x1="199.58" y1="217.02" x2="-45.3" y2="162.1" xlink:href="#linear-gradient-15"/><linearGradient id="linear-gradient-43" x1="172.38" y1="168.72" x2="-19.53" y2="167.79" gradientUnits="userSpaceOnUse"><stop offset="0" stop-color="#736357"/><stop offset="0.05" stop-color="#7c6b5d"/><stop offset="0.28" stop-color="#9f8c78"/><stop offset="0.47" stop-color="#b4a088"/><stop offset="0.6" stop-color="#bca78e"/></linearGradient><linearGradient id="linear-gradient-44" x1="114.96" y1="164.41" x2="113.78" y2="140.16" xlink:href="#linear-gradient"/><linearGradient id="linear-gradient-45" x1="105.14" y1="178.21" x2="103.53" y2="145.01" gradientUnits="userSpaceOnUse"><stop offset="0" stop-color="#80634b"/><stop offset="0.97" stop-color="#907256"/></linearGradient><linearGradient id="linear-gradient-46" x1="97.3" y1="162.02" x2="75.13" y2="148.96" xlink:href="#linear-gradient"/><linearGradient id="linear-gradient-47" x1="95.86" y1="161.25" x2="73.26" y2="157.57" xlink:href="#linear-gradient"/><linearGradient id="linear-gradient-48" x1="123.3" y1="193.78" x2="94.3" y2="97.52" gradientUnits="userSpaceOnUse"><stop offset="0" stop-color="#736357"/><stop offset="0.17" stop-color="#877666"/><stop offset="0.47" stop-color="#a4917c"/><stop offset="0.73" stop-color="#b6a189"/><stop offset="0.91" stop-color="#bca78e"/></linearGradient><linearGradient id="linear-gradient-49" x1="73.87" y1="124.95" x2="73.73" y2="109.58" gradientUnits="userSpaceOnUse"><stop offset="0.09" stop-color="#c7914a"/><stop offset="0.37" stop-color="#dda863"/><stop offset="0.85" stop-color="#ffcd89"/></linearGradient><linearGradient id="linear-gradient-50" x1="26.97" y1="136.63" x2="25.84" y2="14.44" gradientUnits="userSpaceOnUse"><stop offset="0.03" stop-color="#c7914a"/><stop offset="0.13" stop-color="#d9a45e"/><stop offset="0.28" stop-color="#eebb76"/><stop offset="0.41" stop-color="#fbc884"/><stop offset="0.53" stop-color="#ffcd89"/></linearGradient><linearGradient id="linear-gradient-51" x1="65.95" y1="106.45" x2="65.8" y2="90.2" xlink:href="#linear-gradient-49"/><linearGradient id="linear-gradient-52" x1="72.35" y1="128.19" x2="72.2" y2="111.87" xlink:href="#linear-gradient-49"/><linearGradient id="linear-gradient-53" x1="50.36" y1="134.43" x2="49.75" y2="69.37" xlink:href="#linear-gradient-49"/><linearGradient id="linear-gradient-54" x1="62.03" y1="85.75" x2="80.21" y2="158.52" xlink:href="#linear-gradient"/><linearGradient id="linear-gradient-55" x1="535.44" y1="86.2" x2="518.31" y2="109.12" xlink:href="#linear-gradient"/><linearGradient id="linear-gradient-56" x1="536.54" y1="78.05" x2="560.98" y2="78.05" xlink:href="#linear-gradient"/><linearGradient id="linear-gradient-57" x1="546.5" y1="79.21" x2="505.82" y2="72.77" gradientUnits="userSpaceOnUse"><stop offset="0" stop-color="#80634b"/><stop offset="0.32" stop-color="#907256"/></linearGradient><linearGradient id="linear-gradient-58" x1="506.24" y1="223" x2="402.71" y2="218.87" gradientUnits="userSpaceOnUse"><stop offset="0" stop-color="#c3949b"/><stop offset="0.55" stop-color="#d9b2b6"/><stop offset="1" stop-color="#e8c6c9"/></linearGradient><linearGradient id="linear-gradient-59" x1="480.42" y1="214.53" x2="520.21" y2="214.53" xlink:href="#linear-gradient"/><linearGradient id="linear-gradient-60" x1="514.23" y1="238.35" x2="528.28" y2="280.71" xlink:href="#linear-gradient"/><linearGradient id="linear-gradient-61" x1="500.73" y1="224.54" x2="458.28" y2="245.07" xlink:href="#linear-gradient"/><linearGradient id="linear-gradient-62" x1="530.98" y1="282.58" x2="481.17" y2="180.96" gradientUnits="userSpaceOnUse"><stop offset="0" stop-color="#80634b"/><stop offset="0.04" stop-color="#84674e"/><stop offset="0.19" stop-color="#8d6f54"/><stop offset="0.41" stop-color="#907256"/></linearGradient><linearGradient id="linear-gradient-63" x1="561.68" y1="131.66" x2="509.79" y2="55.7" gradientUnits="userSpaceOnUse"><stop offset="0.23" stop-color="#736357"/><stop offset="0.67" stop-color="#a5917d"/><stop offset="0.91" stop-color="#bca78e"/></linearGradient><linearGradient id="linear-gradient-64" x1="517.18" y1="117.03" x2="520.56" y2="0.25" gradientUnits="userSpaceOnUse"><stop offset="0" stop-color="#736357"/><stop offset="0.09" stop-color="#77675a"/><stop offset="0.19" stop-color="#847364"/><stop offset="0.29" stop-color="#9a8774"/><stop offset="0.39" stop-color="#b8a38b"/><stop offset="0.41" stop-color="#bca78e"/></linearGradient><linearGradient id="linear-gradient-65" x1="538.33" y1="284.16" x2="489.3" y2="237.19" xlink:href="#linear-gradient"/><linearGradient id="linear-gradient-66" x1="466.41" y1="64.52" x2="575.77" y2="64.52" xlink:href="#linear-gradient-15"/><linearGradient id="linear-gradient-67" x1="521.97" y1="120.47" x2="528.74" y2="20.73" gradientUnits="userSpaceOnUse"><stop offset="0.24" stop-color="#736357"/><stop offset="0.3" stop-color="#877666"/><stop offset="0.4" stop-color="#a4917c"/><stop offset="0.49" stop-color="#b6a189"/><stop offset="0.56" stop-color="#bca78e"/></linearGradient><linearGradient id="linear-gradient-68" x1="-8105.39" y1="117.9" x2="-8096.8" y2="117.9" gradientTransform="matrix(-1, 0, 0, 1, -7556.2, 0)" xlink:href="#linear-gradient"/><linearGradient id="linear-gradient-69" x1="544.42" y1="131.14" x2="553.33" y2="131.14" xlink:href="#linear-gradient-64"/><linearGradient id="linear-gradient-70" x1="-8095.72" y1="130.16" x2="-8104.75" y2="119.32" gradientTransform="matrix(-1, 0, 0, 1, -7556.2, 0)" gradientUnits="userSpaceOnUse"><stop offset="0" stop-color="#80634b"/><stop offset="0.9" stop-color="#907256"/></linearGradient><linearGradient id="linear-gradient-71" x1="-8115.98" y1="122.47" x2="-8097.3" y2="122.47" gradientTransform="matrix(-1, 0, 0, 1, -7556.2, 0)" gradientUnits="userSpaceOnUse"><stop offset="0" stop-color="#80634b"/><stop offset="0.78" stop-color="#907256"/></linearGradient><linearGradient id="linear-gradient-72" x1="-8106.65" y1="124.5" x2="-8102.11" y2="124.5" xlink:href="#linear-gradient-71"/><linearGradient id="linear-gradient-73" x1="-8105.27" y1="125.75" x2="-8098.06" y2="125.75" xlink:href="#linear-gradient-71"/><linearGradient id="linear-gradient-74" x1="525.11" y1="111.65" x2="526.96" y2="42.29" gradientUnits="userSpaceOnUse"><stop offset="0" stop-color="#736357"/><stop offset="0.49" stop-color="#a5917c"/><stop offset="0.77" stop-color="#bca78e"/></linearGradient><linearGradient id="linear-gradient-75" x1="514.33" y1="171.11" x2="563.67" y2="171.11" xlink:href="#linear-gradient-58"/><linearGradient id="linear-gradient-76" x1="487.82" y1="170.21" x2="545.58" y2="170.21" xlink:href="#linear-gradient-58"/><linearGradient id="linear-gradient-77" x1="468.12" y1="157.9" x2="590.09" y2="267.52" xlink:href="#linear-gradient-58"/><linearGradient id="linear-gradient-78" x1="460.86" y1="142.6" x2="570.37" y2="142.6" xlink:href="#linear-gradient-41"/><linearGradient id="linear-gradient-79" x1="508.08" y1="136.44" x2="553.31" y2="136.44" xlink:href="#linear-gradient"/><linearGradient id="linear-gradient-80" x1="520.66" y1="164.66" x2="559.96" y2="164.66" xlink:href="#linear-gradient"/><linearGradient id="linear-gradient-81" x1="532.08" y1="191.92" x2="544.78" y2="191.92" xlink:href="#linear-gradient"/><linearGradient id="linear-gradient-82" x1="534.37" y1="197.74" x2="538.7" y2="197.74" xlink:href="#linear-gradient"/><linearGradient id="linear-gradient-83" x1="535.63" y1="198.66" x2="546.38" y2="198.66" xlink:href="#linear-gradient"/><linearGradient id="linear-gradient-84" x1="534.11" y1="197.69" x2="556.94" y2="197.69" xlink:href="#linear-gradient"/><linearGradient id="linear-gradient-85" x1="535.94" y1="133.88" x2="429.61" y2="104.54" gradientUnits="userSpaceOnUse"><stop offset="0.19" stop-color="#c7914a"/><stop offset="0.21" stop-color="#ce9851"/><stop offset="0.3" stop-color="#e3af6a"/><stop offset="0.39" stop-color="#f3c07b"/><stop offset="0.49" stop-color="#fcca86"/><stop offset="0.61" stop-color="#ffcd89"/></linearGradient><linearGradient id="linear-gradient-86" x1="501.91" y1="167.87" x2="464.88" y2="74.08" gradientTransform="translate(499.14 -374.54) rotate(76.72)" xlink:href="#linear-gradient-49"/><linearGradient id="linear-gradient-87" x1="497.61" y1="156.99" x2="470.71" y2="88.85" gradientTransform="translate(499.14 -374.54) rotate(76.72)" gradientUnits="userSpaceOnUse"><stop offset="0.28" stop-color="#c7914a"/><stop offset="0.49" stop-color="#dda863"/><stop offset="0.85" stop-color="#ffcd89"/></linearGradient><linearGradient id="linear-gradient-88" x1="495.01" y1="150.41" x2="474.24" y2="97.77" gradientTransform="translate(499.14 -374.54) rotate(76.72)" gradientUnits="userSpaceOnUse"><stop offset="0.16" stop-color="#c7914a"/><stop offset="0.42" stop-color="#dda863"/><stop offset="0.85" stop-color="#ffcd89"/></linearGradient><linearGradient id="linear-gradient-89" x1="493.96" y1="147.72" x2="475.68" y2="101.41" gradientTransform="translate(19.15 -58.09) rotate(6.97)" gradientUnits="userSpaceOnUse"><stop offset="0.33" stop-color="#c7914a"/><stop offset="0.52" stop-color="#dda863"/><stop offset="0.85" stop-color="#ffcd89"/></linearGradient><linearGradient id="linear-gradient-90" x1="-60.86" y1="-1986.26" x2="-39.84" y2="-1982.14" gradientTransform="translate(-422.15 1892.17) rotate(28.86)" gradientUnits="userSpaceOnUse"><stop offset="0.65" stop-color="#fff"/><stop offset="0.75" stop-color="#e7e7e7"/><stop offset="0.93" stop-color="#c1c1c1"/></linearGradient><linearGradient id="linear-gradient-91" x1="484.17" y1="104.91" x2="486.74" y2="134.13" gradientUnits="userSpaceOnUse"><stop offset="0.58" stop-color="#fff"/><stop offset="0.7" stop-color="#e7e7e7"/><stop offset="0.93" stop-color="#c1c1c1"/></linearGradient><linearGradient id="linear-gradient-92" x1="485.85" y1="124.05" x2="486.3" y2="129.12" gradientUnits="userSpaceOnUse"><stop offset="0" stop-color="#fff"/><stop offset="0.33" stop-color="#e7e7e7"/><stop offset="0.93" stop-color="#c1c1c1"/></linearGradient><linearGradient id="linear-gradient-93" x1="466.62" y1="105.96" x2="540.96" y2="105.96" xlink:href="#linear-gradient-64"/><linearGradient id="linear-gradient-94" x1="452.02" y1="107.21" x2="542.07" y2="107.21" xlink:href="#linear-gradient-58"/><linearGradient id="linear-gradient-95" x1="438.55" y1="-413.08" x2="488.89" y2="-413.08" gradientTransform="matrix(0.99, 0.12, -0.12, 0.99, -15.19, 458.65)" xlink:href="#linear-gradient-64"/><linearGradient id="linear-gradient-96" x1="467.22" y1="111.78" x2="510.42" y2="111.78" xlink:href="#linear-gradient-64"/><linearGradient id="linear-gradient-97" x1="516.68" y1="160.04" x2="547.27" y2="94.03" gradientUnits="userSpaceOnUse"><stop offset="0.38" stop-color="#c3949b"/><stop offset="0.48" stop-color="#cfa4aa"/><stop offset="0.63" stop-color="#ddb7bb"/><stop offset="0.8" stop-color="#e5c2c6"/><stop offset="0.97" stop-color="#e8c6c9"/></linearGradient><linearGradient id="linear-gradient-98" x1="470.32" y1="101.58" x2="508.49" y2="101.58" xlink:href="#linear-gradient-64"/></defs><g id="PEOPLE"><g id="_LAYER-18_P9_" data-name="&lt;LAYER-18_P9&gt;"><path class="cls-1" d="M40.9,36.25a21.1,21.1,0,0,0,2.44-3.48,21.1,21.1,0,0,0,2-4,14.23,14.23,0,0,0,1-4.64c.09-2.73-.85-3.92,0-5a3.21,3.21,0,0,1,2.21-.93c.69-.11,2.64-.32,6.26,1.39,3,1.4,4.44,2.1,4.88,3.49s-.63,1.68-1.16,5.68c-.18,1.32-.42,2.63-.58,4s-.23,2.19-.81,2.55-1.3,0-2.21-.23a16.45,16.45,0,0,0-5.11-.35,9.54,9.54,0,0,0-5.34,1.75,9.14,9.14,0,0,0-3,4.29c-.54,1.51-.3,2-.69,4.53a27.49,27.49,0,0,1-1.51,5.92,14.12,14.12,0,0,1-3.72,5.92c-.63.56-.18,0-5.1,2.9-1.12.65-2,1.17-2.44.85s-.19-1.14,0-2.36c.42-2.66,0-2.7.35-4.64a19,19,0,0,1,2.78-6.85,24.47,24.47,0,0,1,3.6-4.88c.26-.27.2-.19,4.18-3.94A27.38,27.38,0,0,0,40.9,36.25Z"/><path class="cls-2" d="M22.68,61.67c-.05-1.77,1.12-2.77,2.67-5.1,1.79-2.71,1.22-2.88,2.79-5.34,2.53-4,6-6.69,6.38-6.39.19.16-.57,1.11-2,3.83a39,39,0,0,0-2.09,4.53c-1.77,5.08,1.15,7.83-.82,10.21-1.28,1.57-4,2.2-5.57,1.17A3.85,3.85,0,0,1,22.68,61.67Z"/><path class="cls-3" d="M65.69,84.15c.25-.1.72-.09,3.94,3.13a25.49,25.49,0,0,1,2.61,2.84c1.46,2,2.31,3.1,1.91,4.23A3,3,0,0,1,70.85,96c-.93-.24-1.06-1-2.44-3.19-2.09-3.35-3.12-3.78-3.36-5.74C64.93,86.11,65,84.43,65.69,84.15Z"/><path class="cls-4" d="M33.58,227.72a14.08,14.08,0,0,0-.5,4,5.53,5.53,0,0,0,.31,2.82,4.22,4.22,0,0,0,4.19,2.5,6.52,6.52,0,0,0,2.38-.62,13.61,13.61,0,0,0,2.19-1.07c2.52-1.49,7.38-2,10.45-2.31a63.27,63.27,0,0,0,6.39-.75,21.63,21.63,0,0,0,4.19-1.63,2.74,2.74,0,0,0,1.56-1.38,1.52,1.52,0,0,0-.06-1.37,1.34,1.34,0,0,0-.81-.38c-1.1-.27-1.18-.52-2-.75a8.29,8.29,0,0,0-2.81-.06s-.77,0-3.44-.25c-4-.41-7.14-2.24-11.21-2.57S34.74,224.78,33.58,227.72Z"/><path class="cls-5" d="M46.38,29.47a33.84,33.84,0,0,1-1.57-4.56,22.05,22.05,0,0,1-1.22-6.27,19.75,19.75,0,0,1,.61-4.84,12.51,12.51,0,0,1,1.57-4.63A14.77,14.77,0,0,1,49,6a24,24,0,0,1,3.27-2.46,21.78,21.78,0,0,1,5-2.11c3.2-1,5.58-1.68,8.66-1.29a16.82,16.82,0,0,1,7.35,3A45.85,45.85,0,0,1,78.74,8c4.46,4.27,3,3.54,5.38,5.66a7,7,0,0,1,2,2.58,9.7,9.7,0,0,1,.61,2.87c0,.41.08,1.28.14,3s0,1.39.07,2.11a18.85,18.85,0,0,1,.06,3.34,8.17,8.17,0,0,1-.61,2.18,10.66,10.66,0,0,1-1.29,2.12,11.07,11.07,0,0,1-1.71,2,10.05,10.05,0,0,1-2,1.36c-.43.24-.81.41-1.57.75-.91.41-1.08.45-1.84.82L77,37.37h0a10.34,10.34,0,0,0-.34,1.91,15,15,0,0,1-.07,2.32,1.33,1.33,0,0,1-.34.75,2.62,2.62,0,0,1-.68.41h0c-1.13.27-1.29.61-1.29.61-.11.21,0,.28.13,1.09a2.27,2.27,0,0,1,0,1,1.6,1.6,0,0,1-.61.75,2.6,2.6,0,0,1-.89.41,2.49,2.49,0,0,1-.68.14c-.56,0-.78-.21-1-.07s0,.3-.14.75a1.33,1.33,0,0,1-.48.81c-.13.1-.27.13-.88.14s-.8,0-1.23,0H67.23l-1.36,1c-.76.54-.8.58-1,.62a1.87,1.87,0,0,1-1.43-.48,10.87,10.87,0,0,1-2.59-2.79c-1.06-1.78-1.56-1.37-5.11-4.77a53.37,53.37,0,0,1-4.15-4.43A32.4,32.4,0,0,1,46.38,29.47Z"/><path class="cls-6" d="M55,13.06a4.59,4.59,0,0,0-1.13,2.48,25.43,25.43,0,0,0,.38,9.18,41.28,41.28,0,0,0,2,7.6,18.41,18.41,0,0,0,2.63,5.27,11.47,11.47,0,0,0,5.27,4.13,10.73,10.73,0,0,0,5.26.45A6,6,0,0,0,73,40.89a5.4,5.4,0,0,0,1.58-3.38c.22-1.57-.28-2-.75-5.12-.37-2.4-.54-3.61.08-4.28.92-1,2.47-.14,3.46-1.21.81-.88.64-2.43.3-3.38-.64-1.77-2.17-2.28-5.19-4-2.7-1.53-5.21-3.38-7.83-5-2.9-1.83-4.39-2.75-6.24-2.71A5,5,0,0,0,55,13.06Z"/><path class="cls-7" d="M55.93,231.33a6.39,6.39,0,0,0,1.79,2.09,6.1,6.1,0,0,0,3.05,1c4.1.43,2,.73,7.41,1.2,5.57.49,8.35.73,9.56.71.58,0,3.72-.06,4.06,1a1.94,1.94,0,0,1,0,1,1.78,1.78,0,0,1-.48.77,2,2,0,0,1-1.07.48,18.67,18.67,0,0,0-4.13,1.14c-.43.2-.38.26-2.51,2.27-1.37,1.3-2.06,2-2.45,2.27-1.61,1.34-3.25,2.7-5.43,2.92-1.07.11-.94-.18-3.65-.41-.71-.06-1.39-.1-4.18-.12-3.67,0-5.51,0-6.33,0a21.1,21.1,0,0,1-4.9,0,5.73,5.73,0,0,1-2.81-1,4.72,4.72,0,0,1-1.73-2.45c-.25-.87,0-2,.47-4.12.36-1.6.47-1.71.66-2.69a19.78,19.78,0,0,0,.3-4.06c0-4.89-.85-6.78.3-7.71a2.78,2.78,0,0,1,1.43-.42c1.33-.2,2.4,0,5.32,1,3.54,1.19,3.81,1.47,4,1.73C55.37,228.93,54.92,229.59,55.93,231.33Z"/><path class="cls-8" d="M50.67,243.39A4.19,4.19,0,0,1,48.22,245c-.13,0-2.49.51-3.7-1a3.89,3.89,0,0,1-.66-2.63c0-1.32.31-1.58.66-3.34.49-2.52.08-3.35.89-5.14.1-.21.75-1.65,1.2-1.55s.29,1.06.59,2.86a9.66,9.66,0,0,0,.9,3.41c1.12,1.75,2.85,1.35,3.35,2.81A3.62,3.62,0,0,1,50.67,243.39Z"/><path class="cls-9" d="M73.35,239.43c.21-.37.78-.3,2.74-.3a22.42,22.42,0,0,1,2.44,0,5,5,0,0,1,3,1.24,2.68,2.68,0,0,1,.64,1.07,1.58,1.58,0,0,1,0,1,1.37,1.37,0,0,1-.38.6,1.79,1.79,0,0,1-.86.47,2.21,2.21,0,0,1-1,0,5.91,5.91,0,0,1-1.15-.38,22,22,0,0,0-2.48-.77c-1.41-.5-2.12-.76-2.62-1.46C73.64,240.7,73.07,239.9,73.35,239.43Z"/><path class="cls-10" d="M72,241c1-.81,2.21,0,5.18.34a3.65,3.65,0,0,1,1.45.47,3.12,3.12,0,0,1,.73.6c.3.33.86.93.73,1.59a1,1,0,0,1-.3.55,1.12,1.12,0,0,1-.77.26,1.84,1.84,0,0,1-.94-.26c-1.28-.65-1.51-1-2.23-1.2a4.69,4.69,0,0,0-1,0c-1.08,0-3.2-.06-3.51-.86C71.13,242,71.52,241.33,72,241Z"/><path class="cls-11" d="M70.65,243c.54-.76,1.94-.53,4.37-.13a4.81,4.81,0,0,1,2,.69,2.33,2.33,0,0,1,1.16,1.54.84.84,0,0,1-.17.64c-.08.09-.2.15-.77.21a4.84,4.84,0,0,1-1.16,0,3.56,3.56,0,0,1-.9-.26,14,14,0,0,0-2.18-.47c-1.44-.34-2.28-.53-2.53-1.16A1.23,1.23,0,0,1,70.65,243Z"/><path class="cls-12" d="M69.58,244.27a4.26,4.26,0,0,1,2-.05,21.82,21.82,0,0,1,2.23.3,4.1,4.1,0,0,1,1.67.6,1.38,1.38,0,0,1,.68.86,1.27,1.27,0,0,1-.38,1,2.2,2.2,0,0,1-1.12.6,8,8,0,0,1-1.79.3c-.73.06-1.46.15-2.19.22-2.05.18-1.92.26-2.74.3-1.36.05-3.68-.11-3.81-.78-.06-.33.46-.7,1.24-1.24A29,29,0,0,1,68,245a10.55,10.55,0,0,1,1-.48A5.34,5.34,0,0,1,69.58,244.27Z"/><path class="cls-13" d="M88,132.55a8,8,0,0,0-1.9,3.4,7.29,7.29,0,0,0-.43,3.41,6.69,6.69,0,0,0,1.55,3.41A7.39,7.39,0,0,0,90.6,145a9.88,9.88,0,0,0,4.49.47,19.67,19.67,0,0,0,5.71-1.61c1.31-.49,1.16-.51,4.15-1.7a18.21,18.21,0,0,1,3.81-1.33c.55-.09,2.32-.32,3.11-.47a6.8,6.8,0,0,1,1.2-.24c.09,0,.15,0,.18,0,.22-.25-.67-1.51-1.21-2.28-3.19-4.53-3-4.48-3.72-5.2-.12-.13-1.06-.91-2.94-2.46a18.81,18.81,0,0,0-2.76-2.18c-1.13-.47-2.7,0-5.8.86-1.86.53-3.12,1-5.62,2C89.28,131.59,88.67,131.88,88,132.55Z"/><path class="cls-14" d="M102.19,131.62c-.54.18-1.21,1-2.51,2.68a23.66,23.66,0,0,1-2.41,3c-1,.92-1.25.85-2.51,2a15,15,0,0,0-2,2.16c-1.28,1.68-2.1,2.77-1.81,3.8.55,2,4.74,2.53,5.22,2.6,2.4.32,3-.31,8-1.21,5.32-1,7.34-.74,8.63-2.34a4.39,4.39,0,0,0,.9-2.42,6.57,6.57,0,0,0-1.5-4.5,13.71,13.71,0,0,0-5-4.23C105.17,132,103.6,131.15,102.19,131.62Z"/><path class="cls-15" d="M87.91,130.8c-.63-.15-2,3-2.62,4.9a35.1,35.1,0,0,0-1.71,7.85,74.45,74.45,0,0,0-.57,8c0,3.17.13,7.49,1.6,19.24.84,6.78,1.6,12.89,2.84,19.24,1.44,7.39,1.94,9.56,1.94,9.56.82,3.59,1,3.71,1,4.89.22,3.73-.93,6,.46,7.86a3,3,0,0,0,1.82,1.36,3.1,3.1,0,0,0,1.82-.34c2.62-.92,5.12,2.37,6.65,1.67,1.27-.59,1-3.52.89-5.87-.47-8.47.74-6.4.18-14.21-.38-5.22-.7-9.7-2.49-15.28-1.92-6-3.38-6.52-4.53-12.26-.8-4-1.42-7.33,0-10.87.6-1.48,1.35-2.49,2.43-5.5,1.78-4.91,1.06-5.77.77-6s-.77-.21-1.81-.23c-1.39,0-1.78.13-2.76.15a8.53,8.53,0,0,1-3.54-.63,8.19,8.19,0,0,1-2.43-1.65,6.07,6.07,0,0,1-1.55-7.27c.79-1.73,2.09-2.43,1.89-3.88C88.19,131.32,88.13,130.86,87.91,130.8Z"/><path class="cls-16" d="M102.53,123.46c.18,1-1.53,2-1.56,4.45a5.5,5.5,0,0,1,0,1.22c-.21,1.14-1.08,2-2.76,3a22.85,22.85,0,0,1-5.71,2.17c-3.86,1.16-5,1.43-5.54.76s.05-1.17-.43-2.27c-.73-1.68-2.45-1.37-3.29-2.83s-.28-3.29.26-4.35,1.65-2.39,6.58-3.31C95.68,121.28,102.19,121.61,102.53,123.46Z"/><path class="cls-17" d="M75.55,111.56a5.19,5.19,0,0,1-.61-3.12,19.83,19.83,0,0,1,2.42-8.91,14.49,14.49,0,0,1,5.88-6.22,13.26,13.26,0,0,1,2.17-.87c1-.32,4.53-1.3,11.58,0,4.82.89,7.68,1.42,10.38,3.81a16.89,16.89,0,0,1,2.86,3.46,18.8,18.8,0,0,1,3.72,8.47,16.77,16.77,0,0,1-1,7.87,16.37,16.37,0,0,1-3.89,6.58,14.14,14.14,0,0,1-5.37,3.2,4.34,4.34,0,0,1-1.73.17,4.82,4.82,0,0,1-2.85-1.65c-.18-.19-2.69-1.71-7.7-4.75-5.73-3.48-8.59-5.22-10.72-5.71C78.78,113.46,76.65,113.26,75.55,111.56Z"/><path class="cls-18" d="M76.24,109.91c-.33.74.38,1.9-.26,3.63a8.62,8.62,0,0,1-.52,1.13c-.51.92-.78,1-1.12,1.64a5.23,5.23,0,0,0-.52,2.16c-.06.66,0,.68,0,2.08a10.12,10.12,0,0,1-.09,1.82c-.3,1.1-.93,1.41-.78,2.16.06.25.26.86.26.86h0s.76,0,1,.35-.12.49-.17,1,.05.66.61,1.47a6.5,6.5,0,0,0,1.73,2,5,5,0,0,0,3.37.6c6-.44,9-.67,12.11-2.33a10.75,10.75,0,0,0,3-2.08,9.45,9.45,0,0,0,2.77-6.57c-.27-5.73-8.55-8.69-11.07-9.6C81.75,108.46,76.89,108.45,76.24,109.91Z"/><path class="cls-19" d="M82.29,117c-2.22.9-3,.18-4.15,1.13a5.09,5.09,0,0,0-1.38,5.45,5.6,5.6,0,0,0,2.68,2.94c.71.4,2,1,5.1.78,4.27-.25,6.67-.38,8-2.25,1.64-2.23,1.33-5.75-.43-8-1.17-1.53-3.41-3.07-5.53-2.68C84.87,114.65,84.84,116,82.29,117Z"/><path class="cls-20" d="M97.85,212c-.09.89,5.61,20.91,7.21,24.79a4.16,4.16,0,0,1,.45,3.08,2.61,2.61,0,0,1-.81,1.08c-.8.6-1.45.26-2.8.45-2,.28-2.25,1.29-4.25,1.54a8.9,8.9,0,0,0-1.62.36c-.73.2-1,.32-1.18.54a1.32,1.32,0,0,0-.36,1.26c.13.33.4.31.9.73s.58.82,1,1.17a2.69,2.69,0,0,0,1.89.45,17.27,17.27,0,0,0,3.62-.54,44.62,44.62,0,0,1,4.51,0,40.21,40.21,0,0,0,4.07,0c1.89-.13,2.84-.21,3.43-.72,1-.9.86-2.54.63-4.7-1-9.74-6.75-30.1-7.3-30.67-1.68-1.74-4.82-3.1-7.14-1.89A4.23,4.23,0,0,0,97.85,212Z"/><path class="cls-21" d="M106.41,223.21c-.1,1.52.84,3.51,2.71,7.5,0,0,2.81,6,3,9.21a5.2,5.2,0,0,1-.18,1.64,3.87,3.87,0,0,1-1.08,1.88,3.66,3.66,0,0,1-1.54.72,12.77,12.77,0,0,0-4.06,2.26c-1.39,1.1-1.23,1.54-2.35,2.08a12.57,12.57,0,0,0-1.72,1c-.71.5-.9.74-.9,1,0,.45.59.82.72.9.49.3.73.14,1.09.45s.22.58.54.81c.59.42,1.71,0,1.71,0h0a12.65,12.65,0,0,0,1.45.36,3.4,3.4,0,0,0,1.9,0c.47-.17.49-.37,1.17-.81a7.48,7.48,0,0,1,1.54-.72c1.55-.6,2.32-.9,3.52-1.26a24.5,24.5,0,0,1,3.07-.82c1.43-.27,1.77-.18,4.06-.54,1.66-.26,2.21-.42,2.71-.9a3.49,3.49,0,0,0,.91-1.81,4.9,4.9,0,0,0-.73-3.7,4.64,4.64,0,0,0-1.89-1.54,18.79,18.79,0,0,1-1.81-3.79,19.32,19.32,0,0,1-1-4.7c-.75-6.84-1.15-10.31-2.53-12.64-.73-1.23-2.19-3.68-4.34-3.79C109.58,215.83,106.64,219.67,106.41,223.21Z"/><path class="cls-22" d="M83.57,155.64A19.61,19.61,0,0,1,80,158.43a34.87,34.87,0,0,0-3.15,2.1,4.23,4.23,0,0,0-1.67,1.92,2.54,2.54,0,0,0,0,1.92c.08.18.38.81.93.93.39.08.61-.16.86,0s.09.53.37,1a1.67,1.67,0,0,0,1,.68,1.35,1.35,0,0,0,1.24-.19,1,1,0,0,0,.31-1.11c-.17-.28-.52-.2-.62-.44s.43-.87.62-1a5.3,5.3,0,0,1,1.86-1.11c3.43-1.17,3.56-1.11,3.83-1.42.89-1,.68-2.84.06-4A4.56,4.56,0,0,0,83.57,155.64Z"/><path class="cls-23" d="M80.5,160.25a8.1,8.1,0,0,0-1.86,0,5.36,5.36,0,0,0-2.59,1.18,4.84,4.84,0,0,0-1.49,2.1c-.43,1.22-.47,2.94.43,3.84a1.24,1.24,0,0,0,.93.43c.43-.05.69-.5.87-.8a3.37,3.37,0,0,0,.37-1.49,5.44,5.44,0,0,1,.49-2.35c.64-.9,1.88-.27,4.09-1,1.51-.49,2.89-1.43,2.78-1.79S83.33,160.39,80.5,160.25Z"/><path class="cls-24" d="M79.43,158.68a7.56,7.56,0,0,0-1.86,0,5.37,5.37,0,0,0-2.6,1.17A4.91,4.91,0,0,0,73.49,162c-.44,1.22-.47,2.94.43,3.83a1.21,1.21,0,0,0,.93.44c.43-.06.69-.5.86-.81a3.11,3.11,0,0,0,.37-1.48,5.51,5.51,0,0,1,.5-2.35c.64-.91,1.88-.28,4.08-1,1.51-.5,2.9-1.43,2.79-1.8S82.26,158.81,79.43,158.68Z"/><path class="cls-25" d="M79.43,157.16a8.09,8.09,0,0,0-1.86,0,5.32,5.32,0,0,0-2.6,1.18,4.93,4.93,0,0,0-1.48,2.1c-.44,1.22-.47,2.94.43,3.84a1.2,1.2,0,0,0,.93.43c.43-.06.69-.5.86-.8a3.14,3.14,0,0,0,.37-1.49,5.51,5.51,0,0,1,.5-2.35c.64-.9,1.88-.27,4.08-1,1.51-.49,2.9-1.43,2.79-1.79S82.26,157.29,79.43,157.16Z"/><path class="cls-26" d="M114.79,243.13c.16.51.58.78,1.15,1.15a3.33,3.33,0,0,0,2.14.69c.15,0,1.6-.16,2-1.15.28-.72-.16-1.45-.69-2.29s-.94-1.54-1.76-1.61a2.13,2.13,0,0,0-1.45.61C116,240.63,114.42,241.91,114.79,243.13Z"/><path class="cls-27" d="M123.17,242.6a1.9,1.9,0,0,0-1.19.28c-.4.25-.52.54-1,1.23a6.93,6.93,0,0,1-1,1.41c-.46.32-.85.25-3,.14a14.28,14.28,0,0,0-2.42,0,5,5,0,0,0-2.52,1.37c-.63.66-.36.79-1.12,1.66a5.73,5.73,0,0,1-2.12,1.73,5.83,5.83,0,0,0-1.23.62c-.35.24-.61.34-.72.61a.9.9,0,0,0,0,.72c.25.52,1.13.6,1.66.54.89-.09,1.19-.59,2.2-1.15a10.63,10.63,0,0,1,2.48-.83c2.16-.62,3.23-1,3.93-1.08.5-.09.22,0,3.1-.36,2-.24,2.6-.33,3.32-.83a3.85,3.85,0,0,0,1.26-1.48,3.53,3.53,0,0,0,.22-2.45C125,244.54,124.47,242.76,123.17,242.6Z"/><path class="cls-28" d="M33.43,62.69c-2.56,2.47,1.2,6.36,1.48,17,.09,3.61-.25,6.78,1.48,10.85a9.32,9.32,0,0,0,3.08,4.32c2.81,2,7.34,2.15,9.5-.13.82-.87,1.37-2.18,1.35-4.93,0-6.58-3.25-8.62-6.16-16.9-2.24-6.36-1.87-9.49-4.69-10.85C37.68,61.21,34.94,61.23,33.43,62.69Z"/><path class="cls-29" d="M97.9,117.25a4.16,4.16,0,0,1,2,.07,3,3,0,0,1,1.72,1,2.88,2.88,0,0,1,.61,2,3.09,3.09,0,0,1-.34,1.18,6.05,6.05,0,0,1-1.39,1.86A8,8,0,0,1,98,124.85c-1.33.6-2.76,1.23-3.65.61a1.57,1.57,0,0,1-.61-.88,1.88,1.88,0,0,1,.31-1.38C95.9,120,96,117.76,97.9,117.25Z"/><path class="cls-30" d="M28.23,56.09c-.84.46-2.3,1.38-5.55,5.58-1.42,1.84-2.44,3.34-4.05,5.8a106.8,106.8,0,0,0-6.55,10.66c-1.71,3.54-2.56,5.36-2.66,8a14.42,14.42,0,0,0,1.69,7.27c1.8,3.24,4.47,4.77,6.79,6s11.5,6.4,16.72,2.43c1.81-1.39,2.39-3.32,3.15-5.82,1.24-4.13.71-7-.25-15-.92-7.7-1.38-11.55-1.45-13.33-.3-7.83.68-11.49-1.46-12.79S29.39,55.46,28.23,56.09Z"/><path class="cls-31" d="M59.49,36.22c-.15-1.32-2.63-2.08-4.28-2.59a13.56,13.56,0,0,0-7.65,0,10.86,10.86,0,0,0-4.73,2.48c-1.79,1.68-2.4,3.58-3.26,6.41-1.33,4.34-2.34,7.32-1.36,8,1.31.89,4.19-3.51,11.71-8.1C55.59,38.94,59.67,38,59.49,36.22Z"/><path class="cls-32" d="M62.29,41.84c.92.24,1.41,2,2.34,5.43,1.46,5.42,2.19,8.13,2.22,8.26,1.38,6.83,2.32,6.62,4.44,15,2.46,9.78.83,8.65,2.84,15.79.22.78.35,4.18.61,11a1.61,1.61,0,0,1-.37,1.24c-.89.85-3.1-.3-4.81-1-5.63-2.27-7.3-.12-14.3-2.59a16.49,16.49,0,0,1-4.2-1.85c-2.41-1.66-3.77-3.94-6.41-12s-4-12.27-3.21-15.54a64.56,64.56,0,0,1,3.09-7.16c2.69-5.85,3.56-6.8,4.19-7.4,2.45-2.31,3.62-1.33,7.15-3.82C59.92,44.42,60.76,41.45,62.29,41.84Z"/><path class="cls-33" d="M37.31,45.1c.1-1.38,7.66-4.94,7.66-4.94,6.06-2.86,6.82-3.23,8.55-3.72,3.09-.87,5.58-1.54,7.32-.22.91.69,1.32,1.72,2,3.49a10.07,10.07,0,0,1,1,4.39A8.65,8.65,0,0,1,61,49.72c-1.49,1.41-2.67,1.67-7.77,3.6-2.24.86-5.39,2.12-5.39,2.12a4.84,4.84,0,0,1-.37-.42A4.9,4.9,0,0,1,46.58,52c0-2.35-2.31-5-4.57-6.12a16.79,16.79,0,0,0-4.4-.56s-.19,0-.26,0A.15.15,0,0,1,37.31,45.1Z"/><path class="cls-34" d="M47.17,51.92c0-1.56-1.23-2.82-2.44-4.06a10.43,10.43,0,0,0-2.2-1.74c-.88-.51-2.72-1.57-4.41-1.28-2.74.48-5.13,4.55-4.3,8.13.58,2.5,2.76,4.91,5.34,5.11,1.62.12,2.86-.67,4.18-1.51S47.17,54.12,47.17,51.92Z"/><path class="cls-35" d="M31.37,180.17a12,12,0,0,0-2.9,6.88c-.07,1.84.46,2.54,0,4.19-.23.86-.63,1.6-3.43,4.62-3,3.19-4,4-4.2,5.7a3.86,3.86,0,0,0,.54,2.47c.73,1.05,1.84,1.17,3.33,1.72a16,16,0,0,1,4.95,3c1.88,1.78,1.52,2.78,3.76,4.84a13.93,13.93,0,0,0,2.47,1.83c2.44,1.32,4.59.5,12.68-1.51a35.34,35.34,0,0,0,10.2-3.76,4.76,4.76,0,0,0,2.58-2.79c.19-.82-.3-2.06-1.29-4.51-1.35-3.38-1.41-3.51-1.5-3.87a12.29,12.29,0,0,1,.21-5.7c.42-2.34,1.29-7.18-.21-11.06a13,13,0,0,0-8.49-7.42c-2.68-.75-4.79-.34-7.74.22C38.56,175.74,34.33,176.54,31.37,180.17Z"/><path class="cls-36" d="M37.2,164.08c2.69,5.26,1,9.72.37,18.68-.59,8.56.79,7,.12,13.73a138.93,138.93,0,0,1-5.19,25.72c-.4,1.24-1.83,5.6-.25,6.8.15.12.49.32,3.34.25,2,0,3.54-.2,4.08-.25,4.11-.39,4.24-.58,5.07-.37,1.67.42,1.84,1.36,3.84,2.85s6.36,3.78,8.53,2.35c1.06-.7,1.29-2,1.61-4.09a24.74,24.74,0,0,0-.37-8.16c-.17-1.19-.16-4-.13-9.64,0-8.12.43-8.08.37-13.24a119.22,119.22,0,0,0-1-13.6c-1.11-9.58-1.88-8.82-1.85-13,.06-8.77,3.46-11.85,1.11-15.46-2-3-6-3.49-7.91-3.71-6.29-.74-13.51,2.56-14,6.43C34.77,161,35.94,161.63,37.2,164.08Z"/><path class="cls-37" d="M22.17,131.64c-1.27,2.39,2.57,3.13,3,8.93.23,2.76-.46,4.75,1.7,7.35a13.11,13.11,0,0,0,3.39,2.78c.27.16,5.7,3.3,11.19,3.17,8-.18,13.25-7.17,14.92-11.31.8-2,4.43-11-5.09-15.09C41.53,123.25,24.56,127.16,22.17,131.64Z"/><path class="cls-38" d="M38.23,46.47c-.56.09-1.26.76-2.67,2.09s-2.19,2.07-2.67,3.25a6.75,6.75,0,0,0-.34,3.48c.13,1.13.52,2.36,2.32,5.11a43.33,43.33,0,0,0,3.36,4.52c3.26,3.7,5.16,5.49,7.2,7.67,5.84,6.22,10,10.68,11.61,14.5a5.88,5.88,0,0,0,2.09,2.79,6.9,6.9,0,0,0,3.83.93c1.84.08,3.71.16,4.64-1a3.68,3.68,0,0,0,.58-2.32,5.77,5.77,0,0,0-.69-2.67,30.11,30.11,0,0,0-3.95-5.57c-.29-.34-3-3.44-5.34-6.85-1.2-1.73-2-3-2.79-4.41-3.32-5.62-3.06-6.54-5.34-9.86-.28-.41,0-.07-5.45-6.27C41.11,47.77,39.77,46.2,38.23,46.47Z"/><path class="cls-39" d="M68.5,101.6a3.18,3.18,0,0,0,1.18,2.61,1.47,1.47,0,0,0,1.28.34,1.92,1.92,0,0,0,1.33-1.27,4,4,0,0,0-.15-3.31c-.27-.3-.94,0-2.28.64C68.73,101.14,68.57,101.31,68.5,101.6Z"/><path class="cls-40" d="M28.59,130.47c-.62,1.6.57,2.59.8,6,.1,1.6-.26,3.38-1,6.94a45.55,45.55,0,0,1-2.18,8.34c-1.26,3.16-2.06,3.72-2.58,6.35a19.8,19.8,0,0,0-.2,5.16,39.69,39.69,0,0,0,1.79,9.34c2.92,9.58,4.39,14.38,6.75,14.88,2.19.48,4.44-1.41,6.55-3.17,4.47-3.75,4.26-7,6.35-7.35,4.55-.78,9.3,14,13.1,13.1,1-.22,1.11-1.36,3-5.36,2.39-5.12,3.08-5.07,5.76-10.32A87.78,87.78,0,0,0,71.47,163a61.68,61.68,0,0,0,3.38-12.31,46.12,46.12,0,0,0,0-14.1c-.91-5.29-1.49-8.66-4.17-11.31-3.49-3.45-8.48-3.22-15.29-3-7.38.26-5.5,1.92-19.85,4.76C32.78,127.64,29.46,128.23,28.59,130.47Z"/><path class="cls-41" d="M40.11,130.27c-1.58,2.67.51,4.62-.8,10.52a24.4,24.4,0,0,1-2.78,7c-3.21,5.72-6.61,7.15-7.34,11.71-.35,2.18.2,3.24.59,3.77a4.82,4.82,0,0,0,2.78,1.59A20.11,20.11,0,0,0,38.91,166c2.15.05,8.22.19,13.11,3.18a86,86,0,0,1,7.54,5c.8.65,1.81,1.52,2.58,1.19,1-.4.83-2.34,1-4.36.19-2.33.58-2.53,2.19-8.14,0,0,1.67-5.83,3-11.91,2.1-9.76,4.11-19.09-.39-23.23-2.45-2.25-6.46-2-14.49-1.39C46.68,126.78,42,127.12,40.11,130.27Z"/><path class="cls-42" d="M87.77,165.2c-1.51,1.75-.13,4.22,1.13,10.93a79.36,79.36,0,0,1,1.28,9.93c.31,5-.18,5.74.56,8.65.62,2.4,1.08,2.39,3,7.23,1.39,3.53,1,3.22,2.56,7.24,2.25,5.9,2.64,5.52,3.69,9.08.67,2.3.68,3.05,1.56,4.11,1.67,2,4.25,2.51,6.1,2.84a10.89,10.89,0,0,0,6.8-.43,9.78,9.78,0,0,0,4.26-3.68,10.29,10.29,0,0,0,1.28-3.27,19.27,19.27,0,0,0,.28-3.83s.06-1.57.43-4.54a56,56,0,0,1,1.7-7.94c1-3.79,1.17-3.89,1.7-6.38.74-3.45,1.1-5.21.57-6.81a8.63,8.63,0,0,0-4.26-4.69c-2.24-1-3.06,0-7.23-.56a21,21,0,0,1-6.53-1.85,19,19,0,0,1-5.81-4.68c-6-6.62-5.75-12.06-9.37-12.62A4.22,4.22,0,0,0,87.77,165.2Z"/><path class="cls-43" d="M123.37,197.56c.58,0,1-1.1,2.87-8a49.2,49.2,0,0,0,1.44-6c.29-2.47.64-5.45-.46-8.32a34.2,34.2,0,0,1-1.21-3.38c-.08-.29-.35-1.23-.64-2.59-.44-2.06-.37-2.5-.74-4.61-.47-2.68-.68-2.53-.92-4.44-.29-2.26,0-2.31-.28-4.06s-.71-1.94-1.48-4.62c-.72-2.49-.43-2.55-1.11-4.7a11.56,11.56,0,0,0-2.17-4.58,8.57,8.57,0,0,0-3.09-2.29,9.59,9.59,0,0,0-6.11-.22c-1.36.31-1.68.6-5.8,2.62-4.57,2.24-4.6,2.1-5.27,2.64-1.59,1.28-2.31,3.54-3.77,7.89-1.31,3.88-2,5.82-2,8.3a20.46,20.46,0,0,0,1,7c.79,2.67,3.31,11.09,10.19,14.31,2.27,1.07,2.84.55,9.38,2.87,3.47,1.22,4.57,1.82,5.5,3s.85,1.67,2.75,5.84C122.79,197.26,123.07,197.57,123.37,197.56Z"/><path class="cls-44" d="M120.47,156.46a7.3,7.3,0,0,1,.25,3.58,5.87,5.87,0,0,1-.56,1.86,4.41,4.41,0,0,1-1.79,2,4.29,4.29,0,0,1-2.79.37,7.46,7.46,0,0,1-4.27-2.54c-1.5-1.54-3.13-3.21-2.84-5.13.39-2.65,4.27-4.78,7.54-4A6.36,6.36,0,0,1,120.47,156.46Z"/><path class="cls-45" d="M111.07,158.19c2.22-.3,3.36-.44,4.7.06a4.69,4.69,0,0,1,2.91,2.6,3.16,3.16,0,0,1,.12,1.67c-.37,1.62-2.17,2.42-3.16,2.85-1.85.79-3.41.85-6.06.86-5.31,0-8,.05-9.34-.31-2.75-.71-3-1.44-6.19-2.35a16.34,16.34,0,0,1-2.78-1.3c-1-.53-1.44-.87-1.49-1.36a1.62,1.62,0,0,1,.62-1.18,2.55,2.55,0,0,1,1.42-.61,8.55,8.55,0,0,1,3,.06,27.13,27.13,0,0,0,7.06.37,34.52,34.52,0,0,0,4.27-.37C108.46,158.82,108.87,158.49,111.07,158.19Z"/><path class="cls-46" d="M94.27,159.9c.1-.44-.52-1.15-1.75-2.56a14.24,14.24,0,0,0-2.19-2.2,8.07,8.07,0,0,0-2-1.1,11.28,11.28,0,0,0-2.44-.49,5.29,5.29,0,0,0-1.83.09.9.9,0,0,0-.61.36.66.66,0,0,0,0,.69c.17.21.44.16.86.21a7.35,7.35,0,0,1,1.34.44c.59.22.45.2,1.46.61.68.28.78.3.94.45a2.26,2.26,0,0,1,.57,1.14c.3,1,.27,1.28.41,1.67a3.11,3.11,0,0,0,2.31,1.95C92.59,161.37,94.08,160.77,94.27,159.9Z"/><path class="cls-47" d="M89.88,158.07c-1.08-.54-1.92-.88-2.48-1.1-1.15-.46-.73-.23-2.28-.81a11.07,11.07,0,0,0-1.75-.45c-.47-.08-.8-.12-1,.08a1.1,1.1,0,0,0-.25.69,2,2,0,0,0,0,.82c.09.34.19.36.16.53s-.42.49-.65.6-.45.11-.65.25a1.19,1.19,0,0,0-.36,1.18c.08.35.37.58.93,1l1.59,1.22a7.56,7.56,0,0,0,3.17,1.09,10,10,0,0,0,2.81-.28c1.74-.31,2.62-.48,3-1.1a2.2,2.2,0,0,0,.2-2C92.32,159.61,92.09,159.17,89.88,158.07Z"/><path class="cls-48" d="M100.79,150.86c-.07,1.9-.11,2.33.23,2.92.56,1,1.5,1.21,1.61,2.22.06.62-.25.92,0,1.38s.74.36,1.3.77c1.09.78.54,2.18,1.46,2.68.3.17.42,0,2.07-.08,1-.07,1,0,1.76-.07,1.77-.13,2.17-.41,4.52-.69a10.5,10.5,0,0,0,1.39-.16c1.59-.44,1.83-1.5,3.37-1.84a7,7,0,0,1,1.53-.07c1.61,0,2.27.27,2.53-.08s.08-.49-.3-1.53c-.49-1.32-.88-2.27-1.08-2.76-.61-1.55-.43-1.5-.92-2.61a23.73,23.73,0,0,0-1.3-2.38,16.72,16.72,0,0,0-1.61-2.53c-.68-.69-1.29-.87-3.07-1.53-4.56-1.69-4.31-1.86-5.29-1.92a10.13,10.13,0,0,0-4.6,1c-1.7.69-2.55,1-3.14,1.91C100.85,146.08,101,146.33,100.79,150.86Z"/><path class="cls-49" d="M72,117.7h2.44s2.55,6.46.39,9.7H72.26Z"/><path class="cls-50" d="M53.74,131.89s-7.42,1.15-33,1.4H7.43s-6.67-.45-7.2-6.24,0-23.77,0-23.77l.3-6.39A5.92,5.92,0,0,1,6.35,91.7H38.9S37,110,53.74,131.89Z"/><path class="cls-51" d="M69.18,97.35a1.21,1.21,0,0,1,.34-1.53c.69-.46,1.88.31,2.6.77A5.07,5.07,0,0,1,74,98.42a5.62,5.62,0,0,1,.56,3.24,5.48,5.48,0,0,1-.6,2.81,3,3,0,0,1-.89,1,3.49,3.49,0,0,1-2.43.38,58.48,58.48,0,0,0-7.64-.34c-2.36,0-3.81.4-5-.6-.32-.27-.86-.84-.73-1.06s.54,0,1.41.08c.59.09,1.19.11,1.79.17,2.45.28,4.36-.12,7.8.17,2.09.18,2.84.46,3.54-.12a3.46,3.46,0,0,0,.89-2.56A4,4,0,0,0,72,98.89a3.32,3.32,0,0,0-1.49-1.15C69.8,97.51,69.41,97.66,69.18,97.35Z"/><path class="cls-52" d="M70.43,117.42h2.44s2.55,6.87.39,10.31H70.71Z"/><path class="cls-53" d="M69.21,94.66l2.22.22a6.5,6.5,0,0,1,5.63,5.73c.62,5.21-.84,7.81-.84,7.81s-4.34,5.07-4.39,7.22,2,9.64-.33,12.53S54,131.89,54,131.89c-7,.67-17.67.86-17.67.86l-13.55-41H39.2l20.57,2,0,2.45L57.06,96s-1-.18-.56,1.21,1.39,6.48,1.39,6.48.28.84.84,1,8.61.56,8.61.56l3.62.27s2.13,0,2.31-1.11.93-3.42-.18-5.74a4,4,0,0,0-3.89-2Z"/><path class="cls-54" d="M58.21,87c-.33.57-.29.89-.29,3.95s0,3.23,0,5.56c0,1.44,0,2.26.11,3.25.1,1.41-.19,2.07.24,2.43s.86,0,2.31.06a17.62,17.62,0,0,1,2.32.35c2.29.42,2.09.55,2.84.58a17.54,17.54,0,0,0,3.25-.58,7.67,7.67,0,0,0,2.32-.69A3.69,3.69,0,0,0,73,100.32c.18-.4.28-.9-.17-3.13a20.3,20.3,0,0,0-.76-3.07,18.47,18.47,0,0,0-2.26-4.18c-1.43-2.23-2.15-3.34-3-3.94a6.73,6.73,0,0,0-4.41-1.22C61.78,84.84,59.27,85.18,58.21,87Z"/></g><g id="_LAYER-18_P8_" data-name="&lt;LAYER-18_P8&gt;"><path class="cls-55" d="M514.94,100.16c0-.63,7.49-2.71,9.44-4.21a16.1,16.1,0,0,0,2.82-3.08,17.61,17.61,0,0,0,2.46-3.7,14.32,14.32,0,0,0,1.15-3.61,17.4,17.4,0,0,0,0-5.2c-.4-3.53-1.23-5.24-.44-5.81.25-.19.38,0,2.29,0,1.29,0,1.41-.06,2.2,0a5.43,5.43,0,0,1,2.38.44c.51.32.75.77,1.76,4.05.61,2,.67,2.29,1,2.82.71,1,1.06.69,2.29,1.85.56.52.44.53,2.56,3.88a1.79,1.79,0,0,1,.35,1.23,1.55,1.55,0,0,1-.53.88,2.14,2.14,0,0,1-1,.48c-1.44.34-3.1,3.63-3.7,4.8a11.32,11.32,0,0,0-1.58,4.32c-.08,1,.06,1.4-.27,1.67-.87.76-2.78-1.71-6-2.2s-4.16,1.5-8,.88C522.75,99.42,515,100.83,514.94,100.16Z"/><path class="cls-56" d="M560.83,66.55a6.3,6.3,0,0,1,.14,2,15.63,15.63,0,0,1-1.49,6.15,14.39,14.39,0,0,0-.93,2.14,7.2,7.2,0,0,0-.47,1.77,6,6,0,0,0,1.4,4.23,1.19,1.19,0,0,1,.37.56,1.11,1.11,0,0,1-.19,1,1.43,1.43,0,0,1-.88.46,2.79,2.79,0,0,1-.7.09s-.06,0-.56,0h0a2.15,2.15,0,0,0-.14,1.17s.12.25.33.65.26.48.23.6,0,.13-.56.47l-.51.32a1.91,1.91,0,0,0-.46.38,1.1,1.1,0,0,0-.1.69c0,.61.2.72.1.93a.92.92,0,0,1-.84.33c-.49,0-.62-.39-.93-.33s-.36.37-.7,1a10,10,0,0,1-1,1.4,3.33,3.33,0,0,1-1.25,1.11,2.88,2.88,0,0,1-2,0,11.74,11.74,0,0,1-2.56-1.44c-1-.63-.95-.49-1.49-.84a11.44,11.44,0,0,1-2.79-2.61,21.31,21.31,0,0,1-1.63-2.84c-1-1.76-1.44-2.64-1.58-2.88-1.51-2.59-2.13-3.11-2.61-4.79a11.45,11.45,0,0,1-.33-1.63,13.73,13.73,0,0,1,.34-6,10.83,10.83,0,0,1,4.23-5.22,16.78,16.78,0,0,1,12.51-2.91C555.12,62.72,559.85,63.58,560.83,66.55Z"/><path class="cls-57" d="M540.94,74.89a3.27,3.27,0,0,0-1.37-1.69,3.67,3.67,0,0,0-2.28-.59,2.79,2.79,0,0,0-1.92.78c-.49.55-.48,1.31-.45,2.82a11.65,11.65,0,0,0,.45,3.29,6.05,6.05,0,0,0,1,2.23,3.19,3.19,0,0,0,2.23,1.46,1.89,1.89,0,0,0,1.46-.5c.36-.39.35-.87.37-1.78a32.61,32.61,0,0,1,.13-3.28C540.78,76,541.19,75.73,540.94,74.89Z"/><path class="cls-58" d="M510.78,201.72c-.66.77-.57,2.67-.62,10.13,0,1.38,0,4.46-.08,6.75-.17,8.42-.72,9-.46,11.74a18.79,18.79,0,0,0,5.18,11.15c4,4.55,8.05,4,10.05,3.67,1.77-.29,5.66-1,9.36-6.31,3.36-4.82,7.43-14.68,5.95-22.75,0-.28-1-5.1-3.25-6.6-2-1.36-3.1,1.39-6.11,2.35-3.78,1.21-7.26-1.5-11.36-4.7-1.86-1.44-3.81-2.45-5.65-4C512.12,201.82,511.37,201,510.78,201.72Z"/><path class="cls-59" d="M514.24,213.07a66.52,66.52,0,0,1-7.87,4.06c-3.28,1.31-3,.74-7.62,2.33-4.31,1.5-6.52,2.29-8.73,4.18-1.9,1.63-2.85,2.45-3.69,3.93-.7,1.27-1,2.39-1.72,2.46s-1.19-.67-2.09-1.84a10.57,10.57,0,0,1-1.47-2.58,6.25,6.25,0,0,1-.62-3,5.48,5.48,0,0,1,.5-1.85,6.13,6.13,0,0,1,1.22-1.72,18.54,18.54,0,0,1,3.32-2.7,51.07,51.07,0,0,1,5-2.71c4.57-2.13,6.85-3.2,7.26-3.44a33.26,33.26,0,0,0,6.27-4.92c3.69-3.58,3.43-4.75,5.53-5.65,2.72-1.17,7.26-1,9.46,2.21a7.28,7.28,0,0,1,.12,7.75C518.75,210.27,518.25,210.81,514.24,213.07Z"/><path class="cls-60" d="M512,229.66c-1.54,1.17-.3,4,0,10.08a38.19,38.19,0,0,1-.25,8.24c-.9,5.79-1,6.27-1,6.27-.37,2-.67,3.33,0,4.79a4.3,4.3,0,0,0,2.09,2.21,4.45,4.45,0,0,0,3.68-.12,5,5,0,0,0,2.22-2c.25-.43.5-1,.73-3.32.22-2.11.09-2.46.25-3.94a26.62,26.62,0,0,1,.86-4.18c.75-2.9,1.06-3.14,1.47-4.91a21.73,21.73,0,0,0,.5-5.66c-.06-4.38-.08-6.72-1.6-7.74-.57-.39-2.4-.31-6-.13C512.43,229.42,512.23,229.51,512,229.66Z"/><path class="cls-61" d="M487.44,217c-1.64-.93-3,.34-6.88,1.11a31.48,31.48,0,0,1-8,.86c-1-.05-2.48-.18-3.32.74a3.7,3.7,0,0,0-.74,2.21,8.42,8.42,0,0,0,.25,3,29.52,29.52,0,0,0,1.35,5,27.7,27.7,0,0,0,1.84,3.93,52.39,52.39,0,0,0,3.44,4.92c1.86,2.62,3.23,4.85,3.57,5.41,1.05,1.73,2.26,3.37,3.19,5.16.77,1.46,1.36,2.83,2.46,2.95a1.67,1.67,0,0,0,1.36-.49c.48-.53.39-1.31.24-2.46a19.22,19.22,0,0,0-.49-2.21,24.5,24.5,0,0,1-.37-3c-.26-2.09-.6-2.45-.86-4.06s-.05-1.94,0-4.79c.08-5-.55-5.34,0-7.75a11.56,11.56,0,0,1,1.72-4.3c1.39-2,2.87-2.55,2.83-3.93A3.06,3.06,0,0,0,487.44,217Z"/><path class="cls-62" d="M511.85,254.37c-1.1.61-.82,1.77-2.14,5a35,35,0,0,1-1.68,3.41c-1.22,2.23-1.91,3-1.94,4.49a3.73,3.73,0,0,0,.54,2.14,3.9,3.9,0,0,0,2,1.46c1.6.61,2.68.32,5,.28.18,0,1.53.08,4.22.24,5.19.32,5.07.39,6.14.35,2-.08,1.53-.3,5.5-.72,2.81-.3,4.21-.45,5.16-.47a16.35,16.35,0,0,0,3.81-.4,5,5,0,0,0,2.35-1.21c.25-.23.9-.86.73-1.34-.1-.29-.49-.42-1.07-.6a10.81,10.81,0,0,0-1.4-.27c-.9-.21-1-.81-1.94-1.54a10.81,10.81,0,0,0-3.22-1.2c-1.1-.32-1.12-.26-2.28-.6-.78-.24-1-.33-2.41-.81-1.59-.53-2.38-.8-2.88-.94a18.24,18.24,0,0,1-3.14-.8,7.69,7.69,0,0,1-2-1.41c-1.8-1.58-1.59-2.32-3.08-3.48a7.91,7.91,0,0,0-3-1.4C513.8,254.16,512.74,253.88,511.85,254.37Z"/><path class="cls-63" d="M524,66.22c-1.54,2.29-.3,4-2,6-.6.71-.61.29-2.91,2a20.2,20.2,0,0,0-3.27,2.84,8.5,8.5,0,0,0-2.08,3.13,6.18,6.18,0,0,0-.21,3.33,6,6,0,0,0,3,4c.91.43,1.81.4,3.61.35,2.27-.06,3.4-.1,4.1-.83.94-1,0-2,1-3.82a4.72,4.72,0,0,1,3.4-2.64,6.64,6.64,0,0,0,1.18,0c.89-.19,1.31-.77,2.29-1.67s1.26-.91,1.81-1.46a7,7,0,0,0,1.81-6.25c-.31-1.34-1-2.12-2.23-3.54-1.77-2-3.52-4.06-5.76-3.89S524.15,65.94,524,66.22Z"/><path class="cls-64" d="M524,70.15a24.36,24.36,0,0,0-3.54-.07c-2.25,0-2.94.07-3.75.49a3.29,3.29,0,0,0-1.67,1.53c-.41,1,.08,1.67-.41,2.15-.33.32-.7.16-1.88.21a6.88,6.88,0,0,0-2.91.55A4.29,4.29,0,0,0,508,77a4.83,4.83,0,0,0-.21,3.89c.57,1.21,1.63,1.57,1.46,2.15s-.8.29-1.46.83c-1.21,1-.92,3.2-.83,3.82a4.53,4.53,0,0,0,1.11,2.71A6,6,0,0,0,510,91.54c1.18.57,1.28.36,1.88.77,1,.67.79,1.3,1.81,2.08a4.58,4.58,0,0,0,1.94.83,8,8,0,0,0,3-.07c.37,0,.94-.14,2.08-.34l1.53-.28a9.66,9.66,0,0,0,2.85-.9,4.21,4.21,0,0,0,2.08-2c.48-1.27-.39-2,.21-3,.47-.8,1.18-.59,1.66-1.39.38-.64.18-1.17,0-2.64a28.39,28.39,0,0,1-.13-4.59c.11-1.74.38-2,.13-2.91s-.72-1.31-1.59-2.37C525,71.83,525.45,70.78,524,70.15Z"/><path class="cls-65" d="M513.23,258.46a3.28,3.28,0,0,0-1.66,3.72,3.77,3.77,0,0,0,2.45,2.46c1.84.62,4.28-.13,4.78-1.6.61-1.75-1.72-4-3.78-4.58A2.77,2.77,0,0,0,513.23,258.46Z"/><path class="cls-66" d="M527.54,75.05c1.12.64,3,1.33,16.55-2.35,8.68-2.36,9-2.93,12-3.7,1.53-.39,2.89-1.4,4.46-1.65a1.05,1.05,0,0,0,.76-.4,1.23,1.23,0,0,0-.08-1,10.28,10.28,0,0,0-1.33-2.66,26.2,26.2,0,0,0-6.18-5.68,26.36,26.36,0,0,0-8.49-3c-4-.88-6.09-1.36-9-.85a16.34,16.34,0,0,0-8.1,4,14.7,14.7,0,0,0-4.38,6.79,8.47,8.47,0,0,0,3.82,10.57Z"/><path class="cls-67" d="M518.38,92.46c3.32,2.16,8.93-1.33,9.16-1.48a12.24,12.24,0,0,0,5-6.65c.24-.74,2-6.61-1.47-10.41a7.14,7.14,0,0,0-4.66-2.44c-2.94-.2-5.12,1.9-6,2.73C515.32,79.15,514.2,89.74,518.38,92.46Z"/><path class="cls-68" d="M548.53,118.91a1.21,1.21,0,0,0,.16-.16,1.73,1.73,0,0,0,.5-1.24.91.91,0,0,0-.34-.7.85.85,0,0,0-.79.06,1.27,1.27,0,0,0-.44.55c-.54,1-1.14,1.22-1,1.47,0,.1.35.12.95.16A1.39,1.39,0,0,0,548.53,118.91Z"/><path class="cls-69" d="M544.92,108c4.12,5.35,4.69,9.22,4.39,11.82-.28,2.37-1.55,5.88-1.13,9.23a7.81,7.81,0,0,1-.07,2.75c-.32,1.46-.9,1.87-1.41,3.18a9.34,9.34,0,0,0-.43,4.51,13.76,13.76,0,0,0,1.59,5.07c1,2,1.57,2.28,2.69,4.17a21.76,21.76,0,0,1,2.28,5.57"/><path class="cls-70" d="M538.64,124c.4-1,1.27-1.8,3-3.33,2.16-1.89,3.12-2.16,3.65-2.26a14.33,14.33,0,0,1,2.07,0c2.71,0,3.83-.33,4.49.4a1.91,1.91,0,0,1,.41.77c.12.41.06.64-.12,1.82s-.18,1.33-.41,1.67a1.15,1.15,0,0,1-.85.6.86.86,0,0,1-.77-.44.83.83,0,0,1,0-.81c.2-.31.53-.19.77-.49s.22-.9,0-1-.38.19-.85.32-.84-.21-1.13,0-.28.61-.33.93c-.12.82-.69,1.24-1.7,2.19-1.79,1.69-1.33,1.63-2.8,2.92s-2.16,1.88-3.08,1.86a3.06,3.06,0,0,1-2.19-1.17C537.69,126.44,538.46,124.44,538.64,124Z"/><path class="cls-71" d="M548.33,120.16a1.58,1.58,0,0,0-1.09.62c-.12.14-.58.68-.42,1.13.1.26.43.43,1.09.77.35.18.61.28.59.4s-.13.09-.42.22a1.67,1.67,0,0,0-.64.37.8.8,0,0,0,.14.93,1.06,1.06,0,0,0,.9.16c.46-.06.51-.22,1.11-.42s1-.13,1.34-.45a1,1,0,0,0,.4-.66c0-.27-.13-.47-.42-.82a11.74,11.74,0,0,0-1.08-1.21C549.08,120.5,548.7,120.16,548.33,120.16Z"/><path class="cls-72" d="M547.45,122.19a1.5,1.5,0,0,0-1.08.62c-.12.14-.59.68-.42,1.12.09.26.42.43,1.08.78.35.18.61.28.6.39s-.13.1-.42.23a1.65,1.65,0,0,0-.65.37.8.8,0,0,0,.14.93,1,1,0,0,0,.9.15c.47-.06.51-.21,1.11-.42s1-.13,1.35-.44a1,1,0,0,0,.39-.66c0-.27-.13-.47-.42-.82a10.75,10.75,0,0,0-1.08-1.21C548.2,122.53,547.82,122.18,547.45,122.19Z"/><path class="cls-73" d="M546.07,123.43a1.62,1.62,0,0,0-1.09.62c-.12.14-.58.68-.42,1.13.1.26.43.43,1.09.77.35.19.61.29.59.4s-.13.1-.42.22-.55.24-.64.38a.79.79,0,0,0,.14.93,1.06,1.06,0,0,0,.9.15c.46-.06.51-.21,1.11-.42s1-.13,1.34-.44a1,1,0,0,0,.4-.66c0-.27-.13-.48-.42-.82a12.08,12.08,0,0,0-1.08-1.22C546.82,123.78,546.44,123.43,546.07,123.43Z"/><path class="cls-74" d="M525.75,77.4c-1,.16-1.68,1.15-3,3.12a8.55,8.55,0,0,0-1.32,2.3,4.52,4.52,0,0,0,0,3.81,3.65,3.65,0,0,0,2.08,1.6c1.11.34,2,0,3.47-.48s2.26-.79,2.85-1.46c1.53-1.75.81-4.4.7-4.79A5.92,5.92,0,0,0,529,78.86C528.49,78.41,527.19,77.16,525.75,77.4Z"/><path class="cls-75" d="M522,159.5c-.21,1.56-.19,3.06.55,7.71,1,6.13,1.37,6.18,2.46,12.21.85,4.66.89,6.12,2,7.56s3,2.55,4.35,1.6c2.3-1.59,1.92-8.46,1.57-14.78-.31-5.69-.64-10.73-3.13-15.42-.64-1.21-3.11-5.85-5.25-5C522.69,154.15,522.1,158.63,522,159.5Z"/><path class="cls-76" d="M510.21,102.22c-1.47,1-1.8,3.16-2.46,7.48-.49,3.29-.36,5.35-.38,9.81,0,5.77,0,8.66-.26,9.55-1,4.16-3.19,4.55-11.61,14.32-4.4,5.09-5.51,7-6.33,9.16-1.09,3-1.17,5.23-1.29,9.42a58.15,58.15,0,0,0,2,19.16,59.31,59.31,0,0,0,4.77,11.4c1.94,3.67,5,8.69,5.81,10,3.26,5.3,3.46,5.22,3.73,6.42,1,4.32-1.46,6.2-.21,11.41a20.26,20.26,0,0,0,1.66,4.36,24.37,24.37,0,0,0,3.32,4.77c3.16,3.76,4.74,5.65,6.22,6.63a15.31,15.31,0,0,0,10.58,2.7,14.07,14.07,0,0,0,4.35-1.45c5.36-2.81,7.49-8.23,8.3-10.37,1.39-3.7,1.75-7.47,1.24-13.28-.34-3.86-1.65-15.17-8.5-31.93-2.33-5.71-3.77-8.29-3.53-12.65.34-6,3.59-11,5.19-13.48,2.91-4.52,3.79-3.81,7-8.92a34.14,34.14,0,0,0,5-11.4c.61-2.95,1.11-5.37.2-8.3a14.87,14.87,0,0,0-5.8-7.47c-3.1-2.25-4.23-1.52-7.26-3.52-3.81-2.52-3.51-4.64-6.85-8.09C520.87,103.48,513.53,100,510.21,102.22Z"/><path class="cls-77" d="M492,150.51c-1.52,1.51-1.12,4-.7,6.35,1.37,7.66,2.06,11.49,3.12,14.2,1.26,3.23,2.74,5.88,5.71,11.19,4.11,7.35,4.76,7.61,6.75,11.69a51.85,51.85,0,0,1,4.85,13.53c.3,1.52,2.18,11.15.52,17.87a12.45,12.45,0,0,0-.41,4,10.94,10.94,0,0,0,2,6c2.33,3.08,6,3.79,7.61,4.1a16.18,16.18,0,0,0,11-1.82c5.92-3.52,7.12-10.13,7.73-13.48.39-2.18.72-5.57-.74-12.66a90,90,0,0,0-8.21-22.59c-2.68-5.27-5.87-9.94-12.26-19.28a55.05,55.05,0,0,0-8.09-9.93c-3.84-3.64-3.52-2.13-8.95-6.86-2.1-1.84-3.81-3.51-6.37-3.55A5,5,0,0,0,492,150.51Z"/><path class="cls-78" d="M504.88,130.12c1.86.27,1.92,2,5.26,6.25,2.44,3.11,5.63,7.15,10.62,9.95,2.45,1.38,5.18,2.37,7.37,5.37.32.43,1.7,2.31,1.12,3.13-.09.13-.39.44-3.46.22-1.26-.09-2.13-.21-3.1-.32-2-.23-3.25-.3-3.83-.35-4.07-.35-7.14-2.58-12.08-3.47-1.89-.33-.89.09-12.18-.33-2.7-.1-5.36-.23-6.26-1.9a3.64,3.64,0,0,1,0-2.91c1-3.43,3.74-5.1,6.71-7.49C501.88,132.79,502.4,129.74,504.88,130.12Z"/><path class="cls-79" d="M526.85,123.21c-1.23,1.34-.19,2.85,0,8.85v10.5a12.29,12.29,0,0,0,0,3.54,6.13,6.13,0,0,0,1.77,3.31,5.72,5.72,0,0,0,5.43,1.29,4.68,4.68,0,0,0,2.83-2.12c.52-1,.4-1.83.24-3.78-.15-1.73-.22-3.46-.36-5.19a51.18,51.18,0,0,1,.24-7.08c.47-7,1-8,0-9.09-1.51-1.74-4.62-1.52-6.14-1.41C529.07,122.15,527.73,122.24,526.85,123.21Z"/><path class="cls-80" d="M528.27,144.82c-1.2.54-1.52,2.27-1.65,3a8.85,8.85,0,0,0,.33,4c.69,2.89,1,4.33,1.41,5.38a81,81,0,0,1,2.65,10.1c1.15,5.46,1.73,8.19,1.65,10.1a14.06,14.06,0,0,0,.66,4.39c.66,2.07,1.35,2.49,1.66,2.65A3.16,3.16,0,0,0,538,184a4.53,4.53,0,0,0,1.58-3.06,11.71,11.71,0,0,0-.17-4.72c-.45-2.42-.43-4.91-.66-7.36-.18-1.86-.51-5.33-.58-9.44-.07-3.75.12-6-.58-9.69-.52-2.71-1.08-4-2.15-4.47s-1.78.27-4.31-.08C529.49,144.92,529.05,144.47,528.27,144.82Z"/><path class="cls-81" d="M534.3,180.8c-.69,1.06-.42,1.9-.41,4.15a30.78,30.78,0,0,1-.34,4.47,24.61,24.61,0,0,1-.81,3.63c-.48,1.56-.72,1.74-1.09,3.25a17.47,17.47,0,0,0-.48,2.91c-.06.94.05.68,0,2.08a5.44,5.44,0,0,0,.21,2.4c.1.25.33.83.68.84s.51-.35.61-.58.05-.66,0-1.24a7.88,7.88,0,0,1,0-1.29,10.17,10.17,0,0,1,.34-2.14c.11-.47.23-.83.47-1.56.52-1.55.59-1.42.75-2.14a2.59,2.59,0,0,1,.34-1,2.17,2.17,0,0,1,1.09-.71,3.36,3.36,0,0,1,2,0c1,.34.84.87,2,1.43a4.55,4.55,0,0,0,2.24.45,2.11,2.11,0,0,0,1.49-.45c.43-.46.21-1.07.14-2.27,0-.49,0-.11.2-3.11a19.82,19.82,0,0,0,.07-3.18,4.46,4.46,0,0,0-.68-2.46c-.6-.81-1.08-.61-2-1.43-1.45-1.23-1-2.2-2.24-3a3.53,3.53,0,0,0-3-.33A3.2,3.2,0,0,0,534.3,180.8Z"/><path class="cls-82" d="M534.67,191.55c.26,1.3-.26,1.26-.3,3.52,0,.37.08,1.23.24,3a22.48,22.48,0,0,0,.61,4,7.49,7.49,0,0,0,1.21,2.28c.3.42.62.79,1.08.81a1.26,1.26,0,0,0,.79-.28.87.87,0,0,0,.3-.67,1.83,1.83,0,0,0-.6-1.14,3.9,3.9,0,0,1-.55-2.14,18.37,18.37,0,0,1,.06-3.81,15.32,15.32,0,0,0,.18-4.86,2.11,2.11,0,0,0-1-1.71,2,2,0,0,0-1.88,0C534.49,190.81,534.61,191.22,534.67,191.55Z"/><path class="cls-83" d="M538.38,192.69c-.33.14-.46.49-.55,3.29,0,1.18-.05,2.2,0,3.47a7.64,7.64,0,0,0,.38,2.71l.94,1.62c.32.56.49.86.82.91a.91.91,0,0,0,.77-.34c.11-.14.23-.38,0-1.09a7.32,7.32,0,0,0-.6-1.43,4.68,4.68,0,0,1-.33-1.76,10.57,10.57,0,0,1,.33-2.95c.47-2.54.62-2.94.27-3.48A2.1,2.1,0,0,0,538.38,192.69Z"/><path class="cls-84" d="M541.14,193.26c0,.45-.17,1.6-.24,3.81a15.07,15.07,0,0,0,.06,2.71,13.06,13.06,0,0,0,.48,2.05c.54,1.87.82,2.81,1.48,2.9a1.26,1.26,0,0,0,1-.42c.19-.21.37-.58,0-1.77a11,11,0,0,0-.77-1.76,7.37,7.37,0,0,1-.65-2.61c0-1.3.48-1.44.77-3.67a4.4,4.4,0,0,0,0-1.76c-.25-1.05-1-2.17-1.48-2.1C541.7,190.66,541.43,190.75,541.14,193.26Z"/><path class="cls-85" d="M467.6,113.64a34.61,34.61,0,0,1,3.09-8.16A22.8,22.8,0,0,1,475.47,99a21.44,21.44,0,0,1,8.44-4.64A22.33,22.33,0,0,1,494,93.94c2.14.41,6.56,1.23,10,4.79a14,14,0,0,1,2.82,4.22,13.55,13.55,0,0,1,1,4.78c.28,6,1.47,6.55,1.83,12.8s.64,10-1.12,14.34a23,23,0,0,1-15.89,13.19,16.74,16.74,0,0,1-8.65,0c-1.35-.38-4-1.35-8.65-6.06-5.73-5.77-8.93-9-9.89-14.23C464.79,124.15,465.72,120.64,467.6,113.64Z"/><circle class="cls-86" cx="486.2" cy="128.08" r="21.55" transform="translate(249.84 571.84) rotate(-76.72)"/><circle class="cls-87" cx="486.2" cy="128.08" r="15.65" transform="translate(249.84 571.84) rotate(-76.72)"/><circle class="cls-88" cx="486.2" cy="128.08" r="12.09" transform="translate(249.84 571.84) rotate(-76.72)"/><circle class="cls-89" cx="486.2" cy="128.07" r="10.64" transform="translate(-11.95 59.99) rotate(-6.97)"/><path class="cls-90" d="M481.67,127.05c-.12-.55.43-1.43.72-2.23a4.4,4.4,0,0,1,.74-1.46c1.24-1.56,4.11-1,4.43-.88s2.78.61,3.43,2.4a3.56,3.56,0,0,1,.16.69,6.91,6.91,0,0,1-.33,3.54c-.17.47-.26.7-.44.84-.63.5-1.68,0-3.22-.61C483.29,127.78,481.89,128,481.67,127.05Z"/><path class="cls-91" d="M491,128.07a4.83,4.83,0,1,1-4.83-4.82A4.83,4.83,0,0,1,491,128.07Z"/><path class="cls-92" d="M487,128.07a.84.84,0,1,1-.84-.84A.83.83,0,0,1,487,128.07Z"/><path class="cls-93" d="M540.46,102.34a14,14,0,0,0-7.91-5,12,12,0,0,0-3.53-.1c-7.65.72-15.37.72-23,1.56-10.38,1.14-11.3.82-17.7,1.77-7.14,1.05-10.65,2-14.05,4.47s-6.06,7.63-7.15,9.67"/><path class="cls-94" d="M509,95.82a1.74,1.74,0,0,0-.86,1.73c.17,1.17,1.82,1.38,1.84,2.27s-1.43,1-1.73,2.06.7,2.82,2.05,3.35,2-.48,4.43-.43a9,9,0,0,1,3.47.76,11.1,11.1,0,0,1,4,3.35c1,1.16,1.08,1.53,1.84,2.49a16.11,16.11,0,0,0,4.86,4c1.8,1,2.31,1,12.87,2.92,2,.37,3.62.68,4.44-.22.56-.61.43-1.45.22-4-.44-5.21-.15-4.79-.44-5.73-.76-2.46-2.34-3.92-4.43-5.84a16.39,16.39,0,0,0-12.12-5,21.66,21.66,0,0,0-5.62.87c-2.84.77-3.12,1.36-4.87,1.4a10.35,10.35,0,0,1-4.86-1.29C511.12,97.09,510.08,95.34,509,95.82Z"/><path class="cls-95" d="M519.66,98c-3.48-.23-7-.44-10.46-.47-10.44-.09-11.31-.52-17.77-.34-7.22.2-10.82.73-14.48,2.78s-6.93,6.85-8.25,8.75"/><path class="cls-96" d="M467.72,113.71a24.21,24.21,0,0,1,42.2,6"/><path class="cls-97" d="M533.12,101.45c-1.49.11-2.56,1.37-4.65,3.89a22.73,22.73,0,0,0-3.24,4.65,11.73,11.73,0,0,0-1.63,5c0,.4,0,.39,0,2.92,0,.88,0,1.5,0,2.38a9.72,9.72,0,0,0,.22,3c.56.87,1.78,1,4.22,1.3,2.09.25,2.57,0,3.46.54,1,.65,1.18,1.49,2,1.52s1.06-1.14,2-1.3,1.6,1.24,3.79,2.27a7.84,7.84,0,0,0,3.24.76c.67,0,3,0,4.11-1.41.62-.8.42-2.27,0-5.19-.92-6.44-1-6.8-1.19-7.46a19.51,19.51,0,0,0-2.27-5.74,17.74,17.74,0,0,0-7.35-6.27A4.75,4.75,0,0,0,533.12,101.45Z"/><path class="cls-98" d="M470.82,105.79A24.17,24.17,0,0,1,490.3,96c8.6,0,14.11,4.49,17.69,11.25"/></g></g></svg>