<svg xmlns="http://www.w3.org/2000/svg" xmlns:xlink="http://www.w3.org/1999/xlink" viewBox="0 0 474.7 310.57"><defs><style>.cls-1{isolation:isolate;}.cls-2{fill:url(#linear-gradient);}.cls-3{fill:url(#linear-gradient-2);}.cls-4{fill:url(#linear-gradient-3);}.cls-5{fill:url(#linear-gradient-4);}.cls-6{fill:url(#linear-gradient-5);}.cls-7{fill:url(#linear-gradient-6);}.cls-8{fill:url(#linear-gradient-7);}.cls-9{fill:url(#linear-gradient-8);}.cls-10{fill:url(#linear-gradient-9);}.cls-11{fill:url(#linear-gradient-10);}.cls-12{fill:url(#linear-gradient-11);}.cls-13{fill:url(#linear-gradient-12);}.cls-14{fill:url(#linear-gradient-13);}.cls-15{fill:url(#linear-gradient-14);}.cls-16{fill:url(#linear-gradient-15);}.cls-17{fill:url(#linear-gradient-16);}.cls-18{fill:url(#linear-gradient-17);}.cls-19{fill:url(#linear-gradient-18);}.cls-20{fill:url(#linear-gradient-19);}.cls-21{fill:url(#linear-gradient-20);}.cls-22{fill:url(#linear-gradient-21);}.cls-23{fill:url(#linear-gradient-22);}.cls-24{fill:url(#linear-gradient-23);}.cls-25{fill:url(#linear-gradient-24);}.cls-26{fill:url(#linear-gradient-25);}.cls-27{fill:url(#linear-gradient-26);}.cls-28{fill:url(#linear-gradient-27);}.cls-29{fill:url(#linear-gradient-28);}.cls-30{fill:url(#linear-gradient-29);}.cls-31{fill:url(#linear-gradient-30);}.cls-32{fill:url(#linear-gradient-31);}.cls-33{fill:url(#linear-gradient-32);}.cls-34{fill:url(#linear-gradient-33);}.cls-35{fill:url(#linear-gradient-34);}.cls-36{fill:url(#linear-gradient-35);}.cls-37{fill:url(#linear-gradient-36);}.cls-38{fill:url(#linear-gradient-37);}.cls-39{fill:url(#linear-gradient-38);}.cls-40{fill:url(#linear-gradient-39);}.cls-41{fill:url(#linear-gradient-40);}.cls-42{fill:url(#linear-gradient-41);}.cls-43{fill:url(#linear-gradient-42);}.cls-44{fill:url(#linear-gradient-43);}.cls-45{fill:url(#linear-gradient-44);}.cls-46{fill:url(#linear-gradient-45);}.cls-47{fill:url(#linear-gradient-46);}.cls-48{fill:url(#linear-gradient-47);}.cls-49{fill:url(#linear-gradient-48);}.cls-50{fill:url(#linear-gradient-49);}.cls-51{fill:url(#linear-gradient-50);}.cls-52{fill:url(#linear-gradient-51);}.cls-53{fill:url(#linear-gradient-52);}.cls-54{fill:url(#linear-gradient-53);}.cls-55{fill:url(#linear-gradient-54);}.cls-56{fill:url(#linear-gradient-55);}.cls-57{fill:url(#linear-gradient-56);}.cls-58{fill:url(#linear-gradient-57);}.cls-59{fill:url(#linear-gradient-58);}.cls-60{fill:url(#linear-gradient-59);}.cls-61{fill:url(#linear-gradient-60);}.cls-62{fill:url(#linear-gradient-61);}.cls-63{fill:url(#linear-gradient-62);}.cls-64{fill:url(#linear-gradient-63);}.cls-65{fill:url(#linear-gradient-64);}.cls-66{fill:url(#linear-gradient-65);}.cls-67{fill:url(#linear-gradient-66);}.cls-68{fill:url(#linear-gradient-67);}.cls-69{fill:url(#linear-gradient-68);}.cls-70{fill:url(#linear-gradient-69);}.cls-71{fill:url(#linear-gradient-70);}.cls-72{fill:url(#linear-gradient-71);}.cls-73{fill:url(#linear-gradient-72);}.cls-74{fill:url(#linear-gradient-73);}.cls-75{fill:url(#linear-gradient-74);}.cls-76{fill:url(#linear-gradient-75);}.cls-77,.cls-78,.cls-79,.cls-80{fill:none;stroke-linecap:round;stroke-miterlimit:10;}.cls-77{stroke:url(#linear-gradient-76);}.cls-78{stroke:url(#linear-gradient-77);}.cls-79{stroke:url(#linear-gradient-78);}.cls-80{stroke:url(#linear-gradient-79);}.cls-81{fill:url(#linear-gradient-80);}.cls-82{fill:url(#linear-gradient-81);}.cls-100,.cls-101,.cls-102,.cls-103,.cls-104,.cls-83,.cls-84,.cls-85,.cls-86,.cls-87,.cls-88,.cls-89,.cls-90,.cls-91,.cls-92,.cls-93,.cls-94,.cls-95,.cls-96,.cls-97,.cls-98,.cls-99{opacity:0.81;mix-blend-mode:multiply;}.cls-83{fill:url(#linear-gradient-82);}.cls-84{fill:url(#linear-gradient-83);}.cls-85{fill:url(#linear-gradient-84);}.cls-86{fill:url(#linear-gradient-85);}.cls-87{fill:url(#linear-gradient-86);}.cls-88{fill:url(#linear-gradient-87);}.cls-89{fill:url(#linear-gradient-88);}.cls-90{fill:url(#linear-gradient-89);}.cls-91{fill:url(#linear-gradient-90);}.cls-92{fill:url(#linear-gradient-91);}.cls-93{fill:url(#linear-gradient-92);}.cls-94{fill:url(#linear-gradient-93);}.cls-95{fill:url(#linear-gradient-94);}.cls-96{fill:url(#linear-gradient-95);}.cls-97{fill:url(#linear-gradient-96);}.cls-98{fill:url(#linear-gradient-97);}.cls-99{fill:url(#linear-gradient-98);}.cls-100{fill:url(#linear-gradient-99);}.cls-101{fill:url(#linear-gradient-100);}.cls-102{fill:url(#linear-gradient-101);}.cls-103{fill:url(#linear-gradient-102);}.cls-104{fill:url(#linear-gradient-103);}</style><linearGradient id="linear-gradient" x1="333.33" y1="152.39" x2="525.99" y2="152.39" gradientUnits="userSpaceOnUse"><stop offset="0.03" stop-color="#c7914a"/><stop offset="0.13" stop-color="#d9a45e"/><stop offset="0.28" stop-color="#eebb76"/><stop offset="0.41" stop-color="#fbc884"/><stop offset="0.53" stop-color="#ffcd89"/></linearGradient><linearGradient id="linear-gradient-2" x1="351.19" y1="187.28" x2="563.93" y2="187.28" xlink:href="#linear-gradient"/><linearGradient id="linear-gradient-3" x1="255.75" y1="230.4" x2="370.47" y2="139.57" gradientUnits="userSpaceOnUse"><stop offset="0" stop-color="#80634b"/><stop offset="1" stop-color="#1e1310"/></linearGradient><linearGradient id="linear-gradient-4" x1="231.11" y1="222.35" x2="366.88" y2="222.35" gradientUnits="userSpaceOnUse"><stop offset="0" stop-color="#80634b"/><stop offset="0.2" stop-color="#7c6048"/><stop offset="0.4" stop-color="#6f5541"/><stop offset="0.61" stop-color="#5a4434"/><stop offset="0.82" stop-color="#3d2c23"/><stop offset="1" stop-color="#1e1310"/></linearGradient><linearGradient id="linear-gradient-5" x1="335.17" y1="251.37" x2="481.75" y2="251.37" xlink:href="#linear-gradient-3"/><linearGradient id="linear-gradient-6" x1="365.63" y1="278.94" x2="401.62" y2="278.94" xlink:href="#linear-gradient-3"/><linearGradient id="linear-gradient-7" x1="369.66" y1="280.76" x2="404.07" y2="280.76" xlink:href="#linear-gradient-3"/><linearGradient id="linear-gradient-8" x1="369.39" y1="282.58" x2="398.3" y2="282.58" xlink:href="#linear-gradient-3"/><linearGradient id="linear-gradient-9" x1="366.64" y1="285.26" x2="415.9" y2="285.26" gradientUnits="userSpaceOnUse"><stop offset="0" stop-color="#80634b"/><stop offset="0.67" stop-color="#402f24"/><stop offset="1" stop-color="#1e1310"/></linearGradient><linearGradient id="linear-gradient-10" x1="346.17" y1="273.01" x2="475.9" y2="273.01" gradientUnits="userSpaceOnUse"><stop offset="0.17" stop-color="#80634b"/><stop offset="0.81" stop-color="#1e1310"/></linearGradient><linearGradient id="linear-gradient-11" x1="399.4" y1="261.43" x2="507.92" y2="243.79" gradientUnits="userSpaceOnUse"><stop offset="0" stop-color="#80634b"/><stop offset="0.15" stop-color="#69503d"/><stop offset="0.42" stop-color="#453327"/><stop offset="0.64" stop-color="#2f211a"/><stop offset="0.78" stop-color="#271a15"/><stop offset="0.83" stop-color="#241713"/><stop offset="1" stop-color="#1e1310"/></linearGradient><linearGradient id="linear-gradient-12" x1="369.68" y1="289.81" x2="506.12" y2="289.81" gradientUnits="userSpaceOnUse"><stop offset="0" stop-color="#80634b"/><stop offset="0.28" stop-color="#69503d"/><stop offset="0.86" stop-color="#2d1f19"/><stop offset="1" stop-color="#1e1310"/></linearGradient><linearGradient id="linear-gradient-13" x1="395.07" y1="298.88" x2="450.29" y2="298.88" gradientUnits="userSpaceOnUse"><stop offset="0" stop-color="#80634b"/><stop offset="0.12" stop-color="#6d5440"/><stop offset="0.37" stop-color="#4b382b"/><stop offset="0.61" stop-color="#32241c"/><stop offset="0.82" stop-color="#231713"/><stop offset="1" stop-color="#1e1310"/></linearGradient><linearGradient id="linear-gradient-14" x1="396.66" y1="300.25" x2="440.01" y2="300.25" gradientUnits="userSpaceOnUse"><stop offset="0" stop-color="#80634b"/><stop offset="0.39" stop-color="#5d4636"/><stop offset="1" stop-color="#1e1310"/></linearGradient><linearGradient id="linear-gradient-15" x1="393.11" y1="301.61" x2="459.05" y2="301.61" gradientUnits="userSpaceOnUse"><stop offset="0" stop-color="#80634b"/><stop offset="0.24" stop-color="#6d5440"/><stop offset="0.72" stop-color="#3d2d23"/><stop offset="1" stop-color="#1e1310"/></linearGradient><linearGradient id="linear-gradient-16" x1="393.15" y1="301.57" x2="488.02" y2="301.57" xlink:href="#linear-gradient-3"/><linearGradient id="linear-gradient-17" x1="405.15" y1="290.8" x2="476.1" y2="290.8" xlink:href="#linear-gradient-3"/><linearGradient id="linear-gradient-18" x1="138.71" y1="58.16" x2="298.22" y2="109.96" gradientTransform="matrix(1.03, 0, 0, 1.03, 107.56, 1.53)" xlink:href="#linear-gradient-3"/><linearGradient id="linear-gradient-19" x1="340.56" y1="206.52" x2="476.44" y2="206.52" xlink:href="#linear-gradient-3"/><linearGradient id="linear-gradient-20" x1="553.64" y1="160.13" x2="319.44" y2="167.71" gradientUnits="userSpaceOnUse"><stop offset="0" stop-color="#736357"/><stop offset="0.09" stop-color="#827469"/><stop offset="0.4" stop-color="#b7afa9"/><stop offset="0.67" stop-color="#dedad8"/><stop offset="0.88" stop-color="#f6f5f4"/><stop offset="1" stop-color="#fff"/></linearGradient><linearGradient id="linear-gradient-21" x1="393.06" y1="163.27" x2="345.49" y2="-128.95" gradientUnits="userSpaceOnUse"><stop offset="0" stop-color="#6a767f"/><stop offset="0.03" stop-color="#6e7c86"/><stop offset="0.26" stop-color="#90acbe"/><stop offset="0.43" stop-color="#a5cae0"/><stop offset="0.53" stop-color="#add5ed"/></linearGradient><linearGradient id="linear-gradient-22" x1="361.02" y1="207.5" x2="315.04" y2="-35.4" gradientUnits="userSpaceOnUse"><stop offset="0.13" stop-color="#6a767f"/><stop offset="0.17" stop-color="#6e7c86"/><stop offset="0.43" stop-color="#90acbe"/><stop offset="0.62" stop-color="#a5cae0"/><stop offset="0.72" stop-color="#add5ed"/></linearGradient><linearGradient id="linear-gradient-23" x1="399.1" y1="185.47" x2="205.09" y2="103.29" gradientUnits="userSpaceOnUse"><stop offset="0" stop-color="#6a767f"/><stop offset="0.04" stop-color="#6e7c86"/><stop offset="0.36" stop-color="#90acbe"/><stop offset="0.6" stop-color="#a5cae0"/><stop offset="0.72" stop-color="#add5ed"/></linearGradient><linearGradient id="linear-gradient-24" x1="265.21" y1="207.61" x2="435.2" y2="207.61" gradientUnits="userSpaceOnUse"><stop offset="0" stop-color="#80634b"/><stop offset="0.6" stop-color="#453327"/><stop offset="1" stop-color="#1e1310"/></linearGradient><linearGradient id="linear-gradient-25" x1="388.67" y1="156.63" x2="140.95" y2="62.58" gradientUnits="userSpaceOnUse"><stop offset="0" stop-color="#6a767f"/><stop offset="0.02" stop-color="#6e7c86"/><stop offset="0.16" stop-color="#90acbe"/><stop offset="0.27" stop-color="#a5cae0"/><stop offset="0.33" stop-color="#add5ed"/></linearGradient><linearGradient id="linear-gradient-26" x1="365.27" y1="178.01" x2="596.64" y2="44.74" gradientUnits="userSpaceOnUse"><stop offset="0.03" stop-color="#c7914a"/><stop offset="0.54" stop-color="#f0c180"/><stop offset="0.64" stop-color="#f5c782"/><stop offset="0.64" stop-color="#faca86"/><stop offset="0.64" stop-color="#ffcd89"/></linearGradient><linearGradient id="linear-gradient-27" x1="433.15" y1="332.5" x2="436.91" y2="78.58" gradientUnits="userSpaceOnUse"><stop offset="0.03" stop-color="#c7914a"/><stop offset="0.46" stop-color="#c9934c"/><stop offset="0.62" stop-color="#cf9953"/><stop offset="0.73" stop-color="#d9a55e"/><stop offset="0.82" stop-color="#e8b46f"/><stop offset="0.9" stop-color="#fbc985"/><stop offset="0.91" stop-color="#ffcd89"/></linearGradient><linearGradient id="linear-gradient-28" x1="408.38" y1="160.93" x2="437.73" y2="-21.19" xlink:href="#linear-gradient-23"/><linearGradient id="linear-gradient-29" x1="84.32" y1="224.04" x2="211.9" y2="224.04" gradientUnits="userSpaceOnUse"><stop offset="0" stop-color="#1a1a1a"/><stop offset="0.03" stop-color="#1b1b1b"/><stop offset="0.54" stop-color="#2d2d2d"/><stop offset="0.91" stop-color="#333"/></linearGradient><linearGradient id="linear-gradient-30" x1="70.09" y1="251.78" x2="104.72" y2="251.78" gradientUnits="userSpaceOnUse"><stop offset="0.14" stop-color="#80634b"/><stop offset="0.46" stop-color="#907256"/></linearGradient><linearGradient id="linear-gradient-31" x1="26.93" y1="176.24" x2="128.51" y2="176.24" xlink:href="#linear-gradient-29"/><linearGradient id="linear-gradient-32" x1="174.26" y1="167.55" x2="156.87" y2="120.57" gradientUnits="userSpaceOnUse"><stop offset="0.18" stop-color="#80634b"/><stop offset="0.3" stop-color="#85684e"/><stop offset="0.68" stop-color="#907256"/></linearGradient><linearGradient id="linear-gradient-33" x1="90.4" y1="118.23" x2="165.37" y2="118.23" xlink:href="#linear-gradient-30"/><linearGradient id="linear-gradient-34" x1="163.61" y1="118.09" x2="179.33" y2="164.83" gradientUnits="userSpaceOnUse"><stop offset="0" stop-color="#80634b"/><stop offset="0.7" stop-color="#907256"/></linearGradient><linearGradient id="linear-gradient-35" x1="0.59" y1="166.74" x2="77.61" y2="166.74" gradientUnits="userSpaceOnUse"><stop offset="0.16" stop-color="#1a1a1a"/><stop offset="0.18" stop-color="#1b1b1b"/><stop offset="0.6" stop-color="#2d2d2d"/><stop offset="0.91" stop-color="#333"/></linearGradient><linearGradient id="linear-gradient-36" x1="-7.12" y1="171.46" x2="89.82" y2="171.46" xlink:href="#linear-gradient-29"/><linearGradient id="linear-gradient-37" x1="65.91" y1="94.38" x2="181.75" y2="94.38" gradientUnits="userSpaceOnUse"><stop offset="0" stop-color="#b5504a"/><stop offset="0.07" stop-color="#b24e49"/><stop offset="0.84" stop-color="#973e3b"/><stop offset="1" stop-color="#933c39"/></linearGradient><linearGradient id="linear-gradient-38" x1="0" y1="94.92" x2="89.95" y2="94.92" xlink:href="#linear-gradient-37"/><linearGradient id="linear-gradient-39" x1="48.77" y1="-6.67" x2="121.52" y2="102.7" gradientUnits="userSpaceOnUse"><stop offset="0" stop-color="#b5504a"/><stop offset="0.35" stop-color="#b24e49"/><stop offset="0.6" stop-color="#a94944"/><stop offset="0.82" stop-color="#9a403c"/><stop offset="0.84" stop-color="#973e3b"/><stop offset="1" stop-color="#933c39"/></linearGradient><linearGradient id="linear-gradient-40" x1="174.77" y1="34.93" x2="71.08" y2="39.56" gradientUnits="userSpaceOnUse"><stop offset="0" stop-color="#80634b"/><stop offset="0.2" stop-color="#8c6e53"/><stop offset="0.4" stop-color="#907256"/></linearGradient><linearGradient id="linear-gradient-41" x1="182.74" y1="49.44" x2="249.35" y2="49.44" gradientUnits="userSpaceOnUse"><stop offset="0" stop-color="#736357"/><stop offset="0.17" stop-color="#877666"/><stop offset="0.47" stop-color="#a4917c"/><stop offset="0.72" stop-color="#b6a189"/><stop offset="0.91" stop-color="#bca78e"/></linearGradient><linearGradient id="linear-gradient-42" x1="51.88" y1="73.43" x2="99.48" y2="73.43" xlink:href="#linear-gradient-30"/><linearGradient id="linear-gradient-43" x1="115.58" y1="321.12" x2="98.41" y2="257.02" xlink:href="#linear-gradient-30"/><linearGradient id="linear-gradient-44" x1="98.79" y1="304.96" x2="96.94" y2="244.75" xlink:href="#linear-gradient-30"/><linearGradient id="linear-gradient-45" x1="36.57" y1="264.7" x2="70.21" y2="264.7" xlink:href="#linear-gradient-30"/><linearGradient id="linear-gradient-46" x1="200.87" y1="62.03" x2="94.27" y2="-54.81" gradientUnits="userSpaceOnUse"><stop offset="0.16" stop-color="#80634b"/><stop offset="0.43" stop-color="#907256"/></linearGradient><linearGradient id="linear-gradient-47" x1="170.02" y1="65.73" x2="139.76" y2="8.07" gradientUnits="userSpaceOnUse"><stop offset="0.03" stop-color="#80634b"/><stop offset="0.97" stop-color="#907256"/></linearGradient><linearGradient id="linear-gradient-48" x1="184.83" y1="60.93" x2="160.4" y2="17.96" gradientUnits="userSpaceOnUse"><stop offset="0.24" stop-color="#80634b"/><stop offset="0.56" stop-color="#86694f"/><stop offset="0.82" stop-color="#907256"/></linearGradient><linearGradient id="linear-gradient-49" x1="58.09" y1="117.21" x2="121.55" y2="85.72" gradientUnits="userSpaceOnUse"><stop offset="0.14" stop-color="#80634b"/><stop offset="0.34" stop-color="#876a50"/><stop offset="0.49" stop-color="#907256"/></linearGradient><linearGradient id="linear-gradient-50" x1="120.27" y1="-30.02" x2="138.79" y2="52.25" xlink:href="#linear-gradient-37"/><linearGradient id="linear-gradient-51" x1="126.16" y1="132.79" x2="114.37" y2="148.83" xlink:href="#linear-gradient-30"/><linearGradient id="linear-gradient-52" x1="109.39" y1="147.82" x2="154.84" y2="110.7" xlink:href="#linear-gradient-30"/><linearGradient id="linear-gradient-53" x1="74.87" y1="320.4" x2="69.48" y2="260.77" xlink:href="#linear-gradient-30"/><linearGradient id="linear-gradient-54" x1="47.29" y1="306.62" x2="54.88" y2="262.17" gradientUnits="userSpaceOnUse"><stop offset="0.01" stop-color="#80634b"/><stop offset="0.46" stop-color="#907256"/></linearGradient><linearGradient id="linear-gradient-55" x1="92.95" y1="315.7" x2="87.53" y2="285.08" gradientUnits="userSpaceOnUse"><stop offset="0.14" stop-color="#80634b"/><stop offset="0.53" stop-color="#907256"/></linearGradient><linearGradient id="linear-gradient-56" x1="87" y1="312.85" x2="83.55" y2="300.64" gradientUnits="userSpaceOnUse"><stop offset="0.14" stop-color="#80634b"/><stop offset="0.63" stop-color="#876a50"/><stop offset="1" stop-color="#907256"/></linearGradient><linearGradient id="linear-gradient-57" x1="81.12" y1="310.62" x2="73.38" y2="282.95" xlink:href="#linear-gradient-30"/><linearGradient id="linear-gradient-58" x1="75.77" y1="312.58" x2="69.49" y2="281.55" xlink:href="#linear-gradient-30"/><linearGradient id="linear-gradient-59" x1="13.54" y1="235.98" x2="122.35" y2="235.98" xlink:href="#linear-gradient-29"/><linearGradient id="linear-gradient-60" x1="46.92" y1="222.33" x2="173.12" y2="222.33" xlink:href="#linear-gradient-29"/><linearGradient id="linear-gradient-61" x1="73.27" y1="32.86" x2="111.9" y2="76.65" xlink:href="#linear-gradient-37"/><linearGradient id="linear-gradient-62" x1="6.05" y1="70.21" x2="93.39" y2="70.21" xlink:href="#linear-gradient-37"/><linearGradient id="linear-gradient-63" x1="170.83" y1="21.88" x2="141.32" y2="-4.8" xlink:href="#linear-gradient-41"/><linearGradient id="linear-gradient-64" x1="172.61" y1="8.63" x2="208.91" y2="8.63" xlink:href="#linear-gradient-41"/><linearGradient id="linear-gradient-65" x1="164.12" y1="46.89" x2="173.62" y2="-29.73" xlink:href="#linear-gradient-41"/><linearGradient id="linear-gradient-66" x1="162.25" y1="60.61" x2="180.19" y2="-13.45" xlink:href="#linear-gradient-41"/><linearGradient id="linear-gradient-67" x1="159.5" y1="68" x2="217.46" y2="2.24" gradientUnits="userSpaceOnUse"><stop offset="0" stop-color="#736357"/><stop offset="0.03" stop-color="#77665a"/><stop offset="0.41" stop-color="#9f8c78"/><stop offset="0.61" stop-color="#ae9a83"/><stop offset="0.73" stop-color="#b6a189"/><stop offset="0.91" stop-color="#bca78e"/></linearGradient><linearGradient id="linear-gradient-68" x1="160.12" y1="56.31" x2="201.26" y2="-25.27" xlink:href="#linear-gradient-41"/><linearGradient id="linear-gradient-69" x1="169.04" y1="47.37" x2="222.77" y2="47.37" xlink:href="#linear-gradient-41"/><linearGradient id="linear-gradient-70" x1="162.81" y1="145.32" x2="215.79" y2="207.74" gradientUnits="userSpaceOnUse"><stop offset="0.42" stop-color="#bababa"/><stop offset="0.51" stop-color="#b5b5b5"/><stop offset="0.62" stop-color="#a8a8a8"/><stop offset="0.73" stop-color="#919191"/><stop offset="0.85" stop-color="#727272"/><stop offset="0.97" stop-color="#4a4a4a"/><stop offset="1" stop-color="#3d3d3d"/></linearGradient><linearGradient id="linear-gradient-71" x1="163.88" y1="152.94" x2="214.06" y2="212.07" gradientUnits="userSpaceOnUse"><stop offset="0" stop-color="#bababa"/><stop offset="0.16" stop-color="#b5b5b5"/><stop offset="0.35" stop-color="#a8a8a8"/><stop offset="0.54" stop-color="#919191"/><stop offset="0.74" stop-color="#727272"/><stop offset="0.94" stop-color="#4a4a4a"/><stop offset="1" stop-color="#3d3d3d"/></linearGradient><linearGradient id="linear-gradient-72" x1="163.32" y1="102.38" x2="158.77" y2="246.16" xlink:href="#linear-gradient-71"/><linearGradient id="linear-gradient-73" x1="127.6" y1="117.45" x2="168.28" y2="165.39" xlink:href="#linear-gradient-70"/><linearGradient id="linear-gradient-74" x1="-9992.98" y1="4005.16" x2="-10123.25" y2="3995.92" gradientTransform="translate(-9902.12 -3857.36) rotate(-136.32)" gradientUnits="userSpaceOnUse"><stop offset="0" stop-color="#bababa"/><stop offset="0.13" stop-color="#b3b3b3"/><stop offset="0.33" stop-color="#9f9f9f"/><stop offset="0.56" stop-color="#7e7e7e"/><stop offset="0.82" stop-color="#515151"/><stop offset="0.92" stop-color="#3d3d3d"/></linearGradient><linearGradient id="linear-gradient-75" x1="-10160.54" y1="4111.23" x2="-10231.19" y2="4108.92" gradientTransform="matrix(-0.67, -0.67, 0.7, -0.71, -9585.29, -3703.6)" gradientUnits="userSpaceOnUse"><stop offset="0.42" stop-color="#bababa"/><stop offset="0.62" stop-color="#b8b8b8"/><stop offset="0.72" stop-color="#b0b0b0"/><stop offset="0.79" stop-color="#a3a3a3"/><stop offset="0.85" stop-color="#919191"/><stop offset="0.91" stop-color="#797979"/><stop offset="0.96" stop-color="#5c5c5c"/><stop offset="1" stop-color="#3d3d3d"/></linearGradient><linearGradient id="linear-gradient-76" x1="92.92" y1="168.73" x2="132.26" y2="215.09" xlink:href="#linear-gradient-70"/><linearGradient id="linear-gradient-77" x1="70.09" y1="151.42" x2="109.44" y2="197.78" gradientTransform="matrix(1, 0, 0, 1, 19.47, 18.6)" xlink:href="#linear-gradient-70"/><linearGradient id="linear-gradient-78" x1="673.62" y1="670.5" x2="712.96" y2="716.87" gradientTransform="matrix(0.92, -0.08, -0.08, 0.92, -440.72, -420.89)" xlink:href="#linear-gradient-70"/><linearGradient id="linear-gradient-79" x1="646.79" y1="649.45" x2="686.58" y2="696.34" gradientTransform="matrix(0.92, -0.08, -0.08, 0.93, -424.37, -405.28)" xlink:href="#linear-gradient-70"/><linearGradient id="linear-gradient-80" x1="-1839.81" y1="-3861.1" x2="-1705.5" y2="-3726.13" gradientTransform="matrix(0, 1.03, -1, 0, -3645.19, 1990.29)" gradientUnits="userSpaceOnUse"><stop offset="0.42" stop-color="#bababa"/><stop offset="0.51" stop-color="#b5b5b5"/><stop offset="0.62" stop-color="#a6a6a6"/><stop offset="0.74" stop-color="#8e8e8e"/><stop offset="0.86" stop-color="#6c6c6c"/><stop offset="0.99" stop-color="#414141"/><stop offset="1" stop-color="#3d3d3d"/></linearGradient><linearGradient id="linear-gradient-81" x1="159.19" y1="115.64" x2="175.56" y2="153.89" xlink:href="#linear-gradient-30"/><linearGradient id="linear-gradient-82" x1="257.69" y1="232.88" x2="260.35" y2="232.88" gradientUnits="userSpaceOnUse"><stop offset="0" stop-color="#4aa1b7"/><stop offset="0.29" stop-color="#479eb3"/><stop offset="0.56" stop-color="#3d94a8"/><stop offset="0.82" stop-color="#2d8495"/><stop offset="1" stop-color="#1d7583"/></linearGradient><linearGradient id="linear-gradient-83" x1="230.93" y1="198.48" x2="236.16" y2="198.48" xlink:href="#linear-gradient-82"/><linearGradient id="linear-gradient-84" x1="244.35" y1="251.02" x2="247.08" y2="251.02" xlink:href="#linear-gradient-82"/><linearGradient id="linear-gradient-85" x1="253.1" y1="264.49" x2="255.83" y2="264.49" xlink:href="#linear-gradient-82"/><linearGradient id="linear-gradient-86" x1="219.1" y1="204.38" x2="224.82" y2="204.38" xlink:href="#linear-gradient-82"/><linearGradient id="linear-gradient-87" x1="212.27" y1="206.69" x2="216.26" y2="206.69" xlink:href="#linear-gradient-82"/><linearGradient id="linear-gradient-88" x1="230.72" y1="207.15" x2="235.65" y2="207.15" xlink:href="#linear-gradient-82"/><linearGradient id="linear-gradient-89" x1="232.18" y1="217.84" x2="235.85" y2="217.84" xlink:href="#linear-gradient-82"/><linearGradient id="linear-gradient-90" x1="227.36" y1="223.89" x2="230.11" y2="223.89" xlink:href="#linear-gradient-82"/><linearGradient id="linear-gradient-91" x1="254.47" y1="220.05" x2="258.17" y2="220.05" xlink:href="#linear-gradient-82"/><linearGradient id="linear-gradient-92" x1="233.19" y1="234.89" x2="235.91" y2="234.89" xlink:href="#linear-gradient-82"/><linearGradient id="linear-gradient-93" x1="244.23" y1="209.34" x2="248.23" y2="209.34" xlink:href="#linear-gradient-82"/><linearGradient id="linear-gradient-94" x1="247.14" y1="236.33" x2="249.89" y2="236.33" xlink:href="#linear-gradient-82"/><linearGradient id="linear-gradient-95" x1="233.22" y1="249.89" x2="235.9" y2="249.89" xlink:href="#linear-gradient-82"/><linearGradient id="linear-gradient-96" x1="239.9" y1="264.49" x2="242.59" y2="264.49" xlink:href="#linear-gradient-82"/><linearGradient id="linear-gradient-97" x1="257.22" y1="248.72" x2="259.96" y2="248.72" xlink:href="#linear-gradient-82"/><linearGradient id="linear-gradient-98" x1="248.52" y1="275.45" x2="251.26" y2="275.45" xlink:href="#linear-gradient-82"/><linearGradient id="linear-gradient-99" x1="264.35" y1="255.78" x2="267.09" y2="255.78" xlink:href="#linear-gradient-82"/><linearGradient id="linear-gradient-100" x1="244.07" y1="222.57" x2="247.24" y2="222.57" xlink:href="#linear-gradient-82"/><linearGradient id="linear-gradient-101" x1="265.31" y1="243.69" x2="268.01" y2="243.69" xlink:href="#linear-gradient-82"/><linearGradient id="linear-gradient-102" x1="213.92" y1="195.37" x2="219.68" y2="195.37" xlink:href="#linear-gradient-82"/><linearGradient id="linear-gradient-103" x1="220.54" y1="214.39" x2="223.91" y2="214.39" xlink:href="#linear-gradient-82"/></defs><g class="cls-1"><g id="PEOPLE"><g id="_LAYER-18_P7_" data-name="&lt;LAYER-18_P7&gt;"><path class="cls-2" d="M391.28,123.22c-.94-.19-2,4.61-6.73,13.26-3.29,6-3.71,5.31-6.11,9.89-3.57,6.83-1.8,6.66-6.52,18.94a48.35,48.35,0,0,0-2.52,13.46c0,.81-.1,2.42.63,2.74s2.18-1.11,2.52-1.47c2.69-2.89,3-6.89,3.16-8s2.39-5.9,6.94-15.57c6.28-13.33,6.35-12.26,7.37-15.57C392.7,132.13,392.51,123.49,391.28,123.22Z"/><path class="cls-3" d="M387.07,140.69c-2,.34-2.75,3.08-5.47,10.31,0,0-2.57,6.83-6.31,15.57-3.93,9.19-5.66,11.19-7.37,17.88a38.2,38.2,0,0,0-1.26,8.42,36.76,36.76,0,0,0,1,9.89,38.75,38.75,0,0,0,4,9.89c1.54,2.8,1.74,2.47,9.47,12.2,3.55,4.48,5,6.38,8,7.79a9.74,9.74,0,0,0,6.52,1.05c2.73-.68,4.5-2.88,6.31-5.89A58.12,58.12,0,0,0,409,208.44c1.66-8.41,2.49-12.62,2.32-15.78-.49-9-4-9.34-8.84-24.41-2.59-8.15-2.88-12.24-6.94-19.14C393.68,146,390.22,140.15,387.07,140.69Z"/><path class="cls-4" d="M300.94,181.82c-5.73,2.88-8.69,12-16.66,19.92-2.32,2.3-5.12,4.54-10,8.42-2.44,2-4.78,4.05-7.22,6,0,0-1.11.9-5.15,5a8.28,8.28,0,0,0-2.4,3.95,2.93,2.93,0,0,0,.17,2.41c.76,1,2.48.88,2.75.86,1.12-.12,1.21-.64,2.57-.86a16.26,16.26,0,0,1,2.24,0c1.62-.07,1.81-.36,3.09-.35s1.28.26,2.4.35a8.2,8.2,0,0,0,3.61-.52c2.13-1,2.64-3.93,3.09-5.5,1.19-4.11,4.63-6.63,11.51-11.68,3.91-2.86,9.87-6.46,13.4-8.58,2.07-1.25,4.79-2.85,6-6a11.09,11.09,0,0,0,.51-5.5,12.5,12.5,0,0,0-2.57-6.18,6.17,6.17,0,0,0-2.92-2.41A6.09,6.09,0,0,0,300.94,181.82Z"/><path class="cls-5" d="M277,218.67a27,27,0,0,1-3,3.31,20.57,20.57,0,0,0-2,1.91c-.16.18-.32.37-.52.63a22.19,22.19,0,0,0-2.09,3.53h0s-1.95-.08-2.32.66a1.2,1.2,0,0,0,.44,1.32c.34.26.79.29,2,0a15.84,15.84,0,0,0,2.64-.88c3.05-1.33,2.85-1,3.76-1.54a9.87,9.87,0,0,0,3-2.87c.87-1.31,1.18-2.92,1.76-6.07.5-2.67.74-4,.33-4.2S280.27,214.86,277,218.67Z"/><path class="cls-6" d="M374.43,279.27c-.55-.33-1.21.1-1.51-.3s.24-1.8,1.11-2.61c1.27-1.19,2.73-.64,4.71-1.4a47.74,47.74,0,0,0,5.05-2.46c5-2.62,4.92-2.88,8.48-4.66,1.48-.73,1.56-.73,1.83-1,1.6-1.56,1.09-4.66,0-10.81-1.55-8.74-1.71-9.65-2-11.14-.81-4.3-1.22-6.45-1.33-7-.37-1.68-.61-2.68-.84-4.33a24.16,24.16,0,0,1-.33-5,12.56,12.56,0,0,1,3.33-8,11,11,0,0,1,8-3.49,10.82,10.82,0,0,1,7.2,3.34c3.75,4.35-.33,9.45-.18,23.76.07,7,.23,11.59,2,17.28a77.55,77.55,0,0,1,4.5,10.08,19.58,19.58,0,0,1,.67,5.92,3.26,3.26,0,0,1-.39,1.84c-.71,1.13-2.13,1.32-4.32,1.7-4.7.81-3.16.79-5.66,1.09-1.56.19-3,.29-7.62.43-6.1.19-5.75.07-7.84.22a38.22,38.22,0,0,0-8.05,1.09c-3.66,1-5.21,2.28-6.09,1.52C373.79,284.25,375.83,280.11,374.43,279.27Z"/><path class="cls-7" d="M377.68,278.05c-.51-1.18-3.68-1.29-5.29-.07a3.79,3.79,0,0,0-1.09,1.36c-.18.4-.41.92-.2,1.22s.9.17,2.44-.06c2.59-.4,3.2-.24,3.73-.89A1.66,1.66,0,0,0,377.68,278.05Z"/><path class="cls-8" d="M377.67,279.87c-.62-1.18-4.43-1.29-6.37-.07a4.15,4.15,0,0,0-1.3,1.36c-.21.4-.5.92-.25,1.22s1.09.17,2.94-.06c3.12-.39,3.84-.24,4.49-.89C377.54,281.07,377.94,280.4,377.67,279.87Z"/><path class="cls-9" d="M377.92,281.69c-.65-1.18-4.71-1.28-6.77-.06a4,4,0,0,0-1.39,1.35c-.23.4-.53.92-.26,1.23s1.15.16,3.12-.07c3.32-.39,4.09-.24,4.78-.88C377.79,282.9,378.21,282.22,377.92,281.69Z"/><path class="cls-10" d="M379.29,281.65c-2.16.59-1.85.74-3.12,1-3.46.77-6.13-.21-8.21.88a2.37,2.37,0,0,0-1.09,1,2.64,2.64,0,0,0-.14,1.76,3.92,3.92,0,0,0,2.18,3.06c.47.18,1.19.3,2.85-.27a15.16,15.16,0,0,0,4.41-2.51c4.58-3.41,9.71-2.78,9.71-4.15,0-.42-.5-.74-.95-1C384.15,281,382.94,280.65,379.29,281.65Z"/><path class="cls-11" d="M405.62,269.33a4.88,4.88,0,0,0-3.27-.35,5.27,5.27,0,0,0-2.74,1.85c-.69.79-1.85,2.11-1.5,3.36.29,1,1.43,1.44,3.44,2.2a7.08,7.08,0,0,0,3.89.71,3.9,3.9,0,0,0,2.65-1.32C409.3,274,408,270.54,405.62,269.33Z"/><path class="cls-12" d="M428.76,223.39c-.54,10.63-1.3,20.53-2.17,29.61-1.21,12.8-2,16.74-4,19.93a25,25,0,0,0-3.32,7.66c-.72,2.32-.9,3.72-.43,5.19a7,7,0,0,0,3,3.76c.61.37,1.49.76,6.5.87,5.25.11,6.2-.28,6.79-.58a8.28,8.28,0,0,0,3.46-3.47,8.94,8.94,0,0,0,.87-4c.12-2.95.78-5.86.86-8.81a87.52,87.52,0,0,1,2.17-16.61c1.33-5.2,3.12-8.32,8.52-23a8.74,8.74,0,0,0,.44-6.07c-1.11-3-4.26-4.42-6.36-5.34a18.29,18.29,0,0,0-9.82-1.3A18.9,18.9,0,0,0,428.76,223.39Z"/><path class="cls-13" d="M424.92,277.72c-1.78.49-2.08,1-8.85,5.64-1.88,1.29-3.08,2.09-4.75,3.2a84.11,84.11,0,0,1-7.19,4.54c-3.14,1.67-4.72,2.5-6.19,2.54s-2.88.38-4.32.56a2.94,2.94,0,0,0-1.66.66,3,3,0,0,0-.77,1.22,2.79,2.79,0,0,0-.22,1.54,2.69,2.69,0,0,0,.77,1.33c1.37,1.31,5.24.45,8.19.22,2.06-.16,1.28.18,7.3.56,5.52.34,6.33.07,13,.44a46.66,46.66,0,0,1,7.08.66,54.71,54.71,0,0,0,6.08,1.33c2.74.38,3.78.21,4.64-.11a6.52,6.52,0,0,0,3.21-2.55c.93-1.48.85-3,.66-5.86a39.83,39.83,0,0,0-1.21-7.08c-.8-3.21-1.22-4.84-2.1-5.86-1.6-1.84-3.74-2.36-5.86-2.87A15.12,15.12,0,0,0,424.92,277.72Z"/><path class="cls-14" d="M404.08,296c-1.05-.1-1.7.16-3.57.81-4.47,1.57-5.38,1.72-5.44,2.36-.09.9,1.64,1.75,2,2a5.09,5.09,0,0,0,3.25.48c1.38-.29,1.41-1,3.41-2.19s3.38-1.19,3.41-1.78S405.58,296.18,404.08,296Z"/><path class="cls-15" d="M409.33,296.91c-1.76-1.18-4.53.23-5.68.81-2,1-1.77,1.62-4,2.68-1.76.84-2.9.93-3,1.62s.93,1.45,1.63,1.76a4.35,4.35,0,0,0,2.67.13,11.42,11.42,0,0,0,3.08-1.24c1.21-.61,1.28-.73,2.36-1.3,2.81-1.49,3.86-1.52,4-2.35A2.29,2.29,0,0,0,409.33,296.91Z"/><path class="cls-16" d="M405.76,300.24a11.46,11.46,0,0,0-2.19,1,4.16,4.16,0,0,0-1.55,1.22c-.38.57-.75,1.61-.32,2.11s1,.28,2.11.08a12.3,12.3,0,0,0,3.41-1.14c1.46-.74,1.27-.91,2.27-1.38,2.15-1,3.07-.21,5.11-1.13,1.37-.62,2.71-1.77,2.52-2.28s-1.47-.29-4.06,0A43.36,43.36,0,0,0,405.76,300.24Z"/><path class="cls-17" d="M408.63,301.28c-.36.11-1.12.36-1.33,1a2.21,2.21,0,0,0,1.18,2.26c1.22.69,2.82,0,3.54-.31,1.59-.65,4.24-.79,9.47-1.31,1.27-.13,2.75,0,5.1-.29.63-.07,1.12-.14,2.11-.29,4.93-.72,5.08-1,5.1-1.15.12-.71-2.53-1.7-2.88-1.83a18.44,18.44,0,0,0-7.31-1A60.42,60.42,0,0,0,408.63,301.28Z"/><path class="cls-18" d="M431.3,285.38a5.82,5.82,0,0,0-3.94,2.12c-.94,1.13-2,3.34-1.16,5.19.59,1.23,1.75,1.69,3.56,2.41,2.14.84,4.36,1.72,6.16.57a4.31,4.31,0,0,0,1.92-3.46,4.89,4.89,0,0,0-.38-1.73,7.76,7.76,0,0,0-2-3.75A5.87,5.87,0,0,0,431.3,285.38Z"/><path class="cls-19" d="M302.55,105c-.09-.13-.64,2.15-2.53.84-.28-.19-.41-.6-.7-.77-1.18-.74-1.22-1.32-2.22-.19s-3.51.18-3.82-1.46c-.67-3.59-3.69-5.19-7.08-6-5.16-1.26-8.92-4.64-11.68-9.14-.49-.8-1.06-1.55-1.6-2.34l-.32.39A7.51,7.51,0,0,0,271,82.68c-.08-.08-.18-.23-.16-.32.44-1.73-1-3.2-.53-5,.55-2,.42-4.18,1.68-6,.53-.77.51-1.9.83-2.84a32.27,32.27,0,0,1,1.38-3.58,39.7,39.7,0,0,1,3-5.69c1.05-1.47,1.94-3.05,3-4.51a18.5,18.5,0,0,1,5.66-4.74c1.13-.69,2.65-.73,4-1.09.24-.06.42-.33.65-.39a26.28,26.28,0,0,1,4.33-.45,18.47,18.47,0,0,1,6.15.72,29.4,29.4,0,0,1,5.45,1.85c3.2,1.43,3.6,2.6,5.73,5.11a15.68,15.68,0,0,1,2,4.19c.54,1.35,1.25,5.8,2.86,6.46a3.24,3.24,0,0,1,1.46,1.82,17.51,17.51,0,0,0,2.05,4.24c.27,1.33,2,2.47,3.42,3a16.64,16.64,0,0,0,3.68,1.07c2.52.32,5.07.44,7.48.63-1.09,2.57-2.52,4.94-3.09,7.5A53.18,53.18,0,0,0,331,94.91c-.09,4.42.24,8.84.39,13.32a17.54,17.54,0,0,1-6.11-5,7.82,7.82,0,0,1-1.71-3.71c-.07-.53-.78-1.09-1.33-1.43-1-.61-2.09-1-3.09-1.6-.56-.33-.94-.3-1.25.23s-.6,1.1-.89,1.66c-.65,1.25-1.31,2.5-2,3.77a16.78,16.78,0,0,1-.91,1.91,16.53,16.53,0,0,1-2.3,2.88,2,2,0,0,1-2.67,0,4,4,0,0,0-4-.81c-.22.1-.5.81-.72.87C300.71,108,302.62,105.14,302.55,105Z"/><path class="cls-20" d="M387.8,180.35c-3.84,3.45.91,8.51.52,27.77-.11,5.71.75,11.4.78,17.11,0,4-.08,6.78,1.87,8.35,2.63,2.11,7.24.51,9.33-.22,1.58-.55,5.39-1.87,7.79-5.16,3.24-4.43.32-7.51.86-19.76.34-7.46,1.59-10.24.35-16.69-.62-3.22-1.07-5.43-2.74-7.58C402.19,178.56,392,176.58,387.8,180.35Z"/><path class="cls-21" d="M375.76,178.66c.86,2,2.56,3,5.35,4.49,2.09,1.14,3.75,1.74,11.22,3.74,0,0,3.6,1,11.65,2.46,2.84.53,4.93.86,5.56-.11s-.43-2.57-1.07-3.63c-2.17-3.62-3.49-7.7-5.45-11.44s-6.12-11.64-6.73-20.63a18.28,18.28,0,0,0-1-5.24c-1.49-4.26-4.88-8.38-6.73-7.8-.52.16-.76.65-1.28,1.82a43.32,43.32,0,0,0-2.78,7.16s0-.08-4.17,10.9c-1.56,4.1-2.36,6.21-3.21,8.87C375.06,175.86,375.24,177.43,375.76,178.66Z"/><path class="cls-22" d="M336.09,53.7c.24-1.25,1.1-3.14,12-8.27,6.65-3.13,10-4.71,14.91-5.83,1.33-.31,3.47-.74,7-1.62a60.56,60.56,0,0,0,7.3-2.11c2.94-1.21,3.32-1.86,5.35-2.11s2.52.26,4.7-.16c1.77-.34,1.79-.75,3.89-1.3a35.77,35.77,0,0,1,5-.65,52.34,52.34,0,0,0,5.52-.81c2.6-.58,3.36-1.08,5.18-1a5.46,5.46,0,0,1,3.08.81c1.49,1.11,1.64,3.33,1.46,7.13-.24,5.24-.37,7.86-1.46,12.16a76,76,0,0,1-3.56,10.21c-2.79,7.06-3.24,6.86-4.38,10.38-.94,2.9-1.39,6.72-2.27,14.26-1.22,10.47-.91,11.22-2.11,14.1a34,34,0,0,1-6.64,9.89A39.31,39.31,0,0,1,385.2,114c-3,2.15-3.65,2-8.91,5.19-3.78,2.31-4,2.73-5.68,3.24-.42.13-6.09,1.75-8.43-1a5.23,5.23,0,0,1-.81-1.46c-.69-1.66-.55-3-.48-5.19a29.87,29.87,0,0,0,0-4.38c-.57-2.75-2.73-3.22-4.7-5.67-3-3.76-1-6.42-3.57-12.32C350.71,88,349.36,89,347.43,85c-3.81-8,1.11-12.66-2.92-18.15-2.16-3-4.54-2.89-6.8-7.13C336.74,57.88,335.66,55.87,336.09,53.7Z"/><path class="cls-23" d="M308.37,72.83a21.61,21.61,0,0,1,.64-7.78,19.12,19.12,0,0,1,3.08-6c1.69-2.28,2.8-3.77,4.71-4.22.88-.2.93.05,4.37,0a21.53,21.53,0,0,0,3.24-.16c2-.35,2.28-1,4.54-1.78.68-.24.71-.2,5.84-1.14,3.3-.6,3.55-.66,4.21-.64a12.1,12.1,0,0,1,5.19,1.45,23.85,23.85,0,0,1,7.46,5.84,40.55,40.55,0,0,1,4.05,6c2.15,3.54,3.23,5.32,3.57,7.13.52,2.81-.51,3.06-.33,7.29a17.29,17.29,0,0,0,1.62,7.46c1.3,2.55,2.32,2.47,4.05,4.86,3.27,4.52,3.25,9.82,3.25,11.35a34.74,34.74,0,0,1-1.79,9.89c-.89,2.62-1.9,4.47-1.13,6.65.68,1.92,2.32,2.92,1.94,3.56-.24.42-1.07.23-3.4,0-.33,0-3.2-.31-5-.32a20.28,20.28,0,0,0-5,.65c-4.68,1.09-5.75,2.82-7.29,2.27-2.24-.82-2.45-5.33-2.6-7-.74-8.32-6.2-14.45-14.42-23.66C319,83.16,309.24,80.25,308.37,72.83Z"/><path class="cls-24" d="M313.66,103.07c0,.66.06,5.28,2.57,8.53a8.37,8.37,0,0,1,1.79,3.17,24.26,24.26,0,0,1,.39,2.77c.35,2.7.38,2.47.4,3,.07,1.79-.38,2.13-.6,4.36-.12,1.26,0,1.06,0,3.76,0,2.38-.14,2.65-.19,5.16-.07,3.2.12,2.8,0,4.36-.18,2.23-.57,2.87-1,5.75-.2,1.3-.27,2.19-.4,3.76-.5,6,0,6.82-1,8.53-.75,1.28-1.3,1.25-2.38,3.17a19.07,19.07,0,0,1-1.59,3c-1.14,1.46-1.79,1.25-2.38,2.38s0,1.75-.39,3.57c-.08.34-.22.79-2.18,4-1.15,1.85-1.72,2.77-2.18,3.37a29.87,29.87,0,0,1-3.17,3.37c-1.81,1.72-2.62,2.31-3.57,3.18,0,0-2,1.78-7.14,10.11h0s-1.57.92-1.56,1.66,1.46,1.23,2.1,1.46c7.13,2.58,6.51,3.2,8.91,3.35a59.57,59.57,0,0,0,6.4-.76c3.83-.55,3.49-.61,5-.76,5.63-.57,6.52.67,8.53-.46,1-.57,1.29-1.17,4-6.06,3.33-5.92,3.2-5.53,3.44-6.06,2.38-5.28-.23-9.3-1-16.76-.76-7.23.69-12.87,2.22-18.78,2.53-9.8,5.22-10.75,5.86-18.17a35.73,35.73,0,0,0-1.82-14.14c-3.62-11.65-12.67-22.81-16.56-21.4C313.72,96.3,313.65,102.27,313.66,103.07Z"/><path class="cls-25" d="M326.61,175.75c-7.3,11.63-9.75,16.68-9.75,16.68-2.33,4.8-4.8,9.52-7.15,14.3a32.18,32.18,0,0,1-3.47,6.07c-2.95,3.86-4.43,3.56-8.45,7.8a38.58,38.58,0,0,0-6.28,9.1,12.74,12.74,0,0,0-1.74,5.2,11.09,11.09,0,0,0,.17,3.22,7,7,0,0,0,2,4.07,6.14,6.14,0,0,0,3.22,1.19c3.09.57,3.55-.41,6.79,0,1.94.25,2.75.72,3.91.17a5.05,5.05,0,0,0,1.86-1.86,18.08,18.08,0,0,0,2-3.91c1.38-3.41,1.73-3,3.22-6.62.47-1.12.88-2.33,1.7-4.75,1.57-4.62,1.66-5.41,2.55-7.63a46.62,46.62,0,0,1,2.71-5.6,134.18,134.18,0,0,1,9.16-14.26c2.68-3.78,3-4,5.1-7.13,5.06-7.44,5.59-9.39,5.43-11.37a10.83,10.83,0,0,0-3.4-6.61c-1-.94-2.59-2.5-4.58-2.38C329.28,171.57,327.63,174.11,326.61,175.75Z"/><path class="cls-26" d="M327.59,198.49c.62.62,1.19.15,4.08.53a16,16,0,0,1,6.05,1.71c2.62,1.49,3.7,3.63,4.33,3.28.35-.18.23-.93.14-2-.17-1.87.08-3.77,0-5.65,0-.91-.08-3.48,1.84-12,1.21-5.38,2.26-9,2.76-10.78,1.08-4,1-5.31,2.49-21.69,0,0,1.88-21,.35-28.93a37.59,37.59,0,0,0-1.22-4.57,36.19,36.19,0,0,0-1.94-4.39c-.62-1.25-1-2.1-3.16-8.77-2.29-6.94-3.44-10.43-3.55-11.16a65.46,65.46,0,0,1-.47-10.39c.1-3.51.41-5.45-.93-7.43a22.36,22.36,0,0,0-3.56-3.41,39.51,39.51,0,0,0-3.41-2.79c-2.43-1.66-4.64-2.19-7.75-2.94-3.58-.87-5.6-1.36-8.36-.93a12.52,12.52,0,0,0-5.43,2,12.27,12.27,0,0,0-4,4.65c-.65,1.25-1,3.17-1.71,7-.83,4.55-.8,5.77-.77,6.35a19.47,19.47,0,0,0,.93,5,29.16,29.16,0,0,0,2.63,6c.77,1.41,1.52,2.6,2.17,3.56,3.42,5,5.48,5.82,9.61,11.31,1.06,1.41,1.27,1.82,2.32,3.1,1.83,2.21,2.63,2.72,3.56,4.49a7.3,7.3,0,0,1,1.09,3.1,23.45,23.45,0,0,0,0,2.79c.15,1.1.35,1,.46,2,.17,1.46-.27,1.79-.15,3.1s.51,1.08.77,2.48-.13,1.64,0,3.88a13.44,13.44,0,0,1,.16,2.17,7.82,7.82,0,0,1-.78,2.63,18.91,18.91,0,0,0-1.24,4.49c-.31,2.57.49,3.21-.31,4.65a5.09,5.09,0,0,0-.93,1.86c-.15,1,.33,1.31.31,2.17,0,1.55-1.59,1.65-2.16,3.41-.5,1.53.54,1.92.31,4.49-.14,1.48-.49,1.46-.62,3.1a31.45,31.45,0,0,0,.15,3.57,13.16,13.16,0,0,1-.77,4c-1.88,6.17-1.25,5-2.33,8.06-1.48,4.24-3.39,8.63-2.42,9.71a1.84,1.84,0,0,0,1,.57,1.8,1.8,0,0,0,1.19-.3,4.66,4.66,0,0,0,1.71-2c1.83-4,4.31-7.73,6.25-11.7l0,0c.53-1.1.58-1.31.65-1.3.26,0,.29,2.77.29,2.77,0,5,1.71,6,1.82,9.77C329.16,194.39,326.17,197.05,327.59,198.49Z"/><path class="cls-27" d="M393,102.82c-1.1,2.75.27,3.39-1,9a55.62,55.62,0,0,1-2.52,7.58c-1.67,4.3-2.15,4.63-2.74,6.52-1.12,3.59-.59,6.33.21,11.57.89,5.81,1.48,11.65,2.32,17.47,1.79,12.47,1.17,11.59,1.89,14.52.81,3.31,4.74,12.79,12.62,20.62,1.75,1.73,5.08,4.75,4.63,8.2a8.12,8.12,0,0,1-1.68,3.58c-1.87,2.69-3.4,2.83-5.89,5.26a15.42,15.42,0,0,0-4.21,6.31c-.27.83-1.74,5.33.42,7.58a4.77,4.77,0,0,0,3,1.26c9.86,1.19,14.79,1.79,15.78,1.68,7.81-.85,9-3,20-6.31,13.33-4,15-1.89,21.46-5.68a35.84,35.84,0,0,0,13.25-14.31c4.63-8.74,4.44-16.83,4.21-26.09-.19-8.09-1.49-14.75-3.57-25.46-1.24-6.37-2.12-9.56-2.95-16.2A102.89,102.89,0,0,1,467,114.6c.21-10.1,2.38-11.77,4.63-27.15,1.22-8.39,1.82-12.7,1-17.88a34.66,34.66,0,0,0-6.94-17c-3.2-4-11-11.76-16.63-9.68-2.68,1-3.1,3.57-6.73,10.52-1.79,3.43-.63.77-9.05,14.52-11.12,18.17-11.65,20.35-15.78,22.51-4,2.08-4.64.66-12.62,4C398.74,97,394.57,98.81,393,102.82Z"/><path class="cls-28" d="M402.42,151.75c1.07-.18,2.11,6.92,5.95,13.9a43,43,0,0,0,10.43,12.24c6,5.16,11.42,7.53,18.86,10.76,6.06,2.63,9.11,3.95,13.73,4.63,6.09.9,12.1,2.09,16.55-1.16,1.67-1.21,3.37-3.22,4.42-2.68.3.15.73.61.7,3.15a25.84,25.84,0,0,1-1.23,7.18c-.26,1-.52,3.25-1.05,7.8-2.14,18.54-2.18,27.19-2.18,27.19,0,1.55,0,5.37-2.48,7.87a5.63,5.63,0,0,1-3.5,1.77,5.44,5.44,0,0,1-3.49-1.19c-4.84-3.48-10.66-5.4-15.6-8.74a106.34,106.34,0,0,0-18.35-9.91c-8.17-3.39-13.22-5.49-17.49-4.66-1.54.29-3.49.15-7.4-.14a4.39,4.39,0,0,1-2.61-1,1.65,1.65,0,0,1-.67-1.19c.07-.71,1.06-1.15,1.49-1.34a55.59,55.59,0,0,1,12.08-3.88c6.56-1,9.84-1.51,11.4-1.56a61.21,61.21,0,0,1,11.08.7c3.69.6,7.54.29,11.14,1.27.52.15,2.14.61,2.83-.14.2-.22.36-.6.28-1.55a8.25,8.25,0,0,0-1.41-3.81c-2.57-3.52-7.19-6.17-7.76-6.49-3.82-2.15-4.48-2.07-7.76-3.81a56.16,56.16,0,0,1-9.6-6.49,45.6,45.6,0,0,1-9.59-9.88c-2.91-4.24-1.07-3.4-6.21-14-1.48-3-3.46-6.86-3.25-12C401.76,153.9,401.85,151.85,402.42,151.75Z"/><path class="cls-29" d="M404.82,35.38c-1.68,7.75-1.88,5.27-3.57,13.29A141.23,141.23,0,0,0,399,62.94c-1.13,11,.36,10.19-.81,18s-3,10.7-1.62,16.37a35.23,35.23,0,0,0,2.92,7c3.87,8,5.65,7.86,8.26,14.27,1,2.37,1.76,4.93,2.76,4.86.65,0,1-1.18,1.46-2.27.75-1.87.48-.53,4.54-7.45,8.34-14.25,15.07-26.91,15.07-26.91,10.13-19.06,6.69-14.32,12.32-24.32,5.43-9.63,10.54-17.44,7.94-20.58-.39-.48-.64-.47-3.89-1.63,0,0-3.27-1.16-10.37-4.05-6.29-2.55-6-3-9.56-4.21A61.4,61.4,0,0,0,418,29.87c-6.44-.76-9.68-1.12-11,0S405.49,32.24,404.82,35.38Z"/></g><g id="_LAYER-18_P1_" data-name="&lt;LAYER-18_P1&gt;"><path class="cls-30" d="M63.34,226.46a3.14,3.14,0,0,0,.51,2.26c.87,1.1,2.53,1.08,3.16,1.08,4.5,0,9.07.95,13.49.09,9-1.77,12.18,2.43,19.78.08a4.59,4.59,0,0,0,2.31-.83,3.65,3.65,0,0,0,1-2.19,5,5,0,0,0-.78-3.39c-1.4-2.07-4.68-2-7.29-2.15-9.15-.63-9-4.61-15.08-4-3.92.41-7.11,2.42-12.64,5.9C65.89,224.57,64.36,225.68,63.34,226.46Z"/><path class="cls-31" d="M70.28,224c-.91,4.66,1.65,7.92,4,13.17,1.41,3.21,2.31,7.33,4.11,15.58,1.7,7.8,2.55,11.69,2.55,15.15,0,4.26,1.08,8.53.57,12.75-.1.78-.4,3,.85,4.11.55.51,1.41.63,3.11.85a15.77,15.77,0,0,0,4.82.14,19.53,19.53,0,0,0,4.1-1.42,33.61,33.61,0,0,0,5-2.26,15.06,15.06,0,0,0,4.39-4.11,4,4,0,0,0,1-2.83,3.46,3.46,0,0,0-.85-1.7c-.26-.36-.88-1.7-2.12-4.39a43.42,43.42,0,0,1-2.41-6.94,65.24,65.24,0,0,1-2-11.05c-1.51-15-2.26-22.49-1-28.33.19-.88.81-3.49-.43-4.53-.88-.73-2.3-.34-3.11-.14-3.35.82-6.9.24-10.34.43-7.32.39-8.66,0-10.2,1.41A7.11,7.11,0,0,0,70.28,224Z"/><path class="cls-32" d="M88.07,132.47a14.41,14.41,0,0,1,3.32,4.87c.47,1.07,1.1,2.87,1.28,7.42.25,6.17-.75,6.89-.25,11.51a20.64,20.64,0,0,0,1.79,7.16c1.52,3.21,3,3.81,4.61,6.4s1.86,4.68,2.55,10.24c1.47,11.71,2.21,17.58,2.31,18.16,1.31,7.77,2.24,9,2,13.56-.14,3.32-.66,3.55-1,9.22-.22,3.49-.1,4.74-1,5.37-1.64,1.12-4.16-1.35-9.21-3.07a32,32,0,0,0-10-1.54c-3.6,0-9.71.12-14.84,3.84-1.75,1.27-3.35,2.93-5.38,2.56-.59-.11-1.54-.44-3.32-2.56a20.32,20.32,0,0,1-3.84-6.39c-3.23-9.42-1.54-28.15-1.54-28.15a187.77,187.77,0,0,0,.26-28.15c-.52-10.3,1.45-20.74,0-31-.21-1.45-.84-5.57,1.28-7.16,1.28-1,3-.57,8.19.77,6.5,1.66,8.5,2.23,10.74,2.81C83.93,130.43,85.71,130.28,88.07,132.47Z"/><path class="cls-33" d="M154.18,140c.06.88,1,1.06,2.49,2.76a20.84,20.84,0,0,1,1.84,2.7c.47.75.91,1.51,2.69,4.89,1.58,3,1.49,2.88,1.85,3.47,1.06,1.77,1.29,1.81,2.62,4a16.79,16.79,0,0,1,1.56,2.41,2,2,0,0,0,.71,1,1.72,1.72,0,0,0,1,.28,1.67,1.67,0,0,0,1.06-.43,1.78,1.78,0,0,0,.5-1,1.93,1.93,0,0,0,0-.66c0-.21-.09-.28,0-.33s.69.35,1.42.28a2,2,0,0,0,1.13-.56,2.39,2.39,0,0,0,.71-.93,1.7,1.7,0,0,0,.13-.47c0-.31,0-.5,0-.52s.24.52.71.78a2.06,2.06,0,0,0,.85.14,4.81,4.81,0,0,0,1.35,0,2.27,2.27,0,0,0,1.13-.64,2.41,2.41,0,0,0,.57-1.55,13,13,0,0,0-.5-4.19,28.08,28.08,0,0,0-1.41-4.32,15.37,15.37,0,0,0-2.7-4.47c-1.37-1.47-2-1.24-5.74-3.4-4.13-2.36-4.52-3.27-6.52-3.4A8.31,8.31,0,0,0,157,137C156.13,137.54,154.1,138.69,154.18,140Z"/><path class="cls-34" d="M127,110.48c1.25,1.58,2.26,2.71,2.95,3.48,2.69,3,4.8,5.34,7.91,7.37a28.24,28.24,0,0,0,4.29,2.28c3.76,1.73,13.33,5.57,19.57,6.84a4.72,4.72,0,0,1,3.08,1.74,3.88,3.88,0,0,1,.54,2.55c-.21,1.85-1.6,3-3,4.16a10.13,10.13,0,0,1-7.91,2.54,12.64,12.64,0,0,1-5.36-1.87c-3.79-2.28-8.26-3.13-12.34-4.83-13.45-5.6-16.89-5.47-26.81-10.19-9.35-4.44-9.13-6.81-14.21-8-1.15-.28-3.9-.84-5-3-.61-1.22-.49-2.6.13-4.69,1.34-4.48,2.6-8.69,7-11.53,5-3.23,10.26-2.32,12.06-2a18.78,18.78,0,0,1,10.32,5.36C122.73,103.29,122.65,105,127,110.48Z"/><path class="cls-35" d="M163.12,136.62c.59-.87,3.81,1.41,9.28,2.48a18.32,18.32,0,0,1,4.19,1.56,5.3,5.3,0,0,1,1.63,1.2,4.43,4.43,0,0,1,.85,1.35c.32.9,0,1.38-.07,2.62-.15,2.16.64,2.69.14,4.33a2.39,2.39,0,0,1-.85,1.34,2.76,2.76,0,0,1-1.49.43,7.12,7.12,0,0,1-3.12-.5c-1-.38-1.57-.59-1.91-1.2a1.82,1.82,0,0,1,0-1.92,1.35,1.35,0,0,1,.78-.42,18.06,18.06,0,0,1,3.4-.21,12,12,0,0,1-2.84-1.49c-1-.89-.87-1.47-1.7-2.41-1.29-1.47-2.59-1.13-4.46-2.13C164.39,140.29,162.59,137.39,163.12,136.62Z"/><path class="cls-36" d="M9.45,99c-1.85,1.08-.76,5.93.44,11.67,2,9.43,3.46,18.95,5.28,28.41s.62,6.75,3.53,26.2c1.86,12.51,2.34,13.5,4,25.11,1.78,12.72,2.66,19.09,2.64,21.58-.06,7.06-1.11,20,2,20.92a15.44,15.44,0,0,1,3.52.88c1.38.57,1.72,1,2.2.88,1.42-.39,1.36-5,1.32-6.83-.18-9.15-.28-13.72-.44-14.75-2.25-14.51-.1-15-2.64-30.83-1.92-11.94-3-10.48-4.63-22-2-14-.28-14.61-2.64-23.56-3-11.51-6.31-12.06-6.38-20.26-.06-5.68,1.48-9.7-1.33-13.65C14.42,100.15,11,98.1,9.45,99Z"/><path class="cls-37" d="M14.51,107c.55-.94,6.57,1.67,10.57,3.3,7.4,3,13.22,5.4,19.38,6.83,11.33,2.62,18,.68,20.7,5.06a12.53,12.53,0,0,1,1.76,6.61,8.45,8.45,0,0,1-.88,3.74c-1.18,2.26-2.8,2.41-3.08,4.19-.16,1,.2,1.78.88,3.3A23.68,23.68,0,0,0,66,143.5c1.12,1.9.89,3.6.88,6.39,0,5,.72,3.81,1.1,11.67a51.48,51.48,0,0,1,0,9c-.46,4-1.13,4.14-1.76,8.59-.79,5.58.23,5.61-.66,9.46-.76,3.29-1.5,3.24-3.3,9.25-1,3.48-1.21,4.86-.88,6.39s.9,2.11.88,3.74c0,1.79-.73,1.95-1.1,4.19a12.58,12.58,0,0,0,.22,5.06c.44,1.95.86,1.75,1.12,3.1.67,3.56-2.25,4.84-1.91,8.93.13,1.54.61,2.24.12,3.33a4.86,4.86,0,0,1-3.1,2.27c-5.9,1.94-13.46,1.19-17.38.71-5.28-.65-7.45-1.24-8-2.74-.29-.82.09-1.38.47-3.45a35,35,0,0,0,.36-6,82.19,82.19,0,0,0-.48-9.52c-.45-4.53-.71-4.34-1.07-8.1-.34-3.57-.12-3.91-.36-9.77a99.34,99.34,0,0,0-.83-11.43c-.51-3.47-1.25-6.69-1.79-9-.59-2.61-.65-2.59-1.31-5.36a109.18,109.18,0,0,1-2.14-10.72c-.22-1.68-.35-4.37-.59-9.76-.26-5.54-.22-7.24-1-10.13a59.05,59.05,0,0,0-2-5.71c-2.41-6.33-2.82-6.42-3.69-9.41-1.11-3.82-1.67-5.73-1.55-8.34.1-2.36.67-4.21-.36-6.55C15.24,108,14.28,107.34,14.51,107Z"/><path class="cls-38" d="M136.93,78.75c1.06.72-.42,3.64-2.1,11.13-1.38,6.15-2.07,9.22-2.31,12.19-.31,3.82-.18,7.31-1.89,8-.51.2-.85,0-2.11-.21a36.36,36.36,0,0,0-5.67-.42c-3.84-.24-9.86-.63-11.34-3.78-.12-.25-.52-1.16,0-3.57.74-3.49,2.62-6.48,5.88-9.88,2.43-2.53,3-2.59,13.45-10.08C134.73,79.31,136.16,78.22,136.93,78.75Z"/><path class="cls-39" d="M22.45,53.29a11.69,11.69,0,0,0-4.19,2.92,21.73,21.73,0,0,0-3.8,5.45c-4,6.88-3.39,5.56-4.44,7.61-3.08,6-2,5.87-4.82,11.28C3.75,83.3,2.94,86.4,1.14,88.92c-.4.57-1.51,2.08-1,2.92.34.58,1.15.37,2.41,1a6.27,6.27,0,0,1,2.15,1.9,9.53,9.53,0,0,1,1.65,4.31c.5,2,2,3.52,4.95,6.47a40.3,40.3,0,0,0,9.76,7.1c1.21.63,2.18,1.08,9.77,3.8,9.68,3.49,11.3,3.92,15,5.58,3.88,1.77,3.07,1.74,7.86,4.06a136.74,136.74,0,0,0,16.87,6.72c7,2.29,4.29.81,11,2.92,3.4,1.06,5.55,1.89,7,.76s1.54-3.47,1.39-4.82a9.3,9.3,0,0,0-.76-2.66c-.6-1.25-1.08-1.4-1.14-2.16-.1-1.16,1-1.66,1.52-2.91.88-2-.26-4.37-.51-4.82-2-3.77-9.81-.51-16.36-3.17-4.59-1.87-5.37-5.34-11.79-17.25-9-16.73-8.72-12.23-16.36-26.76C40.6,64.49,37.35,57.27,30.94,54.3,29.53,53.65,26,52,22.45,53.29Z"/><path class="cls-40" d="M151.64,59.84a10.92,10.92,0,0,1-1.48,4.83A15.57,15.57,0,0,1,148.27,67a41.22,41.22,0,0,0-3.78,4.62c-1.43,2.64-.19,3.59-1.47,6.1-.94,1.85-1.9,1.88-4.41,4.2-1.09,1-.9,1-6.09,7.56a48.15,48.15,0,0,1-5.26,6.1c-.73.68-1.28,1.14-3.57,2.94-3.88,3-6.92,5.39-7.56,5.88-5.78,4.45-4.95,4.18-8.41,6.72a119.64,119.64,0,0,1-12.18,7.78c-3.1,1.78-2.58,1.35-7.78,4.2-10.16,5.58-12.38,7.36-14.7,6.3-.82-.37-1-.8-3.57-5.25-5.08-8.87-4.14-6.95-5.47-9.45-3.77-7.14-3.09-7-5.67-11.56-.89-1.58-3-4.72-7.14-10.93-5.39-8-5.69-8.37-6.94-10.5C41,76,41.6,75.79,38.81,71.18c-3.93-6.47-5.89-9.71-9.87-12-4.13-2.34-8.43-2.52-8.62-4.62-.05-.62.46-1.39,1.47-2.94a29.61,29.61,0,0,1,2.94-3.79,90,90,0,0,1,7.15-6.51c6.5-5.35,5.81-5.42,10.29-8.82,3.18-2.41,2.88-1.89,7.15-5.05,4.46-3.3,5-4,9.24-7.14a70.09,70.09,0,0,1,7.77-5.25c3-1.67,5.6-2.59,10.72-4.41A73.66,73.66,0,0,1,88,7.31a58.12,58.12,0,0,1,10.3-1,56.71,56.71,0,0,1,11.35.63,45.9,45.9,0,0,1,13,4c4.83,2.36,5,3.59,8.83,4.62a4,4,0,0,1,3.25,3.42c.14.59-1.35-.2-1.95,1.65,0,0-.3.94-.75,3.1a38.72,38.72,0,0,0-.25,9c.25,6,.43,8.18,1.08,11A10.45,10.45,0,0,0,134.78,48c.61.77,5.11-1.07,6.93-.73a14,14,0,0,0,2.34.08c1.47,0,1.7-.12,2.18-.08,2.21.14,3.78,2.75,4.18,3.43C151.86,53.06,151.7,58.8,151.64,59.84Z"/><path class="cls-41" d="M155.48,17.05c-1.73.06-1.91,1.74-5.94,3.64-2.35,1.12-4.91,2.32-7.67,1.73-3.63-.79-7.14-5.23-8.92-4.56-1,.38-.26,2.84-.62,4.18a14.86,14.86,0,0,0,0,6.7c.27,1.72-.28-1.31.77,9.59.56,5.83.82,7.77,2.3,9.77a6.43,6.43,0,0,0,4.17,2.11c1.08-.06,1.2-1,2.3-1.53,2.59-1.2,7.07,1.59,9.59,4,1.27,1.23,1.65,2,2.68,2.11,1.25.15,2.69-.71,4.6-3.26,6.32-8.42,6.13-16.48,6.13-16.48C164.68,26.27,159.62,16.92,155.48,17.05Z"/><path class="cls-42" d="M183.06,34.22c-.91.34.36,3.48.76,12,.18,3.81.1,6.88,1.51,10.32A15.23,15.23,0,0,0,188,60.83a9.43,9.43,0,0,0,2.84,2.37,13.52,13.52,0,0,0,3.4.94c4.05.84,4.48.49,4.64.29.37-.47.12-1.22-.19-2.09A14.3,14.3,0,0,0,196,58.08c-1.11-1.52-1.16-2.47-2.08-5.21a61.12,61.12,0,0,0-4.36-9.75C189,42.08,184.59,33.66,183.06,34.22Z"/><path class="cls-43" d="M59.39,61.68c-.31.26-.14.2-3.14,6.55-.78,1.63-1.53,3.28-2.32,4.91-1.86,3.8-2.08,3.9-2,4.5.15,3.26,6.77,5.42,10.24,6.55,4.26,1.39,10.17,3.24,16.51,1.09,1.8-.61,4.46-1.55,5.73-4.09A7.85,7.85,0,0,0,84.77,76c-.2-1-1.16-4.86-7.37-9.27C72.89,63.52,63.21,58.35,59.39,61.68Z"/><path class="cls-44" d="M82.41,276.55c-.7,1.54-.2,1.81-.94,7.49a48.07,48.07,0,0,1-1,5.74c-1.14,4.5-2.54,5.72-2,8.08a4.69,4.69,0,0,0,1.89,2.82c1.13.65,2.28.27,3.6-.09,2.17-.6,4.41-.78,6.6-1.27,1.38-.3,3.46-.49,7.63-.87,1.92-.18,2.62-.22,11.31-.78,5.89-.38,6.53-.43,8-.39,2.73.06,3.1.28,6.94.39,4.25.11,3.48-.16,6.43,0,.71,0,2.19,0,5.14-.2a3.23,3.23,0,0,0,2.66-1,2.82,2.82,0,0,0,.52-1.95,2.62,2.62,0,0,0-.86-1.55,3.57,3.57,0,0,0-2.15-.88c-1.51-.2-1.92.25-3.33.13a7.54,7.54,0,0,1-2.24-.62,31.94,31.94,0,0,1-5.74-2.72c-3.75-2.29-4.27-1.59-9.69-4.38-4.8-2.48-7.2-3.72-9-5.75-2.66-3-3-5.34-6.34-7.59a9.5,9.5,0,0,0-4.37-1.75c-2.31-.24-4,.61-6.43,1.85C85.47,273.15,83.5,274.17,82.41,276.55Z"/><path class="cls-45" d="M91.9,277.89c.47,2.69,1.12,6.41,4.09,7.59,2.65,1.06,5.38-.61,5.65-.78a5.62,5.62,0,0,0,2.72-3.4c.13-.63.18-1.66-2.92-6.43-2.67-4.11-3.49-4.55-4.18-4.77a4.79,4.79,0,0,0-4.48.88C91,272.62,91.49,275.49,91.9,277.89Z"/><path class="cls-46" d="M37.07,239.53c-1.23,1.73-.18,3.2,2.83,13.88,2.36,8.37,3.54,12.66,4,17.7.4,4.83.56,8.22.56,8.22.11,2.31.32,4.62.43,6.94.12,2.68.1,3.41.56,4.53a9.6,9.6,0,0,0,3.83,4.25,14.76,14.76,0,0,0,6.8,2.26,16,16,0,0,0,8.07-.56,9.09,9.09,0,0,0,4.67-3.12c.29-.4,1.89-2.62,1.28-5a5.74,5.74,0,0,0-1-1.84c-1.13-1.66-2-3.5-3-5.24a47.68,47.68,0,0,1-3.68-8.35,41,41,0,0,1-2-11.9c-.78-14.74-1.68-22.07-1-26.63.09-.6.33-2.13-.43-2.69-1.24-.91-3.93,1.6-7.36,3.4C44,239.46,39.29,236.39,37.07,239.53Z"/><path class="cls-47" d="M162.71,9c-1.14.59-2.58,2.22-5.47,5.46s-4.41,5-5.17,6.84c-2.16,5.36-.09,10.67.31,11.7s1.07,2.52,5.77,7.75c8.2,9.12,12.62,11.58,14.74,12.61a14.19,14.19,0,0,0,7,1.67,17.1,17.1,0,0,0,3.95-.76,24,24,0,0,0,5.78-2.43c5-3.29,4.33-13,4.25-14.28-.61-9.4-6.38-15.77-8.81-18.39C179.48,13.19,168.87,5.74,162.71,9Z"/><path class="cls-48" d="M147.71,46.51c0,1.75.5,2.36.6,6,0,.8,0,1.92.1,4a14.32,14.32,0,0,0,.5,4,5.87,5.87,0,0,0,1,2.21c.93,1.14,2.19,1.49,3.73,1.92a8,8,0,0,0,3.22.5c.75-.08,2.32-.38,3,0a3.21,3.21,0,0,1,.66.46c.2.2.24.32.43.43a1.28,1.28,0,0,0,.66.13,6.88,6.88,0,0,0,1,0,1.32,1.32,0,0,0,.91-.57c.06-.11,0-.17,0-1,0-.6,0-.51,0-.78s0-.69,0-1.13-.08-.8,0-.83.19.14.52.48l.66.61.86.78c.62.54.7.58.79.61.29.1.31,0,1,0a3.66,3.66,0,0,0,.78,0,.94.94,0,0,0,.65-.21c.17-.18.07-.34.18-.7s.13-.25.52-.87a7,7,0,0,1,.52-.82,2,2,0,0,1,.87-.61.77.77,0,0,1,.61,0c.14.09.11.21.26.53,0,.07.18.29.48.73a2.13,2.13,0,0,0,.39.53,2.76,2.76,0,0,0,.56.26,5.22,5.22,0,0,0,.65.21,2,2,0,0,0,.79.09,1.66,1.66,0,0,0,.82-.39,3,3,0,0,0,.87-1.09,19.28,19.28,0,0,0,1-2.6,8.73,8.73,0,0,1,1.69-3.08c1.49-1.64,3.39-1.82,3.32-2.58,0-.34-.42-.55-.72-.72a12.25,12.25,0,0,1-4.14-4.78,11.91,11.91,0,0,1-1.2-4,20,20,0,0,0-5.64-9.9c-.72-.65-5.49-5-10.9-3.76-3.52.79-5.43,3.49-8.64,8C149.15,41.75,147.75,43.72,147.71,46.51Z"/><path class="cls-49" d="M172.49,26.86c-.17-1.69-.25-2.54-.72-3.08a4.12,4.12,0,0,0-3-1.05,7,7,0,0,0-3.4.65,8,8,0,0,0-3.73,4.37,8,8,0,0,0-.65,5.11,5,5,0,0,0,1,2,2.77,2.77,0,0,0,1.3,1,3.25,3.25,0,0,0,2.59-.65,5.82,5.82,0,0,0,1-.89c1.42-1.37,2.21-1.13,3.81-2.43a4.89,4.89,0,0,0,1.7-1.95A6.33,6.33,0,0,0,172.49,26.86Z"/><path class="cls-50" d="M53.79,77a4.7,4.7,0,0,0-2.59,2.73,5.44,5.44,0,0,0,.55,3.55,10.85,10.85,0,0,0,1.77,3,49.35,49.35,0,0,0,5.87,5.87c6.8,5.75,6.23,5.34,7.09,6,2.52,1.92,4.58,3.26,7.64,5.18,5.44,3.42,8.15,5.13,12.56,7.65,2,1.16,23.28,14.16,26.74,16.92a7.79,7.79,0,0,0,2.19,1.22,5.05,5.05,0,0,0,2.86.41,4.86,4.86,0,0,0,3.14-2.73c.49-1.13.33-2.16,0-4.23s-.56-3.55-1.64-4.91a7.39,7.39,0,0,0-3.14-2.18c-2.43-1.11-2.41-1.82-8-6.55-2.86-2.41-5.37-4.29-10.37-8-5.85-4.4-5.66-4-6.27-4.78-3.67-4.52-2.43-8.38-6.69-12.14a8.08,8.08,0,0,0-4.09-2.19c-1.92-.3-2.81.46-5,.55-1,0-2-.06-5.6-1.23-4.52-1.45-5.18-2-8.73-3.14C56.42,76.13,54.85,76.46,53.79,77Z"/><path class="cls-51" d="M135,17.85a3.73,3.73,0,0,0-3.24-1,2.78,2.78,0,0,0-1.2.72,3.61,3.61,0,0,0-.78,2.53c0,4.17-.78,1.67-.48,9.84.11,3,.28,5.21.42,6.73a51.63,51.63,0,0,0,1,6.84c.78,3.56,1.51,4.71,2,5.41a7.09,7.09,0,0,0,3.12,2.52,10,10,0,0,0,3.85.42,23.32,23.32,0,0,1,2.4-.12,2.54,2.54,0,0,0,2.16-1.17,1.44,1.44,0,0,0,0-1.45,1.3,1.3,0,0,0-.31-.4c-.38-.31-.86-.25-1.49-.22-.79,0-1.35,1.11-2.28,1a6.21,6.21,0,0,1-1.4-.18,5,5,0,0,1-1.68-.84A5.61,5.61,0,0,1,135.69,47a18.1,18.1,0,0,1-2.07-6.59c-.38-3.62,0-3.38-.27-7.52-.35-4.66-.53-7-.54-7A7.91,7.91,0,0,1,133,22a8.17,8.17,0,0,1,1-1.8,6.3,6.3,0,0,1,.63-.71,2.91,2.91,0,0,0,.24-.23C135,19,135.16,18.64,135,17.85Z"/><path class="cls-52" d="M113.55,128.55c-.62.5.54,2.91.64,3.12a10.24,10.24,0,0,0,1.47,2.21,26.71,26.71,0,0,1,2.21,2.39,4.57,4.57,0,0,1,.64,1,5.56,5.56,0,0,1,.09,2.85,24.48,24.48,0,0,0,.28,3.22,32.36,32.36,0,0,0,.55,3.4c.41,1.89.66,2.26,1,2.48s1,.24,2,.19c1.31-.07,2-.1,2.39-.55.22-.25.22-.45.46-1.84a13.36,13.36,0,0,0,.36-2.21c-.06-.89-.42-.88-1.19-2.85a5.11,5.11,0,0,1-.55-2.11,11.31,11.31,0,0,1,.27-1.66h0a2.83,2.83,0,0,1,1.66.64c.3.35.21.7.27,1.48a9.64,9.64,0,0,0,.56,2.29c.68,2.6-3.29,7.93-2.58,8.56.51.44,3.33-1.6,4.87-3a18.5,18.5,0,0,1,2-1.75c1.22-.87,1.49-.79,1.84-1.28,1-1.39,0-3.66-.28-4.23a8.23,8.23,0,0,0-2.39-3c-2.13-1.78-3.13-1.42-6.25-3-.81-.42-2.66-1.66-6.35-4.14C115.09,129,114,128.19,113.55,128.55Z"/><path class="cls-53" d="M113.91,124.51a7.14,7.14,0,0,0-.36,4.4,6.67,6.67,0,0,0,1.17,2.44c1,1.26,1.94,1.57,4.22,2.72,3.56,1.82,2.9,2,5.25,3s3.11.95,4.72,2.1a8.33,8.33,0,0,1,2.36,2.23c1.55,2.29.78,4.11,2.3,5a6.91,6.91,0,0,0,2.16.66,2.29,2.29,0,0,0,1.38,0,1.81,1.81,0,0,0,.92-.92,2.42,2.42,0,0,0-.13-1.64c-.64-2.3-.72-2.5-.72-2.5a16.91,16.91,0,0,1-.79-2.82c-.06-.39-.11-.89-.13-1.05-.1-.89-.12-1.52-.13-1.7a8.69,8.69,0,0,0-1.9-4.4,10.1,10.1,0,0,0-1.84-1.71,41.29,41.29,0,0,1-5.64-5c-1.84-2.1-2.14-3.41-4.27-5.12a4.16,4.16,0,0,0-2.69-1.12,5.85,5.85,0,0,0-2,.59,8.5,8.5,0,0,0-2.43,1.25A5.14,5.14,0,0,0,113.91,124.51Z"/><path class="cls-54" d="M45.59,284c-1.38,2.76.06,3.18-1.51,7.91a14.21,14.21,0,0,0-.84,4.62,6.18,6.18,0,0,0,.47,2.63,5.79,5.79,0,0,0,1.5,2.08,6.29,6.29,0,0,0,3.57,1.35c3.25.36,3.36,1.59,9.49,3.4A58.74,58.74,0,0,0,69,308c1,.1,3.7.24,9.16.51,4.87.24,4.44.18,7.12.34,1.69.1,3.79.23,6.78.34,0,0,1.61,0,4.24,0a22.2,22.2,0,0,0,4.24-.51c1.4-.31,2-.6,2.34-1.17a2.3,2.3,0,0,0,.19-1.75,3.17,3.17,0,0,0-2-2,7.26,7.26,0,0,0-2.44-.19c-1.51,0-1.76.14-2.53.09a7.1,7.1,0,0,1-3-1c-3.64-1.87-2-.53-7.11-3.31-1.71-.92-4.21-2.28-7.69-4.48-5.25-3.32-7.88-5-10.12-7.2-1.63-1.61-2.51-2.81-5.74-5.94-2.32-2.23-3.45-3.16-5.16-3.6a9.2,9.2,0,0,0-5.36.39A11.52,11.52,0,0,0,45.59,284Z"/><path class="cls-55" d="M50.66,293.45c2-1,2.78-.58,3.75-1.53,1.26-1.24,1.18-3.21,1.14-4.2A9.76,9.76,0,0,0,53.11,282c-1-1.2-3.28-4.12-5-3.59-2,.6-2.12,5.28-2.22,9,0,1.34-.21,7.78,1.53,8.18C48.14,295.76,48.44,294.58,50.66,293.45Z"/><path class="cls-56" d="M85.85,304.56c.77-.59,1.81-.5,4.2.07a21.14,21.14,0,0,1,4.27,1.21c2,1.08,3.9,3.09,3.49,4-.18.39-.77.49-1.57.64a6.93,6.93,0,0,1-2.63-.07c-3.59-.81-5.39-1.21-6.91-2.5-.6-.51-1.68-1.45-1.49-2.42A1.55,1.55,0,0,1,85.85,304.56Z"/><path class="cls-57" d="M79.86,304.56c.77-.59,1.81-.5,4.2.07a21.36,21.36,0,0,1,4.27,1.21c2,1.08,3.9,3.09,3.49,4-.18.39-.77.49-1.57.64a6.93,6.93,0,0,1-2.63-.07c-3.59-.81-5.39-1.21-6.91-2.5-.6-.51-1.69-1.45-1.5-2.42A1.59,1.59,0,0,1,79.86,304.56Z"/><path class="cls-58" d="M76.05,304.92c.63-.42,1.43-.29,3.24.26a17.36,17.36,0,0,1,3.23,1.15c1.48.93,2.85,2.57,2.49,3.24-.16.29-.62.34-1.24.42a5.13,5.13,0,0,1-2-.19c-2.72-.8-4.09-1.19-5.19-2.26-.44-.42-1.23-1.2-1-1.94A1.24,1.24,0,0,1,76.05,304.92Z"/><path class="cls-59" d="M70.89,304.43c.67-.34,1.44-.11,3.17.65a17,17,0,0,1,3.08,1.52c1.36,1.1,2.52,2.9,2.08,3.52-.19.27-.65.27-1.28.26a5,5,0,0,1-2-.42c-2.61-1.12-3.91-1.68-4.89-2.87-.38-.47-1.07-1.34-.79-2A1.21,1.21,0,0,1,70.89,304.43Z"/><path class="cls-60" d="M27.08,230.5c-1.13.39-1.6,2.08-1.74,2.57-.31,1.12,0,1.23-.33,2.56a7.23,7.23,0,0,0-.58,2.15,2.29,2.29,0,0,0,.42,1.57c.71.79,2,.09,3.88.25s1.83.9,4,1.49c1.5.41,2.18.24,5.87.16,0,0,2.61-.05,5.38,0,5.07.1,5.77.52,8.35.09a12.74,12.74,0,0,0,4.14-1.16c2.08-1.07,2.52-2.2,4.22-2.32,1.26-.08,2,.47,2.73-.08.29-.23.5-.61.66-1.82.29-2.3.48-3.85-.42-4.71s-2.08-.59-4.13-.25c-2.32.38-3,.94-6.29,2A19.77,19.77,0,0,1,48,234.22c-1.31.08-1.66-.09-5-.57-4.07-.58-3.94-.39-7.2-.91S30.88,232,30,231.5C28.74,230.88,28,230.2,27.08,230.5Z"/><path class="cls-61" d="M61.91,228.06a4.18,4.18,0,0,0,2.88,2.07,3.6,3.6,0,0,0,2.3.06c1.13-.44,1.4-1.51,2.07-2.48,1.1-1.58,2.72-2.09,6-3.1a24,24,0,0,1,6.73-1,33,33,0,0,1,6.55.52c3.76.59,6.4,1,9.55,2.42s5,3,6.61,2.18a3.38,3.38,0,0,0,1.38-1.61c.3-.73.13-1.11.11-3,0-2,.18-2.13-.06-2.59-.46-.89-1.5-1.08-3.5-1.61-1.55-.4-3.06-.91-4.6-1.32-.91-.24-.49-.14-7.42-2.24a52.33,52.33,0,0,0-5.06-1.44,18.84,18.84,0,0,0-6-.52A15.36,15.36,0,0,0,73,216.79c-3.65,2.18-3.35,3.57-6.84,5.17a7.68,7.68,0,0,0-2.88,1.73C63.05,224,61.1,226.09,61.91,228.06Z"/><path class="cls-62" d="M90.88,19.53c2-.89,4.51,0,9.61,1.72,4.16,1.42,6.82,2.32,9.18,4.87,1.18,1.28,2,2.86,3.58,6C115,35.51,115.81,37.2,116,39c.06.66.17,2.65-2.3,8.18-2.06,4.61-2.82,4.75-4.87,9-2.87,6-3.94,4.2-6.24,7.68-2.93,4.42-4.9,3.87-6.45,7.74-1.26,3.13-2.54,1-4.38,4.13a11.82,11.82,0,0,1-4.44,4.3,4.56,4.56,0,0,1-2.44.72c-1.8-.1-3-1.64-3.59-2.3-2.16-2.59-.46.9-2.87-1.47a58.83,58.83,0,0,0-10.76-8.18c-3.28-2-4.92-3.06-5.73-3.44-2.3-1.08-4.34-1.69-4.3-2.58,0-.52.72-.66,1.57-1.44a7.38,7.38,0,0,0,2-4c.58-2.2,2.39-4.24,6-8.32,4.57-5.13,5.49-4.51,10.19-9.47a48.29,48.29,0,0,0,7.46-9.46C88.5,23.85,87.94,20.84,90.88,19.53Z"/><path class="cls-63" d="M57.23,63.72A1.55,1.55,0,0,1,57,62.6a3.16,3.16,0,0,1,.58-1.71,6.18,6.18,0,0,1,4-2.24,7.36,7.36,0,0,1,2.83,0c2.4.51,3,2.09,6.93,5.6.62.56,2.11,1.88,4.11,3.36,2.79,2.08,2.83,1.69,4.85,3.26C84,73.78,83,74.4,86.51,77.32a2.88,2.88,0,0,1,1.28,1.87,2.77,2.77,0,0,1-1.87,2.61,2.37,2.37,0,0,1-.85.11,4.24,4.24,0,0,1-2.67-1.82c-1.08-1.26-2.63-2-3.89-3.14,0,0-2.79-2.41-5.71-4.7-3.18-2.49-2.45-1.58-7.09-5-3.29-2.43-4.7-3.66-6.4-3.36C58.85,64,57.73,64.27,57.23,63.72Z"/><path class="cls-64" d="M154.2,3.33a10,10,0,0,0-1.61,2.08c-1.61,2.3-1.68,2.8-1.51,3.13s.55.35,1.42.66a20.82,20.82,0,0,1,2.65,1.42c3.33,2,5.45,5.85,7.29,5.3.45-.14.79-.52,1.42-1.23a3.48,3.48,0,0,0,1.13-2c0-1.1-1.48-1.89-2.27-2.36C157.46,7.2,156.1,2.64,154.2,3.33Z"/><path class="cls-65" d="M189.25,6.73a1.88,1.88,0,0,1,1.47,0,3.25,3.25,0,0,1,1.49.91,2.74,2.74,0,0,1,.7,1.36c0,.24.2,1.16-.26,1.53-.63.51-2-.38-2.37-.62s-1.86-1.21-1.68-2.27A1.36,1.36,0,0,1,189.25,6.73Z"/><path class="cls-66" d="M158.58,13.94A21.54,21.54,0,0,0,162.74,8a9.81,9.81,0,0,0,1-5.07c-.12-1.28-.54-2.41,0-2.83s1.07,0,1.79.22a31.93,31.93,0,0,0,4.85.45c3.27.2,4.87.41,8,.82.29,0,.93.12,1,.37s-1.1.8-1.86,1.12c-1.7.71-3.27,1.68-4.93,2.46a21.37,21.37,0,0,0-7.23,5.22c-1.2,1.4-3.48,4.55-4.78,4.41a5.44,5.44,0,0,1-.55-.11c-.62-.15-1.72-.54-1.69-.92A.31.31,0,0,1,158.58,13.94Z"/><path class="cls-67" d="M177.32,2.28a6.93,6.93,0,0,1,3.1,0,10,10,0,0,1,2.77,1.3c1.6.92,1.53,1.13,3.47,2.27.47.28,1,.58,1,.66a11.48,11.48,0,0,1-2-.43s-.9-.19-1.63-.27c-1-.11-1.92.22-4.72,1.79-1.43.8-2.34,1.32-3.75,2.23a26.87,26.87,0,0,0-3.74,2.66A14.39,14.39,0,0,0,168.52,16s-1,1.8-2.06,2.17a1.23,1.23,0,0,1-.54.06,1.14,1.14,0,0,1-.55-.27,11.25,11.25,0,0,0-1.46-.87c-1.53-1-1.82-1.17-2.12-1.2a1.11,1.11,0,0,1-.56-.17.63.63,0,0,1-.23-.2c-.15-.27.12-.69.22-.84a14.31,14.31,0,0,1,2.12-2.64c1.58-1.41,1-1.49,2.65-3a19.54,19.54,0,0,1,3.58-2.57c1.93-1.16,2-.86,3.86-2C175.65,3.2,175.88,2.64,177.32,2.28Z"/><path class="cls-68" d="M193.59,11.29a20.92,20.92,0,0,1,2.06,2.58c2.26,3.57,3.9,6,4.91,8.53a8.2,8.2,0,0,1,.48,1.72,8,8,0,0,1,0,2.67c-.7,4,.18,9.39-1.6,14.12a36.23,36.23,0,0,0-1.63,3.83,6.27,6.27,0,0,1-.89,1.84,1.8,1.8,0,0,1-.79.74,1.85,1.85,0,0,1-1.57-.32,9.77,9.77,0,0,1-2.89-3.15c-1.88-2.61-3.25-1.6-5.82-4.67A7.22,7.22,0,0,1,184,35.46a4.3,4.3,0,0,1,1.1-3.73c.42-.5.5-.71,2-3.67,2.42-4.79,2.8-5.55,3.57-7.09a14.13,14.13,0,0,0,1.1-2.36,14.38,14.38,0,0,0,.42-5.3c-.12-2-.43-3.1-.06-3.26C192.2,10,192.45,10,193.59,11.29Z"/><path class="cls-69" d="M165.88,17.58c.05.37.31.64.79,1.15A6.25,6.25,0,0,0,168.3,20c.87.47.85.68,4.09,3.21,3.48,2.71,3.36,2.35,6.2,4.62a44.6,44.6,0,0,1,4.15,3.46c.69.87,1.62,2.3,2.36,2.1.2-.05.36-.22.63-.52a4.35,4.35,0,0,0,.79-1.26c.49-1.24,3.06-6.74,4.62-9.51a13.69,13.69,0,0,0,1.73-4.83c.39-2.32.72-4.29-.23-6.14a8.78,8.78,0,0,0-1.47-1.88,12.08,12.08,0,0,0-2.68-2.36,12.45,12.45,0,0,0-2.3-1.09,6.93,6.93,0,0,0-2.46-.55,5.69,5.69,0,0,0-2.54.76c-2.43,1.22-4.21,2.37-6.06,3.51-2.27,1.42-2.31,1.38-3,1.91-1.66,1.25-1.46,1.47-3.54,3.24C166.79,16.17,165.77,16.75,165.88,17.58Z"/><path class="cls-70" d="M182.49,31.34c-.66,1,1.41,8.33,1.41,8.33,1.14,4.06.2,3.67,1.44,8.24a22.51,22.51,0,0,0,3.23,7.52c.27.36,1.3,1.42,3.36,3.52a23.08,23.08,0,0,0,6.42,4.56c.18.08.68.28.82.11s0-.29,0-.34a21.19,21.19,0,0,1-.44-3c-.31-1.32-.18-1.71-.8-5.91-.88-5.94-1.09-4.89-1.09-5.93a4.17,4.17,0,0,0-.68-2.41,3.36,3.36,0,0,0-.38-.45c-1-1-1.62-1.9-3.24-3.72-1.29-1.45-2.68-2.84-5.46-5.62a13.54,13.54,0,0,1-1.76-1.92,18.94,18.94,0,0,1-2-2.78c-.06-.12-.22-.48-.45-.49S182.54,31.26,182.49,31.34Z"/><path class="cls-71" d="M202.45,189.53a5.08,5.08,0,0,1,.05-1.58,2.54,2.54,0,0,1,.62-1.34,1.82,1.82,0,0,1,.87-.54,2.33,2.33,0,0,1,1.49.26,5.54,5.54,0,0,1,1.63,1.09,10.94,10.94,0,0,1,1.83,2.25,15.36,15.36,0,0,1,1.35,2.75,21.62,21.62,0,0,1,1.2,5.23,24.39,24.39,0,0,1-.08,5.45,10.26,10.26,0,0,1-.79,3.2,6.93,6.93,0,0,1-1,1.57,1.87,1.87,0,0,1-1.06.76.92.92,0,0,1-.59-.06,1,1,0,0,1-.43-.42,1.88,1.88,0,0,1-.11-1.26c.27-1.15-.45-6-1.71-9.3C204.77,195.22,202.72,191.32,202.45,189.53Z"/><path class="cls-72" d="M203.13,187.51c-.79,2.24-9,9.72-11.09,10.69a1.56,1.56,0,0,0-.93.87,1.24,1.24,0,0,0,0,.69c.46,1.53.69,2.3,1.17,2.62a2,2,0,0,0,.87.29c1,.11,4.47,1.15,13.18,4.29l1.74,1,1-.58c1.23-.71,1.68-3.54,1.68-3.54a24.63,24.63,0,0,0-.17-8.71,20.26,20.26,0,0,0-2.38-5.69c-.2-.32-1.53-2.44-3.2-2.91a1.73,1.73,0,0,0-1.33.06A1.55,1.55,0,0,0,203.13,187.51Z"/><path class="cls-73" d="M134.68,204.35c5.75-3.08,8.4-1.37,23.45-2.66,7.39-.63,5.52-.94,22.11-2.86,5-.59,14.51-1.64,14.51-1.64h0l.39.56c.63.91.51,5.44.51,5.44h0l-8.33.89c-10.09,1.08-29.9,4.15-42.93,6.37-12.24,2.08-18.36,3.12-19,3.37-.25.1-.94.39-1.11.2C123.76,213.4,128.89,207.46,134.68,204.35Z"/><path class="cls-74" d="M139.41,157.48c.52-1.45,3.41-.47,10.06-2.21a43.84,43.84,0,0,0,8.66-3.22c.41-.22,15.44-7.82,15.44-7.82.51.48,1.21,1.16,2,2,1.38,1.46-10.38,7.93-10.51,8.27s-1,.56-1.29.59c-1.33.16-1.37.59-6.77,3.17-7.14,3.42-10.75,5.11-12.84,4.52C141.24,162,138.87,159,139.41,157.48Z"/><path class="cls-75" d="M76.66,183.18,127,140.69c21.59,17.12,33.82,34.4,33.82,34.4l-39.27,54.48S94.7,198.36,76.66,183.18Z"/><path class="cls-76" d="M160.9,175.18c.12.13.42.46.76.4s.47-.35.66-.67a3.37,3.37,0,0,0,.46-1.12c.14-1-1.06-2-1.53-2.38-1.39-1.17-2.28-2.85-3.6-4.09-4.08-3.86-5.82-6.9-14.74-15.58-.83-.8-3.66-3.55-7.52-7-2.34-2.1-5.07-3.8-7.12-6.19a.86.86,0,0,0-.59-.34,1,1,0,0,0-.65.28,2,2,0,0,0-.89,1.18c-.12.7.56,1.3.88,1.58,4.7,4.06,7,6.1,7.32,6.32.64.53,1.47,1.31,3.12,2.88.49.47,2.4,2.28,5.34,5.29.47.49.67.69,3.93,4.12,4.78,5,4.79,5,5.13,5.37,4.86,4.93,4.75,4.24,5.38,5.4A27.78,27.78,0,0,0,160.9,175.18Z"/><path class="cls-77" d="M132.87,213.91s-5.5-13.17-41.46-43.25"/><path class="cls-78" d="M130.64,216.27S125.07,203,88.87,172.72"/><path class="cls-79" d="M155.36,182.59s-4-11.72-34.5-36.61"/><path class="cls-80" d="M153.31,185.56s-4.22-12.38-34.95-37.47"/><ellipse class="cls-81" cx="98.85" cy="206.66" rx="9.12" ry="32.29" transform="translate(-117.18 130.43) rotate(-45)"/><path class="cls-82" d="M162.76,131.73c.24-.08.79-.22,3.48.56.53.16,1.68.51,3.33,1.14a13,13,0,0,1,3.19,1.49,8.78,8.78,0,0,1,1.84,1.91,19.81,19.81,0,0,1,2.13,4.11c1.18,2.7,1.35,3.48,1.06,4.33a3.23,3.23,0,0,1-.57,1c-.41.54-.9.93-3.9,2.12a6.75,6.75,0,0,1-2.55.64c-1,0-1.28-.26-1.34-.35a2.32,2.32,0,0,1-.15-1.49h0a8.39,8.39,0,0,1,1.78-3.4c.6-.65.82-.57,1.06-1.07a4.36,4.36,0,0,0,.07-2.55h0a24.59,24.59,0,0,1-6.73-1.27,8.1,8.1,0,0,1-3.19-1.78c-.6-.58-1.89-1.86-1.56-3.33A3,3,0,0,1,162.76,131.73Z"/><path class="cls-83" d="M257.89,230.13a22.44,22.44,0,0,0-.13,4.09c.07.54,1,1,1.61,1.45.35-.72,1.12-1.57.95-2.14a18,18,0,0,0-1.87-3.44Z"/><path class="cls-84" d="M230.93,197.27a21.51,21.51,0,0,0,2.48,2.48,3,3,0,0,0,2.07.34c.3-.05.8-1,.66-1.28a3.29,3.29,0,0,0-1.56-1.42,21.85,21.85,0,0,0-3.44-.57Z"/><path class="cls-85" d="M244.61,248.41a17.64,17.64,0,0,0-.2,3.89c.09.56,1.18,1,1.81,1.45.3-.67,1-1.48.83-2a20.12,20.12,0,0,0-1.87-3.47Z"/><path class="cls-86" d="M253.36,261.88a17.63,17.63,0,0,0-.19,3.89c.09.56,1.17,1,1.8,1.45.31-.67,1-1.48.84-2a20.83,20.83,0,0,0-1.87-3.47Z"/><path class="cls-87" d="M219.1,202.78a26.32,26.32,0,0,0,3.06,2.88,3.08,3.08,0,0,0,2.11.24,1.52,1.52,0,0,0,.51-1.36,2.56,2.56,0,0,0-1.44-1.25A35.45,35.45,0,0,0,219.1,202.78Z"/><path class="cls-88" d="M212.27,204.91a17.45,17.45,0,0,0,1.72,3.46c.37.46,1.49.32,2.27.45-.09-.79.11-1.89-.33-2.3a17.46,17.46,0,0,0-3.3-2Z"/><path class="cls-89" d="M230.72,205.71a25.43,25.43,0,0,0,2.31,2.83,2.46,2.46,0,0,0,1.85.44,1.48,1.48,0,0,0,.75-1.25,2.53,2.53,0,0,0-1.19-1.48,23.42,23.42,0,0,0-3.38-.95Z"/><path class="cls-90" d="M232.18,215.79a17.41,17.41,0,0,0,1.23,3.65c.31.52,1.44.54,2.2.78.06-.75.45-1.79.1-2.2a21,21,0,0,0-3.12-2.55Z"/><path class="cls-91" d="M227.86,221.14a29,29,0,0,0-.5,3.91,2.57,2.57,0,0,0,1,1.61,1.33,1.33,0,0,0,1.29-.27,2.63,2.63,0,0,0,.36-1.88,28.14,28.14,0,0,0-1.76-3.46Z"/><path class="cls-92" d="M254.47,217.91a31.25,31.25,0,0,0,1,3.59,2,2,0,0,0,1.36,1,1.53,1.53,0,0,0,1.28-.77,2.07,2.07,0,0,0-.33-1.7,30.08,30.08,0,0,0-2.81-2.47Z"/><path class="cls-93" d="M233.58,232.34a30.91,30.91,0,0,0-.39,3.71,2.12,2.12,0,0,0,.83,1.52,1.49,1.49,0,0,0,1.47-.26,2.41,2.41,0,0,0,.34-1.88,24.35,24.35,0,0,0-1.76-3.3Z"/><path class="cls-94" d="M244.23,207.51a16.53,16.53,0,0,0,1.7,3.45c.39.48,1.51.38,2.3.54-.08-.79.15-1.9-.28-2.31a17.16,17.16,0,0,0-3.34-2Z"/><path class="cls-95" d="M247.29,233.71a23.67,23.67,0,0,0-.08,4.12c.07.49,1.11.84,1.71,1.26.34-.66,1.11-1.47.94-1.94a21.34,21.34,0,0,0-2-3.57Z"/><path class="cls-96" d="M233.41,247.27a19.14,19.14,0,0,0-.11,3.92c.1.56,1.16.95,1.79,1.42.28-.69,1-1.51.78-2a19.17,19.17,0,0,0-1.87-3.4Z"/><path class="cls-97" d="M240.1,261.87a17.82,17.82,0,0,0-.11,3.92c.1.56,1.16.95,1.78,1.42.29-.69,1-1.5.79-2a20.67,20.67,0,0,0-1.88-3.4Z"/><path class="cls-98" d="M257.51,246.07a25.41,25.41,0,0,0-.28,3.67,2.69,2.69,0,0,0,1,1.63,1.35,1.35,0,0,0,1.3-.24,2.62,2.62,0,0,0,.33-1.88,27.37,27.37,0,0,0-1.8-3.26Z"/><path class="cls-99" d="M248.81,272.81a25.19,25.19,0,0,0-.28,3.67,2.69,2.69,0,0,0,1,1.62,1.35,1.35,0,0,0,1.3-.24,2.54,2.54,0,0,0,.32-1.87,24.29,24.29,0,0,0-1.8-3.27Z"/><path class="cls-100" d="M264.64,253.14a25.3,25.3,0,0,0-.28,3.67,2.67,2.67,0,0,0,1,1.62,1.32,1.32,0,0,0,1.3-.23,2.57,2.57,0,0,0,.32-1.88,24.92,24.92,0,0,0-1.8-3.27Z"/><path class="cls-101" d="M244.07,220.22a21,21,0,0,0,.49,3.3,3.28,3.28,0,0,0,1.33,1.64c.24.16,1.32-.34,1.34-.58a3.88,3.88,0,0,0-.43-2.25,18.36,18.36,0,0,0-2.29-2.38Z"/><path class="cls-102" d="M265.56,241.11a17.17,17.17,0,0,0-.18,3.84c.09.56,1.17,1,1.8,1.44.3-.69,1-1.51.8-2a19.09,19.09,0,0,0-1.9-3.37Z"/><path class="cls-103" d="M213.92,194.68a28.61,28.61,0,0,0,3.61,2,2.4,2.4,0,0,0,1.88-.39,1.51,1.51,0,0,0,.15-1.47,2.07,2.07,0,0,0-1.5-.83A36.84,36.84,0,0,0,213.92,194.68Z"/><path class="cls-104" d="M220.54,212.08a31.77,31.77,0,0,0,.7,3.65,2.11,2.11,0,0,0,1.26,1.19,1.5,1.5,0,0,0,1.33-.67,2.4,2.4,0,0,0-.26-1.88,23.88,23.88,0,0,0-2.51-2.52Z"/></g></g></g></svg>