<svg id="BACKGROUNDS" xmlns="http://www.w3.org/2000/svg" viewBox="0 0 4785.4 396.42"><defs><style>.cls-1{fill:#efdfd8;opacity:0.6;}</style></defs><path id="_LAYER-01_SWIRL_ANIMATE_" data-name="&lt;LAYER-01_SWIRL(ANIMATE)&gt;" class="cls-1" d="M3081.31,396.42l-1918.45-9.16H0l54.38-69.94c127.56-164,324-260.54,531.77-258.92,89.1.7,155.41,18.94,185.61,30.12,70.48,26.1,391.1,117.34,391.1,117.34,92.1,24.81,188.38,44.59,356.67,62.43,89.75,9.51,134.63,14.27,175,11.54C1876.07,267.56,1911,178.57,2215.71,56c0,0,156-62.76,313.09-55.39,39.41,1.85,61.47,7.84,77.78,13.85,65.36,24.07,84.72,65.49,151.69,108.46,40.85,26.21,74.19,36.81,110.84,48.46,46.75,14.86,120.35,31.24,213.75,23.08,0,0,189.2-30.11,477-139.3S4065.94,200,4368.61,230.92,4785.4,395.06,4785.4,395.06Z"/></svg>