<svg xmlns="http://www.w3.org/2000/svg" xmlns:xlink="http://www.w3.org/1999/xlink" viewBox="0 0 307.75 428.55"><defs><style>.cls-1{fill:#808663;}.cls-2{fill:url(#linear-gradient);}.cls-3{fill:url(#linear-gradient-2);}.cls-4{fill:url(#linear-gradient-3);}.cls-5{fill:url(#linear-gradient-4);}.cls-6{fill:url(#linear-gradient-5);}.cls-7{fill:url(#linear-gradient-6);}.cls-8{fill:url(#linear-gradient-7);}.cls-9{fill:url(#linear-gradient-8);}.cls-10{fill:url(#linear-gradient-9);}.cls-11{fill:url(#linear-gradient-10);}.cls-12{fill:url(#linear-gradient-11);}.cls-13{fill:url(#linear-gradient-12);}.cls-14{opacity:0.78;fill:url(#linear-gradient-13);}.cls-15{fill:#907256;}.cls-16{fill:url(#linear-gradient-14);}.cls-17{fill:url(#linear-gradient-15);}.cls-18{fill:#933c39;}.cls-19{fill:#886b50;}.cls-20{fill:#b5504a;}.cls-21{fill:url(#linear-gradient-16);}.cls-22{fill:url(#linear-gradient-17);}.cls-23{fill:url(#linear-gradient-18);}.cls-24{fill:url(#linear-gradient-19);}.cls-25{opacity:0.67;fill:url(#linear-gradient-20);}.cls-26{fill:url(#linear-gradient-21);}.cls-27{fill:#886e54;}.cls-28{fill:#80634b;}.cls-29{fill:#909090;}.cls-30{fill:url(#linear-gradient-22);}.cls-31{fill:url(#linear-gradient-23);}.cls-32{fill:url(#linear-gradient-24);}.cls-33{fill:url(#linear-gradient-25);}.cls-34{fill:url(#linear-gradient-26);}.cls-35{fill:#262626;}.cls-36{fill:#c3949b;}.cls-37{fill:#2d2d2d;}.cls-38{fill:url(#linear-gradient-27);}.cls-39{fill:url(#linear-gradient-28);}.cls-40{fill:url(#linear-gradient-29);}.cls-41{fill:url(#linear-gradient-30);}.cls-42{fill:url(#linear-gradient-31);}.cls-43{fill:url(#linear-gradient-32);}.cls-44{fill:url(#linear-gradient-33);}.cls-45{opacity:0.71;fill:url(#linear-gradient-34);}</style><linearGradient id="linear-gradient" x1="43.92" y1="230.06" x2="19.13" y2="210.01" gradientUnits="userSpaceOnUse"><stop offset="0" stop-color="#80634b"/><stop offset="0.41" stop-color="#907256"/></linearGradient><linearGradient id="linear-gradient-2" x1="-1079.62" y1="3154.98" x2="-1089.93" y2="3150.25" gradientTransform="translate(-1256.53 -2809.19) rotate(-41.19)" xlink:href="#linear-gradient"/><linearGradient id="linear-gradient-3" x1="18.52" y1="272.34" x2="4.1" y2="265.72" xlink:href="#linear-gradient"/><linearGradient id="linear-gradient-4" x1="26.24" y1="323.62" x2="43.02" y2="334.17" gradientUnits="userSpaceOnUse"><stop offset="0" stop-color="#80634b"/><stop offset="0.49" stop-color="#907256"/></linearGradient><linearGradient id="linear-gradient-5" x1="16.42" y1="261.51" x2="28.19" y2="245.81" gradientUnits="userSpaceOnUse"><stop offset="0.03" stop-color="#808663"/><stop offset="0.87" stop-color="#99a575"/></linearGradient><linearGradient id="linear-gradient-6" x1="43.05" y1="339.55" x2="5.59" y2="322.37" xlink:href="#linear-gradient"/><linearGradient id="linear-gradient-7" x1="53.33" y1="293.81" x2="28.14" y2="276.41" gradientUnits="userSpaceOnUse"><stop offset="0" stop-color="#808663"/><stop offset="0.75" stop-color="#99a575"/></linearGradient><linearGradient id="linear-gradient-8" x1="30.52" y1="245.53" x2="23.44" y2="242.29" gradientUnits="userSpaceOnUse"><stop offset="0.38" stop-color="#808663"/><stop offset="0.69" stop-color="#99a575"/></linearGradient><linearGradient id="linear-gradient-9" x1="36.52" y1="299.73" x2="33.48" y2="298.33" xlink:href="#linear-gradient"/><linearGradient id="linear-gradient-10" x1="54.5" y1="288.73" x2="39.71" y2="281.94" xlink:href="#linear-gradient"/><linearGradient id="linear-gradient-11" x1="58.86" y1="267.72" x2="36.84" y2="248.81" gradientUnits="userSpaceOnUse"><stop offset="0" stop-color="#808663"/><stop offset="0.49" stop-color="#99a575"/></linearGradient><linearGradient id="linear-gradient-12" x1="29.05" y1="243.06" x2="49.25" y2="243.06" gradientUnits="userSpaceOnUse"><stop offset="0" stop-color="#808663"/><stop offset="1" stop-color="#99a575"/></linearGradient><linearGradient id="linear-gradient-13" x1="34.79" y1="223.39" x2="44.59" y2="228.75" gradientUnits="userSpaceOnUse"><stop offset="0" stop-color="#80634b"/><stop offset="0.34" stop-color="#876a50"/><stop offset="0.93" stop-color="#907256"/></linearGradient><linearGradient id="linear-gradient-14" x1="134.83" y1="21.58" x2="116.98" y2="1.51" gradientUnits="userSpaceOnUse"><stop offset="0" stop-color="#7a808a"/><stop offset="0.46" stop-color="#9fadc1"/><stop offset="1" stop-color="#c9e0ff"/></linearGradient><linearGradient id="linear-gradient-15" x1="-2.06" y1="974.72" x2="-5.91" y2="972.25" gradientTransform="matrix(0.98, -0.21, 0.21, 0.98, -109.82, -905.76)" gradientUnits="userSpaceOnUse"><stop offset="0" stop-color="#80634b"/><stop offset="0.35" stop-color="#907256"/></linearGradient><linearGradient id="linear-gradient-16" x1="134.61" y1="38.36" x2="109.01" y2="5.41" xlink:href="#linear-gradient-14"/><linearGradient id="linear-gradient-17" x1="27.43" y1="999.83" x2="1.23" y2="983.03" gradientTransform="matrix(0.98, -0.21, 0.21, 0.98, -109.82, -905.76)" xlink:href="#linear-gradient"/><linearGradient id="linear-gradient-18" x1="125.11" y1="152.12" x2="191.18" y2="97.74" gradientUnits="userSpaceOnUse"><stop offset="0" stop-color="#c7914a"/><stop offset="0.02" stop-color="#c8924b"/><stop offset="1" stop-color="#ffcd89"/></linearGradient><linearGradient id="linear-gradient-19" x1="121.92" y1="111.58" x2="150.6" y2="111.58" gradientUnits="userSpaceOnUse"><stop offset="0" stop-color="#80634b"/><stop offset="0.48" stop-color="#84674e"/><stop offset="0.94" stop-color="#8f7156"/><stop offset="0.97" stop-color="#907256"/></linearGradient><linearGradient id="linear-gradient-20" x1="146.92" y1="166.77" x2="180.02" y2="126.86" gradientUnits="userSpaceOnUse"><stop offset="0" stop-color="#c7914a"/><stop offset="0.02" stop-color="#c8924b"/><stop offset="0.87" stop-color="#ffcd89"/></linearGradient><linearGradient id="linear-gradient-21" x1="75.17" y1="119.9" x2="144.4" y2="119.9" gradientUnits="userSpaceOnUse"><stop offset="0" stop-color="#80634b"/><stop offset="0.54" stop-color="#907256"/></linearGradient><linearGradient id="linear-gradient-22" x1="-276.03" y1="41.49" x2="-293" y2="-1.08" gradientTransform="matrix(1.1, 0, 0, 1.12, 423.45, 4.91)" xlink:href="#linear-gradient-14"/><linearGradient id="linear-gradient-23" x1="-1004.06" y1="2981.8" x2="-1014.18" y2="2974.98" gradientTransform="translate(-1128.86 -2841.45) rotate(-41.99)" xlink:href="#linear-gradient-13"/><linearGradient id="linear-gradient-24" x1="164.83" y1="1042.18" x2="207.45" y2="1042.18" gradientTransform="translate(-120.45 -698.72) rotate(-9.87)" xlink:href="#linear-gradient"/><linearGradient id="linear-gradient-25" x1="-702.05" y1="3198.84" x2="-729.02" y2="3186.47" gradientTransform="translate(-1189.9 -2500.05) rotate(-39.58)" xlink:href="#linear-gradient"/><linearGradient id="linear-gradient-26" x1="-399.84" y1="2777.59" x2="-427.66" y2="2764.83" gradientTransform="matrix(0.84, -0.54, 0.54, 0.84, -862.44, -2136.03)" xlink:href="#linear-gradient"/><linearGradient id="linear-gradient-27" x1="214.98" y1="353.11" x2="257.31" y2="353.11" xlink:href="#linear-gradient"/><linearGradient id="linear-gradient-28" x1="230.39" y1="356.7" x2="255.52" y2="356.7" xlink:href="#linear-gradient"/><linearGradient id="linear-gradient-29" x1="-923.69" y1="3316.69" x2="-907.08" y2="3294.54" gradientTransform="translate(-1339 -2711.17) rotate(-43.01)" gradientUnits="userSpaceOnUse"><stop offset="0.03" stop-color="#c3949b"/><stop offset="0.87" stop-color="#e8c6c9"/></linearGradient><linearGradient id="linear-gradient-30" x1="-867.06" y1="3349.43" x2="-910.18" y2="3321.36" gradientTransform="translate(-1339 -2711.17) rotate(-43.01)" gradientUnits="userSpaceOnUse"><stop offset="0" stop-color="#c3949b"/><stop offset="0.41" stop-color="#d9b2b6"/><stop offset="0.75" stop-color="#e8c6c9"/></linearGradient><linearGradient id="linear-gradient-31" x1="-906.59" y1="3292.31" x2="-913.66" y2="3289.07" gradientTransform="translate(-1339 -2711.17) rotate(-43.01)" gradientUnits="userSpaceOnUse"><stop offset="0.38" stop-color="#c3949b"/><stop offset="0.69" stop-color="#e8c6c9"/></linearGradient><linearGradient id="linear-gradient-32" x1="297.65" y1="348.3" x2="257.5" y2="313.83" gradientTransform="matrix(1, 0, 0, 1, -15.25, 0.1)" gradientUnits="userSpaceOnUse"><stop offset="0" stop-color="#c3949b"/><stop offset="0.58" stop-color="#e8c6c9"/></linearGradient><linearGradient id="linear-gradient-33" x1="-242.45" y1="2354.75" x2="-217.61" y2="2354.75" gradientTransform="translate(-647.47 -1881.34) rotate(-27.91)" gradientUnits="userSpaceOnUse"><stop offset="0.01" stop-color="#c3949b"/><stop offset="1" stop-color="#e8c6c9"/></linearGradient><linearGradient id="linear-gradient-34" x1="-1060.04" y1="3428.84" x2="-1069.7" y2="3423.77" gradientTransform="translate(-1468.78 -2860.75) rotate(-45.77)" gradientUnits="userSpaceOnUse"><stop offset="0" stop-color="#80634b"/><stop offset="0.3" stop-color="#876a50"/><stop offset="0.84" stop-color="#907256"/></linearGradient></defs><g id="PEOPLE"><g id="_LAYER-18_P17_" data-name="&lt;LAYER-18_P17&gt;"><polygon class="cls-1" points="43.51 236.12 46.42 235.52 47.22 236.97 44.06 239.6 43.51 238.24 43.51 236.12"/><path class="cls-2" d="M48.38,231l1.7-1.77,1.67-1.72a13.71,13.71,0,0,0,4.75-6.36,25,25,0,0,0,.59-6.6,15.55,15.55,0,0,0-3.38-10,15.26,15.26,0,0,1-1.26-1.62c-.22-.37-.22-.88-.88-.59-.11,0-.36-.14-.5-.26a8,8,0,0,0-3.91-2c-.91-.19-1.78-.53-2.62-.79-1.1.72-3.33-.19-4.49.05.06.09.12.14.12.19a.31.31,0,0,1-.05.19,8.68,8.68,0,0,0-4.59.86c-1.67.63-3.41,1.09-5.07,1.75a16.53,16.53,0,0,0-3.06,2.39,14.58,14.58,0,0,0-2.48,3.5c-1.44,2.58-2.48,5.15-1.8,8.17a21,21,0,0,1,.28,2.51,2.68,2.68,0,0,1-1.23,2.6c-.3.22-.61.42-.9.66a1.39,1.39,0,0,0-.05,2.39,1.09,1.09,0,0,1,.15,1.74c-.67.7-.42,1.22,0,1.85.18.26.34.72.22.94-.66,1.23-.58,1.08.62,1.77.29.17.42.29.39.62-.08,1-.34,1.9,0,2.62.79,1.49,5.27,1.77,5.3,1.77h0l1.56-.06,1.37-.1h0a4.79,4.79,0,0,1,.49,1.08,7.45,7.45,0,0,1-.07,2.83A11.7,11.7,0,0,1,29.53,242c-.88.73-1.58.28-3,3.46-.07.15-.35.79-.24.85s1.16,6.24,2.25,5.43c.53-.39,1.32-3.81,1.71-4,1.53-.71,1.47-2.9,5.14-4.48,2.8-1.21,4.21.23,5.78-1,1-.75,3.44-2.78,3.44-2.78l-.51-3.76a4.54,4.54,0,0,1,.2-2.06c.13-.29.35-.57,1.47-1.27A22.62,22.62,0,0,1,48.38,231Z"/><path class="cls-3" d="M2.73,273.46c-.41.21-1.64.31-1.74.93a2.45,2.45,0,0,1-.1.89c-.15.34-.32.33-.43.61-.16.43.16.61.1,1.12-.07.66-.64.81-.55,1.21s.7.38.8.82-.26.5-.19.89.34.31.64.72c.45.63.18,1.16.59,1.41.17.11.37.09.77.05a3.77,3.77,0,0,0,1.17-.3,8.88,8.88,0,0,0,1.75-1.13A12.59,12.59,0,0,0,7.4,279,6.94,6.94,0,0,0,9,276.16,1.69,1.69,0,0,0,7.78,274C4.52,273.14,4,272.86,2.73,273.46Z"/><path class="cls-4" d="M16.33,261.17c-2.32.91-3.62,2.62-5.23,4.73-2.5,3.29-4.27,7.41-6.34,8a3,3,0,0,0-1.24.62,2.88,2.88,0,0,0-1,2,2.59,2.59,0,0,0,.75,2,2.8,2.8,0,0,0,2.11.49,3.76,3.76,0,0,0,2.24-.62c.79-.57.69-1.11,1.74-2.61a14.63,14.63,0,0,1,1.12-1.37c1.54-1.57,2.85-1.46,4.48-2.61A10.17,10.17,0,0,0,17.32,269c3.8-5.05,6.51-6,6.09-7.21S19.24,260,16.33,261.17Z"/><path class="cls-5" d="M34,298c-.71,1.34-.81,4.18-1,9.84a8.38,8.38,0,0,1-.29,2c-.27.92,1.71,5.64,1.51,6.36-.15.57-.13-.22,0,1.49.25,3.22.26,5.72.44,6.3.32,1.05.78,2.28,1,3.29a5.28,5.28,0,0,1,0,2.31c-.24,1.29,0,8.84.58,19.47,0,0,0-.91.43,6.85v1.12a6.59,6.59,0,0,1-1.06.53,24.53,24.53,0,0,1-3.93.9c-3.16.59-3.19,2.13-5.43,2.33-.36,0-1,.17-2.32.44-1,.2-1.35.3-1.44.57s.36,1,.86,1.31a2.72,2.72,0,0,0,1.74.29,150.12,150.12,0,0,1,15.76.15c1.74.1,2.81,0,3.65-.86s.49-2.45.43-2.75a10.43,10.43,0,0,0-1-2.47c-.52-1.39-.23-1.59,0-2.9.5-2.86-.14-1.38.58-8,.56-5,.8-4.69,1-8,.23-3.53.34-7.54-.15-9.19a16.34,16.34,0,0,1-.72-4.74,14.49,14.49,0,0,1,1-4.45c1.5-2.91,1.25-7.81,2-9.88,1.71-5,1.52-6.49,1.52-8.36,0-3.5-.87-5.92-1.09-6.08C43.5,292.59,35.85,294.41,34,298Z"/><path class="cls-6" d="M26.09,242.84c-.45-.3-.87.38-3.39.86a3.24,3.24,0,0,0-1.73.61,3,3,0,0,0-.86,1.61,6.6,6.6,0,0,0-.12,2.71c.32,2.18-.77,4.37-1.73,6.28-1.67,3.34-4,4.81-3.39,6.35a5.45,5.45,0,0,0,.68,1.11,7,7,0,0,0,1.72,1.54,7.73,7.73,0,0,0,2.53,1.29,3.53,3.53,0,0,0,1.73.19c1.3-.36,1.82-2.6,2.28-5.67.78-5.35.27-5.86.86-9.18C25.44,246.14,27,243.42,26.09,242.84Z"/><path class="cls-7" d="M23.57,301c-.78,1.49-.89,4.62-1.12,10.88a8.55,8.55,0,0,1-.32,2.24c-.29,1-.58,1.28-.8,2.08a8,8,0,0,0,0,2.88c.27,3.55.29,3.83.48,4.47.36,1.17.86,1.28,1.12,2.4a5.93,5.93,0,0,1,0,2.56c-.26,1.42,0,7.29.64,19,0,0,0-.9.48,7.68v1.12a3.5,3.5,0,0,1-1.44,1.16,21,21,0,0,1-4,1.12c-3.49.65-4.56,1.42-7,1.64a5.79,5.79,0,0,0-2.1.08c-1.09.23-1,1.26-1.09,1.56-.16.46.41,1.11,1,1.44a3,3,0,0,0,1.92.32,156.05,156.05,0,0,1,17.26,0c1.92.1,3.41.46,4.34-.5a2.44,2.44,0,0,0,.47-2.34c-.24-1.32-.85-1.71-1.28-2.87a7.56,7.56,0,0,1,0-4.32c.55-3.15-.16-1.52.64-8.8.61-5.57.88-5.19,1.12-8.79.25-3.91.38-5.86-.16-7.68a10.27,10.27,0,0,1-.8-4A8.65,8.65,0,0,1,34,320.63a56.82,56.82,0,0,1,4.63-7.19c2.78-4,4.16-5.94,4.16-8,0-3.87-3.44-6.54-3.68-6.71C34.12,295,25.67,297,23.57,301Z"/><path class="cls-8" d="M23.54,246.83c-.89.28-.91,1.85-1.46,6.15-.65,5-.8,4.19-1.27,8.51-.41,3.74-.23,3.74-.63,7.24s-.86,6-1.18,7.79c-1,5.32-1.29,5.47-1.63,8.52-.46,4,.16,3.43-.27,7.52-.32,3-1.12,7.83.09,9.32a4.8,4.8,0,0,0,1.45,1.18,3.76,3.76,0,0,0,1.17.36c1.78.29,4.79,2.76,6.16,3.81a23.18,23.18,0,0,0,6.16,3.71A19.73,19.73,0,0,0,39.2,312c2.65,0,4.47.07,6.61-.91a13.41,13.41,0,0,0,4.26-3.26c1.69-1.8,1.06-2,2.8-3.8a3.09,3.09,0,0,0,1.09-1.9,2.71,2.71,0,0,0-.54-1.63c-.77-1.28-.4-2.5-.09-5.62.36-3.72,0-3.19.36-7.43.24-2.52.53-4.33.63-5,.91-5.9,1.93-12.57-.36-18.11-2.68-6.51-7.6-5.86-16.39-13.77-1-.89-3.64-4.27-5.53-3.47-.08,0-2.33-3.27-2.35-2.87-.15,3.05-.82,6.79-1.41,6.78-.17,0,0-.39-.33-1.35a15.31,15.31,0,0,0-1.36-3.66C25.94,244.82,24.48,246.53,23.54,246.83Z"/><path class="cls-9" d="M28.65,243.48a3.67,3.67,0,0,1,.88-1.53c.34-.46.42.1,1.83-2.46.08-.15-1.32.26-1.58.31l-.78.38a14.92,14.92,0,0,1-2.5,1.61c-1,.32-1.65.6-2,1.55a34,34,0,0,0-1,3.49,1.89,1.89,0,0,0,.09.89c.09.35.13.22.33.79,0,.06,0,.12.08.12s.15-.46.29-.94.34-1.1.65-1.19c.46-.15,1.06.59,1.35.94a10,10,0,0,1,1,1.54,17.75,17.75,0,0,0,.88,1.93,10.19,10.19,0,0,0-.2-1.58A16.55,16.55,0,0,1,28.65,243.48Z"/><path class="cls-10" d="M36.89,296.12c-.56-.19-3,2.71-3.4,3.64a1.45,1.45,0,0,0-.13.45c-.15,1,1.11,2.58,1.65,2.55s.47-2.17.64-3C35.67,299.64,37.46,296.32,36.89,296.12Z"/><path class="cls-11" d="M35.16,303.89c-.29-.44-.18-.78,0-2.3,0,0,.44-3.88,1-4.83l.11-.17c.84-1.29,1.37-1.06,3.31-2.8a22.66,22.66,0,0,0,4-4.85c1.19-1.82.7-1.49,2.43-4.49,2.07-3.57,4.27-7.06,4.27-7.06a6.56,6.56,0,0,0,.88-1.62c.7-2.33-1-3.63-.52-5.73a5.28,5.28,0,0,1,2.43-3c.33-.22,3.3-2.22,5.3-.95a4.05,4.05,0,0,1,1.47,2.13,7,7,0,0,1,.27,2.59c0,3.61.23,3.24.08,4.55A14.13,14.13,0,0,1,59,279.55c-.41,1-1,2-4.06,5.52-2.88,3.31-5.2,5.62-6.17,6.58s-2.22,1.57-3.33,3.16a9.18,9.18,0,0,0-1.54,3.25,11.26,11.26,0,0,0-.1,3.24c0,1.23-.09,1,0,2,0,.68.1,1-.12,1.38a1.23,1.23,0,0,1-1.06.62c-.39-.06-.41-.42-.83-.49s-.54.27-1,.24-.53-.44-1-.48-.82.57-1.28.45-.39-.58-.76-.62-.39.23-.72.34A1.82,1.82,0,0,1,35.16,303.89Z"/><path class="cls-12" d="M37.27,261.72a23.74,23.74,0,0,0,2,3.93,53.22,53.22,0,0,0,3.6,4.32c2,2.22,2.53,2.76,2.64,3.84.06.5,0,1.19.48,1.53.13.09.53.33,1.61,0a7.18,7.18,0,0,0,2.64-1.69,31.59,31.59,0,0,1,3.52-2.8,6.12,6.12,0,0,1,2.72-1.28c.61-.05.81.08,3.37.56,1.54.29,2,.35,2.24.08s0-.68-.4-1.6a19,19,0,0,0-1.52-2.8c-1-1.36-1.06-3.18-1.28-6.81-.21-3.3.2-3.49-.24-5.6A15.31,15.31,0,0,0,57,249.07a17.73,17.73,0,0,0-2.56-3.36,14.66,14.66,0,0,0-3.76-3.44,10.88,10.88,0,0,0-2.64-1.12c-3.71-1-7,.84-11.61,3.44-1.86,1-2.71,1.71-3.13,2.8s-.13,2.17.48,4.16C36.22,259.3,36.81,260.69,37.27,261.72Z"/><path class="cls-13" d="M29.69,244.28c.17-.34.78-.35.91-.36,2-.09,15.6-6.2,15.86-7.63,0-.19-.83-.42-2.35-.31l2.35-.65a4.17,4.17,0,0,1,1.92,0,1.2,1.2,0,0,1,.56.42,2.65,2.65,0,0,1,.11,1.42,27.58,27.58,0,0,0,.19,3.27c0,.46,0,1.76-.43,1a.6.6,0,0,1,.08.33c-.06,1-3.28,2.27-3.28,2.27-4.94,1.8-7.93,2.44-10.58,3.55,0,0-4.63,3.75-5.55,3.32a.73.73,0,0,1-.41-.4.61.61,0,0,1,0-.41c.41-1,.52-1.82.69-2.26a4.54,4.54,0,0,0,.1-2.67C29.73,244.89,29.56,244.54,29.69,244.28Z"/><path class="cls-14" d="M41.18,222.87c2.38.31,4.1,1.79,4.18,3.24.12,2-3,3.3-4.66,3.61-.72.14-2.47.48-3.42-.57a2.41,2.41,0,0,1-.57-1.43Z"/></g><g id="_LAYER-18_P16_" data-name="&lt;LAYER-18_P16&gt;"><path class="cls-15" d="M82.41,153.59c-.1,1.42-4.62,2.72-6,2.47-3.34-.61-3.76-1.38-4.45,0-.28.56-1.22,3.55-2,5-.27.51.66.9,0,1.69-.93,1.2-4.47-1.2-6-3-.76-.89.08-5.14,1-6.8.53-.91,1.71-1.12,3.13-2.22s2.6,0,10.18-2.52Z"/><path class="cls-16" d="M108.63,3.05c.9-1.54,8.66-3.39,11.57-3,3.65.49,7.72.05,9.94,3,1.77,2.36,1.69,4,4,6.16,1.5,1.38-.42,3.32,1.23,4.87,1.79,1.71,1.36,5.68.46,6.8-.25.31-1.07,1-5.13-.07a35.2,35.2,0,0,1-14.32-7.71C113.24,10.37,107.34,5.26,108.63,3.05Z"/><path class="cls-15" d="M123.33,351.29c.76-3.19,2.68-4.31,4.78-7,2.52-3.17,2.86-8.42,5.6-18.41a77.52,77.52,0,0,0,2.66-19c.16-9.37-1.42-12,1-15.77,2.93-4.56,5.77-17.21,7-17.48,1-.2,13.06-14.35,17-9.91a10,10,0,0,1,2.23,5.57c1.43,8.91-3,25.38-4.3,30.55-.3,1.19-2.49,5.69-5.08,11.69-2.23,5.13-2.59,8.69-4.27,12.72-2.41,5.78-4.19,18.07-4.09,23.59.07,3.6,1.43,7.17,1.45,10.77,0,.6,0,2.74-.75,3.6-1.35,1.53-3.77,1.1-5.71,1.11-3.06,0-8,.07-8.67,0-4.72-.48-5,1.15-6.92,0C122.33,361.57,122.49,354.81,123.33,351.29Z"/><path class="cls-17" d="M92.15,45.39c-.53,0-.51.94-1.59,1.59a4.35,4.35,0,0,1-1.47.52c-.34.06-.6,0-.6.06A15.76,15.76,0,0,0,91,47.27c1.16-.23,1.87-.38,2-.81A1,1,0,0,0,92.15,45.39Z"/><path class="cls-18" d="M132.23,193.91a99.44,99.44,0,0,0,.28,10.94c.85,10.48,2.31,19.85,2.66,22.16,4.94,32,7.41,48,6.71,51.12,0,.16-.19.77.11,1.06,1,1,5.5-2.43,7.79-3.77a22.13,22.13,0,0,1,19.86-1.25,10.94,10.94,0,0,1,1.82,1.2c.64.56.75.85.94.81.56-.13.06-2.88.5-6a20.62,20.62,0,0,1,1.26-4.53c1.93-5.39,1.8-7.07,5.78-20.1,2.9-9.49,2.69-7.69,3.27-10.3,1.65-7.48.73-10.29,1.75-18.6,1.13-9.05,2.61-8.78,2.95-14.2.11-1.72.74-14.24-7.65-23.73-9.21-10.42-26.6-14.18-37.39-7.27-1.53,1-7.6,5.16-9.69,12.37C132.44,186.35,132.37,188.87,132.23,193.91Z"/><path class="cls-19" d="M149.48,294.17c.93,4.66,0,8.38-1.3,13.55a78.28,78.28,0,0,1-4.08,11.69c-2.22,5.14-2.59,4.69-4.27,8.73-2.4,5.77-5.19,15.06-5.08,20.59.07,3.59.43,7.17.44,10.76,0,.6,0,2.74-.74,3.6-1.36,1.53-35.26,0-38.43.24a20.29,20.29,0,0,0-6-1,6.36,6.36,0,0,1-3.69-.92,3.1,3.1,0,0,1-1.47-2.06,2.33,2.33,0,0,1,.59-1.92c.9-.77,2.16.09,4.27,0a9.48,9.48,0,0,0,3.54-1c4-1.63,6.72-2,11.74-2.25a13.37,13.37,0,0,0,4.83-1.29c3.07-1.09,4.57-4.11,6.19-7.67,3.2-7,4.8-15.46,5.61-18.41a77.85,77.85,0,0,0,2.65-19c.16-9.38-1.42-12,1-15.78,2.93-4.55,8.32-5.72,9.55-6,1-.21,8.5-1.84,12.43,2.59C148.7,290.23,149.05,292,149.48,294.17Z"/><path class="cls-20" d="M194.22,178.46c.46,1.3,1.17,12.33-2,20.91-2,5.46-7.1,7.52-10.15,14.94-3.93,9.57-4.18,13.31-7.27,22.53-3.88,11.62-7.67,25.93-14.05,38.16a75.42,75.42,0,0,0-6.57,16.75c-.79,3.05-1.24,5.59-1.49,7.21L145,300.7c-10.64,2.29-21.15,0-28.2.59-1.76.14-3.54.16-5.3.42-2,.29-2.38.51-2.75.22-1.35-1.08,1.63-6.14,3.39-11.45,2-6,1.12-8.31,1.91-16.11.67-6.62,2.07-11.55,4.87-21.42a251.84,251.84,0,0,1,9.33-26.71c3.08-7.46,5.61-15.14,8.48-22.69a30.58,30.58,0,0,0,1.91-7.63c.41-3.51-.74-5.29-.42-9.75a27.28,27.28,0,0,1,.79-5c2.82-9.93,41.18-22.13,51.79-9.13A22.09,22.09,0,0,1,194.22,178.46Z"/><path class="cls-15" d="M109.68,127.1c-3.6.15-3.8,2.45-11.51,8.12-6,4.44-7.31,4.73-13.36,9-.71.5-3.52,2.79-6,3.62s-4.37,2.37-6.64,3.32C67.76,153,67,152.23,67,153.84a2.21,2.21,0,0,0,1.27,1.7c1.59.81,3.68-.48,5-1.19,3-1.61,6.64-1.78,9.92-2.8,9.75-3,12.48-3.1,17.22-4.74,10.78-3.74,15.83-10.3,18.56-11.36a1.65,1.65,0,0,0,.94-.77c.42-.92-.55-2.2-.94-2.71C118,130.59,114.32,126.92,109.68,127.1Z"/><path class="cls-21" d="M101.45,14.6c-.65-2.29.79-4.65,3.29-8.75,2.23-3.66,3.64-4,4.42-4a3.18,3.18,0,0,1,1.8.63c3.31,2.23,6.84,6.14,7.94,7.25,5.36,5.43,12.91,5,15.93,9.68a12.39,12.39,0,0,1,.81,1.53,12.12,12.12,0,0,1,.66,6.76c-.4,2.49-1.79,7.14-3.71,7.18-1.18,0-1.94-1.72-2.85-3.2-2.67-4.29-7-6.32-15.6-10.38S102.25,17.42,101.45,14.6Z"/><path class="cls-22" d="M89.86,31.9a5.69,5.69,0,0,0-1,3,12,12,0,0,0,.13,3.9,13.45,13.45,0,0,0,1.73,4.73,7.13,7.13,0,0,1,1,2.07,4.91,4.91,0,0,1,.14,2.09,5.77,5.77,0,0,1-.61,1.54c-.41.79-.59.91-1.34,2.17A4.82,4.82,0,0,0,89.14,53a1.78,1.78,0,0,0,.13,1.3,1.59,1.59,0,0,0,.84.61,15.53,15.53,0,0,0,1.79.32c.58.14.71.26.79.38a.88.88,0,0,1,0,1c-.2.19-.42,0-.84.3a.9.9,0,0,0-.37.38.81.81,0,0,0,0,.52,1.56,1.56,0,0,0,.31.71,2.24,2.24,0,0,0,.34.38,2.49,2.49,0,0,0,.35.25c.26.13.41.11.43.19s-.14.14-.31.36a.86.86,0,0,0-.09,1.12,2.89,2.89,0,0,0,.54.56,2.1,2.1,0,0,0,.58.42,1.66,1.66,0,0,0,.59.07c.26,0,.35-.1.54-.05a.68.68,0,0,1,.33.18,2.13,2.13,0,0,1,.55.76,12.46,12.46,0,0,0,.91,2,3.53,3.53,0,0,0,1.12,1,5.22,5.22,0,0,0,2,.76,6.43,6.43,0,0,0,4.19-1.09,16.68,16.68,0,0,0,2.42-1.65,3.31,3.31,0,0,1,1.77-1,2.54,2.54,0,0,1,1,.1c2.82.85,5.5,4.72,5.5,4.72,1.76,2.55.71,4.09.78,6,.1,2.77-2.71,13.46-2.2,14.1,1,1.28,10.2-9.86,14-14.21,2.31-2.64,5.14-8.73,3.87-10.56-.26-.38-.53-.47-1.24-1.39a9.76,9.76,0,0,1-1.75-3c-.43-1.27-3.43-4.33-3.42-5.06a12.26,12.26,0,0,1,.58-3.51c1.08-3.7,3.63-.56,3.7-1.34.36-3.69-4.1-8-7.83-10.72-5.66-4.16-10.69-5.55-16.65-7.19,0,0-6.69-1.84-11.88-.36A4.87,4.87,0,0,0,89.86,31.9Z"/><path class="cls-23" d="M115.26,74.27c-3.11,8.9-5.22,18.3-5.6,23.16-.4,5.18-.17,9.66-2.28,16.23-.89,2.8-1.46,3.64-1.66,5.92a17,17,0,0,0,5,13.66c2.14,2,4,2.37,5.62,3.18,0,0,16.11,7.9,13.8,56.14,0,1.16,0,2.33,0,3.49-.06,1.92-.18,2.91.31,3.18s1.25-.28,1.67-.6c3.62-2.75,4.36-6.32,7.13-8,1.18-.74,2.32-.89,5.31-.91,6.79-.07,10.19-.1,15.32.91,14.84,2.9,35.83-6.37,35.77-12,0-1.88-2.35-3.12-2.38-6.95,0-1.49.32-2.65-.4-4.18-.49-1-1-1.21-1.79-2.78a8,8,0,0,1-1-2.78c-.23-1.85.62-2.28.2-3.57-.23-.71-.49-.58-2-2.39a16.56,16.56,0,0,1-2-2.78,12.91,12.91,0,0,1-1-2.38c-1-3.32-3.57-.09-5.76-4.33-1.14-2.22-2.5-1.55-4.78-7.15-2-5-3.58-2.62-6.16-8.72a99.93,99.93,0,0,1-4.18-14.14c-.66-3.52-2.27-5.08-4-8.74-.7-1.49-2.43-6.48-2.78-7-5.82-8.14-8-22.57-15.07-30.35a10.87,10.87,0,0,0-2-1.79c-3.42-2.42-6.84-5.41-10.64-6.75-.4-.14,1.76,1.29,1.06,2.31-9.5,13.77-11.34,11.59-14.25,17.24-1.09,2.12-2.42,5-2.73,4.85s.46-1.92.61-4.55C114.78,79.56,115.54,75.44,115.26,74.27Z"/><path class="cls-24" d="M147.44,107.85c0,15.07,7.78,31.32-1.1,31.32S122.51,127.05,122.51,112,118,86.79,134.1,84.12C142.87,82.66,147.44,92.79,147.44,107.85Z"/><path class="cls-25" d="M121.3,141.45c10.89,15.79,9.09,45.91,8.84,51.11-.06,1.16,0,2.33,0,3.49-.06,1.92-.19,2.91.3,3.18s1.25-.28,1.67-.6c3.62-2.75,4.37-6.32,7.13-8,1.18-.74,2.32-.89,5.31-.91,5-.05,6.13-1.08,9.48-.7,1.87.22,2.4.39,3.84.61,8.77,1.32,18.52.23,18.64-1.25.05-.56-1.31-1.1-2-1.37,0,0-4.25-1.53-16.31-9.85-1-.68-11.12-7.85-15.6-19.84-.61-1.63-1.59-4.62-3.56-9.32-3.65-8.72-5.56-11-7.46-11-.43,0-.4.23-2,.84a26.46,26.46,0,0,1-3.45,1c-3,.67-4.21.45-4.71,1.37A1.43,1.43,0,0,0,121.3,141.45Z"/><path class="cls-26" d="M121.16,129.14c-.59-5.89.7-13.74,1.12-16.29.83-5,.34-5,.22-8.2-.09-2.48-.56-3.41-.7-7.31-.11-3-.16-4.53.42-6.32a11.45,11.45,0,0,1,3.65-5.48c3.58-2.87,7.86-2.39,9.13-2.25a10.49,10.49,0,0,1,8,5.06,9.4,9.4,0,0,1,1,3c.69,3.52.44,4.75-.12,8.27a75.67,75.67,0,0,0-.71,10.84c-.08,5.47.49,5.86.28,10.11a58.73,58.73,0,0,1-1.54,10c-1.36,6.52-2.09,7.19-3.23,12.78-.46,2.23-1.53,4.34-1.69,6.6a3.65,3.65,0,0,1-.7,2.11,3.92,3.92,0,0,1-2.53,1.26c-22,3.39-23.6,3.38-23.6,3.38-9.14-.1-26.84-1.21-29.67-.63a26,26,0,0,1-4.28.06c-.7-.13.12-.3-.54-.81s1-.28.49-1.29a4.07,4.07,0,0,1-.56-2.53c0-.25-.83-.14-.16-.83a4.13,4.13,0,0,1,3-1c2.75-.11,3.56-.09,6.45-.39,2.5-.26,5.51-1,7.48-1.31,3.35-.54,4.19-1.21,9.13-2.81,0,0,10.28-3.34,15.59-5.76a23.8,23.8,0,0,0,3.66-1.66C121.77,137,121.26,130.16,121.16,129.14Z"/><path class="cls-27" d="M80.29,155.27c.12,1.06-3.35,1.92-3.73,4-.27,1.46.27,1.24-1.68,2.93-.21.18-1.1.93-1.31,1.09-.67.5-1.7.59-2,.22s0-.56.2-1c.34-.89,1.45-2.37,1.44-4,0-2.33,0-3.49.44-3.89C74.88,153.52,80.13,153.91,80.29,155.27Z"/><path class="cls-28" d="M80.92,155.21c-.1,1.42-4.62,2.71-6,2.46-3.34-.61-3.75-1.38-4.45,0-.28.56-1.21,3.55-2,5-.27.51.66.89,0,1.69-.93,1.2-4.46-1.21-6-3-.76-.9.07-5.15,1-6.81.53-.9,1.71-1.12,3.14-2.22s2.59,0,10.17-2.52Z"/><circle class="cls-29" cx="69.27" cy="159.16" r="4.52"/><path class="cls-30" d="M89.24,28.53c2.43-4.61,5.14-9.06,7.39-13.77a5.35,5.35,0,0,1,1.81-2.24,4.84,4.84,0,0,1,1.7-.73,7.5,7.5,0,0,1,3.93.18c6.39,1.91,22.93,13.43,29.22,16.4.83.4,3.46,1.56,4.46,4.12a8.13,8.13,0,0,1,.44,2.44,14.78,14.78,0,0,1-.63,6.07,15.16,15.16,0,0,1-2.95,5c-2,2.43-3.72,4.63-6.2,5.16s-4.66-1-8.47-3.52c-5-3.35-10.24-6.59-13-8-10.28-5.52-18.57-4.53-19.06-8.08C87.84,31.05,88,30.89,89.24,28.53Z"/><path class="cls-31" d="M109.44,44.18c2.16-1.5,4.63-1.55,5.76-.44,1.58,1.57,0,4.9-1.14,6.35-.49.63-1.66,2.19-3.2,2a2.66,2.66,0,0,1-1.51-.75Z"/></g><g id="_LAYER-18_P15_" data-name="&lt;LAYER-18_P15&gt;"><path class="cls-32" d="M240.08,309.84a36.6,36.6,0,0,1-4.83.79,5.33,5.33,0,0,1-2.64-.95c-.82-.49-1.48-1.06-2.55-.59-.78.33-1.32-.25-1.42-1.44-2.42.18-1.83-1.82-2.1-3.15-2.45.13-3.07-.77-2.07-2.91a2.7,2.7,0,0,0-.4-3.37c-1.09-1.15-2-2.5-3.12-3.59a6.46,6.46,0,0,1-1.87-6.06c.54-3.31,1.18-6.67,3.22-9.46s3.84-5.71,6.82-7.6a15.56,15.56,0,0,1,9.87-2.44c5.19.41,8.87,3.08,11.67,7.1,2,2.91,3.41,6.16,2.9,9.87-.17,1.2-.66,2.38-.71,3.58-.07,2.27.07,4.55.12,7a14.07,14.07,0,0,1,3.5,1,18.71,18.71,0,0,1,2.74,2.55,4.17,4.17,0,0,0,1.71,1.12,5.33,5.33,0,0,1,3.71,3.35,2,2,0,0,1-.24,1.58,10.1,10.1,0,0,1-1.7,2.1,125.78,125.78,0,0,1-15.58,13.1,34.39,34.39,0,0,1-5.2,2.66c-1.44.65-2.33.08-3-1.43-1.12-2.61-.84-5.32-.74-8,0-.32.12-.65.1-1A3.59,3.59,0,0,1,240,310C240.07,309.92,240.13,309.77,240.08,309.84Z"/><path class="cls-33" d="M298.82,404.35a16,16,0,0,1,2.22,3.06,7.8,7.8,0,0,0,2.75,3.33c1.08.62,1.79.53,2.82,1.4a2.41,2.41,0,0,1,1.13,2.1c-.11,1.33-1.48,2-3,3.15-2.85,2.11-6.16,4.77-8.79,7l-1.26,1.06-1.59,1c-1.92.75-3.41,1.37-4.05,1.71a2.89,2.89,0,0,1-1.91.36c-.63-.12-1.39-.54-1.4-1,0-.32-.45-1.25.49-1.84a6,6,0,0,1,1.94-.8,22.62,22.62,0,0,0,3.85-2.53l.27-.4c.43-.61.93-1.29,1.6-2.09a20.71,20.71,0,0,0,2.37-3.41,3.43,3.43,0,0,0,.37-1.81l-.71-.87c-1.83-2-1.08-4.31-1.86-5.14"/><path class="cls-34" d="M291.56,411.13c.68.93-.34,3.15,1.24,5.34l.61.94a3.42,3.42,0,0,1-.59,1.75,20.49,20.49,0,0,1-2.75,3.11c-.77.72-1.35,1.33-1.84,1.88a24.51,24.51,0,0,1-4.91.75,6.21,6.21,0,0,0-2.1-.15c-1.11.1-1.12,1.13-1.26,1.42s.27,1.15.78,1.54a3,3,0,0,0,1.87.54c.73,0,2.33.1,4.39.3l1.87-.18,1.32-.43,1.37-.91c2.88-1.88,6.48-4.12,9.56-5.89,1.67-.95,3.11-1.46,3.38-2.76a2.42,2.42,0,0,0-.87-2.22c-.92-1-1.64-1-2.63-1.73a7.68,7.68,0,0,1-2.34-3.63,16.33,16.33,0,0,0-1.84-3.31"/><path class="cls-35" d="M275.23,363.12c-1.77,3.82,3,6.18,6.09,16.71,1.52,5.19,1.66,9.07,4.94,12.25A22.31,22.31,0,0,1,289,395a21.17,21.17,0,0,1,3.41,6.7,41.07,41.07,0,0,1,1.67,9.63s.08.78.43,4.6h0a19,19,0,0,0,3.55,0,9.64,9.64,0,0,0,4.35-1.88c.68-.5,2.83,0,3.6-1.26.26-.45-.16-1.3,0-2.63.27-1.85-.58-4.63-1.58-6.95-1.45-3.4-2.17-5.09-2.55-6.1a28.46,28.46,0,0,1-2.12-7.87,34.66,34.66,0,0,1,.14-5.64c.28-4.21.65-5.4.91-8.76a60.3,60.3,0,0,0,.12-7.89c-.34-6.33-.51-9.5-2.29-11-3.66-3.14-11.39.44-17.4,3.21C277.74,360.7,276,361.55,275.23,363.12Z"/><polygon class="cls-36" points="252.97 296.58 254.96 294.83 256.68 295.95 254.76 300.62 253.37 299.46 252.97 296.58"/><path class="cls-37" d="M271.94,366.31c-1.77,3.82,3,6.18,6.09,16.72,1.52,5.18,1.66,9.06,4.94,12.24a23,23,0,0,1,2.75,2.89,21.39,21.39,0,0,1,3.41,6.7,41.16,41.16,0,0,1,1.67,9.63s.08.79.43,4.61h0a19.38,19.38,0,0,0,3.55-.06,9.64,9.64,0,0,0,4.35-1.88,8.28,8.28,0,0,0,2.37-2.47,7.4,7.4,0,0,0,1-2.8c.27-1.85-.35-3.24-1.34-5.57-1.45-3.39-2.17-5.09-2.56-6.1a28.46,28.46,0,0,1-2.11-7.87,34.68,34.68,0,0,1,.14-5.64c.28-4.21.64-5.4.91-8.76a62.15,62.15,0,0,0,.12-7.88c-.34-6.34-.52-9.5-2.29-11-3.66-3.13-11.4.44-17.41,3.21C274.45,363.89,272.67,364.74,271.94,366.31Z"/><path class="cls-38" d="M229,363.33a7.5,7.5,0,0,1,.77-.65,7.07,7.07,0,0,1,1.77-.94c2.51-.89,4.74-2.42,7.12-3.61a94.59,94.59,0,0,0,10.9-6.2c2.83-1.91,8.35-5.63,7.66-7.47-.2-.51-.8-.72-1.88-1.1a8.29,8.29,0,0,0-4.87-.27c-.29,1.33-3.63,4.35-5.23,5.64a142,142,0,0,1-13.43,9.76A23.21,23.21,0,0,1,228,360.4a15.51,15.51,0,0,1-4.28,1,41.19,41.19,0,0,1-5.08,1s-1.55.13-2.84.18c-.13,0-.25.16-.55.29a.38.38,0,0,0-.19.11c-.11.12-.16.35-.05.44s.27,0,.29,0"/><path class="cls-39" d="M231.78,358.35a6,6,0,0,0-1.26,2.18c-.05.06-.08,1.11-.11,1.15s.88,1.64,1.05,1.65c.35,0,.38,0,.4,0h8.61a6.6,6.6,0,0,1,.91-.77,7.82,7.82,0,0,1,2.08-1.1c2.94-1,5.56-2.85,8.35-4.24.95-.47,2.22-1.1,3.71-1.89l-3.91-5.28c-5.82,4.79-8.52,7.24-8.53,7.24a14.27,14.27,0,0,1-3.78,2.59c-.44.21-.7-1.74-.91-1.77s-.34-.25-.61-.27-.45.32-.88.39-.54-.29-1.07-.28-.48.27-.93.26-.49-.25-.88-.23-.48.34-.89.34-.61-.33-1-.23C232.07,358.11,232,358.14,231.78,358.35Z"/><path class="cls-40" d="M238.5,315.88c-.53.09-.37.88-1.89,2.94a3.37,3.37,0,0,0-.84,1.63,3,3,0,0,0,.46,1.76,6.7,6.7,0,0,0,1.76,2.07c1.73,1.37,5.89,6.16,6.5,8.21,1.06,3.58,2.69,8.33,4.18,9.05.3.15.17,1.95.59,2,.9.15,2.57,1.31,3.3,1.21.91-.14,3.55,1,4.51.48.62-.33-1.65-3.12-1.38-3.56.71-1.15-5.57-9.35-7.34-11.91-3.07-4.44-3.79-4.47-5.63-7.3C240.29,318.74,239.55,315.7,238.5,315.88Z"/><path class="cls-41" d="M287.56,367.34a16.44,16.44,0,0,0,2.67-.85,19.67,19.67,0,0,0,5.91-4c2-1.78,4.48-2.19,5.38-4.36s4.48-6.77,4.48-7.95c0-2.47,1.07-1.55-.15-3.9-.28-.55-6-5.34-6.5-6a2.81,2.81,0,0,0-1.51-.82c-1.43-.41-2-1.56-3.9-4.05-2.27-3-2.2-2.3-4.8-5.67-1.55-2-2.57-3.54-2.93-4.08-3.37-4.93-12-19.15-17.42-21.64-6.4-2.93-4.75,9.54-16.58,9.75-1.34,0-5.57-.64-6.41,1.23,0,.09-3.94-.79-3.68-.49,2,2.33,4,5.53,3.59,5.92-.12.11-.28-.27-1.15-.76a15.35,15.35,0,0,0-3.5-1.75c-1.31-.46-1.21,1.79-1.69,2.65s.59,2,3.12,5.49c3,4.13,2.28,3.61,4.88,7.09,2.25,3,2.38,2.9,4.48,5.73s3.48,5,4.45,6.5c2.92,4.54,2.78,4.88,4.61,7.34,2.42,3.26,5.29,7,7.76,10.27,1.79,2.38,1.57,7,3.47,7.27a10.6,10.6,0,0,0,2.85-.3,3.9,3.9,0,0,0,1.11-.54c1.49-1,5.38-1.24,7.1-1.41l-.56-5.58Z"/><path class="cls-42" d="M240.82,314.6a3.75,3.75,0,0,1-.41-1.72c0-.56.39-.21-.33-3,0-.17-1.25,1.06-1.4,1.28l-.31.81c-.27.74.06,1.86-.27,2.91a2.42,2.42,0,0,0-.4,2.48,31.71,31.71,0,0,0,1.67,3.22,1.87,1.87,0,0,0,.67.59c.3.19.24.07.78.35.06,0,.11.06.14,0s-.21-.44-.43-.9-.5-1-.34-1.31,1.18-.29,1.64-.23a9.73,9.73,0,0,1,1.76.46,19.65,19.65,0,0,0,2,.82,9.73,9.73,0,0,0-1.22-1A16.4,16.4,0,0,1,240.82,314.6Z"/><path class="cls-43" d="M277.22,325.89a9.56,9.56,0,0,0-.53-1l-.34-.53c-.94-1.36-1.05-3.17-1.27-6.8-.2-3.31.32-2.94-.12-5.05a21.27,21.27,0,0,0-1.7-4.89,18.43,18.43,0,0,0-2.55-3.37,14.73,14.73,0,0,0-3.76-3.45,10.7,10.7,0,0,0-2.64-1.12c-3.71-1-7,.83-11.62,3.41-1.85,1-2.71,1.71-3.12,2.8a13.24,13.24,0,0,0-.33,6.55c2.38,7.75,3,7.16,3.48,8.19.84,1.88,2,2.44,2.73,3.53a54.14,54.14,0,0,0,3.59,4.33c1.44,1.64,1.56,1.56,1.78,2.06.82,1.8.17,3.78-.52,5.78a19.38,19.38,0,0,1-1.9,4,22.35,22.35,0,0,1-5.76,6.45,15.63,15.63,0,0,0-2.94,2.45c-.74.83-.68,1-1.5,1.82-1.15,1.19-1.91,1.56-1.84,2.14,0,.36.39.5,1.08,1a12.47,12.47,0,0,1,4.37,4.94h0l2.44,1.39h0l2-1.09a22.83,22.83,0,0,0,4.55-3.68c4.92-4.79,6.35-3.4,8.31-6.63,1.1-1.81,1.46-3.59,3.46-4.76,1-.58,1.46-.47,2.13-1.15,1.14-1.16.71-2.45,1.16-5.26.39-2.39.8-2,1.6-5.72a15,15,0,0,0,.2-4.84A6.66,6.66,0,0,0,277.22,325.89Z"/><path class="cls-44" d="M241.83,314c0-.47.65-.84.78-.92,2.13-1.26,13.38-15.71,12.85-17.41-.07-.24-.9-.07-2.49.93l1.94-2a4.94,4.94,0,0,1,2-1.14,1.41,1.41,0,0,1,.85.13c.5.28.66.91.94,1.47a33.68,33.68,0,0,0,2.09,3.45c.32.48,1,1.92.11,1.34a.8.8,0,0,1,.29.32c.52,1.14-2.27,4.36-2.27,4.36-4.33,4.79-7.21,7.21-9.45,9.94,0,0-2.87,6.74-4.12,6.79a1,1,0,0,1-.68-.19.76.76,0,0,1-.19-.47c-.15-1.36-.5-2.27-.56-2.84a5.47,5.47,0,0,0-1.43-3C242.23,314.62,241.84,314.34,241.83,314Z"/><path class="cls-45" d="M241,289.42c1.84-1.46,4-1.66,5.11-.73,1.5,1.31.25,4.37-.64,5.73-.4.59-1.36,2.05-2.74,2a2.32,2.32,0,0,1-1.38-.57Z"/></g></g></svg>