<svg id="BACKGROUNDS" xmlns="http://www.w3.org/2000/svg" viewBox="0 0 1920 312.55"><defs><style>.cls-1{fill:#dfc8b3;}</style></defs><g id="_LAYER-03_" data-name="&lt;LAYER-03&gt;"><path class="cls-1" d="M23.07,251c-9.79.86-17.82,1.69-23.07,2.26v59.32H1920V297.07c-84.67-3.13-121.42-4-130.64-3.7a104.32,104.32,0,0,1-16.77-.68c-6.77-.81-10.16-1.21-13.4-2.54-11.87-4.84-11.75-14.69-22.65-17.71-4.64-1.29-4.57.52-11.85-.86-8.21-1.56-11.32-4.45-17.38-6.48-9.83-3.29-18.3-1.29-21.78-.87-208.44,25.26-419.9-5.18-629.87-5.23-332.42-.07-302.18-8.39-444.3-3.48-83.12,2.87-167.73,8.29-285.75,0-17.64-1.24-61.78-4.59-122.83-7.08C141.13,245.93,87.23,245.32,23.07,251Z"/><path class="cls-1" d="M1015.55,251.8c-3.3-7.51-7.47-13.91-17.12-14.55,7.53,4.87,12,11.44,12.58,20.22-1.44-2.94-2.77-5.94-4.35-8.8a16,16,0,0,0-7.1-7.17c3.27,6.26,6.16,12.6,6,19.86h39.68c-.2-9.84,1.21-19,12.06-23.93-5.6-1.09-9.15,1.24-16.25,10.06,1.45-3.23,2.91-6.47,4.44-9.89-3.59,1.48-5.85,4.14-7.53,7.73.16-8.61,4.94-15.67,14.79-22.56a30,30,0,0,0-3,.77c-8.47,3.08-13.3,9.36-16.19,17.14a107.66,107.66,0,0,0-2.82,10.69,11.45,11.45,0,0,1-.66,2c-.09-16,2-31.36,12.56-44.63-2.77,1-8.44,7.81-11.18,14.4-2.35,5.65-4,11.59-5.62,16.59-2.24-14.94-4-20.9-7.63-25.13,1,5.54,2.13,11,2.89,16.52a55.05,55.05,0,0,1,.08,16.61c-1.06-5.34-1.9-10.69-3.22-15.92-1.83-7.22-4.78-14-9.92-19.76a24.48,24.48,0,0,0-10.66-7.16c-.48-.16-1-.23-2.16-.48,8.34,6.38,13.23,14.23,16.39,23.15a70.19,70.19,0,0,1,4,24.21"/><path class="cls-1" d="M1743,274.56c-.83-6.24-3-9-3-9a8.4,8.4,0,0,1,4.28,3.69c.82-7.48,8.33-12.84,8.33-12.84-2.19,6-4.88,7.78-3.12,18.41,2.6-5.71,5.88-10.57,13.47-11.06-5.93,3.7-9.44,8.7-9.9,15.37,1.14-2.23,2.18-4.51,3.42-6.69a12.45,12.45,0,0,1,5.59-5.45c-2.57,4.76-7.12,12.05-4.95,21-4.19,0-8.14-5.9-12.31-5.9Z"/><path class="cls-1" d="M1743.47,272.54c.84-4.06,1.5-8.13,2.54-12.11"/><path class="cls-1" d="M858.27,127Zm-30.48,17.06c0-.71.15-1.46-.65-1.91h0c-1.41-2.13-4.6-2.44-5.33-5.25h0a1.58,1.58,0,0,1-.13-.56l-.24-.28a.78.78,0,0,0,.54.19c1.28-2.59,3.26-.2,5.12-.62-.76-1.15-1.2-2.21.24-3s1.3.6,1.7,1.23c.82,1.31,1.78.44,2.7.23a1.09,1.09,0,0,0,0,.48c0,1.08-4.32,2.26-.45,3.27a2.5,2.5,0,0,0,1.88,2.38l.81.23c.58,1.4,1.38,2.76.42,4.38a1.55,1.55,0,0,1-.29.14,2.07,2.07,0,0,0-.08-.42c-1.91-2.15-4.14-.48-6.22-.51Zm-21.65,4.72-.26.33h0c-.4.52-.77,1-1.13,1.59a3.62,3.62,0,0,1,2.63-3.6,2.18,2.18,0,0,0,.06,1.11,1.3,1.3,0,0,0-1.3.56Zm-3.87,6.35c0-.15,0-.32-.09-.5a1.37,1.37,0,0,1-.06-.32c.13-.34.24-.68.35-1a1.19,1.19,0,0,1,.75,0c-.32.61-.64,1.22-1,1.84Zm-3.47,6.81a18.6,18.6,0,0,1-9.09,7.74c-.35.26-.69.52-1.05.76a2.37,2.37,0,0,1-1.74.36l-.19.07a.36.36,0,0,0,0-.09,1.91,1.91,0,0,1-1.45-2.6c.72-2,1-4.29,2.24-6.06.57-.81,1.48-1.27,2-2.09a6.08,6.08,0,0,0,.78-2.82,11.4,11.4,0,0,0,1.79-.85c.42-1.3.94-2.45,2.35-2.35-.6,3.07,0,3.73,4.21,5.3h.38c.25-.53.1-1.76.88-1.44a7.24,7.24,0,0,0,.82.3c-.63,1.27-1.26,2.54-2,3.77Zm-21.88-4.75v0a29.48,29.48,0,0,0-3.84,14.8c-.37,1.47-.75,2.94-1.12,4.4-.16.55-.31,1.09-.47,1.63a28.77,28.77,0,0,1-2.58,3c-3,2.26-6.32,5.41-7.2,8.57-.38.66-.74,1.3-1.12,1.91l-2,.21-.23,0q-.24-.69-.51-1.35c-.25-1.3-.49-2.59-.67-3.9a23.47,23.47,0,0,1,.11-3.75,13.47,13.47,0,0,1,.71-3,30,30,0,0,1,1.7-7.13c1-2.3,2.69-3.71,4.18-5.62,1.79-2.28,1.14-6.13,1.48-9a22.75,22.75,0,0,1,.82-4.07c1.25-1.56,3.19-3.59,4.44-3.11,2.41.93,5.36,1.58,7,3.77-.24.85-.48,1.69-.71,2.54Zm-22.2,8.32a1.94,1.94,0,0,0-.15.36l-.63,2.14-.07.09a1.4,1.4,0,0,0-.26,1l-.69,2.35a1.55,1.55,0,0,0,0,.79c-4.26,11.1-5.34,23.14-8.56,34.6a1.75,1.75,0,0,0-.06.67,8.44,8.44,0,0,0-.54,3.33c-2.36,10-6.54,19.4-10.31,28.94a115.2,115.2,0,0,0-1.12-18.33c-.38-2.34-.95-4.67-1.14-7s.13-5,.15-7.53a24.6,24.6,0,0,0-.43-4.81V202c.22-1.19.46-2.36.7-3.54-.12-3.27.66-6.63,1.21-9.87a70.57,70.57,0,0,1,2.34-9,23.55,23.55,0,0,1,1.11-3.29,11.53,11.53,0,0,1,.33-1.59,1.72,1.72,0,0,1,1.6-1.39l.23-.13a42,42,0,0,1,4.72-1.69c4.77-2.9,8.86-6.7,10.49-11.67a28.8,28.8,0,0,0,2.73-3.23,62.42,62.42,0,0,1-1.6,8.92Zm-26.49-7.26a.52.52,0,0,1,.36-.18,1.94,1.94,0,0,0-.34.49c0-.1,0-.2,0-.31ZM723.48,186a167.33,167.33,0,0,0-3.26,18.09c-.23,1.24-.42,2.48-.58,3.73l-.09.6a24.55,24.55,0,0,1-1.24-9.85,1.61,1.61,0,0,0-.1-.75c0-.54.08-1.08.11-1.62a9.21,9.21,0,0,0,.09-4.37c-.94-4.33-2.84-8.66-6.57-11.24-2-1.38-4.28-2.31-6-4.1a12,12,0,0,0,5.88-11.21c0-.16,0-.31,0-.47a30.61,30.61,0,0,1-1.34-4.37,50.81,50.81,0,0,1-.3-5.92.36.36,0,0,0,.28.11c2.28-.13,2.28,2.16,3.52,3.44,1.63-4.68-2.31-7.84-2.27-11.81h0c1.71.19,1.14,1.59,1.37,2.56h0a1.19,1.19,0,0,0,1.12.71,1.94,1.94,0,0,1,2.1-1.62,5.56,5.56,0,0,1,1.66.33,2.05,2.05,0,0,1,1.35,1.68c.17.2.33.41.49.62h0c.18.25.36.5.53.76l.36.09.16.07.08,0a1.76,1.76,0,0,1,.4.27,1.73,1.73,0,0,1,.48.63c.68,1.53,1.33,3.07,2,4.58a1.66,1.66,0,0,1,1,.45h.14a3.29,3.29,0,0,0-.07.36c-.47,4.66.25,9.24.45,13.9A52.05,52.05,0,0,1,723.48,186Zm-19.81-17.17c-.37.48-.73,1-1.08,1.46l-.66-1.78c-.73-2-1.66-4.12-2.48-6.36-.57-3.06-1-6.15-1.36-9.25a5.64,5.64,0,0,1,2.26-.85c.8-.83.19-1.67,0-2.51-.16-2.57,3.24-2.91,3.33-5.31.46.48.92,1,1.38,1.44a84.33,84.33,0,0,1,1.32,9c.34,5-1,9.51-2.72,14.13Zm-10.51,8.6-.59-.28a.42.42,0,0,0-.12,0,26.4,26.4,0,0,1-10.76-3.45c-.58-.43-1.15-.86-1.71-1.32a1.45,1.45,0,0,0-.34-.2l-.18-.33-3.06-9.91.7-.35h0c.68,2.41,3.7.66,4.65,2.6,1.91-.17,1.23-1.6,1.3-2.67.06-.67.12-1.33.24-2.52a3.9,3.9,0,0,0,2.45,2.5c-.47,2.51,1.1,2.23,2.66,2a4.89,4.89,0,0,1,.84-.44c.14.52.26,1.07.36,1.63a1.65,1.65,0,0,0-.11.94,37.41,37.41,0,0,0,1,4.49,10.64,10.64,0,0,1,1.17,2.18l.13.12a12.69,12.69,0,0,1,2.59,3.69,1,1,0,0,1-1.22,1.39Zm-45.28-27.29c1.74-.65,2.68-1.36,3.84-.64a1.53,1.53,0,0,1-.28,1.1c-1.14,1.24-1.94.24-3.56-.46ZM610,144c-.88-.14-1.79-.38-2.2.74-.34.94.18,1.65.77,2.34s1.67,1.15.83,2.12c-.61.7-1.39-.06-2.06-.35a2.39,2.39,0,0,0-1.26-.24l-.11.08a1.43,1.43,0,0,0-.55-.31c-1.14-.08-1.32-.82-1.37-1.78a4,4,0,0,0-.5-2.48.94.94,0,0,0,.47-.67l1.4-.64h0a9.25,9.25,0,0,0,3.14-1.67c.11,1.79.61,2.88,2.22,2.28.44-.17,3.08-1.11,5.08-1.79-1.59,1.51-3.29,2.8-5.86,2.37ZM661.35,18.57a.56.56,0,0,1,0,.12l-.07,0h0l.11-.15Zm84.74-7.28a4,4,0,0,0-.18.8,1.26,1.26,0,0,1,.18-.8Zm43.74,11.88.08,0c.31,3.42,3.06,3,5.29,3.42v0l.07.15-2.78,2h0c-3,1.64-2,4.68-2.57,7.2-.52-1-2.08-.86-2.1-2.53,0-2.62-2-3-4.18-3-1.71.06-3.44.27-5.07-.55h0c-.05-1.09-1-2.6,1-2.75v.1c.85,2.21,2.39.55,3.61.63,5.77.37,5.92.36,6.67-4.81Zm12.24.4c-.43.1-.87.19-1.31.27a1.21,1.21,0,0,1,1.31-.27Zm6-1.95-.6.24a.94.94,0,0,1,.6-.24Zm-5,129.37a1.55,1.55,0,0,1-.14.63c.05-.21.1-.42.14-.63Zm-1.76,5.14a1.78,1.78,0,0,0,.53-.1l-.33.68a5.74,5.74,0,0,1-.2-.58ZM739,160.52c.19-.46.39-.92.57-1.39a4,4,0,0,1,.5-.34c.49-.48.28-1,.17-1.51a18.87,18.87,0,0,0,1-6.95,6.05,6.05,0,0,1,1.69.87,2.11,2.11,0,0,0,2.73-.35l-.32-.09.2-.08.12.17,1.13,0c1,1,2.28-.69,2.87,0a5.46,5.46,0,0,0,1,.89c-3.18,3.13-4.42,7.58-7.54,10.76a20.67,20.67,0,0,1-4.36,3.28c.13-1.76.21-3.53.25-5.3Zm-29-8.93a1.68,1.68,0,0,1,.7-1.56c1,.77,1.55,1.82-.39,3.29a.84.84,0,0,0-.25.31q0-1-.06-2ZM697.94,141.4c-.16-.06-.34-.11-.52-.16-3.64-.06-5.29.56-5.44,2.52a2.51,2.51,0,0,0-2-1.36l-.21,0c0-1.4,0-2.8,0-4.2h0a1.68,1.68,0,0,0,.65-1.48,11.18,11.18,0,0,1,2.69,2.75c1.15,1.7,3.55,1.72,5,1.31,1.62-.45-.16-2.21-.18-3.42a.58.58,0,0,1,0-.17,1,1,0,0,1-.06-.15.13.13,0,0,0,0-.06c1.13.48,1.75,1.94,3.16,1.86a1.83,1.83,0,0,0-.13,1.71,4.45,4.45,0,0,0-2.94.81ZM586,115.5l-.08-.09h0l.07.1Zm10.13-42.88h0v0ZM724.2,4.75a4.79,4.79,0,0,1,1.62-.27,13.68,13.68,0,0,1-1.62.27Zm10.58,7.52v0h0v0Zm2.61,1.35,0,0,0,0Zm40,11.16.27.17a.31.31,0,0,1-.27-.17ZM789.92,36ZM856.3,95.11h0l.05-.12.07.12Zm-53.12,40.51v0l0,0Zm-27.85,8.57ZM588,121.39a2.38,2.38,0,0,1-1.54.68,1.56,1.56,0,0,1-.19-.13,3.46,3.46,0,0,0-.78,1l0,0c2.83,3.52,2.65,4-2,5.93l2.5.1h0a1,1,0,0,1-.46,1.2,1.32,1.32,0,0,0-.33-.08,1.54,1.54,0,0,0-.9.77c-1.08-1.22-2.26.43-3.39.63h0c.07-1.15,1.11-2.51-.67-3.25a.62.62,0,0,0-.1-.62l.22,0c.55-1.65-.08-3.09-.84-4.49l-.12-.11c3.11.06,4.29-.8,4.7-3.39a3.26,3.26,0,0,0,.58.53c.56.33,1.11.72,1.74.34l0,.1a1.61,1.61,0,0,0,1,.8,1.46,1.46,0,0,1,.51,0ZM695,10.31h-.09l.11-.08,0,0,0,.06ZM856.2,86.44v0h0v0Zm-16.37,45.7a1.06,1.06,0,0,1-.36-.37l.36.37ZM835.18,126a1.46,1.46,0,0,0,.66,0l.06.22-.65.06-.13.12c0-.11,0-.23.06-.35Zm-1.87,2a.5.5,0,0,0,0-.13l.22,0-.18.17ZM770,134.92s0-.08.07-.12,0,0,0,.08l-.11,0ZM624.73,50.67h-.09a.3.3,0,0,0,0-.1l.07.11ZM729,19.67c.1-1,1.37-1.69,1-2.91,1.35.15.4,1.5.84,2.13-.38.67.4.65.67.93a1.49,1.49,0,0,0-1.24,1.75c-2.07.49-1.37-1-1.28-1.9ZM852.42,75.34h0l-.07-.1h0l.07.09Zm1.11,14.93a1.85,1.85,0,0,0-1.22-.26c-.13,0-.24,0-.36.07a1.84,1.84,0,0,1-.23-1.47l.09,0c1.29-.24.85-1.33,1.05-2.11l.08-.06,0,0-.07.06c1.26,1,.56,2.34.7,3.54l-.06.16Zm-3.87,53.94h0Zm-3.23-1.93,0,0,0,0s0,0,0,0Zm-29.37-5.82a2.41,2.41,0,0,0-.33-.53,1.15,1.15,0,0,1,.33.53Zm-1.44-2.24a1,1,0,0,0,.23.13,7.76,7.76,0,0,1-.7,1.25l-.12.06a2.55,2.55,0,0,0,.59-1.44Zm-156.3-14.74c.76-1.88,2.27.63,3.31-.35.28-1.44,1-1,1.74-.4,1.32.3,1.57-.65,2-1.44.8,1.22,1.94,2.49-1.27,3-.63.34-1.12,1-2,.82-1.94-.31-3.05.44-3.56,1.91a3.79,3.79,0,0,1-.19-3.51Zm-1-13.54c1.77-1,3.46-.53,5.54.24-1.86,1.81-2.5,5-5.9,3.27a6.26,6.26,0,0,0,.36-3.51Zm-25.49,17.64c.07-.68-.15-1.56.93-1.73l.18.12a6.44,6.44,0,0,0,1.26,2.33,1.73,1.73,0,0,1-1.1.66c-1,.15-1.37-.47-1.27-1.38ZM722.81,22h0a1.38,1.38,0,0,0,0-.2l.09.2Zm21.36,8.74a.28.28,0,0,1,.08-.12s0,.09,0,.13Zm81.67,10.06h0v0Zm-58,92.09h0Zm72.61-73a3.37,3.37,0,0,0-.4.23l.34-.27.06,0Zm-69.17,57.46.08-.07,0,0-.12,0Zm-141.07-9h0c.21-1.46,1-2.59,2-4.13.8,2-.35,3-.82,4.21a.73.73,0,0,0-1.14-.08ZM823.11,51.93l-.05.08a.49.49,0,0,1,0-.12l0,0Zm-96.18,57a0,0,0,0,0,0,0l-.08,0h0l.08-.08ZM653.28,43.36h0l.06-.12a.43.43,0,0,0-.05.12Zm8.57,7.42.08.12a3.91,3.91,0,0,0-2.11,3.44c-.13,1.75.65,3.56,2.09,3.91,2.08.49,1.05-2.08,1.94-3A16.87,16.87,0,0,1,667.12,62c-1.54-1.21-3.46-1.37-5.25-1.92-3.37-.75-5.63-3.49-8.68-4.81h0c.12-1.09,0-2.56,1.78-1.31.67.46,1.43.95,2,.09s-.41-1.31-.89-1.87a6.81,6.81,0,0,1-1.37-1.81l.41-.14c2.24.13,4.59-1,6.74.52Zm173.29,47.4s0,.09.05.13h-.11l.06-.14Zm-110.16,7-.11.07s0-.06,0-.09l.1,0,0,0h0a.05.05,0,0,0,0,0Zm-81-11.3v0h0l0,0Zm-11.44,1.63c0,.07.07.14.12.22h-.2l.08-.23Zm87.77-66.12h-.08a.29.29,0,0,1,0-.09l.06.09Zm11.33,9.36v0l.18.11c-.08,0-.18-.06-.18-.09Zm22,4a1.57,1.57,0,0,1,.37-.05,1.57,1.57,0,0,1-.37.05Zm26.27,11.36v0h0l0,0Zm21.85-13.19-.09,0h.07l0,0Zm17.37,65.51h.06v.05l-.06,0ZM768,112.89h0l0,0s0,0,0,0ZM724.21,98.44a1.3,1.3,0,0,0,.08-.17l.17.17Zm-6.93-64.2.29-.21h0a1.34,1.34,0,0,1,0,.2Zm83.3,23.06s0,0,0,0h.06l0,0Zm16.95,9.82.08-.16s0,.08,0,.12l-.12,0ZM693.29,104.27l-.24.09h0c0-.09,0-.17,0-.26l.2.17Zm-28.14-29.2a5.81,5.81,0,0,1-2.82-.43,8.62,8.62,0,0,0,2.82.43Zm-15.26-7.15h0l0,0h0s0,0,0,0Zm-7.24,5.23,0,0a.36.36,0,0,0,0-.09,0,0,0,0,1,0,0,.05.05,0,0,0,0,0Zm-3.3,1.1c-2.86-1.46-3.47-1.74-4.2-.12a6,6,0,0,0-1.38-2.5l-.06,0c1-1.07,1.36-3.14,3.61-2.4h0l3.95,3.5h0c-.58.59-1.45.88-1.89,1.61l0,0Zm154.39-9.78a1,1,0,0,1,.11.23c0-.07-.07-.15-.11-.23Zm24.73,4.41c-1.17,3.79,1.68,1,2.5,1.48a.18.18,0,0,0-.05.07c-.15,1.14-1.06,2.23-.49,3.41l-1.21.71s0-.08,0-.13a7.79,7.79,0,0,0-3.26.06c-.16-.64.16-1.48-.75-1.81-1.95-.75-2.89-2.51-4-4.07.47-.81,1.25-.65,2-.6h0c.91,1.55,2,2.36,3.65.88.45-.39,1.78-.28,1.7,0Zm-39.26,37.67h.07l0,0,0,0Zm23.9-38.21c0,.09,0,.18,0,.27h0a.88.88,0,0,1-.32-.23l.31,0Zm13.38,26.1h0l0,0h0v0ZM785.2,97.76l0-.06v.08h0l0,0ZM778,103v0h-.06L778,103ZM705.06,67.36a.28.28,0,0,1,0-.09l.12.08ZM720.91,54Zm0,.09V54l.06,0-.06,0Zm46.9-3.85,0,0a.9.9,0,0,1,0-.16.64.64,0,0,1,.58.36,1.77,1.77,0,0,1-.57-.16Zm54.66,33.66v0h0v0Zm-55.73,3.39c1,.45,2.28.62,2.51,2,.13.82-.48,1.22-1.2,1A3.57,3.57,0,0,1,765.59,88c-.21-.63.45-.84,1.16-.74ZM689.85,69.9h-.09a1.39,1.39,0,0,1,.19-.15l-.1.15Zm-9.37,13.23h0a.15.15,0,0,1,0,.07l-.07,0,.06,0ZM731,58.69a1.14,1.14,0,0,1-.11.11l-.09-.08.2,0Zm31.74,21.15c2.9-.77,1.4-2.17.49-3.47-.15-.12-.29-.23-.44-.33,0-.05,0-.08,0-.13h0l1.37-.06a28.13,28.13,0,0,1,1,3.07c.22,1.11.79,2.81-.34,3.22-1.48.53-1.41-1.46-2.06-2.31ZM701,62.58a1.55,1.55,0,0,0,0,.21h-.14c0-.07.1-.13.15-.21Zm2.69-3.38v0h0l0,0Zm-2.14,2.59s0,0,0,.06h-.07l0-.06Zm69.81,12.76h0a0,0,0,0,1,0,0Zm-50-1.4a.6.6,0,0,1,.2,0,.22.22,0,0,0,.05.08l-.25,0Zm-1,1.94a.61.61,0,0,1-.07.14h0a1.21,1.21,0,0,1-.43-.52l.5.38Zm55.12,6.06h0l.3-.11-.28.12ZM778.14,89h0l-1.42-2.61h0l0-4c1.45,2,3.35,3.86,1.45,6.64ZM614.82,99.67v0l.07,0-.06,0Zm12.55-2.46,1.16.48a1.1,1.1,0,0,0-.63,1.13,3.39,3.39,0,0,0-1.79-.06,2.65,2.65,0,0,1-2.24-1.45,8.13,8.13,0,0,0-1-1.5c1.09-.17,1-1,.82-1.87a5.76,5.76,0,0,0-.41-.44c.19-.8.95-1,1.56-1.29a2.41,2.41,0,0,0,.38,0l.26-.11v0c.71,1.2,2.76.76,3.36,2.1a3.4,3.4,0,0,0-2.18-.38c-.44,1.26,1.11,2.12.67,3.37Zm-34.76,24.46c-.28-.2.09-.18.15,0l-.12,0,0,0ZM755.43,29.43v0h0ZM842.37,55.3h0s0,0,0,0l-.43.07a1.4,1.4,0,0,1,.34-.13ZM739.21,18.72c2.63.75,5.18,1.9,7.77.15l-.07-.06v-1c.7,0,1.37,0,1.36,1.21a3.51,3.51,0,0,0,1,1.53c.35.25.86.68,1.12.49,1.75-1.29,1.09.42,1.33,1-1-.3-1.89.41-2.81.69a5.2,5.2,0,0,1-2.87.68c-.61-1.14-1.45-2.27-2.54-1.58-1.84,1.15-2.21.6-2.72-.94-.22-.62-.57-1.34-1.36-1.11a.64.64,0,0,0-.48.41,1.48,1.48,0,0,1,.25-1.47Zm-83.33,6.05h0l-.11.1v-.1Zm59.76-13.28h0Zm7.29,129.43c-2.54.2-2.79.21-3.21-1.44a.6.6,0,0,0-.14-.58c1-.74,1.37.88,2.61.44,2.51-.9.78.88.74,1.58Zm52.4,3.27h0a7.51,7.51,0,0,0,1.19-2.06c.1,1.09.31,2.16.51,3.24.41,2.3,1.56,3,3.72,2.09.56-.23,1.11-.75,2.07-.22a32.63,32.63,0,0,0-1.62,4.53,1.67,1.67,0,0,0-2.89.57c-.1.3-.18.61-.27.91-2.09-1.13-1.55-3.25-1.55-5.16a6.14,6.14,0,0,0-1.16-3.9Zm33.16,1.2a2.7,2.7,0,0,0-3.57-2,2.06,2.06,0,0,0-.65-1.22,41.25,41.25,0,0,1,5.09-.29,1.46,1.46,0,0,1,1.56.93c.36,1.3-1.08-.1-1.31.79-.15.56-.6,1-.45,1.67a1.92,1.92,0,0,0-.67.11Zm12.83-9.91a.63.63,0,0,0,.1.55l-.3-.34h.12c0-.11,0-.21.07-.32a.41.41,0,0,1,0,.11ZM867,107.68c1,.46,2.13-.1,3.15-.51.3-.22.67-.44.08-.76.42-1.87.52-3.58-2-4v0h0c-.43-.85-2.15-.56-1.83-2.07-.21-.69-.1-1.52-.89-1.94-.69-1.21-.82-3.72-3.05-1.3-1.24-.87-3.35.74-4.12-1.46.05-.18.11-.36.16-.55h0a2.65,2.65,0,0,0,2.79-2.94c-.54-2.9,1.21-1.83,2.11-1.34,1.16.62,2,1.36,2.91-.21a1.46,1.46,0,0,0,.5-1.56h0a4,4,0,0,0,.2-.58c-.25-1.7.85-3.93-2-4.64-.34-.08-1.35-.66-.86-1.44.6-1,1.33.34,2,.07-1.39-2-1.61-4.3-2-6.57l-2,.08L861,74.44h0c-.22-1-2.27-.34-1.72-1.88.67-1.89-.81-2.48-1.84-3.37h0a1.22,1.22,0,0,0,.26-.55h0c1.91-1.72,1.4-3.2-.49-4.49-1.17-.79-2.62-1.58-2.91-2.9-.75-3.48-2.25-6-6-6.61h.07c2-1.58,1.83-3.8,1.88-6-1.75-1.44-3.47.18-5.21,0l-2.38-.57a1.13,1.13,0,0,0-.34-.09h0a1.26,1.26,0,0,0-.51,0c-1.16,0-1.12-.69-.84-1.5h0c.93-1.59,1-3.25-.35-4.52s-2.68-.41-3.79.54-1.17-.37-1.71-.65h0c-2.26-2.32-4.55-4.62-5.51-7.85h0a4.84,4.84,0,0,0,.13-5.34c-1.75-3.16-3.52-.94-5.28,0l-.64-.68c-.44-2.61-1.87-2.7-4-1.77a6.27,6.27,0,0,0-2.79,3h0c-.69.05-1.41.18-1.9-.54h0c-1.19-2.67-.21-6.69-4.57-7.42h0a1.94,1.94,0,0,0-2.52-.91c-4.25,1.35-8.61.48-12.91.42-2.26,0-4.94-2-5.82,1.92h0c-1.75.39-3.48-.94-5.23,0-.4-4-1.43-4.63-4.64-2.67-.4-4.26-4.64-7.32-10-7.24l-.7,1.27h0l-.75.69h0a1.43,1.43,0,0,1-1.82,0h0c-.71-1.29-.38-3.7-2.8-3.21-3.69.74-5.67-2.41-8.58-3.4-.4-1.83-1.17-2.67-3.39-2.42-4,.46-5.07,5.2-9.12,5.86-1.31.22-2.82,1.66-4.58,1.74h0a3.83,3.83,0,0,0-2.16-2.52h0l.72-4c0-2.77-1.63-4.69-3.92-4.26a3.3,3.3,0,0,1-2.68-.54C727.32.6,725,.23,723.31,3a2.3,2.3,0,0,1-2.4,1.24h0v0h0C719.52,2.84,718,3,716.37,3.69l-.79,2.44h0c-.33.77-.65,1.55-1.05,2.48a16.69,16.69,0,0,1-2.14-2c-1.95-2.65-4.09-2-6.33-.49-.6.4-.95,1.46-1.83,1.1-1-.43-.76-1.6-.58-2.33C704.3,2.22,701.11,2,700.82,0c-1.35,1-3.48,0-4.58,1.75-.17.28-.77.29-1.17.42-1-1.36-2.33-.93-3.59-.48-.72.26-1.49.83-2.17.25-2.44-2.1-4.63-2.08-6.92.31C681,3.7,678.64,2,677.13,3.53c-.29.15-.62.46-.87.41-3.11-.64-5.12.3-6.24,3.49a2.78,2.78,0,0,1-3.46,1.8c-2.63-.94-4.68,0-6.64,1.61-1.16,2.49-1.56,5.5-4.64,6.65q-.74,2.25-1.49,4.51a1.05,1.05,0,0,0,.28.17s0,0,0,0l-.25-.21c-1.54,0-3.12-2.59-4.63,0h0c-3,1.84-1.07,5.77-3.35,7.92-.3.12-.75.43-.88.33-4.07-3.07-7.53-1.51-8.29,3.76h0c-.54.06-1.47,0-1.57.22-1.3,3.28-4.77,2.53-7.07,3.91h-1.23c-2.4,1.31-2,3.81-2.23,6.08a13.31,13.31,0,0,0-3.67-1.35c-2-.27-4.05.5-6.08-.26-3.73-1.4-5.46-.11-5.86,4.05h0c.23,1.31-1.23,2.63,0,3.94h0c-.36,1.16.25,1.69,1.26,2l-.12.73h0c-.54.5-2.29,1.23-.36,1.64,2.48.52,1,1.07.44,2s-2.11.62-2.4,1.87h0c-4.85,1.49-5.37,2.6-3.08,6.49h0c.24,1.16-.1,2.28-1.39,1.85-3.32-1.09-5.72-.65-9,1.3-2.47,1.44-3.16,2.43-3.31,4.72-.72.45-1.42,1.21-2.19,1.3-3.06.36-2.76,2.17-2,4.2a24,24,0,0,0,1.4,2.52c0,.42,0,.84,0,1.25l-.65.63c-1.52-.83-3-1.5-4,.7h0a4.67,4.67,0,0,0,.09,4.66h0l-1.3,1.19h0c-1.12,1.47-.66,3.16-.61,4.78l1.75,1.44h0l.89.56c1.42.36,2.12-.89,3.11-1.46,1.3-.75,2.28-.61,3.09.48-.43.65.26,1.32.35,2l-.41-.29c-2.16-.1-2.92.66-1.66,2.67.85,1.62,2.39,1.91,4,2.11h0c-1.34,1-3.22,1.78-2.44,4.09s.07,3.12-2.32,2.7c-.34-.06-.81.63-1.22,1h0c-1.29.5-2.42,1.48-3.92,1.42h0c-.24-.2-.73-.52-.7-.59,1.33-2.82-1-3.68-2.61-4.94.11-2.48-1.69-2.41-3.36-2.52-1-.07-1.79.72-2.86.18-2.24-1.13-3.34.42-4.51,2-1.66,2.23.35,3.87.73,5.77h0c-1,.77-.52,1.7-.42,2.66.25,2.53-3,5.3-5.32,4.63-1.69.48-2.06,2-2.58,3.34.55,1.15,1.09,2.29,1.64,3.43h0c.08.38.16.77.24,1.14h0c-.69-.48-1.41-.89-1.43.48,0,1,.12,1.93.18,2.89,2.21-.63,3.2,2,5.22,1.94h0c.84-.55,1.4-.15,1.88.54,0,3,0,5.91,0,8.87h0c-.14.67.08,1.47-.73,1.88l-1.95,2.7c0,.93,0,1.85,0,2.78,1.33,1.21,2.61,2.58,4.65,1.38l.7-.81c1.72-.56,5.05,1.63,4.57-2.68,2.09,0,4.27-.33,6,1.35h0c0,.21,0,.42,0,.64h0c-1.34.35-1.06,1.88-1.89,2.59-.38-1-.77-2.4-2-2.06s-.37,1.42-.07,2.18h0l-1.36,2.56h-.61c-.89,1.69-3.21,3-1.42,5.41l.78,0a3.4,3.4,0,0,0,2.56,2.06c1.63-1.29,2.24-3.76,4.72-4.08,1.72,0,2,1.53,2.65,2.62l2,.57a1.38,1.38,0,0,0,.47-1.26h0c2.39-.43,3.37-1.94,2.78-4.4-.34-1.43.28-2.77.09-4.16h0c1.37-.9,2.47-.38,3.47.68h0c-.78,1.83-.32,3.09,1.32,3.81-.83.57-1.73,1.24-.58,2.2s1.75,2.3,1,3.35c-.94,1.35-2.09-.33-3.2-.47-1.76-.22-3.81-1.24-4.45,1.63.55,2.82,3,1.43,4.36,1.57a2.74,2.74,0,0,1,2.3,1.09,5.5,5.5,0,0,0-.34.91,2.16,2.16,0,0,0,.81,1.74c1-.68.1-3.26,2.52-2.45.88.46,2,.34,2.66,1.34,1.47,1.87,2.85,3.61,5.06.66,1.17-1.57,2.33-.27,3.38.47,1.88.76,1.85,3.72,4.35,3.77,2.32-1.13,2.39-2.6.61-4.29-.49-.46-1.19-.9-.81-1.6,1-1.82.17-3.81.54-6,.92,1.95,2.62,3,2.53,5.15,0,.72.74,1.25,1.71,1,3-.67,3-.65,2.25,2.34a4.27,4.27,0,0,0-.11,1.63c.18,3,2.2,3.54,4.64,3.6,1.22.19.6-1.44,1.92-1.73a5.82,5.82,0,0,0,4.17-4.4c.46-2.55-2.21-2.82-4-3.56a.53.53,0,0,1-.21-.59c1.18.78,2.57.49,3.85.74s2.67-.06,3.91.57a5.62,5.62,0,0,0,.77.4,2.34,2.34,0,0,0,1.23.05c1.6,1.29,3.25,2.48,5.45,2.45,5.79.35,5.79.35,6.5-3.16a.82.82,0,0,0,0-.28c-.21,0-.42,0-.63,0-.07-.75-.4-1.88.31-2.08.95-.28,1.74.65,2.4,1.39a1.51,1.51,0,0,1-1.13.66c-1.34,1.58-1.39,3.72-2.24,5.53-.53,1.1-.31,2.4,1.42,2.55l0,0c1-.87,2.85,2,2.77.14-.09-2.07,1.84-2.11,2-3.49h0a2.06,2.06,0,0,1,2.67,0c1.18.74,2,.48,2.5-.86h0c.62-.63.86-2.44,2.25-.64.34.43,1.09.54,1.65.79h0c0,.9,0,2,.95,2.29s1.73-.76,2-1.33c1.27-2.43,2.4-1.95,3.9-.25.41.46,1.72.34,2.89,0,.25.65.5,1.3.76,1.95.28,1.37.57,2.74.85,4.11.37,1.8.39,4.41,1.85,5.75a9.59,9.59,0,0,0,4.4,1.73,23.67,23.67,0,0,0,8.25,2.51l2.72.94a2.07,2.07,0,0,0,.4.09,61.09,61.09,0,0,0,6.6,1.78,10.54,10.54,0,0,1,1.67.61,14,14,0,0,0,4.57,5.65l.25.41a82.15,82.15,0,0,1,3.36,10.16c.08.65.17,1.29.27,1.91q.33,2.1.78,4.17,0,5.7.21,11.39c.29.81.56,1.63.78,2.46,1.27,3,3,5.87,4,9a1.77,1.77,0,0,1,.12.17,14.81,14.81,0,0,1,1.18,5.35,73.43,73.43,0,0,0,2.18,8.77c.07.59.14,1.18.2,1.78a49.06,49.06,0,0,1,.3,5.83,2.15,2.15,0,0,1-.18.88c0,1.7-.07,3.39-.15,5.09a45.47,45.47,0,0,0,.75,6.55,1.71,1.71,0,0,1,.13.23.91.91,0,0,1,.07.14c.91.36,1.79.76,2.66,1.19a26.73,26.73,0,0,0,3.69,0,243.69,243.69,0,0,0,24.92.07,9.76,9.76,0,0,0,1.08-.84c.27-.34.53-.69.78-1,.07-.52.14-1,.22-1.55,0-1.75.1-3.5.21-5.23-1.5-13.44-1-27.19,2.53-40.22a21.88,21.88,0,0,1,1.66-4.16,25.94,25.94,0,0,1,5.08-9l.93-.21a10.73,10.73,0,0,1,2.67-1.21,21.56,21.56,0,0,0,9-5.56,21.73,21.73,0,0,1,2-1.78,19,19,0,0,0,1.55-2.7c2-4.25,3.62-8.74,5.22-13.21q2.24-2.44,4.63-4.75a28.26,28.26,0,0,1,2.67-1.41c2.81-1.28,5.82-2,8.25-4a15.89,15.89,0,0,0,4.27-5.84,1.68,1.68,0,0,0,.69-.86l4.2-11c.43-1,.86-1.9,1.27-2.86a1.84,1.84,0,0,0,0-1.44c1.45.9,2.87,1.83,1.8,4.15-.8,2.84-3,5.37-2,8.64l.62.64c-1.55,1.62.56,2.61.67,3.95l.66-.7h0c.19.74,0,1.94,1.41,1.29l.57.26h0c.63,2.13,1.81,3.06,4,1.87,3.18.86,2.13-1.91,2.78-3.23h0c1.17,0,1.95.45,1.59,1.8-.21.77,0,1.62.78,1.24,3-1.5,6.61.11,9.51-1.81a1.5,1.5,0,0,1-.72-1.36c1.24-1.46-2.89-1.33-.94-2.25,2.11-1,1.47-2.33,1.62-3.72l-2-1.33c.11-3.29,2.94-1.45,3.23-1.08,2.25,2.9,5.81,1.13,8.74,3.52-.53-1.87-1.77-2.47-1.42-3.67h0c1-2.85,2.19-.16,3.29-.05h0c.23,1.54,1.31,2.21,2.64,2.63h0l0,1.18-2.47-.43c2.1.91-1.51,3.35,1.1,4h0l0,0c1.12.58,1.28,1.65,1.46,2.75.13.83,2.8,3.45,2.84,3.24.44-2.12,3.5-1.76,3.73-4,1.28.76,2.82-.4,4.08.56,0-.43,0-.86,0-1.29h0l1.82-.86.09-1.09h0l0-1.38h0L855,157.44h0c-1.5-1.91.2-2.45,1.38-3.22h0l.3,0h.3l2,0h0c1.76,1.22,3.68.74,5.23-.11,1.15-.62-.25-1.64-.53-2.49h0l3.2.65c.48-.66,1-1.33,1.42-2,0-1.45,0-2.8-1.66-3.54-1.06-.47-1.1-1.5-1-2.52-.54-1.05-2-2.57-1.34-3.11,1.92-1.65-.2-2.75-.11-4.06l0-1.25c1.8.45,2.8,0,3-2.08.14-1.25.51-2.68,2.28-2.74a4.25,4.25,0,0,0,0-4.63H866.9c-1.37.17-1.66-.27-1.76-1.77-.21-3.22-1.67-3.93-4.8-2.85-1.2.44-1.4,1.33-1.07,2.45a1.81,1.81,0,0,0,.28.33c-.42.85-.85,1.7-1.28,2.56-.57,0-1.12-.13-1.41-.72h0c.65-1.85-.56-3.16-1.32-4.59h0c.61-1.68-1.2-2.58-1.29-4h0c1.75-5.08,1.12-6.62-3.42-8.77-1-.47-2.37-1-1.31-2.63,1.54-.37,2.82.76,4.26,1l.31.49a9.05,9.05,0,0,0,2.68,4.83c1.4,1.19,2,4.19,3.82,3.67,2-.58,2.28-3.47,3.1-5.46,0-.09,0-.22,0-.33.08-2.16.21-4.16,3.33-2.73Z"/></g></svg>