<svg xmlns="http://www.w3.org/2000/svg" xmlns:xlink="http://www.w3.org/1999/xlink" viewBox="0 0 602.27 462.67"><defs><style>.cls-1{fill:url(#linear-gradient);}.cls-2{fill:url(#linear-gradient-2);}.cls-3{fill:url(#linear-gradient-3);}.cls-4{fill:url(#linear-gradient-4);}.cls-5{fill:url(#linear-gradient-5);}.cls-6{fill:url(#linear-gradient-6);}.cls-7{fill:url(#linear-gradient-7);}.cls-8{fill:url(#linear-gradient-8);}.cls-9{fill:url(#linear-gradient-9);}.cls-10{fill:url(#linear-gradient-10);}.cls-11{fill:url(#linear-gradient-11);}.cls-12{fill:url(#linear-gradient-12);}.cls-13{fill:url(#linear-gradient-13);}.cls-14{fill:url(#linear-gradient-14);}.cls-15{fill:url(#linear-gradient-15);}.cls-16{fill:url(#linear-gradient-16);}.cls-17{fill:url(#linear-gradient-17);}.cls-18{fill:url(#linear-gradient-18);}.cls-19{fill:url(#linear-gradient-19);}.cls-20{fill:url(#linear-gradient-20);}.cls-21{fill:url(#linear-gradient-21);}.cls-22,.cls-23,.cls-30,.cls-31,.cls-32,.cls-33,.cls-34{fill:none;stroke-miterlimit:10;}.cls-22,.cls-23{stroke-linecap:round;}.cls-22{stroke:url(#linear-gradient-22);}.cls-23{stroke:url(#linear-gradient-23);}.cls-24{fill:url(#linear-gradient-24);}.cls-25{fill:url(#linear-gradient-25);}.cls-26{fill:url(#linear-gradient-26);}.cls-27{fill:url(#linear-gradient-27);}.cls-28{fill:url(#linear-gradient-28);}.cls-29{fill:url(#linear-gradient-29);}.cls-30{stroke:url(#linear-gradient-30);}.cls-31{stroke:url(#linear-gradient-31);}.cls-32{stroke:url(#linear-gradient-32);}.cls-33{stroke:url(#linear-gradient-33);}.cls-34{stroke:url(#linear-gradient-34);}.cls-35{fill:url(#linear-gradient-35);}.cls-36{fill:url(#linear-gradient-36);}.cls-37{fill:url(#linear-gradient-37);}.cls-38{fill:url(#linear-gradient-38);}.cls-39{fill:url(#linear-gradient-39);}.cls-40{fill:url(#linear-gradient-40);}.cls-41{fill:url(#linear-gradient-41);}.cls-42{fill:url(#linear-gradient-42);}.cls-43{fill:url(#linear-gradient-43);}.cls-44{fill:url(#linear-gradient-44);}.cls-45{fill:url(#linear-gradient-45);}.cls-46{fill:url(#linear-gradient-46);}.cls-47{fill:url(#linear-gradient-47);}.cls-48{fill:url(#linear-gradient-48);}.cls-49{fill:url(#linear-gradient-49);}.cls-50{fill:url(#linear-gradient-50);}.cls-51{fill:url(#linear-gradient-51);}.cls-52{fill:url(#linear-gradient-52);}.cls-53{fill:url(#linear-gradient-53);}.cls-54{fill:url(#linear-gradient-54);}.cls-55{fill:url(#linear-gradient-55);}.cls-56{fill:url(#linear-gradient-56);}.cls-57{fill:url(#linear-gradient-57);}.cls-58{fill:url(#linear-gradient-58);}.cls-59{fill:url(#linear-gradient-59);}.cls-60{fill:url(#linear-gradient-60);}.cls-61{fill:url(#linear-gradient-61);}.cls-62{fill:url(#linear-gradient-62);}.cls-63{fill:url(#linear-gradient-63);}.cls-64{fill:url(#linear-gradient-64);}.cls-65{fill:url(#linear-gradient-65);}.cls-66{fill:url(#linear-gradient-66);}.cls-67{fill:url(#linear-gradient-67);}.cls-68{fill:url(#linear-gradient-68);}.cls-69{fill:url(#linear-gradient-69);}.cls-70{fill:url(#linear-gradient-70);}.cls-71{fill:url(#linear-gradient-71);}.cls-72{fill:url(#linear-gradient-72);}.cls-73{fill:url(#linear-gradient-73);}.cls-74{fill:url(#linear-gradient-74);}.cls-75{fill:url(#linear-gradient-75);}.cls-76{fill:url(#linear-gradient-76);}.cls-77{fill:url(#linear-gradient-77);}.cls-78{fill:url(#linear-gradient-78);}.cls-79{fill:url(#linear-gradient-79);}.cls-80{fill:url(#linear-gradient-80);}.cls-81{fill:url(#linear-gradient-81);}.cls-82{fill:url(#linear-gradient-82);}.cls-83{fill:url(#linear-gradient-83);}.cls-84{fill:url(#linear-gradient-84);}.cls-85{fill:url(#linear-gradient-85);}.cls-86{fill:url(#linear-gradient-86);}.cls-87{fill:url(#linear-gradient-87);}.cls-88{fill:url(#linear-gradient-88);}.cls-89{fill:url(#linear-gradient-89);}.cls-90{fill:url(#linear-gradient-90);}.cls-91{fill:url(#linear-gradient-91);}.cls-92{fill:url(#linear-gradient-92);}.cls-93{fill:url(#linear-gradient-93);}.cls-94{fill:url(#linear-gradient-94);}.cls-95{fill:url(#linear-gradient-95);}.cls-96{fill:url(#linear-gradient-96);}.cls-97{fill:url(#linear-gradient-97);}.cls-98{fill:url(#linear-gradient-98);}.cls-99{fill:url(#linear-gradient-99);}.cls-100{fill:url(#linear-gradient-100);}.cls-101{fill:url(#linear-gradient-101);}.cls-102{fill:url(#linear-gradient-102);}.cls-103{fill:url(#linear-gradient-103);}.cls-104{fill:url(#linear-gradient-104);}.cls-105{fill:url(#linear-gradient-105);}.cls-106{fill:url(#linear-gradient-106);}.cls-107{fill:url(#linear-gradient-107);}.cls-108{fill:url(#linear-gradient-108);}.cls-109{fill:url(#linear-gradient-109);}.cls-110{fill:url(#linear-gradient-110);}.cls-111{fill:url(#linear-gradient-111);}.cls-112{fill:url(#linear-gradient-112);}.cls-113{fill:url(#linear-gradient-113);}.cls-114{fill:url(#linear-gradient-114);}.cls-115{fill:url(#linear-gradient-115);}.cls-116{fill:url(#linear-gradient-116);}.cls-117{fill:url(#linear-gradient-117);}.cls-118{fill:url(#linear-gradient-118);}.cls-119{fill:url(#linear-gradient-119);}.cls-120{fill:url(#linear-gradient-120);}.cls-121{fill:url(#linear-gradient-121);}.cls-122{fill:url(#linear-gradient-122);}.cls-123{fill:url(#linear-gradient-123);}</style><linearGradient id="linear-gradient" x1="559.56" y1="180.1" x2="580.09" y2="180.1" gradientUnits="userSpaceOnUse"><stop offset="0" stop-color="#80634b"/><stop offset="0.41" stop-color="#907256"/></linearGradient><linearGradient id="linear-gradient-2" x1="559.96" y1="246.48" x2="604.95" y2="230.13" gradientUnits="userSpaceOnUse"><stop offset="0" stop-color="#80634b"/><stop offset="0.63" stop-color="#907256"/></linearGradient><linearGradient id="linear-gradient-3" x1="591.33" y1="280.52" x2="586.85" y2="265.96" gradientUnits="userSpaceOnUse"><stop offset="0" stop-color="#80634b"/><stop offset="0.77" stop-color="#907256"/></linearGradient><linearGradient id="linear-gradient-4" x1="521.35" y1="326.19" x2="579.78" y2="326.19" xlink:href="#linear-gradient"/><linearGradient id="linear-gradient-5" x1="515.73" y1="389.77" x2="541.58" y2="389.77" gradientUnits="userSpaceOnUse"><stop offset="0" stop-color="#80634b"/><stop offset="0.55" stop-color="#83654d"/><stop offset="0.88" stop-color="#8b6d53"/><stop offset="1" stop-color="#907256"/></linearGradient><linearGradient id="linear-gradient-6" x1="-396.52" y1="3175.41" x2="-405.27" y2="3187.31" gradientTransform="matrix(0.92, -0.59, 0.44, 0.69, -434.07, -2127.01)" gradientUnits="userSpaceOnUse"><stop offset="0" stop-color="#80634b"/><stop offset="1" stop-color="#907256"/></linearGradient><linearGradient id="linear-gradient-7" x1="-1499.88" y1="4358.85" x2="-1508.63" y2="4370.76" gradientTransform="matrix(0.81, -0.95, 0.62, 0.53, -878.98, -3449.83)" xlink:href="#linear-gradient-6"/><linearGradient id="linear-gradient-8" x1="598.24" y1="270.49" x2="591.2" y2="298.14" gradientTransform="matrix(1, 0, 0, 1, 0, 0)" xlink:href="#linear-gradient-6"/><linearGradient id="linear-gradient-9" x1="522.83" y1="145.77" x2="567.74" y2="145.77" xlink:href="#linear-gradient"/><linearGradient id="linear-gradient-10" x1="499.29" y1="162.6" x2="540.58" y2="162.6" xlink:href="#linear-gradient"/><linearGradient id="linear-gradient-11" x1="499.43" y1="327.37" x2="528.34" y2="327.37" gradientUnits="userSpaceOnUse"><stop offset="0" stop-color="#80634b"/><stop offset="0.5" stop-color="#8c6e53"/><stop offset="1" stop-color="#907256"/></linearGradient><linearGradient id="linear-gradient-12" x1="682.58" y1="290.03" x2="470.93" y2="207.66" gradientUnits="userSpaceOnUse"><stop offset="0" stop-color="#736357"/><stop offset="0.17" stop-color="#877666"/><stop offset="0.47" stop-color="#a4917c"/><stop offset="0.72" stop-color="#b6a189"/><stop offset="0.91" stop-color="#bca78e"/></linearGradient><linearGradient id="linear-gradient-13" x1="393.91" y1="171.61" x2="409.35" y2="171.61" xlink:href="#linear-gradient"/><linearGradient id="linear-gradient-14" x1="408.39" y1="168.96" x2="514.73" y2="168.96" xlink:href="#linear-gradient"/><linearGradient id="linear-gradient-15" x1="411.29" y1="193.63" x2="395.06" y2="174.16" gradientUnits="userSpaceOnUse"><stop offset="0" stop-color="#80634b"/><stop offset="0.9" stop-color="#907256"/></linearGradient><linearGradient id="linear-gradient-16" x1="374.89" y1="179.82" x2="408.46" y2="179.82" gradientUnits="userSpaceOnUse"><stop offset="0" stop-color="#80634b"/><stop offset="0.78" stop-color="#907256"/></linearGradient><linearGradient id="linear-gradient-17" x1="391.64" y1="183.47" x2="399.81" y2="183.47" xlink:href="#linear-gradient-16"/><linearGradient id="linear-gradient-18" x1="394.13" y1="185.71" x2="407.09" y2="185.71" xlink:href="#linear-gradient-16"/><linearGradient id="linear-gradient-19" x1="485.22" y1="401.75" x2="545.8" y2="389.07" gradientUnits="userSpaceOnUse"><stop offset="0.12" stop-color="#80634b"/><stop offset="0.19" stop-color="#82654c"/><stop offset="0.62" stop-color="#896d52"/><stop offset="0.89" stop-color="#907256"/></linearGradient><linearGradient id="linear-gradient-20" x1="489.28" y1="444.4" x2="537.81" y2="444.4" xlink:href="#linear-gradient"/><linearGradient id="linear-gradient-21" x1="508.11" y1="110.92" x2="555.02" y2="110.92" xlink:href="#linear-gradient"/><linearGradient id="linear-gradient-22" x1="546.77" y1="152.38" x2="520.8" y2="147.62" gradientUnits="userSpaceOnUse"><stop offset="0.3" stop-color="#b5504a"/><stop offset="0.49" stop-color="#a44642"/><stop offset="0.72" stop-color="#933c39"/></linearGradient><linearGradient id="linear-gradient-23" x1="549.12" y1="153.54" x2="545.5" y2="152.88" xlink:href="#linear-gradient-22"/><linearGradient id="linear-gradient-24" x1="536.57" y1="116.51" x2="526.62" y2="114.69" gradientTransform="matrix(1, 0, 0, 1, 0, 0)" xlink:href="#linear-gradient-6"/><linearGradient id="linear-gradient-25" x1="488.14" y1="197.24" x2="613.97" y2="197.24" xlink:href="#linear-gradient-22"/><linearGradient id="linear-gradient-26" x1="511.48" y1="86.75" x2="548.91" y2="86.75" gradientUnits="userSpaceOnUse"><stop offset="0" stop-color="#c7914a"/><stop offset="0.02" stop-color="#c8924b"/><stop offset="1" stop-color="#ffcd89"/></linearGradient><linearGradient id="linear-gradient-27" x1="502.7" y1="91.34" x2="543.57" y2="91.34" xlink:href="#linear-gradient-26"/><linearGradient id="linear-gradient-28" x1="497.54" y1="53.69" x2="626.6" y2="55.98" gradientUnits="userSpaceOnUse"><stop offset="0" stop-color="#bababa"/><stop offset="0.13" stop-color="#b3b3b3"/><stop offset="0.33" stop-color="#9f9f9f"/><stop offset="0.56" stop-color="#7e7e7e"/><stop offset="0.82" stop-color="#515151"/><stop offset="0.92" stop-color="#3d3d3d"/></linearGradient><linearGradient id="linear-gradient-29" x1="573.39" y1="24" x2="482.17" y2="21.02" gradientUnits="userSpaceOnUse"><stop offset="0.42" stop-color="#bababa"/><stop offset="0.62" stop-color="#b8b8b8"/><stop offset="0.72" stop-color="#b0b0b0"/><stop offset="0.79" stop-color="#a3a3a3"/><stop offset="0.85" stop-color="#919191"/><stop offset="0.91" stop-color="#797979"/><stop offset="0.96" stop-color="#5c5c5c"/><stop offset="1" stop-color="#3d3d3d"/></linearGradient><linearGradient id="linear-gradient-30" x1="502.5" y1="36.31" x2="562.24" y2="36.31" xlink:href="#linear-gradient-29"/><linearGradient id="linear-gradient-31" x1="502.85" y1="39.16" x2="561.6" y2="39.16" xlink:href="#linear-gradient-29"/><linearGradient id="linear-gradient-32" x1="503.1" y1="41.83" x2="561.02" y2="41.83" xlink:href="#linear-gradient-29"/><linearGradient id="linear-gradient-33" x1="508.83" y1="81.8" x2="553.05" y2="81.8" xlink:href="#linear-gradient-29"/><linearGradient id="linear-gradient-34" x1="508.37" y1="78.91" x2="553.76" y2="78.91" xlink:href="#linear-gradient-29"/><linearGradient id="linear-gradient-35" x1="501.06" y1="11.35" x2="516.72" y2="11.35" xlink:href="#linear-gradient-22"/><linearGradient id="linear-gradient-36" x1="528.61" y1="16.67" x2="502.15" y2="16.23" xlink:href="#linear-gradient-26"/><linearGradient id="linear-gradient-37" x1="546.46" y1="16.54" x2="567.2" y2="16.54" xlink:href="#linear-gradient-26"/><linearGradient id="linear-gradient-38" x1="553.74" y1="14.27" x2="525.44" y2="12.77" xlink:href="#linear-gradient-22"/><linearGradient id="linear-gradient-39" x1="549.48" y1="30.92" x2="528.06" y2="-5.8" xlink:href="#linear-gradient-26"/><linearGradient id="linear-gradient-40" x1="103.76" y1="1.83" x2="223.64" y2="13.15" gradientTransform="matrix(0.98, 0.03, -0.03, 1.13, -99.04, 110.94)" gradientUnits="userSpaceOnUse"><stop offset="0" stop-color="#bababa"/><stop offset="0.18" stop-color="#b6b6b6"/><stop offset="0.36" stop-color="#aaa"/><stop offset="0.54" stop-color="#969696"/><stop offset="0.72" stop-color="#7b7b7b"/><stop offset="0.89" stop-color="#575757"/><stop offset="1" stop-color="#3d3d3d"/></linearGradient><linearGradient id="linear-gradient-41" x1="118.84" y1="-24.88" x2="182.12" y2="-12.62" gradientTransform="matrix(0.98, 0.03, -0.03, 1.13, -99.04, 110.94)" xlink:href="#linear-gradient-29"/><linearGradient id="linear-gradient-42" x1="146.18" y1="-46.03" x2="146.18" y2="-35.7" gradientTransform="translate(-97.85 115.11) scale(0.98 1.13)" gradientUnits="userSpaceOnUse"><stop offset="0" stop-color="#bababa"/><stop offset="0.43" stop-color="#b8b8b8"/><stop offset="0.58" stop-color="#b1b1b1"/><stop offset="0.7" stop-color="#a6a6a6"/><stop offset="0.78" stop-color="#959595"/><stop offset="0.86" stop-color="#7f7f7f"/><stop offset="0.93" stop-color="#636363"/><stop offset="0.99" stop-color="#444"/><stop offset="1" stop-color="#3d3d3d"/></linearGradient><linearGradient id="linear-gradient-43" x1="73.9" y1="229.21" x2="111.15" y2="229.21" gradientUnits="userSpaceOnUse"><stop offset="0" stop-color="#80634b"/><stop offset="0.72" stop-color="#907256"/></linearGradient><linearGradient id="linear-gradient-44" x1="105.22" y1="282.44" x2="113.55" y2="275.56" xlink:href="#linear-gradient-43"/><linearGradient id="linear-gradient-45" x1="106.8" y1="289.77" x2="114.76" y2="289.77" xlink:href="#linear-gradient-43"/><linearGradient id="linear-gradient-46" x1="78.2" y1="764.29" x2="88.97" y2="764.29" gradientTransform="translate(-57.66 -461.82) rotate(-6.24)" xlink:href="#linear-gradient-6"/><linearGradient id="linear-gradient-47" x1="66.68" y1="869.02" x2="76.99" y2="869.02" gradientTransform="translate(-77.36 -564.65) rotate(-7.63)" xlink:href="#linear-gradient-6"/><linearGradient id="linear-gradient-48" x1="115.12" y1="292.54" x2="99.77" y2="271.79" xlink:href="#linear-gradient-43"/><linearGradient id="linear-gradient-49" x1="-1.57" y1="107.84" x2="38.65" y2="126.57" xlink:href="#linear-gradient-43"/><linearGradient id="linear-gradient-50" x1="-8267.27" y1="2106.1" x2="-8288.8" y2="2107.44" gradientTransform="translate(-8251.14 -2048.45) rotate(-151.27)" xlink:href="#linear-gradient-43"/><linearGradient id="linear-gradient-51" x1="26.88" y1="241.06" x2="75.75" y2="241.06" xlink:href="#linear-gradient-43"/><linearGradient id="linear-gradient-52" x1="31.56" y1="372.99" x2="47.86" y2="372.99" xlink:href="#linear-gradient-43"/><linearGradient id="linear-gradient-53" x1="50.87" y1="376.13" x2="68.43" y2="376.13" xlink:href="#linear-gradient-43"/><linearGradient id="linear-gradient-54" x1="30.5" y1="148.9" x2="59.94" y2="148.9" xlink:href="#linear-gradient-43"/><linearGradient id="linear-gradient-55" x1="37.16" y1="399.8" x2="48.6" y2="399.8" xlink:href="#linear-gradient-43"/><linearGradient id="linear-gradient-56" x1="50.46" y1="403.76" x2="60.77" y2="403.76" xlink:href="#linear-gradient-43"/><linearGradient id="linear-gradient-57" x1="35.74" y1="159.8" x2="56.26" y2="159.8" xlink:href="#linear-gradient-43"/><linearGradient id="linear-gradient-58" x1="49.21" y1="155.78" x2="9.12" y2="171.01" gradientUnits="userSpaceOnUse"><stop offset="0" stop-color="#6a767f"/><stop offset="0.12" stop-color="#7b8e9b"/><stop offset="0.31" stop-color="#93b1c3"/><stop offset="0.73" stop-color="#a5cae0"/><stop offset="1" stop-color="#add5ed"/></linearGradient><linearGradient id="linear-gradient-59" x1="86.59" y1="264.88" x2="14.05" y2="146.48" gradientUnits="userSpaceOnUse"><stop offset="0" stop-color="#6a767f"/><stop offset="0.04" stop-color="#6e7c86"/><stop offset="0.36" stop-color="#90acbe"/><stop offset="0.6" stop-color="#a5cae0"/><stop offset="0.72" stop-color="#add5ed"/></linearGradient><linearGradient id="linear-gradient-60" x1="42.9" y1="186.75" x2="92.2" y2="186.75" gradientUnits="userSpaceOnUse"><stop offset="0" stop-color="#6a767f"/><stop offset="0.05" stop-color="#6e7b85"/><stop offset="0.49" stop-color="#90acbd"/><stop offset="0.82" stop-color="#a5cae0"/><stop offset="1" stop-color="#add5ed"/></linearGradient><linearGradient id="linear-gradient-61" x1="22.11" y1="302.75" x2="127.6" y2="302.75" gradientUnits="userSpaceOnUse"><stop offset="0" stop-color="#c3949b"/><stop offset="0.41" stop-color="#d9b2b6"/><stop offset="0.75" stop-color="#e8c6c9"/></linearGradient><linearGradient id="linear-gradient-62" x1="58.55" y1="226.96" x2="91.74" y2="176.21" xlink:href="#linear-gradient-60"/><linearGradient id="linear-gradient-63" x1="44.13" y1="152.33" x2="6.44" y2="163.48" xlink:href="#linear-gradient-60"/><linearGradient id="linear-gradient-64" x1="37.98" y1="167.29" x2="58.73" y2="167.29" xlink:href="#linear-gradient-60"/><linearGradient id="linear-gradient-65" x1="106.89" y1="235.64" x2="-14.63" y2="236.75" xlink:href="#linear-gradient-60"/><linearGradient id="linear-gradient-66" x1="-13.87" y1="328.51" x2="99.06" y2="262.35" gradientUnits="userSpaceOnUse"><stop offset="0" stop-color="#c3949b"/><stop offset="0.55" stop-color="#d9b2b6"/><stop offset="1" stop-color="#e8c6c9"/></linearGradient><linearGradient id="linear-gradient-67" x1="47.86" y1="272.42" x2="49.67" y2="219.01" xlink:href="#linear-gradient-61"/><linearGradient id="linear-gradient-68" x1="29.76" y1="137.86" x2="59.92" y2="137.86" gradientUnits="userSpaceOnUse"><stop offset="0" stop-color="#c7914a"/><stop offset="0.03" stop-color="#ca954e"/><stop offset="0.26" stop-color="#e1ad68"/><stop offset="0.49" stop-color="#f2bf7a"/><stop offset="0.73" stop-color="#fcca85"/><stop offset="1" stop-color="#ffcd89"/></linearGradient><linearGradient id="linear-gradient-69" x1="28.84" y1="144.93" x2="61.15" y2="144.93" xlink:href="#linear-gradient-68"/><linearGradient id="linear-gradient-70" x1="31.88" y1="133.33" x2="59.87" y2="133.33" xlink:href="#linear-gradient-68"/><linearGradient id="linear-gradient-71" x1="265.96" y1="448.15" x2="276.71" y2="448.15" gradientUnits="userSpaceOnUse"><stop offset="0" stop-color="#808663"/><stop offset="0.75" stop-color="#99a575"/></linearGradient><linearGradient id="linear-gradient-72" x1="266.08" y1="452.6" x2="286.07" y2="452.6" xlink:href="#linear-gradient"/><linearGradient id="linear-gradient-73" x1="346" y1="139.5" x2="343.66" y2="77.93" xlink:href="#linear-gradient"/><linearGradient id="linear-gradient-74" x1="232.8" y1="225.11" x2="196.52" y2="236.58" gradientUnits="userSpaceOnUse"><stop offset="0" stop-color="#80634b"/><stop offset="0.41" stop-color="#907256"/></linearGradient><linearGradient id="linear-gradient-75" x1="212.62" y1="261.36" x2="231.88" y2="261.36" xlink:href="#linear-gradient"/><linearGradient id="linear-gradient-76" x1="211.95" y1="270.97" x2="222.51" y2="270.97" gradientUnits="userSpaceOnUse"><stop offset="0" stop-color="#80634b"/><stop offset="0.24" stop-color="#876a50"/><stop offset="0.41" stop-color="#907256"/></linearGradient><linearGradient id="linear-gradient-77" x1="213.1" y1="274.27" x2="230.55" y2="263.83" xlink:href="#linear-gradient"/><linearGradient id="linear-gradient-78" x1="220.31" y1="275.27" x2="223.77" y2="268.27" gradientUnits="userSpaceOnUse"><stop offset="0" stop-color="#80634b"/><stop offset="0.69" stop-color="#907256"/></linearGradient><linearGradient id="linear-gradient-79" x1="224.64" y1="280.54" x2="226.6" y2="261.85" xlink:href="#linear-gradient-78"/><linearGradient id="linear-gradient-80" x1="229.7" y1="140.23" x2="260.2" y2="140.23" xlink:href="#linear-gradient-26"/><linearGradient id="linear-gradient-81" x1="240.92" y1="134.07" x2="257.33" y2="134.07" xlink:href="#linear-gradient-26"/><linearGradient id="linear-gradient-82" x1="262.16" y1="108.48" x2="301.03" y2="108.48" xlink:href="#linear-gradient"/><linearGradient id="linear-gradient-83" x1="260.23" y1="105.45" x2="265.31" y2="105.45" xlink:href="#linear-gradient"/><linearGradient id="linear-gradient-84" x1="295.72" y1="104.96" x2="301.71" y2="104.96" xlink:href="#linear-gradient"/><linearGradient id="linear-gradient-85" x1="236.49" y1="374.89" x2="319.31" y2="374.89" gradientUnits="userSpaceOnUse"><stop offset="0" stop-color="#6a767f"/><stop offset="0.16" stop-color="#707e88"/><stop offset="0.42" stop-color="#7f94a1"/><stop offset="0.75" stop-color="#98b7ca"/><stop offset="1" stop-color="#add5ed"/></linearGradient><linearGradient id="linear-gradient-86" x1="261.85" y1="383.57" x2="358.33" y2="383.57" xlink:href="#linear-gradient-85"/><linearGradient id="linear-gradient-87" x1="260.58" y1="411.99" x2="288.44" y2="411.99" xlink:href="#linear-gradient"/><linearGradient id="linear-gradient-88" x1="288.2" y1="398.87" x2="307.59" y2="398.87" xlink:href="#linear-gradient"/><linearGradient id="linear-gradient-89" x1="290.64" y1="426.73" x2="308.91" y2="426.73" xlink:href="#linear-gradient"/><linearGradient id="linear-gradient-90" x1="272.66" y1="454.98" x2="288.6" y2="454.98" xlink:href="#linear-gradient"/><linearGradient id="linear-gradient-91" x1="268.74" y1="160.65" x2="239.15" y2="130.66" gradientUnits="userSpaceOnUse"><stop offset="0" stop-color="#6a767f"/><stop offset="0.11" stop-color="#758591"/><stop offset="0.38" stop-color="#8da8b8"/><stop offset="0.63" stop-color="#9fc0d5"/><stop offset="0.84" stop-color="#a9d0e7"/><stop offset="1" stop-color="#add5ed"/></linearGradient><linearGradient id="linear-gradient-92" x1="195.75" y1="190.07" x2="278.78" y2="126.44" gradientUnits="userSpaceOnUse"><stop offset="0" stop-color="#6a767f"/><stop offset="0.36" stop-color="#859cab"/><stop offset="0.79" stop-color="#a2c5db"/><stop offset="1" stop-color="#add5ed"/></linearGradient><linearGradient id="linear-gradient-93" x1="193.81" y1="286.87" x2="367.71" y2="286.87" xlink:href="#linear-gradient-85"/><linearGradient id="linear-gradient-94" x1="366.58" y1="190.63" x2="278.98" y2="96.59" gradientUnits="userSpaceOnUse"><stop offset="0" stop-color="#6a767f"/><stop offset="0.42" stop-color="#8aa3b3"/><stop offset="0.8" stop-color="#a3c7dd"/><stop offset="1" stop-color="#add5ed"/></linearGradient><linearGradient id="linear-gradient-95" x1="375.85" y1="203.8" x2="250.19" y2="147.54" gradientUnits="userSpaceOnUse"><stop offset="0" stop-color="#6a767f"/><stop offset="0.13" stop-color="#758691"/><stop offset="0.53" stop-color="#93b1c3"/><stop offset="0.83" stop-color="#a6cbe1"/><stop offset="1" stop-color="#add5ed"/></linearGradient><linearGradient id="linear-gradient-96" x1="170.06" y1="294.8" x2="414.36" y2="294.8" xlink:href="#linear-gradient-60"/><linearGradient id="linear-gradient-97" x1="137.1" y1="301.33" x2="382.91" y2="301.33" xlink:href="#linear-gradient-85"/><linearGradient id="linear-gradient-98" x1="289.39" y1="224.17" x2="316.16" y2="224.17" xlink:href="#linear-gradient"/><linearGradient id="linear-gradient-99" x1="306.28" y1="243.67" x2="334.86" y2="243.67" gradientUnits="userSpaceOnUse"><stop offset="0" stop-color="#80634b"/><stop offset="0.18" stop-color="#907256"/></linearGradient><linearGradient id="linear-gradient-100" x1="338.98" y1="256.45" x2="323.96" y2="253.11" xlink:href="#linear-gradient"/><linearGradient id="linear-gradient-101" x1="145.73" y1="299.68" x2="338.86" y2="299.68" xlink:href="#linear-gradient-85"/><linearGradient id="linear-gradient-102" x1="228.04" y1="173.44" x2="245.78" y2="173.44" gradientUnits="userSpaceOnUse"><stop offset="0" stop-color="#80634b"/><stop offset="0.9" stop-color="#907256"/></linearGradient><linearGradient id="linear-gradient-103" x1="236.49" y1="231.99" x2="247.83" y2="231.99" xlink:href="#linear-gradient"/><linearGradient id="linear-gradient-104" x1="206.21" y1="165.31" x2="242.65" y2="165.31" xlink:href="#linear-gradient-43"/><linearGradient id="linear-gradient-105" x1="216.32" y1="181.28" x2="223.68" y2="181.28" xlink:href="#linear-gradient"/><linearGradient id="linear-gradient-106" x1="225.28" y1="182.23" x2="304.4" y2="182.23" xlink:href="#linear-gradient-26"/><linearGradient id="linear-gradient-107" x1="226.45" y1="173.8" x2="298.47" y2="173.8" xlink:href="#linear-gradient-68"/><linearGradient id="linear-gradient-108" x1="267.85" y1="239.03" x2="313.62" y2="126.46" gradientUnits="userSpaceOnUse"><stop offset="0" stop-color="#c7914a"/><stop offset="0.05" stop-color="#cf9b55"/><stop offset="0.17" stop-color="#dead68"/><stop offset="0.31" stop-color="#e8b976"/><stop offset="0.49" stop-color="#eec17e"/><stop offset="0.81" stop-color="#f0c380"/><stop offset="1" stop-color="#ffcd89"/></linearGradient><linearGradient id="linear-gradient-109" x1="261.42" y1="455.08" x2="269.6" y2="455.08" xlink:href="#linear-gradient-71"/><linearGradient id="linear-gradient-110" x1="261.39" y1="458.97" x2="289.28" y2="458.97" xlink:href="#linear-gradient-71"/><linearGradient id="linear-gradient-111" x1="309.64" y1="435.44" x2="323.2" y2="435.44" xlink:href="#linear-gradient-71"/><linearGradient id="linear-gradient-112" x1="-3937.48" y1="-3075.56" x2="-3920.27" y2="-3075.56" gradientTransform="matrix(0.03, 1, -1.4, 0.04, -3852.48, 4076.18)" xlink:href="#linear-gradient-26"/><linearGradient id="linear-gradient-113" x1="288.32" y1="437.52" x2="327.42" y2="437.52" xlink:href="#linear-gradient-71"/><linearGradient id="linear-gradient-114" x1="289.33" y1="441.95" x2="359.82" y2="441.95" gradientUnits="userSpaceOnUse"><stop offset="0.2" stop-color="#808663"/><stop offset="0.52" stop-color="#828864"/><stop offset="0.63" stop-color="#878f68"/><stop offset="0.71" stop-color="#909a6f"/><stop offset="0.75" stop-color="#99a575"/></linearGradient><linearGradient id="linear-gradient-115" x1="287.25" y1="92.07" x2="310.43" y2="92.07" gradientUnits="userSpaceOnUse"><stop offset="0" stop-color="#736357"/><stop offset="0.14" stop-color="#877666"/><stop offset="0.39" stop-color="#a4917c"/><stop offset="0.6" stop-color="#b6a189"/><stop offset="0.76" stop-color="#bca78e"/></linearGradient><linearGradient id="linear-gradient-116" x1="288.73" y1="76.98" x2="319.89" y2="101.92" xlink:href="#linear-gradient-115"/><linearGradient id="linear-gradient-117" x1="248.92" y1="72.77" x2="324.75" y2="0.07" gradientUnits="userSpaceOnUse"><stop offset="0.08" stop-color="#c7914a"/><stop offset="0.28" stop-color="#d7a25c"/><stop offset="0.84" stop-color="#ffcd89"/></linearGradient><linearGradient id="linear-gradient-118" x1="280.62" y1="88.71" x2="263.31" y2="59.19" xlink:href="#linear-gradient-115"/><linearGradient id="linear-gradient-119" x1="315.28" y1="12.96" x2="324.59" y2="12.96" gradientUnits="userSpaceOnUse"><stop offset="0" stop-color="#1f364d"/><stop offset="0.4" stop-color="#3a6171"/><stop offset="1" stop-color="#619fa4"/></linearGradient><linearGradient id="linear-gradient-120" x1="-4683.18" y1="-4334" x2="-4672.37" y2="-4334" gradientTransform="matrix(-0.14, 0.99, -0.99, -0.14, -4633.64, 4033.09)" xlink:href="#linear-gradient-119"/><linearGradient id="linear-gradient-121" x1="318.91" y1="23.96" x2="326.69" y2="23.96" xlink:href="#linear-gradient-119"/><linearGradient id="linear-gradient-122" x1="314.07" y1="22.63" x2="326.44" y2="22.63" xlink:href="#linear-gradient-119"/><linearGradient id="linear-gradient-123" x1="236.47" y1="60.74" x2="329.73" y2="26.45" xlink:href="#linear-gradient-26"/></defs><g id="PEOPLE"><g id="_LAYER-18_P12_" data-name="&lt;LAYER-18_P12&gt;"><path class="cls-1" d="M561.08,147.26c1.73-1.42,4.35-1,6.54-.61a11.92,11.92,0,0,1,6.73,3.06c1.73,1.76,2.22,3.8,2.86,8.38,1,7.19,1.52,10.79,1.43,17.15-.07,5.08-.39,4.27-.61,11.84-.21,7.34-.3,11.06.41,13.48.93,3.19,2.16,4.84,1.43,7.35a8.47,8.47,0,0,1-4.09,4.7c-.81.45-3.82,2.13-6.53.82a6.45,6.45,0,0,1-2.86-3.27c-1.3-2.65-.8-4.54-1-7.56-.25-3.38-1.07-3.54-2.45-8.78a63.47,63.47,0,0,1-1.84-11c-.63-7,.51-6.87,0-13.69-.37-4.93-1.08-6.52-1.43-13.27C559.37,150.39,559.68,148.42,561.08,147.26Z"/><path class="cls-2" d="M567.05,207.35c-.66,1.6-1.12,3.69-.55,9.13a63.12,63.12,0,0,0,1.76,9.79c1.68,6.09,3.75,10.43,7.07,17.32,2.25,4.69,2.86,5.51,5.3,10.78a90.5,90.5,0,0,1,3.89,9.19c1.28,3.81,3.07,10.25,2.78,11.72a.38.38,0,0,0,0,.3c.37.44,2-1.18,4.6-1.59,1.82-.29,2.59.28,3.18-.35.44-.47.38-1.17,0-3.36-.42-2.46-.64-3.68-.88-4.59a53.56,53.56,0,0,0-1.77-5.66c-1.34-3.63-1.35-6.26-2.3-13.43-.09-.69.07.52-2.47-15-1.74-10.66-1.88-11.62-2.48-14-1.94-7.64-3.39-13.06-7.77-15a8.16,8.16,0,0,0-6.37-.18C568.59,203.56,567.59,206,567.05,207.35Z"/><path class="cls-3" d="M593.74,271.1c1,1.15,1,1.69,2.41,4.9a82.12,82.12,0,0,0,4.47,9.21,8.69,8.69,0,0,1,1.64,4.3,7.11,7.11,0,0,1-.6,3.27c-.44,1-.74,1-1.12,1.89a8.32,8.32,0,0,0-.43,3.27c0,2.67.41,3.05,0,4-.14.31-.37.66-2.5,2-3.9,2.42-4.92,2.36-5.5,2.24s-1.55-.59-1.55-1c0-.22.22-.43,1.12-.94a16.39,16.39,0,0,1,2-1c1.62-.7,3.23-1.4,3.27-2.23,0-.6-.74-.82-2.32-2.15a24.47,24.47,0,0,1-2.75-2.84,16.74,16.74,0,0,1-2.5-4,19.1,19.1,0,0,1-1.29-5.51,44.88,44.88,0,0,1-.26-6.11c0-8.43-1.6-11.24-.17-12.13S592.09,269.22,593.74,271.1Z"/><path class="cls-4" d="M545.68,312.12c1.29,1.52-.78,4.37-2.56,10a80,80,0,0,0-2,9,55.87,55.87,0,0,0-1.34,8.8c-.06,3.56.53,4.29-.22,6.23-.1.24-1.68,4.11-5.34,4.9a7.62,7.62,0,0,1-3.57-.23,12.4,12.4,0,0,1-6-3.34c-2.18-2.36-1.76-5-2-11.57-.36-9.94-1.57-10.41-1.22-18.26.32-7.38,1.51-9.45,2-10.24,2-3.21,6.44-7.11,10-6.12,4.3,1.2,4.63,8.74,10.24,10C544.49,311.53,545.18,311.52,545.68,312.12Z"/><path class="cls-5" d="M538.44,343.73c.86,1.19,1.2,2.58,1.9,5.34a38.76,38.76,0,0,1,1,6.57,69.62,69.62,0,0,1,.11,10,104.07,104.07,0,0,1-2,12.46c-1.33,6.81-2,10.28-3.34,15.14-1.51,5.45-1.79,5.2-2.67,9.13-1.27,5.65-.31,4.56-1.45,12.8,0,0-.58,4.2.67,6.56.36.68.78,1.34.78,1.34.84,1.32,1.12,1.38,1.44,2A5.59,5.59,0,0,1,535,429a6.23,6.23,0,0,1-1,2.56c-1.37,1.87-3.21,1.06-5.67,2.45-3.22,1.82-2.66,4.66-5.57,5.56a4.59,4.59,0,0,1-4.12-.55c-.67-.57-1-1.34-1.33-6.13-.3-3.85-.17-4.13-.45-6.12-.39-2.77-.7-2.64-1-5.23a54.23,54.23,0,0,1-.11-5.79c0-2.9.1-3.45.56-3.78,1-.73,2.35.73,4.34.44,2.19-.31,3.55-2.53,4.11-3.45,2.24-3.63,1.42-7.74.78-12.35,0,0-.7-5.13-1.22-17.48-.3-7,.43-6.47.56-16.58.19-15.37-1.44-19.73,1.55-21.82C529.61,338.51,536,340.29,538.44,343.73Z"/><path class="cls-6" d="M595.7,287.05c.7-.44,2.14.75,3.66,2,1.91,1.59,1.81,2.21,1.74,2.44-.17.49-.69.68-1.46,1.16a18.21,18.21,0,0,0-3.11,2.86c-3,3-5.06,4.93-6.65,4.64-.58-.11-1.21-.54-1.25-1.09s.82-1.36,1-1.53c1.07-.83,1.89-.57,2.74-1.44a4.12,4.12,0,0,0,.57-.83c1.37-2.12,3.4-2.42,3.52-3.51,0-.5-.37-.47-.79-1.39C595.17,289.2,595.05,287.47,595.7,287.05Z"/><path class="cls-7" d="M595.25,288.7c.63-.72,2.41-.06,4.27.64,2.37.88,2.41,1.55,2.39,1.81-.06.56-.55,1-1.23,1.74a22.65,22.65,0,0,0-2.56,4.1c-2.45,4.17-4.08,6.95-5.8,7.26-.63.12-1.38-.09-1.56-.63s.53-1.7.72-2c.91-1.25,1.83-1.3,2.5-2.51a5.15,5.15,0,0,0,.39-1.06c.93-2.68,3-3.77,2.83-4.92-.07-.53-.49-.34-1.15-1.11C595.21,291.09,594.68,289.37,595.25,288.7Z"/><path class="cls-8" d="M589.26,279.32c0-.48-.26-2.71,1-3.44s2.83.36,3.14.55c.55.34,1.29.94,2.85,3.93a29.76,29.76,0,0,1,1.75,3.72,37.32,37.32,0,0,1,1.6,6.4,5.19,5.19,0,0,1,.14,2.41,4.43,4.43,0,0,1-2.44,2.9c-.78.35-1,.16-3.21.2-3.32.07-4.24.54-5.08-.2-.65-.58-1-1.62-.63-2,.19-.22.55-.16,1.26-.07,3.25.42,3.75.23,4,.07a5,5,0,0,0,1.11-1.24,4.63,4.63,0,0,0,1-1.72c.13-.75-.3-1.35-1.33-2.76s-1.63-2.23-2.09-2.82C590.7,283.06,589.46,281.45,589.26,279.32Z"/><path class="cls-9" d="M523.29,137.43a7.1,7.1,0,0,0,1.6-3.2,6.63,6.63,0,0,0,0-2.24c-.37-3.07,3.58-8,8.53-10a12.23,12.23,0,0,1,8.1-.74c.9.25,6.89-5.88,7.69-3.59.31.88-3,8.2-3.21,10.62a21,21,0,0,0,0,6.08,9.22,9.22,0,0,0,2.35,5.12,7.81,7.81,0,0,0,3.62,1.92c9.48,2.59,14.22,3.89,15.67,6.93.16.32.14.38-.1,6.72s-.23,6.29-.32,8.1c-.52,10-1,10.62-1.49,11-1.17.78-2.59.26-10.77-3.3-6.22-2.71-9.35-4.08-10.24-4.59A51.68,51.68,0,0,1,533,156.84C526,149.36,521.3,140.12,523.29,137.43Z"/><path class="cls-10" d="M507,138.29a37,37,0,0,1,7.35-1.71,48.16,48.16,0,0,1,6-.43c3.56-.07,5.34-.11,6.83.32,2.46.71,4.06,2.15,7.25,5,2.57,2.31,3.85,3.47,4.8,5.34,1.17,2.31,1.26,4.33,1.38,7.57.06,1.51,0,3.62-.85,10a82,82,0,0,1-1.39,8.53c-.9,3.09-2.19,7.53-6.18,11.19A18.47,18.47,0,0,1,521.26,189c-7.8.65-13.2-4.25-14.39-5.33a21.39,21.39,0,0,1-4.59-6.08,27.15,27.15,0,0,1-2.88-11.84C499.23,162.23,498.26,142.09,507,138.29Z"/><path class="cls-11" d="M499.74,309.49c-1.19,3.36,1.35,3.85,3.5,17,.57,3.44,1.26,8.7,2.46,13.5.4,1.6.7,2.56,1.23,4.91.73,3.31.68,3.92,1.22,4.91,1.29,2.37,3.89,3.27,5.61,3.86,4.06,1.4,11.06,2,13.51-1.58.53-.78.65-2.17.87-4.91a58.36,58.36,0,0,0,0-9.64,88.31,88.31,0,0,0-1.4-9.65c-2.78-14,3-21.19-.88-25.42C520.66,296.86,502.66,301.22,499.74,309.49Z"/><path class="cls-12" d="M501.29,163.56c2-1.91,3.89-1.25,10.87-2,3.94-.44,8.09-1.44,16.38-3.43,13.11-3.14,15.55-4.87,17-6.1,2.07-1.79,6.31-5.43,6.42-8.88,0-.38,0-2.28.78-2.53.3-.1.57.1,1.19.39.17.09.92.32,2.41.79,3.24,1,4.38.56,5.24,1.63.31.39.26.58.62,1.8a43.68,43.68,0,0,0,1.68,4.39c1.62,3.9,3.1,7.07,4.86,11.58,1.43,3.66,1.55,4.37,1.54,5.19,0,1.18-.26,2.62-2.75,7-2.11,3.75-3,4.65-4.78,7.7a60.44,60.44,0,0,0-3.32,6.8c-2.5,5.78-6.3,14.54-6.78,25.87-.3,7,.77,12.3,2,18.59,1.56,7.75,2.79,9.52,4.06,14.86,3.59,15.1.31,28.57-.68,32.44-3.62,14.24-9.3,16.49-8.44,26,.21,2.32,1.17,9.14-1.52,10.47a2.46,2.46,0,0,1-1.38.21c-5.5-.53-8.25-.8-12.25-2.18-3.34-1.15-2.44.08-17.63-.17-3-.05-6.55-.2-13.6-.5-13-.56-12-.74-12.42-.67,0,0-2.54.42-7.72-.67a2,2,0,0,1-1.39-.85,1.51,1.51,0,0,1-.09-1c.45-2.18-.08-4.47.18-6.68,1-8.68.68-15,3.43-30.51,1.67-9.4,2.23-9.49,2.66-14.78.65-7.82-.48-8.9.61-15.87a116.88,116.88,0,0,1,3.39-13.94c1.07-3.78,1.59-5.67,2.43-8,3.27-9.16,5.21-8.78,6.71-14.26,1.59-5.85.75-11.29-.46-19.09-.71-4.58-1.18-4.94-1.5-8.75C498.55,172.61,498.05,166.65,501.29,163.56Z"/><path class="cls-13" d="M395.1,173.42a2.64,2.64,0,0,1-.29-.29,3.08,3.08,0,0,1-.89-2.23,1.57,1.57,0,0,1,.61-1.25,1.53,1.53,0,0,1,1.41.11,2.28,2.28,0,0,1,.8,1c1,1.75,2,2.18,1.83,2.63-.09.18-.63.22-1.72.3A2.49,2.49,0,0,1,395.1,173.42Z"/><path class="cls-14" d="M512.27,137.66c-2.51-1.75-6-.42-7.14,0-1.51.57-3.29,1.6-6.74,5.72-3.14,3.75-3.71,5.33-8,11.44-1.59,2.28-3,4.33-5.1,6.94-3,3.78-3.19,3.48-6.74,7.76-2.4,2.9-5,5.63-7.35,8.58a9.73,9.73,0,0,1-4.5,3.47,8.42,8.42,0,0,1-3.06.41c-3.72-.07-3.5.61-10.82,1.22-1.24.11-5.67.46-11.23.41a95,95,0,0,1-15.32-1c-4.46-.7-9.06-.33-13.48-1.22-.71-.15-2.4-.51-3.47.4-1.42,1.22-.93,3.95-.61,5.72.28,1.57.61,3.4,1.84,3.88.84.33,1.37-.25,2.86-.41a8.09,8.09,0,0,1,4.08.82c3,1.17,9,2.82,21,6.13A86.6,86.6,0,0,0,455.09,201c7.84.56,11.27-.46,13.48-1.43,2-.88,3.72-2.15,7.15-4.7,1.29-1,3.21-2.43,8.58-7.14,4.64-4.08,7-6.12,8.57-7.76a77,77,0,0,0,8.17-9.6c2.75-3.87,3-5.06,6.54-9.8,2.37-3.2,2.59-3.1,3.67-4.91,1.41-2.33,3.52-5.92,3.47-10.61C514.7,142.82,514.67,139.34,512.27,137.66Z"/><path class="cls-15" d="M412.87,182.51c-.72-1.86-2.27-3.23-5.39-6-3.88-3.41-5.61-3.9-6.55-4.08s-.59,0-3.72,0c-4.87-.06-6.89-.59-8.08.73a3.66,3.66,0,0,0-.73,1.38c-.22.75-.1,1.16.22,3.28s.31,2.39.73,3a2.09,2.09,0,0,0,1.53,1.09,1.55,1.55,0,0,0,1.38-.8,1.49,1.49,0,0,0,0-1.46c-.36-.56-1-.33-1.38-.87s-.39-1.62,0-1.82.68.34,1.53.58,1.5-.38,2-.07.5,1.08.59,1.67c.22,1.47,1.25,2.22,3.06,3.93,3.21,3,2.38,2.93,5,5.25s3.89,3.38,5.54,3.35a5.61,5.61,0,0,0,3.93-2.11C414.57,187,413.2,183.36,412.87,182.51Z"/><path class="cls-16" d="M395.47,175.67a2.78,2.78,0,0,1,1.94,1.11c.22.25,1,1.22.76,2-.18.47-.77.78-1.95,1.39-.64.34-1.1.51-1.07.72s.23.17.75.4,1,.43,1.16.67a1.43,1.43,0,0,1-.24,1.67,1.89,1.89,0,0,1-1.63.28c-.83-.11-.92-.38-2-.76-1.33-.47-1.76-.23-2.42-.79a1.81,1.81,0,0,1-.71-1.19c0-.49.24-.85.75-1.47a20.75,20.75,0,0,1,1.95-2.19C394.12,176.29,394.79,175.66,395.47,175.67Z"/><path class="cls-17" d="M397.05,179.31a2.82,2.82,0,0,1,1.94,1.11c.22.26,1.05,1.23.75,2-.17.47-.76.77-1.94,1.39-.64.33-1.1.51-1.07.71s.23.17.75.4,1,.43,1.15.67a1.41,1.41,0,0,1-.24,1.67,1.86,1.86,0,0,1-1.62.28c-.83-.11-.92-.38-2-.75-1.34-.47-1.76-.24-2.42-.8a1.76,1.76,0,0,1-.71-1.19c0-.48.24-.85.75-1.47a20.43,20.43,0,0,1,2-2.18C395.69,179.93,396.37,179.3,397.05,179.31Z"/><path class="cls-18" d="M399.53,181.55a2.78,2.78,0,0,1,1.94,1.11c.22.26,1.06,1.23.76,2-.17.47-.76.77-2,1.39-.63.33-1.09.51-1.07.71s.23.17.76.4,1,.43,1.15.67a1.41,1.41,0,0,1-.24,1.67,1.89,1.89,0,0,1-1.63.28c-.83-.11-.91-.38-2-.75-1.34-.47-1.77-.24-2.43-.8a1.8,1.8,0,0,1-.71-1.19c0-.48.24-.85.75-1.47a22.91,22.91,0,0,1,1.95-2.18C398.18,182.17,398.85,181.54,399.53,181.55Z"/><path class="cls-19" d="M508.91,345.38c-1.2,1.85-1,3.21-1.05,10.41-.06,9.77-.43,8.77-.23,12.15.14,2.35.46,5.22,3.27,15.9,2.88,11,6.2,22.09,6.2,22.09a84.5,84.5,0,0,1,3.09,12.74c.59,4,.8,7.86.86,9.17.28,6-.32,5.1.11,7.77a8.91,8.91,0,0,1-.11,4.65,6,6,0,0,1-1.4,2.37c-.34.34-.68.58-3.46,2.05-1.38.73-1.82.94-2.05,1.51a2,2,0,0,0,.33,2.05c.37.4.87.5,2,.54,2.17.08,3.26.12,4.1-.21,1.23-.49,1.9-1.41,3.24-3.24,2-2.83,1.78-3.73,3.13-4.43a7.15,7.15,0,0,1,4.31-.32c1.33.31,2,.91,2.59.54.18-.12.56-.48.43-2.27A13.92,13.92,0,0,0,533,434a43.6,43.6,0,0,0-2-4.21c-2.06-3.66-.9-8.31-.32-12.63s.18-9.08-.54-18.89c-.67-9-1.4-8.66-1.52-15.32-.1-5.63.4-7,.11-13.39s-.81-5.64-1-11c-.24-8.11.93-10.42-1.08-13.39a10.47,10.47,0,0,0-6.69-4.1C515.69,340.27,511.05,342.12,508.91,345.38Z"/><path class="cls-20" d="M519.27,448.23c.15.61,1.57.45,5.26,1,2.74.39,3.78.75,5.88.58a5.3,5.3,0,0,0,2.94-.85,5,5,0,0,0,1.73-3.12,5.81,5.81,0,0,0-.31-3.52,5.75,5.75,0,0,0-2-2.45,5.88,5.88,0,0,0-3.43-.89,5.19,5.19,0,0,0-3.12.76c-.73.5-.74.88-1.87,2.58a25.82,25.82,0,0,1-2.5,3.26C520.15,447.4,519.14,447.7,519.27,448.23Z"/><path class="cls-21" d="M522.7,133.34a19.84,19.84,0,0,1-5.37,1.33c-2,.15-3.11.12-4.2-.56a5.69,5.69,0,0,1-2.41-4c-.1-.6-.86-1.67-1.54-1.58a.77.77,0,0,1-.61-.32,1.74,1.74,0,0,1-.28-1.86c.17-.49.62-.74.78-1.72-1.37-1.75-1.34-2.51.55-3.66-.27-.35-.54-.69-.8-1a2.94,2.94,0,0,1,.68-4.11,6.4,6.4,0,0,0,2.82-6.55c-.9-5.85,1.07-10,4.52-13.85a18.2,18.2,0,0,1,2.76-2.72c.89-.71,4.25-2.44,10.58-4a36,36,0,0,1,11.59-1.52c5.08.28,7,1.66,7.46,2a12.35,12.35,0,0,1,3.33,4.44,18.33,18.33,0,0,1,2.42,7.66c.19,2.67-.36,4.51-1.31,7.76-1.09,3.72-2.08,7.08-4.74,10.29-1.51,1.82-3.26,3-6.75,5.24a71.68,71.68,0,0,1-13.11,6.65C527.77,131.71,528.8,131.27,522.7,133.34Z"/><path class="cls-22" d="M544.09,164.23c-2-8.1-4.79-12.51-7.09-15.06-2.12-2.35-4.49-3.85-6.6-7.68a10,10,0,0,0-2.56-3.34c-1.73-1.41-3-2.2-4.36-2.37"/><path class="cls-23" d="M543.69,165.61a43.47,43.47,0,0,1,3.25-11.22c1.34-3,3.25-6.28,3.25-11a18.68,18.68,0,0,0-.21-2.73"/><path class="cls-24" d="M528.76,109.35a3.33,3.33,0,0,1,2.3.48,4.19,4.19,0,0,1,1.72,1.59,4.89,4.89,0,0,1,.47,3.26,6,6,0,0,1-1.36,3.43,6.21,6.21,0,0,1-3.13,1.83c-.48.15-3.68,1.15-5-.29-.06-.06-.67-.72-.48-1.24s.75-.54,1-.6C526.51,117.15,526.27,110.13,528.76,109.35Z"/><path class="cls-25" d="M488.14,217.16a7.45,7.45,0,0,0,1.82,4.4A12.21,12.21,0,0,0,496,225.5c4.39,1.45,7.52,1.05,13.49.91,9.69-.23,8.44.67,13.64.15A110.75,110.75,0,0,0,538,223.68c.7-.17,8.11-2,11.67-.15a4.3,4.3,0,0,1,2.08,1.9c.57,1.17,0,1.77.41,3.08.66,2.05,3,3.37,3.44,3,.11-.08.12-.39.12-1a11.89,11.89,0,0,0-.06-1.49c-.23-1.79-.37-3.59-.65-5.37-.43-2.69.65-3.46,1.31-7.9.61-4.05-.2-4,.22-9.76.29-3.91.43-5.86,1.1-8.12,1-3.24,2.19-5,1.89-8.21a12.16,12.16,0,0,0-.72-3.06c-.81-2.24-1.83-3.2-3.52-5.41-1.15-1.51-2.55-3.8-5.35-8.37a38.13,38.13,0,0,1-2.12-3.68,25.87,25.87,0,0,0-2.07-4.44c-1.18-1.86-1.68-1.86-1.86-1.81s-.39.37-.51.65c-.41,1-1.11,1.8-1.51,2.77-.94,2.33-5.64,5.95-5.64,5.95-10.45,8-9.49,8.33-13.71,10.64-5.71,3.12-10.81,5.91-15.48,3.93-2.94-1.25-4.74-4-5.65-5.35-2.9-4.39-3.08-9-3.49-8.95-.26,0-.18,1.75-.05,4.32.22,4.41.33,6.62.43,7.75a42.76,42.76,0,0,1-2.18,15.82c-1.68,4.9-2.75,8.06-5.4,11.38C489.69,213.06,488.12,214.78,488.14,217.16Z"/><path class="cls-26" d="M511.82,82.73c-.69.62-.16,1.74,0,4.39s-.26,3,.26,3.59c.27.28,1,.82,5-.18,3.62-.91,4.49-1.72,7-2.24a23,23,0,0,1,5.73-.18,59.38,59.38,0,0,1,11.48,1.16c2.25.49,4.72,1.2,6.45,0a2.56,2.56,0,0,0,1.07-1.34c.3-1-.27-2-.89-3.14a5,5,0,0,0-.9-1.34c-1.37-1.24-4-.46-4.66-.27-7,1.89-25.87-.21-28.86-.72A2.07,2.07,0,0,0,511.82,82.73Z"/><path class="cls-27" d="M510.65,89.9a3.62,3.62,0,0,0,.81,3.94c.6.45,1.1.21,2.15.9.68.45.69.69,1.52,1.34.58.46,4.28.1,6-1.16a17.4,17.4,0,0,1,6.45-2.69,28.8,28.8,0,0,1,6.54-.81c2-.08,1.81.06,6.28.09a39.52,39.52,0,0,0,6.81-.36c2.41-.36,3.86-.6,4-1.34.23-1-1.93-2.75-4.22-3.23-1.7-.35-2.42.2-5.73.55a39.27,39.27,0,0,1-4.47.17c-4.76,0-5.9-.83-10.06-.9a41.54,41.54,0,0,0-6,.45C514.59,87.58,511.48,88,510.65,89.9Z"/><path class="cls-28" d="M564.67,24.09,552.6,84.39A169.75,169.75,0,0,1,509.17,83L500.86,23.1S543.48,25.43,564.67,24.09Z"/><path class="cls-29" d="M500.19,20.5c-.24,0-.85-.05-1.12.32s-.11.75,0,1.22a4.25,4.25,0,0,0,.64,1.44c.86,1.07,3,.86,3.78.8,2.47-.2,4.95.53,7.43.47,7.67-.17,12.28,1,29.31.88,1.57,0,7-.07,14-.4,4.29-.19,8.58-1.13,12.86-.79a1,1,0,0,0,1.27-1.09,2.42,2.42,0,0,0-.27-1.89c-.56-.74-1.8-.67-2.37-.63l-13.19.85c-1.14.1-2.69.13-5.8.2-.93,0-4.53.09-10.28,0-.93,0-1.32,0-7.78-.2l-10.16-.26c-9.46-.1-8.69.43-10.41-.07S504.4,20.75,500.19,20.5Z"/><path class="cls-30" d="M502.57,35.4s25.31,3.3,59.63,1"/><path class="cls-31" d="M502.93,38a295.29,295.29,0,0,0,58.63,1.62"/><path class="cls-32" d="M503.25,40.33s15.61,4.91,57.74,2.14"/><path class="cls-33" d="M508.89,81A247.92,247.92,0,0,0,553,82"/><path class="cls-34" d="M508.4,78.39s33.55,2,45.3.47"/><path class="cls-35" d="M516.64,8.36c-.13-1.35-.23-2.42-1-3.15-1.79-1.57-5.81-.51-8.23,1.49-1.84,1.52-1.53,2.59-4.19,4.81-1.34,1.11-2,1.36-2.1,2.1-.16,1.6,2.81,3.26,4.9,3.93,1.33.43,4.8,1.55,7.69-.44C517.22,14.67,516.76,9.72,516.64,8.36Z"/><path class="cls-36" d="M521.62,5.21c-1.21-.55-2.73.15-5.77,1.57a47.4,47.4,0,0,0-7.17,4.55c-4.92,3.47-3.72,3.09-5.78,4.29-1.91,1.11-3.1,1.53-3.41,2.71s.65,2.57,1.66,3.85a14.71,14.71,0,0,0,6.91,5,16.45,16.45,0,0,0,7.26.62c2.58-.25,8.76-.84,10.33-4.47.58-1.34,0-2-1-6.56C522.93,8.78,523.53,6.08,521.62,5.21Z"/><path class="cls-37" d="M558.27,10.28c2.17,1,1.38,2.77,4.46,5.51,2.39,2.12,4.46,2.48,4.47,3.85,0,1.12-1.37,2-2,2.36-2,1.26-3.64.88-8.13,1-5.15.09-5.74.65-7.26-.18a6.2,6.2,0,0,1-3.33-5.16c0-2.48,2-4.09,3.15-5.07C551.47,11,555.33,8.9,558.27,10.28Z"/><path class="cls-38" d="M540.34,7.22c-4.52,3.85-5.39,3.35-7.26,5.51-2.85,3.31-4.47,8.69-2.62,10.67.73.78,1.47.48,6.73.44,4.92,0,7.68-.06,10.85.09s4.93.37,5.25-.35c.54-1.25-3.68-3.58-3.06-5.16.21-.56,1.48-.91,4-1.58s3-.58,3.32-1.05c1.24-1.53-.49-4.94-1.4-6.73a10.91,10.91,0,0,0-2-3.15,9.38,9.38,0,0,0-9.27-2.36C543.4,4.06,543.38,4.63,540.34,7.22Z"/><path class="cls-39" d="M525.21,2.06c-2.28.85-4.82,1.79-6.47,4.37a9.28,9.28,0,0,0-1.4,5.6c.17,2.1,1.06,3.36,2.53,5.69,5.36,8.45,5.88,11.14,8.58,11.46a4,4,0,0,0,2.88-.7c1.94-1.58.4-4.59,1.49-8.66.71-2.66,2.15-4.29,4.55-7a23.49,23.49,0,0,1,8-6.21C548,5.42,550,4.53,551.63,5.38c1.91,1,1.42,3.35,4,5.43,1.42,1.14,3.48,2,4,1.4.69-.72-1.09-3.7-2.8-5.6A17.62,17.62,0,0,0,552,2.93,25.78,25.78,0,0,0,544.45.4c-4.07-.73-7.09-.36-12.86.35A26.22,26.22,0,0,0,525.21,2.06Z"/></g><g id="_LAYER-18_P11_" data-name="&lt;LAYER-18_P11&gt;"><path class="cls-40" d="M68.79,115.78l-1,10.58c-.16,1.7-1.14,3-2.27,3L21.91,128c-1.13,0-2-1.37-2.1-3.08l-.41-11.3"/><path class="cls-41" d="M69.64,114.64l3.92-41.23L17.14,71.77l1.48,40.72c0,.65.37,1.16.8,1.18l49.35,2.1C69.2,115.78,69.58,115.29,69.64,114.64Z"/><rect class="cls-42" x="15.24" y="70.16" width="59.61" height="3.63" rx="1.25" transform="translate(2.11 -1.28) rotate(1.67)"/><path class="cls-43" d="M72.31,196.7a115.43,115.43,0,0,0,2.52,11.87c2.21,8,3.31,12.06,4.16,15.73.19.84.66,2.9,1.48,5.64,0,0,.79,2.63,1.64,4.9,1.68,4.53,4.56,7.45,8.75,13.36,4.62,6.5,6.93,9.76,8.31,12.91s2.33,6.3,5.35,7.72c2.24,1.06,5,.88,5,1.48,0,.39-1.11.84-1.33.6s1-1.25,1.33-2.82c.27-1.4-.4-2.45-1.33-4.31s-1.48-3.71-2.38-5.49c-1.72-3.45-3.57-9-7.27-20-2.73-8.18-2.76-8.79-4-11.13-1.53-2.86-2.76-4.3-4.3-8a65.17,65.17,0,0,1-2.23-7c-1.68-5.89-2.53-8.83-2.82-11.28-.61-5.2.33-6.5-1.18-9.2-.54-1-2.12-3.77-5.2-4.16a6.47,6.47,0,0,0-6.08,3C71.69,192.18,71.88,194,72.31,196.7Z"/><path class="cls-44" d="M103.38,267c-.54,1,.13,1.6.41,4.62.22,2.39-.17,2.36.08,4.78.22,2.08.52,2.21.75,4.53.12,1.25.79,1.22.92,3.63.09,1.64,2.44,1.25,2.62,2.67.31,2.48.48,3.74,1.24,5,.36.63-1.59,4-.25,3.92,1.08-.09,1.77-1.43,2.06-2,1.17-2.27,0-3.49,1.07-5.85.62-1.32,1.15-1.29,1.57-2.64a7.15,7.15,0,0,0,.08-3.38,37.11,37.11,0,0,0-1.73-5.85c-1-3.35-.58-3.8-1.73-7-1.23-3.42-2.11-3.88-2.48-4A3.93,3.93,0,0,0,103.38,267Z"/><path class="cls-45" d="M112.53,282.67c-.52.17-.24,1.66-.41,4a10.11,10.11,0,0,1-1,4.49,7,7,0,0,1-2,2.36c-1.23.88-2.24.92-2.6,1.89-.15.41-.2,1,.12,1.29s.58.19,1.24,0a6.55,6.55,0,0,0,2.89-1.41,10.32,10.32,0,0,0,1.89-2.6,10.12,10.12,0,0,0,.82-1.53c.43-1.12.19-1.47.47-3.19s.57-1.74.48-2.66a3.5,3.5,0,0,0-1.07-2.24C113.05,282.84,112.77,282.59,112.53,282.67Z"/><path class="cls-46" d="M111.58,282.41c-.54.08-.53,1.59-1.13,3.9a9.84,9.84,0,0,1-1.8,4.23,6.86,6.86,0,0,1-2.39,2c-1.37.65-2.37.5-2.9,1.39-.22.38-.38,1-.12,1.3s.54.28,1.22.22a6.48,6.48,0,0,0,3.1-.87,10.3,10.3,0,0,0,2.33-2.21A10.08,10.08,0,0,0,111,291c.62-1,.45-1.41,1-3.05s.87-1.61.94-2.53a3.49,3.49,0,0,0-.64-2.4C112.07,282.67,111.84,282.38,111.58,282.41Z"/><path class="cls-47" d="M110.3,282.25c-.47,0-.62,1.3-1.37,3.21a8.6,8.6,0,0,1-2,3.41,5.77,5.77,0,0,1-2.25,1.42c-1.23.42-2.07.19-2.61.89-.23.3-.42.79-.23,1.09s.43.3,1,.32a5.67,5.67,0,0,0,2.73-.42,8.76,8.76,0,0,0,2.21-1.65,7.67,7.67,0,0,0,1.07-1A13.16,13.16,0,0,0,110.1,287c.65-1.31.91-1.28,1.06-2.06a2.91,2.91,0,0,0-.3-2.11C110.68,282.52,110.52,282.25,110.3,282.25Z"/><path class="cls-48" d="M104.68,275.32a8.12,8.12,0,0,0,1.06,2.95c.85,1.32,1.49,1.17,2,2.36a4.43,4.43,0,0,1,.23,2.18,4.85,4.85,0,0,1-.53,1.65,6,6,0,0,1-1,1.42,6.24,6.24,0,0,1-2,1.53c-.75.35-1.21.35-1.47.83a1,1,0,0,0-.06.89.87.87,0,0,0,.59.35,3.72,3.72,0,0,0,2.48-.53,10.58,10.58,0,0,0,1.59-.95,8.69,8.69,0,0,0,2.47-2.1,6.85,6.85,0,0,0,1-3.16,24.85,24.85,0,0,0,.13-3c.08-3.14.14-2.9.09-3.38a7.07,7.07,0,0,0-1.48-4.31c-.1-.11-2-2.27-3.64-1.62-1.28.51-1.54,2.45-1.58,2.74A6.08,6.08,0,0,0,104.68,275.32Z"/><path class="cls-49" d="M12.57,165.85c-2.11-1-2.6-3.22-3.84-6.8C6.42,152.46,6,154.22,2.45,144.7.91,140.62.11,138,0,134.58a30.07,30.07,0,0,1,.13-3.46A77.94,77.94,0,0,1,1.8,120c2.13-9.59,3.19-14.38,5-19.36C9.23,94,10.49,92.8,10.65,88.82c0-1.39,0-4.74.41-8.7.07-.72.24-1.87.57-4.18a13.11,13.11,0,0,1,.76-3.51,9,9,0,0,1,1.81-2.76,9.6,9.6,0,0,1,3.42-2.18,4.91,4.91,0,0,1,2.76-.67,4.24,4.24,0,0,1,2.18,1.05c.91.71,2,2,1.71,2.56s-1.35.24-1.61.19c-1-.18-1.14-.63-2.19-.85a2.07,2.07,0,0,0-1.71.09c-.49.38-.53,1.15-.57,2s.15,1,0,1.52c-.05.18-.18.49-1.33,1.61-.87.85-1.21,1.07-1.14,1.33s1,.47,1.14.48c1,.07,1.41-.46,1.9-.29s-.76,1.31-.67,2.09c.36,3,1.92,4.89,2,6.37.13,2.62.35,3.4-.28,4.28-.47.64-.87.6-1.72,1.42a8.69,8.69,0,0,0-1.9,3,25.78,25.78,0,0,0-1.61,5.13c-1.1,5.77-1.65,8.66-1.81,9.79-.58,4.16-.43,3.86-1.14,9.5,0,0-1.3,10.36-.85,15.59a10.44,10.44,0,0,0,.47,2.37A11,11,0,0,0,12.77,139a54.43,54.43,0,0,1,3.52,6.36,33.38,33.38,0,0,1,3.33,8.75,18.79,18.79,0,0,1,.47,3.51c.08,2.65.18,5.91-2,7.6A5.54,5.54,0,0,1,12.57,165.85Z"/><path class="cls-50" d="M18.65,72.31A9,9,0,0,0,15.89,75c-.13.17-.22.3-.28.39-.32.46-.6,1-1.55,2.62-1.84,3.16-1.76,2.9-2,3.4a8.38,8.38,0,0,0-.9,5.26c0,.16.81,3.46,2.82,3.7,1.59.19,3-1.64,3.15-1.93a6.57,6.57,0,0,0,1-2.32,9.4,9.4,0,0,0,.57-3.62c-.13-1.83-.86-2-.67-3.51a5.15,5.15,0,0,1,.83-2.14l.16-.23a7.64,7.64,0,0,1,1.47-1.39,2.42,2.42,0,0,0,1-1.54,1.9,1.9,0,0,0-1.56-1.84A2.09,2.09,0,0,0,18.65,72.31Z"/><path class="cls-51" d="M27.4,232.86c-.54.59-1.09,3.3-2.18,8.72-1.18,5.82-1,6.87-.44,7.62,1.25,1.71,4.07,1.49,9.7.87,13.06-1.44,13.81-2,20.91-2.72,4.25-.42,8.39-1.66,12.63-2.07,2.21-.22,4.63-.37,5.45-2s-.58-4.09-.87-4.58a8.49,8.49,0,0,0-3.81-3.26c-4.68-2.16-10.45-.65-13.4-.11C40.82,238,31.64,228.21,27.4,232.86Z"/><path class="cls-52" d="M46.46,353.08c1.67,1.33,0,10.35,0,10.35-.07.35,0-.21-.21,14.43-.07,3.9-1,7.86-.32,11.71a8.08,8.08,0,0,1-.21,4.18,5.6,5.6,0,0,1-3.13,3.66,4.1,4.1,0,0,1-3.35-.21,4.32,4.32,0,0,1-1.67-2.4,13,13,0,0,1-.52-5.13c-.06-2.51-.92-3.39-2.1-6.69-.56-1.57-.54-1.86-2.09-9.72-2-10.06-2.54-12.26-1.88-15.9a11.72,11.72,0,0,1,2-5c.16-.23,3.41-4.65,6.48-4,1.59.35,2.68,2,4.71,3.14.15.09.72.42,1.46.94C45.62,352.45,46.06,352.76,46.46,353.08Z"/><path class="cls-53" d="M51.06,353.39c-2.34,2.14-.34,6.2.41,13.7.14,1.31,0,.1-.31,16.83-.06,3.59.44,7.21,0,10.77,0-.27.09,1.84.21,6.07a3.58,3.58,0,0,0,.73,2.4,4,4,0,0,0,2.3,1,4.22,4.22,0,0,0,3-.11c.72-.42,1.07-1.14,1.47-2.43a15.74,15.74,0,0,0,1-5.2c.05-3.58,1.35-7,2-10.56,1.58-8.64,2.37-13,3-16.31.8-4,1.29-8.09,2-12.13.81-4.71,1.23-6.82-.11-8.26-1.6-1.74-5-1.64-7.11-.84-1.35.51-1.36,1-3.86,2.51C52.75,352.79,52,352.54,51.06,353.39Z"/><path class="cls-54" d="M51,158.68a3.75,3.75,0,0,0,2.51,0,4,4,0,0,0,1.85-2.06,26.11,26.11,0,0,0,2-5.62,37.09,37.09,0,0,0,1.11-4.14,14.2,14.2,0,0,0,.3-3.32c-.06-1-.22-4.06-1.63-4.58-1-.35-1.9.68-4.28,2.36a38.07,38.07,0,0,1-5.25,3.18c-5.56,2.48-14.46,1.05-16.23.68-.36-.08-1.48-.33-2,.23a2.25,2.25,0,0,0-.3,1.73,7.29,7.29,0,0,0,.59,2,17,17,0,0,0,1,2.5,3.3,3.3,0,0,0,1.31,1.48,1.78,1.78,0,0,0,1.13.24c.81-.14,1-.92,1.55-1.13.9-.31,2.1,1,2.67,1.55a17.45,17.45,0,0,0,7.26,4C47.29,158.7,47.31,157.76,51,158.68Z"/><path class="cls-55" d="M37.25,397.31c-.41,1.33.39,1.54.11,3.86-.2,1.6-.52,2.93-.52,2.93a3.92,3.92,0,0,0-.21,2,2.27,2.27,0,0,0,.94,1.46c.36.22.72.24,2.3,0s1.74-.34,2.93-.52c1.71-.26,2-.15,2.4-.52.57-.56.15-1.08.63-2.3S47,403,47.61,401.67a6.49,6.49,0,0,0,.52-2.59,9.24,9.24,0,0,0-.42-2.82c-.21-.76-1.25-4.45-2.4-4.39-.52,0-.47.76-1.36,1.46-1.17.92-2.1.33-3.66.94A5.24,5.24,0,0,0,37.25,397.31Z"/><path class="cls-56" d="M50.85,402.12a2.8,2.8,0,0,1,1.46-.45,9.4,9.4,0,0,1,2.51,0c3.74.47,4.67,0,5.23.86a2.37,2.37,0,0,1,.21,1.78,2.43,2.43,0,0,1-1,1.36c-.88.54-1.49.07-3.55,0a33.08,33.08,0,0,1-3.45,0c-1.58-.17-1.86-.46-2-.63A2.32,2.32,0,0,1,50.85,402.12Z"/><path class="cls-57" d="M34.71,153.51c-.19.65.44,1.92,1.7,4.44,1.45,2.9,1.71,3.42,1.92,4.43.05.27.16,1.09.37,2.73.35,2.82.31,2.74.36,2.88.67,1.86,3.23,2.43,7.61,3.4,4.67,1,5.73.49,6.21,0A4.77,4.77,0,0,0,54,169.32a4.2,4.2,0,0,0,.07-1.18,19.58,19.58,0,0,0-.59-3.69,20.76,20.76,0,0,1-.89-4.14c0-.45,0-.94.08-1.92.14-2.17.21-3.37.37-4.29.62-3.68,2.89-4.8,2.29-5.83-.79-1.35-5.16-.25-6.43.07-2.74.69-2.54,1.24-5,1.77-3,.65-4,0-6.28,1C36.47,151.64,35.06,152.26,34.71,153.51Z"/><path class="cls-58" d="M33,167.44a20.42,20.42,0,0,0-2.49,2.35c-1.86,2.08-1.86,2.93-3.46,4.84a11.39,11.39,0,0,1-5,3.88c-1,.34-3,1.05-4.57.14-.95-.55-.8-1.13-2.35-2.77s-1.93-1.3-2.63-2.35c-1-1.6-.19-2.4-1.24-5-.6-1.48-1-1.53-1.11-2.49s.28-1.62,1.39-3.74c2-3.87,2.13-4.56,3.32-5.53a5.07,5.07,0,0,1,2.35-1.25,5.89,5.89,0,0,1,4.56,1.39c2,1.74,1.71,3.89,3.32,4.29,1,.25,1.63-.51,2.49,0,.68.4.53,1,1.39,2.07a10,10,0,0,0,1.8,1.52A10.78,10.78,0,0,1,33,167.44Z"/><path class="cls-59" d="M38.7,165.11c-2.25-1.37-6.25,1.26-7.46,2a13.72,13.72,0,0,0-3.18,2.77c-1.26,1.52-1.22,2.21-2.63,3.74-.81.87-.68.49-2.77,2.35-1.83,1.62-2.35,2.3-3.18,2.21-1-.1-1.46-1.27-1.8-1.11s.12,2,.83,4.85c.61,2.39.91,3.58,1.11,4.56.82,4.12.26,4.71,1.24,6.5.82,1.48,1.46,1.56,1.8,2.91s-.15,2.3-.41,4c-.35,2.31.4,2.11.55,6.09.14,3.64-.46,4.75.42,6.91a7.15,7.15,0,0,1,.55,1.66,7.81,7.81,0,0,1-.69,4.15c-1,3,.05,2.73-1,6.78a41,41,0,0,0-1,5.26,3.4,3.4,0,0,0,.14,1.8,4.28,4.28,0,0,0,2.49,2.07,20.19,20.19,0,0,0,5,1.66c6.39.89,4.71,1.35,12.31,2.22,1.17.13,5.5.61,11.48.83,1.13,0,.9,0,15.78-.56.79,0,5.78-.22,5.94-1.38,0-.31-.28-.51-.83-1.52a12,12,0,0,1-.83-2.08,55.23,55.23,0,0,1-1.52-6.36,44.91,44.91,0,0,1-.83-5.81c-.11-2.61.25-2.54,0-4.43-.33-2.57-1-3.12-1-5.25a11.68,11.68,0,0,1,.7-3.32c.58-1.87,1.44-2.32,1.93-4.29.24-.95.08-.9.35-2a23.72,23.72,0,0,1,1.35-3.56c.6-1.89-.37-2.83-.68-5.21-.15-1.19.47-3.53,1.74-8.17.67-2.47.81-5.1,1.83-7.44a4.24,4.24,0,0,0,.38-3.28,3.53,3.53,0,0,0-1.44-1.54,5.67,5.67,0,0,0-2.61-.77c-1.55-.21-.85-.33-4.72-1.26-2.72-.65-3-.57-5-1.06-3.07-.74-4.63-1.09-5.4-1.64-1-.71-1.58-1.51-2.6-1.44-.67,0-.93.41-1.83.86a9,9,0,0,1-3.09.78,27.39,27.39,0,0,1-6.07-.29c-2.24-.24-2.68-.37-3.18-.68C39.5,166.78,39.78,165.77,38.7,165.11Z"/><path class="cls-60" d="M75.63,175.57c.42,1.2.09,2.37-.58,4.72s-1,2.27-1.54,4.24a20.72,20.72,0,0,0-.68,3.86c-.8,7.59-2.17,11.22-1.06,11.76.88.42,2.73-1.38,2.9-1.54a8,8,0,0,0,1.25-1.74,9.29,9.29,0,0,1,4.53-3.28,65.83,65.83,0,0,1,6.36-2c.29-.08,1-.27,1.16-.77s-.54-1.38-1-1.83a37.92,37.92,0,0,1-3-4.34c-1.19-1.88-1.08-2.73-1.63-4.26a12.09,12.09,0,0,0-.69-1.53,20,20,0,0,0-3-4c-1-1.14-1.38-1.5-2-1.58a1.53,1.53,0,0,0-1.47.5C75,174.29,75.39,174.88,75.63,175.57Z"/><path class="cls-61" d="M74.81,250.16a2.91,2.91,0,0,1,2.63,1.36A4,4,0,0,1,77.9,254v4.43c-.22,2.41-.08,4.83-.12,7.24,0,.82-.07,4.67,0,8.78.13,7.25.52,7.54.35,10.85,0,.85-.2,3.14-1.74,9.82-2.5,10.86-3.79,12.14-5,19.43-.47,2.9-.66,5.3-1,10.11-.55,6.77-.6,11.19-.61,12.53a88,88,0,0,0,.31,8.9c.32,3.54.49,5.31.75,5.89s.92,1.78.45,2.56a1.87,1.87,0,0,1-1.21.78,2,2,0,0,1-1-.09c-1.51-.46-.9,0-3.2-.69-2.53-.79-2.78-1.23-4.07-1.56s-2-.09-5.62.52-5.69.95-7.1.87c-1.77-.11-4.86-.29-6.14-2.25-.94-1.43-.4-3,.26-6.06,1.29-6,.17-4.18,1.64-11.25,1.38-6.62,1.95-6.21,3.14-11.8,1.27-6,.74-7,2-14.86.28-1.74.48-2.78,2.43-11.85,2.47-11.49,3.71-17.26,4.14-18.72,2.91-9.69,4.36-14.54,8.15-17.71,2.62-2.19,5.83-3.27,7.71-7C72.76,252.05,73.48,250.38,74.81,250.16Z"/><path class="cls-62" d="M85.22,189.25c1.06-.65,2.06-1.27,2.65-.9.14.09.16.17.74,1.6.38.93.49,1.18.37,1.46s-.3.38-.94.66a12.09,12.09,0,0,1-1.92.65s-1.31.3-2.57.69c-.53.17-1.37.55-3,1.31a12.69,12.69,0,0,0-2.9,1.51A14.78,14.78,0,0,0,76,198a22.72,22.72,0,0,1-1.72,2.12c-.47.44-1.87,1.76-2.85,1.35-.39-.17-.57-.56-.94-1.35-.3-.63-.73-1.55-.41-1.88s.95.38,1.88.21,1-.82,2.41-2.29A21.31,21.31,0,0,1,76,194.72a16.93,16.93,0,0,1,3.26-2C80.94,191.81,83.61,190.23,85.22,189.25Z"/><path class="cls-63" d="M8.54,163.9a3.58,3.58,0,0,0,1,2.83c.6.72,1.64,1.51,2.09,1.23.23-.14.18-.48.25-1A7.37,7.37,0,0,1,13,164.36c.76-1.38.93-1.42,1.8-2.88,1.24-2.06,1.24-2.57,2.13-3.23a3.65,3.65,0,0,1,1.93-.87c.95-.08,1.38.37,2.17.09.51-.18,1.13-.64,1.11-1.11s-1-.59-1.39-1.56c-.25-.53-.09-.8-.37-1s-.66-.16-1.64.08a21.06,21.06,0,0,0-2.1.57,9.41,9.41,0,0,0-2.46,1.11,7.25,7.25,0,0,0-1.84,2.62c-1,2-.74,2.09-1.44,3.08C9.77,162.86,8.78,162.76,8.54,163.9Z"/><path class="cls-64" d="M37.94,164.13a1.42,1.42,0,0,0-1,1.4c.05.44.4.73.83,1.07,1.78,1.38,2.67,2.07,2.84,2.16a12.35,12.35,0,0,0,3.43,1.1,17.34,17.34,0,0,0,4.63.6c.39,0,.09,0,4.1-.56a11.65,11.65,0,0,0,2.9-.64c1-.4,2.34-1.13,2.23-1.6,0-.11-.11-.11-.53-.4-.69-.46-.72-.65-1.2-.93a2.34,2.34,0,0,0-1.1-.4c-.66,0-1,.41-1.73.8a7.15,7.15,0,0,1-2.07.53,26.3,26.3,0,0,1-3.86.34,13.76,13.76,0,0,1-4.3-.2,5.1,5.1,0,0,1-2.24-1.17,9.94,9.94,0,0,0-1.4-1.5C38.94,164.35,38.48,164,37.94,164.13Z"/><path class="cls-65" d="M20.64,232.94c-.15.27-.45.81-.26,1.21s.74.39,1.47.57a9.54,9.54,0,0,1,2.24,1.1A27.57,27.57,0,0,0,28,237.44a32.89,32.89,0,0,0,3.92.78c2.21.45,2.3.61,5.12,1.26a35.32,35.32,0,0,0,5.39,1c2.41.16,2.52-.33,5.75-.36,2.54,0,2.56.27,5.64.31,1.46,0,1.41-.05,5.6-.21,3-.11,3.24-.09,6-.21,7.1-.3,4.91-.45,5.65-.41,1,0,2.73.2,3.55-.68a1.75,1.75,0,0,0,.47-1,1.3,1.3,0,0,0-.36-1.2c-.38-.25-.86,0-1.63.26a24.54,24.54,0,0,1-2.56.32c-2,.2-3.71.33-4.18.36-5.63.42-5.18.4-5.59.42-2.11.1-3.64.08-6.7.05-2.21,0-3.88-.07-4.91-.1-2.21-.07-3.79-.12-5.91-.26a50.27,50.27,0,0,1-5.33-.52c-2.67-.47-2.42-.75-5-1.16s-3.1-.18-5.07-.78a22.3,22.3,0,0,1-2.82-1.1,7.93,7.93,0,0,1-2.3-1.25c-.54-.53-.74-1-1.17-1S20.78,232.7,20.64,232.94Z"/><path class="cls-66" d="M22.13,247.05c-.5.41-.23,1.06,0,5.48a25.24,25.24,0,0,1,0,4.39,21.28,21.28,0,0,1-.92,3.84c-.84,2.83-1.28,3.47-1.64,4.75a14.12,14.12,0,0,0,.18,7.13c1.06,5.14,1.6,10.38,2.56,15.54,1,5.35.47,3.68,2.38,15.54,1.26,7.87,1.89,11.81,2.37,14.08,1.25,5.88,2.16,8.55,2.56,13.89.05.6.1,2.73.19,6.95.17,8,.25,12,.18,13-.51,7.05-2.25,11.17-1.1,11.7.81.37,2.52-1.26,3.29-2.2.93-1.13.7-1.51,1.65-2.74a9.55,9.55,0,0,1,3.47-2.74,10,10,0,0,1,3.84-.91c2-.12,2.43.38,3.29,0,1.45-.66,1.76-2.82,2-4.39.51-3.25,1.71-6.41,1.83-9.69.15-4.17,1.2-11.62,3.29-26.51.31-2.19,2.22-10.24,6-26.32,1-4.11,4.31-17.8,9.69-23,1.32-1.28,2.56-2.64,3.9-3.9,3.28-3.08,4.44-3.71,5.13-5.65a10.65,10.65,0,0,0,.32-4.71c-.14-1.84-.28-3.6-1.37-4.19-.88-.49-1.92.07-3.14.52-1.48.56-1.55.33-7.64,1.05-5.63.66-9.47,1.12-13.61,1.88-9.37,1.74-9.8,3.14-13.62,2.41a44,44,0,0,1-8.9-3C25,247.64,23.05,246.28,22.13,247.05Z"/><path class="cls-67" d="M22.47,245.39c.44-.65,1.29-1.44,6.07-2.17A58,58,0,0,1,39,242.58c3.4.09,3.65.26,9.88.64a88.9,88.9,0,0,0,9.15.36A43.28,43.28,0,0,0,69.77,241c1.71-.73,3.91-1.86,4.89-1,.38.34.53,1.13.82,2.72a12.18,12.18,0,0,1,.27,2.36,9.18,9.18,0,0,1-.45,3c-1,2.2-6.08,1.61-11.15,2-6.09.46-5.17,1.8-14,3.26-6.87,1.13-10.3,1.7-13.14.91-3.5-1-6.39-3-10.15-1.9-1.13.33-1.89.82-2.81.45C22,251.93,20.9,247.71,22.47,245.39Z"/><path class="cls-68" d="M29.15,138.22c-.71-2-1.07-3-.93-4a9,9,0,0,1,1.68-3.35c1.32-2.07,2.12-2.5,2.72-2.67a3.36,3.36,0,0,1,1-.11c1.93,0,3.87-.12,5.79.06l7.75.23c2.74.08,3.94.1,5.33.11a17.69,17.69,0,0,0,4.05,0,1.71,1.71,0,0,1,1,.06,1.63,1.63,0,0,1,.75.7,3.84,3.84,0,0,1,.41,2.37c-.27,3.49,0,2.81-.24,3.93a14.18,14.18,0,0,1-1.79,5.21c-1.74,2.75-4.47,3.79-7.4,4.92-2.15.82-4.15,1.08-8.16,1.62-4.81.64-6.15.32-7.18-.41-.68-.48-1.18-1.32-2.2-3A28.55,28.55,0,0,1,29.15,138.22Z"/><path class="cls-69" d="M28.86,134.52c-.47,0,.12,3-1,7.23-.42,1.54-1.13,3.48-.18,4.63.15.18.15.1.64.52a17.5,17.5,0,0,1,2.49,2.78c.57.72,1.1,1.39,1.45,1.79a14.29,14.29,0,0,0,4.05,3.65c1.35.7,2.82.74,5.78.81a22.31,22.31,0,0,0,5.44-.23,13.85,13.85,0,0,0,7.58-4.63c1.06-1.37.66-1.52,2.14-3.53,1.14-1.55,2.09-2.42,2.43-4.11,0-.19.06-.69.12-1.68a33.4,33.4,0,0,0,0-4.34,6.52,6.52,0,0,0-.76-2.77c-.43-.77-.68-.76-.75-.76-.3,0-.38.62-.69,1.34A10.2,10.2,0,0,1,56.34,137a15,15,0,0,1-4.22,3.18c-4.24,2.35-6.37,3.52-7.12,3.7a19.76,19.76,0,0,1-5.49.35c-2.37-.05-3.58-.09-4.86-.69a9,9,0,0,1-3.77-3.65C29.12,137,29.29,134.5,28.86,134.52Z"/><path class="cls-70" d="M30.6,129c-.15.24-.37.79.17,2.15a8.8,8.8,0,0,0,1.79,2.71,13.1,13.1,0,0,0,3.36,2.9,12.43,12.43,0,0,0,3.59,1.33c2,.47,2.76.34,6.36.52,4.88.24,5.09.56,6.36.11a8.44,8.44,0,0,0,4.29-3.41c.83-1.4.34-1.74,1.38-3.41a3.31,3.31,0,0,0,.78-2.38,1.61,1.61,0,0,0-.27-.58,2.34,2.34,0,0,0-1.79-.69c-1.75-.1-2.63-.15-4.22-.12-.2,0-1.19,0-3.15-.07l-5.2-.19c-2.4-.08-3.63-.13-5-.16-5-.1-3.91.09-4.72,0a5.23,5.23,0,0,0-1.47.06,4.26,4.26,0,0,0-1.63.65A1.94,1.94,0,0,0,30.6,129Z"/></g><g id="_LAYER-18_P10_" data-name="&lt;LAYER-18_P10&gt;"><path class="cls-71" d="M275.11,443.06a3.25,3.25,0,0,0-1.91-.31,7.26,7.26,0,0,0-3.27.63,7.07,7.07,0,0,0-3.09,3.32,6.08,6.08,0,0,0-.77,2.13,4.49,4.49,0,0,0,.45,3.23c1.05,1.53,3.26,1.5,4,1.5.52,0,3.74-.1,5.4-2.77,1.24-2,.75-4,.32-5.73A3.05,3.05,0,0,0,275.11,443.06Z"/><path class="cls-72" d="M267,453.68c.91-1,1.7-.56,3.34-1.61a14,14,0,0,0,2.32-2.19c1.94-2.05,1.77-2.29,2.38-2.57,1.33-.62,3,.3,6.3,2.19,4,2.26,4.41,3.39,4.56,3.92a3.86,3.86,0,0,1-.32,3.09c-1.13,1.69-3.82,1.6-5.79,1.54-2.76-.09-2.52-.81-5.4-.9-1.13,0-2.57,0-5.59-.07-1.38,0-2.16-.09-2.51-.64C265.81,455.72,266.27,454.44,267,453.68Z"/><path class="cls-73" d="M316.84,125.12c2.21-2.36,5.22-2.82,8.06-3.26,2-.31,1.76,0,4.46-.34a49.82,49.82,0,0,0,7.38-1.55c1.6-.42,3.12-.91,6.17-1.88,4.71-1.51,3.57-1.24,6.69-2.23,5-1.59,6.95-2,7.55-3.61a3.39,3.39,0,0,0,0-2,81.16,81.16,0,0,0-3.43-10.81c-1.89-4.72-.9-4.34-2.92-9.44-.82-2.09-1.81-4-3.77-7.89a103.06,103.06,0,0,0-5.15-9.43,47.43,47.43,0,0,0-4.8-6.69c-2.64-3-3.54-3.11-4.8-5.32-.31-.54-.61-1.14-2.06-7.2s-1.74-7.87-1.89-8.92c-.26-1.81-.06-1-.51-4.81-.4-3.4-.62-4.59-.17-4.8s.9.56,3.26,2.75A17.32,17.32,0,0,0,334,40.21c2,.95,3.12.33,3.95,1.37.58.73.32,1.4.51,2.75.29,2,1.18,2.72,2.23,4.63,2.72,4.95.89,7.45,3.6,9.95a11.54,11.54,0,0,1,2.23,2.23,10.31,10.31,0,0,1,1.55,3.26c.9,2.81,3,4.12,5.32,6.69,1.7,1.85,2,2.67,5.66,8.74,4.52,7.53,3.87,6,8.57,13.73,7.37,12.17,9.77,17.36,7.89,20.41a24.56,24.56,0,0,1-1.88,2.4,65.58,65.58,0,0,1-4.63,5c-3.53,3.35-4.71,3.23-8.41,6.34s-3.29,3.87-6.52,6.69c-3.08,2.69-5.71,4-10.29,6.18-7.29,3.53-11,5.28-15.78,4.63a14.3,14.3,0,0,1-6.69-2.57,15.2,15.2,0,0,1-4.12-4.81c-1.56-2.57-3.09-5.08-2.57-8.23A8.74,8.74,0,0,1,316.84,125.12Z"/><path class="cls-74" d="M227.94,195.29c-1.45,1.35-1.09,3.24-1.44,6.37-.46,4.07-1.48,4.59-3,10a60.17,60.17,0,0,0-2.17,12c-1.08,12,2.1,17.66-.15,22.58a15,15,0,0,0-1.16,5.94,4.74,4.74,0,0,0,.58,2.46c.33.55.8,1,3,2.17s3.53,1.8,4.34,1.59a4.22,4.22,0,0,0,2.47-2.46c.54-1.3.12-2,.29-3.76s.7-2.22,1.44-4.49c.56-1.7.54-2.33,1.16-6.08,0,0,0-.23,1.3-7.09,1.85-10,4.17-11,4.63-17.81.24-3.48-.46-6.85-1.88-13.6-1.23-5.89-2.18-7.73-3.9-8.54A5.28,5.28,0,0,0,227.94,195.29Z"/><path class="cls-75" d="M221,250.68c-.58.19-.5.4-2.69,3s-2.47,2.66-2.94,3.67a16.62,16.62,0,0,0-1.07,3.77,8.34,8.34,0,0,1-.69,2.69,5.76,5.76,0,0,0-.88,1.81,3.24,3.24,0,0,0-.05,1.37,3.66,3.66,0,0,0,1.47,2,8.71,8.71,0,0,0,2.84,1.52,27.85,27.85,0,0,0,4,1c3.33.7,4.22.9,5.14.34a4,4,0,0,0,1-.88,5.6,5.6,0,0,0,1-2.35c.3-1.11.72-2.18,1.08-3.27.59-1.81.78-2,1.32-3.53a19.15,19.15,0,0,0,1.32-5c.18-2.35-.35-5.81-1.91-6.26-1-.28-1.35,1-3.13,1.27C224.19,252.32,223,250,221,250.68Z"/><path class="cls-76" d="M214.24,265.84c-.77-.15-1.82,1.11-2.2,2.3-.2.61,0,.62.09,3.33.08,1.72,0,2.24.49,2.79,0,0,.44.36,1.27,1a3.71,3.71,0,0,0,1.18.78,2.1,2.1,0,0,0,1.56-.34,2.5,2.5,0,0,0,1-1.42c.16-.63,0-1.12-.59-2.45-.75-1.76-1-2.17-1.41-3.18C214.73,266.54,214.72,266,214.24,265.84Z"/><path class="cls-77" d="M216.05,266.63c-1.26.17-2.2,2.6-1.57,4.25a3.54,3.54,0,0,0,.78,1.13c2.56,2.94,3,4.65,3.87,4.55.63-.07,1.12-1,1.27-1.66.44-2.1-2.15-3.12-2.3-5.92a2.55,2.55,0,0,0-.44-1.52A1.91,1.91,0,0,0,216.05,266.63Z"/><path class="cls-78" d="M217.51,269.71c-.44,1.24.47,1.78,1.13,4.4a20.69,20.69,0,0,0,1.17,4.31,2,2,0,0,0,1.13,1.22,1.9,1.9,0,0,0,1.22-.19,4.34,4.34,0,0,0,1.37-1c1.19-1.12,1.78-1.68,1.67-2.06s-.72-.25-1.37-.78c-.28-.23-.55-.56-1-2s-.43-2-.88-3.47-.72-1.73-1-1.91a2.43,2.43,0,0,0-2-.15A2.73,2.73,0,0,0,217.51,269.71Z"/><path class="cls-79" d="M221.23,270.2c-.58,1.1.2,2.61,1.76,5.63a3.86,3.86,0,0,0,2.89,2.1,3.39,3.39,0,0,0,2.59-.2,2.83,2.83,0,0,0,1.13-1.46,3.27,3.27,0,0,0,.1-1.91c-.08-.28-.23-.83-.54-.88s-.35.21-1,.73-.72.59-.88.54-.17-.8-.29-1.76a6.06,6.06,0,0,0-.88-2.6,3.31,3.31,0,0,0-2.35-1.56A2.8,2.8,0,0,0,221.23,270.2Z"/><path class="cls-80" d="M260.18,133.66a6.4,6.4,0,0,0-.28-2.11c-.28-1.37-.43-2.06-.72-2.33a3.13,3.13,0,0,0-2.67-.39,7.11,7.11,0,0,0-1.94.83c-1,.54-1.57.82-2.5,1.34-1.48.82-1.39.69-3.9,2-2.75,1.44-2.42,1.37-3.44,1.83-2.21,1-2.49.76-4.12,1.61a15.65,15.65,0,0,0-3.27,2.34,22.8,22.8,0,0,0-3.12,3.61c-.34.46-1,1.4-2.33,3.28l-.61.89c-1.64,2.45-1.61,2.94-1.56,3.17.14.65.8,1,1.28,1.28,2.59,1.4,5.67.45,6.22.28,2.46-.79,3.15-1.92,5.9-3.95,4.62-3.42,5.2-2.09,9.45-5.39,3.75-2.92,3.36-4,6.11-6.17A3.65,3.65,0,0,0,260.18,133.66Z"/><path class="cls-81" d="M257.29,132.5a3.21,3.21,0,0,0-1.11-1.78c-1-.87-2-.9-4.89-1.22-2.61-.3-3.91-.44-4.39-.56-2.3-.56-3.34-1.3-4.56-.72a2.54,2.54,0,0,0-1.28,1.28c-.33.8,0,1.41.28,3.33,0,.4.09.88.16,1.83.3,3.76-.31,4.56.28,5.17s2,0,6.12-1c4.41-1.06,5.21-.78,6.78-1.94C255,136.62,257.69,134.66,257.29,132.5Z"/><path class="cls-82" d="M264.05,132.58c.37-1.48,4.48-.79,5.59-3a12,12,0,0,0,.16-2c.29-6.4-.18-4.48,0-6.23a2.67,2.67,0,0,0-.24-1.65c-.21-.39-.45-.51-1-1a15.51,15.51,0,0,1-1.34-1.42,7.38,7.38,0,0,1-1.34-2.21c-.36-1-.09-1.2-.39-2.76-.18-.91-.31-1-.71-2.44-.27-.92-.24-1-.79-3.31-.61-2.57-.68-2.68-1-4s-.42-2.35-.47-2.76c-.13-1-.19-1.73-.24-2.28-.08-1-.16-2-.15-3.23a37.75,37.75,0,0,1,.31-4c.23-2.19.4-3.23.47-3.62a9.36,9.36,0,0,1,.79-3.08c.77-1.11,2.06-1.4,4.1-1.81,3.09-.62,4.63-.94,7.09-1.34,1.56-.25,3.54-.62,7.49-1.34a35.22,35.22,0,0,1,5.43-.79,12.85,12.85,0,0,1,5.2.48c1,.35,2.45,1.62,5.36,4.17,1.6,1.39,2.39,2.17,2.6,3.39a9.25,9.25,0,0,1-.16,2.29c-.22,2.23-.34,3.35-.39,3.93-.22,2.52-.11,2.56-.31,3.63a24.65,24.65,0,0,1-.95,3.07c-.56,1.74-.92,3.12-1.42,5-.8,3.06-.75,3.36-1.26,4.17a5.64,5.64,0,0,0-.94,1.89c-.19.79,0,1-.16,2.13a9.48,9.48,0,0,1-1.58,4.18c-.52.82-.64.8-1.42,1.89a17.63,17.63,0,0,0-1.34,2.13,6.83,6.83,0,0,0-.78,1.89,5.68,5.68,0,0,0,0,2.36,17.46,17.46,0,0,0,.55,1.89c.5,1.6.52,1.55.55,1.73.12.84-.3,1.63-1.89,3.47a24.3,24.3,0,0,1-4.26,4.26,12.3,12.3,0,0,1-4.17,2.28,13.67,13.67,0,0,1-5,.16,20.88,20.88,0,0,1-6.3-1.1,11.15,11.15,0,0,1-4.65-3C264.4,133.72,263.9,133.16,264.05,132.58Z"/><path class="cls-83" d="M260.93,98.78c-.5.18-.66.9-.68,1-.09.43.06.69.4,1.63.41,1.16.28,1,.62,1.91.43,1.12.54,1.06.73,1.69a8.9,8.9,0,0,1,.16,2.25c0,1.45,0,2.64,0,2.64,0,1.07,0,1.46.29,1.8a1.88,1.88,0,0,0,1.18.51,1.68,1.68,0,0,0,.78-.12c.85-.4.89-1.93.9-2.58a12.46,12.46,0,0,0-.5-3.09c-.37-1.62-.4-1.54-.68-2.81-.46-2.11-.38-2.31-.73-2.93C262.83,99.6,261.68,98.5,260.93,98.78Z"/><path class="cls-84" d="M296.68,110.3a1.92,1.92,0,0,0,.51,1.24,1.58,1.58,0,0,0,.95.39,1.68,1.68,0,0,0,1.18-.39c.31-.28.44-.67.51-1.8.09-1.56-.1-1.78,0-2.87a9.35,9.35,0,0,1,.51-2.25,24,24,0,0,1,1.06-2.25c.93-2,.91-2.65.85-3,0-.1-.21-1.23-.79-1.35-.36-.07-.71.26-.9.45a13.46,13.46,0,0,0-2.64,3,12.81,12.81,0,0,0-1.63,5.56A29.33,29.33,0,0,0,296.68,110.3Z"/><path class="cls-85" d="M237,365.42c-1,1.94-.34,5,1,11,.61,2.6,1,3.45,1.06,5.49.08,3.33-.89,4.64,0,5.7s2.16.57,6.54.42c4.73-.16,4.4.24,7.18,0,3.59-.31,4.73-1,8.66-1.9a61.71,61.71,0,0,1,9.92-1.27c9.75-.29,14.81,3.45,16.47,1.27,1.05-1.38-1-2.88-.85-7.18.18-5.18,3.27-6.53,2.54-9.5-.91-3.67-6.53-5.25-10.35-6.33-2.69-.76-4.5-.93-13.93-1.27-10.34-.37-13-.34-16.47,0C241.84,362.53,238.32,362.93,237,365.42Z"/><path class="cls-86" d="M262.35,374.1c-1,1.94-.34,5,1,11,.61,2.6,1,3.45,1.06,5.49.08,3.33-.9,4.64,0,5.7s2.16.57,6.54.42c4.73-.16,4.4.24,7.18,0,3.59-.31,4.73-1,8.66-1.9a61.71,61.71,0,0,1,9.92-1.27c9.75-.29,14.81,3.45,16.47,1.27,1-1.38-1-2.88-.85-7.18.18-5.18,3.27-6.53,2.54-9.5-.91-3.67-6.53-5.26-10.35-6.33-2.69-.76-4.5-.93-13.93-1.27-10.34-.37-13-.35-16.47,0C267.19,371.21,263.68,371.61,262.35,374.1Z"/><path class="cls-87" d="M261,374.06c-.68,2.65-.41,4.69.74,10.78,1.19,6.3,1.79,9.45,2.48,12.27,1.21,4.9,1.45,5.08,4.21,15,3.1,11.07,1.86,7.48,3.47,13a70.34,70.34,0,0,1,2.24,9.92,26.19,26.19,0,0,1,.37,5.2c-.1,2.18-.43,2.4-.62,5.45-.16,2.46.06,2.24-.13,4.71-.14,2-.31,2.46,0,3.22.52,1.27,1.71,1.83,3.35,2.61a16.73,16.73,0,0,0,6.81,1.48c2.05,0,3.07.05,3.72-.62s.42-1.74.37-5.45c0-1.2,0-3,.13-5.2.2-2.74.51-3.48.25-5.33a16.38,16.38,0,0,0-.75-3,22,22,0,0,0-1.36-3c-1-2.08-.73-4-.62-6.07.18-3.35-.39-6.69-.5-10-.13-4.15-.33-9.21-.49-12.14-.52-9.53-1.35-9.92-1.61-16-.63-14.15,3.41-21.79-.13-24-.93-.59-1.17,0-5.82,0-7.56.06-9.09-1.38-11.65,0C262.36,368.51,261.41,372.26,261,374.06Z"/><path class="cls-88" d="M290.22,368.48c-1.55,1-.6,3.58-.76,9.07s-1.24,5.87-1.26,11.72a55.09,55.09,0,0,0,.5,7.31,46.47,46.47,0,0,0,1.64,8.19,28.92,28.92,0,0,1,1.39,5,12.28,12.28,0,0,1,.12,4.41c-.27,1.49-.68,1.83-.88,3.4a12.81,12.81,0,0,0,.13,3.4c.59,5.42,0,5.87.75,6.8.54.67,1.22.93,6.3,1.39,7.3.65,8.49.35,9.07-.51s.38-1.92.13-3.4c-.39-2.28-1.24-2.42-1.64-4.53s.34-2.55-.12-4.41a9.54,9.54,0,0,0-2-3.53c-1.9-2.8-.72-6.12,0-11,1-6.49-.43-5.51.38-13.23,1-9.61,3.2-11.45,1.38-14.36-1.38-2.22-4.44-3.24-10.58-5.29C291.85,368,290.91,368,290.22,368.48Z"/><path class="cls-89" d="M292,430.89c-1.59-1.86-1.43-4.27-1.32-5.93s.21-3.32,1.48-4.29c.84-.64,1.78-.64,3.35-.63a11.3,11.3,0,0,1,5.31,1.1c.86.43,1.2.77,4.37,4.13,3.31,3.51,3.83,4.08,3.67,4.84-.27,1.2-2,1.73-4.3,2.42a14.76,14.76,0,0,1-8.42.47C294.56,432.57,293.15,432.2,292,430.89Z"/><path class="cls-90" d="M272.68,455.08c.16-.95,1.51-1.66,4.21-3,4.88-2.49,6.35-2.3,6.95-2.19a5.85,5.85,0,0,1,2.81,1.41c2.05,1.92,2.61,5.58,1.09,7.25-.23.25-.71.69-3.2,1.1-3.63.59-6.07,1-8.5-.32C274.66,458.55,272.4,456.8,272.68,455.08Z"/><path class="cls-91" d="M232.63,152.57c-.51-1.08.32-2.61,2-5.65a37,37,0,0,1,5.23-7.07,11.5,11.5,0,0,1,2.26-2.13,11.65,11.65,0,0,1,3.25-1.55c2.16-.68,2.89-.44,6.08-.85a27.1,27.1,0,0,0,7.36-1.7,24.86,24.86,0,0,1,2.54-1.13,11.64,11.64,0,0,1,6.51.14A14.83,14.83,0,0,1,272.5,135c3,2.07,5.6,3.86,5.66,5.94.07,2.43-3.38,3.27-7.92,6.93-4.92,4-3.93,5.43-11.31,13.71-1.7,1.91-8.94,9.89-10.61,8.77-.59-.4.07-1.58-.28-4.67a14.06,14.06,0,0,0-1.56-5.51c-1.58-2.73-4.27-3.94-6.22-4.81C235.85,153.43,233.41,154.27,232.63,152.57Z"/><path class="cls-92" d="M243.66,136.89c2.24.65,2.8,5.56,3.81,14.35,1.55,13.43-.49,16.48-1.55,17.66-.34.37-1.73,1.91-3,1.48-1.83-.63-1.48-4.87-3-8.58-2.39-5.91-8.46-4.39-9.19-8.25-.42-2.2,1.42-4.6,5.11-9.4C239.89,139,241.88,136.38,243.66,136.89Z"/><path class="cls-93" d="M312.29,185.1c.53,0,.39,4,2.26,10.15.88,2.89,1.46,3.79,1.33,5.75-.11,1.7-.66,2.91,0,4.39.46,1,1.11,1.27,1.86,2.05,1.67,1.77,1.54,3.92,2,6.85.5,3.27,1,2.71,2.66,8.64,0,0,1.18,4.21,2.12,9.45,2,11.16-.61,16,.39,31.95.36,5.69.82,7.17.78,12.46-.05,6-.68,8.48-1.17,14.47-.92,11.31.66,10.85-.19,19.08-1.05,10.06-3.45,11.1-4.68,21.71-1,8.26.56,7.13-.19,16.07-1.42,16.91-6.66,18.93-5.07,29.94.58,4,2,8.85,0,10.25-.92.64-2.2.27-4.47-.4-4.69-1.39-4.91-3.19-8.18-3.62-2.56-.34-3.36.64-5.85-.2a8,8,0,0,1-3.31-2c-2.18-2.51-1-6.78.39-12.66,0,0,.25-1,3.12-13.87.46-2,.73-3.5,2.92-20.29,1.34-10.29,2-15.43,2.14-16.88.93-10.63.14-11.92,1-21.5.74-8.51,1.32-7.11,2.72-19.09,1.7-14.49,1.46-21.77,1.37-24.11A116.89,116.89,0,0,0,305,241.42c-1.47-9.76-2.21-14.64-4.93-20.06-2.65-5.26-5.86-8.64-4.48-11.19.81-1.5,3.13-2.52,3.75-2.79,2-.87,2.72-.48,4.27-1.18,1.94-.89,2.94-2.49,4.06-4.3.54-.86,2.05-3.44,3.23-9C312,188,311.84,185.12,312.29,185.1Z"/><path class="cls-94" d="M294.61,130.16c.18-.48,2.18-.61,6.18-.83,3.1-.18,4.26-.14,5.35-1.08.72-.6.95-1.24,1.9-1.54,1.13-.36,1.88.19,2.5-.36s.19-1,.72-1.66,1.31-.62,2.49-.84a25.32,25.32,0,0,0,3.45-1.07c1.22-.42,2-.76,4.76-1.78,1.51-.56,1.94-.7,2.38-.48.92.48.88,2.1,1,3.45.13,2.63,1.1,5.14,1.55,7.73,1.51,8.73,1.46,8.24,1.54,8.92.63,5.64-.06,5.77.83,8.57.53,1.65,1.54,4,.84,4.52-.42.3-1.1-.3-1.91.11s-.58,1.09-1.19,1.31c-.82.31-1.42-.87-2.61-.71a2.2,2.2,0,0,0-1.55,1.07c-.5.89.18,1.47-.12,2.62-.18.7-.8,1.27-2,2.37s-2,1.85-2.5,1.91c-2.11.26-4.36-4.62-5.23-6.54-3.24-7.16-1.64-8.79-4.28-12.85-1.45-2.22-3.54-3.9-7.73-7.25C297,132.59,294.26,131.09,294.61,130.16Z"/><path class="cls-95" d="M294.13,128.61c2.39-1.1,5.29,1.44,10.7,1.9a4.53,4.53,0,0,1,2.62,1,4.72,4.72,0,0,1,1.43,2.61c.67,2.69,1.75,2.6,4.87,8.21A65.79,65.79,0,0,1,317,149c1.68,4,2.52,6,2.5,7.85,0,3.11-1.42,3.62-2,8.2a44.74,44.74,0,0,0-.12,5.36c-.14,3.93-.88,4.62-2.33,11.39-1.87,8.79-.76,8.3-2.18,11.72a15.56,15.56,0,0,0-1.58,6.38,8.58,8.58,0,0,0,.66,4c.56,1.16,1.13,1.52,1.07,2.26-.1,1-1.31,1.55-3.06,2.52-4.83,2.69-4.94,3.81-6.9,3.85a6.91,6.91,0,0,1-4.39-1.72c-3.74-3.19-2.51-9.58-2.12-17.14.34-6.66-.31-12.41-1.59-23.9-1.12-9.91-2.1-11.28-2.93-21.25C290.54,131.15,293,129.14,294.13,128.61Z"/><path class="cls-96" d="M258.67,233.41c-3.84,3.46-1.28,11.3-.13,17.88.49,2.83.33,3.22-3.05,33.11-3.66,32.27-3.72,34-3.19,37.83,1.85,13.29,5.73,14.55,6,26,0,2.11,0,6.41,2.91,9.14,2.2,2.07,6.09,3.24,9,1.94,3.89-1.72,4.25-7.05,6.52-19,1.92-10.11-.24,3.73,4.15-19,2.93-15.11,4.39-22.66,5.68-31.32,1.38-9.19,2.36-17.58,2.91-27,.83-14.08.14-20.76-3.88-26.47-1.33-1.9-4-5.55-8.45-6.65-2.51-.62-5.23,0-10.67,1.11C262,232,259.71,232.48,258.67,233.41Z"/><path class="cls-97" d="M279.33,233c-.57,3.46,1.15,5.29,2.53,9.94.9,3,1.19,6.73,1.06,14.13a184.44,184.44,0,0,1-2.75,28.71c-10.62,54.79-5,48.41-11.4,69.33,0,0-6.56,21.46-2.74,23.41a6.7,6.7,0,0,0,2.53.44c1.55,0,2-.49,4.44-1.1a19.17,19.17,0,0,1,4-.66,15.94,15.94,0,0,1,3.59.22c8.55,1.39,12.84,2,14.35.44,1.2-1.27.45-3,.21-6.85-.34-5.57,1-6.5,3.59-19.87.75-3.78,1.61-8.19,2.32-13.91.67-5.32.54-6.38,1.27-15.24.81-9.85,1.69-17.25,1.9-19,1.11-9.21,1.38-8.9,2.32-17,1-8.51,1.4-15,1.69-19.65.51-8.18.63-13.89.64-18.33,0-15.8-1.35-18.75-3.38-20.54-1.82-1.59-4.1-2-8.66-2.87-4.74-.88-7.86-1.46-11.19.22A11.84,11.84,0,0,0,279.33,233Z"/><path class="cls-98" d="M290.87,227.53c.25.22.62.5,3.63,1.34,2.63.72,3,.7,3.73,1.24.9.7.65,1,1.82,2.48a8.81,8.81,0,0,0,3.73,3,5.74,5.74,0,0,0,3.25.38,8.35,8.35,0,0,0,2.77-1.43c3-1.88,2.72-1.5,3.34-2s3.44-2.82,3-5.26a5.55,5.55,0,0,0-1.15-2.1,12.21,12.21,0,0,0-2-2.1,21.92,21.92,0,0,0-3.34-2.3c-1.83-1.08-2.41-1.31-3.45-1.91-3.43-2-3.34-3.1-6.3-4.78-2.22-1.25-3.63-2.05-5.17-1.62-2.25.62-3.26,3.43-4.49,6.88a9.88,9.88,0,0,0-.76,4.68A5.4,5.4,0,0,0,290.87,227.53Z"/><path class="cls-99" d="M306.36,234.89a4,4,0,0,0,.76,3c.61,1.12,1.61,2.38,5.74,5.07,3.1,2,3.47,1.91,5,3.25a24.26,24.26,0,0,1,3.25,3.63c1.21,1.66,1.24,2.12,2.67,3.92a20.49,20.49,0,0,1,1.72,2.2,20.26,20.26,0,0,0,1.44,2.29,12.94,12.94,0,0,0,1.62,1.63,6.57,6.57,0,0,0,1.72,1.34c1.57.42,3.24-1.41,3.35-1.53a5.45,5.45,0,0,0,1.24-3.92c-.1-1.35-.67-2-1.53-3.64-1.25-2.3-1.09-2.71-2.29-5.35a59.23,59.23,0,0,0-4.49-7.65c-4-6.2-5.08-7.57-5.64-8.22-2.9-3.31-5.56-5.21-6.31-4.68-.27.19-.16.58-.67,1.43a5.57,5.57,0,0,1-1.15,1.34c-1.86,1.72-1.25,1.34-2.58,2.49C307.38,233.86,306.63,233.87,306.36,234.89Z"/><path class="cls-100" d="M329.55,257.19c-.38,1.63-.73,3.13-.14,4.63a3.91,3.91,0,0,0,1.21,1.73,3.35,3.35,0,0,0,1.78.8,3.73,3.73,0,0,0,2.43-.8,7.54,7.54,0,0,0,2-2c.81-1.05.81-1.33,1.54-2.38s.93-1,2.43-2.81a38.18,38.18,0,0,0,2.43-3.27,6.22,6.22,0,0,0,1.17-2.52,2.22,2.22,0,0,0-.14-1.55,2.13,2.13,0,0,0-.79-.79c-.3-.18-.63-.39-.94-.28s-.47.64-.61.61,0-.68-.28-.85-.45,0-.65.14a2.71,2.71,0,0,0-.93.85,12.68,12.68,0,0,1-1.92,1.4,15.54,15.54,0,0,1-1.73,1.07,12.62,12.62,0,0,1-2,.7,18.24,18.24,0,0,0-2.67.94,6.33,6.33,0,0,0-1.87,3.23C329.71,256.52,329.62,256.89,329.55,257.19Z"/><path class="cls-101" d="M242.08,243.39c-1.43,7.51-2,12.44-2,12.44-1.34,12.6-2,18.9-2.66,29-.6,9.19-1.29,20.07-1.43,34.47-.08,9.16.08,17.16.18,22,.11,5.46.28,11.09.54,19.72,0,0-1.95,7.54.35,11.55a3.85,3.85,0,0,0,1.17,1.24,3.69,3.69,0,0,0,1.9.48c2.36,0,1.22.53,5.48.59,3.55.06,4.61-.29,8.31-.41,6.08-.21,7,.59,9.29-.56a9.48,9.48,0,0,0,4.15-4.43c.87-2,.84-3.83.14-8-.8-4.86-1.76-8.46-2.08-9.7a105.42,105.42,0,0,1-2.63-15,144.22,144.22,0,0,1-.69-14.41c-.11-4.92-.23-11.46.14-20.09.29-6.88.78-12.2,1.24-17.32,1-10.71,1.41-11.39,1.67-17.46a158.94,158.94,0,0,0-.28-16.21c-.7-13.88-1.94-16.52-2.91-18.15s-3.66-6.25-9-8c-1.54-.52-2.32-.78-3.32-.55C247.72,225,245.16,227.19,242.08,243.39Z"/><path class="cls-102" d="M228.25,181.85c.57,1.16,2.28,1.55,3.43,1.52,2.57-.07,3.16-2.22,7-5.22,4-3.12,7.11-3.65,7.05-5.49,0-.9-.79-1-1.57-3.3-.41-1.2-.3-1.46-.75-2.72-.62-1.69-.93-2.57-1.65-2.94-1.54-.8-4.12,1.11-5.49,2.49-1.66,1.69-1.2,2.28-3.12,5.37s-3.58,4.48-4.82,7.88A3,3,0,0,0,228.25,181.85Z"/><path class="cls-103" d="M240.28,218.61c-.56.84-.53,1.5-.78,3.77-.4,3.55-.6,3-.79,5.33-.2,2.51-.11,4.82-.21,9.6a6.26,6.26,0,0,1-.43,2.41c-.45,1.12-.89,1.16-1.28,2.21a5.36,5.36,0,0,0-.14,3,2.49,2.49,0,0,0,3.49,2.35,5.16,5.16,0,0,0,1.77-.64c.93-.61,1.45-1.7,1.85-4a31.73,31.73,0,0,0,.36-5.4,30.62,30.62,0,0,1,1.27-6.76c1.56-6.08,2.91-7.24,2.28-10.09-.17-.76-.68-3.07-2.49-3.77S241.26,217.14,240.28,218.61Z"/><path class="cls-104" d="M214.68,148.84a19,19,0,0,1,7.45-2.29,11.86,11.86,0,0,1,6.05.3,13.49,13.49,0,0,1,3.1,1.77,27.24,27.24,0,0,1,4.05,3.47,33,33,0,0,1,4.36,5.08,15.32,15.32,0,0,1,2.5,4.87,11,11,0,0,1,.45,3.62,11.14,11.14,0,0,1-1.92,5.53,20.5,20.5,0,0,1-3.47,3.39c-1.05.92-2.25,2-4,3.25-2.39,1.76-2.9,1.83-3.39,2.8-.85,1.67-.11,3-1,3.54-.59.37-1.48,0-3.25-.74a21.62,21.62,0,0,1-2.8-1.4,38,38,0,0,1-6.27-4.5c-1.84-1.65-1.4-1.6-3.69-3.69s-2.72-2.17-3.83-3.54a12.39,12.39,0,0,1-2.44-4.35,11.72,11.72,0,0,1-.14-5.75C207.86,152.92,214.29,149.07,214.68,148.84Z"/><path class="cls-105" d="M216.32,179.22c.05.66,1.19,1.08,2,1.36s.78.14,1.5.42,1.54.59,1.84,1.22-.08.81.23,1.55c0,.1.43,1,.94,1s.71-.72.75-.84a3.28,3.28,0,0,0-.51-2.68c-.68-1-1.16-.73-3.11-2.26-1-.79-1.27-1.17-1.87-1.17C217.19,177.81,216.27,178.58,216.32,179.22Z"/><path class="cls-106" d="M227,183.45c-.89.69-1.07,1.76-1.37,5.46-.27,3.42-.41,5.12-.37,6a28.46,28.46,0,0,0,1.21,6.79,48.31,48.31,0,0,0,3.26,7.23c2.3,4.6,3.37,6.05,4.84,7.32a11.89,11.89,0,0,0,2.23,1.61c2.3,1.28,3.59,1,5.46,2.11a12.5,12.5,0,0,1,2.6,2.48c3.19,3.52,3.55,5.09,6,7.45a22.11,22.11,0,0,0,3.72,2.85,30.88,30.88,0,0,0,13,5.09c6.71.74,11.7-1.86,18.36-5.34,4.54-2.36,9.1-4.81,11.79-9.92a29.41,29.41,0,0,0,2-5.71,85.22,85.22,0,0,0,2.73-13.4c1.08-9.53.83-17.33,1.24-31.87.41-14.83,1-18.89.46-23.71,0,0-1.27-11.14-.77-13a1.39,1.39,0,0,0,0-.76c-.28-.86-1.52-1.17-2-1.32-2.89-.83-6-3.5-8.25-5.4a3,3,0,0,0-1.25-.69,3.88,3.88,0,0,0-2.56.34,10,10,0,0,0-2.84,1.74c-9.41,8.82-14.11,13.22-14.76,13.92-2.33,2.5-6.2,6.22-13.94,13.67-6.57,6.32-7,6.59-8.65,8.62-2.29,2.87-4.7,6.52-8.08,9.68-.71.66-2.1,1.9-3.32,3a40.24,40.24,0,0,1-3.56,2.91,15.57,15.57,0,0,1-4.46,2.25C228,183.25,227.7,182.94,227,183.45Z"/><path class="cls-107" d="M298.46,130.09c-.09-1.79-5-3.84-8.18-2.32-2.19,1-3,3.49-3.28,4.24-3.57,10-19.87,31.27-34.08,41.43-10.19,7.29-12,8.25-12,8.25-3.42,1.81-7,3.26-10.22,7a16.47,16.47,0,0,0-3.23,4.84c-2.55,6.25.31,12.57,2.36,17.13,1.87,4.14,3.54,5.73,4.09,6.23a12.15,12.15,0,0,0,7.41,3.45,12.37,12.37,0,0,0,7.73-2.57c4.46-3,6.61-7,8.14-10,4.58-8.89,6.6-14.07,9.12-19.5,4.87-10.5,5.61-9,9.82-18.51a178.12,178.12,0,0,0,7.15-18.94c2.47-8.28,2.66-11.78,6.31-15.13C293.78,131.86,298.56,131.87,298.46,130.09Z"/><path class="cls-108" d="M292,154.54c-1.44,0,.46,12.31-5.5,29.13-2.1,5.91-8.46,21.69-7.13,28.65a25.9,25.9,0,0,0,2.43,6.48c1,1.79,2.15,3.91,2.92,3.72,1.22-.29.11-6.18.48-14.08a78,78,0,0,1,2.43-15.22c2.65-11.4,4.77-11.87,6-19.42C295.23,164,293.27,154.57,292,154.54Z"/><path class="cls-109" d="M265.73,450.79c-.45.15-.31.84-.88,2a7.75,7.75,0,0,1-1.41,1.93c-1.13,1.26-1.44,1.06-1.75,1.76a5,5,0,0,0-.09,2.9,13.61,13.61,0,0,0,4.13-.71,6.3,6.3,0,0,0,3.6-3.07,2.23,2.23,0,0,0,.26-1.14c0-.35-.16-.92-2.28-2.73C266.19,450.8,265.94,450.71,265.73,450.79Z"/><path class="cls-110" d="M262,458.6a1.93,1.93,0,0,0-.5,2c.22.42.69.59,1.5.78a15.41,15.41,0,0,0,3.45.5c2.18-.07,1.49.32,6.18.59a53,53,0,0,0,7.5,0c2.42-.18,1.75-.33,4.36-.54a11,11,0,0,0,3.27-.73c1.1-.44,1.49-.82,1.5-1.18a2.06,2.06,0,0,0-.41-1,3.27,3.27,0,0,0-.36-.55c-.5-.51-1.58-.21-2.28-.05s-1.52.28-3.4.55a11.12,11.12,0,0,1-4.41,0,6.91,6.91,0,0,1-1.68-.6c-1.48-.76-1.62-1.59-2.95-2.4a5.92,5.92,0,0,0-2.55-.87,7.11,7.11,0,0,0-3.95,1c-1.24.65-1,.89-2,1.32C263.62,458.28,262.79,457.81,262,458.6Z"/><path class="cls-111" d="M309.86,426.06c.59-.75,2.32-.54,3-.38a2.62,2.62,0,0,1,1.09.44c.64.47.69,1.08,1.18,2a11,11,0,0,0,1.23,1.62c1.19,1.56,1.13,2.26,2.06,3.81s1.2,1.19,2.45,2.9,2.47,3.37,2.26,5.42c-.12,1.29-.86,3.3-2.06,3.49s-1.93-1.88-6.52-8.65a70.42,70.42,0,0,1-3.87-7C309.9,428.1,309.29,426.77,309.86,426.06Z"/><path class="cls-112" d="M325.72,16.22a2.64,2.64,0,0,0,2.62.08c1.29-.9,2.6-.73,3.91-.87.11,0,.21,0,.32,0,1.27-.25,1.57.23,1.91,3.46a59.28,59.28,0,0,1,.2,11.14c-.16,2-.47,2.57-1.25,2.54-1,0-2.07,0-3.1-.12a4.11,4.11,0,0,1-1.26-.68c-.05,0-.11-.1-.16-.1a4.19,4.19,0,0,0-2.61.31"/><path class="cls-113" d="M289.35,434.75a5.17,5.17,0,0,1-1-2.13,4.79,4.79,0,0,1,.06-1.87,6.48,6.48,0,0,1,.58-1.55c.81-1.43,2.71-2,4.26-2.58,4.84-1.68,3.8-1.76,5.75-2.19,2.34-.53,6-1.34,9.22.45a13.72,13.72,0,0,1,3.23,2.84c1.94,2,2.26,3,4.46,5.48,1.05,1.2,1.87,2,3,3,2.25,2.15,3.41,3,5.49,5.22a12.09,12.09,0,0,1,2.06,2.84,7.94,7.94,0,0,1,.91,3,3.9,3.9,0,0,1-.52,2.84,3.1,3.1,0,0,1-1.48,1c-1.37.41-2.67-.37-5.1-1.88-2.66-1.64-4-2.46-4.26-2.64a59.48,59.48,0,0,0-7.94-4.39c-.89-.42-3.32-1.36-8.2-3.23-2.09-.8-4.07-2-6.26-2.45C292.07,436.22,290.42,436.06,289.35,434.75Z"/><path class="cls-114" d="M289.94,437a7.12,7.12,0,0,0,2.32,2.38,21.52,21.52,0,0,0,4.07,2.65,6.55,6.55,0,0,1,2.25,1.42,5.56,5.56,0,0,1,1.1,1.81c1,2.27.87,3.05,1.42,4.26a8.81,8.81,0,0,0,3.29,3.42,15.85,15.85,0,0,0,5.36,2.45,16.42,16.42,0,0,0,6.84.77,19.14,19.14,0,0,0,5-1.42c2.81-1.05,3.45-1.73,3.68-2a5.83,5.83,0,0,0,1.35-3.93,6.69,6.69,0,0,0-1.29-3.49c-.73-1.15-1.22-1.46-3.87-3.87-1.31-1.2-2.5-2.28-3.81-3.61-1.08-1.11-1.8-1.92-2.9-3.17-3.46-3.92-3.72-4.67-5.36-5.61a9.91,9.91,0,0,0-3.93-1.29,13.11,13.11,0,0,0-3.94.45,31.38,31.38,0,0,0-6.84,2,23.09,23.09,0,0,0-3.49,2c-1.11.76-1.42,1.11-1.61,1.55A3.91,3.91,0,0,0,289.94,437Z"/><path class="cls-115" d="M287.34,76c-.51.78,1.23,3,4.73,7.58a39.89,39.89,0,0,0,3.08,3.63c2.07,2.16,2.41,2,3.29,3.08,1.49,1.81,1.82,4.31,2.42,9.23.46,3.8.3,5,1.43,6.6.37.52,1.74,2.47,3.74,2.42,2.34-.06,3.66-2.79,3.85-3.19a6.44,6.44,0,0,0,.33-4.29c-.54-1.93-1.63-2.11-3.52-4.73a16.71,16.71,0,0,1-2.75-5.27c-.85-2.93.05-3.63-1-6.16a12.15,12.15,0,0,0-2.64-3.85,15.43,15.43,0,0,0-4.07-3C293.39,76.6,288.19,74.72,287.34,76Z"/><path class="cls-116" d="M292.73,73.05c-1.55-.22-4.31-.6-5.17.77s.73,3.94,1.86,5.17a9.66,9.66,0,0,0,4.65,2.61c3,.81,3.92-.25,5.67.79s2.34,2.83,2.89,4.36c1,2.82.11,3.4,1,5.9s2.06,2.3,3.57,5.38,1.38,5.39,2.21,5.44,1.34-1.49,1.59-2.32a7.75,7.75,0,0,0-.34-4.65c-.8-2.63-1.47-3.1-2.33-5.27-1.26-3.21-.5-3.9-1.47-6.69a16.34,16.34,0,0,0-4.42-6.46A17.73,17.73,0,0,0,292.73,73.05Z"/><path class="cls-117" d="M242.65,8.44s54.5-2.29,62.85-4.28,18,3.42,18,3.42a22.09,22.09,0,0,1,4,9.74c.89,5.9,1.61,17,1.61,17v3.48l2.59,3.58.71,13.05s.81,7.86-2,9.47l-.09,4.38s.36,4.74-4,6.52c-2.07.85-4.37,1.81-6.22,2.59a14.07,14.07,0,0,1-7.53,1l-7.24-1a4.21,4.21,0,0,0-.94,0l-4,.26a10.94,10.94,0,0,1-4.46-.63l-5.54-2a8.58,8.58,0,0,0-1.8-.43l-5.82-.72a6.42,6.42,0,0,0-2.39.16l-17.28,4.54a5.83,5.83,0,0,0-.71.22l-10.37,3.77a11.44,11.44,0,0,1-5.59.56l-8.64-1.33a3.56,3.56,0,0,1-2.7-2l-2.28-5a6,6,0,0,1-.45-1.5c-.89-5.2-5.79-35.05-4.74-51.41a5.33,5.33,0,0,1,.24-1.24l1.72-5.4a3.34,3.34,0,0,1,.48-.94A8.74,8.74,0,0,1,233,11.6,51.85,51.85,0,0,1,239.92,9a4.82,4.82,0,0,1,.75-.18Z"/><path class="cls-118" d="M258.32,80.85a7.67,7.67,0,0,0,.11,2.31,8.83,8.83,0,0,0,.66,1.87,8.59,8.59,0,0,0,.66,1.21c1.07,1.59,3.5,2.51,4.17,1.87.38-.36-.05-1,.44-1.65a2.25,2.25,0,0,1,1.43-.77,7.24,7.24,0,0,1,3.41.11c1.49.4,3.12.16,6.38-.33s2.84-1.18,8.79-3c2.55-.76,3.71-1,5.28-2.09.94-.67,3-2.16,2.86-4.06a4.11,4.11,0,0,0-2-2.75c-1.68-1.15-3.25-.9-6-1.1-3.43-.25-3.42-.78-6.05-1-.92-.07-2.71-.15-11,2-6.85,1.76-8.52,2.55-8.9,4A31.25,31.25,0,0,0,258.32,80.85Z"/><path class="cls-119" d="M316.68,15.48c0,.59-.2.78,0,1.06.41.58,1.84.27,2.45.13a11.54,11.54,0,0,0,1.6-.53c2.18-.7,3.44,0,3.78-.66s-.26-1.35-.79-2.19-.63-.68-.87-1.2c-.51-1.13.06-1.8-.46-2.46A2,2,0,0,0,320.86,9c-.94,0-1.07.67-2.46,1.32s-1.95.38-2.59,1.13a2,2,0,0,0-.53,1.2C315.27,13.8,316.58,14.16,316.68,15.48Z"/><path class="cls-120" d="M323.48,13.52c-.75.18-.79.86-1.41.94s-.69-.43-1.46-.55a2.12,2.12,0,0,0-1.52.32c-.8.68,0,1.92-.75,3.79a12.25,12.25,0,0,1-.8,1.36c-1.07,1.89-1.6,2.83-1.35,3.36.43.88,2.51,1,3.91.36.8-.4.65-.71,1.58-1.18,1.44-.74,2.28-.22,2.95-1a2.38,2.38,0,0,0,.46-1.75,2.06,2.06,0,0,0-.56-1.28c-.43-.42-.85-.34-.92-.6s.63-.56,1.07-1.33a2,2,0,0,0,0-2.22A1.37,1.37,0,0,0,323.48,13.52Z"/><path class="cls-121" d="M318.94,20.84c.28-.86,1.94-1.22,3.12-1a4.33,4.33,0,0,1,2.2,1.33,3.81,3.81,0,0,1,1.19,1.73c.2.7,0,1,.27,1.59s.79.72.93,1.2a2.32,2.32,0,0,1-1.93,2.45c-.82,0-1-1-2.46-3C320.19,22.32,318.66,21.74,318.94,20.84Z"/><path class="cls-122" d="M314.15,17.59a2.91,2.91,0,0,1,2.06-1.66,3.6,3.6,0,0,1,2,.13c1.08.36,1.3,1,2,.86s.7-.6,1.33-.66a2.16,2.16,0,0,1,1.59.86c.95,1.13.31,2.23,1.13,2.86s1.35,0,1.86.53A1.83,1.83,0,0,1,326,22.7c-.54.64-1.21.28-1.73.87-.14.15-.44.56-.2,2.79.21,2,.54,2.52.2,2.85-.5.5-1.9,0-2.72-.6-1.26-.86-.82-1.85-2.06-3.45-.8-1-.95-.64-2.66-2.32a10,10,0,0,1-2.33-3.13A3,3,0,0,1,314.15,17.59Z"/><path class="cls-123" d="M229.88,25.05a10.38,10.38,0,0,1,1.7-4.58c1.11-1.62,2.6-2.74,5.37-4a36.67,36.67,0,0,1,9.81-3.14,165,165,0,0,1,23.55-1c10.63.11,15.95.17,22-.26,11.35-.82,17-1.23,18.45-1.83.79-.34,5-2.2,6.28-.79.11.12.26.33.65,2a28.28,28.28,0,0,1,.66,3.27c.39,3,3.63,5.69,6.14,10.22a30.51,30.51,0,0,1,2.95,8.06A49.16,49.16,0,0,1,328.63,42c.47,6.26-.09,5.6.34,11.61A81.61,81.61,0,0,1,329,64.21a10.2,10.2,0,0,1-1.14,4.16A10.47,10.47,0,0,1,326,70.92a13.21,13.21,0,0,1-4,2.55,18.4,18.4,0,0,1-5.5,1.82,18.67,18.67,0,0,1-5,0,34.72,34.72,0,0,1-7-1.62c-5.51-1.72-5-2.13-7.9-2.74a47.7,47.7,0,0,0-7.8-.71c-2.25-.1-4-.1-5.16-.1a120,120,0,0,0-18.75,1.24,61.63,61.63,0,0,0-10.07,2.07c-4.4,1.38-7.89,3.15-13,3a7.41,7.41,0,0,1-4.41-1.24,7.71,7.71,0,0,1-2.76-4.55c-.69-2.8.21-4.32.69-7.86.39-2.85.21-4.84-.14-8.82a95.42,95.42,0,0,0-2.2-11.17c-1-4.48-1.5-9.09-2.76-13.51A10.45,10.45,0,0,1,229.88,25.05Z"/></g></g></svg>