<svg xmlns="http://www.w3.org/2000/svg" xmlns:xlink="http://www.w3.org/1999/xlink" viewBox="0 0 117.05 680.11"><defs><style>.cls-1{isolation:isolate;}.cls-2{fill:#c1c1c1;}.cls-3{fill:#989898;}.cls-4{fill:#7c7c7c;}.cls-5{fill:#fff;}.cls-6{fill:#4aa1b7;opacity:0.75;}.cls-6,.cls-8{mix-blend-mode:multiply;}.cls-7{fill:url(#linear-gradient);}.cls-8{opacity:0.81;fill:url(#linear-gradient-2);}</style><linearGradient id="linear-gradient" x1="37.03" y1="367.21" x2="90.95" y2="367.21" gradientUnits="userSpaceOnUse"><stop offset="0.22" stop-color="#7f7f7f"/><stop offset="0.33" stop-color="#757575"/><stop offset="0.53" stop-color="#595959"/><stop offset="0.79" stop-color="#2c2c2c"/><stop offset="1" stop-color="#020202"/></linearGradient><linearGradient id="linear-gradient-2" x1="58.47" y1="211.01" x2="58.47" y2="611.81" gradientUnits="userSpaceOnUse"><stop offset="0" stop-color="#4aa1b7"/><stop offset="0.29" stop-color="#479eb3"/><stop offset="0.56" stop-color="#3d94a8"/><stop offset="0.82" stop-color="#2d8495"/><stop offset="1" stop-color="#1d7583"/></linearGradient></defs><g class="cls-1"><g id="PLANTS"><g id="_LAYER-15_WELL_MIDDLE_" data-name="&lt;LAYER-15_WELL(MIDDLE)&gt;"><rect class="cls-2" x="14.62" y="0.04" width="89.24" height="99.96"/><polygon class="cls-3" points="0.05 99.96 0.05 0 27.05 0.01 27.05 100 0.05 100 0.05 99.96"/><polyline class="cls-3" points="90.05 0.01 90.05 100 117.05 100 117.05 0"/><polygon class="cls-4" points="69.6 0 69.6 100 47.6 100 47.6 0.02 69.6 0"/><rect class="cls-5" x="51.62" width="14.04" height="100"/><rect class="cls-6" x="51.62" width="14.04" height="100"/></g><g id="_LAYER-16_WELL_BOTTOM_" data-name="&lt;LAYER-16_WELL(BOTTOM)&gt;"><rect class="cls-2" x="14.57" y="97.51" width="89.24" height="558.83"/><polygon class="cls-3" points="117 97.49 117 680.11 0 680.11 0 97.27 27 97.49 27 654.11 90 654.11 90 97.49 117 97.49"/><polygon class="cls-4" points="69.55 97.49 69.55 106.07 47.55 106.07 47.55 97.57 69.55 97.49"/><rect class="cls-7" x="38.41" y="106.07" width="39.66" height="522.27"/><rect class="cls-8" x="26.97" y="77.41" width="63" height="576.7"/></g></g></g></svg>