<svg xmlns="http://www.w3.org/2000/svg" xmlns:xlink="http://www.w3.org/1999/xlink" viewBox="0 0 757.51 453.33"><defs><style>.cls-1{isolation:isolate;}.cls-2{fill:#8e8e8e;}.cls-3{fill:#c1c1c1;}.cls-4{fill:#989898;}.cls-5{fill:#80c0c3;}.cls-6{fill:#909090;}.cls-7{fill:#9d9d9d;}.cls-8{fill:gray;}.cls-9{opacity:0.1;}.cls-10,.cls-13,.cls-9{mix-blend-mode:multiply;}.cls-10{opacity:0.81;fill:url(#linear-gradient);}.cls-11{fill:#7c7c7c;}.cls-12{fill:#fff;}.cls-13{fill:#4aa1b7;opacity:0.75;}.cls-14{fill:#5a98a4;}.cls-15{fill:url(#linear-gradient-2);}.cls-16{fill:url(#linear-gradient-3);}.cls-17{fill:url(#linear-gradient-4);}.cls-18{fill:#808663;}.cls-19{fill:url(#linear-gradient-5);}.cls-20{fill:url(#linear-gradient-6);}.cls-21{fill:url(#linear-gradient-7);}.cls-22{fill:url(#linear-gradient-8);}.cls-23{fill:url(#linear-gradient-9);}.cls-24{fill:url(#linear-gradient-10);}.cls-25{fill:url(#linear-gradient-11);}.cls-26{fill:url(#linear-gradient-12);}.cls-27{fill:url(#linear-gradient-13);}.cls-28{fill:url(#linear-gradient-14);}.cls-29{fill:url(#linear-gradient-15);}.cls-30{fill:url(#linear-gradient-16);}.cls-31{opacity:0.78;fill:url(#linear-gradient-17);}.cls-32{fill:#907256;}.cls-33{fill:url(#linear-gradient-18);}.cls-34{fill:url(#linear-gradient-19);}.cls-35{fill:#933c39;}.cls-36{fill:#886b50;}.cls-37{fill:#b5504a;}.cls-38{fill:url(#linear-gradient-20);}.cls-39{fill:url(#linear-gradient-21);}.cls-40{fill:url(#linear-gradient-22);}.cls-41{fill:url(#linear-gradient-23);}.cls-42{opacity:0.67;fill:url(#linear-gradient-24);}.cls-43{fill:url(#linear-gradient-25);}.cls-44{fill:#886e54;}.cls-45{fill:#80634b;}.cls-46{fill:url(#linear-gradient-26);}.cls-47{fill:url(#linear-gradient-27);}.cls-48{fill:url(#linear-gradient-28);}.cls-49{fill:url(#linear-gradient-29);}.cls-50{fill:url(#linear-gradient-30);}.cls-51{fill:#262626;}.cls-52{fill:#c3949b;}.cls-53{fill:#2d2d2d;}.cls-54{fill:url(#linear-gradient-31);}.cls-55{fill:url(#linear-gradient-32);}.cls-56{fill:url(#linear-gradient-33);}.cls-57{fill:url(#linear-gradient-34);}.cls-58{fill:url(#linear-gradient-35);}.cls-59{fill:url(#linear-gradient-36);}.cls-60{fill:url(#linear-gradient-37);}.cls-61{opacity:0.71;fill:url(#linear-gradient-38);}</style><linearGradient id="linear-gradient" x1="239.43" y1="254.41" x2="239.37" y2="283.26" gradientUnits="userSpaceOnUse"><stop offset="0" stop-color="#4aa1b7"/><stop offset="0.26" stop-color="#459db2"/><stop offset="0.57" stop-color="#3890a3"/><stop offset="0.92" stop-color="#237b8a"/><stop offset="1" stop-color="#1d7583"/></linearGradient><linearGradient id="linear-gradient-2" x1="225.91" y1="312.97" x2="228.83" y2="398.58" gradientUnits="userSpaceOnUse"><stop offset="0.2" stop-color="#bababa"/><stop offset="0.35" stop-color="#b7b7b7"/><stop offset="0.44" stop-color="#afafaf"/><stop offset="0.52" stop-color="#a0a0a0"/><stop offset="0.59" stop-color="#8c8c8c"/><stop offset="0.65" stop-color="#717171"/><stop offset="0.71" stop-color="#515151"/><stop offset="0.74" stop-color="#3d3d3d"/></linearGradient><linearGradient id="linear-gradient-3" x1="180.31" y1="313.24" x2="287.29" y2="333.97" gradientUnits="userSpaceOnUse"><stop offset="0.42" stop-color="#bababa"/><stop offset="0.62" stop-color="#b8b8b8"/><stop offset="0.72" stop-color="#b0b0b0"/><stop offset="0.79" stop-color="#a3a3a3"/><stop offset="0.85" stop-color="#919191"/><stop offset="0.91" stop-color="#797979"/><stop offset="0.96" stop-color="#5c5c5c"/><stop offset="1" stop-color="#3d3d3d"/></linearGradient><linearGradient id="linear-gradient-4" x1="226.56" y1="287.7" x2="226.56" y2="301.24" gradientUnits="userSpaceOnUse"><stop offset="0" stop-color="#bababa"/><stop offset="0.43" stop-color="#b8b8b8"/><stop offset="0.58" stop-color="#b1b1b1"/><stop offset="0.7" stop-color="#a6a6a6"/><stop offset="0.78" stop-color="#959595"/><stop offset="0.86" stop-color="#7f7f7f"/><stop offset="0.93" stop-color="#636363"/><stop offset="0.99" stop-color="#444"/><stop offset="1" stop-color="#3d3d3d"/></linearGradient><linearGradient id="linear-gradient-5" x1="493.69" y1="230.06" x2="468.9" y2="210.01" gradientUnits="userSpaceOnUse"><stop offset="0" stop-color="#80634b"/><stop offset="0.41" stop-color="#907256"/></linearGradient><linearGradient id="linear-gradient-6" x1="-1547.84" y1="5600.55" x2="-1558.15" y2="5595.82" gradientTransform="translate(-2065.15 -4957.79) rotate(-41.19)" xlink:href="#linear-gradient-5"/><linearGradient id="linear-gradient-7" x1="468.29" y1="272.34" x2="453.87" y2="265.72" xlink:href="#linear-gradient-5"/><linearGradient id="linear-gradient-8" x1="476" y1="323.62" x2="492.79" y2="334.17" gradientUnits="userSpaceOnUse"><stop offset="0" stop-color="#80634b"/><stop offset="0.49" stop-color="#907256"/></linearGradient><linearGradient id="linear-gradient-9" x1="466.19" y1="261.51" x2="477.96" y2="245.81" gradientUnits="userSpaceOnUse"><stop offset="0.03" stop-color="#808663"/><stop offset="0.87" stop-color="#99a575"/></linearGradient><linearGradient id="linear-gradient-10" x1="492.82" y1="339.55" x2="455.36" y2="322.37" xlink:href="#linear-gradient-5"/><linearGradient id="linear-gradient-11" x1="503.1" y1="293.81" x2="477.91" y2="276.41" gradientUnits="userSpaceOnUse"><stop offset="0" stop-color="#808663"/><stop offset="0.75" stop-color="#99a575"/></linearGradient><linearGradient id="linear-gradient-12" x1="480.28" y1="245.53" x2="473.21" y2="242.29" gradientUnits="userSpaceOnUse"><stop offset="0.38" stop-color="#808663"/><stop offset="0.69" stop-color="#99a575"/></linearGradient><linearGradient id="linear-gradient-13" x1="486.29" y1="299.73" x2="483.25" y2="298.33" xlink:href="#linear-gradient-5"/><linearGradient id="linear-gradient-14" x1="504.27" y1="288.73" x2="489.48" y2="281.94" xlink:href="#linear-gradient-5"/><linearGradient id="linear-gradient-15" x1="508.63" y1="267.72" x2="486.61" y2="248.81" gradientUnits="userSpaceOnUse"><stop offset="0" stop-color="#808663"/><stop offset="0.49" stop-color="#99a575"/></linearGradient><linearGradient id="linear-gradient-16" x1="478.82" y1="243.06" x2="499.02" y2="243.06" gradientUnits="userSpaceOnUse"><stop offset="0" stop-color="#808663"/><stop offset="1" stop-color="#99a575"/></linearGradient><linearGradient id="linear-gradient-17" x1="484.56" y1="223.39" x2="494.36" y2="228.75" gradientUnits="userSpaceOnUse"><stop offset="0" stop-color="#80634b"/><stop offset="0.34" stop-color="#876a50"/><stop offset="0.93" stop-color="#907256"/></linearGradient><linearGradient id="linear-gradient-18" x1="584.6" y1="21.58" x2="566.75" y2="1.51" gradientUnits="userSpaceOnUse"><stop offset="0" stop-color="#7a808a"/><stop offset="0.46" stop-color="#9fadc1"/><stop offset="1" stop-color="#c9e0ff"/></linearGradient><linearGradient id="linear-gradient-19" x1="364.89" y1="1756.03" x2="361.04" y2="1753.56" gradientTransform="matrix(0.98, -0.21, 0.21, 0.98, -183.2, -1592.36)" gradientUnits="userSpaceOnUse"><stop offset="0" stop-color="#80634b"/><stop offset="0.35" stop-color="#907256"/></linearGradient><linearGradient id="linear-gradient-20" x1="584.38" y1="38.36" x2="558.78" y2="5.41" xlink:href="#linear-gradient-18"/><linearGradient id="linear-gradient-21" x1="394.38" y1="1781.14" x2="368.18" y2="1764.34" gradientTransform="matrix(0.98, -0.21, 0.21, 0.98, -183.2, -1592.36)" xlink:href="#linear-gradient-5"/><linearGradient id="linear-gradient-22" x1="574.88" y1="152.12" x2="640.95" y2="97.74" gradientUnits="userSpaceOnUse"><stop offset="0" stop-color="#c7914a"/><stop offset="0.02" stop-color="#c8924b"/><stop offset="1" stop-color="#ffcd89"/></linearGradient><linearGradient id="linear-gradient-23" x1="571.69" y1="111.58" x2="600.36" y2="111.58" gradientUnits="userSpaceOnUse"><stop offset="0" stop-color="#80634b"/><stop offset="0.48" stop-color="#84674e"/><stop offset="0.94" stop-color="#8f7156"/><stop offset="0.97" stop-color="#907256"/></linearGradient><linearGradient id="linear-gradient-24" x1="596.69" y1="166.77" x2="629.79" y2="126.86" gradientUnits="userSpaceOnUse"><stop offset="0" stop-color="#c7914a"/><stop offset="0.02" stop-color="#c8924b"/><stop offset="0.87" stop-color="#ffcd89"/></linearGradient><linearGradient id="linear-gradient-25" x1="524.94" y1="119.9" x2="594.17" y2="119.9" gradientUnits="userSpaceOnUse"><stop offset="0" stop-color="#80634b"/><stop offset="0.54" stop-color="#907256"/></linearGradient><linearGradient id="linear-gradient-26" x1="-160.69" y1="35.26" x2="-177.66" y2="-7.31" gradientTransform="matrix(1.1, 0, 0, 1.12, 746.47, 11.65)" xlink:href="#linear-gradient-18"/><linearGradient id="linear-gradient-27" x1="-1506.63" y1="5466.11" x2="-1516.75" y2="5459.29" gradientTransform="translate(-1967.71 -5024.08) rotate(-41.99)" xlink:href="#linear-gradient-17"/><linearGradient id="linear-gradient-28" x1="559.92" y1="1678.51" x2="602.54" y2="1678.51" gradientTransform="translate(-168.99 -1257.92) rotate(-9.87)" xlink:href="#linear-gradient-5"/><linearGradient id="linear-gradient-29" x1="-1102.35" y1="5564.5" x2="-1129.31" y2="5552.13" gradientTransform="translate(-1938.76 -4578.48) rotate(-39.58)" xlink:href="#linear-gradient-5"/><linearGradient id="linear-gradient-30" x1="-539.37" y1="4786.17" x2="-567.19" y2="4773.41" gradientTransform="matrix(0.84, -0.54, 0.54, 0.84, -1381.86, -3900.83)" xlink:href="#linear-gradient-5"/><linearGradient id="linear-gradient-31" x1="664.75" y1="353.11" x2="707.08" y2="353.11" xlink:href="#linear-gradient-5"/><linearGradient id="linear-gradient-32" x1="680.16" y1="356.7" x2="705.29" y2="356.7" xlink:href="#linear-gradient-5"/><linearGradient id="linear-gradient-33" x1="-1470.51" y1="5849.31" x2="-1453.9" y2="5827.17" gradientTransform="translate(-2216.76 -4936.23) rotate(-43.01)" gradientUnits="userSpaceOnUse"><stop offset="0.03" stop-color="#c3949b"/><stop offset="0.87" stop-color="#e8c6c9"/></linearGradient><linearGradient id="linear-gradient-34" x1="-1413.87" y1="5882.06" x2="-1457" y2="5853.98" gradientTransform="translate(-2216.76 -4936.23) rotate(-43.01)" gradientUnits="userSpaceOnUse"><stop offset="0" stop-color="#c3949b"/><stop offset="0.41" stop-color="#d9b2b6"/><stop offset="0.75" stop-color="#e8c6c9"/></linearGradient><linearGradient id="linear-gradient-35" x1="-1453.41" y1="5824.94" x2="-1460.48" y2="5821.7" gradientTransform="translate(-2216.76 -4936.23) rotate(-43.01)" gradientUnits="userSpaceOnUse"><stop offset="0.38" stop-color="#c3949b"/><stop offset="0.69" stop-color="#e8c6c9"/></linearGradient><linearGradient id="linear-gradient-36" x1="747.39" y1="340.08" x2="707.24" y2="305.61" gradientTransform="matrix(1, 0, 0, 1, -15.25, 7.32)" gradientUnits="userSpaceOnUse"><stop offset="0" stop-color="#c3949b"/><stop offset="0.58" stop-color="#e8c6c9"/></linearGradient><linearGradient id="linear-gradient-37" x1="-223.78" y1="4092.64" x2="-198.93" y2="4092.64" gradientTransform="translate(-1027.65 -3408.37) rotate(-27.91)" gradientUnits="userSpaceOnUse"><stop offset="0.01" stop-color="#c3949b"/><stop offset="1" stop-color="#e8c6c9"/></linearGradient><linearGradient id="linear-gradient-38" x1="-1732.25" y1="6089.67" x2="-1741.91" y2="6084.6" gradientTransform="translate(-2456.84 -5198.39) rotate(-45.77)" gradientUnits="userSpaceOnUse"><stop offset="0" stop-color="#80634b"/><stop offset="0.3" stop-color="#876a50"/><stop offset="0.84" stop-color="#907256"/></linearGradient></defs><g class="cls-1"><g id="PEOPLE"><g id="_LAYER-17_WELL_TOP_" data-name="&lt;LAYER-17_WELL(TOP)&gt;"><rect class="cls-2" x="300.58" y="363.33" width="89.24" height="45.1"/><rect class="cls-3" x="300.58" y="408.44" width="89.24" height="44.9"/><path class="cls-4" d="M313,453.33V371.81l5-9H0v45H244.65c22.82,0,41.36,22.7,41.36,45.52Z"/><path class="cls-4" d="M403,453.33c0-22.82,18.5-45.52,41.33-45.52H707.13v-45H372l4,9v81.52Z"/><path class="cls-5" d="M242.52,233.66l0-.58a1,1,0,0,1,.06-.25h0c0-.22,0-.44,0-.67a1.36,1.36,0,0,1,.18-.57c0-.22,0-.45,0-.67s0,0,.07-.17c-1.19,0-2.14,0-3.32,0a1.52,1.52,0,0,1-.5,1.15c-.34.38-.55.36-.88,0l-.25,0c-.77,0-.73,0-.71-.52,0-.05,0-.1,0-.19-.28.2-.07.45-.19.64s-.17-.25-.31-.11-.26.24-.2.43.23.36-.16.42c0,0,0,.08,0,.1.39.42-.32.71,0,1.16-.34-.14-.15-.34-.39-.48,0,.55-.59.71-.9,1.08.19,0,.39-.09.58-.15.67-.21,1.07,0,1.06.58,0,.27.1.56-.19.86.77-.08,1.08.44,1.6.67h0a1,1,0,0,1,.19-.8c.09-.11.19-.23,0-.42s.31-.24.42-.45a.83.83,0,0,1,1.13-.08l0,.23a2,2,0,0,1,0,1.19l-.17.5a.74.74,0,0,1-.93.46c-.41,0-.67,0-.56.48a2.44,2.44,0,0,1-.25,1.76c0,.07-.15.12,0,.15.46.05.38.27.24.51h0c.24,0,.14.21.33.29.08-.23.2-.39.53-.19.11.06.21-.09.29-.18-.19-.18-.49,0-.78-.21a3.75,3.75,0,0,1,1.3,0c.21,0,.22.3,0,.43-.09,0-.28,0-.12.17s.06.24.25.2.22-.07.23-.18,0-.22,0-.32,0-.21,0-.23c.73-.37.22-.94.37-1.4-.24,0-.2-.17-.2-.3v-1c-.65-.2-.32-.63-.39-1,.22-.09.17.19.32.11s.06-.17.07-.26v-.64c0-.17.05-.31.32-.32s.28.16.28.32a.92.92,0,0,0,.44-1.28C242,234.12,242.15,233.69,242.52,233.66Z"/><path class="cls-5" d="M241.52,242c0-.1,0-.21-.05-.31a1,1,0,0,1-.17-.49l-.07-.31-.15-.25a.6.6,0,0,1-.21.08c-.14,0-.23.2-.34.08s-.07-.31,0-.46.17-.12.27,0,.11.23.3.24l0-.08,0-.21a5.49,5.49,0,0,1-.15-2.45c0-.37.1-.74.14-1.11l-.18.16c-.11.26.22.59-.2.8v.64c-.15.46.36,1-.37,1.4-.05,0,0,.15,0,.23s0,.21,0,.32-.11.16-.23.18-.16-.13-.25-.2,0-.13.12-.17c.26-.13.25-.38,0-.43a3.75,3.75,0,0,0-1.3,0c.29.22.59,0,.78.21-.08.09-.18.24-.29.18-.33-.2-.45,0-.53.19-.19-.08-.09-.3-.33-.29,0,.1-.07.16-.2.16s0,.13-.12.12l0,0c0-.09.08-.09.15-.1s.07-.16.2-.16c.14-.24.22-.46-.24-.51-.19,0-.08-.08,0-.15a2.44,2.44,0,0,0,.25-1.76c-.11-.47.15-.49.56-.48a.54.54,0,0,1-.19-.69,6.94,6.94,0,0,1,1.11-1.67s.09,0,.14,0a.83.83,0,0,0-1.13.08c-.11.21-.6.19-.42.45s0,.31,0,.42a1,1,0,0,0-.19.8h.2c0-.06,0-.13.12-.12s0,0,0,0-.08.09-.15.1.05.3-.1.47c-.16-.17-.08-.33-.1-.47-.52-.23-.83-.75-1.6-.67.29-.3.19-.59.19-.86,0-.58-.39-.79-1.06-.58-.19.06-.39.1-.58.15.31-.37.92-.53.9-1.08.24.14,0,.34.39.48-.28-.45.43-.74,0-1.16,0,0,0-.09,0-.1.39-.06.21-.27.16-.42s.1-.31.2-.43.12.23.31.11-.09-.44.19-.64c0,.09.05.14,0,.19,0,.54-.06.52.71.52l.25,0a3.64,3.64,0,0,1-.18-1.12h-.29c-.12.21-.06.48-.14.76a.54.54,0,0,1-.14-.49c0-.1.1-.2.07-.28h-1.28c0,.1.19.23.21.33h.2s0-.12.12-.12l0,0c0,.09-.08.08-.15.1s.07.31-.08.43,0-.28-.23-.28a13,13,0,0,1-1.88,3.21c.07,0,.19,0,.13.11s-.13,0-.17-.06l-.88.76c0,.22-.23.34-.4.48a.64.64,0,0,1,.11.48c.12,0,.19,0,.19.16l.72-.67c.05,0,0-.09,0-.14-.19-.28.05-.3.31-.31,0-.12-.07-.3.17-.31s.21.18.23.31.19.06.2.16c.26,0,.48-.22.78-.15a.72.72,0,0,1-.17.56,8.74,8.74,0,0,1-1.57,1.94v0c-.18.41-.56.75-.71,1.18a.93.93,0,0,0-.12.46c.89-.42.89-.42,1.06-.92.23,0,0,.25.21.31s.31-.35.32.06a.19.19,0,0,0,.14.19c.5.15,0,.33,0,.4s-.29.1-.34-.1-.25-.13-.28-.07c-.26.47-.75.08-1.09.21a.72.72,0,0,0,0,.56c.07,0,.16,0,.15.09s-.09,0-.14.07c.07.21.13.43.19.64l.2.16a.86.86,0,0,0,.83-.32c.11-.12.23-.22.35-.33h0l1.61-2.56a2.46,2.46,0,0,1,.38-.69c.08-.14.18-.28.38-.27s.29.16.36.29a2.29,2.29,0,0,1-.11,2.67l-.6.73h0c0,.1-.09.15-.19.2s-.17.17-.22.28a2.71,2.71,0,0,0-.59,1.5c0,.2.06.39.09.59l.12.22a1.06,1.06,0,0,0,.59.19l.11,0,0,0h.05c.15-.07.34-.07.44-.21s.08-.1.16-.12,0,0,0,0l.18-.18a0,0,0,0,1,0-.06c.06-.25.13-.49.2-.73a11.22,11.22,0,0,1,.17-1.28c-.07,0-.18,0-.13-.11s.11,0,.15,0h0a.1.1,0,0,1,.06-.07c.07-.33.36-.43.73-.4s.71.3.71.65a1.76,1.76,0,0,1-.14.9l0,.29v.25l0,.32c.08,0,.19,0,.18-.11-.09-.51.33-.47.74-.46a1.33,1.33,0,0,0,.2,0c.78,0,.78,0,.88.61,0,.11.05.18.2.2l0-.16c0-.13,0-.25,0-.38S241.57,242.13,241.52,242Zm-5.44-9.13c.07,0,.14,0,.14.07s-.07.07-.14.07-.14,0-.14-.07S236,232.85,236.08,232.85Zm-1.79,7.1c-.65,0-.35.38-.41.61s0,.19-.15.27c-.14-.36.07-.73-.22-1.05a2.79,2.79,0,0,1,.86,0C234.47,239.87,234.34,240,234.29,240Zm1.23-5.49c.07,0,.13,0,.1.09s-.07,0-.11,0l-.11-.07A.33.33,0,0,1,235.52,234.46Zm.34.8c0-.24-.23-.15-.39-.18s-.31,0-.38-.11,0-.13,0-.14.2.12.35.1h.6c0-.09-.16-.19,0-.29a.13.13,0,0,1,.17,0c.07.13,0,.23-.16.26C236.07,235.06,236.12,235.23,235.86,235.26Zm-.23,3.12a.27.27,0,0,1-.34-.21c-.09-.34-.18-.55-.49-.09,0,0-.21,0-.32,0s0,.13-.12.12l0,0c0-.09.08-.09.15-.1,0-.25-.07-.51.45-.5.22,0,.14-.21.15-.33s0-.3.24-.27.16.17.16.28a.3.3,0,0,1-.09.26c-.15.15-.2.23.14.15s.3.19.35.35S235.78,238.34,235.63,238.38Zm.72-1.34c-.17.22.13.52-.27.8v-1.63c-.08,0-.16,0-.15-.1s0,0,0,0,.1.06.12.12C236.37,236.44,236.63,236.67,236.35,237Zm.24-.71c-.11-.16-.2-.31,0-.42a.34.34,0,0,1,.18,0C236.84,236.09,236.58,236.16,236.59,236.33Zm.12,5c.21.18.18.28.09.4C236.6,241.62,236.71,241.5,236.71,241.31Zm.5,1.26c-.2.06-.34-.08-.59-.19.27-.06.41-.23.6,0S237.32,242.54,237.21,242.57Zm.07-1.07v.59h-.15c0-.2-.23-.41.15-.58,0-.08,0-.16.17-.14s.08.06.07.07S237.37,241.49,237.28,241.5Zm2.76.32c-.24-.16-.15-.35-.18-.51C240.15,241.42,240.08,241.59,240,241.82Zm.36-.1a.65.65,0,0,1,0-.67A.65.65,0,0,1,240.4,241.72Z"/><path class="cls-5" d="M237,236.27l-.08,0s0,0,0,.06.06,0,.08,0S237,236.29,237,236.27Z"/><path class="cls-5" d="M233.71,235.67s.06,0,.08,0,0,0,0-.06l-.08,0S233.72,235.65,233.71,235.67Z"/><path class="cls-5" d="M235.55,233.35s0,.05,0,.07l.08,0s0,0,0-.07S235.58,233.36,235.55,233.35Z"/><path class="cls-5" d="M236.75,243s0,.05,0,.06.05,0,.08,0,0,0,0-.06S236.78,243,236.75,243Z"/><path class="cls-5" d="M243.18,244.76a3.94,3.94,0,0,1,1.33,2.47.68.68,0,0,1-.18.57c-.2.19-.44.24-.61,0A3.82,3.82,0,0,1,243.18,244.76Zm.58,1.29a.59.59,0,0,0,0,.61C243.91,246.4,243.92,246.22,243.76,246.05Z"/><path class="cls-5" d="M237.7,247.23c-.38.16-.56,0-.58-.28a2.19,2.19,0,0,1,.34-1.3.4.4,0,0,1,.52-.18.1.1,0,0,0,.06.05,1.49,1.49,0,0,1-.31,1.72Z"/><path class="cls-5" d="M234.49,235.89a2.12,2.12,0,0,1-1.25,1.1.73.73,0,0,1-.46-.07c.07-.09.31,0,.3-.23v-.08h.29c.25.19.35,0,.46-.13s.28-.44.55-.59Z"/><path class="cls-5" d="M232.49,236.85c0-.71.47-1.18,1.08-1.6,0,.22-.23.34-.4.48s-.33.38-.3.64c-.38.11-.12.36-.19.54Z"/><path class="cls-5" d="M232.68,236.91c.07-.18-.19-.43.19-.54.14,0,.23-.17.41-.16s.19,0,.19.16v.23h-.4l-.09-.13s-.09.05-.09.07.07.13.18.14c0,.18-.23.14-.3.23Z"/><path class="cls-5" d="M242.51,233.72v-.06c-.37,0-.53.46-1,.31a.92.92,0,0,1-.44,1.28h0c0,.12.07.29-.2.32a2.6,2.6,0,0,0-.4,1.44v1c0,.13,0,.28.2.3v-1.75c.26.1.18.22.2.31l.18-.16.21-.58a3.65,3.65,0,0,1,.37-1.22,1.64,1.64,0,0,1,.78-1A.18.18,0,0,1,242.51,233.72Z"/><path class="cls-5" d="M240.88,235.57a2.6,2.6,0,0,0-.4,1.44c-.65-.2-.32-.63-.39-1,.22-.09.17.19.32.11s.06-.17.07-.26v-.64c0-.17.05-.31.32-.32s.28.16.28.32h0C240.81,235.27,240.9,235.44,240.88,235.57Z"/><path class="cls-5" d="M239.91,236v-1.19A2,2,0,0,1,239.91,236Z"/><path class="cls-5" d="M241.68,243v.15c-.12.25-.74.41-.14.75a.93.93,0,0,1-.59,0c-.07-.12.11-.16.11-.26a.16.16,0,0,0-.09-.17c-.08,0-.21,0-.23,0-.23.56-.56.07-.83,0s-.25-.16-.43-.17v-.64c.08,0,.19,0,.18-.11-.09-.51.33-.47.74-.46a1.33,1.33,0,0,0,.2,0c.78,0,.78,0,.88.61C241.5,242.86,241.53,242.93,241.68,243Z"/><path class="cls-5" d="M233.28,239.5v-.08c.89-.42.89-.42,1.06-.92.23,0,0,.25.21.31s.31-.35.32.06a.19.19,0,0,0,.14.19c.5.15,0,.33,0,.4s-.29.1-.34-.1-.25-.13-.28-.07C234.11,239.76,233.62,239.37,233.28,239.5Z"/><path class="cls-5" d="M234.47,238.13c0-.25-.07-.51.45-.5.22,0,.14-.21.15-.33s0-.3.24-.27.16.17.16.28a.3.3,0,0,1-.09.26c-.15.15-.2.23.14.15s.3.19.35.35-.09.27-.24.31a.27.27,0,0,1-.34-.21c-.09-.34-.18-.55-.49-.09,0,0-.21,0-.32,0Z"/><path class="cls-5" d="M233.37,236.61h.14l0-.05v-.17l.72-.67c.05,0,0-.09,0-.14-.19-.28.05-.3.31-.31l0,.57h0l-.12.06c-.27.15-.33.42-.55.59S233.62,236.8,233.37,236.61Z"/><path class="cls-5" d="M236.08,236.21c.29.23.55.46.27.83-.17.22.13.52-.27.8v-1.63Z"/><path class="cls-5" d="M233.73,240.83c-.14-.36.07-.73-.22-1.05a2.79,2.79,0,0,1,.86,0c.1.11,0,.19-.08.19-.65,0-.35.38-.41.61S233.92,240.75,233.73,240.83Z"/><path class="cls-5" d="M241.08,240.62a.6.6,0,0,1-.21.08c-.14,0-.23.2-.34.08s-.07-.31,0-.46.17-.12.27,0,.11.23.3.24Z"/><path class="cls-5" d="M234.5,235.82l0-.57h.4c.13,0,.19.06.2.16Z"/><path class="cls-5" d="M240.68,237.65v-1.11c.26.1.18.22.2.31C240.77,237.11,241.1,237.44,240.68,237.65Z"/><path class="cls-5" d="M236.62,242.38c.27-.06.41-.23.6,0s.1.21,0,.24S236.87,242.49,236.62,242.38Z"/><path class="cls-5" d="M233.28,236.21c-.18,0-.27.12-.41.16,0-.26.2-.43.3-.64A.64.64,0,0,1,233.28,236.21Z"/><path class="cls-5" d="M236.59,236.33c-.11-.16-.2-.31,0-.42a.34.34,0,0,1,.18,0C236.84,236.09,236.58,236.16,236.59,236.33Z"/><path class="cls-5" d="M237.28,241.5v.59h-.15c0-.2-.23-.41.15-.58Z"/><path class="cls-5" d="M235.86,235.26c0-.24-.23-.15-.39-.18v-.15h.6c0,.14,0,.3-.22.33Z"/><path class="cls-5" d="M234.88,235.25h-.4c0-.12-.07-.3.17-.31S234.86,235.12,234.88,235.25Z"/><path class="cls-5" d="M239.86,241.31c.29.11.22.28.18.51C239.8,241.66,239.89,241.47,239.86,241.31Z"/><path class="cls-5" d="M240.36,241.05a.65.65,0,0,1,0,.67A.65.65,0,0,1,240.36,241.05Z"/><path class="cls-5" d="M236.37,231.23l.11-.16h.2c0,.14.07.31-.08.43S236.63,231.23,236.37,231.23Z"/><path class="cls-5" d="M238.28,236.37c0,.14.05.3-.1.47-.16-.17-.08-.33-.1-.47h.2Z"/><path class="cls-5" d="M235.48,234.93v.15c-.13,0-.31,0-.38-.11s0-.13,0-.14S235.33,235,235.48,234.93Z"/><path class="cls-5" d="M236.08,234.92c0-.09-.16-.19,0-.29a.13.13,0,0,1,.17,0c.07.13,0,.23-.16.26Z"/><path class="cls-5" d="M236.71,241.31c.21.18.18.28.09.4C236.6,241.62,236.71,241.5,236.71,241.31Z"/><path class="cls-5" d="M236.08,233c-.06,0-.14,0-.14-.07s.08-.07.14-.07.14,0,.14.07S236.15,233,236.08,233Z"/><path class="cls-5" d="M237.28,241.5c0-.08,0-.16.17-.14s.08.06.07.07-.15.06-.24.07Z"/><path class="cls-5" d="M235.4,234.52a.33.33,0,0,1,.12-.06c.07,0,.13,0,.1.09s-.07,0-.11,0Z"/><path class="cls-5" d="M236.08,236.21c-.08,0-.16,0-.15-.1s0,0,0,0,.1.06.12.12Z"/><path class="cls-5" d="M237,236.27s0,0,0,.06-.05,0-.08,0,0-.05,0-.06Z"/><path class="cls-5" d="M238.28,236.37c0-.06,0-.13.12-.12s0,0,0,0-.08.09-.15.1Z"/><path class="cls-5" d="M233.71,235.67s0-.06,0-.07l.08,0s0,.06,0,.06S233.74,235.68,233.71,235.67Z"/><path class="cls-5" d="M234.48,238.13c0,.06,0,.13-.12.12l0,0c0-.09.08-.09.15-.1Z"/><path class="cls-5" d="M238.08,240.06c0-.11.07-.16.2-.16h0c0,.1-.07.16-.2.16Z"/><path class="cls-5" d="M233.29,240.22v-.16c.07,0,.16,0,.15.09S233.34,240.2,233.29,240.22Z"/><path class="cls-5" d="M238.08,240.06c0,.06,0,.13-.12.12l0,0c0-.09.08-.09.15-.1Z"/><path class="cls-5" d="M238.08,240.78l0,.08c-.07,0-.18,0-.13-.11S238,240.73,238.08,240.78Z"/><path class="cls-5" d="M234.45,234.49a.07.07,0,0,1,0-.05c.08,0,.19,0,.13.11S234.49,234.54,234.45,234.49Z"/><path class="cls-5" d="M235.55,233.35s.07,0,.08,0,0,0,0,.07l-.08,0S235.54,233.37,235.55,233.35Z"/><path class="cls-5" d="M236.68,231.07s0-.12.12-.12l0,0c0,.09-.08.08-.15.1Z"/><path class="cls-5" d="M236.75,243s.07,0,.08,0,0,0,0,.06-.07,0-.08,0S236.74,243,236.75,243Z"/><path class="cls-5" d="M243.76,246.05c.16.17.15.35,0,.61A.59.59,0,0,1,243.76,246.05Z"/><path class="cls-5" d="M234.38,235.89l.12-.06s0,0,0,.06Z"/><path class="cls-5" d="M239.51,243.57l0-.22c.18,0,.3.16.43.17s.6.52.83,0c0-.06.15,0,.23,0a.16.16,0,0,1,.09.17c0,.1-.18.14-.11.26a.93.93,0,0,0,.59,0c-.6-.34,0-.5.14-.75a1.44,1.44,0,0,1,0,1,.62.62,0,0,1-.74.4,2.15,2.15,0,0,1-1.06-.41Z"/><path class="cls-5" d="M240.12,244s0,.05,0,.06.06,0,.09,0,0-.06,0-.07Z"/><path class="cls-5" d="M233.08,236.69c-.11,0-.21,0-.18-.14s.06,0,.09-.07l.09.13Z"/><path class="cls-5" d="M233.48,236.54l0,.05h0Z"/><path class="cls-5" d="M240.88,235.57c0-.13-.07-.3.2-.32C241.06,235.37,241.15,235.54,240.88,235.57Z"/><path class="cls-5" d="M240.12,244l.08,0s0,.05,0,.07-.07,0-.09,0S240.13,244,240.12,244Z"/><path class="cls-6" d="M327,337.62l-16.64,16.07a2.48,2.48,0,0,0-2.36,2.48v2.64h74v-2.64a2.49,2.49,0,0,0-2.36-2.48L363,337.62"/><rect class="cls-4" x="468.02" y="157.24" width="60.33" height="8.59" transform="translate(-11.68 41.89) rotate(-4.76)"/><rect class="cls-6" x="354.68" y="163.25" width="120.27" height="10.46" transform="translate(-12.55 34.99) rotate(-4.76)"/><polygon class="cls-6" points="346.06 224.24 244.23 224.24 244.16 234.24 234.25 234.24 234.25 214.52 346.06 214.52 346.06 224.24"/><path class="cls-4" d="M363,357.33V203.55a4.47,4.47,0,0,1,1.77-3.55l32.15-24.11a5.19,5.19,0,0,0,2.08-4.15V169a4.17,4.17,0,0,0-3.66-4.14l-64.6-8.08a3.32,3.32,0,0,0-3.74,3.3V357.33Z"/><path class="cls-4" d="M322,145.19V161.8a4,4,0,0,0,3.5,4l71.4,12.14a2.75,2.75,0,0,0,3.1-2.72v-6.87a4,4,0,0,0-1.61-3.21L368,142.1a3.52,3.52,0,0,0-2.3-.71l-41.87,1.86A1.94,1.94,0,0,0,322,145.19Z"/><polygon class="cls-6" points="323.89 237.61 322.33 237.61 322.39 228.21 321.33 228.2 321.33 226.58 324.89 226.58 324.89 228.2 324.06 228.23 323.89 237.61"/><polygon class="cls-6" points="338.78 237.61 337.22 237.61 337.28 228.21 336.22 228.2 336.22 226.58 339.78 226.58 339.78 228.2 338.95 228.23 338.78 237.61"/><polygon class="cls-6" points="354.26 237.61 352.7 237.61 352.76 228.21 351.7 228.2 351.7 226.58 355.26 226.58 355.26 228.2 354.43 228.23 354.26 237.61"/><polygon class="cls-6" points="368.06 237.61 366.49 237.61 366.56 228.21 365.49 228.2 365.49 226.58 369.06 226.58 369.06 228.2 368.23 228.23 368.06 237.61"/><rect class="cls-7" x="316.92" y="228.29" width="55.95" height="5.04"/><polygon class="cls-8" points="314.06 362.36 312.5 362.36 312.56 356.96 311.5 356.95 311.5 355.33 315.06 355.33 315.06 356.95 314.23 356.98 314.06 362.36"/><polygon class="cls-8" points="333.41 362.36 331.84 362.36 331.91 356.96 330.84 356.95 330.84 355.33 334.41 355.33 334.41 356.95 333.58 356.98 333.41 362.36"/><polygon class="cls-8" points="357.72 362.36 356.16 362.36 356.22 356.96 355.16 356.95 355.16 355.33 358.72 355.33 358.72 356.95 357.89 356.98 357.72 362.36"/><polygon class="cls-8" points="377.07 362.36 375.51 362.36 375.57 356.96 374.51 356.95 374.51 355.33 378.07 355.33 378.07 356.95 377.24 356.98 377.07 362.36"/><rect class="cls-7" x="280.58" y="356.81" width="129.24" height="6.52"/><polygon class="cls-9" points="326.98 166.04 394.65 177.58 389.71 181.29 326.98 170.33 326.98 166.04"/><rect class="cls-9" x="326.98" y="233.33" width="36" height="3.13"/><rect class="cls-10" x="236.53" y="234.24" width="5.75" height="67.82"/><polygon class="cls-11" points="355.56 363.25 355.56 453.33 333.56 453.33 333.56 363.27 355.56 363.25"/><rect class="cls-12" x="337.58" y="363.33" width="14.04" height="90"/><rect class="cls-13" x="337.58" y="363.33" width="14.04" height="90"/><path class="cls-14" d="M256.36,321.76c-2.67,1.77-6.43,1.72-9.89,2.17-.42.06-.86.07-1.29.1-1.72.07-3.45.16-5.17.22a129.39,129.39,0,0,1-21.33-1.12l-.37,0c-3-.44-5.32-1.43-6.73-3.13-1.77-1.93-2.86-4.12-5.83-5.61-.52-.25-1.07-.49-1.6-.73a1.81,1.81,0,0,0-1.71-.85c-2.46,0-5-.32-7.25.66-.87-.52-.61-1.31-1.36-1.88a2,2,0,0,1,1.61.18c.45.17,1,.18,1.16-.23s-.26-.52-.85-.55-1.31.12-1.8-.32c4.07-.07,8.13-.27,12.27,0,1-1.75,1-1.76,4.61-2.83.36-.1.78-.14.41-.43-.72-.58-.36-1.23-.35-1.84s-.41-1-1.53-.88h0c.12-.7-.41-1.15-1.48-1.34-.52-.09-1-.27-1.14-.51-.53-1.17-1.58-.79-2.67-.38l-1.4-.5a24,24,0,0,0-5.93-2.63,12.1,12.1,0,0,1-3.38-1.54c-.83-.59-1.13-1.23-.5-2a3.27,3.27,0,0,1,3-.74c1.4.17,2.75.46,4.13.67,2,.3,3.09-.14,3.35-1.39.22-1.08-.39-2.11-.72-3.16l1.47-.45c2.24,2.63,5.15,2,7.6.78a3.49,3.49,0,0,0,1.67-1.55,1.25,1.25,0,0,0,.12.08.34.34,0,0,0,.16,0c.49-.18-.15-.68.68-.8.6.36-.08,1,.77,1.46.3-.81.59-1.52-.11-2.09-.26-.21-1.25,0-1.66.42a14.54,14.54,0,0,0-2.8-3.14,10.18,10.18,0,0,1-2.49-2.87c-.85-1.73.67-3.18,3.2-3.11,3.49,1.61,5.53,3.66,5.33,6.4,0,.46-.25,1,.27,1.41s-.39.79,0,1.18a4.82,4.82,0,0,0,.58,2.75c.16.39.28.91,1.19.83s1-.61,1-1.06c0-.74-.19-1.48-.28-2.23s.35-1.17,1.46-1.37c1.32-.25,1.51.42,2,.89l0,.64v.45c-.26,1.34-.51,2.69-.77,4a3.86,3.86,0,0,0-.63,2.63c.18,1.47,1.61,2.29,3.87,2.29,1.67.14,2.19-1.33,4.08-.87-1-1.37-.18-2.91,1.64-3.58,0,.44-.11.94,1.07.89,1,0,1.19-.42,1.18-.92s0-1.19,0-1.78c0-.25-.19-.57.24-.73.58-.21.4.57,1.21.3-.25-.93,1-2.14-1.46-2.71,0-.92,0-1.83,0-2.75,0-.35.16-.77-.74-.84.55-1.29-1.34-2.89,1.39-3.91.18-.07.08-.43.1-.65s0-.59,0-.89.43-.46.85-.52c.73-.11.62.38.93.57.6.36-.08.35-.43.48-1,.35-.92,1.06-.16,1.21a20.18,20.18,0,0,0,4.87,0c-1.09-.61-2.21-.09-2.92-.59.29-.26.66-.68,1.07-.5,1.25.56,1.69.11,2-.54.69.22.33.85,1.23.81h0c-.52.66-.85,1.28.87,1.43.71.07.33.22.17.42a5.26,5.26,0,0,0-.93,4.92c.4,1.33-.56,1.37-2.1,1.36-1.84-.24-2.94.25-3.47,1.29-.23.45-.41.92-.62,1.39a4.17,4.17,0,0,0,0,3.32l.13.66c.94.73,3.57.71,4.22-.23.41-.59,2.24-.53,1.57-1.24-.51-.54-.15-.89.2-1.19.84-.7.67-1.47.7-2.24h0c1.93.64,3.08,2.09,5.95,1.86-1.07.85-.7,1.66-.71,2.42,0,1.62,1.46,2.22,4,1.63.7-.16,1.43-.28,2.15-.42-1.13,1.05-3.41,1.49-3.35,3-.88-.38-.17-.94-1.43-1.35,1,1.27-1.61,2.09-.16,3.25.07.06,0,.27,0,.28-1.45.17-.77.76-.59,1.19s-.4.88-.77,1.19-.42-.64-1.15-.29c-.45.52.35,1.23-.69,1.79a2.21,2.21,0,0,1-.18-.54c.1-1.5.23-1.45-2.64-1.44l-.93,0c-1.23-1.11-2-1.16-3.25-.1s-2.22,2.11-2.14,3.44a7,7,0,0,0,0,6.06,5.93,5.93,0,0,0,1.41,2.7c-.52.08-.94-.55-1.21-.25-.54.61.64,1,.84,1.56.65-.41.31-.81.48-1.15.47.16.67.65,1.24.59s.46-.54.58-.84c.64-1.62,1.26-3.24,1.89-4.86h1.47c1.12,0,2.25-.05,3.35,0s2.11.16,1.27,1.09a.61.61,0,0,0,.15,1c.47,0,.58-.95,1.35-.08,1.15,1.28,2.63-.38,4.05,0,.29.07.17-.65.27-1s-.34-1,.85-1c1.8,0,3.61-.35,5.38.3,1.26.46,2.07.07,2.22-.9s1.69-.26,2.43-.59c.18-.08,1.07.37.74.58-.76.5-1.24,1.29-2.35,1.44s-1.08.48-1.07.95h0c-1.17.25-1.39-.45-2.14-1a41,41,0,0,1-.07,6.39v.43h0c-.38.25-.69.53-.71.9h0ZM222.43,309a7.72,7.72,0,0,0-2-4.35,23.5,23.5,0,0,0-9.33-6.85,3.39,3.39,0,0,0-3.16-.21c-1,.6-.86,1.35-.19,2.07a10.8,10.8,0,0,0,3.46,2.31c2.44,1.12,4.7,2.33,6.09,4,.91,1.1,1.69,2.25,2.66,3.33.46.51.52,1.52,1.74,1.34C222.54,310.48,222.32,309.52,222.43,309Zm18.74,13.59v-.22h-11.4v.22Zm-42.26-11.11c-.44,0-.68.12-.7.39s.17.43.61.45.82-.12.8-.45S199.34,311.45,198.91,311.45Z"/><path class="cls-14" d="M242.19,311h-.72a3.4,3.4,0,0,1,.19-1,7.37,7.37,0,0,0,0-6.16l.93,0c2.87,0,2.74-.06,2.64,1.44a2.21,2.21,0,0,0,.18.54c1-.56.24-1.27.69-1.79.73-.35.65.7,1.15.29s1-.65.77-1.19-.86-1,.59-1.19c.05,0,.11-.22,0-.28-1.45-1.16,1.2-2,.16-3.25,1.26.41.55,1,1.43,1.35-.06-1.53,2.22-2,3.35-3-.72.14-1.45.26-2.15.42-2.5.59-4,0-4-1.63,0-.76-.36-1.57.71-2.42-2.87.23-4-1.22-5.95-1.86-.09-.41.2-.85-.38-1.32-.58.47-.28.91-.37,1.32-.27,0-.59,0-.56.27,0,0,.07.07.11.07.41,0,.4-.18.45-.34h.75c0,.77.14,1.54-.7,2.24-.35.3-.71.65-.2,1.19.67.71-1.16.65-1.57,1.24-.65.94-3.28,1-4.22.23.18,0,.46,0,.52,0a20.48,20.48,0,0,0,4.15-4.68c.39-.74.27-1.39-.71-1.93,1.54,0,2.5,0,2.1-1.36a5.26,5.26,0,0,1,.93-4.92c.16-.2.54-.35-.17-.42-1.72-.15-1.39-.77-.87-1.43.48,0,.73-.16.74-.45.27,0,.59,0,.56-.27,0,0-.07-.07-.12-.07-.4,0-.4.18-.44.34-.49,0-.74.15-.75.44-.9,0-.54-.59-1.23-.81-.3.65-.74,1.1-2,.54-.41-.18-.78.24-1.07.5.71.5,1.83,0,2.92.59a20.18,20.18,0,0,1-4.87,0c-.76-.15-.82-.86.16-1.21.35-.13,1-.12.43-.48-.31-.19-.2-.68-.93-.57-.42.06-.82.2-.85.52s0,.59,0,.89.08.58-.1.65c-2.73,1-.84,2.62-1.39,3.91v1.79c-1.57.59-.34,1.52-.75,2.25l-.68.45a28,28,0,0,0,.52-3.11c.13-2.3.74-4.62-.53-6.88l-.1-.58.1-.22c.7,0,.77.43,1.11.67s.84.28,1-.05.35-.95-.09-1.3-.74.26-1.26.23a2.83,2.83,0,0,0-.8.22l-.55-.7-.28-.87a2.3,2.3,0,0,0-.61-1.36l-.2-.89-.5-1.19-.17-1.05.1-.46c.53.05.67.25.73.54.37,1.71.38,1.71,3.27,1.71h.74c1.53.06,3.1.17,2.77-1.27,0-.19.36-.27.68-.3l.1.89,0,.68-.1.84a4,4,0,0,0-.53,2.52c0,1,.92,1.69,2.67,1.8,1.38.09,2.43-.2,2.72-1.11.12,0,.19-.1.2-.18l.22,0c.15.12.4.23.53.06s-.2-.26-.48-.3c0-1.21.84-2.37.65-3.59l.75-2a.16.16,0,0,0,.07-.17l.64-.51c.09,0,.13-.05.14-.1.28-.07.55-.14.59-.35.36-.39,1.08-.41,1.65-.58h.16l.1-.07.41-.07a4.76,4.76,0,0,1,2.19.55l.46.61c.1.55.25,1.1.3,1.65.17,1.56-1.13,2.86-2.19,4.2-.18.3-.84.43-.82.8-.36.12-.64.28-.68.55h0c-.74.68-1.5,1.36-2.23,2-2.62,2.44-2.08,4.95-.42,7.48a1.47,1.47,0,0,0,1.34.83,1.57,1.57,0,0,0,1.42-.77c.47-.64,1.21-1.21,1.42-1.92l6-7.18h0c.43-.31.89-.6,1.29-.92a3.77,3.77,0,0,1,3.11-.89l.71.43.72,1.8c-.18.06-.49.11-.51.19,0,.23.3.23.56.26a1.62,1.62,0,0,1,0,1.57c-1.28.35-3.11-.74-4.07.58-.13.17-.91.15-1-.18a.74.74,0,0,0-1.29-.28c-.21.19-2,.69-.11,1.1a.59.59,0,0,1,.53.55c0,1.15.76.27,1.18.15.65.18-.08.79.81.88.63-1.41.63-1.41,3.94-2.57.11.46-.27.86-.47,1.29-.53,1.2-2,2.14-2.62,3.31l0,0a29.18,29.18,0,0,0-5.84,5.44c-.41.49-.83,1-.63,1.58-1,.09-.79.54-.81.93-.78.08-.87.36-.59.73a.55.55,0,0,0,.63.09c.53-.26-.16-.54,0-.81h2.23c.54-.07.75.44,1.3.27.13,0,.19-.29.13-.41-.24-.45-.9-.27-1.42-.31s-1.44.18-1.44-.49a8.71,8.71,0,0,0,2.92-.43c0,.29.25.46.75.47.08.36-.24.9.84.86.91,0,.57-.54.66-.86h0c.94,0,1.86-.09,1.14-.89-.13-.14-.28-.26-.08-.4l2.67-1.86c0,.29.26.44.74.45a1.55,1.55,0,0,0,.37,1.35c-.61.4-1.43.71-1.48,1.34l-3.28,2.11c-.16-.14-.39-.35-.62-.15s.2.26.48.29c-2.77,2.88-5.5,5.77-7,9-1,0,.18-.79-.87-.79-.58.35-.17.81-.29,1.23-.27,0-.59,0-.56.27,0,0,.07.06.11.07.41,0,.4-.18.45-.34h.73c.34,1.29-.42,2.58,0,3.87a1.86,1.86,0,0,0,1.81,1.52,2.35,2.35,0,0,0,2.11-1.06c1.31-1.32,1.66-2.86,2.71-4.24.2.4,0,1,1.11.95.82-.07.44-.61.49-.95a3.31,3.31,0,0,1,.25-1.1c.27-.55.14-1-1-1.24a7.54,7.54,0,0,1,1.47-3.15c.11.26-.22.58.34.75a.52.52,0,0,0,.34-.16c.15-.34-.07-.55-.68-.59a7.28,7.28,0,0,1,2.08-3.08,2.48,2.48,0,0,1,2.61-.92c1.3.32,1.4,1.09,1.13,1.82a9.45,9.45,0,0,1-1.77,2.94c-1.23,1.45-2.56,2.88-3.64,4.37a4,4,0,0,0-.86,3.71c.51,1.41,1.93,1.69,3.73.78a12.23,12.23,0,0,0,3.37-2.65,15.66,15.66,0,0,1,4.51-3.66c.16.36-.23.81.53,1.12.32-.49.48-.9-.14-1.29a7.73,7.73,0,0,1,4.67-.67c2,.16,2.75.89,2.19,2.06-.67,1.41-2.23,2.46-3.9,3.46l-.39.22-2.91,1.27a1.06,1.06,0,0,0-.81.38h0a1.46,1.46,0,0,0-1,.49h0c-1,0-1.15.5-1.53.88l-.35.23c-.42.15-.72.35-.8.66l-.74.62c-1.65,1.49-2.18,3.28-3.66,4.81a41,41,0,0,0,.07-6.39c.75.52,1,1.22,2.14,1,.1.26-.22.6.5.81.29-.4.42-.7-.5-.81,0-.47,0-.8,1.07-.95s1.59-.94,2.35-1.44c.33-.21-.56-.66-.74-.58-.74.33-2.26-.48-2.43.59s-1,1.36-2.22.9c-1.77-.65-3.58-.32-5.38-.3-1.19,0-.74.63-.85,1s0,1.07-.27,1c-1.42-.37-2.9,1.29-4.05,0-.77-.87-.88.09-1.35.08a.61.61,0,0,1-.15-1c.84-.93-.29-1-1.27-1.09s-2.23,0-3.35,0v-1.34c.27,0,.35.38.67.17.17-.11.15-.41-.16-.49s-.46.14-.52.31C241.59,309.85,242.44,310.52,242.19,311Zm28.35-3.6c-.61,0-.82.26-.67.59a.58.58,0,0,0,.34.17c.55-.17.23-.5.33-.75.27,0,.58,0,.56-.27,0,0-.07-.07-.12-.07C270.57,307,270.58,307.21,270.54,307.37Zm2.23-2.69h-1.49c0-.17,0-.36-.45-.34,0,0-.11,0-.11.07,0,.24.29.24.56.27.1.33-.23.72.43,1.08l1.07-1.08c1.28-.32.63-.77.49-1.5C272.61,303.86,272.84,304.28,272.77,304.68Zm-27.6-27.88c1.42-.48.61-1.07.57-1.62l-.57,0v1.64c-.33,0-.75-.07-.92.2,0,0,.17.19.28.2C245,277.25,245.12,277,245.17,276.8Zm4.48,14.84c0,.16,0,.35.45.34,0,0,.11-.05.11-.07,0-.25-.29-.24-.56-.27v-4.57c-1.49.79-.39,1.63-1,2.25C247.57,290.34,248.55,291,249.65,291.64Zm-6,16.41c.85,0,.74.79,1.71.7.46,0,1.2.36,1.23-.25,0-.4.44-1.08-.68-1.08-1.65,0-1.52-.6-1.53-1.25a1.23,1.23,0,0,0-.52-1.36c-.35,1,.07,1.91-.95,2.57,0,.26,0,.52,0,.78s0,.45.37.43S243.63,308.25,243.68,308.05Zm11.93-21.81c-.41,0-1.09,0-1.21.14-1.16,1.31-1.48.71-1.83-.24a1,1,0,0,0-1.27-.6c-.54.12-1.06.45-.88.89s.53,1.09,1.29,1c1.28-.2,1.08,0,.53.43a.77.77,0,0,0-.35.73c0,.31-.18.75.62.8,1,.06.81-.41.87-.77s-.25-.94.59-.92c1.92,0,1.66-.71,1.65-1.42.27,0,.58,0,.56-.27,0,0-.07-.06-.12-.07C255.65,285.89,255.66,286.08,255.61,286.24Zm2.79-7.56c-.72.23-.47.52-.55.75-.23.66.89,1.76-1.55,1.72-.18,0-.67.24-.3.55a15.18,15.18,0,0,0,3.21-.06C258.12,280.74,258.92,279.69,258.4,278.68Zm7.94,28.68a2,2,0,0,0-.21,1.69c.06.34.57.34,1,.34s.93.06,1.07-.27,0-.43,0-.64C266.42,308.91,267,307.81,266.34,307.36Zm-18.7-33c-.95-.3-1.46-.72-2.23-.55-.41.09-.32.5,0,.69C246.08,275,246.63,274.52,247.64,274.35Zm5.86,35.46c.48.2.52.88,1.46.41.39-.2.93-.52.53-.73C254.77,309.12,254.24,309.76,253.5,309.81Zm-5.77-18.5c0,.46-.94.66-.73,1.13a1.23,1.23,0,0,0,.66,0C248.46,292.17,248.15,291.75,247.73,291.31Zm-12.19-14c-.11-.44.21-1-.65-1.42C234.72,276.54,234.45,277,235.54,277.34Zm-1.84.73a1.44,1.44,0,0,0-.18-1.87A1.44,1.44,0,0,0,233.7,278.07Zm24.4,23.54c-.24.73-.51,1.19.39,1.77C258.55,302.75,258.8,302.31,258.1,301.61Zm12.18,4.72c.14-.37.56-.77-.34-1.18C269.83,305.63,269.59,306,270.28,306.33Zm-23-29c0-.53.42-.87-.35-1.14C246.61,276.56,246.51,276.85,247.29,277.35Zm19.08,28.81c-.26.07-.31.21-.28.35s0,.34.39.29.32-.2.29-.35S266.73,306.14,266.37,306.16Zm-16.74-5.51c-.24,0-.52,0-.53.21s.29.2.53.2.53,0,.53-.2S249.87,300.66,249.63,300.65Zm24.79,4.14c.44-.37.77-.62.24-1C274.12,304.13,274.24,304.41,274.42,304.79Zm-5.79,1.63-.53.24c.09.07.16.19.28.21s.49,0,.47-.18S268.71,306.51,268.63,306.42Zm-16.44-10c-.19-.09-.3-.19-.43-.19s-.4,0-.43.1.12.26.38.25A2.2,2.2,0,0,0,252.19,296.38Zm-4.79,13.06c-.15-.06-.31-.17-.4-.15s-.26.14-.27.22.15.28.43.21C247.27,309.7,247.31,309.56,247.4,309.44Zm-1.34-18a1,1,0,0,0,.3.08c.08,0,.1-.12.15-.18a.8.8,0,0,0-.31-.07C246.13,291.32,246.11,291.41,246.06,291.47Zm23.59,17.42c-.1,0-.23-.09-.3-.07s-.1.12-.14.18a.76.76,0,0,0,.3.07C269.59,309.05,269.61,309,269.65,308.89Zm-11.19-15.73a.76.76,0,0,0-.3-.07c-.07,0-.1.11-.14.17a.76.76,0,0,0,.3.07C258.4,293.31,258.42,293.22,258.46,293.16Zm7.87,16.56-.13.18a.76.76,0,0,0,.3.07c.07,0,.1-.11.14-.17ZM257,303c-.1,0-.22-.09-.3-.07s-.1.12-.14.18a.76.76,0,0,0,.3.07C256.9,303.2,256.92,303.11,257,303Zm-5.35-3.39c0-.06.14-.14.11-.18s-.19-.06-.29-.09-.15.14-.12.18S251.5,299.62,251.61,299.65Zm-4.48-27c0-.06.15-.14.12-.18s-.19-.06-.3-.09-.14.14-.11.19S247,272.65,247.13,272.67Z"/><path class="cls-14" d="M196.66,278.61c3.32,2,4.41,4.66,5.22,7.36.23.76.5,1.53.76,2.3-.28.11-.17.18.07.23l0,.05,0,0c0,.58-.37.88-1.38.81a29.78,29.78,0,0,0-4.61-4.57,13.31,13.31,0,0,0-6.84-2.26c-2.73-.27-5.68-1.78-6.22-3.43-.38-1.2.94-2.32,3.24-2.73a13.86,13.86,0,0,1,7.07.85l2.7,1.35Zm2.22,5.86c0-.26-.16-.43-.62-.45s-.74.07-.78.34.14.51.7.51S198.86,284.74,198.88,284.47Zm-2.29-1.34c-.07-.26-.49-.35-.89-.39s-.48.16-.48.36.34.45.83.42C196.38,283.51,196.61,283.41,196.59,283.13Zm-1.93-.72c-1.18-.24-1.9-.36-2.65.12A5.3,5.3,0,0,0,194.66,282.41Z"/><path class="cls-14" d="M204.07,302.45c1.09-.41,2.14-.79,2.67.38.1.24.62.42,1.14.51,1.07.19,1.6.64,1.48,1.34a5.29,5.29,0,0,0-.83.12c0,.82.15,1.63.24,2.45l.59,0v-2.54c1.12-.09,1.54.18,1.53.88s-.37,1.26.35,1.84c.37.29-.05.33-.41.43-3.61,1.07-3.61,1.08-4.61,2.83-4.14-.28-8.2-.08-12.27,0,.49.44,1.19.29,1.8.32s1,.16.85.55-.71.4-1.16.23a2,2,0,0,0-1.61-.18c.75.57.49,1.36,1.36,1.88-.42.37.13.75,0,1.12-.92-.17-1.46.33-2.22.45-.55.05-1.31-.16-1.44.41,0,.19,0,.37.41.43.58.1,1,0,1-.39.91-.17,1.45.31,2.19.44l0,.47h0c-1.55.53-2.74,1.75-5,1l0,0c.17-.49-.38-.5-.93-.51l-.79-.49c-1-1.33-.58-2.66,0-4,1.29-1.59,3.63-2.29,6.31-2.7l1.07-.05,1.11.06c.46.62,1.36.6,2.25,0l4.85-.42c.13.43-.91.34-.92.8.82,0,1.79.37,2.28-.22s-.38-.59-1-.61c4.33-1.36,4.94-2.89,2-5h0C206,303.43,204.74,303.09,204.07,302.45Zm-11,10.23c-.08-.36,0-.77-.27-1.08a1.43,1.43,0,0,0-1.58-.54c-.78.24-.26.56,0,.91a1.77,1.77,0,0,1,0,2c-.09.18-.62.34,0,.5a1.2,1.2,0,0,0,1-.17A1.64,1.64,0,0,0,193,312.68ZM207.77,304a.16.16,0,0,0-.05-.09s-.09,0-.13,0a.16.16,0,0,0,0,.09S207.73,304.05,207.77,304Z"/><path class="cls-14" d="M195.17,314.57c.15-.37-.4-.75,0-1.12,2.22-1,4.79-.65,7.25-.66a1.81,1.81,0,0,1,1.71.85,17.59,17.59,0,0,0-5.81-.46c-2,.12-2.49.51-2.56,1.72,0,.51.09,1.06-.58,1.48,0-.15,0-.31,0-.47C195.16,315.47,195.16,315,195.17,314.57Z"/><path class="cls-14" d="M255.56,292.54a7.52,7.52,0,0,1,4.65-3.1,3.72,3.72,0,0,1,1.74.2c-.29.26-1.18.16-1.12.65a1.49,1.49,0,0,1,0,.21h-1.07c-.95-.53-1.3.13-1.72.37-.82.48-1,1.24-2,1.66Z"/><path class="cls-14" d="M201.33,289.4c1,.07,1.42-.23,1.38-.81a8.16,8.16,0,0,1,1.38,2.15l-1.47.45C201.79,290.7,201.75,290,201.33,289.4Z"/><path class="cls-14" d="M263,289.85c.09,2-1.75,3.3-4,4.48,0-.63.87-.94,1.48-1.34.4-.6,1.26-1.09,1.14-1.8,1.4-.3.46-1,.71-1.51Z"/><path class="cls-14" d="M262.31,289.68c-.25.5.69,1.21-.71,1.51-.53.12-.86.48-1.51.45-.48,0-.73-.16-.74-.45l0-.48a1.09,1.09,0,0,0,0-.18l.42,0h1.07l.34.36c.12-.06.33-.11.35-.18.09-.31-.29-.36-.67-.39-.06-.49.83-.39,1.12-.65Z"/><path class="cls-14" d="M190.21,317.36c2.26.77,3.45-.45,5-1-.9,1.57-2.31,2-4.79,1.3Z"/><path class="cls-14" d="M226,298.16c1.81-.63,2.27-1.77,2.89-2.84a8.5,8.5,0,0,0,1.4-3.41l.76-1.62.68-.45c.1.26-.22.6.75.87V285.8c.9.07.73.49.74.84,0,.92,0,1.83,0,2.75a6,6,0,0,1-1.49,4.05c-1,.07-.67.54-.74.9h0c-1.82.67-2.61,2.21-1.64,3.58-1.89-.46-2.41,1-4.08.87C225.61,298.62,226.06,298.5,226,298.16Z"/><path class="cls-14" d="M231.74,293.44a6,6,0,0,0,1.49-4.05c2.43.57,1.21,1.78,1.46,2.71-.81.27-.63-.51-1.21-.3-.43.16-.23.48-.24.73,0,.59,0,1.19,0,1.78s-.18.88-1.18.92c-1.18,0-1.06-.45-1.07-.89h0C232,294.26,231.67,293.79,231.74,293.44Z"/><path class="cls-14" d="M241.17,322.56h-11.4v-.22h11.4Z"/><path class="cls-14" d="M213.36,290l0-.9c.4-.39,1.39-.63,1.65-.42.7.57.41,1.28.11,2.09-.85-.47-.17-1.1-.77-1.46-.83.12-.19.62-.68.8a.34.34,0,0,1-.16,0A1.25,1.25,0,0,1,213.36,290Z"/><path class="cls-14" d="M237.65,315.92c.09,0,.13.09.11.16-.17.34.17.74-.48,1.15-.2-.6-1.38-1-.84-1.56C236.71,315.37,237.13,316,237.65,315.92Z"/><path class="cls-14" d="M198.91,311.45c.43,0,.69.12.71.39s-.28.47-.8.45-.62-.19-.61-.45S198.47,311.45,198.91,311.45Z"/><path class="cls-14" d="M235.37,292.11v3.32A4.17,4.17,0,0,1,235.37,292.11Z"/><path class="cls-14" d="M242.94,309.63V311h-.75c.25-.45-.6-1.12.74-1.35Z"/><path class="cls-14" d="M228.78,272.75l0-.44c.44-.67,2.74-1.15.51-2.09a4.59,4.59,0,0,1,2.2-.07c.25.33-.41.44-.4.71a.41.41,0,0,0,.34.47c.29.08.75.1.84-.07.84-1.57,2.1-.2,3.09-.12.49.05.94.45,1.59.49l.06,1.8c-.32,0-.73.11-.68.3.33,1.44-1.24,1.33-2.77,1.27h-.74c-2.89,0-2.9,0-3.27-1.71C229.45,273,229.31,272.8,228.78,272.75Z"/><path class="cls-14" d="M260.08,282.42l0,.23c-3.31,1.16-3.31,1.16-3.94,2.57-.89-.09-.16-.7-.81-.88-.42.12-1.15,1-1.18-.15a.59.59,0,0,0-.53-.55c-1.86-.41-.1-.91.11-1.1a.74.74,0,0,1,1.29.28c.12.33.9.35,1,.18C257,281.68,258.8,282.77,260.08,282.42Z"/><path class="cls-14" d="M255.62,286.24c0,.71.27,1.45-1.65,1.42-.84,0-.53.57-.59.92s.1.83-.87.77c-.8-.05-.59-.49-.62-.8a.77.77,0,0,1,.35-.73c.55-.42.75-.63-.53-.43-.76.13-1.12-.51-1.29-1s.34-.77.88-.89a1,1,0,0,1,1.27.6c.35.95.67,1.55,1.83.24.12-.14.8-.1,1.21-.14Z"/><path class="cls-14" d="M242.94,307.38c1-.66.6-1.57.95-2.57a1.23,1.23,0,0,1,.52,1.36c0,.65-.12,1.25,1.53,1.25,1.12,0,.71.68.68,1.08,0,.61-.77.21-1.23.25-1,.09-.86-.72-1.71-.7C243.68,307.73,243.7,307.39,242.94,307.38Z"/><path class="cls-14" d="M259.74,290.51l-.42,0-.12.05a.8.8,0,0,0,.13.13l0,.48-2.67,1.86c-.2.14-.05.26.08.4.72.8-.2.85-1.14.89l-.09-1.62h0l.48-.17c1-.42,1.21-1.18,2-1.66C258.44,290.64,258.79,290,259.74,290.51Z"/><path class="cls-14" d="M254.75,306.12a5.88,5.88,0,0,1,.88-2.34c1.11.19,1.24.69,1,1.24a3.31,3.31,0,0,0-.25,1.1c-.05.34.33.88-.49.95C254.77,307.16,255,306.52,254.75,306.12Z"/><path class="cls-14" d="M249.65,291.64c-1.1-.65-2.08-1.3-1-2.32.63-.62-.47-1.46,1-2.25v4.57Z"/><path class="cls-14" d="M258.4,278.68c.52,1-.28,2.06.81,3a15.18,15.18,0,0,1-3.21.06c-.37-.31.12-.55.3-.55,2.44,0,1.32-1.06,1.55-1.72C257.93,279.2,257.68,278.91,258.4,278.68Z"/><path class="cls-14" d="M266.34,307.36c.7.45.08,1.55,1.82,1.12,0,.21.12.44,0,.64s-.66.27-1.07.27-.94,0-1-.34A2,2,0,0,1,266.34,307.36Z"/><path class="cls-14" d="M231,279.27a2.83,2.83,0,0,1,.8-.22c.52,0,.86-.55,1.26-.23s.28.87.09,1.3-.61.32-1,.05-.41-.65-1.11-.67Z"/><path class="cls-14" d="M255.53,292.72l.09,1.62h-1.5c-.5,0-.73-.18-.75-.47Z"/><path class="cls-14" d="M232.49,287.59v3.12c-1-.27-.65-.61-.75-.87C232.15,289.11,230.92,288.18,232.49,287.59Z"/><path class="cls-14" d="M247.64,274.35c-1,.17-1.56.63-2.26.14-.29-.19-.38-.6,0-.69C246.18,273.63,246.69,274.05,247.64,274.35Z"/><path class="cls-14" d="M253.5,309.81c.74-.05,1.27-.69,2-.32.4.21-.14.53-.53.73C254,310.69,254,310,253.5,309.81Z"/><path class="cls-14" d="M260.09,291.64c.65,0,1-.33,1.51-.45.12.71-.74,1.2-1.14,1.8A1.55,1.55,0,0,1,260.09,291.64Z"/><path class="cls-14" d="M247.73,291.31c.42.44.73.86-.07,1.17a1.23,1.23,0,0,1-.66,0C246.79,292,247.76,291.77,247.73,291.31Z"/><path class="cls-14" d="M245.17,276.8v-1.64l.57,0c0,.55.85,1.14-.57,1.62Z"/><path class="cls-14" d="M250.45,294.3c0,.67.87.43,1.44.49v.45h-2.23c0-.39-.16-.84.81-.93Z"/><path class="cls-14" d="M254.12,294.34h1.5c-.09.32.25.82-.66.86C253.88,295.24,254.2,294.7,254.12,294.34Z"/><path class="cls-14" d="M235.54,277.34c-1.09-.3-.82-.8-.65-1.42C235.75,276.37,235.43,276.9,235.54,277.34Z"/><path class="cls-14" d="M271.28,304.68h1.5l-1.07,1.08c-.66-.36-.33-.75-.43-1.08Z"/><path class="cls-14" d="M233.7,278.07a1.43,1.43,0,0,1-.18-1.87A1.43,1.43,0,0,1,233.7,278.07Z"/><path class="cls-14" d="M258.1,301.61c.7.7.45,1.14.39,1.77C257.59,302.8,257.86,302.34,258.1,301.61Z"/><path class="cls-14" d="M248.57,305.59l-.43.44h-.73c.12-.42-.29-.88.29-1.23C248.75,304.8,247.58,305.59,248.57,305.59Z"/><path class="cls-14" d="M241.44,291.19c.09-.41-.21-.85.37-1.32.58.47.29.91.38,1.32h-.75Z"/><path class="cls-14" d="M251.88,295.24v-.45c.52,0,1.18-.14,1.42.31.06.12,0,.37-.13.41C252.63,295.68,252.42,295.17,251.88,295.24Z"/><path class="cls-14" d="M272.77,304.68c.07-.4-.16-.82.5-1.5.14.73.79,1.18-.49,1.5Z"/><path class="cls-14" d="M242.94,307.38c.76,0,.74.35.74.67s.12.51-.37.54-.35-.26-.37-.43S242.94,307.64,242.94,307.38Z"/><path class="cls-14" d="M270.28,306.33c-.69-.33-.45-.7-.34-1.18C270.84,305.56,270.42,306,270.28,306.33Z"/><path class="cls-14" d="M268.26,303.94l.39-.17c.62.39.46.8.14,1.29C268,304.75,268.42,304.3,268.26,303.94Z"/><path class="cls-14" d="M249.65,295.24c-.12.27.57.55,0,.81a.55.55,0,0,1-.63-.09c-.28-.37-.19-.65.59-.73Z"/><path class="cls-14" d="M247.29,277.35c-.78-.5-.68-.79-.35-1.14C247.71,276.48,247.29,276.82,247.29,277.35Z"/><path class="cls-14" d="M266.37,306.16c.36,0,.37.15.4.29s0,.31-.29.35-.36-.15-.39-.29S266.11,306.23,266.37,306.16Z"/><path class="cls-14" d="M249.63,300.65c.24,0,.53,0,.53.21s-.29.2-.53.2-.53,0-.53-.2S249.39,300.66,249.63,300.65Z"/><path class="cls-14" d="M257.1,300.63c.61,0,.83.25.68.59a.52.52,0,0,1-.34.16c-.56-.17-.23-.49-.34-.75Z"/><path class="cls-14" d="M261.58,312.77c.92.11.79.41.5.81-.72-.21-.4-.55-.5-.81Z"/><path class="cls-14" d="M274.42,304.79c-.18-.38-.3-.66.24-1C275.19,304.17,274.86,304.42,274.42,304.79Z"/><path class="cls-14" d="M270.54,307.38c-.1.25.22.58-.33.75a.58.58,0,0,1-.34-.17c-.15-.33.06-.55.67-.59Z"/><path class="cls-14" d="M245.17,276.8c0,.23-.14.45-.64.4-.11,0-.3-.16-.28-.2.17-.27.59-.17.92-.2Z"/><path class="cls-14" d="M268.63,306.42c.08.09.21.18.22.27s-.25.22-.47.18-.19-.14-.28-.21Z"/><path class="cls-14" d="M252.19,296.38a2.2,2.2,0,0,1-.48.16c-.26,0-.47-.08-.38-.25s.29-.11.43-.1S252,296.29,252.19,296.38Z"/><path class="cls-14" d="M247.4,309.44c-.09.12-.13.26-.24.28-.28.07-.44-.06-.43-.21s.15-.19.27-.22S247.25,309.38,247.4,309.44Z"/><path class="cls-14" d="M242.93,309.62c.06-.17.1-.42.52-.31s.33.38.16.49c-.32.21-.4-.16-.67-.17Z"/><path class="cls-14" d="M249.65,291.64c.27,0,.59,0,.56.27,0,0-.07.07-.11.07-.41,0-.4-.18-.45-.34Z"/><path class="cls-14" d="M246.06,291.47c.05-.06.07-.15.14-.17a.8.8,0,0,1,.31.07c0,.06-.07.16-.15.18A1,1,0,0,1,246.06,291.47Z"/><path class="cls-14" d="M269.65,308.89c0,.06-.06.16-.14.18a.76.76,0,0,1-.3-.07c0-.06.07-.16.14-.18S269.55,308.87,269.65,308.89Z"/><path class="cls-14" d="M241.44,291.19c-.05.16,0,.35-.45.34,0,0-.11,0-.11-.07,0-.25.29-.24.56-.27Z"/><path class="cls-14" d="M271.28,304.68c-.27,0-.59,0-.56-.27,0,0,.07-.07.11-.07.41,0,.4.17.45.34Z"/><path class="cls-14" d="M258.46,293.16c0,.06-.06.15-.14.17a.76.76,0,0,1-.3-.07c0-.06.07-.16.14-.17A.76.76,0,0,1,258.46,293.16Z"/><path class="cls-14" d="M255.61,286.24c0-.16,0-.35.45-.34.05,0,.12.05.12.07,0,.25-.29.24-.56.27Z"/><path class="cls-14" d="M266.33,309.72l.31.08c0,.06-.07.16-.14.17a.76.76,0,0,1-.3-.07Z"/><path class="cls-14" d="M242.19,280.85c0,.29-.26.44-.74.45h0c0-.29.26-.44.75-.44Z"/><path class="cls-14" d="M260,280.4l.05.45c-.26,0-.61,0-.56-.26C259.54,280.51,259.85,280.46,260,280.4Z"/><path class="cls-14" d="M257,303c-.05.07-.07.16-.15.18a.76.76,0,0,1-.3-.07c0-.06.07-.16.14-.18S256.86,303,257,303Z"/><path class="cls-14" d="M242.19,280.85c0-.16,0-.36.44-.34.05,0,.12,0,.12.07,0,.24-.29.24-.56.27Z"/><path class="cls-14" d="M270.54,307.37c0-.16,0-.35.44-.33,0,0,.12,0,.12.07,0,.24-.29.24-.56.27Z"/><path class="cls-14" d="M242.2,278.84l.05-.24c.28,0,.67.06.48.3S242.35,279,242.2,278.84Z"/><path class="cls-14" d="M255.7,296.44c0,.07,0,.11-.14.14-.28,0-.7-.09-.48-.29S255.54,296.3,255.7,296.44Z"/><path class="cls-14" d="M251.61,299.65c-.11,0-.27,0-.3-.09s.07-.12.12-.18.26,0,.29.09S251.65,299.59,251.61,299.65Z"/><path class="cls-14" d="M247.41,306c0,.16,0,.35-.45.34,0,0-.11-.05-.11-.07,0-.25.29-.24.56-.27Z"/><path class="cls-14" d="M247.13,272.67c-.1,0-.26,0-.29-.08s.07-.12.11-.19.27,0,.3.09S247.17,272.61,247.13,272.67Z"/><path class="cls-14" d="M270.16,295a4.62,4.62,0,0,1,2.17-1.83,7.22,7.22,0,0,0,1.58-.27,11,11,0,0,1,5.35-.82c.54,0,1.55-.22,1.46.3s-.3,1-1.53,1.07c-.66,0-2-.32-1.81.47s1.41.3,2.17.4.87-.25,1.22-.53a2.9,2.9,0,0,1,2.79-.21c.64.36,1.06,1.19-.34,1.65-.08-.37.26-.9-.87-.88-.36,0-.42.11-.37.36.1.52.56.58,1.24.52-.57,1.16-2.05.22-3,.47h0c0-.36-.17-.67-.68-.85-1.95-.67-5.74.41-6.27,1.78l0-.06,0,.06-1.2-.05a1.76,1.76,0,0,0-1.49-.9C270.51,295.44,270.59,295.18,270.16,295Zm1.17.05a11.27,11.27,0,0,0,4.83-1.2c.19-.22.07-.35-.17-.48s-.61-.41-.9-.17C274.15,294,272.36,294.22,271.33,295.06Zm6.94-2.43-.14.19a.8.8,0,0,0,.31.07c.07,0,.09-.12.14-.18Z"/><path class="cls-14" d="M283.22,295.24c1.4-.46,1-1.29.34-1.65a2.9,2.9,0,0,0-2.79.21c-.35.28-.55.61-1.22.53s-2,.33-2.17-.4,1.15-.46,1.81-.47c1.23,0,1.47-.68,1.53-1.07s-.92-.26-1.46-.3a11,11,0,0,0-5.35.82,7.22,7.22,0,0,1-1.58.27c2.07-1.48,6.23-2.15,9.08-1.46,3,.73,4.29,2.89,2.54,4.4-1.37.26-2.79.7-3.75-.41,1-.25,2.45.69,3-.47Z"/><path class="cls-14" d="M270.16,295c.43.17.35.43.38.68h0a1.32,1.32,0,0,0-1,.42c-.88.95-1,2.08-1.85,3-.22.24.32.34.72.21,1.87-.61,3.23-1.47,3.65-2.78h0l1.2.05-5,4.68a1.52,1.52,0,0,1-1.21.43c-.44,0-.67-.26-.63-.48A9,9,0,0,1,270.16,295Z"/><path class="cls-14" d="M273.24,296.64c.53-1.37,4.32-2.45,6.27-1.78.51.18.71.49.68.85-3-.94-3.94-.81-6.37.85Z"/><path class="cls-14" d="M202.71,288.5c-.24-.05-.35-.12-.07-.23Z"/><path class="cls-14" d="M198.88,284.47c0,.27-.26.4-.7.4s-.76-.21-.7-.51.37-.36.78-.34S198.89,284.21,198.88,284.47Z"/><path class="cls-14" d="M196.59,283.13c0,.28-.21.38-.54.39-.49,0-.81-.09-.83-.42s.12-.39.48-.36S196.52,282.87,196.59,283.13Z"/><path class="cls-14" d="M194.66,282.41a5.3,5.3,0,0,1-2.65.12C192.76,282.05,193.48,282.17,194.66,282.41Z"/><path class="cls-14" d="M198.84,306.74c-.57.87-1.38-.07-2,.1l-1.7-.79c.58-.09,1.45.16,1.58-.47C197.83,305.67,198,306.4,198.84,306.74Z"/><path class="cls-14" d="M193,312.68a1.64,1.64,0,0,1-.84,1.66,1.2,1.2,0,0,1-1,.17c-.59-.16-.06-.32,0-.5a1.77,1.77,0,0,0,0-2c-.27-.35-.79-.67,0-.91a1.43,1.43,0,0,1,1.58.54C193,311.91,192.94,312.32,193,312.68Z"/><path class="cls-14" d="M209.36,304.68v2.54l-.59,0c-.09-.82-.2-1.63-.24-2.45a5.29,5.29,0,0,1,.83-.12Z"/><path class="cls-14" d="M195.17,314.57c0,.45,0,.9,0,1.34-.74-.13-1.28-.61-2.19-.44,0-.15,0-.3,0-.45C193.71,314.9,194.25,314.4,195.17,314.57Z"/><path class="cls-14" d="M204.14,309.19a.57.57,0,0,1,.32,0c.66,0,1.47.1,1,.61s-1.46.25-2.28.22C203.23,309.53,204.27,309.62,204.14,309.19Z"/><path class="cls-14" d="M193,315c0,.15,0,.3,0,.45-.09.38-.46.49-1,.39-.37-.06-.46-.24-.41-.43C191.64,314.86,192.4,315.07,193,315Z"/><path class="cls-14" d="M197,309.65l2.25,0C198.4,310.25,197.5,310.27,197,309.65Z"/><path class="cls-14" d="M190.23,317.32a1,1,0,0,1-.93-.51C189.85,316.82,190.4,316.83,190.23,317.32Z"/><path class="cls-14" d="M207.77,304s-.12,0-.13,0a.16.16,0,0,1,0-.09s.12,0,.13,0A.16.16,0,0,1,207.77,304Z"/><path class="cls-14" d="M256,292.54l-.48.17c-.06-.06,0-.12.05-.17Z"/><path class="cls-14" d="M236.85,271l.06.62c-.65,0-1.1-.44-1.59-.49-1-.08-2.25-1.45-3.09.12-.09.17-.55.15-.84.07a.41.41,0,0,1-.34-.47c0-.27.65-.38.4-.71a4.59,4.59,0,0,0-2.2.07c2.23.94-.07,1.42-.51,2.09a3,3,0,0,1,.11-2.74c.32-.84,1.32-1.22,2.76-1.12a9.89,9.89,0,0,1,3.92,1.15Zm-2.26-1.12c0-.06-.06-.16-.13-.18a1,1,0,0,0-.31.07c0,.06.06.16.13.18A.84.84,0,0,0,234.59,269.89Z"/><path class="cls-14" d="M260.83,290.29c.38,0,.76.08.67.39,0,.07-.23.12-.35.18l-.34-.36A1.49,1.49,0,0,0,260.83,290.29Z"/><path class="cls-14" d="M259.33,290.71a.8.8,0,0,1-.13-.13l.12-.05A1.09,1.09,0,0,1,259.33,290.71Z"/><path class="cls-14" d="M231.74,293.44c-.07.35.26.82-.74.9C231.07,294,230.75,293.51,231.74,293.44Z"/><path class="cls-14" d="M271.33,295.06c1-.84,2.82-1,3.76-1.85.29-.24.65,0,.9.17s.36.26.17.48A11.27,11.27,0,0,1,271.33,295.06Z"/><path class="cls-14" d="M283.22,295.24c-.68.06-1.14,0-1.24-.52-.05-.25,0-.35.37-.36,1.13,0,.79.51.87.88Z"/><path class="cls-14" d="M270.54,295.69a1.76,1.76,0,0,1,1.49.9h0c-1.15.1-1.65-.2-1.49-.9Z"/><path class="cls-14" d="M278.27,292.63l.31.08c-.05.06-.07.16-.14.18a.8.8,0,0,1-.31-.07Z"/><path class="cls-14" d="M270.54,295.68c-.16.7.34,1,1.49.9-.42,1.31-1.78,2.17-3.65,2.78-.4.13-.94,0-.72-.21.86-1,1-2.1,1.85-3A1.32,1.32,0,0,1,270.54,295.68Z"/><path class="cls-14" d="M234.59,269.89a.84.84,0,0,1-.31.07c-.07,0-.09-.12-.13-.18a1,1,0,0,1,.31-.07C234.53,269.73,234.55,269.83,234.59,269.89Z"/><path class="cls-15" d="M271.07,348l-1.24,12.33a3.9,3.9,0,0,1-3.88,3.51H188.31a3.91,3.91,0,0,1-3.89-3.51l-1.31-13.13"/><path class="cls-16" d="M272.52,346.65l4.83-48.07H176.91l4.75,47.3a1.5,1.5,0,0,0,1.47,1.35L271,348A1.49,1.49,0,0,0,272.52,346.65Z"/><rect class="cls-17" x="173.53" y="295.77" width="106.07" height="4.22" rx="1.25"/></g><g id="_LAYER-18_P17_" data-name="&lt;LAYER-18_P17&gt;"><polygon class="cls-18" points="493.28 236.12 496.19 235.52 496.99 236.97 493.83 239.6 493.28 238.24 493.28 236.12"/><path class="cls-19" d="M498.15,231l1.7-1.77,1.67-1.72a13.78,13.78,0,0,0,4.75-6.36,25,25,0,0,0,.59-6.6,15.61,15.61,0,0,0-3.38-10,15.26,15.26,0,0,1-1.26-1.62c-.22-.37-.22-.88-.88-.59-.11,0-.36-.14-.5-.26a8,8,0,0,0-3.92-2c-.9-.19-1.77-.53-2.61-.79-1.1.72-3.34-.19-4.49.05.06.09.12.14.12.19s0,.2-.06.19a8.64,8.64,0,0,0-4.58.86c-1.67.63-3.41,1.09-5.07,1.75a16.53,16.53,0,0,0-3.06,2.39,14.58,14.58,0,0,0-2.48,3.5c-1.44,2.58-2.48,5.15-1.8,8.17a21,21,0,0,1,.28,2.51,2.68,2.68,0,0,1-1.23,2.6c-.3.22-.62.42-.9.66a1.39,1.39,0,0,0-.05,2.39,1.09,1.09,0,0,1,.15,1.74c-.67.7-.42,1.22,0,1.85.18.26.34.72.22.94-.66,1.23-.58,1.08.62,1.77.29.17.42.29.39.62-.08,1-.34,1.9,0,2.62.79,1.49,5.27,1.77,5.3,1.77h0l1.56-.06,1.37-.1h0a4.79,4.79,0,0,1,.49,1.08,7.66,7.66,0,0,1-.07,2.83A11.7,11.7,0,0,1,479.3,242c-.88.73-1.58.28-3,3.46-.07.15-.35.79-.24.85s1.16,6.24,2.25,5.43c.53-.39,1.32-3.81,1.71-4,1.53-.71,1.47-2.9,5.14-4.48,2.8-1.21,4.21.23,5.78-1,1-.75,3.44-2.78,3.44-2.78l-.51-3.76a4.54,4.54,0,0,1,.2-2.06c.13-.29.35-.57,1.47-1.27A22.62,22.62,0,0,1,498.15,231Z"/><path class="cls-20" d="M452.5,273.46c-.41.21-1.64.31-1.74.93a2.45,2.45,0,0,1-.1.89c-.15.34-.32.33-.43.61-.16.43.15.61.1,1.12-.07.66-.64.81-.55,1.21s.7.38.8.82-.26.5-.19.89.34.31.64.72c.45.63.18,1.16.59,1.41.17.11.37.09.77.05a3.77,3.77,0,0,0,1.17-.3,8.88,8.88,0,0,0,1.75-1.13,12.59,12.59,0,0,0,1.86-1.72,6.94,6.94,0,0,0,1.57-2.8,1.69,1.69,0,0,0-1.19-2.18C454.29,273.14,453.73,272.86,452.5,273.46Z"/><path class="cls-21" d="M466.1,261.17c-2.32.91-3.62,2.62-5.23,4.73-2.5,3.29-4.27,7.41-6.34,8a3,3,0,0,0-1.24.62,2.84,2.84,0,0,0-1,2,2.59,2.59,0,0,0,.75,2,2.8,2.8,0,0,0,2.11.49,3.76,3.76,0,0,0,2.24-.62c.79-.57.68-1.11,1.74-2.61a14.63,14.63,0,0,1,1.12-1.37c1.54-1.57,2.85-1.46,4.48-2.61a10.35,10.35,0,0,0,2.36-2.73c3.8-5.05,6.51-6,6.09-7.21S469,260,466.1,261.17Z"/><path class="cls-22" d="M483.72,298c-.71,1.34-.81,4.18-1,9.84a7.78,7.78,0,0,1-.28,2c-.27.92,1.71,5.64,1.51,6.36-.15.57-.13-.22,0,1.49.24,3.22.26,5.72.44,6.3.32,1.05.77,2.28,1,3.29a5.44,5.44,0,0,1,0,2.31c-.24,1.29,0,8.84.58,19.47,0,0,0-.91.43,6.85v1.12a6.59,6.59,0,0,1-1.06.53,24.53,24.53,0,0,1-3.93.9c-3.16.59-3.19,2.13-5.43,2.33-.36,0-1,.17-2.32.44-1,.2-1.35.3-1.45.57s.37,1,.87,1.31a2.72,2.72,0,0,0,1.74.29,150.12,150.12,0,0,1,15.76.15c1.74.1,2.81,0,3.65-.86s.49-2.45.43-2.75a10.43,10.43,0,0,0-1-2.47c-.52-1.39-.23-1.59,0-2.9.5-2.86-.14-1.38.58-8,.56-5,.8-4.69,1-8,.23-3.53.34-7.54-.15-9.19a16.34,16.34,0,0,1-.72-4.74,14.49,14.49,0,0,1,1-4.45c1.5-2.91,1.25-7.81,2-9.88,1.71-5,1.52-6.49,1.52-8.36,0-3.5-.87-5.92-1.09-6.08C493.27,292.59,485.62,294.41,483.72,298Z"/><path class="cls-23" d="M475.85,242.84c-.44-.3-.86.38-3.38.86a3.24,3.24,0,0,0-1.73.61,3,3,0,0,0-.86,1.61,6.88,6.88,0,0,0-.13,2.71c.33,2.18-.77,4.37-1.72,6.28-1.67,3.34-4,4.81-3.39,6.35a5.45,5.45,0,0,0,.68,1.11,7,7,0,0,0,1.72,1.54,7.73,7.73,0,0,0,2.53,1.29,3.5,3.5,0,0,0,1.72.19c1.31-.36,1.83-2.6,2.28-5.67.79-5.35.28-5.86.87-9.18C475.21,246.14,476.74,243.42,475.85,242.84Z"/><path class="cls-24" d="M473.34,301c-.78,1.49-.89,4.62-1.12,10.88a8.55,8.55,0,0,1-.32,2.24c-.29,1-.58,1.28-.8,2.08a8,8,0,0,0,0,2.88c.27,3.55.28,3.83.48,4.47.36,1.17.86,1.28,1.12,2.4a5.93,5.93,0,0,1,0,2.56c-.27,1.42,0,7.29.64,19,0,0,0-.9.48,7.68v1.12a3.5,3.5,0,0,1-1.44,1.16,21,21,0,0,1-4,1.12c-3.49.65-4.56,1.42-7,1.64a5.79,5.79,0,0,0-2.1.08c-1.09.23-1,1.26-1.09,1.56-.16.46.41,1.11,1,1.44a3,3,0,0,0,1.92.32,156.05,156.05,0,0,1,17.26,0c1.92.1,3.41.46,4.33-.5a2.42,2.42,0,0,0,.48-2.34c-.24-1.32-.85-1.71-1.28-2.87a7.56,7.56,0,0,1,0-4.32c.55-3.15-.16-1.52.64-8.8.61-5.57.88-5.19,1.12-8.79.25-3.91.38-5.86-.16-7.68a10.27,10.27,0,0,1-.8-4,8.65,8.65,0,0,1,1.12-3.68,55.72,55.72,0,0,1,4.63-7.19c2.78-4,4.16-5.94,4.16-8,0-3.87-3.44-6.54-3.68-6.71C483.89,295,475.44,297,473.34,301Z"/><path class="cls-25" d="M473.31,246.83c-.89.28-.91,1.85-1.46,6.15-.65,5-.8,4.19-1.27,8.51-.41,3.74-.23,3.74-.63,7.24s-.87,6-1.18,7.79c-1,5.32-1.29,5.47-1.63,8.52-.46,4,.16,3.43-.27,7.52-.32,3-1.12,7.83.09,9.32a4.68,4.68,0,0,0,1.45,1.18,3.76,3.76,0,0,0,1.17.36c1.78.29,4.79,2.76,6.16,3.81a23.18,23.18,0,0,0,6.16,3.71A19.73,19.73,0,0,0,489,312c2.65,0,4.47.07,6.61-.91a13.23,13.23,0,0,0,4.25-3.26c1.69-1.8,1.07-2,2.81-3.8a3.09,3.09,0,0,0,1.09-1.9,2.78,2.78,0,0,0-.54-1.63c-.77-1.28-.4-2.5-.1-5.62.37-3.72,0-3.19.37-7.43.24-2.52.53-4.33.63-5,.9-5.9,1.92-12.57-.36-18.11-2.68-6.51-7.6-5.86-16.39-13.77-1-.89-3.64-4.27-5.53-3.47-.08,0-2.34-3.27-2.36-2.87-.14,3.05-.81,6.79-1.4,6.78-.17,0,0-.39-.33-1.35a15.31,15.31,0,0,0-1.36-3.66C475.71,244.82,474.25,246.53,473.31,246.83Z"/><path class="cls-26" d="M478.42,243.48a3.67,3.67,0,0,1,.88-1.53c.34-.46.42.1,1.83-2.46.08-.15-1.32.26-1.58.31l-.78.38a14.92,14.92,0,0,1-2.5,1.61c-1,.32-1.65.6-2,1.55a34,34,0,0,0-1,3.49,1.89,1.89,0,0,0,.09.89c.09.35.13.22.33.79,0,.06,0,.12.08.12s.14-.46.29-.94.34-1.1.65-1.19,1.06.59,1.35.94a10,10,0,0,1,1,1.54,20.4,20.4,0,0,0,.87,1.93,9.06,9.06,0,0,0-.19-1.58A16.55,16.55,0,0,1,478.42,243.48Z"/><path class="cls-27" d="M486.66,296.12c-.56-.19-3,2.71-3.4,3.64a1.45,1.45,0,0,0-.13.45c-.15,1,1.11,2.58,1.65,2.55s.47-2.17.63-3C485.44,299.64,487.23,296.32,486.66,296.12Z"/><path class="cls-28" d="M484.93,303.89c-.29-.44-.18-.78,0-2.3,0,0,.44-3.88,1-4.83l.11-.17c.84-1.29,1.37-1.06,3.31-2.8a22.66,22.66,0,0,0,4-4.85c1.19-1.82.69-1.49,2.43-4.49,2.06-3.57,4.26-7.06,4.26-7.06a6.37,6.37,0,0,0,.89-1.62c.7-2.33-1-3.63-.52-5.73a5.28,5.28,0,0,1,2.43-3c.33-.22,3.3-2.22,5.29-.95a4,4,0,0,1,1.48,2.13,7,7,0,0,1,.27,2.59c0,3.61.23,3.24.08,4.55a14.13,14.13,0,0,1-1.14,4.14c-.42,1-1,2-4.06,5.52-2.88,3.31-5.2,5.62-6.17,6.58s-2.22,1.57-3.33,3.16a9.18,9.18,0,0,0-1.54,3.25,11.26,11.26,0,0,0-.1,3.24c0,1.23-.09,1-.05,2,0,.68.1,1-.12,1.38a1.23,1.23,0,0,1-1.06.62c-.39-.06-.41-.42-.83-.49s-.54.27-1,.24-.53-.44-1-.48-.82.57-1.28.45-.39-.58-.76-.62-.39.23-.72.34A1.81,1.81,0,0,1,484.93,303.89Z"/><path class="cls-29" d="M487,261.72a23.74,23.74,0,0,0,2,3.93,53.22,53.22,0,0,0,3.6,4.32c1.95,2.22,2.53,2.76,2.64,3.84.06.5,0,1.19.48,1.53.13.09.53.33,1.6,0a7.14,7.14,0,0,0,2.65-1.69,31.59,31.59,0,0,1,3.52-2.8,6.12,6.12,0,0,1,2.72-1.28c.61-.05.81.08,3.37.56,1.54.29,2,.35,2.24.08s0-.68-.4-1.6a19,19,0,0,0-1.52-2.8c-.95-1.36-1.06-3.18-1.29-6.81-.2-3.3.21-3.49-.24-5.6a15.4,15.4,0,0,0-1.6-4.33,17.73,17.73,0,0,0-2.56-3.36,14.83,14.83,0,0,0-3.76-3.44,11,11,0,0,0-2.65-1.12c-3.71-1-7,.84-11.61,3.44-1.85,1-2.71,1.71-3.12,2.8s-.13,2.17.48,4.16C486,259.3,486.58,260.69,487,261.72Z"/><path class="cls-30" d="M479.45,244.28c.18-.34.79-.35.91-.36,2-.09,15.61-6.2,15.87-7.63,0-.19-.83-.42-2.35-.31l2.35-.65a4.2,4.2,0,0,1,1.92,0,1.2,1.2,0,0,1,.56.42,2.65,2.65,0,0,1,.11,1.42,27.58,27.58,0,0,0,.19,3.27c0,.46,0,1.76-.43,1a.6.6,0,0,1,.08.33c-.06,1-3.28,2.27-3.28,2.27-4.94,1.8-7.93,2.44-10.58,3.55,0,0-4.63,3.75-5.55,3.32a.73.73,0,0,1-.41-.4.61.61,0,0,1,0-.41c.41-1,.51-1.82.68-2.26a4.38,4.38,0,0,0,.1-2.67C479.5,244.89,479.32,244.54,479.45,244.28Z"/><path class="cls-31" d="M491,222.87c2.38.31,4.1,1.79,4.18,3.24.12,2-3,3.3-4.66,3.61-.72.14-2.47.48-3.42-.57a2.41,2.41,0,0,1-.57-1.43Z"/></g><g id="_LAYER-18_P16_" data-name="&lt;LAYER-18_P16&gt;"><path class="cls-32" d="M532.17,153.59c-.09,1.42-4.61,2.72-6,2.47-3.34-.61-3.76-1.38-4.45,0-.28.56-1.22,3.55-2,5-.27.51.66.9,0,1.69-.93,1.2-4.47-1.2-6-3-.76-.89.08-5.14,1.05-6.8.53-.91,1.71-1.12,3.13-2.22s2.6,0,10.17-2.52Z"/><path class="cls-33" d="M558.4,3.05c.9-1.54,8.66-3.39,11.57-3,3.65.49,7.72.05,9.94,3,1.77,2.36,1.69,4,4,6.16,1.5,1.38-.42,3.32,1.23,4.87,1.79,1.71,1.36,5.68.46,6.8-.25.31-1.07,1-5.13-.07a35.2,35.2,0,0,1-14.32-7.71C563,10.37,557.11,5.26,558.4,3.05Z"/><path class="cls-32" d="M573.1,351.29c.76-3.19,2.68-4.31,4.78-7,2.52-3.17,2.86-8.42,5.6-18.41a77.52,77.52,0,0,0,2.66-19c.16-9.37-1.42-12,1-15.77,2.93-4.56,5.76-17.21,7-17.48,1-.2,13.06-14.35,17-9.91a10,10,0,0,1,2.23,5.57c1.42,8.91-3,25.38-4.3,30.55-.31,1.19-2.49,5.69-5.09,11.69-2.22,5.13-2.58,8.69-4.26,12.72-2.41,5.78-4.2,18.07-4.09,23.59.07,3.6,1.43,7.17,1.45,10.77,0,.6,0,2.74-.75,3.6-1.35,1.53-3.77,1.1-5.71,1.11-3.06,0-8,.07-8.67,0-4.72-.48-5,1.15-6.92,0C572.1,361.57,572.25,354.81,573.1,351.29Z"/><path class="cls-34" d="M541.92,45.39c-.53,0-.52.94-1.59,1.59a4.35,4.35,0,0,1-1.47.52c-.35.06-.6,0-.6.06a15.76,15.76,0,0,0,2.52-.29c1.16-.23,1.87-.38,2-.81A1,1,0,0,0,541.92,45.39Z"/><path class="cls-35" d="M582,193.91a96.82,96.82,0,0,0,.28,10.94c.85,10.48,2.3,19.85,2.66,22.16,4.94,32,7.41,48,6.71,51.12,0,.16-.19.77.11,1.06,1,1,5.5-2.43,7.79-3.77a22.11,22.11,0,0,1,19.85-1.25,10.81,10.81,0,0,1,1.83,1.2c.64.56.75.85.94.81.56-.13.06-2.88.5-6a20.08,20.08,0,0,1,1.26-4.53c1.93-5.39,1.8-7.07,5.78-20.1,2.89-9.49,2.69-7.69,3.26-10.3,1.66-7.48.74-10.29,1.76-18.6,1.12-9.05,2.6-8.78,2.95-14.2.11-1.72.73-14.24-7.65-23.73-9.21-10.42-26.6-14.18-37.39-7.27-1.53,1-7.6,5.16-9.69,12.37C582.2,186.35,582.13,188.87,582,193.91Z"/><path class="cls-36" d="M599.25,294.17c.93,4.66,0,8.38-1.3,13.55a78.28,78.28,0,0,1-4.08,11.69c-2.23,5.14-2.59,4.69-4.27,8.73-2.41,5.77-5.19,15.06-5.09,20.59.08,3.59.44,7.17.45,10.76,0,.6,0,2.74-.74,3.6-1.36,1.53-35.26,0-38.43.24a20.29,20.29,0,0,0-6-1,6.36,6.36,0,0,1-3.69-.92,3.07,3.07,0,0,1-1.47-2.06,2.33,2.33,0,0,1,.59-1.92c.9-.77,2.15.09,4.27,0a9.54,9.54,0,0,0,3.54-1c4-1.63,6.71-2,11.74-2.25a13.44,13.44,0,0,0,4.83-1.29c3.07-1.09,4.57-4.11,6.19-7.67,3.2-7,4.8-15.46,5.6-18.41a77.45,77.45,0,0,0,2.66-19c.16-9.38-1.42-12,1-15.78,2.93-4.55,8.32-5.72,9.55-6,.94-.21,8.5-1.84,12.43,2.59C598.46,290.23,598.81,292,599.25,294.17Z"/><path class="cls-37" d="M644,178.46c.46,1.3,1.17,12.33-2,20.91-2,5.46-7.1,7.52-10.15,14.94-3.93,9.57-4.19,13.31-7.27,22.53-3.88,11.62-7.67,25.93-14,38.16a75.42,75.42,0,0,0-6.57,16.75c-.79,3.05-1.24,5.59-1.49,7.21l-7.63,1.74c-10.64,2.29-21.15,0-28.2.59-1.76.14-3.54.16-5.3.42-1.95.29-2.38.51-2.75.22-1.35-1.08,1.63-6.14,3.39-11.45,2-6,1.12-8.31,1.91-16.11.67-6.62,2.07-11.55,4.87-21.42a251.84,251.84,0,0,1,9.33-26.71c3.08-7.46,5.61-15.14,8.48-22.69a30.58,30.58,0,0,0,1.91-7.63c.41-3.51-.74-5.29-.42-9.75a27.28,27.28,0,0,1,.79-5C591.63,171.21,630,159,640.6,172A22.09,22.09,0,0,1,644,178.46Z"/><path class="cls-32" d="M559.45,127.1c-3.6.15-3.8,2.45-11.51,8.12-6,4.44-7.31,4.73-13.37,9a25.07,25.07,0,0,1-6,3.62c-2.46.83-4.37,2.37-6.64,3.32-4.43,1.86-5.17,1.06-5.15,2.67a2.21,2.21,0,0,0,1.27,1.7c1.59.81,3.68-.48,5-1.19,3-1.61,6.64-1.78,9.92-2.8,9.75-3,12.48-3.1,17.22-4.74,10.78-3.74,15.83-10.3,18.56-11.36a1.65,1.65,0,0,0,.94-.77c.42-.92-.55-2.2-.94-2.71C567.74,130.59,564.09,126.92,559.45,127.1Z"/><path class="cls-38" d="M551.22,14.6c-.65-2.29.79-4.65,3.29-8.75,2.23-3.66,3.64-4,4.42-4a3.18,3.18,0,0,1,1.8.63c3.31,2.23,6.84,6.14,7.94,7.25,5.36,5.43,12.91,5,15.93,9.68a12.39,12.39,0,0,1,.81,1.53,12.12,12.12,0,0,1,.66,6.76c-.4,2.49-1.8,7.14-3.71,7.18-1.18,0-1.94-1.72-2.85-3.2-2.67-4.29-7-6.32-15.6-10.38S552,17.42,551.22,14.6Z"/><path class="cls-39" d="M539.63,31.9a5.69,5.69,0,0,0-1,3,12,12,0,0,0,.13,3.9,13.59,13.59,0,0,0,1.72,4.73,7.11,7.11,0,0,1,1,2.07,4.66,4.66,0,0,1,.13,2.09,5.17,5.17,0,0,1-.61,1.54c-.4.79-.58.91-1.33,2.17a4.63,4.63,0,0,0-.75,1.66,1.78,1.78,0,0,0,.13,1.3,1.6,1.6,0,0,0,.83.61,16.2,16.2,0,0,0,1.8.32c.58.14.71.26.79.38a.88.88,0,0,1,0,1c-.2.19-.42,0-.84.3a.85.85,0,0,0-.37.38.81.81,0,0,0-.05.52,1.56,1.56,0,0,0,.31.71,2.24,2.24,0,0,0,.34.38,2.49,2.49,0,0,0,.35.25c.26.13.41.11.43.19s-.14.14-.31.36a1,1,0,0,0-.25.51.92.92,0,0,0,.16.61,2.89,2.89,0,0,0,.54.56,2.1,2.1,0,0,0,.58.42,1.66,1.66,0,0,0,.59.07c.26,0,.35-.1.54-.05a.68.68,0,0,1,.33.18,2.13,2.13,0,0,1,.55.76,12.46,12.46,0,0,0,.91,2,3.61,3.61,0,0,0,1.11,1,5.38,5.38,0,0,0,2,.76,6.4,6.4,0,0,0,4.18-1.09A16,16,0,0,0,556,63.78a3.38,3.38,0,0,1,1.78-1,2.54,2.54,0,0,1,1,.1c2.81.85,5.49,4.72,5.49,4.72,1.77,2.55.72,4.09.79,6,.1,2.77-2.71,13.46-2.2,14.1,1,1.28,10.19-9.86,14-14.21,2.32-2.64,5.15-8.73,3.88-10.56-.26-.38-.53-.47-1.24-1.39a9.57,9.57,0,0,1-1.75-3c-.43-1.27-3.43-4.33-3.42-5.06a11.92,11.92,0,0,1,.58-3.51c1.08-3.7,3.63-.56,3.7-1.34.36-3.69-4.1-8-7.83-10.72-5.66-4.16-10.69-5.55-16.65-7.19,0,0-6.69-1.84-11.88-.36A4.87,4.87,0,0,0,539.63,31.9Z"/><path class="cls-40" d="M565,74.27c-3.12,8.9-5.22,18.3-5.6,23.16-.41,5.18-.17,9.66-2.28,16.23-.89,2.8-1.46,3.64-1.67,5.92a17,17,0,0,0,5,13.66c2.14,2,4,2.37,5.62,3.18,0,0,16.11,7.9,13.8,56.14,0,1.16,0,2.33,0,3.49-.06,1.92-.19,2.91.31,3.18s1.24-.28,1.66-.6c3.63-2.75,4.37-6.32,7.14-8,1.18-.74,2.32-.89,5.31-.91,6.79-.07,10.19-.1,15.32.91,14.84,2.9,35.83-6.37,35.77-12,0-1.88-2.35-3.12-2.38-6.95,0-1.49.32-2.65-.4-4.18-.5-1-1-1.21-1.79-2.78a7.82,7.82,0,0,1-1-2.78c-.23-1.85.62-2.28.2-3.57-.23-.71-.49-.58-2-2.39a16,16,0,0,1-2-2.78,12.91,12.91,0,0,1-1-2.38c-1.05-3.32-3.57-.09-5.76-4.33-1.14-2.22-2.5-1.55-4.78-7.15-2-5-3.58-2.62-6.16-8.72a99.93,99.93,0,0,1-4.18-14.14c-.66-3.52-2.27-5.08-4-8.74-.7-1.49-2.43-6.48-2.79-7-5.81-8.14-7.95-22.57-15.06-30.35a11.27,11.27,0,0,0-2-1.79c-3.42-2.42-6.84-5.41-10.64-6.75-.4-.14,1.76,1.29,1,2.31-9.49,13.77-11.34,11.59-14.24,17.24-1.09,2.12-2.42,5-2.73,4.85s.46-1.92.61-4.55C564.55,79.56,565.3,75.44,565,74.27Z"/><path class="cls-41" d="M597.21,107.85c0,15.07,7.78,31.32-1.1,31.32S572.28,127.05,572.28,112s-4.52-25.2,11.59-27.87C592.63,82.66,597.21,92.79,597.21,107.85Z"/><path class="cls-42" d="M571.07,141.45c10.89,15.79,9.08,45.91,8.84,51.11-.06,1.16,0,2.33,0,3.49-.06,1.92-.19,2.91.3,3.18s1.25-.28,1.67-.6c3.62-2.75,4.37-6.32,7.13-8,1.18-.74,2.32-.89,5.31-.91,5-.05,6.13-1.08,9.48-.7,1.87.22,2.4.39,3.84.61,8.77,1.32,18.52.23,18.64-1.25.05-.56-1.32-1.1-2-1.37,0,0-4.25-1.53-16.31-9.85-1-.68-11.12-7.85-15.6-19.84-.61-1.63-1.59-4.62-3.56-9.32-3.65-8.72-5.56-11-7.46-11-.43,0-.41.23-2,.84a25.6,25.6,0,0,1-3.44,1c-3,.67-4.21.45-4.72,1.37A1.42,1.42,0,0,0,571.07,141.45Z"/><path class="cls-43" d="M570.93,129.14c-.59-5.89.7-13.74,1.12-16.29.83-5,.34-5,.22-8.2-.09-2.48-.56-3.41-.7-7.31-.11-3-.16-4.53.42-6.32a11.45,11.45,0,0,1,3.65-5.48c3.58-2.87,7.86-2.39,9.13-2.25a10.47,10.47,0,0,1,8,5.06,9.2,9.2,0,0,1,1,3c.69,3.52.44,4.75-.13,8.27a77.42,77.42,0,0,0-.7,10.84c-.08,5.47.49,5.86.28,10.11a58.73,58.73,0,0,1-1.54,10c-1.36,6.52-2.1,7.19-3.23,12.78-.46,2.23-1.54,4.34-1.69,6.6A3.65,3.65,0,0,1,586,152a3.92,3.92,0,0,1-2.53,1.26c-22,3.39-23.6,3.38-23.6,3.38-9.14-.1-26.84-1.21-29.67-.63a26.07,26.07,0,0,1-4.29.06c-.69-.13.13-.3-.53-.81s1-.28.49-1.29a4,4,0,0,1-.56-2.53c0-.25-.83-.14-.16-.83a4.13,4.13,0,0,1,2.95-1c2.74-.11,3.56-.09,6.45-.39,2.5-.26,5.51-1,7.48-1.31,3.35-.54,4.19-1.21,9.13-2.81,0,0,10.27-3.34,15.59-5.76a23.8,23.8,0,0,0,3.66-1.66C571.54,137,571,130.16,570.93,129.14Z"/><path class="cls-44" d="M530.06,155.27c.12,1.06-3.35,1.92-3.73,4-.28,1.46.27,1.24-1.68,2.93-.21.18-1.1.93-1.31,1.09-.67.5-1.7.59-2,.22s0-.56.2-1c.34-.89,1.45-2.37,1.44-4,0-2.33,0-3.49.44-3.89C524.65,153.52,529.9,153.91,530.06,155.27Z"/><path class="cls-45" d="M530.69,155.21c-.1,1.42-4.62,2.71-6,2.46-3.34-.61-3.75-1.38-4.45,0-.28.56-1.22,3.55-2,5-.27.51.66.89,0,1.69-.93,1.2-4.46-1.21-6-3-.76-.9.08-5.15,1.05-6.81.53-.9,1.71-1.12,3.13-2.22s2.6,0,10.18-2.52Z"/><circle class="cls-6" cx="519.04" cy="159.16" r="4.52"/><path class="cls-46" d="M539,28.53c2.43-4.61,5.14-9.06,7.38-13.77a5.39,5.39,0,0,1,1.82-2.24,4.74,4.74,0,0,1,1.7-.73,7.52,7.52,0,0,1,3.93.18c6.39,1.91,22.93,13.43,29.21,16.4.84.4,3.47,1.56,4.47,4.12a8.13,8.13,0,0,1,.44,2.44,14.78,14.78,0,0,1-.63,6.07,15.16,15.16,0,0,1-3,5c-2,2.43-3.72,4.63-6.2,5.16s-4.66-1-8.47-3.52c-5-3.35-10.24-6.59-13-8-10.28-5.52-18.57-4.53-19.06-8.08C537.61,31.05,537.76,30.89,539,28.53Z"/><path class="cls-47" d="M559.21,44.18c2.16-1.5,4.63-1.55,5.76-.44,1.58,1.57-.05,4.9-1.14,6.35-.49.63-1.67,2.19-3.2,2a2.66,2.66,0,0,1-1.51-.75Z"/></g><g id="_LAYER-18_P15_" data-name="&lt;LAYER-18_P15&gt;"><path class="cls-48" d="M689.84,309.84a36.18,36.18,0,0,1-4.82.79,5.33,5.33,0,0,1-2.64-.95c-.82-.49-1.48-1.06-2.56-.59-.77.33-1.31-.25-1.41-1.44-2.42.18-1.83-1.82-2.1-3.15-2.45.13-3.07-.77-2.07-2.91a2.72,2.72,0,0,0-.4-3.37c-1.1-1.15-2-2.5-3.12-3.59a6.46,6.46,0,0,1-1.87-6.06c.54-3.31,1.18-6.67,3.22-9.46s3.84-5.71,6.82-7.6a15.56,15.56,0,0,1,9.87-2.44c5.19.41,8.86,3.08,11.67,7.1,2,2.91,3.41,6.16,2.9,9.87a34.84,34.84,0,0,0-.71,3.58c-.07,2.27.07,4.55.12,7a14.07,14.07,0,0,1,3.5,1,19.24,19.24,0,0,1,2.74,2.55,4.17,4.17,0,0,0,1.71,1.12,5.33,5.33,0,0,1,3.71,3.35,2,2,0,0,1-.24,1.58,10.1,10.1,0,0,1-1.7,2.1,126.52,126.52,0,0,1-15.58,13.1,34.39,34.39,0,0,1-5.2,2.66c-1.44.65-2.33.08-3-1.43-1.12-2.61-.84-5.32-.74-8a8,8,0,0,0,.09-1,3.62,3.62,0,0,1,1.68-3.62C689.84,309.92,689.9,309.77,689.84,309.84Z"/><path class="cls-49" d="M748.59,404.35a16.49,16.49,0,0,1,2.22,3.06,7.73,7.73,0,0,0,2.75,3.33c1.08.62,1.79.53,2.82,1.4a2.41,2.41,0,0,1,1.13,2.1c-.11,1.33-1.48,2-3,3.15-2.86,2.11-6.16,4.77-8.8,7l-1.25,1.06-1.59,1c-1.92.75-3.41,1.37-4.05,1.71a2.91,2.91,0,0,1-1.91.36c-.64-.12-1.39-.54-1.4-1,0-.32-.46-1.25.49-1.84a6,6,0,0,1,1.94-.8,22.16,22.16,0,0,0,3.84-2.53l.28-.4c.42-.61.93-1.29,1.6-2.09a20.71,20.71,0,0,0,2.37-3.41,3.43,3.43,0,0,0,.37-1.81l-.71-.87c-1.83-2-1.08-4.31-1.87-5.14"/><path class="cls-50" d="M741.33,411.13c.68.93-.34,3.15,1.24,5.34l.61.94a3.42,3.42,0,0,1-.59,1.75,20.49,20.49,0,0,1-2.75,3.11c-.77.72-1.35,1.33-1.84,1.88a24.51,24.51,0,0,1-4.91.75,6.25,6.25,0,0,0-2.1-.15c-1.11.1-1.12,1.13-1.27,1.42s.28,1.15.79,1.54a3,3,0,0,0,1.87.54c.73,0,2.33.1,4.39.3l1.87-.18,1.32-.43,1.37-.91c2.88-1.88,6.48-4.12,9.56-5.89,1.67-.95,3.11-1.46,3.38-2.76a2.42,2.42,0,0,0-.87-2.22c-.92-1-1.64-1-2.63-1.73a7.68,7.68,0,0,1-2.34-3.63,16.83,16.83,0,0,0-1.84-3.31"/><path class="cls-51" d="M725,363.12c-1.77,3.82,3,6.18,6.09,16.71,1.52,5.19,1.66,9.07,4.94,12.25a22.31,22.31,0,0,1,2.75,2.89,21.39,21.39,0,0,1,3.41,6.7,41.07,41.07,0,0,1,1.67,9.63s.08.78.43,4.6h0a19,19,0,0,0,3.55,0,9.64,9.64,0,0,0,4.35-1.88c.67-.5,2.83,0,3.6-1.26.26-.45-.16-1.3,0-2.63.26-1.85-.59-4.63-1.58-6.95-1.45-3.4-2.17-5.09-2.56-6.1a28.46,28.46,0,0,1-2.11-7.87,34.66,34.66,0,0,1,.14-5.64c.28-4.21.65-5.4.91-8.76a60.3,60.3,0,0,0,.12-7.89c-.34-6.33-.51-9.5-2.29-11-3.66-3.14-11.39.44-17.4,3.21C727.51,360.7,725.73,361.55,725,363.12Z"/><polygon class="cls-52" points="702.74 296.58 704.73 294.83 706.44 295.95 704.53 300.62 703.14 299.46 702.74 296.58"/><path class="cls-53" d="M721.71,366.31c-1.77,3.82,3,6.18,6.09,16.72,1.51,5.18,1.66,9.06,4.94,12.24a22.39,22.39,0,0,1,2.74,2.89,21.24,21.24,0,0,1,3.42,6.7,41.69,41.69,0,0,1,1.67,9.63s.08.79.43,4.61h0a19.28,19.28,0,0,0,3.54-.06,9.64,9.64,0,0,0,4.36-1.88,8.28,8.28,0,0,0,2.37-2.47,7.4,7.4,0,0,0,1-2.8c.27-1.85-.35-3.24-1.34-5.57-1.45-3.39-2.17-5.09-2.56-6.1a28.82,28.82,0,0,1-2.12-7.87,35,35,0,0,1,.15-5.64c.28-4.21.64-5.4.9-8.76a61,61,0,0,0,.13-7.88c-.34-6.34-.52-9.5-2.29-11-3.66-3.13-11.4.44-17.41,3.21C724.21,363.89,722.44,364.74,721.71,366.31Z"/><path class="cls-54" d="M678.8,363.33a7.5,7.5,0,0,1,.77-.65,7.07,7.07,0,0,1,1.77-.94c2.51-.89,4.74-2.42,7.12-3.61a93.81,93.81,0,0,0,10.89-6.2c2.84-1.91,8.36-5.63,7.66-7.47-.19-.51-.79-.72-1.87-1.1a8.29,8.29,0,0,0-4.87-.27c-.29,1.33-3.63,4.35-5.23,5.64a143.59,143.59,0,0,1-13.43,9.76,23.21,23.21,0,0,1-3.81,1.91,15.58,15.58,0,0,1-4.28,1,41.19,41.19,0,0,1-5.08,1s-1.55.13-2.84.18c-.13,0-.25.16-.55.29a.38.38,0,0,0-.19.11c-.11.12-.16.35-.05.44a.29.29,0,0,0,.28,0"/><path class="cls-55" d="M681.55,358.35a6,6,0,0,0-1.26,2.18c0,.06-.08,1.11-.12,1.15s.89,1.64,1.06,1.65c.35,0,.38,0,.39,0h8.62a6.38,6.38,0,0,1,.9-.77,8,8,0,0,1,2.09-1.1c2.94-1,5.56-2.85,8.35-4.24.95-.47,2.22-1.1,3.71-1.89l-3.91-5.28c-5.82,4.79-8.53,7.24-8.53,7.24a14.27,14.27,0,0,1-3.78,2.59c-.44.21-.7-1.74-.91-1.77s-.35-.25-.62-.27-.44.32-.87.39-.54-.29-1.07-.28-.48.27-.93.26-.49-.25-.88-.23-.48.34-.9.34-.6-.33-1-.23C681.84,358.11,681.8,358.14,681.55,358.35Z"/><path class="cls-56" d="M688.27,315.88c-.53.09-.37.88-1.89,2.94a3.37,3.37,0,0,0-.84,1.63,3,3,0,0,0,.46,1.76,6.7,6.7,0,0,0,1.76,2.07c1.72,1.37,5.89,6.16,6.5,8.21,1.06,3.58,2.69,8.33,4.17,9.05.31.15.18,1.95.6,2,.89.15,2.57,1.31,3.3,1.21.91-.14,3.55,1,4.51.48.62-.33-1.65-3.12-1.38-3.56.71-1.15-5.57-9.35-7.34-11.91-3.07-4.44-3.79-4.47-5.63-7.3C690.06,318.74,689.31,315.7,688.27,315.88Z"/><path class="cls-57" d="M737.33,367.34a16.44,16.44,0,0,0,2.67-.85,19.67,19.67,0,0,0,5.91-4c2-1.78,4.48-2.19,5.37-4.36s4.49-6.77,4.49-7.95c0-2.47,1.07-1.55-.15-3.9-.28-.55-6-5.34-6.5-6a2.81,2.81,0,0,0-1.51-.82c-1.43-.41-2-1.56-3.9-4.05-2.27-3-2.2-2.3-4.8-5.67-1.55-2-2.57-3.54-2.93-4.08-3.37-4.93-12-19.15-17.42-21.64-6.4-2.93-4.76,9.54-16.58,9.75-1.34,0-5.57-.64-6.41,1.23,0,.09-3.94-.79-3.68-.49,2,2.33,4,5.53,3.59,5.92-.12.11-.28-.27-1.15-.76a15.35,15.35,0,0,0-3.5-1.75c-1.31-.46-1.21,1.79-1.7,2.65s.6,2,3.13,5.49c3,4.13,2.28,3.61,4.88,7.09,2.25,3,2.38,2.9,4.48,5.73s3.48,5,4.45,6.5c2.92,4.54,2.78,4.88,4.61,7.34,2.42,3.26,5.29,7,7.76,10.27,1.79,2.38,1.57,7,3.47,7.27a10.6,10.6,0,0,0,2.85-.3,3.9,3.9,0,0,0,1.11-.54c1.49-1,5.38-1.24,7.1-1.41l-.56-5.58Z"/><path class="cls-58" d="M690.59,314.6a3.75,3.75,0,0,1-.41-1.72c0-.56.39-.21-.33-3,0-.17-1.25,1.06-1.4,1.28l-.31.81c-.27.74.06,1.86-.28,2.91a2.44,2.44,0,0,0-.39,2.48,33.79,33.79,0,0,0,1.66,3.22,1.91,1.91,0,0,0,.68.59c.3.19.24.07.78.35,0,0,.11.06.14,0s-.21-.44-.43-.9-.5-1-.34-1.31,1.18-.29,1.64-.23a9.73,9.73,0,0,1,1.76.46,19.65,19.65,0,0,0,2,.82,10.5,10.5,0,0,0-1.22-1A16.4,16.4,0,0,1,690.59,314.6Z"/><path class="cls-59" d="M727,325.89a9.56,9.56,0,0,0-.53-1l-.34-.53c-.94-1.36-1-3.17-1.27-6.8-.2-3.31.32-2.94-.12-5.05a21.27,21.27,0,0,0-1.7-4.89,18.43,18.43,0,0,0-2.55-3.37,15.07,15.07,0,0,0-3.76-3.45,10.88,10.88,0,0,0-2.64-1.12c-3.71-1-7,.83-11.62,3.41-1.85,1-2.71,1.71-3.13,2.8a13.37,13.37,0,0,0-.32,6.55c2.38,7.75,3,7.16,3.48,8.19.83,1.88,2,2.44,2.73,3.53a54.14,54.14,0,0,0,3.59,4.33c1.44,1.64,1.55,1.56,1.78,2.06.82,1.8.17,3.78-.52,5.78a19.53,19.53,0,0,1-1.91,4,22.11,22.11,0,0,1-5.75,6.45,15.63,15.63,0,0,0-2.94,2.45c-.74.83-.68,1-1.5,1.82-1.15,1.19-1.91,1.56-1.84,2.14,0,.36.39.5,1.08,1a14,14,0,0,1,2.6,2.27,13.55,13.55,0,0,1,1.76,2.67h0l2.45,1.39h0l2-1.09a22.83,22.83,0,0,0,4.55-3.68c4.92-4.79,6.35-3.4,8.31-6.63,1.1-1.81,1.46-3.59,3.45-4.76,1-.58,1.47-.47,2.14-1.15,1.14-1.16.71-2.45,1.16-5.26.39-2.39.79-2,1.6-5.72a14.87,14.87,0,0,0,.19-4.84A6.37,6.37,0,0,0,727,325.89Z"/><path class="cls-60" d="M691.6,314c0-.47.65-.84.78-.92,2.13-1.26,13.38-15.71,12.85-17.41-.07-.24-.9-.07-2.49.93l1.93-2a5,5,0,0,1,2.06-1.14,1.41,1.41,0,0,1,.85.13c.49.28.66.91.94,1.47a33.68,33.68,0,0,0,2.09,3.45c.32.48,1,1.92.11,1.34a.8.8,0,0,1,.29.32c.51,1.14-2.27,4.36-2.27,4.36-4.33,4.79-7.21,7.21-9.45,9.94,0,0-2.87,6.74-4.12,6.79a1,1,0,0,1-.68-.19.86.86,0,0,1-.2-.47c-.15-1.36-.49-2.27-.55-2.84a5.47,5.47,0,0,0-1.43-3C692,314.62,691.61,314.34,691.6,314Z"/><path class="cls-61" d="M690.76,289.42c1.84-1.46,4-1.66,5.11-.73,1.5,1.31.24,4.37-.65,5.73-.39.59-1.35,2.05-2.73,2a2.32,2.32,0,0,1-1.38-.57Z"/></g></g></g></svg>