<svg xmlns="http://www.w3.org/2000/svg" xmlns:xlink="http://www.w3.org/1999/xlink" viewBox="0 0 707.13 308.66"><defs><style>.cls-1{isolation:isolate;}.cls-2{fill:#8e8e8e;}.cls-3{fill:#c1c1c1;}.cls-4{fill:#989898;}.cls-5{fill:#80c0c3;}.cls-6{fill:#909090;}.cls-7{fill:#9d9d9d;}.cls-8{fill:gray;}.cls-9{opacity:0.1;}.cls-10,.cls-13,.cls-9{mix-blend-mode:multiply;}.cls-10{opacity:0.81;fill:url(#linear-gradient);}.cls-11{fill:#7c7c7c;}.cls-12{fill:#fff;}.cls-13{fill:#4aa1b7;opacity:0.75;}.cls-14{fill:#5a98a4;}.cls-15{fill:url(#linear-gradient-2);}.cls-16{fill:url(#linear-gradient-3);}.cls-17{fill:url(#linear-gradient-4);}</style><linearGradient id="linear-gradient" x1="239.43" y1="113.03" x2="239.37" y2="141.87" gradientUnits="userSpaceOnUse"><stop offset="0" stop-color="#4aa1b7"/><stop offset="0.26" stop-color="#459db2"/><stop offset="0.57" stop-color="#3890a3"/><stop offset="0.92" stop-color="#237b8a"/><stop offset="1" stop-color="#1d7583"/></linearGradient><linearGradient id="linear-gradient-2" x1="225.91" y1="171.58" x2="228.83" y2="257.2" gradientUnits="userSpaceOnUse"><stop offset="0.2" stop-color="#bababa"/><stop offset="0.35" stop-color="#b7b7b7"/><stop offset="0.44" stop-color="#afafaf"/><stop offset="0.52" stop-color="#a0a0a0"/><stop offset="0.59" stop-color="#8c8c8c"/><stop offset="0.65" stop-color="#717171"/><stop offset="0.71" stop-color="#515151"/><stop offset="0.74" stop-color="#3d3d3d"/></linearGradient><linearGradient id="linear-gradient-3" x1="180.31" y1="171.85" x2="287.29" y2="192.59" gradientUnits="userSpaceOnUse"><stop offset="0.42" stop-color="#bababa"/><stop offset="0.62" stop-color="#b8b8b8"/><stop offset="0.72" stop-color="#b0b0b0"/><stop offset="0.79" stop-color="#a3a3a3"/><stop offset="0.85" stop-color="#919191"/><stop offset="0.91" stop-color="#797979"/><stop offset="0.96" stop-color="#5c5c5c"/><stop offset="1" stop-color="#3d3d3d"/></linearGradient><linearGradient id="linear-gradient-4" x1="226.56" y1="146.31" x2="226.56" y2="159.85" gradientUnits="userSpaceOnUse"><stop offset="0" stop-color="#bababa"/><stop offset="0.43" stop-color="#b8b8b8"/><stop offset="0.58" stop-color="#b1b1b1"/><stop offset="0.7" stop-color="#a6a6a6"/><stop offset="0.78" stop-color="#959595"/><stop offset="0.86" stop-color="#7f7f7f"/><stop offset="0.93" stop-color="#636363"/><stop offset="0.99" stop-color="#444"/><stop offset="1" stop-color="#3d3d3d"/></linearGradient></defs><g class="cls-1"><g id="WELL"><g id="_LAYER-17_WELL_TOP_" data-name="&lt;LAYER-17_WELL(TOP)&gt;"><rect class="cls-2" x="300.58" y="221.95" width="89.24" height="45.1"/><rect class="cls-3" x="300.58" y="267.05" width="89.24" height="41.61"/><path class="cls-4" d="M313,308.14V230.43l5-9H0v45H244.65A41.33,41.33,0,0,1,286,307.76Z"/><path class="cls-4" d="M403,307.76a41.32,41.32,0,0,1,41.33-41.33H707.13v-45H372l4,9v77.71Z"/><path class="cls-5" d="M242.52,92.27l0-.57a1.1,1.1,0,0,1,.06-.26h0c0-.22,0-.44,0-.67a1.28,1.28,0,0,1,.18-.56c0-.23,0-.45,0-.68s0,0,.07-.17c-1.19,0-2.14,0-3.32,0a1.5,1.5,0,0,1-.5,1.15c-.34.38-.55.36-.88,0H238c-.77,0-.73,0-.71-.51a.63.63,0,0,0,0-.2c-.28.2-.07.45-.19.64s-.17-.25-.31-.1-.26.23-.2.42.23.37-.16.43c0,0,0,.08,0,.1.39.41-.32.71,0,1.16-.34-.15-.15-.35-.39-.48,0,.54-.59.7-.9,1.07.19,0,.39-.09.58-.15.67-.21,1.07,0,1.06.59,0,.27.1.55-.19.86.77-.08,1.08.43,1.6.66h0a1,1,0,0,1,.19-.8.29.29,0,0,0,0-.42c-.18-.26.31-.23.42-.44a.82.82,0,0,1,1.13-.09l0,.24a2,2,0,0,1,0,1.19c-.06.16-.11.33-.17.49a.74.74,0,0,1-.93.46c-.41,0-.67,0-.56.49a2.41,2.41,0,0,1-.25,1.75c0,.07-.15.13,0,.15.46.06.38.28.24.51h0c.24,0,.14.22.33.29.08-.23.2-.39.53-.19.11.06.21-.09.29-.18-.19-.18-.49,0-.78-.21a3.75,3.75,0,0,1,1.3,0c.21,0,.22.31,0,.43-.09,0-.28,0-.12.17s.06.24.25.21.22-.08.23-.19,0-.21,0-.32,0-.2,0-.23c.73-.36.22-.93.37-1.39-.24,0-.2-.18-.2-.31v-1c-.65-.2-.32-.63-.39-1,.22-.1.17.18.32.1s.06-.17.07-.25v-.64c0-.18.05-.32.32-.33s.28.16.28.32a.92.92,0,0,0,.44-1.28C242,92.73,242.15,92.3,242.52,92.27Z"/><path class="cls-5" d="M241.52,100.6c0-.11,0-.21-.05-.32a1,1,0,0,1-.17-.49l-.07-.31-.15-.25c-.07,0-.14.09-.21.08s-.23.2-.34.09-.07-.32,0-.47.17-.11.27,0,.11.24.3.24l0-.08,0-.2a5.54,5.54,0,0,1-.15-2.46c0-.37.1-.74.14-1.11l-.18.16c-.11.26.22.6-.2.81v.64c-.15.46.36,1-.37,1.39-.05,0,0,.15,0,.23s0,.21,0,.32-.11.16-.23.19-.16-.14-.25-.21,0-.12.12-.17c.26-.12.25-.38,0-.43a3.75,3.75,0,0,0-1.3,0c.29.22.59,0,.78.21-.08.09-.18.24-.29.18-.33-.2-.45,0-.53.19-.19-.07-.09-.3-.33-.29,0,.11-.07.16-.2.16s0,.13-.12.12,0,0,0,0,.08-.09.15-.1.07-.16.2-.16c.14-.23.22-.45-.24-.51-.19,0-.08-.08,0-.15a2.41,2.41,0,0,0,.25-1.75c-.11-.48.15-.49.56-.49a.53.53,0,0,1-.19-.69,7.14,7.14,0,0,1,1.11-1.67s.09,0,.14,0a.82.82,0,0,0-1.13.09c-.11.21-.6.18-.42.44a.29.29,0,0,1,0,.42,1,1,0,0,0-.19.8h.2c0-.06,0-.12.12-.12a0,0,0,0,1,0,0c0,.08-.08.08-.15.09s.05.31-.1.47c-.16-.16-.08-.32-.1-.47-.52-.23-.83-.74-1.6-.66.29-.31.19-.59.19-.86,0-.58-.39-.8-1.06-.59-.19.06-.39.1-.58.15.31-.37.92-.53.9-1.07.24.13,0,.33.39.48-.28-.45.43-.75,0-1.16,0,0,0-.1,0-.1.39-.06.21-.28.16-.43s.1-.31.2-.42.12.23.31.1-.09-.44.19-.64a.63.63,0,0,1,0,.2c0,.53-.06.51.71.51h.25a3.7,3.7,0,0,1-.18-1.13h-.29c-.12.21-.06.48-.14.76a.53.53,0,0,1-.14-.48c0-.1.1-.21.07-.29-.33,0-.94,0-1.28,0,0,.11.19.23.21.34h.2c0-.06,0-.13.12-.12s0,0,0,0-.08.09-.15.1.07.31-.08.44,0-.29-.23-.29a13.28,13.28,0,0,1-1.88,3.22c.07,0,.19,0,.13.1s-.13,0-.17,0l-.88.75c0,.23-.23.34-.4.48a.65.65,0,0,1,.11.48c.12,0,.19.06.19.16l.72-.66c.05,0,0-.09,0-.14-.19-.29.05-.31.31-.32,0-.12-.07-.29.17-.31s.21.18.23.31.19.06.2.16c.26,0,.48-.21.78-.15a.76.76,0,0,1-.17.57,9.22,9.22,0,0,1-1.57,1.94h0c-.18.42-.56.75-.71,1.18a.93.93,0,0,0-.12.46c.89-.41.89-.41,1.06-.92.23,0,0,.25.21.32s.31-.36.32,0a.2.2,0,0,0,.14.2c.5.14,0,.32,0,.39s-.29.11-.34-.1-.25-.13-.28-.06c-.26.46-.75.08-1.09.2a.72.72,0,0,0,0,.56c.07,0,.16,0,.15.09s-.09,0-.14.07c.07.22.13.43.19.64l.2.16a.86.86,0,0,0,.83-.32l.35-.33h0l1.61-2.56a2.61,2.61,0,0,1,.38-.69c.08-.13.18-.28.38-.27s.29.16.36.3a2.27,2.27,0,0,1-.11,2.66l-.6.73h0c0,.1-.09.15-.19.2s-.17.18-.22.28a2.74,2.74,0,0,0-.59,1.5c0,.2.06.4.09.59l.12.22a1,1,0,0,0,.59.19l.11,0,0,0h.05c.15-.06.34-.07.44-.21s.08-.1.16-.12,0,0,0,0l.18-.18s0,0,0-.06c.06-.24.13-.48.2-.72a11.39,11.39,0,0,1,.17-1.29c-.07,0-.18,0-.13-.1s.11,0,.15,0h0a.1.1,0,0,1,.06-.07c.07-.32.36-.42.73-.39s.71.29.71.64a1.76,1.76,0,0,1-.14.9l0,.3V101l0,.32c.08,0,.19,0,.18-.11-.09-.51.33-.47.74-.45h.2c.78,0,.78,0,.88.61a.2.2,0,0,0,.2.19l0-.16c0-.13,0-.25,0-.38Zm-5.44-9.14c.07,0,.14,0,.14.07s-.07.07-.14.08-.14,0-.14-.08S236,91.46,236.08,91.46Zm-1.79,7.1c-.65,0-.35.38-.41.62,0,.08,0,.18-.15.26-.14-.36.07-.73-.22-1a3.14,3.14,0,0,1,.86,0C234.47,98.48,234.34,98.56,234.29,98.56Zm1.23-5.49c.07,0,.13,0,.1.09s-.07,0-.11,0-.06,0-.11-.07A.33.33,0,0,1,235.52,93.07Zm.34.8c0-.24-.23-.15-.39-.17s-.31,0-.38-.11,0-.14,0-.15.2.12.35.1h.6c0-.1-.16-.2,0-.29a.12.12,0,0,1,.17,0c.07.13,0,.23-.16.26C236.07,93.68,236.12,93.84,235.86,93.87ZM235.63,97a.28.28,0,0,1-.34-.22c-.09-.33-.18-.55-.49-.08,0,0-.21,0-.32,0s0,.12-.12.12,0,0,0,0,.08-.08.15-.09c0-.26-.07-.52.45-.51.22,0,.14-.2.15-.33s0-.29.24-.27.16.17.16.29a.28.28,0,0,1-.09.25c-.15.15-.2.23.14.16s.3.18.35.34S235.78,97,235.63,97Zm.72-1.35c-.17.22.13.52-.27.8V94.82c-.08,0-.16,0-.15-.09a0,0,0,0,1,0,0c.11,0,.1.06.12.12C236.37,95.05,236.63,95.29,236.35,95.65Zm.24-.71c-.11-.16-.2-.31,0-.42a.26.26,0,0,1,.18,0C236.84,94.7,236.58,94.78,236.59,94.94Zm.12,5c.21.18.18.28.09.41C236.6,100.23,236.71,100.11,236.71,99.92Zm.5,1.27c-.2.06-.34-.09-.59-.2.27-.06.41-.22.6,0S237.32,101.15,237.21,101.19Zm.07-1.07v.58h-.15c0-.19-.23-.4.15-.57,0-.08,0-.16.17-.15s.08.06.07.08S237.37,100.11,237.28,100.12Zm2.76.31c-.24-.16-.15-.35-.18-.51C240.15,100,240.08,100.21,240,100.43Zm.36-.1a.65.65,0,0,1,0-.67A.65.65,0,0,1,240.4,100.33Z"/><path class="cls-5" d="M237,94.88l-.08,0s0,.05,0,.07.06,0,.08,0S237,94.9,237,94.88Z"/><path class="cls-5" d="M233.71,94.28l.08,0s0,0,0-.07-.06,0-.08,0S233.72,94.26,233.71,94.28Z"/><path class="cls-5" d="M235.55,92s0,.05,0,.07l.08,0s0,0,0-.07Z"/><path class="cls-5" d="M236.75,101.59s0,0,0,.06.05,0,.08,0,0,0,0-.06S236.78,101.6,236.75,101.59Z"/><path class="cls-5" d="M243.18,103.38a2.55,2.55,0,0,1,1,1.34,2.63,2.63,0,0,1,.32,1.13.67.67,0,0,1-.18.56c-.2.19-.44.24-.61,0A3.82,3.82,0,0,1,243.18,103.38Zm.58,1.28a.61.61,0,0,0,0,.62C243.91,105,243.92,104.84,243.76,104.66Z"/><path class="cls-5" d="M237.7,105.84c-.38.16-.56,0-.58-.27a2.21,2.21,0,0,1,.34-1.31.39.39,0,0,1,.52-.17.09.09,0,0,0,.06,0,1.49,1.49,0,0,1-.31,1.72Z"/><path class="cls-5" d="M234.49,94.5a2.1,2.1,0,0,1-1.25,1.11.8.8,0,0,1-.46-.07c.07-.1.31-.06.3-.24v-.07h.29c.25.18.35,0,.46-.14s.28-.44.55-.59Z"/><path class="cls-5" d="M232.49,95.46a1.93,1.93,0,0,1,1.08-1.6c0,.23-.23.34-.4.48s-.33.39-.3.64c-.38.11-.12.36-.19.54Z"/><path class="cls-5" d="M232.68,95.52c.07-.18-.19-.43.19-.54.14,0,.23-.17.41-.16s.19.06.19.16v.24h-.4L233,95.1s-.09,0-.09.06.07.13.18.14c0,.18-.23.14-.3.24Z"/><path class="cls-5" d="M242.51,92.34v-.07c-.37,0-.53.46-1,.31a.92.92,0,0,1-.44,1.28h0c0,.13.07.29-.2.32a2.6,2.6,0,0,0-.4,1.44v1c0,.13,0,.28.2.31V95.15c.26.1.18.22.2.31l.18-.16.21-.57a3.52,3.52,0,0,1,.37-1.22,1.65,1.65,0,0,1,.78-1C242.41,92.42,242.46,92.38,242.51,92.34Z"/><path class="cls-5" d="M240.88,94.18a2.6,2.6,0,0,0-.4,1.44c-.65-.2-.32-.63-.39-1,.22-.1.17.18.32.1s.06-.17.07-.25v-.64c0-.18.05-.32.32-.33s.28.16.28.32h0C240.81,93.89,240.9,94.05,240.88,94.18Z"/><path class="cls-5" d="M239.91,94.66V93.47A2,2,0,0,1,239.91,94.66Z"/><path class="cls-5" d="M241.68,101.56v.16c-.12.24-.74.41-.14.75a1,1,0,0,1-.59,0c-.07-.12.11-.16.11-.25s0-.14-.09-.17-.21,0-.23,0c-.23.56-.56.08-.83,0s-.25-.15-.43-.17v-.64c.08,0,.19,0,.18-.11-.09-.51.33-.47.74-.45h.2c.78,0,.78,0,.88.61A.2.2,0,0,0,241.68,101.56Z"/><path class="cls-5" d="M233.28,98.11V98c.89-.41.89-.41,1.06-.92.23,0,0,.25.21.32s.31-.36.32,0a.2.2,0,0,0,.14.2c.5.14,0,.32,0,.39s-.29.11-.34-.1-.25-.13-.28-.06C234.11,98.37,233.62,98,233.28,98.11Z"/><path class="cls-5" d="M234.47,96.75c0-.26-.07-.52.45-.51.22,0,.14-.2.15-.33s0-.29.24-.27.16.17.16.29a.28.28,0,0,1-.09.25c-.15.15-.2.23.14.16s.3.18.35.34-.09.27-.24.32a.28.28,0,0,1-.34-.22c-.09-.33-.18-.55-.49-.08,0,0-.21,0-.32,0Z"/><path class="cls-5" d="M233.37,95.23h.11l0,0,0,0V95l.72-.66c.05,0,0-.09,0-.14-.19-.29.05-.31.31-.32l0,.57h0l-.12.06c-.27.15-.33.42-.55.59S233.62,95.41,233.37,95.23Z"/><path class="cls-5" d="M236.08,94.82c.29.23.55.47.27.83s.13.52-.27.8V94.82Z"/><path class="cls-5" d="M233.73,99.44c-.14-.36.07-.73-.22-1a3.14,3.14,0,0,1,.86,0c.1.11,0,.19-.08.19-.65,0-.35.38-.41.62C233.85,99.26,233.92,99.36,233.73,99.44Z"/><path class="cls-5" d="M241.08,99.23c-.07,0-.14.09-.21.08s-.23.2-.34.09-.07-.32,0-.47.17-.11.27,0,.11.24.3.24Z"/><path class="cls-5" d="M234.5,94.43l0-.57h.4c.13,0,.19.06.2.16Z"/><path class="cls-5" d="M240.68,96.27V95.15c.26.1.18.22.2.31C240.77,95.72,241.1,96.06,240.68,96.27Z"/><path class="cls-5" d="M236.62,101c.27-.06.41-.22.6,0s.1.21,0,.25S236.87,101.1,236.62,101Z"/><path class="cls-5" d="M233.28,94.82c-.18,0-.27.12-.41.16,0-.25.2-.43.3-.64A.65.65,0,0,1,233.28,94.82Z"/><path class="cls-5" d="M236.59,94.94c-.11-.16-.2-.31,0-.42a.26.26,0,0,1,.18,0C236.84,94.7,236.58,94.78,236.59,94.94Z"/><path class="cls-5" d="M237.28,100.12v.58h-.15c0-.19-.23-.4.15-.57Z"/><path class="cls-5" d="M235.86,93.87c0-.24-.23-.15-.39-.17v-.16h.6c0,.14,0,.3-.22.33Z"/><path class="cls-5" d="M234.88,93.86h-.4c0-.12-.07-.29.17-.31S234.86,93.73,234.88,93.86Z"/><path class="cls-5" d="M239.86,99.92c.29.11.22.29.18.51C239.8,100.27,239.89,100.08,239.86,99.92Z"/><path class="cls-5" d="M240.36,99.66a.65.65,0,0,1,0,.67A.65.65,0,0,1,240.36,99.66Z"/><path class="cls-5" d="M236.37,89.84l.11-.15h.2c0,.15.07.31-.08.44S236.63,89.84,236.37,89.84Z"/><path class="cls-5" d="M238.28,95c0,.15.05.31-.1.47-.16-.16-.08-.32-.1-.47h.2Z"/><path class="cls-5" d="M235.48,93.54v.16c-.13,0-.31,0-.38-.11s0-.14,0-.15S235.33,93.56,235.48,93.54Z"/><path class="cls-5" d="M236.08,93.54c0-.1-.16-.2,0-.29a.12.12,0,0,1,.17,0c.07.13,0,.23-.16.26Z"/><path class="cls-5" d="M236.71,99.92c.21.18.18.28.09.41C236.6,100.23,236.71,100.11,236.71,99.92Z"/><path class="cls-5" d="M236.08,91.61c-.06,0-.14,0-.14-.08s.08-.07.14-.07.14,0,.14.07S236.15,91.6,236.08,91.61Z"/><path class="cls-5" d="M237.28,100.12c0-.08,0-.16.17-.15s.08.06.07.08-.15.06-.24.07Z"/><path class="cls-5" d="M235.4,93.13a.33.33,0,0,1,.12-.06c.07,0,.13,0,.1.09s-.07,0-.11,0S235.45,93.16,235.4,93.13Z"/><path class="cls-5" d="M236.08,94.82c-.08,0-.16,0-.15-.09a0,0,0,0,1,0,0c.11,0,.1.06.12.12Z"/><path class="cls-5" d="M237,94.88s0,.06,0,.06-.05,0-.08,0,0-.06,0-.07Z"/><path class="cls-5" d="M238.28,95c0-.06,0-.12.12-.12a0,0,0,0,1,0,0c0,.08-.08.08-.15.09Z"/><path class="cls-5" d="M233.71,94.28s0-.06,0-.06.05,0,.08,0,0,.06,0,.07Z"/><path class="cls-5" d="M234.48,96.75c0,.06,0,.12-.12.12s0,0,0,0,.08-.08.15-.09Z"/><path class="cls-5" d="M238.08,98.67c0-.1.07-.16.2-.16h0c0,.11-.07.16-.2.16Z"/><path class="cls-5" d="M233.29,98.83v-.16c.07,0,.16,0,.15.09S233.34,98.81,233.29,98.83Z"/><path class="cls-5" d="M238.08,98.67c0,.06,0,.13-.12.12s0,0,0,0,.08-.09.15-.1Z"/><path class="cls-5" d="M238.08,99.39l0,.08c-.07,0-.18,0-.13-.1S238,99.35,238.08,99.39Z"/><path class="cls-5" d="M234.45,93.11s0,0,0,0,.19,0,.13.1S234.49,93.16,234.45,93.11Z"/><path class="cls-5" d="M235.55,92l.08,0s0,.05,0,.07l-.08,0S235.54,92,235.55,92Z"/><path class="cls-5" d="M236.68,89.69c0-.06,0-.13.12-.12s0,0,0,0-.08.09-.15.1Z"/><path class="cls-5" d="M236.75,101.59s.07,0,.08,0,0,0,0,.06-.07,0-.08,0S236.74,101.61,236.75,101.59Z"/><path class="cls-5" d="M243.76,104.66c.16.18.15.35,0,.62A.61.61,0,0,1,243.76,104.66Z"/><path class="cls-5" d="M234.38,94.5l.12-.06s0,0,0,.06Z"/><path class="cls-5" d="M239.51,102.18l0-.22c.18,0,.3.16.43.17s.6.52.83,0c0-.06.15,0,.23,0s.09.1.09.17-.18.13-.11.25a1,1,0,0,0,.59,0c-.6-.34,0-.51.14-.75a1.44,1.44,0,0,1,0,1,.64.64,0,0,1-.74.4,2.36,2.36,0,0,1-1.06-.41Z"/><path class="cls-5" d="M240.12,102.58s0,.06,0,.06.06,0,.09,0,0-.06,0-.06S240.15,102.57,240.12,102.58Z"/><path class="cls-5" d="M233.08,95.3c-.11,0-.21,0-.18-.14s.06,0,.09-.06l.09.13Z"/><path class="cls-5" d="M233.48,95.15l0,0,0,0Z"/><path class="cls-5" d="M240.88,94.18c0-.13-.07-.29.2-.32C241.06,94,241.15,94.15,240.88,94.18Z"/><path class="cls-5" d="M240.12,102.58s.06,0,.08,0,0,0,0,.06-.07,0-.09,0S240.13,102.6,240.12,102.58Z"/><path class="cls-6" d="M327,196.23,310.34,212.3a2.48,2.48,0,0,0-2.36,2.49v2.64h74v-2.64a2.49,2.49,0,0,0-2.36-2.49L363,196.23"/><rect class="cls-4" x="468.02" y="15.86" width="60.33" height="8.59" transform="translate(0.05 41.4) rotate(-4.76)"/><rect class="cls-6" x="354.68" y="21.86" width="120.27" height="10.46" transform="translate(-0.82 34.51) rotate(-4.76)"/><polygon class="cls-6" points="346.06 82.86 244.23 82.86 244.16 92.86 234.25 92.86 234.25 73.13 346.06 73.13 346.06 82.86"/><path class="cls-4" d="M363,216V62.16a4.43,4.43,0,0,1,1.77-3.54L396.9,34.5A5.17,5.17,0,0,0,399,30.35V27.63a4.18,4.18,0,0,0-3.66-4.14l-64.6-8.08A3.34,3.34,0,0,0,327,18.72V216Z"/><path class="cls-4" d="M322,3.8V20.42a4,4,0,0,0,3.5,4l71.4,12.14a2.74,2.74,0,0,0,3.1-2.72V27a4,4,0,0,0-1.61-3.22L368,.71A3.63,3.63,0,0,0,365.7,0L323.83,1.86A1.94,1.94,0,0,0,322,3.8Z"/><polygon class="cls-6" points="323.89 96.23 322.33 96.23 322.39 86.82 321.33 86.81 321.33 85.19 324.89 85.19 324.89 86.81 324.06 86.84 323.89 96.23"/><polygon class="cls-6" points="338.78 96.23 337.22 96.23 337.28 86.82 336.22 86.81 336.22 85.19 339.78 85.19 339.78 86.81 338.95 86.84 338.78 96.23"/><polygon class="cls-6" points="354.26 96.23 352.7 96.23 352.76 86.82 351.7 86.81 351.7 85.19 355.26 85.19 355.26 86.81 354.43 86.84 354.26 96.23"/><polygon class="cls-6" points="368.06 96.23 366.49 96.23 366.56 86.82 365.49 86.81 365.49 85.19 369.06 85.19 369.06 86.81 368.23 86.84 368.06 96.23"/><rect class="cls-7" x="316.92" y="86.91" width="55.95" height="5.04"/><polygon class="cls-8" points="314.06 220.98 312.5 220.98 312.56 215.57 311.5 215.56 311.5 213.94 315.06 213.94 315.06 215.56 314.23 215.59 314.06 220.98"/><polygon class="cls-8" points="333.41 220.98 331.84 220.98 331.91 215.57 330.84 215.56 330.84 213.94 334.41 213.94 334.41 215.56 333.58 215.59 333.41 220.98"/><polygon class="cls-8" points="357.72 220.98 356.16 220.98 356.22 215.57 355.16 215.56 355.16 213.94 358.72 213.94 358.72 215.56 357.89 215.59 357.72 220.98"/><polygon class="cls-8" points="377.07 220.98 375.51 220.98 375.57 215.57 374.51 215.56 374.51 213.94 378.07 213.94 378.07 215.56 377.24 215.59 377.07 220.98"/><rect class="cls-7" x="280.58" y="215.43" width="129.24" height="6.52"/><polygon class="cls-9" points="326.98 24.66 394.65 36.19 389.71 39.9 326.98 28.95 326.98 24.66"/><rect class="cls-9" x="326.98" y="91.95" width="36" height="3.13"/><rect class="cls-10" x="236.53" y="92.86" width="5.75" height="67.82"/><polygon class="cls-11" points="355.56 221.87 355.56 307.06 333.56 307.06 333.56 221.88 355.56 221.87"/><rect class="cls-12" x="337.58" y="220.89" width="14.04" height="86.18"/><rect class="cls-13" x="337.58" y="220.89" width="14.04" height="86.18"/><path class="cls-14" d="M256.36,180.37c-2.67,1.77-6.43,1.73-9.89,2.17-.42.06-.86.07-1.29.1-1.72.08-3.45.17-5.17.22a129.39,129.39,0,0,1-21.33-1.11l-.37,0c-3-.45-5.32-1.44-6.73-3.13-1.77-1.94-2.86-4.13-5.83-5.61-.52-.26-1.07-.5-1.6-.74a1.81,1.81,0,0,0-1.71-.85c-2.46,0-5-.31-7.25.67-.87-.53-.61-1.32-1.36-1.88a2,2,0,0,1,1.61.18c.45.17,1,.18,1.16-.24s-.26-.51-.85-.54-1.31.11-1.8-.32c4.07-.07,8.13-.28,12.27,0,1-1.75,1-1.76,4.61-2.83.36-.1.78-.14.41-.43-.72-.57-.36-1.23-.35-1.84s-.41-1-1.53-.88h0c.12-.69-.41-1.15-1.48-1.34-.52-.09-1-.27-1.14-.51-.53-1.17-1.58-.79-2.67-.38l-1.4-.5a24.76,24.76,0,0,0-5.93-2.63,12.1,12.1,0,0,1-3.38-1.54c-.83-.58-1.13-1.22-.5-2a3.25,3.25,0,0,1,3-.75c1.4.17,2.75.46,4.13.67,2,.3,3.09-.14,3.35-1.38.22-1.09-.39-2.12-.72-3.16l1.47-.46c2.24,2.63,5.15,2,7.6.78a3.44,3.44,0,0,0,1.67-1.55.5.5,0,0,0,.12.08.34.34,0,0,0,.16,0c.49-.18-.15-.67.68-.8.6.36-.08,1,.77,1.46.3-.8.59-1.52-.11-2.08-.26-.22-1.25,0-1.66.42a14.35,14.35,0,0,0-2.8-3.15,10,10,0,0,1-2.49-2.87c-.85-1.72.67-3.18,3.2-3.11,3.49,1.62,5.53,3.66,5.33,6.41,0,.46-.25,1,.27,1.4s-.39.79,0,1.18a4.87,4.87,0,0,0,.58,2.76c.16.39.28.91,1.19.82s1-.61,1-1.06c0-.74-.19-1.48-.28-2.22s.35-1.18,1.46-1.38c1.32-.24,1.51.43,2,.89l0,.64v.45c-.26,1.35-.51,2.69-.77,4a3.84,3.84,0,0,0-.63,2.63c.18,1.47,1.61,2.28,3.87,2.28,1.67.15,2.19-1.32,4.08-.87-1-1.36-.18-2.91,1.64-3.58,0,.45-.11.94,1.07.89,1,0,1.19-.42,1.18-.92s0-1.19,0-1.78c0-.25-.19-.56.24-.72.58-.22.4.57,1.21.29-.25-.93,1-2.13-1.46-2.71,0-.91,0-1.83,0-2.74,0-.36.16-.78-.74-.85.55-1.29-1.34-2.88,1.39-3.91.18-.07.08-.42.1-.64s0-.6,0-.9.43-.46.85-.52c.73-.1.62.38.93.57.6.36-.08.35-.43.48-1,.35-.92,1.06-.16,1.21a19.64,19.64,0,0,0,4.87,0c-1.09-.61-2.21-.1-2.92-.6.29-.25.66-.68,1.07-.5,1.25.56,1.69.12,2-.54.69.22.33.85,1.23.82h0c-.52.66-.85,1.28.87,1.44.71.06.33.21.17.42a5.23,5.23,0,0,0-.93,4.91c.4,1.34-.56,1.37-2.1,1.36-1.84-.24-2.94.26-3.47,1.29-.23.46-.41.93-.62,1.39a4.19,4.19,0,0,0,0,3.33l.13.66c.94.73,3.57.7,4.22-.24.41-.59,2.24-.52,1.57-1.24-.51-.54-.15-.89.2-1.18.84-.71.67-1.48.7-2.25h0c1.93.65,3.08,2.09,5.95,1.87-1.07.85-.7,1.65-.71,2.41,0,1.63,1.46,2.22,4,1.63.7-.16,1.43-.28,2.15-.41-1.13,1-3.41,1.48-3.35,3-.88-.37-.17-.93-1.43-1.34,1,1.26-1.61,2.08-.16,3.24.07.06,0,.28,0,.28-1.45.17-.77.77-.59,1.2s-.4.87-.77,1.18-.42-.64-1.15-.28c-.45.52.35,1.22-.69,1.79a2.25,2.25,0,0,1-.18-.55c.1-1.5.23-1.45-2.64-1.43l-.93,0c-1.23-1.11-2-1.15-3.25-.09s-2.22,2.11-2.14,3.43a7,7,0,0,0,0,6.06,5.93,5.93,0,0,0,1.41,2.7c-.52.08-.94-.55-1.21-.24-.54.6.64,1,.84,1.55.65-.41.31-.81.48-1.15.47.17.67.65,1.24.59s.46-.54.58-.84c.64-1.62,1.26-3.24,1.89-4.85h1.47c1.12,0,2.25-.05,3.35,0s2.11.16,1.27,1.09a.61.61,0,0,0,.15,1c.47,0,.58-.95,1.35-.08,1.15,1.29,2.63-.37,4.05,0,.29.07.17-.64.27-1s-.34-1,.85-1c1.8,0,3.61-.35,5.38.29,1.26.47,2.07.07,2.22-.9s1.69-.25,2.43-.59c.18-.08,1.07.37.74.59-.76.49-1.24,1.28-2.35,1.44s-1.08.48-1.07.94h0c-1.17.25-1.39-.44-2.14-1a41,41,0,0,1-.07,6.39v.42h0c-.38.26-.69.53-.71.9h0Zm-33.93-12.78a7.75,7.75,0,0,0-2-4.36,23.6,23.6,0,0,0-9.33-6.85,3.39,3.39,0,0,0-3.16-.21c-1,.6-.86,1.35-.19,2.07a10.64,10.64,0,0,0,3.46,2.31c2.44,1.12,4.7,2.33,6.09,4,.91,1.11,1.69,2.25,2.66,3.33.46.51.52,1.53,1.74,1.34C222.54,169.1,222.32,168.13,222.43,167.59Zm18.74,13.59V181h-11.4v.23Zm-42.26-11.12c-.44,0-.68.13-.7.4s.17.43.61.44.82-.12.8-.45S199.34,170.06,198.91,170.06Z"/><path class="cls-14" d="M242.19,169.59h-.72a3.34,3.34,0,0,1,.19-1,7.39,7.39,0,0,0,0-6.17l.93,0c2.87,0,2.74-.07,2.64,1.43a2.25,2.25,0,0,0,.18.55c1-.57.24-1.27.69-1.79.73-.36.65.7,1.15.28s1-.65.77-1.18-.86-1,.59-1.2c.05,0,.11-.22,0-.28-1.45-1.16,1.2-2,.16-3.24,1.26.41.55,1,1.43,1.34-.06-1.53,2.22-2,3.35-3-.72.13-1.45.25-2.15.41-2.5.59-4,0-4-1.63,0-.76-.36-1.56.71-2.41-2.87.22-4-1.22-5.95-1.87-.09-.4.2-.85-.38-1.31-.58.46-.28.91-.37,1.31-.27,0-.59,0-.56.27,0,0,.07.07.11.07.41,0,.4-.17.45-.34h.75c0,.77.14,1.54-.7,2.25-.35.29-.71.64-.2,1.18.67.72-1.16.65-1.57,1.24-.65.94-3.28,1-4.22.24.18,0,.46,0,.52-.05,1.56-1.51,3.25-3,4.15-4.69.39-.74.27-1.39-.71-1.93,1.54,0,2.5,0,2.1-1.36a5.23,5.23,0,0,1,.93-4.91c.16-.21.54-.36-.17-.42-1.72-.16-1.39-.78-.87-1.44.48,0,.73-.16.74-.45.27,0,.59,0,.56-.27,0,0-.07-.07-.12-.07-.4,0-.4.18-.44.34q-.74,0-.75.45c-.9,0-.54-.6-1.23-.82-.3.66-.74,1.1-2,.54-.41-.18-.78.25-1.07.5.71.5,1.83,0,2.92.6a19.64,19.64,0,0,1-4.87,0c-.76-.15-.82-.86.16-1.21.35-.13,1-.12.43-.48-.31-.19-.2-.67-.93-.57-.42.06-.82.2-.85.52s0,.6,0,.9.08.57-.1.64c-2.73,1-.84,2.62-1.39,3.91v1.79c-1.57.59-.34,1.52-.75,2.26l-.68.44a27.64,27.64,0,0,0,.52-3.11c.13-2.3.74-4.62-.53-6.88l-.1-.57.1-.23c.7,0,.77.43,1.11.68s.84.27,1-.06.35-.94-.09-1.3-.74.26-1.26.24a2.83,2.83,0,0,0-.8.22l-.55-.71-.28-.86a2.27,2.27,0,0,0-.61-1.36l-.2-.89-.5-1.2-.17-1.05.1-.45c.53,0,.67.24.73.54.37,1.71.38,1.71,3.27,1.71h.74c1.53,0,3.1.16,2.77-1.28,0-.19.36-.27.68-.3l.1.89,0,.69-.1.83a4,4,0,0,0-.53,2.52c0,1,.92,1.69,2.67,1.8,1.38.09,2.43-.19,2.72-1.11.12,0,.19-.1.2-.18a.83.83,0,0,0,.22,0c.15.13.4.23.53.06s-.2-.26-.48-.3c0-1.21.84-2.36.65-3.59l.75-2a.15.15,0,0,0,.07-.17l.64-.51c.09,0,.13,0,.14-.1.28-.07.55-.14.59-.35.36-.39,1.08-.4,1.65-.57h.16l.1-.07.41-.06a4.89,4.89,0,0,1,2.19.54l.46.62c.1.54.25,1.09.3,1.64.17,1.57-1.13,2.86-2.19,4.2-.18.31-.84.43-.82.81-.36.12-.64.27-.68.54h0c-.74.68-1.5,1.35-2.23,2-2.62,2.44-2.08,5-.42,7.47a1.5,1.5,0,0,0,1.34.84,1.61,1.61,0,0,0,1.42-.77c.47-.65,1.21-1.22,1.42-1.93l6-7.17h0c.43-.31.89-.61,1.29-.93a3.77,3.77,0,0,1,3.11-.89l.71.44L260,139c-.18.07-.49.12-.51.19,0,.23.3.23.56.26a1.62,1.62,0,0,1,0,1.57c-1.28.35-3.11-.74-4.07.58-.13.17-.91.16-1-.18a.74.74,0,0,0-1.29-.28c-.21.19-2,.7-.11,1.1a.59.59,0,0,1,.53.55c0,1.15.76.28,1.18.15.65.19-.08.79.81.89.63-1.42.63-1.42,3.94-2.58.11.47-.27.87-.47,1.29-.53,1.21-2,2.14-2.62,3.31l0,0a28.86,28.86,0,0,0-5.84,5.43c-.41.49-.83,1-.63,1.58-1,.09-.79.55-.81.94-.78.07-.87.36-.59.72a.57.57,0,0,0,.63.1c.53-.27-.16-.54,0-.82h2.23c.54-.07.75.44,1.3.27.13,0,.19-.28.13-.4-.24-.46-.9-.28-1.42-.32s-1.44.18-1.44-.49c1.11.19,1.94-.29,2.92-.42,0,.29.25.45.75.46.08.36-.24.91.84.86.91,0,.57-.53.66-.86h0c.94,0,1.86-.09,1.14-.89-.13-.14-.28-.26-.08-.4l2.67-1.86c0,.3.26.44.74.45a1.55,1.55,0,0,0,.37,1.35c-.61.4-1.43.72-1.48,1.34l-3.28,2.12c-.16-.14-.39-.36-.62-.15s.2.25.48.28c-2.77,2.88-5.5,5.77-7,9-1,0,.18-.79-.87-.79-.58.35-.17.82-.29,1.23-.27,0-.59,0-.56.27,0,0,.07.07.11.07.41,0,.4-.18.45-.34h.73c.34,1.29-.42,2.58,0,3.88a1.85,1.85,0,0,0,1.81,1.51A2.35,2.35,0,0,0,252,169c1.31-1.32,1.66-2.86,2.71-4.24.2.4,0,1.05,1.11,1,.82-.07.44-.62.49-1a3.37,3.37,0,0,1,.25-1.1c.27-.55.14-1-1-1.24a7.6,7.6,0,0,1,1.47-3.15c.11.26-.22.59.34.76a.58.58,0,0,0,.34-.17c.15-.34-.07-.55-.68-.59a7.34,7.34,0,0,1,2.08-3.08,2.47,2.47,0,0,1,2.61-.91c1.3.31,1.4,1.09,1.13,1.81a9.34,9.34,0,0,1-1.77,2.94c-1.23,1.45-2.56,2.88-3.64,4.38a4,4,0,0,0-.86,3.71c.51,1.4,1.93,1.69,3.73.78a12.44,12.44,0,0,0,3.37-2.66,15.64,15.64,0,0,1,4.51-3.65c.16.35-.23.8.53,1.12.32-.5.48-.91-.14-1.29a7.66,7.66,0,0,1,4.67-.67c2,.15,2.75.89,2.19,2.05-.67,1.41-2.23,2.46-3.9,3.47l-.39.22-2.91,1.26a1.1,1.1,0,0,0-.81.39h0a1.43,1.43,0,0,0-1,.5h0c-1,0-1.15.5-1.53.87l-.35.24c-.42.14-.72.35-.8.65L263,172c-1.65,1.49-2.18,3.28-3.66,4.82a41,41,0,0,0,.07-6.39c.75.52,1,1.21,2.14,1,.1.27-.22.61.5.82.29-.4.42-.71-.5-.82,0-.46,0-.79,1.07-.94s1.59-.95,2.35-1.44c.33-.22-.56-.67-.74-.59-.74.34-2.26-.48-2.43.59s-1,1.37-2.22.9c-1.77-.64-3.58-.31-5.38-.29-1.19,0-.74.63-.85,1s0,1.07-.27,1c-1.42-.36-2.9,1.3-4.05,0-.77-.87-.88.09-1.35.08a.61.61,0,0,1-.15-1c.84-.93-.29-1-1.27-1.09s-2.23,0-3.35,0v-1.34c.27,0,.35.38.67.18.17-.12.15-.41-.16-.5s-.46.14-.52.31C241.59,168.47,242.44,169.14,242.19,169.59Zm28.35-3.6c-.61,0-.82.25-.67.59a.52.52,0,0,0,.34.16c.55-.17.23-.5.33-.75.27,0,.58,0,.56-.27,0,0-.07-.07-.12-.07C270.57,165.63,270.58,165.83,270.54,166Zm2.23-2.7h-1.49c0-.16,0-.35-.45-.34,0,0-.11.05-.11.07,0,.25.29.24.56.27.1.34-.23.72.43,1.08l1.07-1.08c1.28-.32.63-.76.49-1.5C272.61,162.47,272.84,162.89,272.77,163.29Zm-27.6-27.88c1.42-.48.61-1.07.57-1.62l-.57,0v1.64c-.33,0-.75-.06-.92.2,0,0,.17.19.28.2C245,135.86,245.12,135.64,245.17,135.41Zm4.48,14.84c0,.16,0,.36.45.34,0,0,.11,0,.11-.07,0-.25-.29-.24-.56-.27v-4.57c-1.49.79-.39,1.64-1,2.25C247.57,149,248.55,149.6,249.65,150.25Zm-6,16.41c.85,0,.74.79,1.71.7.46,0,1.2.36,1.23-.25,0-.39.44-1.07-.68-1.08-1.65,0-1.52-.59-1.53-1.25a1.24,1.24,0,0,0-.52-1.36c-.35,1,.07,1.91-.95,2.57,0,.26,0,.52,0,.78s0,.45.37.43S243.63,166.87,243.68,166.66Zm11.93-21.81c-.41.05-1.09,0-1.21.14-1.16,1.32-1.48.71-1.83-.23a1,1,0,0,0-1.27-.6c-.54.12-1.06.44-.88.88s.53,1.09,1.29,1c1.28-.21,1.08,0,.53.42a.78.78,0,0,0-.35.73c0,.31-.18.75.62.8,1,.06.81-.41.87-.77s-.25-.94.59-.92c1.92,0,1.66-.71,1.65-1.41.27,0,.58,0,.56-.27,0,0-.07-.07-.12-.07C255.65,144.5,255.66,144.69,255.61,144.85Zm2.79-7.55c-.72.22-.47.51-.55.74-.23.66.89,1.76-1.55,1.72-.18,0-.67.24-.3.55a14.54,14.54,0,0,0,3.21-.06C258.12,139.35,258.92,138.31,258.4,137.3ZM266.34,166a2,2,0,0,0-.21,1.68c.06.34.57.34,1,.34s.93.06,1.07-.27,0-.43,0-.64C266.42,167.52,267,166.42,266.34,166Zm-18.7-33c-.95-.31-1.46-.72-2.23-.55-.41.09-.32.49,0,.69C246.08,133.59,246.63,133.13,247.64,133Zm5.86,35.45c.48.2.52.89,1.46.41.39-.19.93-.52.53-.72C254.77,167.74,254.24,168.37,253.5,168.42Zm-5.77-18.5c0,.46-.94.67-.73,1.13a1.32,1.32,0,0,0,.66,0C248.46,150.79,248.15,150.36,247.73,149.92Zm-12.19-14c-.11-.45.21-1-.65-1.43C234.72,135.16,234.45,135.65,235.54,136Zm-1.84.73a1.44,1.44,0,0,0-.18-1.87A1.44,1.44,0,0,0,233.7,136.69Zm24.4,23.54c-.24.73-.51,1.19.39,1.77C258.55,161.36,258.8,160.92,258.1,160.23Zm12.18,4.71c.14-.37.56-.77-.34-1.18C269.83,164.25,269.59,164.61,270.28,164.94Zm-23-29c0-.53.42-.87-.35-1.14C246.61,135.17,246.51,135.46,247.29,136Zm19.08,28.81c-.26.07-.31.21-.28.36s0,.33.39.28.32-.2.29-.35S266.73,164.75,266.37,164.77Zm-16.74-5.51c-.24,0-.52,0-.53.21s.29.21.53.2.53,0,.53-.2S249.87,159.28,249.63,159.26Zm24.79,4.14c.44-.37.77-.62.24-.94C274.12,162.74,274.24,163,274.42,163.4ZM268.63,165l-.53.24c.09.08.16.19.28.21s.49,0,.47-.18S268.71,165.13,268.63,165Zm-16.44-10a1.49,1.49,0,0,0-.43-.19.69.69,0,0,0-.43.11c-.09.16.12.25.38.24A1.76,1.76,0,0,0,252.19,155Zm-4.79,13.06c-.15-.06-.31-.16-.4-.14s-.26.13-.27.21.15.28.43.22C247.27,168.31,247.31,168.17,247.4,168.05Zm-1.34-18a.76.76,0,0,0,.3.07c.08,0,.1-.12.15-.18-.11,0-.23-.09-.31-.07S246.11,150,246.06,150.09Zm23.59,17.42a.76.76,0,0,0-.3-.07c-.07,0-.1.11-.14.17a.76.76,0,0,0,.3.07C269.59,167.66,269.61,167.57,269.65,167.51Zm-11.19-15.74a.76.76,0,0,0-.3-.07c-.07,0-.1.11-.14.18a1.41,1.41,0,0,0,.3.07C258.4,151.93,258.42,151.83,258.46,151.77Zm7.87,16.56-.13.19c.1,0,.23.09.3.07s.1-.12.14-.18ZM257,161.66a1,1,0,0,0-.3-.08c-.07,0-.1.12-.14.18a.76.76,0,0,0,.3.07C256.9,161.81,256.92,161.72,257,161.66Zm-5.35-3.4c0-.06.14-.14.11-.18s-.19-.06-.29-.09-.15.14-.12.19S251.5,158.24,251.61,158.26Zm-4.48-27c0-.07.15-.14.12-.19s-.19-.06-.3-.08-.14.14-.11.18S247,131.26,247.13,131.29Z"/><path class="cls-14" d="M196.66,137.22c3.32,2.05,4.41,4.66,5.22,7.36.23.77.5,1.53.76,2.3-.28.11-.17.18.07.23l0,0,0,.05c0,.57-.37.87-1.38.8a30.23,30.23,0,0,0-4.61-4.57,13.31,13.31,0,0,0-6.84-2.26c-2.73-.27-5.68-1.78-6.22-3.43-.38-1.2.94-2.31,3.24-2.73a13.86,13.86,0,0,1,7.07.85l2.7,1.35Zm2.22,5.86c0-.25-.16-.42-.62-.44s-.74.06-.78.34.14.5.7.5S198.86,143.36,198.88,143.08Zm-2.29-1.34c-.07-.25-.49-.35-.89-.39s-.48.16-.48.37.34.44.83.42C196.38,142.12,196.61,142,196.59,141.74Zm-1.93-.72c-1.18-.24-1.9-.36-2.65.13A5.44,5.44,0,0,0,194.66,141Z"/><path class="cls-14" d="M204.07,161.06c1.09-.41,2.14-.79,2.67.38.1.24.62.42,1.14.51,1.07.19,1.6.65,1.48,1.34a6.93,6.93,0,0,0-.83.12c0,.82.15,1.63.24,2.45l.59,0v-2.54c1.12-.08,1.54.18,1.53.88s-.37,1.27.35,1.84c.37.29-.05.33-.41.43-3.61,1.07-3.61,1.08-4.61,2.83-4.14-.28-8.2-.07-12.27,0,.49.43,1.19.28,1.8.32s1,.16.85.54-.71.41-1.16.24a2,2,0,0,0-1.61-.18c.75.56.49,1.35,1.36,1.88-.42.36.13.74,0,1.11-.92-.17-1.46.34-2.22.45-.55.05-1.31-.15-1.44.41,0,.19,0,.38.41.44.58.1,1,0,1-.4.91-.17,1.45.32,2.19.45l0,.47h0c-1.55.53-2.74,1.75-5,1l0,0c.17-.49-.38-.5-.93-.51l-.79-.48c-1-1.34-.58-2.66,0-4,1.29-1.59,3.63-2.28,6.31-2.7l1.07,0,1.11.06c.46.61,1.36.6,2.25-.05l4.85-.41c.13.43-.91.34-.92.8.82,0,1.79.36,2.28-.23s-.38-.59-1-.61c4.33-1.36,4.94-2.89,2-5h0C206,162,204.74,161.7,204.07,161.06ZM193,171.3c-.08-.37,0-.78-.27-1.08a1.44,1.44,0,0,0-1.58-.55c-.78.24-.26.56,0,.91a1.77,1.77,0,0,1,0,2c-.09.18-.62.34,0,.51a1.17,1.17,0,0,0,1-.18A1.62,1.62,0,0,0,193,171.3Zm14.75-8.65a.2.2,0,0,0-.05-.09s-.09,0-.13,0a.24.24,0,0,0,0,.1Z"/><path class="cls-14" d="M195.17,173.18c.15-.37-.4-.75,0-1.11,2.22-1,4.79-.65,7.25-.67a1.81,1.81,0,0,1,1.71.85,17.58,17.58,0,0,0-5.81-.45c-2,.12-2.49.5-2.56,1.71,0,.51.09,1.06-.58,1.49,0-.16,0-.32,0-.47C195.16,174.08,195.16,173.63,195.17,173.18Z"/><path class="cls-14" d="M255.56,151.15a7.56,7.56,0,0,1,4.65-3.1,3.86,3.86,0,0,1,1.74.2c-.29.27-1.18.16-1.12.65a1.49,1.49,0,0,1,0,.21h-1.07c-.95-.53-1.3.13-1.72.37-.82.48-1,1.24-2,1.67Z"/><path class="cls-14" d="M201.33,148c1,.07,1.42-.23,1.38-.8a8,8,0,0,1,1.38,2.14l-1.47.46C201.79,149.31,201.75,148.61,201.33,148Z"/><path class="cls-14" d="M263,148.46c.09,2-1.75,3.3-4,4.48,0-.62.87-.94,1.48-1.34.4-.6,1.26-1.08,1.14-1.8,1.4-.3.46-1,.71-1.51Z"/><path class="cls-14" d="M262.31,148.29c-.25.5.69,1.21-.71,1.51-.53.12-.86.49-1.51.45-.48,0-.73-.15-.74-.45l0-.47a1.21,1.21,0,0,0,0-.19l.42,0h1.07c.11.13.23.25.34.37.12-.06.33-.12.35-.19.09-.3-.29-.35-.67-.39-.06-.49.83-.38,1.12-.65Z"/><path class="cls-14" d="M190.21,176c2.26.76,3.45-.46,5-1-.9,1.58-2.31,2-4.79,1.3Z"/><path class="cls-14" d="M226,156.78a5,5,0,0,0,2.89-2.85,8.44,8.44,0,0,0,1.4-3.41l.76-1.62.68-.44c.1.25-.22.59.75.86v-4.91c.9.07.73.49.74.85,0,.91,0,1.83,0,2.74a6,6,0,0,1-1.49,4.05c-1,.07-.67.54-.74.9h0c-1.82.67-2.61,2.22-1.64,3.58-1.89-.45-2.41,1-4.08.87C225.61,157.23,226.06,157.11,226,156.78Z"/><path class="cls-14" d="M231.74,152.05a6,6,0,0,0,1.49-4.05c2.43.58,1.21,1.78,1.46,2.71-.81.28-.63-.51-1.21-.29-.43.16-.23.47-.24.72,0,.59,0,1.19,0,1.78s-.18.89-1.18.92c-1.18,0-1.06-.44-1.07-.89h0C232,152.88,231.67,152.4,231.74,152.05Z"/><path class="cls-14" d="M241.17,181.18h-11.4V181h11.4Z"/><path class="cls-14" d="M213.36,148.58l0-.89c.4-.39,1.39-.64,1.65-.42.7.56.41,1.28.11,2.08-.85-.46-.17-1.1-.77-1.46-.83.13-.19.62-.68.8a.34.34,0,0,1-.16,0A.5.5,0,0,1,213.36,148.58Z"/><path class="cls-14" d="M237.65,174.53c.09,0,.13.09.11.16-.17.34.17.74-.48,1.15-.2-.6-1.38-1-.84-1.55C236.71,174,237.13,174.61,237.65,174.53Z"/><path class="cls-14" d="M198.91,170.06c.43,0,.69.12.71.39s-.28.48-.8.45-.62-.19-.61-.44S198.47,170.06,198.91,170.06Z"/><path class="cls-14" d="M235.37,150.72v3.33A4.19,4.19,0,0,1,235.37,150.72Z"/><path class="cls-14" d="M242.94,168.24v1.34h-.75c.25-.45-.6-1.12.74-1.36Z"/><path class="cls-14" d="M228.78,131.37l0-.44c.44-.68,2.74-1.16.51-2.1a4.59,4.59,0,0,1,2.2-.07c.25.33-.41.44-.4.71a.4.4,0,0,0,.34.47c.29.08.75.1.84-.06.84-1.57,2.1-.21,3.09-.12.49,0,.94.44,1.59.48L237,132c-.32,0-.73.11-.68.3.33,1.44-1.24,1.33-2.77,1.28h-.74c-2.89,0-2.9,0-3.27-1.71C229.45,131.61,229.31,131.41,228.78,131.37Z"/><path class="cls-14" d="M260.08,141l0,.23c-3.31,1.16-3.31,1.16-3.94,2.58-.89-.1-.16-.7-.81-.89-.42.13-1.15,1-1.18-.15a.59.59,0,0,0-.53-.55c-1.86-.4-.1-.91.11-1.1a.74.74,0,0,1,1.29.28c.12.34.9.35,1,.18C257,140.29,258.8,141.38,260.08,141Z"/><path class="cls-14" d="M255.62,144.86c0,.7.27,1.44-1.65,1.41-.84,0-.53.58-.59.92s.1.83-.87.77c-.8-.05-.59-.49-.62-.8a.78.78,0,0,1,.35-.73c.55-.42.75-.63-.53-.42-.76.12-1.12-.52-1.29-1s.34-.76.88-.88a1,1,0,0,1,1.27.6c.35.94.67,1.55,1.83.23.12-.13.8-.09,1.21-.14Z"/><path class="cls-14" d="M242.94,166c1-.66.6-1.57.95-2.57a1.24,1.24,0,0,1,.52,1.36c0,.66-.12,1.25,1.53,1.25,1.12,0,.71.69.68,1.08,0,.61-.77.21-1.23.25-1,.09-.86-.72-1.71-.7C243.68,166.34,243.7,166,242.94,166Z"/><path class="cls-14" d="M259.74,149.12l-.42,0-.12.05.13.14,0,.47-2.67,1.86c-.2.14-.05.26.08.4.72.8-.2.85-1.14.89l-.09-1.61h0l.48-.17c1-.43,1.21-1.19,2-1.67C258.44,149.25,258.79,148.59,259.74,149.12Z"/><path class="cls-14" d="M254.75,164.73a6,6,0,0,1,.88-2.34c1.11.19,1.24.69,1,1.24a3.37,3.37,0,0,0-.25,1.1c-.05.34.33.89-.49,1C254.77,165.78,255,165.13,254.75,164.73Z"/><path class="cls-14" d="M249.65,150.25c-1.1-.65-2.08-1.3-1-2.32.63-.61-.47-1.46,1-2.25v4.57Z"/><path class="cls-14" d="M258.4,137.3c.52,1-.28,2,.81,2.95a14.54,14.54,0,0,1-3.21.06c-.37-.31.12-.55.3-.55,2.44,0,1.32-1.06,1.55-1.72C257.93,137.81,257.68,137.52,258.4,137.3Z"/><path class="cls-14" d="M266.34,166c.7.44.08,1.54,1.82,1.11,0,.21.12.44,0,.64s-.66.27-1.07.27-.94,0-1-.34A2,2,0,0,1,266.34,166Z"/><path class="cls-14" d="M231,137.89a2.83,2.83,0,0,1,.8-.22c.52,0,.86-.55,1.26-.24s.28.88.09,1.3-.61.33-1,.06-.41-.65-1.11-.68Z"/><path class="cls-14" d="M255.53,151.34l.09,1.61h-1.5c-.5,0-.73-.17-.75-.46Z"/><path class="cls-14" d="M232.49,146.2v3.12c-1-.27-.65-.61-.75-.86C232.15,147.72,230.92,146.79,232.49,146.2Z"/><path class="cls-14" d="M247.64,133c-1,.16-1.56.62-2.26.14-.29-.2-.38-.6,0-.69C246.18,132.25,246.69,132.66,247.64,133Z"/><path class="cls-14" d="M253.5,168.42c.74,0,1.27-.68,2-.31.4.2-.14.53-.53.72C254,169.31,254,168.62,253.5,168.42Z"/><path class="cls-14" d="M260.09,150.25c.65,0,1-.33,1.51-.45.12.72-.74,1.2-1.14,1.8A1.55,1.55,0,0,1,260.09,150.25Z"/><path class="cls-14" d="M247.73,149.92c.42.44.73.87-.07,1.18a1.32,1.32,0,0,1-.66,0C246.79,150.59,247.76,150.38,247.73,149.92Z"/><path class="cls-14" d="M245.17,135.41v-1.64l.57,0c0,.55.85,1.14-.57,1.62Z"/><path class="cls-14" d="M250.45,152.91c0,.67.87.43,1.44.49v.45h-2.23c0-.39-.16-.85.81-.94Z"/><path class="cls-14" d="M254.12,153h1.5c-.09.33.25.82-.66.86C253.88,153.86,254.2,153.31,254.12,153Z"/><path class="cls-14" d="M235.54,136c-1.09-.31-.82-.8-.65-1.43C235.75,135,235.43,135.51,235.54,136Z"/><path class="cls-14" d="M271.28,163.29h1.5l-1.07,1.08c-.66-.36-.33-.74-.43-1.08Z"/><path class="cls-14" d="M233.7,136.69a1.43,1.43,0,0,1-.18-1.87A1.43,1.43,0,0,1,233.7,136.69Z"/><path class="cls-14" d="M258.1,160.23c.7.69.45,1.13.39,1.77C257.59,161.42,257.86,161,258.1,160.23Z"/><path class="cls-14" d="M248.57,164.2l-.43.44h-.73c.12-.41-.29-.88.29-1.23C248.75,163.41,247.58,164.2,248.57,164.2Z"/><path class="cls-14" d="M241.44,149.8c.09-.4-.21-.85.37-1.31.58.46.29.91.38,1.31h-.75Z"/><path class="cls-14" d="M251.88,153.85v-.45c.52,0,1.18-.14,1.42.32.06.12,0,.36-.13.4C252.63,154.29,252.42,153.78,251.88,153.85Z"/><path class="cls-14" d="M272.77,163.29c.07-.4-.16-.82.5-1.5.14.74.79,1.18-.49,1.5Z"/><path class="cls-14" d="M242.94,166c.76,0,.74.35.74.67s.12.51-.37.54-.35-.25-.37-.43S242.94,166.25,242.94,166Z"/><path class="cls-14" d="M270.28,164.94c-.69-.33-.45-.69-.34-1.18C270.84,164.17,270.42,164.57,270.28,164.94Z"/><path class="cls-14" d="M268.26,162.56l.39-.17c.62.38.46.79.14,1.29C268,163.36,268.42,162.91,268.26,162.56Z"/><path class="cls-14" d="M249.65,153.85c-.12.28.57.55,0,.82a.57.57,0,0,1-.63-.1c-.28-.36-.19-.65.59-.72Z"/><path class="cls-14" d="M247.29,136c-.78-.5-.68-.79-.35-1.14C247.71,135.09,247.29,135.43,247.29,136Z"/><path class="cls-14" d="M266.37,164.77c.36,0,.37.15.4.29s0,.32-.29.35-.36-.14-.39-.28S266.11,164.84,266.37,164.77Z"/><path class="cls-14" d="M249.63,159.26c.24,0,.53,0,.53.21s-.29.2-.53.2-.53,0-.53-.2S249.39,159.27,249.63,159.26Z"/><path class="cls-14" d="M257.1,159.24c.61,0,.83.25.68.59a.58.58,0,0,1-.34.17c-.56-.17-.23-.5-.34-.76Z"/><path class="cls-14" d="M261.58,171.38c.92.11.79.42.5.82-.72-.21-.4-.55-.5-.82Z"/><path class="cls-14" d="M274.42,163.4c-.18-.38-.3-.66.24-.94C275.19,162.78,274.86,163,274.42,163.4Z"/><path class="cls-14" d="M270.54,166c-.1.25.22.58-.33.75a.52.52,0,0,1-.34-.16c-.15-.34.06-.56.67-.59Z"/><path class="cls-14" d="M245.17,135.41c0,.23-.14.45-.64.4-.11,0-.3-.16-.28-.2.17-.26.59-.17.92-.2Z"/><path class="cls-14" d="M268.63,165c.08.1.21.18.22.27s-.25.23-.47.18-.19-.13-.28-.21Z"/><path class="cls-14" d="M252.19,155a1.76,1.76,0,0,1-.48.16c-.26,0-.47-.08-.38-.24a.69.69,0,0,1,.43-.11A1.49,1.49,0,0,1,252.19,155Z"/><path class="cls-14" d="M247.4,168.05c-.09.12-.13.26-.24.29-.28.06-.44-.06-.43-.22s.15-.19.27-.21S247.25,168,247.4,168.05Z"/><path class="cls-14" d="M242.93,168.23c.06-.17.1-.42.52-.31s.33.38.16.5c-.32.2-.4-.17-.67-.18Z"/><path class="cls-14" d="M249.65,150.25c.27,0,.59,0,.56.27,0,0-.07.07-.11.07-.41,0-.4-.18-.45-.34Z"/><path class="cls-14" d="M246.06,150.09c.05-.06.07-.16.14-.18s.2.05.31.07c0,.06-.07.16-.15.18A.76.76,0,0,1,246.06,150.09Z"/><path class="cls-14" d="M269.65,167.51c0,.06-.06.15-.14.17a.76.76,0,0,1-.3-.07c0-.06.07-.16.14-.17A.76.76,0,0,1,269.65,167.51Z"/><path class="cls-14" d="M241.44,149.8c-.05.17,0,.36-.45.34,0,0-.11,0-.11-.07,0-.24.29-.24.56-.27Z"/><path class="cls-14" d="M271.28,163.29c-.27,0-.59,0-.56-.27,0,0,.07-.07.11-.07.41,0,.4.18.45.34Z"/><path class="cls-14" d="M258.46,151.77c0,.06-.06.16-.14.18a1.41,1.41,0,0,1-.3-.07c0-.07.07-.16.14-.18A.76.76,0,0,1,258.46,151.77Z"/><path class="cls-14" d="M255.61,144.85c0-.16,0-.35.45-.33.05,0,.12,0,.12.07,0,.24-.29.24-.56.27Z"/><path class="cls-14" d="M266.33,168.33l.31.08c0,.06-.07.16-.14.18s-.2-.05-.3-.07Z"/><path class="cls-14" d="M242.19,139.46c0,.29-.26.44-.74.45h0q0-.43.75-.45Z"/><path class="cls-14" d="M260,139l.05.45c-.26,0-.61,0-.56-.26C259.54,139.13,259.85,139.08,260,139Z"/><path class="cls-14" d="M257,161.66c-.05.06-.07.15-.15.17a.76.76,0,0,1-.3-.07c0-.06.07-.16.14-.18A1.09,1.09,0,0,1,257,161.66Z"/><path class="cls-14" d="M242.19,139.46c0-.16,0-.35.44-.34.05,0,.12,0,.12.07,0,.25-.29.24-.56.27Z"/><path class="cls-14" d="M270.54,166c0-.16,0-.36.44-.34,0,0,.12,0,.12.07,0,.25-.29.24-.56.27Z"/><path class="cls-14" d="M242.2,137.45l.05-.24c.28,0,.67.06.48.3S242.35,137.58,242.2,137.45Z"/><path class="cls-14" d="M255.7,155.06c0,.06,0,.11-.14.13-.28,0-.7-.08-.48-.28S255.54,154.92,255.7,155.06Z"/><path class="cls-14" d="M251.61,158.26c-.11,0-.27,0-.3-.08s.07-.12.12-.19.26,0,.29.09S251.65,158.2,251.61,158.26Z"/><path class="cls-14" d="M247.41,164.64c0,.16,0,.35-.45.34,0,0-.11,0-.11-.07,0-.25.29-.24.56-.27Z"/><path class="cls-14" d="M247.13,131.29c-.1,0-.26,0-.29-.09s.07-.12.11-.18.27,0,.3.08S247.17,131.22,247.13,131.29Z"/><path class="cls-14" d="M270.16,153.63a4.57,4.57,0,0,1,2.17-1.83,7.19,7.19,0,0,0,1.58-.28,10.89,10.89,0,0,1,5.35-.81c.54,0,1.55-.23,1.46.3-.06.38-.3,1-1.53,1.06-.66,0-2-.32-1.81.48s1.41.3,2.17.39.87-.24,1.22-.53a2.92,2.92,0,0,1,2.79-.21c.64.36,1.06,1.2-.34,1.65-.08-.37.26-.9-.87-.87-.36,0-.42.1-.37.36.1.52.56.57,1.24.51-.57,1.16-2.05.22-3,.47h0c0-.36-.17-.68-.68-.85-1.95-.68-5.74.41-6.27,1.77l0-.05,0,.05-1.2-.05a1.78,1.78,0,0,0-1.49-.9C270.51,154.05,270.59,153.79,270.16,153.63Zm1.17,0a11.13,11.13,0,0,0,4.83-1.2c.19-.22.07-.34-.17-.48s-.61-.41-.9-.16C274.15,152.64,272.36,152.84,271.33,153.67Zm6.94-2.42-.14.18a.8.8,0,0,0,.31.07c.07,0,.09-.11.14-.17Z"/><path class="cls-14" d="M283.22,153.85c1.4-.45,1-1.29.34-1.65a2.92,2.92,0,0,0-2.79.21c-.35.29-.55.61-1.22.53s-2,.34-2.17-.39,1.15-.47,1.81-.48c1.23,0,1.47-.68,1.53-1.06.09-.53-.92-.27-1.46-.3a10.89,10.89,0,0,0-5.35.81,7.19,7.19,0,0,1-1.58.28c2.07-1.49,6.23-2.16,9.08-1.47,3,.74,4.29,2.9,2.54,4.4-1.37.26-2.79.7-3.75-.41,1-.25,2.45.69,3-.47Z"/><path class="cls-14" d="M270.16,153.63c.43.16.35.42.38.67h0a1.29,1.29,0,0,0-1,.42c-.88.95-1,2.07-1.85,3-.22.24.32.34.72.21,1.87-.61,3.23-1.47,3.65-2.77h0l1.2.05c-1.65,1.56-3.3,3.13-5,4.68a1.49,1.49,0,0,1-1.21.43c-.44,0-.67-.26-.63-.48A9,9,0,0,1,270.16,153.63Z"/><path class="cls-14" d="M273.24,155.25c.53-1.36,4.32-2.45,6.27-1.77.51.17.71.49.68.85-3-1-3.94-.82-6.37.84Z"/><path class="cls-14" d="M202.71,147.11c-.24-.05-.35-.12-.07-.23Z"/><path class="cls-14" d="M198.88,143.08c0,.28-.26.4-.7.4s-.76-.2-.7-.5.37-.36.78-.34S198.89,142.83,198.88,143.08Z"/><path class="cls-14" d="M196.59,141.74c0,.28-.21.38-.54.4-.49,0-.81-.1-.83-.42s.12-.4.48-.37S196.52,141.49,196.59,141.74Z"/><path class="cls-14" d="M194.66,141a5.44,5.44,0,0,1-2.65.13C192.76,140.66,193.48,140.78,194.66,141Z"/><path class="cls-14" d="M198.84,165.35c-.57.87-1.38-.07-2,.1l-1.7-.79c.58-.09,1.45.17,1.58-.47C197.83,164.28,198,165,198.84,165.35Z"/><path class="cls-14" d="M193,171.3a1.62,1.62,0,0,1-.84,1.65,1.17,1.17,0,0,1-1,.18c-.59-.17-.06-.33,0-.51a1.77,1.77,0,0,0,0-2c-.27-.35-.79-.67,0-.91a1.44,1.44,0,0,1,1.58.55C193,170.52,192.94,170.93,193,171.3Z"/><path class="cls-14" d="M209.36,163.29v2.54l-.59,0c-.09-.82-.2-1.63-.24-2.45a6.93,6.93,0,0,1,.83-.12Z"/><path class="cls-14" d="M195.17,173.18c0,.45,0,.9,0,1.35-.74-.13-1.28-.62-2.19-.45,0-.15,0-.3,0-.45C193.71,173.52,194.25,173,195.17,173.18Z"/><path class="cls-14" d="M204.14,167.81a.5.5,0,0,1,.32,0c.66,0,1.47.11,1,.61s-1.46.25-2.28.23C203.23,168.15,204.27,168.24,204.14,167.81Z"/><path class="cls-14" d="M193,173.63c0,.15,0,.3,0,.45-.09.39-.46.5-1,.4-.37-.06-.46-.25-.41-.44C191.64,173.48,192.4,173.68,193,173.63Z"/><path class="cls-14" d="M197,168.27l2.25-.05C198.4,168.87,197.5,168.88,197,168.27Z"/><path class="cls-14" d="M190.23,175.93a1,1,0,0,1-.93-.51C189.85,175.43,190.4,175.44,190.23,175.93Z"/><path class="cls-14" d="M207.77,162.65l-.13,0a.24.24,0,0,1,0-.1s.12,0,.13,0A.2.2,0,0,1,207.77,162.65Z"/><path class="cls-14" d="M256,151.16l-.48.17c-.06-.07,0-.13.05-.18Z"/><path class="cls-14" d="M236.85,129.62l.06.62c-.65,0-1.1-.44-1.59-.48-1-.09-2.25-1.45-3.09.12-.09.16-.55.14-.84.06a.4.4,0,0,1-.34-.47c0-.27.65-.38.4-.71a4.59,4.59,0,0,0-2.2.07c2.23.94-.07,1.42-.51,2.1a3,3,0,0,1,.11-2.75c.32-.83,1.32-1.22,2.76-1.12a10.23,10.23,0,0,1,3.92,1.15Zm-2.26-1.11c0-.07-.06-.16-.13-.18a.94.94,0,0,0-.31.06c0,.06.06.16.13.18S234.48,128.53,234.59,128.51Z"/><path class="cls-14" d="M260.83,148.9c.38,0,.76.09.67.39,0,.07-.23.13-.35.19-.11-.12-.23-.24-.34-.37A1.49,1.49,0,0,0,260.83,148.9Z"/><path class="cls-14" d="M259.33,149.33l-.13-.14.12-.05A1.21,1.21,0,0,1,259.33,149.33Z"/><path class="cls-14" d="M231.74,152.05c-.07.35.26.83-.74.9C231.07,152.59,230.75,152.12,231.74,152.05Z"/><path class="cls-14" d="M271.33,153.67c1-.83,2.82-1,3.76-1.84.29-.25.65,0,.9.16s.36.26.17.48A11.13,11.13,0,0,1,271.33,153.67Z"/><path class="cls-14" d="M283.22,153.85c-.68.06-1.14,0-1.24-.51-.05-.26,0-.35.37-.36,1.13,0,.79.5.87.87Z"/><path class="cls-14" d="M270.54,154.3a1.78,1.78,0,0,1,1.49.9h0c-1.15.09-1.65-.21-1.49-.9Z"/><path class="cls-14" d="M278.27,151.25l.31.08c-.05.06-.07.15-.14.17a.8.8,0,0,1-.31-.07Z"/><path class="cls-14" d="M270.54,154.3c-.16.69.34,1,1.49.9-.42,1.3-1.78,2.16-3.65,2.77-.4.13-.94,0-.72-.21.86-1,1-2.09,1.85-3A1.29,1.29,0,0,1,270.54,154.3Z"/><path class="cls-14" d="M234.59,128.51c-.11,0-.24.08-.31.06s-.09-.12-.13-.18a.94.94,0,0,1,.31-.06C234.53,128.35,234.55,128.44,234.59,128.51Z"/><path class="cls-15" d="M271.07,206.62,269.83,219a3.9,3.9,0,0,1-3.88,3.51H188.31a3.9,3.9,0,0,1-3.89-3.51l-1.31-13.12"/><path class="cls-16" d="M272.52,205.26l4.83-48.07H176.91l4.75,47.31a1.5,1.5,0,0,0,1.47,1.34l87.89.77A1.51,1.51,0,0,0,272.52,205.26Z"/><rect class="cls-17" x="173.53" y="154.38" width="106.07" height="4.22" rx="1.25"/></g></g></g></svg>