<?xml version="1.0" encoding="utf-8"?>
<!-- Generator: Adobe Illustrator 24.2.1, SVG Export Plug-In . SVG Version: 6.00 Build 0)  -->
<svg version="1.1" id="Layer_1" xmlns="http://www.w3.org/2000/svg" xmlns:xlink="http://www.w3.org/1999/xlink" x="0px" y="0px"
	 viewBox="0 0 45 45" style="enable-background:new 0 0 45 45;" xml:space="preserve">
<g id="ICONS">
	<path d="M40.9,22.7c0,4.3,0,8.6,0,12.9c0,3.9-2.1,6-6,6c-8.6,0-17.2,0-25.7,0c-3.9,0-6-2.2-6-6c0-8.7,0-17.3,0-26
		c0-3.7,2.2-6.1,6-6.1c8.6-0.1,17.2-0.1,25.7,0c3.8,0,6,2.3,6,6.1C41,14,40.9,18.3,40.9,22.7z M10.1,22.5c0,6.6,5.3,12,11.9,12.1
		c6.6,0,12-5.3,12.1-11.9s-5.3-12-11.9-12.1S10.1,15.9,10.1,22.5z M37.3,9.8c0.1-1.7-1.2-2.5-2.4-2.5c-1.7-0.2-2.8,1.1-2.8,2.8
		s0.8,2.5,2.6,2.5C37.6,12.6,37.3,9.8,37.3,9.8z"/>
	<path d="M30,22.6c0,4.4-3.5,8-7.9,8.1c-4.4,0-8-3.5-8.1-7.9l0,0c0-4.4,3.5-8,7.9-8.1S30,18.2,30,22.6z"/>
</g>
</svg>
