<svg xmlns="http://www.w3.org/2000/svg" viewBox="0 0 45 45"><g id="ICONS"><path d="M21.16,1.06h3.16a3.53,3.53,0,0,0,.54.13A21.18,21.18,0,0,1,43.71,17.58c.24,1.09.38,2.2.57,3.3V24L44,25.94C42.42,37.18,31.23,45.58,20,44c-1.09-.15-2.17-.44-3.09-.63.69-1.79,1.41-3.46,2-5.17s.94-3.47,1.42-5.27a7.46,7.46,0,0,0,7.84,2.25,10.56,10.56,0,0,0,5.27-3.31,15.37,15.37,0,0,0,1.54-17.73,11,11,0,0,0-6.25-4.9A17.3,17.3,0,0,0,19.73,9a14.81,14.81,0,0,0-8.88,5.28C8.12,17.84,7.94,21.9,9,26.07a5.94,5.94,0,0,0,3.42,3.86c.37.18.72.25,1-.13a3.64,3.64,0,0,0,.28-3.5,9.4,9.4,0,0,1,2.5-12,11.44,11.44,0,0,1,8.49-2.17c3.32.43,5.78,2.06,6.72,5.47A13.59,13.59,0,0,1,30,28.37a6.33,6.33,0,0,1-4,3.21c-2.52.63-5.11-1.58-4.31-4.14.39-1.25.75-2.52,1.08-3.79a23.71,23.71,0,0,0,.78-3.49A3,3,0,0,0,22.09,17a3.15,3.15,0,0,0-3.55.52,4.59,4.59,0,0,0-1.09,1.31,7.51,7.51,0,0,0-.38,6.38,1.66,1.66,0,0,1,.09.82c-.45,2-.93,4-1.42,6-.8,3.32-1.88,6.59-1.69,10.07,0,0-.05.07-.09.13a1.21,1.21,0,0,1-.25-.08A21.52,21.52,0,0,1,17.5,1.72C18.7,1.44,19.94,1.28,21.16,1.06Z"/></g></svg>