<svg xmlns="http://www.w3.org/2000/svg" viewBox="0 0 45 45"><g id="ICONS"><path d="M.28,36.37c6.17-.08,9.74-1.17,12.54-3.64C8.08,31.22,6.57,30,5.15,26.51l3.23-.39C4.21,24.23,2,21.56,1.75,17.33l3.75.92C1.92,14.63.72,10.9,3,6.23c5.13,5.57,11.15,8.83,18.57,9.29a25.78,25.78,0,0,1,.61-4.71A8.94,8.94,0,0,1,35.56,5.87c2.18,1.45,3.86,1.15,5.86.31a3.19,3.19,0,0,1,1.94-.3l-3,4.12,3.93-.9c-.24.46-.32.82-.53,1-3.25,2.17-3.5,5.55-4.09,9-3,17.41-22.52,26.69-38,18.19C1.35,37.1,1.07,36.89.28,36.37Z"/></g></svg>