<?xml version="1.0" standalone="no"?>
<!DOCTYPE svg PUBLIC "-//W3C//DTD SVG 20010904//EN"
 "http://www.w3.org/TR/2001/REC-SVG-20010904/DTD/svg10.dtd">
<svg version="1.0" xmlns="http://www.w3.org/2000/svg"
 width="196.000000pt" height="196.000000pt" viewBox="0 0 196.000000 196.000000"
 preserveAspectRatio="xMidYMid meet">
<metadata>
Created by potrace 1.11, written by Peter Selinger 2001-2013
</metadata>
<g transform="translate(0.000000,196.000000) scale(0.100000,-0.100000)"
fill="#000000" stroke="none">
<path d="M970 1821 c0 -4 -11 -20 -25 -35 -13 -14 -22 -26 -19 -26 3 0 -1 -6
-8 -14 -29 -30 -56 -64 -73 -94 -10 -17 -22 -29 -27 -26 -5 3 -7 2 -6 -3 4
-12 -52 -91 -68 -97 -9 -3 -13 -10 -10 -14 3 -5 -10 -25 -28 -45 -19 -21 -31
-37 -28 -37 3 0 -7 -11 -22 -25 -15 -14 -23 -25 -19 -25 4 0 -1 -7 -11 -15
-11 -8 -17 -15 -13 -15 7 0 -22 -37 -60 -77 -12 -13 -19 -23 -16 -23 3 0 -4
-9 -17 -20 -13 -11 -19 -20 -14 -20 5 0 0 -7 -11 -16 -11 -8 -20 -18 -20 -23
0 -4 -7 -15 -15 -24 -26 -29 -36 -41 -55 -74 -11 -18 -23 -33 -28 -33 -4 0 -5
-4 -2 -10 3 -5 1 -10 -4 -10 -6 0 -10 -3 -9 -7 0 -5 -9 -30 -21 -56 -12 -26
-25 -58 -27 -70 -44 -186 -10 -347 106 -498 44 -58 115 -121 124 -112 3 4 6 1
6 -5 0 -7 7 -12 16 -12 8 0 12 -4 9 -10 -5 -9 1 -12 21 -9 4 0 10 -3 13 -8 6
-9 63 -36 70 -33 2 1 7 -2 10 -7 5 -7 39 -20 106 -39 73 -21 318 -24 343 -4 1
2 7 4 12 5 6 1 12 4 15 5 3 1 10 4 15 5 6 1 11 3 13 4 1 2 13 4 26 7 14 2 30
9 38 15 7 6 13 8 13 5 0 -4 13 2 29 13 16 12 33 21 38 21 11 0 44 25 83 62 16
14 31 24 33 22 2 -3 10 3 18 13 12 15 12 16 -1 8 -8 -4 1 7 21 26 40 38 85 99
72 99 -4 0 -1 5 7 10 8 5 15 13 15 17 1 4 6 17 12 28 19 36 43 132 47 192 4
54 -7 149 -21 183 -3 8 -7 21 -9 29 -1 7 -7 18 -13 24 -6 6 -11 18 -11 27 0 9
-18 45 -40 79 -22 33 -40 64 -40 66 0 3 -11 16 -24 30 -14 13 -33 38 -42 55
-10 16 -22 30 -26 30 -4 0 -8 6 -8 13 0 7 -9 18 -20 25 -12 7 -18 17 -15 22 3
5 -4 14 -16 20 -11 7 -19 14 -16 16 2 3 -11 21 -29 41 -19 20 -32 38 -30 40 2
2 -12 20 -30 40 -19 20 -34 42 -34 49 0 6 -7 14 -15 18 -8 3 -15 12 -15 21 0
8 -4 15 -10 15 -5 0 -10 5 -10 10 0 6 -8 18 -17 28 -10 10 -25 29 -33 42 -8
12 -20 28 -26 34 -5 6 -19 26 -29 44 -11 17 -23 32 -28 32 -4 0 -6 4 -3 9 3 5
-1 11 -9 15 -8 3 -15 11 -15 18 0 8 -9 21 -20 31 -11 9 -20 13 -20 8z"/>
</g>
</svg>
